<?xml version="1.0" encoding="utf-8" standalone="no"?>
<!DOCTYPE svg PUBLIC "-//W3C//DTD SVG 1.1//EN"
  "http://www.w3.org/Graphics/SVG/1.1/DTD/svg11.dtd">
<!-- Created with matplotlib (https://matplotlib.org/) -->
<svg height="167.564064pt" version="1.1" viewBox="0 0 244.455296 167.564064" width="244.455296pt" xmlns="http://www.w3.org/2000/svg" xmlns:xlink="http://www.w3.org/1999/xlink">
 <metadata>
  <rdf:RDF xmlns:cc="http://creativecommons.org/ns#" xmlns:dc="http://purl.org/dc/elements/1.1/" xmlns:rdf="http://www.w3.org/1999/02/22-rdf-syntax-ns#">
   <cc:Work>
    <dc:type rdf:resource="http://purl.org/dc/dcmitype/StillImage"/>
    <dc:date>2021-01-28T16:51:03.908082</dc:date>
    <dc:format>image/svg+xml</dc:format>
    <dc:creator>
     <cc:Agent>
      <dc:title>Matplotlib v3.3.0, https://matplotlib.org/</dc:title>
     </cc:Agent>
    </dc:creator>
   </cc:Work>
  </rdf:RDF>
 </metadata>
 <defs>
  <style type="text/css">*{stroke-linecap:butt;stroke-linejoin:round;}</style>
 </defs>
 <g id="figure_1">
  <g id="patch_1">
   <path d="M 0 167.564064 
L 244.455296 167.564064 
L 244.455296 0 
L 0 0 
z
" style="fill:none;"/>
  </g>
  <g id="axes_1">
   <g id="patch_2">
    <path d="M 45.212587 146.295 
L 240.512587 146.295 
L 240.512587 3.6 
L 45.212587 3.6 
z
" style="fill:#ffffff;"/>
   </g>
   <g id="PolyCollection_1">
    <defs>
     <path d="M 61.989136 -21.323202 
L 61.989136 -21.269064 
L 62.735574 -21.269064 
L 63.482012 -21.269064 
L 64.228449 -21.269064 
L 64.974887 -21.269064 
L 65.721325 -21.269064 
L 66.467763 -21.269064 
L 67.214201 -21.269064 
L 67.960638 -21.269064 
L 68.707076 -21.269064 
L 69.453514 -21.269064 
L 70.199952 -21.269064 
L 70.946389 -21.269064 
L 71.692827 -21.269064 
L 72.439265 -21.269064 
L 73.185703 -21.269064 
L 73.93214 -21.269064 
L 74.678578 -21.269064 
L 75.425016 -21.269064 
L 76.171454 -21.269064 
L 76.917891 -21.269064 
L 77.664329 -21.269064 
L 78.410767 -21.269064 
L 79.157205 -21.269064 
L 79.903642 -21.269064 
L 80.65008 -21.269064 
L 81.396518 -21.269064 
L 82.142956 -21.269064 
L 82.889393 -21.269064 
L 83.635831 -21.269064 
L 84.382269 -21.269064 
L 85.128707 -21.269064 
L 85.875144 -21.269064 
L 86.621582 -21.269064 
L 87.36802 -21.269064 
L 88.114458 -21.269064 
L 88.860895 -21.269064 
L 89.607333 -21.269064 
L 90.353771 -21.269064 
L 91.100209 -21.269064 
L 91.846646 -21.269064 
L 92.593084 -21.269064 
L 93.339522 -21.269064 
L 94.08596 -21.269064 
L 94.832398 -21.269064 
L 95.578835 -21.269064 
L 96.325273 -21.269064 
L 97.071711 -21.269064 
L 97.818149 -21.269064 
L 98.564586 -21.269064 
L 99.311024 -21.269064 
L 100.057462 -21.269064 
L 100.8039 -21.269064 
L 101.550337 -21.269064 
L 102.296775 -21.269064 
L 103.043213 -21.269064 
L 103.789651 -21.269064 
L 104.536088 -21.269064 
L 105.282526 -21.269064 
L 106.028964 -21.269064 
L 106.775402 -21.269064 
L 107.521839 -21.269064 
L 108.268277 -21.269064 
L 109.014715 -21.269064 
L 109.761153 -21.269064 
L 110.50759 -21.269064 
L 111.254028 -21.269064 
L 112.000466 -21.269064 
L 112.746904 -21.269064 
L 113.493341 -21.269064 
L 114.239779 -21.269064 
L 114.986217 -21.269064 
L 115.732655 -21.269064 
L 116.479092 -21.269064 
L 117.22553 -21.269064 
L 117.971968 -21.269064 
L 118.718406 -21.269064 
L 119.464843 -21.269064 
L 120.211281 -21.269064 
L 120.957719 -21.269064 
L 121.704157 -21.269064 
L 122.450594 -21.269064 
L 123.197032 -21.269064 
L 123.94347 -21.269064 
L 124.689908 -21.269064 
L 125.436346 -21.269064 
L 126.182783 -21.269064 
L 126.929221 -21.269064 
L 127.675659 -21.269064 
L 128.422097 -21.269064 
L 129.168534 -21.269064 
L 129.914972 -21.269064 
L 130.66141 -21.269064 
L 131.407848 -21.269064 
L 132.154285 -21.269064 
L 132.900723 -21.269064 
L 133.647161 -21.269064 
L 134.393599 -21.269064 
L 135.140036 -21.269064 
L 135.886474 -21.269064 
L 136.632912 -21.269064 
L 137.37935 -21.269064 
L 138.125787 -21.269064 
L 138.872225 -21.269064 
L 139.618663 -21.269064 
L 140.365101 -21.269064 
L 141.111538 -21.269064 
L 141.857976 -21.269064 
L 142.604414 -21.269064 
L 143.350852 -21.269064 
L 144.097289 -21.269064 
L 144.843727 -21.269064 
L 145.590165 -21.269064 
L 146.336603 -21.269064 
L 147.08304 -21.269064 
L 147.829478 -21.269064 
L 148.575916 -21.269064 
L 149.322354 -21.269064 
L 150.068791 -21.269064 
L 150.815229 -21.269064 
L 151.561667 -21.269064 
L 152.308105 -21.269064 
L 153.054543 -21.269064 
L 153.80098 -21.269064 
L 154.547418 -21.269064 
L 155.293856 -21.269064 
L 156.040294 -21.269064 
L 156.786731 -21.269064 
L 157.533169 -21.269064 
L 158.279607 -21.269064 
L 159.026045 -21.269064 
L 159.772482 -21.269064 
L 160.51892 -21.269064 
L 161.265358 -21.269064 
L 162.011796 -21.269064 
L 162.758233 -21.269064 
L 163.504671 -21.269064 
L 164.251109 -21.269064 
L 164.997547 -21.269064 
L 165.743984 -21.269064 
L 166.490422 -21.269064 
L 167.23686 -21.269064 
L 167.983298 -21.269064 
L 168.729735 -21.269064 
L 169.476173 -21.269064 
L 170.222611 -21.269064 
L 170.969049 -21.269064 
L 171.715486 -21.269064 
L 172.461924 -21.269064 
L 173.208362 -21.269064 
L 173.9548 -21.269064 
L 174.701237 -21.269064 
L 175.447675 -21.269064 
L 176.194113 -21.269064 
L 176.940551 -21.269064 
L 177.686988 -21.269064 
L 178.433426 -21.269064 
L 179.179864 -21.269064 
L 179.926302 -21.269064 
L 180.67274 -21.269064 
L 181.419177 -21.269064 
L 182.165615 -21.269064 
L 182.912053 -21.269064 
L 183.658491 -21.269064 
L 184.404928 -21.269064 
L 185.151366 -21.269064 
L 185.897804 -21.269064 
L 186.644242 -21.269064 
L 187.390679 -21.269064 
L 188.137117 -21.269064 
L 188.883555 -21.269064 
L 189.629993 -21.269064 
L 190.37643 -21.269064 
L 191.122868 -21.269064 
L 191.869306 -21.269064 
L 192.615744 -21.269064 
L 193.362181 -21.269064 
L 194.108619 -21.269064 
L 194.855057 -21.269064 
L 195.601495 -21.269064 
L 196.347932 -21.269064 
L 197.09437 -21.269064 
L 197.840808 -21.269064 
L 198.587246 -21.269064 
L 199.333683 -21.269064 
L 200.080121 -21.269064 
L 200.826559 -21.269064 
L 201.572997 -21.269064 
L 202.319434 -21.269064 
L 203.065872 -21.269064 
L 203.81231 -21.269064 
L 204.558748 -21.269064 
L 205.305185 -21.269064 
L 206.051623 -21.269064 
L 206.798061 -21.269064 
L 207.544499 -21.269064 
L 208.290936 -21.269064 
L 209.037374 -21.269064 
L 209.783812 -21.269064 
L 210.53025 -21.269064 
L 210.53025 -21.319717 
L 210.53025 -21.319717 
L 209.783812 -21.33606 
L 209.037374 -21.356957 
L 208.290936 -21.383435 
L 207.544499 -21.416683 
L 206.798061 -21.458054 
L 206.051623 -21.509065 
L 205.305185 -21.571388 
L 204.558748 -21.64683 
L 203.81231 -21.737311 
L 203.065872 -21.84482 
L 202.319434 -21.97137 
L 201.572997 -22.118934 
L 200.826559 -22.289377 
L 200.080121 -22.484376 
L 199.333683 -22.705341 
L 198.587246 -22.953332 
L 197.840808 -23.22898 
L 197.09437 -23.532426 
L 196.347932 -23.863269 
L 195.601495 -24.22054 
L 194.855057 -24.602715 
L 194.108619 -25.007746 
L 193.362181 -25.433145 
L 192.615744 -25.876105 
L 191.869306 -26.333654 
L 191.122868 -26.802856 
L 190.37643 -27.281032 
L 189.629993 -27.76601 
L 188.883555 -28.256378 
L 188.137117 -28.751738 
L 187.390679 -29.25293 
L 186.644242 -29.762234 
L 185.897804 -30.283504 
L 185.151366 -30.822249 
L 184.404928 -31.385628 
L 183.658491 -31.98236 
L 182.912053 -32.62255 
L 182.165615 -33.317413 
L 181.419177 -34.078933 
L 180.67274 -34.919436 
L 179.926302 -35.851113 
L 179.179864 -36.885517 
L 178.433426 -38.033034 
L 177.686988 -39.302385 
L 176.940551 -40.700154 
L 176.194113 -42.230399 
L 175.447675 -43.894333 
L 174.701237 -45.690127 
L 173.9548 -47.612825 
L 173.208362 -49.654391 
L 172.461924 -51.803885 
L 171.715486 -54.047759 
L 170.969049 -56.370274 
L 170.222611 -58.754001 
L 169.476173 -61.180406 
L 168.729735 -63.630467 
L 167.983298 -66.085325 
L 167.23686 -68.526908 
L 166.490422 -70.938525 
L 165.743984 -73.305386 
L 164.997547 -75.615042 
L 164.251109 -77.857706 
L 163.504671 -80.026463 
L 162.758233 -82.117344 
L 162.011796 -84.129283 
L 161.265358 -86.063944 
L 160.51892 -87.925442 
L 159.772482 -89.719969 
L 159.026045 -91.455354 
L 158.279607 -93.140572 
L 157.533169 -94.785233 
L 156.786731 -96.399084 
L 156.040294 -97.991539 
L 155.293856 -99.571271 
L 154.547418 -101.145887 
L 153.80098 -102.721689 
L 153.054543 -104.303549 
L 152.308105 -105.894884 
L 151.561667 -107.497746 
L 150.815229 -109.112989 
L 150.068791 -110.740526 
L 149.322354 -112.379629 
L 148.575916 -114.029255 
L 147.829478 -115.688371 
L 147.08304 -117.356239 
L 146.336603 -119.032644 
L 145.590165 -120.718035 
L 144.843727 -122.413568 
L 144.097289 -124.121036 
L 143.350852 -125.842684 
L 142.604414 -127.580937 
L 141.857976 -129.338025 
L 141.111538 -131.115559 
L 140.365101 -132.914073 
L 139.618663 -134.732564 
L 138.872225 -136.568075 
L 138.125787 -138.415338 
L 137.37935 -140.266514 
L 136.632912 -142.111057 
L 135.886474 -143.935697 
L 135.140036 -145.724569 
L 134.393599 -147.459475 
L 133.647161 -149.120271 
L 132.900723 -150.685351 
L 132.154285 -152.13223 
L 131.407848 -153.438165 
L 130.66141 -154.580813 
L 129.914972 -155.538883 
L 129.168534 -156.292748 
L 128.422097 -156.825011 
L 127.675659 -157.120983 
L 126.929221 -157.169064 
L 126.182783 -156.961025 
L 125.436346 -156.492162 
L 124.689908 -155.761349 
L 123.94347 -154.770972 
L 123.197032 -153.526758 
L 122.450594 -152.037519 
L 121.704157 -150.314815 
L 120.957719 -148.37256 
L 120.211281 -146.22658 
L 119.464843 -143.894153 
L 118.718406 -141.393539 
L 117.971968 -138.743515 
L 117.22553 -135.962938 
L 116.479092 -133.070345 
L 115.732655 -130.083592 
L 114.986217 -127.019555 
L 114.239779 -123.893886 
L 113.493341 -120.72084 
L 112.746904 -117.513158 
L 112.000466 -114.282025 
L 111.254028 -111.037096 
L 110.50759 -107.78657 
L 109.761153 -104.537341 
L 109.014715 -101.295181 
L 108.268277 -98.064978 
L 107.521839 -94.850994 
L 106.775402 -91.657148 
L 106.028964 -88.487292 
L 105.282526 -85.345478 
L 104.536088 -82.236195 
L 103.789651 -79.16455 
L 103.043213 -76.1364 
L 102.296775 -73.1584 
L 101.550337 -70.237984 
L 100.8039 -67.383252 
L 100.057462 -64.602792 
L 99.311024 -61.905428 
L 98.564586 -59.299918 
L 97.818149 -56.794612 
L 97.071711 -54.39711 
L 96.325273 -52.113921 
L 95.578835 -49.950161 
L 94.832398 -47.909313 
L 94.08596 -45.993054 
L 93.339522 -44.201175 
L 92.593084 -42.531586 
L 91.846646 -40.980424 
L 91.100209 -39.542236 
L 90.353771 -38.210246 
L 89.607333 -36.976665 
L 88.860895 -35.833047 
L 88.114458 -34.770653 
L 87.36802 -33.780802 
L 86.621582 -32.855199 
L 85.875144 -31.98621 
L 85.128707 -31.167082 
L 84.382269 -30.392085 
L 83.635831 -29.656597 
L 82.889393 -28.957107 
L 82.142956 -28.291163 
L 81.396518 -27.657263 
L 80.65008 -27.054708 
L 79.903642 -26.483425 
L 79.157205 -25.943784 
L 78.410767 -25.436407 
L 77.664329 -24.961997 
L 76.917891 -24.52118 
L 76.171454 -24.114385 
L 75.425016 -23.741746 
L 74.678578 -23.403041 
L 73.93214 -23.097669 
L 73.185703 -22.824643 
L 72.439265 -22.582619 
L 71.692827 -22.36994 
L 70.946389 -22.184692 
L 70.199952 -22.024768 
L 69.453514 -21.887941 
L 68.707076 -21.771926 
L 67.960638 -21.674441 
L 67.214201 -21.593266 
L 66.467763 -21.526281 
L 65.721325 -21.471503 
L 64.974887 -21.427111 
L 64.228449 -21.391459 
L 63.482012 -21.363083 
L 62.735574 -21.3407 
L 61.989136 -21.323202 
z
" id="m7f859b392a" style="stroke:#008000;"/>
    </defs>
    <g clip-path="url(#pa718e9deb4)">
     <use style="fill:#008000;fill-opacity:0.25;stroke:#008000;" x="0" xlink:href="#m7f859b392a" y="167.564064"/>
    </g>
   </g>
   <g id="PolyCollection_2">
    <defs>
     <path d="M 54.08986 -21.306408 
L 54.08986 -21.269064 
L 54.982048 -21.269064 
L 55.874236 -21.269064 
L 56.766424 -21.269064 
L 57.658612 -21.269064 
L 58.550801 -21.269064 
L 59.442989 -21.269064 
L 60.335177 -21.269064 
L 61.227365 -21.269064 
L 62.119553 -21.269064 
L 63.011742 -21.269064 
L 63.90393 -21.269064 
L 64.796118 -21.269064 
L 65.688306 -21.269064 
L 66.580495 -21.269064 
L 67.472683 -21.269064 
L 68.364871 -21.269064 
L 69.257059 -21.269064 
L 70.149247 -21.269064 
L 71.041436 -21.269064 
L 71.933624 -21.269064 
L 72.825812 -21.269064 
L 73.718 -21.269064 
L 74.610188 -21.269064 
L 75.502377 -21.269064 
L 76.394565 -21.269064 
L 77.286753 -21.269064 
L 78.178941 -21.269064 
L 79.07113 -21.269064 
L 79.963318 -21.269064 
L 80.855506 -21.269064 
L 81.747694 -21.269064 
L 82.639882 -21.269064 
L 83.532071 -21.269064 
L 84.424259 -21.269064 
L 85.316447 -21.269064 
L 86.208635 -21.269064 
L 87.100823 -21.269064 
L 87.993012 -21.269064 
L 88.8852 -21.269064 
L 89.777388 -21.269064 
L 90.669576 -21.269064 
L 91.561765 -21.269064 
L 92.453953 -21.269064 
L 93.346141 -21.269064 
L 94.238329 -21.269064 
L 95.130517 -21.269064 
L 96.022706 -21.269064 
L 96.914894 -21.269064 
L 97.807082 -21.269064 
L 98.69927 -21.269064 
L 99.591458 -21.269064 
L 100.483647 -21.269064 
L 101.375835 -21.269064 
L 102.268023 -21.269064 
L 103.160211 -21.269064 
L 104.0524 -21.269064 
L 104.944588 -21.269064 
L 105.836776 -21.269064 
L 106.728964 -21.269064 
L 107.621152 -21.269064 
L 108.513341 -21.269064 
L 109.405529 -21.269064 
L 110.297717 -21.269064 
L 111.189905 -21.269064 
L 112.082093 -21.269064 
L 112.974282 -21.269064 
L 113.86647 -21.269064 
L 114.758658 -21.269064 
L 115.650846 -21.269064 
L 116.543035 -21.269064 
L 117.435223 -21.269064 
L 118.327411 -21.269064 
L 119.219599 -21.269064 
L 120.111787 -21.269064 
L 121.003976 -21.269064 
L 121.896164 -21.269064 
L 122.788352 -21.269064 
L 123.68054 -21.269064 
L 124.572728 -21.269064 
L 125.464917 -21.269064 
L 126.357105 -21.269064 
L 127.249293 -21.269064 
L 128.141481 -21.269064 
L 129.03367 -21.269064 
L 129.925858 -21.269064 
L 130.818046 -21.269064 
L 131.710234 -21.269064 
L 132.602422 -21.269064 
L 133.494611 -21.269064 
L 134.386799 -21.269064 
L 135.278987 -21.269064 
L 136.171175 -21.269064 
L 137.063363 -21.269064 
L 137.955552 -21.269064 
L 138.84774 -21.269064 
L 139.739928 -21.269064 
L 140.632116 -21.269064 
L 141.524305 -21.269064 
L 142.416493 -21.269064 
L 143.308681 -21.269064 
L 144.200869 -21.269064 
L 145.093057 -21.269064 
L 145.985246 -21.269064 
L 146.877434 -21.269064 
L 147.769622 -21.269064 
L 148.66181 -21.269064 
L 149.553998 -21.269064 
L 150.446187 -21.269064 
L 151.338375 -21.269064 
L 152.230563 -21.269064 
L 153.122751 -21.269064 
L 154.01494 -21.269064 
L 154.907128 -21.269064 
L 155.799316 -21.269064 
L 156.691504 -21.269064 
L 157.583692 -21.269064 
L 158.475881 -21.269064 
L 159.368069 -21.269064 
L 160.260257 -21.269064 
L 161.152445 -21.269064 
L 162.044633 -21.269064 
L 162.936822 -21.269064 
L 163.82901 -21.269064 
L 164.721198 -21.269064 
L 165.613386 -21.269064 
L 166.505574 -21.269064 
L 167.397763 -21.269064 
L 168.289951 -21.269064 
L 169.182139 -21.269064 
L 170.074327 -21.269064 
L 170.966516 -21.269064 
L 171.858704 -21.269064 
L 172.750892 -21.269064 
L 173.64308 -21.269064 
L 174.535268 -21.269064 
L 175.427457 -21.269064 
L 176.319645 -21.269064 
L 177.211833 -21.269064 
L 178.104021 -21.269064 
L 178.996209 -21.269064 
L 179.888398 -21.269064 
L 180.780586 -21.269064 
L 181.672774 -21.269064 
L 182.564962 -21.269064 
L 183.457151 -21.269064 
L 184.349339 -21.269064 
L 185.241527 -21.269064 
L 186.133715 -21.269064 
L 187.025903 -21.269064 
L 187.918092 -21.269064 
L 188.81028 -21.269064 
L 189.702468 -21.269064 
L 190.594656 -21.269064 
L 191.486844 -21.269064 
L 192.379033 -21.269064 
L 193.271221 -21.269064 
L 194.163409 -21.269064 
L 195.055597 -21.269064 
L 195.947786 -21.269064 
L 196.839974 -21.269064 
L 197.732162 -21.269064 
L 198.62435 -21.269064 
L 199.516538 -21.269064 
L 200.408727 -21.269064 
L 201.300915 -21.269064 
L 202.193103 -21.269064 
L 203.085291 -21.269064 
L 203.977479 -21.269064 
L 204.869668 -21.269064 
L 205.761856 -21.269064 
L 206.654044 -21.269064 
L 207.546232 -21.269064 
L 208.438421 -21.269064 
L 209.330609 -21.269064 
L 210.222797 -21.269064 
L 211.114985 -21.269064 
L 212.007173 -21.269064 
L 212.899362 -21.269064 
L 213.79155 -21.269064 
L 214.683738 -21.269064 
L 215.575926 -21.269064 
L 216.468114 -21.269064 
L 217.360303 -21.269064 
L 218.252491 -21.269064 
L 219.144679 -21.269064 
L 220.036867 -21.269064 
L 220.929056 -21.269064 
L 221.821244 -21.269064 
L 222.713432 -21.269064 
L 223.60562 -21.269064 
L 224.497808 -21.269064 
L 225.389997 -21.269064 
L 226.282185 -21.269064 
L 227.174373 -21.269064 
L 228.066561 -21.269064 
L 228.958749 -21.269064 
L 229.850938 -21.269064 
L 230.743126 -21.269064 
L 231.635314 -21.269064 
L 231.635314 -21.303311 
L 231.635314 -21.303311 
L 230.743126 -21.314182 
L 229.850938 -21.327987 
L 228.958749 -21.345351 
L 228.066561 -21.366976 
L 227.174373 -21.393642 
L 226.282185 -21.4262 
L 225.389997 -21.465553 
L 224.497808 -21.512637 
L 223.60562 -21.568397 
L 222.713432 -21.633748 
L 221.821244 -21.709541 
L 220.929056 -21.796512 
L 220.036867 -21.895238 
L 219.144679 -22.006087 
L 218.252491 -22.129167 
L 217.360303 -22.264289 
L 216.468114 -22.410933 
L 215.575926 -22.568224 
L 214.683738 -22.734936 
L 213.79155 -22.909506 
L 212.899362 -23.090077 
L 212.007173 -23.274564 
L 211.114985 -23.460746 
L 210.222797 -23.646386 
L 209.330609 -23.829363 
L 208.438421 -24.007835 
L 207.546232 -24.180396 
L 206.654044 -24.346255 
L 205.761856 -24.505392 
L 204.869668 -24.658716 
L 203.977479 -24.808182 
L 203.085291 -24.956891 
L 202.193103 -25.10914 
L 201.300915 -25.270424 
L 200.408727 -25.447395 
L 199.516538 -25.647754 
L 198.62435 -25.880105 
L 197.732162 -26.153746 
L 196.839974 -26.478423 
L 195.947786 -26.864047 
L 195.055597 -27.320384 
L 194.163409 -27.856737 
L 193.271221 -28.48162 
L 192.379033 -29.202453 
L 191.486844 -30.025275 
L 190.594656 -30.954505 
L 189.702468 -31.992737 
L 188.81028 -33.1406 
L 187.918092 -34.396677 
L 187.025903 -35.757482 
L 186.133715 -37.217502 
L 185.241527 -38.769295 
L 184.349339 -40.403643 
L 183.457151 -42.109752 
L 182.564962 -43.875485 
L 181.672774 -45.687632 
L 180.780586 -47.532195 
L 179.888398 -49.394692 
L 178.996209 -51.260467 
L 178.104021 -53.11501 
L 177.211833 -54.944266 
L 176.319645 -56.734953 
L 175.427457 -58.474868 
L 174.535268 -60.153186 
L 173.64308 -61.760746 
L 172.750892 -63.290316 
L 171.858704 -64.736835 
L 170.966516 -66.097614 
L 170.074327 -67.37249 
L 169.182139 -68.56392 
L 168.289951 -69.677002 
L 167.397763 -70.719413 
L 166.505574 -71.701254 
L 165.613386 -72.634801 
L 164.721198 -73.534163 
L 163.82901 -74.41485 
L 162.936822 -75.293269 
L 162.044633 -76.186161 
L 161.152445 -77.110013 
L 160.260257 -78.080457 
L 159.368069 -79.111702 
L 158.475881 -80.21601 
L 157.583692 -81.403259 
L 156.691504 -82.680603 
L 155.799316 -84.052248 
L 154.907128 -85.519358 
L 154.01494 -87.080087 
L 153.122751 -88.729725 
L 152.230563 -90.46096 
L 151.338375 -92.26422 
L 150.446187 -94.12809 
L 149.553998 -96.039759 
L 148.66181 -97.98549 
L 147.769622 -99.951084 
L 146.877434 -101.92231 
L 145.985246 -103.885303 
L 145.093057 -105.826902 
L 144.200869 -107.734932 
L 143.308681 -109.598423 
L 142.416493 -111.407774 
L 141.524305 -113.154858 
L 140.632116 -114.833079 
L 139.739928 -116.437383 
L 138.84774 -117.964233 
L 137.955552 -119.411544 
L 137.063363 -120.778587 
L 136.171175 -122.065861 
L 135.278987 -123.274933 
L 134.386799 -124.40825 
L 133.494611 -125.46891 
L 132.602422 -126.460418 
L 131.710234 -127.386406 
L 130.818046 -128.250343 
L 129.925858 -129.05522 
L 129.03367 -129.803256 
L 128.141481 -130.495595 
L 127.249293 -131.132045 
L 126.357105 -131.71085 
L 125.464917 -132.228521 
L 124.572728 -132.679731 
L 123.68054 -133.057285 
L 122.788352 -133.352176 
L 121.896164 -133.553726 
L 121.003976 -133.649802 
L 120.111787 -133.627121 
L 119.219599 -133.471607 
L 118.327411 -133.16881 
L 117.435223 -132.70436 
L 116.543035 -132.064433 
L 115.650846 -131.236221 
L 114.758658 -130.208384 
L 113.86647 -128.971466 
L 112.974282 -127.518258 
L 112.082093 -125.844107 
L 111.189905 -123.947147 
L 110.297717 -121.828463 
L 109.405529 -119.492177 
L 108.513341 -116.945453 
L 107.621152 -114.198436 
L 106.728964 -111.264121 
L 105.836776 -108.158157 
L 104.944588 -104.898597 
L 104.0524 -101.505604 
L 103.160211 -98.001108 
L 102.268023 -94.408433 
L 101.375835 -90.751897 
L 100.483647 -87.056392 
L 99.591458 -83.346949 
L 98.69927 -79.648307 
L 97.807082 -75.984483 
L 96.914894 -72.378361 
L 96.022706 -68.851306 
L 95.130517 -65.422825 
L 94.238329 -62.110259 
L 93.346141 -58.928552 
L 92.453953 -55.890074 
L 91.561765 -53.00452 
L 90.669576 -50.278882 
L 89.777388 -47.717496 
L 88.8852 -45.322163 
L 87.993012 -43.092329 
L 87.100823 -41.025328 
L 86.208635 -39.116662 
L 85.316447 -37.360311 
L 84.424259 -35.749064 
L 83.532071 -34.274843 
L 82.639882 -32.929023 
L 81.747694 -31.702716 
L 80.855506 -30.587033 
L 79.963318 -29.573291 
L 79.07113 -28.653189 
L 78.178941 -27.818921 
L 77.286753 -27.063262 
L 76.394565 -26.379594 
L 75.502377 -25.761913 
L 74.610188 -25.204797 
L 73.718 -24.703359 
L 72.825812 -24.253183 
L 71.933624 -23.850254 
L 71.041436 -23.490896 
L 70.149247 -23.171702 
L 69.257059 -22.889481 
L 68.364871 -22.641216 
L 67.472683 -22.42403 
L 66.580495 -22.235162 
L 65.688306 -22.071963 
L 64.796118 -21.931888 
L 63.90393 -21.812503 
L 63.011742 -21.711493 
L 62.119553 -21.626672 
L 61.227365 -21.555997 
L 60.335177 -21.497576 
L 59.442989 -21.449673 
L 58.550801 -21.410717 
L 57.658612 -21.379301 
L 56.766424 -21.35418 
L 55.874236 -21.334263 
L 54.982048 -21.318607 
L 54.08986 -21.306408 
z
" id="m0e484d4d70" style="stroke:#ffa500;"/>
    </defs>
    <g clip-path="url(#pa718e9deb4)">
     <use style="fill:#ffa500;fill-opacity:0.25;stroke:#ffa500;" x="0" xlink:href="#m0e484d4d70" y="167.564064"/>
    </g>
   </g>
   <g id="matplotlib.axis_1">
    <g id="xtick_1">
     <g id="line2d_1">
      <path clip-path="url(#pa718e9deb4)" d="M 54.463881 146.295 
L 54.463881 3.6 
" style="fill:none;stroke:#000000;stroke-dasharray:0.5,0.825;stroke-dashoffset:0;stroke-opacity:0.5;stroke-width:0.5;"/>
     </g>
     <g id="line2d_2">
      <defs>
       <path d="M 0 0 
L 0 -3 
" id="m88de7efede" style="stroke:#000000;stroke-width:0.5;"/>
      </defs>
      <g>
       <use style="stroke:#000000;stroke-width:0.5;" x="54.463881" xlink:href="#m88de7efede" y="146.295"/>
      </g>
     </g>
     <g id="line2d_3">
      <defs>
       <path d="M 0 0 
L 0 3 
" id="m6c4ac9de85" style="stroke:#000000;stroke-width:0.5;"/>
      </defs>
      <g>
       <use style="stroke:#000000;stroke-width:0.5;" x="54.463881" xlink:href="#m6c4ac9de85" y="3.6"/>
      </g>
     </g>
     <g id="text_1">
      <!-- $\mathdefault{0}$ -->
      <g transform="translate(50.561887 160.864588)scale(0.16 -0.16)">
       <defs>
        <path d="M 42 31.84375 
C 42 37.96875 41.90625 48.421875 37.703125 56.453125 
C 34 63.484375 28.09375 66 22.90625 66 
C 18.09375 66 12 63.78125 8.203125 56.5625 
C 4.203125 49.015625 3.796875 39.671875 3.796875 31.84375 
C 3.796875 26.109375 3.90625 17.375 7 9.734375 
C 11.296875 -0.609375 19 -2 22.90625 -2 
C 27.5 -2 34.5 -0.109375 38.59375 9.4375 
C 41.59375 16.375 42 24.5 42 31.84375 
z
M 22.90625 -0.40625 
C 16.5 -0.40625 12.703125 5.125 11.296875 12.75 
C 10.203125 18.6875 10.203125 27.328125 10.203125 32.953125 
C 10.203125 40.6875 10.203125 47.109375 11.5 53.234375 
C 13.40625 61.78125 19 64.390625 22.90625 64.390625 
C 27 64.390625 32.296875 61.671875 34.203125 53.4375 
C 35.5 47.71875 35.59375 40.984375 35.59375 32.953125 
C 35.59375 26.421875 35.59375 18.375 34.40625 12.453125 
C 32.296875 1.5 26.40625 -0.40625 22.90625 -0.40625 
z
" id="CMR17-48"/>
       </defs>
       <use transform="scale(0.996264)" xlink:href="#CMR17-48"/>
      </g>
     </g>
    </g>
    <g id="xtick_2">
     <g id="line2d_4">
      <path clip-path="url(#pa718e9deb4)" d="M 145.708591 146.295 
L 145.708591 3.6 
" style="fill:none;stroke:#000000;stroke-dasharray:0.5,0.825;stroke-dashoffset:0;stroke-opacity:0.5;stroke-width:0.5;"/>
     </g>
     <g id="line2d_5">
      <g>
       <use style="stroke:#000000;stroke-width:0.5;" x="145.708591" xlink:href="#m88de7efede" y="146.295"/>
      </g>
     </g>
     <g id="line2d_6">
      <g>
       <use style="stroke:#000000;stroke-width:0.5;" x="145.708591" xlink:href="#m6c4ac9de85" y="3.6"/>
      </g>
     </g>
     <g id="text_2">
      <!-- $\mathdefault{1}$ -->
      <g transform="translate(141.806598 160.864588)scale(0.16 -0.16)">
       <defs>
        <path d="M 26.59375 63.796875 
C 26.59375 65.890625 26.5 66 25.09375 66 
C 21.203125 61.359375 15.296875 59.890625 9.703125 59.6875 
C 9.40625 59.6875 8.90625 59.6875 8.796875 59.5 
C 8.703125 59.296875 8.703125 59.09375 8.703125 57 
C 11.796875 57 17 57.59375 21 59.984375 
L 21 7.296875 
C 21 3.796875 20.796875 2.59375 12.203125 2.59375 
L 9.203125 2.59375 
L 9.203125 0 
C 14 0.09375 19 0.1875 23.796875 0.1875 
C 28.59375 0.1875 33.59375 0.09375 38.40625 0 
L 38.40625 2.59375 
L 35.40625 2.59375 
C 26.796875 2.59375 26.59375 3.6875 26.59375 7.296875 
z
" id="CMR17-49"/>
       </defs>
       <use transform="scale(0.996264)" xlink:href="#CMR17-49"/>
      </g>
     </g>
    </g>
    <g id="xtick_3">
     <g id="line2d_7">
      <path clip-path="url(#pa718e9deb4)" d="M 236.953302 146.295 
L 236.953302 3.6 
" style="fill:none;stroke:#000000;stroke-dasharray:0.5,0.825;stroke-dashoffset:0;stroke-opacity:0.5;stroke-width:0.5;"/>
     </g>
     <g id="line2d_8">
      <g>
       <use style="stroke:#000000;stroke-width:0.5;" x="236.953302" xlink:href="#m88de7efede" y="146.295"/>
      </g>
     </g>
     <g id="line2d_9">
      <g>
       <use style="stroke:#000000;stroke-width:0.5;" x="236.953302" xlink:href="#m6c4ac9de85" y="3.6"/>
      </g>
     </g>
     <g id="text_3">
      <!-- $\mathdefault{2}$ -->
      <g transform="translate(233.051309 160.864588)scale(0.16 -0.16)">
       <defs>
        <path d="M 41.703125 15.46875 
L 39.90625 15.46875 
C 38.90625 8.390625 38.09375 7.1875 37.703125 6.59375 
C 37.203125 5.796875 30 5.796875 28.59375 5.796875 
L 9.40625 5.796875 
C 13 9.6875 20 16.765625 28.5 24.9375 
C 34.59375 30.71875 41.703125 37.5 41.703125 47.390625 
C 41.703125 59.1875 32.296875 66 21.796875 66 
C 10.796875 66 4.09375 56.296875 4.09375 47.296875 
C 4.09375 43.390625 7 42.890625 8.203125 42.890625 
C 9.203125 42.890625 12.203125 43.484375 12.203125 46.984375 
C 12.203125 50.09375 9.59375 51 8.203125 51 
C 7.59375 51 7 50.890625 6.59375 50.6875 
C 8.5 59.1875 14.296875 63.390625 20.40625 63.390625 
C 29.09375 63.390625 34.796875 56.5 34.796875 47.390625 
C 34.796875 38.703125 29.703125 31.21875 24 24.734375 
L 4.09375 2.296875 
L 4.09375 0 
L 39.296875 0 
z
" id="CMR17-50"/>
       </defs>
       <use transform="scale(0.996264)" xlink:href="#CMR17-50"/>
      </g>
     </g>
    </g>
    <g id="xtick_4">
     <g id="line2d_10">
      <defs>
       <path d="M 0 0 
L 0 -1.5 
" id="m0153307eeb" style="stroke:#000000;stroke-width:0.5;"/>
      </defs>
      <g>
       <use style="stroke:#000000;stroke-width:0.5;" x="72.712823" xlink:href="#m0153307eeb" y="146.295"/>
      </g>
     </g>
     <g id="line2d_11">
      <defs>
       <path d="M 0 0 
L 0 1.5 
" id="ma3e3d24e21" style="stroke:#000000;stroke-width:0.5;"/>
      </defs>
      <g>
       <use style="stroke:#000000;stroke-width:0.5;" x="72.712823" xlink:href="#ma3e3d24e21" y="3.6"/>
      </g>
     </g>
    </g>
    <g id="xtick_5">
     <g id="line2d_12">
      <g>
       <use style="stroke:#000000;stroke-width:0.5;" x="90.961765" xlink:href="#m0153307eeb" y="146.295"/>
      </g>
     </g>
     <g id="line2d_13">
      <g>
       <use style="stroke:#000000;stroke-width:0.5;" x="90.961765" xlink:href="#ma3e3d24e21" y="3.6"/>
      </g>
     </g>
    </g>
    <g id="xtick_6">
     <g id="line2d_14">
      <g>
       <use style="stroke:#000000;stroke-width:0.5;" x="109.210707" xlink:href="#m0153307eeb" y="146.295"/>
      </g>
     </g>
     <g id="line2d_15">
      <g>
       <use style="stroke:#000000;stroke-width:0.5;" x="109.210707" xlink:href="#ma3e3d24e21" y="3.6"/>
      </g>
     </g>
    </g>
    <g id="xtick_7">
     <g id="line2d_16">
      <g>
       <use style="stroke:#000000;stroke-width:0.5;" x="127.459649" xlink:href="#m0153307eeb" y="146.295"/>
      </g>
     </g>
     <g id="line2d_17">
      <g>
       <use style="stroke:#000000;stroke-width:0.5;" x="127.459649" xlink:href="#ma3e3d24e21" y="3.6"/>
      </g>
     </g>
    </g>
    <g id="xtick_8">
     <g id="line2d_18">
      <g>
       <use style="stroke:#000000;stroke-width:0.5;" x="163.957534" xlink:href="#m0153307eeb" y="146.295"/>
      </g>
     </g>
     <g id="line2d_19">
      <g>
       <use style="stroke:#000000;stroke-width:0.5;" x="163.957534" xlink:href="#ma3e3d24e21" y="3.6"/>
      </g>
     </g>
    </g>
    <g id="xtick_9">
     <g id="line2d_20">
      <g>
       <use style="stroke:#000000;stroke-width:0.5;" x="182.206476" xlink:href="#m0153307eeb" y="146.295"/>
      </g>
     </g>
     <g id="line2d_21">
      <g>
       <use style="stroke:#000000;stroke-width:0.5;" x="182.206476" xlink:href="#ma3e3d24e21" y="3.6"/>
      </g>
     </g>
    </g>
    <g id="xtick_10">
     <g id="line2d_22">
      <g>
       <use style="stroke:#000000;stroke-width:0.5;" x="200.455418" xlink:href="#m0153307eeb" y="146.295"/>
      </g>
     </g>
     <g id="line2d_23">
      <g>
       <use style="stroke:#000000;stroke-width:0.5;" x="200.455418" xlink:href="#ma3e3d24e21" y="3.6"/>
      </g>
     </g>
    </g>
    <g id="xtick_11">
     <g id="line2d_24">
      <g>
       <use style="stroke:#000000;stroke-width:0.5;" x="218.70436" xlink:href="#m0153307eeb" y="146.295"/>
      </g>
     </g>
     <g id="line2d_25">
      <g>
       <use style="stroke:#000000;stroke-width:0.5;" x="218.70436" xlink:href="#ma3e3d24e21" y="3.6"/>
      </g>
     </g>
    </g>
   </g>
   <g id="matplotlib.axis_2">
    <g id="ytick_1">
     <g id="line2d_26">
      <path clip-path="url(#pa718e9deb4)" d="M 45.212587 146.295 
L 240.512587 146.295 
" style="fill:none;stroke:#000000;stroke-dasharray:0.5,0.825;stroke-dashoffset:0;stroke-opacity:0.5;stroke-width:0.5;"/>
     </g>
     <g id="line2d_27">
      <defs>
       <path d="M 0 0 
L 3 0 
" id="m5951146da3" style="stroke:#000000;stroke-width:0.5;"/>
      </defs>
      <g>
       <use style="stroke:#000000;stroke-width:0.5;" x="45.212587" xlink:href="#m5951146da3" y="146.295"/>
      </g>
     </g>
     <g id="line2d_28">
      <defs>
       <path d="M 0 0 
L -3 0 
" id="m061e0465d8" style="stroke:#000000;stroke-width:0.5;"/>
      </defs>
      <g>
       <use style="stroke:#000000;stroke-width:0.5;" x="240.512587" xlink:href="#m061e0465d8" y="146.295"/>
      </g>
     </g>
     <g id="text_4">
      <!-- $\mathdefault{0.0}$ -->
      <g transform="translate(21.769064 151.829794)scale(0.16 -0.16)">
       <defs>
        <path d="M 18.40625 4.796875 
C 18.40625 7.6875 16 9.6875 13.59375 9.6875 
C 10.703125 9.6875 8.703125 7.296875 8.703125 4.890625 
C 8.703125 2 11.09375 0 13.5 0 
C 16.40625 0 18.40625 2.390625 18.40625 4.796875 
z
" id="CMMI12-58"/>
       </defs>
       <use transform="scale(0.996264)" xlink:href="#CMR17-48"/>
       <use transform="translate(45.690477 0)scale(0.996264)" xlink:href="#CMMI12-58"/>
       <use transform="translate(72.787654 0)scale(0.996264)" xlink:href="#CMR17-48"/>
      </g>
     </g>
    </g>
    <g id="ytick_2">
     <g id="line2d_29">
      <path clip-path="url(#pa718e9deb4)" d="M 45.212587 105.821351 
L 240.512587 105.821351 
" style="fill:none;stroke:#000000;stroke-dasharray:0.5,0.825;stroke-dashoffset:0;stroke-opacity:0.5;stroke-width:0.5;"/>
     </g>
     <g id="line2d_30">
      <g>
       <use style="stroke:#000000;stroke-width:0.5;" x="45.212587" xlink:href="#m5951146da3" y="105.821351"/>
      </g>
     </g>
     <g id="line2d_31">
      <g>
       <use style="stroke:#000000;stroke-width:0.5;" x="240.512587" xlink:href="#m061e0465d8" y="105.821351"/>
      </g>
     </g>
     <g id="text_5">
      <!-- $\mathdefault{0.5}$ -->
      <g transform="translate(21.769064 111.356145)scale(0.16 -0.16)">
       <defs>
        <path d="M 11.40625 58.59375 
C 12.40625 58.1875 16.5 56.890625 20.703125 56.890625 
C 30 56.890625 35.09375 61.890625 38 64.6875 
C 38 65.484375 38 66 37.40625 66 
C 37.296875 66 37.09375 66 36.296875 65.59375 
C 32.796875 64.09375 28.703125 63 23.703125 63 
C 20.703125 63 16.203125 63.359375 11.296875 65.484375 
C 10.203125 66 10 66 9.90625 66 
C 9.40625 66 9.296875 65.890625 9.296875 63.90625 
L 9.296875 34.859375 
C 9.296875 33.015625 9.296875 32.5 10.296875 32.5 
C 10.796875 32.5 11 32.703125 11.5 33.421875 
C 14.703125 38.046875 19.09375 40 24.09375 40 
C 27.59375 40 35.09375 37.734375 35.09375 20.203125 
C 35.09375 16.984375 35.09375 11.1875 32.09375 6.59375 
C 29.59375 2.484375 25.703125 0.390625 21.40625 0.390625 
C 14.796875 0.390625 8.09375 4.984375 6.296875 12.6875 
C 6.703125 12.59375 7.5 12.390625 7.90625 12.390625 
C 9.203125 12.390625 11.703125 13.09375 11.703125 16.1875 
C 11.703125 18.890625 9.796875 20 7.90625 20 
C 5.59375 20 4.09375 18.59375 4.09375 15.796875 
C 4.09375 7.09375 11 -2 21.59375 -2 
C 31.90625 -2 41.703125 6.890625 41.703125 19.796875 
C 41.703125 32.09375 33.90625 41.59375 24.203125 41.59375 
C 19.09375 41.59375 14.796875 39.6875 11.40625 36 
z
" id="CMR17-53"/>
       </defs>
       <use transform="scale(0.996264)" xlink:href="#CMR17-48"/>
       <use transform="translate(45.690477 0)scale(0.996264)" xlink:href="#CMMI12-58"/>
       <use transform="translate(72.787654 0)scale(0.996264)" xlink:href="#CMR17-53"/>
      </g>
     </g>
    </g>
    <g id="ytick_3">
     <g id="line2d_32">
      <path clip-path="url(#pa718e9deb4)" d="M 45.212587 65.347702 
L 240.512587 65.347702 
" style="fill:none;stroke:#000000;stroke-dasharray:0.5,0.825;stroke-dashoffset:0;stroke-opacity:0.5;stroke-width:0.5;"/>
     </g>
     <g id="line2d_33">
      <g>
       <use style="stroke:#000000;stroke-width:0.5;" x="45.212587" xlink:href="#m5951146da3" y="65.347702"/>
      </g>
     </g>
     <g id="line2d_34">
      <g>
       <use style="stroke:#000000;stroke-width:0.5;" x="240.512587" xlink:href="#m061e0465d8" y="65.347702"/>
      </g>
     </g>
     <g id="text_6">
      <!-- $\mathdefault{1.0}$ -->
      <g transform="translate(21.769064 70.882496)scale(0.16 -0.16)">
       <use transform="scale(0.996264)" xlink:href="#CMR17-49"/>
       <use transform="translate(45.690477 0)scale(0.996264)" xlink:href="#CMMI12-58"/>
       <use transform="translate(72.787654 0)scale(0.996264)" xlink:href="#CMR17-48"/>
      </g>
     </g>
    </g>
    <g id="ytick_4">
     <g id="line2d_35">
      <path clip-path="url(#pa718e9deb4)" d="M 45.212587 24.874053 
L 240.512587 24.874053 
" style="fill:none;stroke:#000000;stroke-dasharray:0.5,0.825;stroke-dashoffset:0;stroke-opacity:0.5;stroke-width:0.5;"/>
     </g>
     <g id="line2d_36">
      <g>
       <use style="stroke:#000000;stroke-width:0.5;" x="45.212587" xlink:href="#m5951146da3" y="24.874053"/>
      </g>
     </g>
     <g id="line2d_37">
      <g>
       <use style="stroke:#000000;stroke-width:0.5;" x="240.512587" xlink:href="#m061e0465d8" y="24.874053"/>
      </g>
     </g>
     <g id="text_7">
      <!-- $\mathdefault{1.5}$ -->
      <g transform="translate(21.769064 30.408847)scale(0.16 -0.16)">
       <use transform="scale(0.996264)" xlink:href="#CMR17-49"/>
       <use transform="translate(45.690477 0)scale(0.996264)" xlink:href="#CMMI12-58"/>
       <use transform="translate(72.787654 0)scale(0.996264)" xlink:href="#CMR17-53"/>
      </g>
     </g>
    </g>
    <g id="ytick_5">
     <g id="line2d_38">
      <defs>
       <path d="M 0 0 
L 1.5 0 
" id="mb5b7326058" style="stroke:#000000;stroke-width:0.5;"/>
      </defs>
      <g>
       <use style="stroke:#000000;stroke-width:0.5;" x="45.212587" xlink:href="#mb5b7326058" y="138.20027"/>
      </g>
     </g>
     <g id="line2d_39">
      <defs>
       <path d="M 0 0 
L -1.5 0 
" id="m9faa1b1e09" style="stroke:#000000;stroke-width:0.5;"/>
      </defs>
      <g>
       <use style="stroke:#000000;stroke-width:0.5;" x="240.512587" xlink:href="#m9faa1b1e09" y="138.20027"/>
      </g>
     </g>
    </g>
    <g id="ytick_6">
     <g id="line2d_40">
      <g>
       <use style="stroke:#000000;stroke-width:0.5;" x="45.212587" xlink:href="#mb5b7326058" y="130.10554"/>
      </g>
     </g>
     <g id="line2d_41">
      <g>
       <use style="stroke:#000000;stroke-width:0.5;" x="240.512587" xlink:href="#m9faa1b1e09" y="130.10554"/>
      </g>
     </g>
    </g>
    <g id="ytick_7">
     <g id="line2d_42">
      <g>
       <use style="stroke:#000000;stroke-width:0.5;" x="45.212587" xlink:href="#mb5b7326058" y="122.010811"/>
      </g>
     </g>
     <g id="line2d_43">
      <g>
       <use style="stroke:#000000;stroke-width:0.5;" x="240.512587" xlink:href="#m9faa1b1e09" y="122.010811"/>
      </g>
     </g>
    </g>
    <g id="ytick_8">
     <g id="line2d_44">
      <g>
       <use style="stroke:#000000;stroke-width:0.5;" x="45.212587" xlink:href="#mb5b7326058" y="113.916081"/>
      </g>
     </g>
     <g id="line2d_45">
      <g>
       <use style="stroke:#000000;stroke-width:0.5;" x="240.512587" xlink:href="#m9faa1b1e09" y="113.916081"/>
      </g>
     </g>
    </g>
    <g id="ytick_9">
     <g id="line2d_46">
      <g>
       <use style="stroke:#000000;stroke-width:0.5;" x="45.212587" xlink:href="#mb5b7326058" y="97.726621"/>
      </g>
     </g>
     <g id="line2d_47">
      <g>
       <use style="stroke:#000000;stroke-width:0.5;" x="240.512587" xlink:href="#m9faa1b1e09" y="97.726621"/>
      </g>
     </g>
    </g>
    <g id="ytick_10">
     <g id="line2d_48">
      <g>
       <use style="stroke:#000000;stroke-width:0.5;" x="45.212587" xlink:href="#mb5b7326058" y="89.631892"/>
      </g>
     </g>
     <g id="line2d_49">
      <g>
       <use style="stroke:#000000;stroke-width:0.5;" x="240.512587" xlink:href="#m9faa1b1e09" y="89.631892"/>
      </g>
     </g>
    </g>
    <g id="ytick_11">
     <g id="line2d_50">
      <g>
       <use style="stroke:#000000;stroke-width:0.5;" x="45.212587" xlink:href="#mb5b7326058" y="81.537162"/>
      </g>
     </g>
     <g id="line2d_51">
      <g>
       <use style="stroke:#000000;stroke-width:0.5;" x="240.512587" xlink:href="#m9faa1b1e09" y="81.537162"/>
      </g>
     </g>
    </g>
    <g id="ytick_12">
     <g id="line2d_52">
      <g>
       <use style="stroke:#000000;stroke-width:0.5;" x="45.212587" xlink:href="#mb5b7326058" y="73.442432"/>
      </g>
     </g>
     <g id="line2d_53">
      <g>
       <use style="stroke:#000000;stroke-width:0.5;" x="240.512587" xlink:href="#m9faa1b1e09" y="73.442432"/>
      </g>
     </g>
    </g>
    <g id="ytick_13">
     <g id="line2d_54">
      <g>
       <use style="stroke:#000000;stroke-width:0.5;" x="45.212587" xlink:href="#mb5b7326058" y="57.252972"/>
      </g>
     </g>
     <g id="line2d_55">
      <g>
       <use style="stroke:#000000;stroke-width:0.5;" x="240.512587" xlink:href="#m9faa1b1e09" y="57.252972"/>
      </g>
     </g>
    </g>
    <g id="ytick_14">
     <g id="line2d_56">
      <g>
       <use style="stroke:#000000;stroke-width:0.5;" x="45.212587" xlink:href="#mb5b7326058" y="49.158243"/>
      </g>
     </g>
     <g id="line2d_57">
      <g>
       <use style="stroke:#000000;stroke-width:0.5;" x="240.512587" xlink:href="#m9faa1b1e09" y="49.158243"/>
      </g>
     </g>
    </g>
    <g id="ytick_15">
     <g id="line2d_58">
      <g>
       <use style="stroke:#000000;stroke-width:0.5;" x="45.212587" xlink:href="#mb5b7326058" y="41.063513"/>
      </g>
     </g>
     <g id="line2d_59">
      <g>
       <use style="stroke:#000000;stroke-width:0.5;" x="240.512587" xlink:href="#m9faa1b1e09" y="41.063513"/>
      </g>
     </g>
    </g>
    <g id="ytick_16">
     <g id="line2d_60">
      <g>
       <use style="stroke:#000000;stroke-width:0.5;" x="45.212587" xlink:href="#mb5b7326058" y="32.968783"/>
      </g>
     </g>
     <g id="line2d_61">
      <g>
       <use style="stroke:#000000;stroke-width:0.5;" x="240.512587" xlink:href="#m9faa1b1e09" y="32.968783"/>
      </g>
     </g>
    </g>
    <g id="ytick_17">
     <g id="line2d_62">
      <g>
       <use style="stroke:#000000;stroke-width:0.5;" x="45.212587" xlink:href="#mb5b7326058" y="16.779324"/>
      </g>
     </g>
     <g id="line2d_63">
      <g>
       <use style="stroke:#000000;stroke-width:0.5;" x="240.512587" xlink:href="#m9faa1b1e09" y="16.779324"/>
      </g>
     </g>
    </g>
    <g id="ytick_18">
     <g id="line2d_64">
      <g>
       <use style="stroke:#000000;stroke-width:0.5;" x="45.212587" xlink:href="#mb5b7326058" y="8.684594"/>
      </g>
     </g>
     <g id="line2d_65">
      <g>
       <use style="stroke:#000000;stroke-width:0.5;" x="240.512587" xlink:href="#m9faa1b1e09" y="8.684594"/>
      </g>
     </g>
    </g>
    <g id="text_8">
     <!-- Density -->
     <g transform="translate(14.669588 100.894381)rotate(-90)scale(0.16 -0.16)">
      <defs>
       <path d="M 5.203125 68 
L 5.203125 65.390625 
C 12.09375 65.390625 13.203125 65.390625 13.203125 60.90625 
L 13.203125 7.078125 
C 13.203125 2.59375 12.09375 2.59375 5.203125 2.59375 
L 5.203125 0 
L 37 0 
C 53.09375 0 66 14.734375 66 33.4375 
C 66 52.25 53.296875 68 37 68 
z
M 23.796875 2.59375 
C 19.796875 2.59375 19.59375 3.09375 19.59375 6.46875 
L 19.59375 61.5 
C 19.59375 64.890625 19.796875 65.390625 23.796875 65.390625 
L 35 65.390625 
C 43.296875 65.390625 58.59375 60.515625 58.59375 33.4375 
C 58.59375 19.40625 54.5 13.734375 52.59375 11.046875 
C 50.203125 7.96875 44.5 2.59375 35 2.59375 
z
" id="CMR17-68"/>
       <path d="M 38.09375 23.484375 
C 38.5 23.890625 38.5 24.09375 38.5 25.09375 
C 38.5 35.171875 33.09375 44 21.703125 44 
C 11.09375 44 2.703125 33.984375 2.703125 21.78125 
C 2.703125 8.65625 12.203125 -1 22.796875 -1 
C 34 -1 38.40625 9.671875 38.40625 11.796875 
C 38.40625 12.5 37.796875 12.5 37.59375 12.5 
C 36.90625 12.5 36.796875 12.296875 36.40625 11.078125 
C 34.203125 4.21875 28.703125 0.796875 23.5 0.796875 
C 19.203125 0.796875 14.90625 3.21875 12.203125 7.65625 
C 9.09375 12.796875 9.09375 18.75 9.09375 23.484375 
z
M 9.203125 25 
C 9.90625 39.234375 17.59375 42.390625 21.59375 42.390625 
C 28.40625 42.390625 33 36.0625 33.09375 25 
z
" id="CMR17-101"/>
       <path d="M 41.5 30.53125 
C 41.5 35.65625 40.5 44 28.703125 44 
C 20.796875 44 16.703125 37.875 15.203125 33.84375 
L 15.09375 33.84375 
L 15.09375 44 
L 3.296875 42.890625 
L 3.296875 40.28125 
C 9.203125 40.28125 10.09375 39.6875 10.09375 34.859375 
L 10.09375 6.921875 
C 10.09375 3.09375 9.703125 2.59375 3.296875 2.59375 
L 3.296875 0 
C 5.703125 0.1875 10.09375 0.1875 12.703125 0.1875 
C 15.296875 0.1875 19.796875 0.1875 22.203125 0 
L 22.203125 2.59375 
C 15.796875 2.59375 15.40625 3 15.40625 6.921875 
L 15.40625 26.21875 
C 15.40625 35.453125 21 42.390625 28 42.390625 
C 35.40625 42.390625 36.203125 35.765625 36.203125 30.9375 
L 36.203125 6.921875 
C 36.203125 3.09375 35.796875 2.59375 29.40625 2.59375 
L 29.40625 0 
C 31.796875 0.1875 36.203125 0.1875 38.796875 0.1875 
C 41.40625 0.1875 45.90625 0.1875 48.296875 0 
L 48.296875 2.59375 
C 41.90625 2.59375 41.5 3 41.5 6.921875 
z
" id="CMR17-110"/>
       <path d="M 30.90625 42 
C 30.90625 43.796875 30.796875 43.890625 30.203125 43.890625 
C 29.796875 43.890625 29.703125 43.796875 28.5 42.296875 
C 28.203125 41.890625 27.296875 40.890625 27 40.5 
C 23.796875 43.890625 19.296875 44 17.59375 44 
C 6.5 44 2.5 38.1875 2.5 32.390625 
C 2.5 23.390625 12.703125 21.296875 15.59375 20.6875 
C 21.90625 19.390625 24.09375 19 26.203125 17.1875 
C 27.5 16 29.703125 13.796875 29.703125 10.1875 
C 29.703125 6 27.296875 0.59375 18.09375 0.59375 
C 9.40625 0.59375 6.296875 7.1875 4.5 16 
C 4.203125 17.390625 4.203125 17.5 3.40625 17.5 
C 2.59375 17.5 2.5 17.390625 2.5 15.390625 
L 2.5 1 
C 2.5 -0.8125 2.59375 -0.90625 3.203125 -0.90625 
C 3.703125 -0.90625 3.796875 -0.8125 4.296875 0 
C 4.90625 0.890625 6.40625 3.296875 7 4.296875 
C 9 1.59375 12.5 -1 18.09375 -1 
C 28 -1 33.296875 4.390625 33.296875 12.1875 
C 33.296875 17.296875 30.59375 20 29.296875 21.1875 
C 26.296875 24.296875 22.796875 25 18.59375 25.796875 
C 13.09375 27 6.09375 28.390625 6.09375 34.5 
C 6.09375 37.09375 7.5 42.59375 17.59375 42.59375 
C 28.296875 42.59375 28.90625 32.59375 29.09375 29.390625 
C 29.203125 28.890625 29.703125 28.796875 30 28.796875 
C 30.90625 28.796875 30.90625 29.09375 30.90625 30.796875 
z
" id="CMR17-115"/>
       <path d="M 15.5 61.890625 
C 15.5 64.09375 13.703125 66 11.40625 66 
C 9.203125 66 7.296875 64.1875 7.296875 61.890625 
C 7.296875 59.6875 9.09375 57.796875 11.40625 57.796875 
C 13.59375 57.796875 15.5 59.59375 15.5 61.890625 
z
M 3.796875 42.890625 
L 3.796875 40.296875 
C 9.40625 40.296875 10.203125 39.6875 10.203125 34.859375 
L 10.203125 6.921875 
C 10.203125 3.09375 9.796875 2.59375 3.40625 2.59375 
L 3.40625 0 
C 5.796875 0.1875 10.09375 0.1875 12.59375 0.1875 
C 15 0.1875 19.09375 0.1875 21.40625 0 
L 21.40625 2.59375 
C 15.5 2.59375 15.296875 3.203125 15.296875 6.8125 
L 15.296875 44 
z
" id="CMR17-105"/>
       <path d="M 15.09375 40.390625 
L 29.09375 40.390625 
L 29.09375 43 
L 15.09375 43 
L 15.09375 62 
L 13.296875 62 
C 13.09375 51.4375 9.59375 42.1875 1.09375 41.984375 
L 1.09375 40.390625 
L 9.796875 40.390625 
L 9.796875 12.15625 
C 9.796875 10.234375 9.796875 -1 21.40625 -1 
C 27.296875 -1 30.703125 4.8125 30.703125 12.25 
L 30.703125 17.984375 
L 28.90625 17.984375 
L 28.90625 12.34375 
C 28.90625 5.421875 26.203125 0.796875 22 0.796875 
C 19.09375 0.796875 15.09375 2.796875 15.09375 11.953125 
z
" id="CMR17-116"/>
       <path d="M 39 34.109375 
C 41.5 40.296875 46 40.390625 47.40625 40.390625 
L 47.40625 43 
C 45.5 42.890625 43 42.796875 41.09375 42.796875 
C 39 42.796875 35.703125 42.796875 33.703125 43 
L 33.703125 40.390625 
C 37.5 40.09375 37.59375 37.25 37.59375 36.4375 
C 37.59375 35.4375 37.40625 34.921875 36.90625 33.71875 
L 26 6.390625 
L 14.09375 35.9375 
C 13.59375 37.15625 13.59375 37.859375 13.59375 37.96875 
C 13.59375 40.1875 15.90625 40.390625 18.296875 40.390625 
L 18.296875 43 
C 15.90625 42.796875 11.59375 42.796875 9.09375 42.796875 
C 6.40625 42.796875 3.203125 42.796875 1 43 
L 1 40.390625 
C 6.40625 40.390625 7 39.890625 8.296875 36.640625 
L 23.203125 -0.484375 
C 18.703125 -12.421875 16.09375 -19.40625 9.796875 -19.40625 
C 8.703125 -19.40625 6.203125 -19.109375 4.40625 -17.28125 
C 6.703125 -17.078125 7.703125 -15.65625 7.703125 -13.9375 
C 7.703125 -12.21875 6.5 -10.703125 4.5 -10.703125 
C 2.296875 -10.703125 1.203125 -12.21875 1.203125 -14.046875 
C 1.203125 -18.09375 5.296875 -21 9.796875 -21 
C 15.59375 -21 19.203125 -15.359375 21.203125 -10.296875 
z
" id="CMR17-121"/>
      </defs>
      <use transform="scale(0.996264)" xlink:href="#CMR17-68"/>
      <use transform="translate(70.393556 0)scale(0.996264)" xlink:href="#CMR17-101"/>
      <use transform="translate(110.879216 0)scale(0.996264)" xlink:href="#CMR17-110"/>
      <use transform="translate(161.774586 0)scale(0.996264)" xlink:href="#CMR17-115"/>
      <use transform="translate(197.575924 0)scale(0.996264)" xlink:href="#CMR17-105"/>
      <use transform="translate(222.446982 0)scale(0.996264)" xlink:href="#CMR17-116"/>
      <use transform="translate(255.125296 0)scale(0.996264)" xlink:href="#CMR17-121"/>
     </g>
    </g>
   </g>
   <g id="line2d_66">
    <path clip-path="url(#pa718e9deb4)" d="M 124.639669 146.295 
L 124.639669 3.6 
" style="fill:none;stroke:#0c5da5;stroke-dasharray:19.2,4.8,3,4.8;stroke-dashoffset:0;stroke-width:3;"/>
   </g>
   <g id="patch_3">
    <path d="M 45.212587 146.295 
L 45.212587 3.6 
" style="fill:none;stroke:#000000;stroke-linecap:square;stroke-linejoin:miter;stroke-width:0.5;"/>
   </g>
   <g id="patch_4">
    <path d="M 240.512587 146.295 
L 240.512587 3.6 
" style="fill:none;stroke:#000000;stroke-linecap:square;stroke-linejoin:miter;stroke-width:0.5;"/>
   </g>
   <g id="patch_5">
    <path d="M 45.212587 146.295 
L 240.512587 146.295 
" style="fill:none;stroke:#000000;stroke-linecap:square;stroke-linejoin:miter;stroke-width:0.5;"/>
   </g>
   <g id="patch_6">
    <path d="M 45.212587 3.6 
L 240.512587 3.6 
" style="fill:none;stroke:#000000;stroke-linecap:square;stroke-linejoin:miter;stroke-width:0.5;"/>
   </g>
  </g>
 </g>
 <defs>
  <clipPath id="pa718e9deb4">
   <rect height="142.695" width="195.3" x="45.212587" y="3.6"/>
  </clipPath>
 </defs>
</svg>
