<?xml version="1.0" encoding="utf-8" standalone="no"?>
<!DOCTYPE svg PUBLIC "-//W3C//DTD SVG 1.1//EN"
  "http://www.w3.org/Graphics/SVG/1.1/DTD/svg11.dtd">
<!-- Created with matplotlib (https://matplotlib.org/) -->
<svg height="167.564064pt" version="1.1" viewBox="0 0 253.353758 167.564064" width="253.353758pt" xmlns="http://www.w3.org/2000/svg" xmlns:xlink="http://www.w3.org/1999/xlink">
 <metadata>
  <rdf:RDF xmlns:cc="http://creativecommons.org/ns#" xmlns:dc="http://purl.org/dc/elements/1.1/" xmlns:rdf="http://www.w3.org/1999/02/22-rdf-syntax-ns#">
   <cc:Work>
    <dc:type rdf:resource="http://purl.org/dc/dcmitype/StillImage"/>
    <dc:date>2021-01-28T16:52:54.926366</dc:date>
    <dc:format>image/svg+xml</dc:format>
    <dc:creator>
     <cc:Agent>
      <dc:title>Matplotlib v3.3.0, https://matplotlib.org/</dc:title>
     </cc:Agent>
    </dc:creator>
   </cc:Work>
  </rdf:RDF>
 </metadata>
 <defs>
  <style type="text/css">*{stroke-linecap:butt;stroke-linejoin:round;}</style>
 </defs>
 <g id="figure_1">
  <g id="patch_1">
   <path d="M 0 167.564064 
L 253.353758 167.564064 
L 253.353758 0 
L 0 0 
z
" style="fill:none;"/>
  </g>
  <g id="axes_1">
   <g id="patch_2">
    <path d="M 53.016574 146.295 
L 248.316574 146.295 
L 248.316574 3.6 
L 53.016574 3.6 
z
" style="fill:#ffffff;"/>
   </g>
   <g id="PolyCollection_1">
    <defs>
     <path d="M 73.278545 -21.352062 
L 73.278545 -21.269064 
L 74.04924 -21.269064 
L 74.819934 -21.269064 
L 75.590629 -21.269064 
L 76.361323 -21.269064 
L 77.132018 -21.269064 
L 77.902712 -21.269064 
L 78.673407 -21.269064 
L 79.444101 -21.269064 
L 80.214796 -21.269064 
L 80.98549 -21.269064 
L 81.756184 -21.269064 
L 82.526879 -21.269064 
L 83.297573 -21.269064 
L 84.068268 -21.269064 
L 84.838962 -21.269064 
L 85.609657 -21.269064 
L 86.380351 -21.269064 
L 87.151046 -21.269064 
L 87.92174 -21.269064 
L 88.692435 -21.269064 
L 89.463129 -21.269064 
L 90.233824 -21.269064 
L 91.004518 -21.269064 
L 91.775213 -21.269064 
L 92.545907 -21.269064 
L 93.316602 -21.269064 
L 94.087296 -21.269064 
L 94.857991 -21.269064 
L 95.628685 -21.269064 
L 96.399379 -21.269064 
L 97.170074 -21.269064 
L 97.940768 -21.269064 
L 98.711463 -21.269064 
L 99.482157 -21.269064 
L 100.252852 -21.269064 
L 101.023546 -21.269064 
L 101.794241 -21.269064 
L 102.564935 -21.269064 
L 103.33563 -21.269064 
L 104.106324 -21.269064 
L 104.877019 -21.269064 
L 105.647713 -21.269064 
L 106.418408 -21.269064 
L 107.189102 -21.269064 
L 107.959797 -21.269064 
L 108.730491 -21.269064 
L 109.501186 -21.269064 
L 110.27188 -21.269064 
L 111.042574 -21.269064 
L 111.813269 -21.269064 
L 112.583963 -21.269064 
L 113.354658 -21.269064 
L 114.125352 -21.269064 
L 114.896047 -21.269064 
L 115.666741 -21.269064 
L 116.437436 -21.269064 
L 117.20813 -21.269064 
L 117.978825 -21.269064 
L 118.749519 -21.269064 
L 119.520214 -21.269064 
L 120.290908 -21.269064 
L 121.061603 -21.269064 
L 121.832297 -21.269064 
L 122.602992 -21.269064 
L 123.373686 -21.269064 
L 124.144381 -21.269064 
L 124.915075 -21.269064 
L 125.685769 -21.269064 
L 126.456464 -21.269064 
L 127.227158 -21.269064 
L 127.997853 -21.269064 
L 128.768547 -21.269064 
L 129.539242 -21.269064 
L 130.309936 -21.269064 
L 131.080631 -21.269064 
L 131.851325 -21.269064 
L 132.62202 -21.269064 
L 133.392714 -21.269064 
L 134.163409 -21.269064 
L 134.934103 -21.269064 
L 135.704798 -21.269064 
L 136.475492 -21.269064 
L 137.246187 -21.269064 
L 138.016881 -21.269064 
L 138.787576 -21.269064 
L 139.55827 -21.269064 
L 140.328964 -21.269064 
L 141.099659 -21.269064 
L 141.870353 -21.269064 
L 142.641048 -21.269064 
L 143.411742 -21.269064 
L 144.182437 -21.269064 
L 144.953131 -21.269064 
L 145.723826 -21.269064 
L 146.49452 -21.269064 
L 147.265215 -21.269064 
L 148.035909 -21.269064 
L 148.806604 -21.269064 
L 149.577298 -21.269064 
L 150.347993 -21.269064 
L 151.118687 -21.269064 
L 151.889382 -21.269064 
L 152.660076 -21.269064 
L 153.430771 -21.269064 
L 154.201465 -21.269064 
L 154.972159 -21.269064 
L 155.742854 -21.269064 
L 156.513548 -21.269064 
L 157.284243 -21.269064 
L 158.054937 -21.269064 
L 158.825632 -21.269064 
L 159.596326 -21.269064 
L 160.367021 -21.269064 
L 161.137715 -21.269064 
L 161.90841 -21.269064 
L 162.679104 -21.269064 
L 163.449799 -21.269064 
L 164.220493 -21.269064 
L 164.991188 -21.269064 
L 165.761882 -21.269064 
L 166.532577 -21.269064 
L 167.303271 -21.269064 
L 168.073966 -21.269064 
L 168.84466 -21.269064 
L 169.615354 -21.269064 
L 170.386049 -21.269064 
L 171.156743 -21.269064 
L 171.927438 -21.269064 
L 172.698132 -21.269064 
L 173.468827 -21.269064 
L 174.239521 -21.269064 
L 175.010216 -21.269064 
L 175.78091 -21.269064 
L 176.551605 -21.269064 
L 177.322299 -21.269064 
L 178.092994 -21.269064 
L 178.863688 -21.269064 
L 179.634383 -21.269064 
L 180.405077 -21.269064 
L 181.175772 -21.269064 
L 181.946466 -21.269064 
L 182.717161 -21.269064 
L 183.487855 -21.269064 
L 184.258549 -21.269064 
L 185.029244 -21.269064 
L 185.799938 -21.269064 
L 186.570633 -21.269064 
L 187.341327 -21.269064 
L 188.112022 -21.269064 
L 188.882716 -21.269064 
L 189.653411 -21.269064 
L 190.424105 -21.269064 
L 191.1948 -21.269064 
L 191.965494 -21.269064 
L 192.736189 -21.269064 
L 193.506883 -21.269064 
L 194.277578 -21.269064 
L 195.048272 -21.269064 
L 195.818967 -21.269064 
L 196.589661 -21.269064 
L 197.360356 -21.269064 
L 198.13105 -21.269064 
L 198.901744 -21.269064 
L 199.672439 -21.269064 
L 200.443133 -21.269064 
L 201.213828 -21.269064 
L 201.984522 -21.269064 
L 202.755217 -21.269064 
L 203.525911 -21.269064 
L 204.296606 -21.269064 
L 205.0673 -21.269064 
L 205.837995 -21.269064 
L 206.608689 -21.269064 
L 207.379384 -21.269064 
L 208.150078 -21.269064 
L 208.920773 -21.269064 
L 209.691467 -21.269064 
L 210.462162 -21.269064 
L 211.232856 -21.269064 
L 212.003551 -21.269064 
L 212.774245 -21.269064 
L 213.544939 -21.269064 
L 214.315634 -21.269064 
L 215.086328 -21.269064 
L 215.857023 -21.269064 
L 216.627717 -21.269064 
L 217.398412 -21.269064 
L 218.169106 -21.269064 
L 218.939801 -21.269064 
L 219.710495 -21.269064 
L 220.48119 -21.269064 
L 221.251884 -21.269064 
L 222.022579 -21.269064 
L 222.793273 -21.269064 
L 223.563968 -21.269064 
L 224.334662 -21.269064 
L 225.105357 -21.269064 
L 225.876051 -21.269064 
L 226.646746 -21.269064 
L 226.646746 -21.30533 
L 226.646746 -21.30533 
L 225.876051 -21.316975 
L 225.105357 -21.331846 
L 224.334662 -21.350668 
L 223.563968 -21.374277 
L 222.793273 -21.403626 
L 222.022579 -21.43978 
L 221.251884 -21.483911 
L 220.48119 -21.53729 
L 219.710495 -21.60126 
L 218.939801 -21.677213 
L 218.169106 -21.766553 
L 217.398412 -21.870647 
L 216.627717 -21.990778 
L 215.857023 -22.128079 
L 215.086328 -22.283472 
L 214.315634 -22.457594 
L 213.544939 -22.650731 
L 212.774245 -22.862749 
L 212.003551 -23.093038 
L 211.232856 -23.340458 
L 210.462162 -23.603312 
L 209.691467 -23.879327 
L 208.920773 -24.165665 
L 208.150078 -24.458954 
L 207.379384 -24.755346 
L 206.608689 -25.050604 
L 205.837995 -25.340213 
L 205.0673 -25.619511 
L 204.296606 -25.883838 
L 203.525911 -26.128708 
L 202.755217 -26.349968 
L 201.984522 -26.543978 
L 201.213828 -26.707762 
L 200.443133 -26.839158 
L 199.672439 -26.936936 
L 198.901744 -27.000885 
L 198.13105 -27.03187 
L 197.360356 -27.031846 
L 196.589661 -27.003835 
L 195.818967 -26.951856 
L 195.048272 -26.880825 
L 194.277578 -26.796418 
L 193.506883 -26.704903 
L 192.736189 -26.612963 
L 191.965494 -26.52749 
L 191.1948 -26.455394 
L 190.424105 -26.403403 
L 189.653411 -26.377892 
L 188.882716 -26.384725 
L 188.112022 -26.429129 
L 187.341327 -26.515607 
L 186.570633 -26.647887 
L 185.799938 -26.82891 
L 185.029244 -27.060865 
L 184.258549 -27.345251 
L 183.487855 -27.682982 
L 182.717161 -28.074518 
L 181.946466 -28.520013 
L 181.175772 -29.01948 
L 180.405077 -29.572958 
L 179.634383 -30.180669 
L 178.863688 -30.843169 
L 178.092994 -31.56146 
L 177.322299 -32.337082 
L 176.551605 -33.172161 
L 175.78091 -34.069406 
L 175.010216 -35.032063 
L 174.239521 -36.063819 
L 173.468827 -37.168653 
L 172.698132 -38.350648 
L 171.927438 -39.613757 
L 171.156743 -40.961543 
L 170.386049 -42.396904 
L 169.615354 -43.921786 
L 168.84466 -45.53691 
L 168.073966 -47.24152 
L 167.303271 -49.033171 
L 166.532577 -50.907572 
L 165.761882 -52.858494 
L 164.991188 -54.87775 
L 164.220493 -56.955271 
L 163.449799 -59.079249 
L 162.679104 -61.236384 
L 161.90841 -63.412198 
L 161.137715 -65.59142 
L 160.367021 -67.758431 
L 159.596326 -69.897739 
L 158.825632 -71.994476 
L 158.054937 -74.034884 
L 157.284243 -76.00678 
L 156.513548 -77.899962 
L 155.742854 -79.706557 
L 154.972159 -81.421275 
L 154.201465 -83.041569 
L 153.430771 -84.567699 
L 152.660076 -86.002674 
L 151.889382 -87.352109 
L 151.118687 -88.623974 
L 150.347993 -89.828264 
L 149.577298 -90.9766 
L 148.806604 -92.081779 
L 148.035909 -93.157283 
L 147.265215 -94.216782 
L 146.49452 -95.273629 
L 145.723826 -96.340383 
L 144.953131 -97.428357 
L 144.182437 -98.547225 
L 143.411742 -99.704686 
L 142.641048 -100.906198 
L 141.870353 -102.154806 
L 141.099659 -103.451047 
L 140.328964 -104.792963 
L 139.55827 -106.176205 
L 138.787576 -107.59424 
L 138.016881 -109.038643 
L 137.246187 -110.499481 
L 136.475492 -111.965755 
L 135.704798 -113.425891 
L 134.934103 -114.868256 
L 134.163409 -116.281662 
L 133.392714 -117.65583 
L 132.62202 -118.981796 
L 131.851325 -120.252204 
L 131.080631 -121.461496 
L 130.309936 -122.605945 
L 129.539242 -123.683562 
L 128.768547 -124.693848 
L 127.997853 -125.637418 
L 127.227158 -126.515526 
L 126.456464 -127.329508 
L 125.685769 -128.080198 
L 124.915075 -128.767345 
L 124.144381 -129.389095 
L 123.373686 -129.941553 
L 122.602992 -130.418485 
L 121.832297 -130.811163 
L 121.061603 -131.108393 
L 120.290908 -131.296702 
L 119.520214 -131.360692 
L 118.749519 -131.283541 
L 117.978825 -131.047609 
L 117.20813 -130.635125 
L 116.437436 -130.028902 
L 115.666741 -129.213055 
L 114.896047 -128.173671 
L 114.125352 -126.899397 
L 113.354658 -125.38193 
L 112.583963 -123.616385 
L 111.813269 -121.601525 
L 111.042574 -119.339871 
L 110.27188 -116.837677 
L 109.501186 -114.104802 
L 108.730491 -111.154486 
L 107.959797 -108.003052 
L 107.189102 -104.669551 
L 106.418408 -101.175375 
L 105.647713 -97.543851 
L 104.877019 -93.799821 
L 104.106324 -89.96923 
L 103.33563 -86.078719 
L 102.564935 -82.155231 
L 101.794241 -78.225624 
L 101.023546 -74.316306 
L 100.252852 -70.452873 
L 99.482157 -66.659771 
L 98.711463 -62.959967 
L 97.940768 -59.37465 
L 97.170074 -55.922951 
L 96.399379 -52.621705 
L 95.628685 -49.485249 
L 94.857991 -46.52527 
L 94.087296 -43.750708 
L 93.316602 -41.167719 
L 92.545907 -38.779706 
L 91.775213 -36.587398 
L 91.004518 -34.589005 
L 90.233824 -32.780417 
L 89.463129 -31.155453 
L 88.692435 -29.706145 
L 87.92174 -28.423045 
L 87.151046 -27.295555 
L 86.380351 -26.312242 
L 85.609657 -25.461159 
L 84.838962 -24.730137 
L 84.068268 -24.107056 
L 83.297573 -23.580074 
L 82.526879 -23.137825 
L 81.756184 -22.769579 
L 80.98549 -22.465351 
L 80.214796 -22.215988 
L 79.444101 -22.013207 
L 78.673407 -21.849613 
L 77.902712 -21.718679 
L 77.132018 -21.61472 
L 76.361323 -21.532836 
L 75.590629 -21.468857 
L 74.819934 -21.419268 
L 74.04924 -21.381141 
L 73.278545 -21.352062 
z
" id="m4dec324172" style="stroke:#008000;"/>
    </defs>
    <g clip-path="url(#p5174ff31d5)">
     <use style="fill:#008000;fill-opacity:0.25;stroke:#008000;" x="0" xlink:href="#m4dec324172" y="167.564064"/>
    </g>
   </g>
   <g id="PolyCollection_2">
    <defs>
     <path d="M 61.893847 -21.304534 
L 61.893847 -21.269064 
L 62.786035 -21.269064 
L 63.678223 -21.269064 
L 64.570411 -21.269064 
L 65.462599 -21.269064 
L 66.354788 -21.269064 
L 67.246976 -21.269064 
L 68.139164 -21.269064 
L 69.031352 -21.269064 
L 69.92354 -21.269064 
L 70.815729 -21.269064 
L 71.707917 -21.269064 
L 72.600105 -21.269064 
L 73.492293 -21.269064 
L 74.384482 -21.269064 
L 75.27667 -21.269064 
L 76.168858 -21.269064 
L 77.061046 -21.269064 
L 77.953234 -21.269064 
L 78.845423 -21.269064 
L 79.737611 -21.269064 
L 80.629799 -21.269064 
L 81.521987 -21.269064 
L 82.414175 -21.269064 
L 83.306364 -21.269064 
L 84.198552 -21.269064 
L 85.09074 -21.269064 
L 85.982928 -21.269064 
L 86.875117 -21.269064 
L 87.767305 -21.269064 
L 88.659493 -21.269064 
L 89.551681 -21.269064 
L 90.443869 -21.269064 
L 91.336058 -21.269064 
L 92.228246 -21.269064 
L 93.120434 -21.269064 
L 94.012622 -21.269064 
L 94.90481 -21.269064 
L 95.796999 -21.269064 
L 96.689187 -21.269064 
L 97.581375 -21.269064 
L 98.473563 -21.269064 
L 99.365752 -21.269064 
L 100.25794 -21.269064 
L 101.150128 -21.269064 
L 102.042316 -21.269064 
L 102.934504 -21.269064 
L 103.826693 -21.269064 
L 104.718881 -21.269064 
L 105.611069 -21.269064 
L 106.503257 -21.269064 
L 107.395445 -21.269064 
L 108.287634 -21.269064 
L 109.179822 -21.269064 
L 110.07201 -21.269064 
L 110.964198 -21.269064 
L 111.856387 -21.269064 
L 112.748575 -21.269064 
L 113.640763 -21.269064 
L 114.532951 -21.269064 
L 115.425139 -21.269064 
L 116.317328 -21.269064 
L 117.209516 -21.269064 
L 118.101704 -21.269064 
L 118.993892 -21.269064 
L 119.88608 -21.269064 
L 120.778269 -21.269064 
L 121.670457 -21.269064 
L 122.562645 -21.269064 
L 123.454833 -21.269064 
L 124.347022 -21.269064 
L 125.23921 -21.269064 
L 126.131398 -21.269064 
L 127.023586 -21.269064 
L 127.915774 -21.269064 
L 128.807963 -21.269064 
L 129.700151 -21.269064 
L 130.592339 -21.269064 
L 131.484527 -21.269064 
L 132.376715 -21.269064 
L 133.268904 -21.269064 
L 134.161092 -21.269064 
L 135.05328 -21.269064 
L 135.945468 -21.269064 
L 136.837657 -21.269064 
L 137.729845 -21.269064 
L 138.622033 -21.269064 
L 139.514221 -21.269064 
L 140.406409 -21.269064 
L 141.298598 -21.269064 
L 142.190786 -21.269064 
L 143.082974 -21.269064 
L 143.975162 -21.269064 
L 144.86735 -21.269064 
L 145.759539 -21.269064 
L 146.651727 -21.269064 
L 147.543915 -21.269064 
L 148.436103 -21.269064 
L 149.328292 -21.269064 
L 150.22048 -21.269064 
L 151.112668 -21.269064 
L 152.004856 -21.269064 
L 152.897044 -21.269064 
L 153.789233 -21.269064 
L 154.681421 -21.269064 
L 155.573609 -21.269064 
L 156.465797 -21.269064 
L 157.357985 -21.269064 
L 158.250174 -21.269064 
L 159.142362 -21.269064 
L 160.03455 -21.269064 
L 160.926738 -21.269064 
L 161.818927 -21.269064 
L 162.711115 -21.269064 
L 163.603303 -21.269064 
L 164.495491 -21.269064 
L 165.387679 -21.269064 
L 166.279868 -21.269064 
L 167.172056 -21.269064 
L 168.064244 -21.269064 
L 168.956432 -21.269064 
L 169.84862 -21.269064 
L 170.740809 -21.269064 
L 171.632997 -21.269064 
L 172.525185 -21.269064 
L 173.417373 -21.269064 
L 174.309562 -21.269064 
L 175.20175 -21.269064 
L 176.093938 -21.269064 
L 176.986126 -21.269064 
L 177.878314 -21.269064 
L 178.770503 -21.269064 
L 179.662691 -21.269064 
L 180.554879 -21.269064 
L 181.447067 -21.269064 
L 182.339255 -21.269064 
L 183.231444 -21.269064 
L 184.123632 -21.269064 
L 185.01582 -21.269064 
L 185.908008 -21.269064 
L 186.800196 -21.269064 
L 187.692385 -21.269064 
L 188.584573 -21.269064 
L 189.476761 -21.269064 
L 190.368949 -21.269064 
L 191.261138 -21.269064 
L 192.153326 -21.269064 
L 193.045514 -21.269064 
L 193.937702 -21.269064 
L 194.82989 -21.269064 
L 195.722079 -21.269064 
L 196.614267 -21.269064 
L 197.506455 -21.269064 
L 198.398643 -21.269064 
L 199.290831 -21.269064 
L 200.18302 -21.269064 
L 201.075208 -21.269064 
L 201.967396 -21.269064 
L 202.859584 -21.269064 
L 203.751773 -21.269064 
L 204.643961 -21.269064 
L 205.536149 -21.269064 
L 206.428337 -21.269064 
L 207.320525 -21.269064 
L 208.212714 -21.269064 
L 209.104902 -21.269064 
L 209.99709 -21.269064 
L 210.889278 -21.269064 
L 211.781466 -21.269064 
L 212.673655 -21.269064 
L 213.565843 -21.269064 
L 214.458031 -21.269064 
L 215.350219 -21.269064 
L 216.242408 -21.269064 
L 217.134596 -21.269064 
L 218.026784 -21.269064 
L 218.918972 -21.269064 
L 219.81116 -21.269064 
L 220.703349 -21.269064 
L 221.595537 -21.269064 
L 222.487725 -21.269064 
L 223.379913 -21.269064 
L 224.272101 -21.269064 
L 225.16429 -21.269064 
L 226.056478 -21.269064 
L 226.948666 -21.269064 
L 227.840854 -21.269064 
L 228.733043 -21.269064 
L 229.625231 -21.269064 
L 230.517419 -21.269064 
L 231.409607 -21.269064 
L 232.301795 -21.269064 
L 233.193984 -21.269064 
L 234.086172 -21.269064 
L 234.97836 -21.269064 
L 235.870548 -21.269064 
L 236.762736 -21.269064 
L 237.654925 -21.269064 
L 238.547113 -21.269064 
L 239.439301 -21.269064 
L 239.439301 -21.300689 
L 239.439301 -21.300689 
L 238.547113 -21.312059 
L 237.654925 -21.326885 
L 236.762736 -21.345985 
L 235.870548 -21.37029 
L 234.97836 -21.400839 
L 234.086172 -21.438758 
L 233.193984 -21.485233 
L 232.301795 -21.541469 
L 231.409607 -21.608639 
L 230.517419 -21.687816 
L 229.625231 -21.779902 
L 228.733043 -21.885544 
L 227.840854 -22.005053 
L 226.948666 -22.138321 
L 226.056478 -22.284751 
L 225.16429 -22.443203 
L 224.272101 -22.611963 
L 223.379913 -22.788748 
L 222.487725 -22.970736 
L 221.595537 -23.154645 
L 220.703349 -23.336844 
L 219.81116 -23.513504 
L 218.918972 -23.680775 
L 218.026784 -23.834982 
L 217.134596 -23.972833 
L 216.242408 -24.091615 
L 215.350219 -24.189374 
L 214.458031 -24.265053 
L 213.565843 -24.318585 
L 212.673655 -24.350932 
L 211.781466 -24.364052 
L 210.889278 -24.360806 
L 209.99709 -24.344808 
L 209.104902 -24.320217 
L 208.212714 -24.291499 
L 207.320525 -24.263165 
L 206.428337 -24.239507 
L 205.536149 -24.224356 
L 204.643961 -24.220872 
L 203.751773 -24.231395 
L 202.859584 -24.25735 
L 201.967396 -24.299229 
L 201.075208 -24.356647 
L 200.18302 -24.428463 
L 199.290831 -24.512956 
L 198.398643 -24.608056 
L 197.506455 -24.711585 
L 196.614267 -24.821519 
L 195.722079 -24.93623 
L 194.82989 -25.054695 
L 193.937702 -25.176666 
L 193.045514 -25.302779 
L 192.153326 -25.434597 
L 191.261138 -25.574593 
L 190.368949 -25.726066 
L 189.476761 -25.893013 
L 188.584573 -26.079945 
L 187.692385 -26.291682 
L 186.800196 -26.53313 
L 185.908008 -26.809047 
L 185.01582 -27.123828 
L 184.123632 -27.481293 
L 183.231444 -27.884513 
L 182.339255 -28.335665 
L 181.447067 -28.835917 
L 180.554879 -29.385369 
L 179.662691 -29.983022 
L 178.770503 -30.62681 
L 177.878314 -31.313676 
L 176.986126 -32.039699 
L 176.093938 -32.800281 
L 175.20175 -33.59037 
L 174.309562 -34.40474 
L 173.417373 -35.23829 
L 172.525185 -36.086366 
L 171.632997 -36.94508 
L 170.740809 -37.811598 
L 169.84862 -38.684387 
L 168.956432 -39.563384 
L 168.064244 -40.450078 
L 167.172056 -41.347482 
L 166.279868 -42.259997 
L 165.387679 -43.193162 
L 164.495491 -44.153303 
L 163.603303 -45.147111 
L 162.711115 -46.181167 
L 161.818927 -47.261454 
L 160.926738 -48.392898 
L 160.03455 -49.57897 
L 159.142362 -50.821393 
L 158.250174 -52.119968 
L 157.357985 -53.472552 
L 156.465797 -54.87519 
L 155.573609 -56.322388 
L 154.681421 -57.807531 
L 153.789233 -59.32339 
L 152.897044 -60.862715 
L 152.004856 -62.418848 
L 151.112668 -63.986329 
L 150.22048 -65.561455 
L 149.328292 -67.142739 
L 148.436103 -68.731265 
L 147.543915 -70.330904 
L 146.651727 -71.948371 
L 145.759539 -73.593147 
L 144.86735 -75.277244 
L 143.975162 -77.014844 
L 143.082974 -78.821823 
L 142.190786 -80.715181 
L 141.298598 -82.712402 
L 140.406409 -84.830761 
L 139.514221 -87.086602 
L 138.622033 -89.494604 
L 137.729845 -92.067049 
L 136.837657 -94.813114 
L 135.945468 -97.738183 
L 135.05328 -100.843223 
L 134.161092 -104.124211 
L 133.268904 -107.571653 
L 132.376715 -111.1702 
L 131.484527 -114.898393 
L 130.592339 -118.728565 
L 129.700151 -122.626906 
L 128.807963 -126.553736 
L 127.915774 -130.46398 
L 127.023586 -134.307878 
L 126.131398 -138.031906 
L 125.23921 -141.579915 
L 124.347022 -144.894459 
L 123.454833 -147.918268 
L 122.562645 -150.595829 
L 121.670457 -152.875005 
L 120.778269 -154.708624 
L 119.88608 -156.055979 
L 118.993892 -156.884145 
L 118.101704 -157.169064 
L 117.209516 -156.896335 
L 116.317328 -156.061659 
L 115.425139 -154.670931 
L 114.532951 -152.739952 
L 113.640763 -150.293793 
L 112.748575 -147.36584 
L 111.856387 -143.996574 
L 110.964198 -140.232162 
L 110.07201 -136.122914 
L 109.179822 -131.721716 
L 108.287634 -127.082497 
L 107.395445 -122.258811 
L 106.503257 -117.302584 
L 105.611069 -112.26308 
L 104.718881 -107.18611 
L 103.826693 -102.113476 
L 102.934504 -97.082663 
L 102.042316 -92.126736 
L 101.150128 -87.27441 
L 100.25794 -82.550256 
L 99.365752 -77.974991 
L 98.473563 -73.565814 
L 97.581375 -69.336746 
L 96.689187 -65.298954 
L 95.796999 -61.461028 
L 94.90481 -57.82922 
L 94.012622 -54.407625 
L 93.120434 -51.19833 
L 92.228246 -48.201535 
L 91.336058 -45.415662 
L 90.443869 -42.83746 
L 89.551681 -40.462137 
L 88.659493 -38.283499 
L 87.767305 -36.294123 
L 86.875117 -34.485548 
L 85.982928 -32.848484 
L 85.09074 -31.37303 
L 84.198552 -30.048885 
L 83.306364 -28.865558 
L 82.414175 -27.812552 
L 81.521987 -26.879516 
L 80.629799 -26.056384 
L 79.737611 -25.333466 
L 78.845423 -24.70152 
L 77.953234 -24.151798 
L 77.061046 -23.676066 
L 76.168858 -23.266613 
L 75.27667 -22.916247 
L 74.384482 -22.618286 
L 73.492293 -22.366545 
L 72.600105 -22.155319 
L 71.707917 -21.979378 
L 70.815729 -21.833944 
L 69.92354 -21.714687 
L 69.031352 -21.617707 
L 68.139164 -21.539521 
L 67.246976 -21.477048 
L 66.354788 -21.427587 
L 65.462599 -21.388796 
L 64.570411 -21.358664 
L 63.678223 -21.335487 
L 62.786035 -21.317838 
L 61.893847 -21.304534 
z
" id="mb9a93a2798" style="stroke:#ffa500;"/>
    </defs>
    <g clip-path="url(#p5174ff31d5)">
     <use style="fill:#ffa500;fill-opacity:0.25;stroke:#ffa500;" x="0" xlink:href="#mb9a93a2798" y="167.564064"/>
    </g>
   </g>
   <g id="matplotlib.axis_1">
    <g id="xtick_1">
     <g id="line2d_1">
      <path clip-path="url(#p5174ff31d5)" d="M 59.667511 146.295 
L 59.667511 3.6 
" style="fill:none;stroke:#000000;stroke-dasharray:0.5,0.825;stroke-dashoffset:0;stroke-opacity:0.5;stroke-width:0.5;"/>
     </g>
     <g id="line2d_2">
      <defs>
       <path d="M 0 0 
L 0 -3 
" id="m4ece513331" style="stroke:#000000;stroke-width:0.5;"/>
      </defs>
      <g>
       <use style="stroke:#000000;stroke-width:0.5;" x="59.667511" xlink:href="#m4ece513331" y="146.295"/>
      </g>
     </g>
     <g id="line2d_3">
      <defs>
       <path d="M 0 0 
L 0 3 
" id="m47bbcd6c1e" style="stroke:#000000;stroke-width:0.5;"/>
      </defs>
      <g>
       <use style="stroke:#000000;stroke-width:0.5;" x="59.667511" xlink:href="#m47bbcd6c1e" y="3.6"/>
      </g>
     </g>
     <g id="text_1">
      <!-- $\mathdefault{0}$ -->
      <g transform="translate(55.765517 160.864588)scale(0.16 -0.16)">
       <defs>
        <path d="M 42 31.84375 
C 42 37.96875 41.90625 48.421875 37.703125 56.453125 
C 34 63.484375 28.09375 66 22.90625 66 
C 18.09375 66 12 63.78125 8.203125 56.5625 
C 4.203125 49.015625 3.796875 39.671875 3.796875 31.84375 
C 3.796875 26.109375 3.90625 17.375 7 9.734375 
C 11.296875 -0.609375 19 -2 22.90625 -2 
C 27.5 -2 34.5 -0.109375 38.59375 9.4375 
C 41.59375 16.375 42 24.5 42 31.84375 
z
M 22.90625 -0.40625 
C 16.5 -0.40625 12.703125 5.125 11.296875 12.75 
C 10.203125 18.6875 10.203125 27.328125 10.203125 32.953125 
C 10.203125 40.6875 10.203125 47.109375 11.5 53.234375 
C 13.40625 61.78125 19 64.390625 22.90625 64.390625 
C 27 64.390625 32.296875 61.671875 34.203125 53.4375 
C 35.5 47.71875 35.59375 40.984375 35.59375 32.953125 
C 35.59375 26.421875 35.59375 18.375 34.40625 12.453125 
C 32.296875 1.5 26.40625 -0.40625 22.90625 -0.40625 
z
" id="CMR17-48"/>
       </defs>
       <use transform="scale(0.996264)" xlink:href="#CMR17-48"/>
      </g>
     </g>
    </g>
    <g id="xtick_2">
     <g id="line2d_4">
      <path clip-path="url(#p5174ff31d5)" d="M 120.428264 146.295 
L 120.428264 3.6 
" style="fill:none;stroke:#000000;stroke-dasharray:0.5,0.825;stroke-dashoffset:0;stroke-opacity:0.5;stroke-width:0.5;"/>
     </g>
     <g id="line2d_5">
      <g>
       <use style="stroke:#000000;stroke-width:0.5;" x="120.428264" xlink:href="#m4ece513331" y="146.295"/>
      </g>
     </g>
     <g id="line2d_6">
      <g>
       <use style="stroke:#000000;stroke-width:0.5;" x="120.428264" xlink:href="#m47bbcd6c1e" y="3.6"/>
      </g>
     </g>
     <g id="text_2">
      <!-- $\mathdefault{10}$ -->
      <g transform="translate(112.624277 160.864588)scale(0.16 -0.16)">
       <defs>
        <path d="M 26.59375 63.796875 
C 26.59375 65.890625 26.5 66 25.09375 66 
C 21.203125 61.359375 15.296875 59.890625 9.703125 59.6875 
C 9.40625 59.6875 8.90625 59.6875 8.796875 59.5 
C 8.703125 59.296875 8.703125 59.09375 8.703125 57 
C 11.796875 57 17 57.59375 21 59.984375 
L 21 7.296875 
C 21 3.796875 20.796875 2.59375 12.203125 2.59375 
L 9.203125 2.59375 
L 9.203125 0 
C 14 0.09375 19 0.1875 23.796875 0.1875 
C 28.59375 0.1875 33.59375 0.09375 38.40625 0 
L 38.40625 2.59375 
L 35.40625 2.59375 
C 26.796875 2.59375 26.59375 3.6875 26.59375 7.296875 
z
" id="CMR17-49"/>
       </defs>
       <use transform="scale(0.996264)" xlink:href="#CMR17-49"/>
       <use transform="translate(45.690477 0)scale(0.996264)" xlink:href="#CMR17-48"/>
      </g>
     </g>
    </g>
    <g id="xtick_3">
     <g id="line2d_7">
      <path clip-path="url(#p5174ff31d5)" d="M 181.189018 146.295 
L 181.189018 3.6 
" style="fill:none;stroke:#000000;stroke-dasharray:0.5,0.825;stroke-dashoffset:0;stroke-opacity:0.5;stroke-width:0.5;"/>
     </g>
     <g id="line2d_8">
      <g>
       <use style="stroke:#000000;stroke-width:0.5;" x="181.189018" xlink:href="#m4ece513331" y="146.295"/>
      </g>
     </g>
     <g id="line2d_9">
      <g>
       <use style="stroke:#000000;stroke-width:0.5;" x="181.189018" xlink:href="#m47bbcd6c1e" y="3.6"/>
      </g>
     </g>
     <g id="text_3">
      <!-- $\mathdefault{20}$ -->
      <g transform="translate(173.385031 160.864588)scale(0.16 -0.16)">
       <defs>
        <path d="M 41.703125 15.46875 
L 39.90625 15.46875 
C 38.90625 8.390625 38.09375 7.1875 37.703125 6.59375 
C 37.203125 5.796875 30 5.796875 28.59375 5.796875 
L 9.40625 5.796875 
C 13 9.6875 20 16.765625 28.5 24.9375 
C 34.59375 30.71875 41.703125 37.5 41.703125 47.390625 
C 41.703125 59.1875 32.296875 66 21.796875 66 
C 10.796875 66 4.09375 56.296875 4.09375 47.296875 
C 4.09375 43.390625 7 42.890625 8.203125 42.890625 
C 9.203125 42.890625 12.203125 43.484375 12.203125 46.984375 
C 12.203125 50.09375 9.59375 51 8.203125 51 
C 7.59375 51 7 50.890625 6.59375 50.6875 
C 8.5 59.1875 14.296875 63.390625 20.40625 63.390625 
C 29.09375 63.390625 34.796875 56.5 34.796875 47.390625 
C 34.796875 38.703125 29.703125 31.21875 24 24.734375 
L 4.09375 2.296875 
L 4.09375 0 
L 39.296875 0 
z
" id="CMR17-50"/>
       </defs>
       <use transform="scale(0.996264)" xlink:href="#CMR17-50"/>
       <use transform="translate(45.690477 0)scale(0.996264)" xlink:href="#CMR17-48"/>
      </g>
     </g>
    </g>
    <g id="xtick_4">
     <g id="line2d_10">
      <path clip-path="url(#p5174ff31d5)" d="M 241.949771 146.295 
L 241.949771 3.6 
" style="fill:none;stroke:#000000;stroke-dasharray:0.5,0.825;stroke-dashoffset:0;stroke-opacity:0.5;stroke-width:0.5;"/>
     </g>
     <g id="line2d_11">
      <g>
       <use style="stroke:#000000;stroke-width:0.5;" x="241.949771" xlink:href="#m4ece513331" y="146.295"/>
      </g>
     </g>
     <g id="line2d_12">
      <g>
       <use style="stroke:#000000;stroke-width:0.5;" x="241.949771" xlink:href="#m47bbcd6c1e" y="3.6"/>
      </g>
     </g>
     <g id="text_4">
      <!-- $\mathdefault{30}$ -->
      <g transform="translate(234.145784 160.864588)scale(0.16 -0.16)">
       <defs>
        <path d="M 22.09375 34 
C 31 34 34.90625 26.140625 34.90625 17.09375 
C 34.90625 5.03125 28.5 0.390625 22.703125 0.390625 
C 17.40625 0.390625 8.796875 3.015625 6.09375 10.796875 
C 6.59375 10.59375 7.09375 10.59375 7.59375 10.59375 
C 10 10.59375 11.796875 12.1875 11.796875 14.796875 
C 11.796875 17.6875 9.59375 19 7.59375 19 
C 5.90625 19 3.296875 18.1875 3.296875 14.484375 
C 3.296875 5.234375 12.296875 -2 22.90625 -2 
C 34 -2 42.5 6.75 42.5 16.984375 
C 42.5 26.84375 34.5 34 25 35.09375 
C 32.59375 36.671875 39.90625 43.375 39.90625 52.390625 
C 39.90625 60.25 32 66 23 66 
C 13.90625 66 5.90625 60.34375 5.90625 52.296875 
C 5.90625 48.796875 8.5 48.1875 9.796875 48.1875 
C 11.90625 48.1875 13.703125 49.484375 13.703125 52.09375 
C 13.703125 54.6875 11.90625 56 9.796875 56 
C 9.40625 56 8.90625 56 8.5 55.796875 
C 11.40625 62.484375 19.296875 63.6875 22.796875 63.6875 
C 26.296875 63.6875 32.90625 61.96875 32.90625 52.296875 
C 32.90625 49.484375 32.5 44.546875 29.09375 40.21875 
C 26.09375 36.390625 22.703125 36.1875 19.40625 35.890625 
C 18.90625 35.890625 16.59375 35.6875 16.203125 35.6875 
C 15.5 35.59375 15.09375 35.5 15.09375 34.796875 
C 15.09375 34.09375 15.203125 34 17.203125 34 
z
" id="CMR17-51"/>
       </defs>
       <use transform="scale(0.996264)" xlink:href="#CMR17-51"/>
       <use transform="translate(45.690477 0)scale(0.996264)" xlink:href="#CMR17-48"/>
      </g>
     </g>
    </g>
    <g id="xtick_5">
     <g id="line2d_13">
      <defs>
       <path d="M 0 0 
L 0 -1.5 
" id="m800d65d727" style="stroke:#000000;stroke-width:0.5;"/>
      </defs>
      <g>
       <use style="stroke:#000000;stroke-width:0.5;" x="71.819662" xlink:href="#m800d65d727" y="146.295"/>
      </g>
     </g>
     <g id="line2d_14">
      <defs>
       <path d="M 0 0 
L 0 1.5 
" id="m299a4464c0" style="stroke:#000000;stroke-width:0.5;"/>
      </defs>
      <g>
       <use style="stroke:#000000;stroke-width:0.5;" x="71.819662" xlink:href="#m299a4464c0" y="3.6"/>
      </g>
     </g>
    </g>
    <g id="xtick_6">
     <g id="line2d_15">
      <g>
       <use style="stroke:#000000;stroke-width:0.5;" x="83.971812" xlink:href="#m800d65d727" y="146.295"/>
      </g>
     </g>
     <g id="line2d_16">
      <g>
       <use style="stroke:#000000;stroke-width:0.5;" x="83.971812" xlink:href="#m299a4464c0" y="3.6"/>
      </g>
     </g>
    </g>
    <g id="xtick_7">
     <g id="line2d_17">
      <g>
       <use style="stroke:#000000;stroke-width:0.5;" x="96.123963" xlink:href="#m800d65d727" y="146.295"/>
      </g>
     </g>
     <g id="line2d_18">
      <g>
       <use style="stroke:#000000;stroke-width:0.5;" x="96.123963" xlink:href="#m299a4464c0" y="3.6"/>
      </g>
     </g>
    </g>
    <g id="xtick_8">
     <g id="line2d_19">
      <g>
       <use style="stroke:#000000;stroke-width:0.5;" x="108.276114" xlink:href="#m800d65d727" y="146.295"/>
      </g>
     </g>
     <g id="line2d_20">
      <g>
       <use style="stroke:#000000;stroke-width:0.5;" x="108.276114" xlink:href="#m299a4464c0" y="3.6"/>
      </g>
     </g>
    </g>
    <g id="xtick_9">
     <g id="line2d_21">
      <g>
       <use style="stroke:#000000;stroke-width:0.5;" x="132.580415" xlink:href="#m800d65d727" y="146.295"/>
      </g>
     </g>
     <g id="line2d_22">
      <g>
       <use style="stroke:#000000;stroke-width:0.5;" x="132.580415" xlink:href="#m299a4464c0" y="3.6"/>
      </g>
     </g>
    </g>
    <g id="xtick_10">
     <g id="line2d_23">
      <g>
       <use style="stroke:#000000;stroke-width:0.5;" x="144.732566" xlink:href="#m800d65d727" y="146.295"/>
      </g>
     </g>
     <g id="line2d_24">
      <g>
       <use style="stroke:#000000;stroke-width:0.5;" x="144.732566" xlink:href="#m299a4464c0" y="3.6"/>
      </g>
     </g>
    </g>
    <g id="xtick_11">
     <g id="line2d_25">
      <g>
       <use style="stroke:#000000;stroke-width:0.5;" x="156.884716" xlink:href="#m800d65d727" y="146.295"/>
      </g>
     </g>
     <g id="line2d_26">
      <g>
       <use style="stroke:#000000;stroke-width:0.5;" x="156.884716" xlink:href="#m299a4464c0" y="3.6"/>
      </g>
     </g>
    </g>
    <g id="xtick_12">
     <g id="line2d_27">
      <g>
       <use style="stroke:#000000;stroke-width:0.5;" x="169.036867" xlink:href="#m800d65d727" y="146.295"/>
      </g>
     </g>
     <g id="line2d_28">
      <g>
       <use style="stroke:#000000;stroke-width:0.5;" x="169.036867" xlink:href="#m299a4464c0" y="3.6"/>
      </g>
     </g>
    </g>
    <g id="xtick_13">
     <g id="line2d_29">
      <g>
       <use style="stroke:#000000;stroke-width:0.5;" x="193.341168" xlink:href="#m800d65d727" y="146.295"/>
      </g>
     </g>
     <g id="line2d_30">
      <g>
       <use style="stroke:#000000;stroke-width:0.5;" x="193.341168" xlink:href="#m299a4464c0" y="3.6"/>
      </g>
     </g>
    </g>
    <g id="xtick_14">
     <g id="line2d_31">
      <g>
       <use style="stroke:#000000;stroke-width:0.5;" x="205.493319" xlink:href="#m800d65d727" y="146.295"/>
      </g>
     </g>
     <g id="line2d_32">
      <g>
       <use style="stroke:#000000;stroke-width:0.5;" x="205.493319" xlink:href="#m299a4464c0" y="3.6"/>
      </g>
     </g>
    </g>
    <g id="xtick_15">
     <g id="line2d_33">
      <g>
       <use style="stroke:#000000;stroke-width:0.5;" x="217.64547" xlink:href="#m800d65d727" y="146.295"/>
      </g>
     </g>
     <g id="line2d_34">
      <g>
       <use style="stroke:#000000;stroke-width:0.5;" x="217.64547" xlink:href="#m299a4464c0" y="3.6"/>
      </g>
     </g>
    </g>
    <g id="xtick_16">
     <g id="line2d_35">
      <g>
       <use style="stroke:#000000;stroke-width:0.5;" x="229.79762" xlink:href="#m800d65d727" y="146.295"/>
      </g>
     </g>
     <g id="line2d_36">
      <g>
       <use style="stroke:#000000;stroke-width:0.5;" x="229.79762" xlink:href="#m299a4464c0" y="3.6"/>
      </g>
     </g>
    </g>
   </g>
   <g id="matplotlib.axis_2">
    <g id="ytick_1">
     <g id="line2d_37">
      <path clip-path="url(#p5174ff31d5)" d="M 53.016574 146.295 
L 248.316574 146.295 
" style="fill:none;stroke:#000000;stroke-dasharray:0.5,0.825;stroke-dashoffset:0;stroke-opacity:0.5;stroke-width:0.5;"/>
     </g>
     <g id="line2d_38">
      <defs>
       <path d="M 0 0 
L 3 0 
" id="m3d8fa2ce47" style="stroke:#000000;stroke-width:0.5;"/>
      </defs>
      <g>
       <use style="stroke:#000000;stroke-width:0.5;" x="53.016574" xlink:href="#m3d8fa2ce47" y="146.295"/>
      </g>
     </g>
     <g id="line2d_39">
      <defs>
       <path d="M 0 0 
L -3 0 
" id="m584ec4e102" style="stroke:#000000;stroke-width:0.5;"/>
      </defs>
      <g>
       <use style="stroke:#000000;stroke-width:0.5;" x="248.316574" xlink:href="#m584ec4e102" y="146.295"/>
      </g>
     </g>
     <g id="text_5">
      <!-- $\mathdefault{0.00}$ -->
      <g transform="translate(21.769064 151.829794)scale(0.16 -0.16)">
       <defs>
        <path d="M 18.40625 4.796875 
C 18.40625 7.6875 16 9.6875 13.59375 9.6875 
C 10.703125 9.6875 8.703125 7.296875 8.703125 4.890625 
C 8.703125 2 11.09375 0 13.5 0 
C 16.40625 0 18.40625 2.390625 18.40625 4.796875 
z
" id="CMMI12-58"/>
       </defs>
       <use transform="scale(0.996264)" xlink:href="#CMR17-48"/>
       <use transform="translate(45.690477 0)scale(0.996264)" xlink:href="#CMMI12-58"/>
       <use transform="translate(72.787654 0)scale(0.996264)" xlink:href="#CMR17-48"/>
       <use transform="translate(118.478131 0)scale(0.996264)" xlink:href="#CMR17-48"/>
      </g>
     </g>
    </g>
    <g id="ytick_2">
     <g id="line2d_40">
      <path clip-path="url(#p5174ff31d5)" d="M 53.016574 96.009404 
L 248.316574 96.009404 
" style="fill:none;stroke:#000000;stroke-dasharray:0.5,0.825;stroke-dashoffset:0;stroke-opacity:0.5;stroke-width:0.5;"/>
     </g>
     <g id="line2d_41">
      <g>
       <use style="stroke:#000000;stroke-width:0.5;" x="53.016574" xlink:href="#m3d8fa2ce47" y="96.009404"/>
      </g>
     </g>
     <g id="line2d_42">
      <g>
       <use style="stroke:#000000;stroke-width:0.5;" x="248.316574" xlink:href="#m584ec4e102" y="96.009404"/>
      </g>
     </g>
     <g id="text_6">
      <!-- $\mathdefault{0.05}$ -->
      <g transform="translate(21.769064 101.544199)scale(0.16 -0.16)">
       <defs>
        <path d="M 11.40625 58.59375 
C 12.40625 58.1875 16.5 56.890625 20.703125 56.890625 
C 30 56.890625 35.09375 61.890625 38 64.6875 
C 38 65.484375 38 66 37.40625 66 
C 37.296875 66 37.09375 66 36.296875 65.59375 
C 32.796875 64.09375 28.703125 63 23.703125 63 
C 20.703125 63 16.203125 63.359375 11.296875 65.484375 
C 10.203125 66 10 66 9.90625 66 
C 9.40625 66 9.296875 65.890625 9.296875 63.90625 
L 9.296875 34.859375 
C 9.296875 33.015625 9.296875 32.5 10.296875 32.5 
C 10.796875 32.5 11 32.703125 11.5 33.421875 
C 14.703125 38.046875 19.09375 40 24.09375 40 
C 27.59375 40 35.09375 37.734375 35.09375 20.203125 
C 35.09375 16.984375 35.09375 11.1875 32.09375 6.59375 
C 29.59375 2.484375 25.703125 0.390625 21.40625 0.390625 
C 14.796875 0.390625 8.09375 4.984375 6.296875 12.6875 
C 6.703125 12.59375 7.5 12.390625 7.90625 12.390625 
C 9.203125 12.390625 11.703125 13.09375 11.703125 16.1875 
C 11.703125 18.890625 9.796875 20 7.90625 20 
C 5.59375 20 4.09375 18.59375 4.09375 15.796875 
C 4.09375 7.09375 11 -2 21.59375 -2 
C 31.90625 -2 41.703125 6.890625 41.703125 19.796875 
C 41.703125 32.09375 33.90625 41.59375 24.203125 41.59375 
C 19.09375 41.59375 14.796875 39.6875 11.40625 36 
z
" id="CMR17-53"/>
       </defs>
       <use transform="scale(0.996264)" xlink:href="#CMR17-48"/>
       <use transform="translate(45.690477 0)scale(0.996264)" xlink:href="#CMMI12-58"/>
       <use transform="translate(72.787654 0)scale(0.996264)" xlink:href="#CMR17-48"/>
       <use transform="translate(118.478131 0)scale(0.996264)" xlink:href="#CMR17-53"/>
      </g>
     </g>
    </g>
    <g id="ytick_3">
     <g id="line2d_43">
      <path clip-path="url(#p5174ff31d5)" d="M 53.016574 45.723809 
L 248.316574 45.723809 
" style="fill:none;stroke:#000000;stroke-dasharray:0.5,0.825;stroke-dashoffset:0;stroke-opacity:0.5;stroke-width:0.5;"/>
     </g>
     <g id="line2d_44">
      <g>
       <use style="stroke:#000000;stroke-width:0.5;" x="53.016574" xlink:href="#m3d8fa2ce47" y="45.723809"/>
      </g>
     </g>
     <g id="line2d_45">
      <g>
       <use style="stroke:#000000;stroke-width:0.5;" x="248.316574" xlink:href="#m584ec4e102" y="45.723809"/>
      </g>
     </g>
     <g id="text_7">
      <!-- $\mathdefault{0.10}$ -->
      <g transform="translate(21.769064 51.258603)scale(0.16 -0.16)">
       <use transform="scale(0.996264)" xlink:href="#CMR17-48"/>
       <use transform="translate(45.690477 0)scale(0.996264)" xlink:href="#CMMI12-58"/>
       <use transform="translate(72.787654 0)scale(0.996264)" xlink:href="#CMR17-49"/>
       <use transform="translate(118.478131 0)scale(0.996264)" xlink:href="#CMR17-48"/>
      </g>
     </g>
    </g>
    <g id="ytick_4">
     <g id="line2d_46">
      <defs>
       <path d="M 0 0 
L 1.5 0 
" id="m3443c52c05" style="stroke:#000000;stroke-width:0.5;"/>
      </defs>
      <g>
       <use style="stroke:#000000;stroke-width:0.5;" x="53.016574" xlink:href="#m3443c52c05" y="136.237881"/>
      </g>
     </g>
     <g id="line2d_47">
      <defs>
       <path d="M 0 0 
L -1.5 0 
" id="m0834b43d74" style="stroke:#000000;stroke-width:0.5;"/>
      </defs>
      <g>
       <use style="stroke:#000000;stroke-width:0.5;" x="248.316574" xlink:href="#m0834b43d74" y="136.237881"/>
      </g>
     </g>
    </g>
    <g id="ytick_5">
     <g id="line2d_48">
      <g>
       <use style="stroke:#000000;stroke-width:0.5;" x="53.016574" xlink:href="#m3443c52c05" y="126.180762"/>
      </g>
     </g>
     <g id="line2d_49">
      <g>
       <use style="stroke:#000000;stroke-width:0.5;" x="248.316574" xlink:href="#m0834b43d74" y="126.180762"/>
      </g>
     </g>
    </g>
    <g id="ytick_6">
     <g id="line2d_50">
      <g>
       <use style="stroke:#000000;stroke-width:0.5;" x="53.016574" xlink:href="#m3443c52c05" y="116.123643"/>
      </g>
     </g>
     <g id="line2d_51">
      <g>
       <use style="stroke:#000000;stroke-width:0.5;" x="248.316574" xlink:href="#m0834b43d74" y="116.123643"/>
      </g>
     </g>
    </g>
    <g id="ytick_7">
     <g id="line2d_52">
      <g>
       <use style="stroke:#000000;stroke-width:0.5;" x="53.016574" xlink:href="#m3443c52c05" y="106.066524"/>
      </g>
     </g>
     <g id="line2d_53">
      <g>
       <use style="stroke:#000000;stroke-width:0.5;" x="248.316574" xlink:href="#m0834b43d74" y="106.066524"/>
      </g>
     </g>
    </g>
    <g id="ytick_8">
     <g id="line2d_54">
      <g>
       <use style="stroke:#000000;stroke-width:0.5;" x="53.016574" xlink:href="#m3443c52c05" y="85.952285"/>
      </g>
     </g>
     <g id="line2d_55">
      <g>
       <use style="stroke:#000000;stroke-width:0.5;" x="248.316574" xlink:href="#m0834b43d74" y="85.952285"/>
      </g>
     </g>
    </g>
    <g id="ytick_9">
     <g id="line2d_56">
      <g>
       <use style="stroke:#000000;stroke-width:0.5;" x="53.016574" xlink:href="#m3443c52c05" y="75.895166"/>
      </g>
     </g>
     <g id="line2d_57">
      <g>
       <use style="stroke:#000000;stroke-width:0.5;" x="248.316574" xlink:href="#m0834b43d74" y="75.895166"/>
      </g>
     </g>
    </g>
    <g id="ytick_10">
     <g id="line2d_58">
      <g>
       <use style="stroke:#000000;stroke-width:0.5;" x="53.016574" xlink:href="#m3443c52c05" y="65.838047"/>
      </g>
     </g>
     <g id="line2d_59">
      <g>
       <use style="stroke:#000000;stroke-width:0.5;" x="248.316574" xlink:href="#m0834b43d74" y="65.838047"/>
      </g>
     </g>
    </g>
    <g id="ytick_11">
     <g id="line2d_60">
      <g>
       <use style="stroke:#000000;stroke-width:0.5;" x="53.016574" xlink:href="#m3443c52c05" y="55.780928"/>
      </g>
     </g>
     <g id="line2d_61">
      <g>
       <use style="stroke:#000000;stroke-width:0.5;" x="248.316574" xlink:href="#m0834b43d74" y="55.780928"/>
      </g>
     </g>
    </g>
    <g id="ytick_12">
     <g id="line2d_62">
      <g>
       <use style="stroke:#000000;stroke-width:0.5;" x="53.016574" xlink:href="#m3443c52c05" y="35.66669"/>
      </g>
     </g>
     <g id="line2d_63">
      <g>
       <use style="stroke:#000000;stroke-width:0.5;" x="248.316574" xlink:href="#m0834b43d74" y="35.66669"/>
      </g>
     </g>
    </g>
    <g id="ytick_13">
     <g id="line2d_64">
      <g>
       <use style="stroke:#000000;stroke-width:0.5;" x="53.016574" xlink:href="#m3443c52c05" y="25.609571"/>
      </g>
     </g>
     <g id="line2d_65">
      <g>
       <use style="stroke:#000000;stroke-width:0.5;" x="248.316574" xlink:href="#m0834b43d74" y="25.609571"/>
      </g>
     </g>
    </g>
    <g id="ytick_14">
     <g id="line2d_66">
      <g>
       <use style="stroke:#000000;stroke-width:0.5;" x="53.016574" xlink:href="#m3443c52c05" y="15.552451"/>
      </g>
     </g>
     <g id="line2d_67">
      <g>
       <use style="stroke:#000000;stroke-width:0.5;" x="248.316574" xlink:href="#m0834b43d74" y="15.552451"/>
      </g>
     </g>
    </g>
    <g id="ytick_15">
     <g id="line2d_68">
      <g>
       <use style="stroke:#000000;stroke-width:0.5;" x="53.016574" xlink:href="#m3443c52c05" y="5.495332"/>
      </g>
     </g>
     <g id="line2d_69">
      <g>
       <use style="stroke:#000000;stroke-width:0.5;" x="248.316574" xlink:href="#m0834b43d74" y="5.495332"/>
      </g>
     </g>
    </g>
    <g id="text_8">
     <!-- Density -->
     <g transform="translate(14.669588 100.894381)rotate(-90)scale(0.16 -0.16)">
      <defs>
       <path d="M 5.203125 68 
L 5.203125 65.390625 
C 12.09375 65.390625 13.203125 65.390625 13.203125 60.90625 
L 13.203125 7.078125 
C 13.203125 2.59375 12.09375 2.59375 5.203125 2.59375 
L 5.203125 0 
L 37 0 
C 53.09375 0 66 14.734375 66 33.4375 
C 66 52.25 53.296875 68 37 68 
z
M 23.796875 2.59375 
C 19.796875 2.59375 19.59375 3.09375 19.59375 6.46875 
L 19.59375 61.5 
C 19.59375 64.890625 19.796875 65.390625 23.796875 65.390625 
L 35 65.390625 
C 43.296875 65.390625 58.59375 60.515625 58.59375 33.4375 
C 58.59375 19.40625 54.5 13.734375 52.59375 11.046875 
C 50.203125 7.96875 44.5 2.59375 35 2.59375 
z
" id="CMR17-68"/>
       <path d="M 38.09375 23.484375 
C 38.5 23.890625 38.5 24.09375 38.5 25.09375 
C 38.5 35.171875 33.09375 44 21.703125 44 
C 11.09375 44 2.703125 33.984375 2.703125 21.78125 
C 2.703125 8.65625 12.203125 -1 22.796875 -1 
C 34 -1 38.40625 9.671875 38.40625 11.796875 
C 38.40625 12.5 37.796875 12.5 37.59375 12.5 
C 36.90625 12.5 36.796875 12.296875 36.40625 11.078125 
C 34.203125 4.21875 28.703125 0.796875 23.5 0.796875 
C 19.203125 0.796875 14.90625 3.21875 12.203125 7.65625 
C 9.09375 12.796875 9.09375 18.75 9.09375 23.484375 
z
M 9.203125 25 
C 9.90625 39.234375 17.59375 42.390625 21.59375 42.390625 
C 28.40625 42.390625 33 36.0625 33.09375 25 
z
" id="CMR17-101"/>
       <path d="M 41.5 30.53125 
C 41.5 35.65625 40.5 44 28.703125 44 
C 20.796875 44 16.703125 37.875 15.203125 33.84375 
L 15.09375 33.84375 
L 15.09375 44 
L 3.296875 42.890625 
L 3.296875 40.28125 
C 9.203125 40.28125 10.09375 39.6875 10.09375 34.859375 
L 10.09375 6.921875 
C 10.09375 3.09375 9.703125 2.59375 3.296875 2.59375 
L 3.296875 0 
C 5.703125 0.1875 10.09375 0.1875 12.703125 0.1875 
C 15.296875 0.1875 19.796875 0.1875 22.203125 0 
L 22.203125 2.59375 
C 15.796875 2.59375 15.40625 3 15.40625 6.921875 
L 15.40625 26.21875 
C 15.40625 35.453125 21 42.390625 28 42.390625 
C 35.40625 42.390625 36.203125 35.765625 36.203125 30.9375 
L 36.203125 6.921875 
C 36.203125 3.09375 35.796875 2.59375 29.40625 2.59375 
L 29.40625 0 
C 31.796875 0.1875 36.203125 0.1875 38.796875 0.1875 
C 41.40625 0.1875 45.90625 0.1875 48.296875 0 
L 48.296875 2.59375 
C 41.90625 2.59375 41.5 3 41.5 6.921875 
z
" id="CMR17-110"/>
       <path d="M 30.90625 42 
C 30.90625 43.796875 30.796875 43.890625 30.203125 43.890625 
C 29.796875 43.890625 29.703125 43.796875 28.5 42.296875 
C 28.203125 41.890625 27.296875 40.890625 27 40.5 
C 23.796875 43.890625 19.296875 44 17.59375 44 
C 6.5 44 2.5 38.1875 2.5 32.390625 
C 2.5 23.390625 12.703125 21.296875 15.59375 20.6875 
C 21.90625 19.390625 24.09375 19 26.203125 17.1875 
C 27.5 16 29.703125 13.796875 29.703125 10.1875 
C 29.703125 6 27.296875 0.59375 18.09375 0.59375 
C 9.40625 0.59375 6.296875 7.1875 4.5 16 
C 4.203125 17.390625 4.203125 17.5 3.40625 17.5 
C 2.59375 17.5 2.5 17.390625 2.5 15.390625 
L 2.5 1 
C 2.5 -0.8125 2.59375 -0.90625 3.203125 -0.90625 
C 3.703125 -0.90625 3.796875 -0.8125 4.296875 0 
C 4.90625 0.890625 6.40625 3.296875 7 4.296875 
C 9 1.59375 12.5 -1 18.09375 -1 
C 28 -1 33.296875 4.390625 33.296875 12.1875 
C 33.296875 17.296875 30.59375 20 29.296875 21.1875 
C 26.296875 24.296875 22.796875 25 18.59375 25.796875 
C 13.09375 27 6.09375 28.390625 6.09375 34.5 
C 6.09375 37.09375 7.5 42.59375 17.59375 42.59375 
C 28.296875 42.59375 28.90625 32.59375 29.09375 29.390625 
C 29.203125 28.890625 29.703125 28.796875 30 28.796875 
C 30.90625 28.796875 30.90625 29.09375 30.90625 30.796875 
z
" id="CMR17-115"/>
       <path d="M 15.5 61.890625 
C 15.5 64.09375 13.703125 66 11.40625 66 
C 9.203125 66 7.296875 64.1875 7.296875 61.890625 
C 7.296875 59.6875 9.09375 57.796875 11.40625 57.796875 
C 13.59375 57.796875 15.5 59.59375 15.5 61.890625 
z
M 3.796875 42.890625 
L 3.796875 40.296875 
C 9.40625 40.296875 10.203125 39.6875 10.203125 34.859375 
L 10.203125 6.921875 
C 10.203125 3.09375 9.796875 2.59375 3.40625 2.59375 
L 3.40625 0 
C 5.796875 0.1875 10.09375 0.1875 12.59375 0.1875 
C 15 0.1875 19.09375 0.1875 21.40625 0 
L 21.40625 2.59375 
C 15.5 2.59375 15.296875 3.203125 15.296875 6.8125 
L 15.296875 44 
z
" id="CMR17-105"/>
       <path d="M 15.09375 40.390625 
L 29.09375 40.390625 
L 29.09375 43 
L 15.09375 43 
L 15.09375 62 
L 13.296875 62 
C 13.09375 51.4375 9.59375 42.1875 1.09375 41.984375 
L 1.09375 40.390625 
L 9.796875 40.390625 
L 9.796875 12.15625 
C 9.796875 10.234375 9.796875 -1 21.40625 -1 
C 27.296875 -1 30.703125 4.8125 30.703125 12.25 
L 30.703125 17.984375 
L 28.90625 17.984375 
L 28.90625 12.34375 
C 28.90625 5.421875 26.203125 0.796875 22 0.796875 
C 19.09375 0.796875 15.09375 2.796875 15.09375 11.953125 
z
" id="CMR17-116"/>
       <path d="M 39 34.109375 
C 41.5 40.296875 46 40.390625 47.40625 40.390625 
L 47.40625 43 
C 45.5 42.890625 43 42.796875 41.09375 42.796875 
C 39 42.796875 35.703125 42.796875 33.703125 43 
L 33.703125 40.390625 
C 37.5 40.09375 37.59375 37.25 37.59375 36.4375 
C 37.59375 35.4375 37.40625 34.921875 36.90625 33.71875 
L 26 6.390625 
L 14.09375 35.9375 
C 13.59375 37.15625 13.59375 37.859375 13.59375 37.96875 
C 13.59375 40.1875 15.90625 40.390625 18.296875 40.390625 
L 18.296875 43 
C 15.90625 42.796875 11.59375 42.796875 9.09375 42.796875 
C 6.40625 42.796875 3.203125 42.796875 1 43 
L 1 40.390625 
C 6.40625 40.390625 7 39.890625 8.296875 36.640625 
L 23.203125 -0.484375 
C 18.703125 -12.421875 16.09375 -19.40625 9.796875 -19.40625 
C 8.703125 -19.40625 6.203125 -19.109375 4.40625 -17.28125 
C 6.703125 -17.078125 7.703125 -15.65625 7.703125 -13.9375 
C 7.703125 -12.21875 6.5 -10.703125 4.5 -10.703125 
C 2.296875 -10.703125 1.203125 -12.21875 1.203125 -14.046875 
C 1.203125 -18.09375 5.296875 -21 9.796875 -21 
C 15.59375 -21 19.203125 -15.359375 21.203125 -10.296875 
z
" id="CMR17-121"/>
      </defs>
      <use transform="scale(0.996264)" xlink:href="#CMR17-68"/>
      <use transform="translate(70.393556 0)scale(0.996264)" xlink:href="#CMR17-101"/>
      <use transform="translate(110.879216 0)scale(0.996264)" xlink:href="#CMR17-110"/>
      <use transform="translate(161.774586 0)scale(0.996264)" xlink:href="#CMR17-115"/>
      <use transform="translate(197.575924 0)scale(0.996264)" xlink:href="#CMR17-105"/>
      <use transform="translate(222.446982 0)scale(0.996264)" xlink:href="#CMR17-116"/>
      <use transform="translate(255.125296 0)scale(0.996264)" xlink:href="#CMR17-121"/>
     </g>
    </g>
   </g>
   <g id="line2d_70">
    <path clip-path="url(#p5174ff31d5)" d="M 119.87237 146.295 
L 119.87237 3.6 
" style="fill:none;stroke:#0c5da5;stroke-dasharray:19.2,4.8,3,4.8;stroke-dashoffset:0;stroke-width:3;"/>
   </g>
   <g id="patch_3">
    <path d="M 53.016574 146.295 
L 53.016574 3.6 
" style="fill:none;stroke:#000000;stroke-linecap:square;stroke-linejoin:miter;stroke-width:0.5;"/>
   </g>
   <g id="patch_4">
    <path d="M 248.316574 146.295 
L 248.316574 3.6 
" style="fill:none;stroke:#000000;stroke-linecap:square;stroke-linejoin:miter;stroke-width:0.5;"/>
   </g>
   <g id="patch_5">
    <path d="M 53.016574 146.295 
L 248.316574 146.295 
" style="fill:none;stroke:#000000;stroke-linecap:square;stroke-linejoin:miter;stroke-width:0.5;"/>
   </g>
   <g id="patch_6">
    <path d="M 53.016574 3.6 
L 248.316574 3.6 
" style="fill:none;stroke:#000000;stroke-linecap:square;stroke-linejoin:miter;stroke-width:0.5;"/>
   </g>
  </g>
 </g>
 <defs>
  <clipPath id="p5174ff31d5">
   <rect height="142.695" width="195.3" x="53.016574" y="3.6"/>
  </clipPath>
 </defs>
</svg>
