<?xml version="1.0" encoding="utf-8" standalone="no"?>
<!DOCTYPE svg PUBLIC "-//W3C//DTD SVG 1.1//EN"
  "http://www.w3.org/Graphics/SVG/1.1/DTD/svg11.dtd">
<!-- Created with matplotlib (https://matplotlib.org/) -->
<svg height="171.6969pt" version="1.1" viewBox="0 0 231.973051 171.6969" width="231.973051pt" xmlns="http://www.w3.org/2000/svg" xmlns:xlink="http://www.w3.org/1999/xlink">
 <metadata>
  <rdf:RDF xmlns:cc="http://creativecommons.org/ns#" xmlns:dc="http://purl.org/dc/elements/1.1/" xmlns:rdf="http://www.w3.org/1999/02/22-rdf-syntax-ns#">
   <cc:Work>
    <dc:type rdf:resource="http://purl.org/dc/dcmitype/StillImage"/>
    <dc:date>2021-01-28T16:53:13.835344</dc:date>
    <dc:format>image/svg+xml</dc:format>
    <dc:creator>
     <cc:Agent>
      <dc:title>Matplotlib v3.3.0, https://matplotlib.org/</dc:title>
     </cc:Agent>
    </dc:creator>
   </cc:Work>
  </rdf:RDF>
 </metadata>
 <defs>
  <style type="text/css">*{stroke-linecap:butt;stroke-linejoin:round;}</style>
 </defs>
 <g id="figure_1">
  <g id="patch_1">
   <path d="M 0 171.6969 
L 231.973051 171.6969 
L 231.973051 0 
L 0 0 
z
" style="fill:none;"/>
  </g>
  <g id="axes_1">
   <g id="patch_2">
    <path d="M 33.073051 150.427836 
L 228.373051 150.427836 
L 228.373051 7.732836 
L 33.073051 7.732836 
z
" style="fill:#ffffff;"/>
   </g>
   <g id="PolyCollection_1">
    <defs>
     <path d="M 46.707657 -21.453375 
L 46.707657 -21.269064 
L 47.225617 -21.269064 
L 47.743576 -21.269064 
L 48.261535 -21.269064 
L 48.779494 -21.269064 
L 49.297454 -21.269064 
L 49.815413 -21.269064 
L 50.333372 -21.269064 
L 50.851332 -21.269064 
L 51.369291 -21.269064 
L 51.88725 -21.269064 
L 52.405209 -21.269064 
L 52.923169 -21.269064 
L 53.441128 -21.269064 
L 53.959087 -21.269064 
L 54.477047 -21.269064 
L 54.995006 -21.269064 
L 55.512965 -21.269064 
L 56.030924 -21.269064 
L 56.548884 -21.269064 
L 57.066843 -21.269064 
L 57.584802 -21.269064 
L 58.102762 -21.269064 
L 58.620721 -21.269064 
L 59.13868 -21.269064 
L 59.656639 -21.269064 
L 60.174599 -21.269064 
L 60.692558 -21.269064 
L 61.210517 -21.269064 
L 61.728477 -21.269064 
L 62.246436 -21.269064 
L 62.764395 -21.269064 
L 63.282354 -21.269064 
L 63.800314 -21.269064 
L 64.318273 -21.269064 
L 64.836232 -21.269064 
L 65.354191 -21.269064 
L 65.872151 -21.269064 
L 66.39011 -21.269064 
L 66.908069 -21.269064 
L 67.426029 -21.269064 
L 67.943988 -21.269064 
L 68.461947 -21.269064 
L 68.979906 -21.269064 
L 69.497866 -21.269064 
L 70.015825 -21.269064 
L 70.533784 -21.269064 
L 71.051744 -21.269064 
L 71.569703 -21.269064 
L 72.087662 -21.269064 
L 72.605621 -21.269064 
L 73.123581 -21.269064 
L 73.64154 -21.269064 
L 74.159499 -21.269064 
L 74.677459 -21.269064 
L 75.195418 -21.269064 
L 75.713377 -21.269064 
L 76.231336 -21.269064 
L 76.749296 -21.269064 
L 77.267255 -21.269064 
L 77.785214 -21.269064 
L 78.303174 -21.269064 
L 78.821133 -21.269064 
L 79.339092 -21.269064 
L 79.857051 -21.269064 
L 80.375011 -21.269064 
L 80.89297 -21.269064 
L 81.410929 -21.269064 
L 81.928889 -21.269064 
L 82.446848 -21.269064 
L 82.964807 -21.269064 
L 83.482766 -21.269064 
L 84.000726 -21.269064 
L 84.518685 -21.269064 
L 85.036644 -21.269064 
L 85.554603 -21.269064 
L 86.072563 -21.269064 
L 86.590522 -21.269064 
L 87.108481 -21.269064 
L 87.626441 -21.269064 
L 88.1444 -21.269064 
L 88.662359 -21.269064 
L 89.180318 -21.269064 
L 89.698278 -21.269064 
L 90.216237 -21.269064 
L 90.734196 -21.269064 
L 91.252156 -21.269064 
L 91.770115 -21.269064 
L 92.288074 -21.269064 
L 92.806033 -21.269064 
L 93.323993 -21.269064 
L 93.841952 -21.269064 
L 94.359911 -21.269064 
L 94.877871 -21.269064 
L 95.39583 -21.269064 
L 95.913789 -21.269064 
L 96.431748 -21.269064 
L 96.949708 -21.269064 
L 97.467667 -21.269064 
L 97.985626 -21.269064 
L 98.503586 -21.269064 
L 99.021545 -21.269064 
L 99.539504 -21.269064 
L 100.057463 -21.269064 
L 100.575423 -21.269064 
L 101.093382 -21.269064 
L 101.611341 -21.269064 
L 102.129301 -21.269064 
L 102.64726 -21.269064 
L 103.165219 -21.269064 
L 103.683178 -21.269064 
L 104.201138 -21.269064 
L 104.719097 -21.269064 
L 105.237056 -21.269064 
L 105.755015 -21.269064 
L 106.272975 -21.269064 
L 106.790934 -21.269064 
L 107.308893 -21.269064 
L 107.826853 -21.269064 
L 108.344812 -21.269064 
L 108.862771 -21.269064 
L 109.38073 -21.269064 
L 109.89869 -21.269064 
L 110.416649 -21.269064 
L 110.934608 -21.269064 
L 111.452568 -21.269064 
L 111.970527 -21.269064 
L 112.488486 -21.269064 
L 113.006445 -21.269064 
L 113.524405 -21.269064 
L 114.042364 -21.269064 
L 114.560323 -21.269064 
L 115.078283 -21.269064 
L 115.596242 -21.269064 
L 116.114201 -21.269064 
L 116.63216 -21.269064 
L 117.15012 -21.269064 
L 117.668079 -21.269064 
L 118.186038 -21.269064 
L 118.703998 -21.269064 
L 119.221957 -21.269064 
L 119.739916 -21.269064 
L 120.257875 -21.269064 
L 120.775835 -21.269064 
L 121.293794 -21.269064 
L 121.811753 -21.269064 
L 122.329713 -21.269064 
L 122.847672 -21.269064 
L 123.365631 -21.269064 
L 123.88359 -21.269064 
L 124.40155 -21.269064 
L 124.919509 -21.269064 
L 125.437468 -21.269064 
L 125.955427 -21.269064 
L 126.473387 -21.269064 
L 126.991346 -21.269064 
L 127.509305 -21.269064 
L 128.027265 -21.269064 
L 128.545224 -21.269064 
L 129.063183 -21.269064 
L 129.581142 -21.269064 
L 130.099102 -21.269064 
L 130.617061 -21.269064 
L 131.13502 -21.269064 
L 131.65298 -21.269064 
L 132.170939 -21.269064 
L 132.688898 -21.269064 
L 133.206857 -21.269064 
L 133.724817 -21.269064 
L 134.242776 -21.269064 
L 134.760735 -21.269064 
L 135.278695 -21.269064 
L 135.796654 -21.269064 
L 136.314613 -21.269064 
L 136.832572 -21.269064 
L 137.350532 -21.269064 
L 137.868491 -21.269064 
L 138.38645 -21.269064 
L 138.90441 -21.269064 
L 139.422369 -21.269064 
L 139.940328 -21.269064 
L 140.458287 -21.269064 
L 140.976247 -21.269064 
L 141.494206 -21.269064 
L 142.012165 -21.269064 
L 142.530125 -21.269064 
L 143.048084 -21.269064 
L 143.566043 -21.269064 
L 144.084002 -21.269064 
L 144.601962 -21.269064 
L 145.119921 -21.269064 
L 145.63788 -21.269064 
L 146.15584 -21.269064 
L 146.673799 -21.269064 
L 147.191758 -21.269064 
L 147.709717 -21.269064 
L 148.227677 -21.269064 
L 148.745636 -21.269064 
L 149.263595 -21.269064 
L 149.781554 -21.269064 
L 149.781554 -21.324872 
L 149.781554 -21.324872 
L 149.263595 -21.341079 
L 148.745636 -21.361365 
L 148.227677 -21.386569 
L 147.709717 -21.417651 
L 147.191758 -21.455696 
L 146.673799 -21.501917 
L 146.15584 -21.557653 
L 145.63788 -21.624359 
L 145.119921 -21.703599 
L 144.601962 -21.797023 
L 144.084002 -21.906345 
L 143.566043 -22.033316 
L 143.048084 -22.179684 
L 142.530125 -22.347155 
L 142.012165 -22.53735 
L 141.494206 -22.751758 
L 140.976247 -22.991689 
L 140.458287 -23.258228 
L 139.940328 -23.552199 
L 139.422369 -23.87413 
L 138.90441 -24.224231 
L 138.38645 -24.602385 
L 137.868491 -25.008149 
L 137.350532 -25.44078 
L 136.832572 -25.899262 
L 136.314613 -26.382369 
L 135.796654 -26.888722 
L 135.278695 -27.416873 
L 134.760735 -27.965392 
L 134.242776 -28.532956 
L 133.724817 -29.118445 
L 133.206857 -29.721024 
L 132.688898 -30.340219 
L 132.170939 -30.975978 
L 131.65298 -31.628702 
L 131.13502 -32.299263 
L 130.617061 -32.988986 
L 130.099102 -33.699608 
L 129.581142 -34.433204 
L 129.063183 -35.192091 
L 128.545224 -35.978712 
L 128.027265 -36.795493 
L 127.509305 -37.644703 
L 126.991346 -38.528298 
L 126.473387 -39.447774 
L 125.955427 -40.40403 
L 125.437468 -41.397249 
L 124.919509 -42.4268 
L 124.40155 -43.491172 
L 123.88359 -44.587938 
L 123.365631 -45.713756 
L 122.847672 -46.864407 
L 122.329713 -48.034859 
L 121.811753 -49.219376 
L 121.293794 -50.411649 
L 120.775835 -51.604949 
L 120.257875 -52.792307 
L 119.739916 -53.966703 
L 119.221957 -55.121263 
L 118.703998 -56.249457 
L 118.186038 -57.345299 
L 117.668079 -58.403533 
L 117.15012 -59.419807 
L 116.63216 -60.390833 
L 116.114201 -61.314528 
L 115.596242 -62.190125 
L 115.078283 -63.018275 
L 114.560323 -63.801113 
L 114.042364 -64.542303 
L 113.524405 -65.247057 
L 113.006445 -65.92213 
L 112.488486 -66.575785 
L 111.970527 -67.217733 
L 111.452568 -67.859049 
L 110.934608 -68.51205 
L 110.416649 -69.190156 
L 109.89869 -69.907709 
L 109.38073 -70.679772 
L 108.862771 -71.521886 
L 108.344812 -72.449807 
L 107.826853 -73.479208 
L 107.308893 -74.625354 
L 106.790934 -75.902763 
L 106.272975 -77.324838 
L 105.755015 -78.903499 
L 105.237056 -80.648815 
L 104.719097 -82.568635 
L 104.201138 -84.668247 
L 103.683178 -86.950067 
L 103.165219 -89.413367 
L 102.64726 -92.054061 
L 102.129301 -94.864553 
L 101.611341 -97.83366 
L 101.093382 -100.946621 
L 100.575423 -104.185185 
L 100.057463 -107.527802 
L 99.539504 -110.949894 
L 99.021545 -114.424225 
L 98.503586 -117.921347 
L 97.985626 -121.410124 
L 97.467667 -124.858323 
L 96.949708 -128.233244 
L 96.431748 -131.502396 
L 95.913789 -134.634182 
L 95.39583 -137.598574 
L 94.877871 -140.36778 
L 94.359911 -142.916853 
L 93.841952 -145.224246 
L 93.323993 -147.272292 
L 92.806033 -149.047581 
L 92.288074 -150.541241 
L 91.770115 -151.749103 
L 91.252156 -152.671746 
L 90.734196 -153.314422 
L 90.216237 -153.686862 
L 89.698278 -153.802972 
L 89.180318 -153.680423 
L 88.662359 -153.340147 
L 88.1444 -152.805762 
L 87.626441 -152.102927 
L 87.108481 -151.258659 
L 86.590522 -150.300621 
L 86.072563 -149.256405 
L 85.554603 -148.152823 
L 85.036644 -147.015233 
L 84.518685 -145.866906 
L 84.000726 -144.728458 
L 83.482766 -143.617362 
L 82.964807 -142.547545 
L 82.446848 -141.529087 
L 81.928889 -140.56803 
L 81.410929 -139.666294 
L 80.89297 -138.82172 
L 80.375011 -138.028216 
L 79.857051 -137.276018 
L 79.339092 -136.552055 
L 78.821133 -135.840398 
L 78.303174 -135.122793 
L 77.785214 -134.379252 
L 77.267255 -133.588676 
L 76.749296 -132.729506 
L 76.231336 -131.780374 
L 75.713377 -130.720724 
L 75.195418 -129.531397 
L 74.677459 -128.195157 
L 74.159499 -126.69715 
L 73.64154 -125.025267 
L 73.123581 -123.170434 
L 72.605621 -121.126798 
L 72.087662 -118.891828 
L 71.569703 -116.466322 
L 71.051744 -113.854345 
L 70.533784 -111.063082 
L 70.015825 -108.102642 
L 69.497866 -104.985807 
L 68.979906 -101.727742 
L 68.461947 -98.345678 
L 67.943988 -94.858578 
L 67.426029 -91.286786 
L 66.908069 -87.651676 
L 66.39011 -83.9753 
L 65.872151 -80.280043 
L 65.354191 -76.588281 
L 64.836232 -72.922053 
L 64.318273 -69.302749 
L 63.800314 -65.750813 
L 63.282354 -62.285465 
L 62.764395 -58.924452 
L 62.246436 -55.683824 
L 61.728477 -52.57774 
L 61.210517 -49.618319 
L 60.692558 -46.815526 
L 60.174599 -44.177099 
L 59.656639 -41.708531 
L 59.13868 -39.413087 
L 58.620721 -37.291873 
L 58.102762 -35.343945 
L 57.584802 -33.566459 
L 57.066843 -31.954852 
L 56.548884 -30.503049 
L 56.030924 -29.203693 
L 55.512965 -28.048385 
L 54.995006 -27.027925 
L 54.477047 -26.132554 
L 53.959087 -25.352186 
L 53.441128 -24.676619 
L 52.923169 -24.095729 
L 52.405209 -23.599638 
L 51.88725 -23.178856 
L 51.369291 -22.824394 
L 50.851332 -22.527853 
L 50.333372 -22.281478 
L 49.815413 -22.078199 
L 49.297454 -21.91164 
L 48.779494 -21.776117 
L 48.261535 -21.666616 
L 47.743576 -21.578758 
L 47.225617 -21.508757 
L 46.707657 -21.453375 
z
" id="mfdb6fc9d6a" style="stroke:#008000;"/>
    </defs>
    <g clip-path="url(#p469b2ee7de)">
     <use style="fill:#008000;fill-opacity:0.25;stroke:#008000;" x="0" xlink:href="#mfdb6fc9d6a" y="171.6969"/>
    </g>
   </g>
   <g id="PolyCollection_2">
    <defs>
     <path d="M 41.950324 -21.360724 
L 41.950324 -21.269064 
L 42.842512 -21.269064 
L 43.734701 -21.269064 
L 44.626889 -21.269064 
L 45.519077 -21.269064 
L 46.411265 -21.269064 
L 47.303454 -21.269064 
L 48.195642 -21.269064 
L 49.08783 -21.269064 
L 49.980018 -21.269064 
L 50.872206 -21.269064 
L 51.764395 -21.269064 
L 52.656583 -21.269064 
L 53.548771 -21.269064 
L 54.440959 -21.269064 
L 55.333147 -21.269064 
L 56.225336 -21.269064 
L 57.117524 -21.269064 
L 58.009712 -21.269064 
L 58.9019 -21.269064 
L 59.794088 -21.269064 
L 60.686277 -21.269064 
L 61.578465 -21.269064 
L 62.470653 -21.269064 
L 63.362841 -21.269064 
L 64.25503 -21.269064 
L 65.147218 -21.269064 
L 66.039406 -21.269064 
L 66.931594 -21.269064 
L 67.823782 -21.269064 
L 68.715971 -21.269064 
L 69.608159 -21.269064 
L 70.500347 -21.269064 
L 71.392535 -21.269064 
L 72.284723 -21.269064 
L 73.176912 -21.269064 
L 74.0691 -21.269064 
L 74.961288 -21.269064 
L 75.853476 -21.269064 
L 76.745665 -21.269064 
L 77.637853 -21.269064 
L 78.530041 -21.269064 
L 79.422229 -21.269064 
L 80.314417 -21.269064 
L 81.206606 -21.269064 
L 82.098794 -21.269064 
L 82.990982 -21.269064 
L 83.88317 -21.269064 
L 84.775358 -21.269064 
L 85.667547 -21.269064 
L 86.559735 -21.269064 
L 87.451923 -21.269064 
L 88.344111 -21.269064 
L 89.2363 -21.269064 
L 90.128488 -21.269064 
L 91.020676 -21.269064 
L 91.912864 -21.269064 
L 92.805052 -21.269064 
L 93.697241 -21.269064 
L 94.589429 -21.269064 
L 95.481617 -21.269064 
L 96.373805 -21.269064 
L 97.265993 -21.269064 
L 98.158182 -21.269064 
L 99.05037 -21.269064 
L 99.942558 -21.269064 
L 100.834746 -21.269064 
L 101.726935 -21.269064 
L 102.619123 -21.269064 
L 103.511311 -21.269064 
L 104.403499 -21.269064 
L 105.295687 -21.269064 
L 106.187876 -21.269064 
L 107.080064 -21.269064 
L 107.972252 -21.269064 
L 108.86444 -21.269064 
L 109.756628 -21.269064 
L 110.648817 -21.269064 
L 111.541005 -21.269064 
L 112.433193 -21.269064 
L 113.325381 -21.269064 
L 114.21757 -21.269064 
L 115.109758 -21.269064 
L 116.001946 -21.269064 
L 116.894134 -21.269064 
L 117.786322 -21.269064 
L 118.678511 -21.269064 
L 119.570699 -21.269064 
L 120.462887 -21.269064 
L 121.355075 -21.269064 
L 122.247263 -21.269064 
L 123.139452 -21.269064 
L 124.03164 -21.269064 
L 124.923828 -21.269064 
L 125.816016 -21.269064 
L 126.708205 -21.269064 
L 127.600393 -21.269064 
L 128.492581 -21.269064 
L 129.384769 -21.269064 
L 130.276957 -21.269064 
L 131.169146 -21.269064 
L 132.061334 -21.269064 
L 132.953522 -21.269064 
L 133.84571 -21.269064 
L 134.737898 -21.269064 
L 135.630087 -21.269064 
L 136.522275 -21.269064 
L 137.414463 -21.269064 
L 138.306651 -21.269064 
L 139.19884 -21.269064 
L 140.091028 -21.269064 
L 140.983216 -21.269064 
L 141.875404 -21.269064 
L 142.767592 -21.269064 
L 143.659781 -21.269064 
L 144.551969 -21.269064 
L 145.444157 -21.269064 
L 146.336345 -21.269064 
L 147.228533 -21.269064 
L 148.120722 -21.269064 
L 149.01291 -21.269064 
L 149.905098 -21.269064 
L 150.797286 -21.269064 
L 151.689475 -21.269064 
L 152.581663 -21.269064 
L 153.473851 -21.269064 
L 154.366039 -21.269064 
L 155.258227 -21.269064 
L 156.150416 -21.269064 
L 157.042604 -21.269064 
L 157.934792 -21.269064 
L 158.82698 -21.269064 
L 159.719168 -21.269064 
L 160.611357 -21.269064 
L 161.503545 -21.269064 
L 162.395733 -21.269064 
L 163.287921 -21.269064 
L 164.18011 -21.269064 
L 165.072298 -21.269064 
L 165.964486 -21.269064 
L 166.856674 -21.269064 
L 167.748862 -21.269064 
L 168.641051 -21.269064 
L 169.533239 -21.269064 
L 170.425427 -21.269064 
L 171.317615 -21.269064 
L 172.209803 -21.269064 
L 173.101992 -21.269064 
L 173.99418 -21.269064 
L 174.886368 -21.269064 
L 175.778556 -21.269064 
L 176.670745 -21.269064 
L 177.562933 -21.269064 
L 178.455121 -21.269064 
L 179.347309 -21.269064 
L 180.239497 -21.269064 
L 181.131686 -21.269064 
L 182.023874 -21.269064 
L 182.916062 -21.269064 
L 183.80825 -21.269064 
L 184.700438 -21.269064 
L 185.592627 -21.269064 
L 186.484815 -21.269064 
L 187.377003 -21.269064 
L 188.269191 -21.269064 
L 189.161379 -21.269064 
L 190.053568 -21.269064 
L 190.945756 -21.269064 
L 191.837944 -21.269064 
L 192.730132 -21.269064 
L 193.622321 -21.269064 
L 194.514509 -21.269064 
L 195.406697 -21.269064 
L 196.298885 -21.269064 
L 197.191073 -21.269064 
L 198.083262 -21.269064 
L 198.97545 -21.269064 
L 199.867638 -21.269064 
L 200.759826 -21.269064 
L 201.652014 -21.269064 
L 202.544203 -21.269064 
L 203.436391 -21.269064 
L 204.328579 -21.269064 
L 205.220767 -21.269064 
L 206.112956 -21.269064 
L 207.005144 -21.269064 
L 207.897332 -21.269064 
L 208.78952 -21.269064 
L 209.681708 -21.269064 
L 210.573897 -21.269064 
L 211.466085 -21.269064 
L 212.358273 -21.269064 
L 213.250461 -21.269064 
L 214.142649 -21.269064 
L 215.034838 -21.269064 
L 215.927026 -21.269064 
L 216.819214 -21.269064 
L 217.711402 -21.269064 
L 218.603591 -21.269064 
L 219.495779 -21.269064 
L 219.495779 -21.30151 
L 219.495779 -21.30151 
L 218.603591 -21.315347 
L 217.711402 -21.334129 
L 216.819214 -21.359207 
L 215.927026 -21.392141 
L 215.034838 -21.434671 
L 214.142649 -21.488667 
L 213.250461 -21.556047 
L 212.358273 -21.638665 
L 211.466085 -21.738167 
L 210.573897 -21.855827 
L 209.681708 -21.992358 
L 208.78952 -22.147733 
L 207.897332 -22.321013 
L 207.005144 -22.510208 
L 206.112956 -22.712203 
L 205.220767 -22.922748 
L 204.328579 -23.136541 
L 203.436391 -23.347403 
L 202.544203 -23.548546 
L 201.652014 -23.732913 
L 200.759826 -23.893588 
L 199.867638 -24.024215 
L 198.97545 -24.119417 
L 198.083262 -24.175162 
L 197.191073 -24.189047 
L 196.298885 -24.160468 
L 195.406697 -24.090666 
L 194.514509 -23.982634 
L 193.622321 -23.840908 
L 192.730132 -23.671251 
L 191.837944 -23.48026 
L 190.945756 -23.27495 
L 190.053568 -23.062325 
L 189.161379 -22.848999 
L 188.269191 -22.640872 
L 187.377003 -22.442896 
L 186.484815 -22.258931 
L 185.592627 -22.091697 
L 184.700438 -21.942807 
L 183.80825 -21.812866 
L 182.916062 -21.701623 
L 182.023874 -21.608149 
L 181.131686 -21.531021 
L 180.239497 -21.468503 
L 179.347309 -21.418704 
L 178.455121 -21.379713 
L 177.562933 -21.349695 
L 176.670745 -21.326969 
L 175.778556 -21.310046 
L 174.886368 -21.297649 
L 173.99418 -21.288714 
L 173.101992 -21.282377 
L 172.209803 -21.277956 
L 171.317615 -21.274923 
L 170.425427 -21.272878 
L 169.533239 -21.271528 
L 168.641051 -21.270665 
L 167.748862 -21.270143 
L 166.856674 -21.269873 
L 165.964486 -21.269807 
L 165.072298 -21.269936 
L 164.18011 -21.270291 
L 163.287921 -21.270948 
L 162.395733 -21.272038 
L 161.503545 -21.273765 
L 160.611357 -21.276434 
L 159.719168 -21.280477 
L 158.82698 -21.286503 
L 157.934792 -21.295343 
L 157.042604 -21.308113 
L 156.150416 -21.326277 
L 155.258227 -21.351719 
L 154.366039 -21.38681 
L 153.473851 -21.434462 
L 152.581663 -21.49817 
L 151.689475 -21.582013 
L 150.797286 -21.690625 
L 149.905098 -21.829097 
L 149.01291 -22.002826 
L 148.120722 -22.217283 
L 147.228533 -22.477722 
L 146.336345 -22.788818 
L 145.444157 -23.15427 
L 144.551969 -23.576391 
L 143.659781 -24.055712 
L 142.767592 -24.590674 
L 141.875404 -25.177411 
L 140.983216 -25.809714 
L 140.091028 -26.47917 
L 139.19884 -27.175525 
L 138.306651 -27.887243 
L 137.414463 -28.602261 
L 136.522275 -29.308869 
L 135.630087 -29.996663 
L 134.737898 -30.657472 
L 133.84571 -31.286191 
L 132.953522 -31.88142 
L 132.061334 -32.445856 
L 131.169146 -32.9864 
L 130.276957 -33.513973 
L 129.384769 -34.043061 
L 128.492581 -34.591055 
L 127.600393 -35.177451 
L 126.708205 -35.823006 
L 125.816016 -36.548916 
L 124.923828 -37.376074 
L 124.03164 -38.324457 
L 123.139452 -39.412621 
L 122.247263 -40.657294 
L 121.355075 -42.073002 
L 120.462887 -43.671683 
L 119.570699 -45.462237 
L 118.678511 -47.449984 
L 117.786322 -49.636043 
L 116.894134 -52.016682 
L 116.001946 -54.582737 
L 115.109758 -57.31921 
L 114.21757 -60.205187 
L 113.325381 -63.214202 
L 112.433193 -66.315124 
L 111.541005 -69.473614 
L 110.648817 -72.654108 
L 109.756628 -75.822215 
L 108.86444 -78.947338 
L 107.972252 -82.005282 
L 107.080064 -84.980561 
L 106.187876 -87.868138 
L 105.295687 -90.674343 
L 104.403499 -93.416795 
L 103.511311 -96.123239 
L 102.619123 -98.829333 
L 101.726935 -101.575501 
L 100.834746 -104.403112 
L 99.942558 -107.350308 
L 99.05037 -110.447843 
L 98.158182 -113.715334 
L 97.265993 -117.158275 
L 96.373805 -120.766104 
L 95.481617 -124.511512 
L 94.589429 -128.351058 
L 93.697241 -132.227042 
L 92.805052 -136.070443 
L 91.912864 -139.804653 
L 91.020676 -143.349656 
L 90.128488 -146.626276 
L 89.2363 -149.560138 
L 88.344111 -152.085012 
L 87.451923 -154.145339 
L 86.559735 -155.697767 
L 85.667547 -156.711724 
L 84.775358 -157.169064 
L 83.88317 -157.062993 
L 82.990982 -156.396467 
L 82.098794 -155.180344 
L 81.206606 -153.431509 
L 80.314417 -151.171215 
L 79.422229 -148.423766 
L 78.530041 -145.215654 
L 77.637853 -141.575154 
L 76.745665 -137.532333 
L 75.853476 -133.119361 
L 74.961288 -128.371 
L 74.0691 -123.325122 
L 73.176912 -118.023107 
L 72.284723 -112.510022 
L 71.392535 -106.834494 
L 70.500347 -101.048249 
L 69.608159 -95.205323 
L 68.715971 -89.361002 
L 67.823782 -83.570542 
L 66.931594 -77.8878 
L 66.039406 -72.363829 
L 65.147218 -67.04556 
L 64.25503 -61.974644 
L 63.362841 -57.186505 
L 62.470653 -52.709651 
L 61.578465 -48.565262 
L 60.686277 -44.767065 
L 59.794088 -41.321463 
L 58.9019 -38.227918 
L 58.009712 -35.479531 
L 57.117524 -33.063801 
L 56.225336 -30.963496 
L 55.333147 -29.157619 
L 54.440959 -27.622393 
L 53.548771 -26.332248 
L 52.656583 -25.260754 
L 51.764395 -24.381466 
L 50.872206 -23.668665 
L 49.980018 -23.097963 
L 49.08783 -22.646764 
L 48.195642 -22.294587 
L 47.303454 -22.02325 
L 46.411265 -21.81693 
L 45.519077 -21.662125 
L 44.626889 -21.547526 
L 43.734701 -21.463836 
L 42.842512 -21.403552 
L 41.950324 -21.360724 
z
" id="mb2c92cc918" style="stroke:#ffa500;"/>
    </defs>
    <g clip-path="url(#p469b2ee7de)">
     <use style="fill:#ffa500;fill-opacity:0.25;stroke:#ffa500;" x="0" xlink:href="#mb2c92cc918" y="171.6969"/>
    </g>
   </g>
   <g id="matplotlib.axis_1">
    <g id="xtick_1">
     <g id="line2d_1">
      <path clip-path="url(#p469b2ee7de)" d="M 82.063324 150.427836 
L 82.063324 7.732836 
" style="fill:none;stroke:#000000;stroke-dasharray:0.5,0.825;stroke-dashoffset:0;stroke-opacity:0.5;stroke-width:0.5;"/>
     </g>
     <g id="line2d_2">
      <defs>
       <path d="M 0 0 
L 0 -3 
" id="m211b1f2805" style="stroke:#000000;stroke-width:0.5;"/>
      </defs>
      <g>
       <use style="stroke:#000000;stroke-width:0.5;" x="82.063324" xlink:href="#m211b1f2805" y="150.427836"/>
      </g>
     </g>
     <g id="line2d_3">
      <defs>
       <path d="M 0 0 
L 0 3 
" id="m6d90828b5a" style="stroke:#000000;stroke-width:0.5;"/>
      </defs>
      <g>
       <use style="stroke:#000000;stroke-width:0.5;" x="82.063324" xlink:href="#m6d90828b5a" y="7.732836"/>
      </g>
     </g>
     <g id="text_1">
      <!-- $\mathdefault{0.5}$ -->
      <g transform="translate(72.091563 164.997424)scale(0.16 -0.16)">
       <defs>
        <path d="M 42 31.84375 
C 42 37.96875 41.90625 48.421875 37.703125 56.453125 
C 34 63.484375 28.09375 66 22.90625 66 
C 18.09375 66 12 63.78125 8.203125 56.5625 
C 4.203125 49.015625 3.796875 39.671875 3.796875 31.84375 
C 3.796875 26.109375 3.90625 17.375 7 9.734375 
C 11.296875 -0.609375 19 -2 22.90625 -2 
C 27.5 -2 34.5 -0.109375 38.59375 9.4375 
C 41.59375 16.375 42 24.5 42 31.84375 
z
M 22.90625 -0.40625 
C 16.5 -0.40625 12.703125 5.125 11.296875 12.75 
C 10.203125 18.6875 10.203125 27.328125 10.203125 32.953125 
C 10.203125 40.6875 10.203125 47.109375 11.5 53.234375 
C 13.40625 61.78125 19 64.390625 22.90625 64.390625 
C 27 64.390625 32.296875 61.671875 34.203125 53.4375 
C 35.5 47.71875 35.59375 40.984375 35.59375 32.953125 
C 35.59375 26.421875 35.59375 18.375 34.40625 12.453125 
C 32.296875 1.5 26.40625 -0.40625 22.90625 -0.40625 
z
" id="CMR17-48"/>
        <path d="M 18.40625 4.796875 
C 18.40625 7.6875 16 9.6875 13.59375 9.6875 
C 10.703125 9.6875 8.703125 7.296875 8.703125 4.890625 
C 8.703125 2 11.09375 0 13.5 0 
C 16.40625 0 18.40625 2.390625 18.40625 4.796875 
z
" id="CMMI12-58"/>
        <path d="M 11.40625 58.59375 
C 12.40625 58.1875 16.5 56.890625 20.703125 56.890625 
C 30 56.890625 35.09375 61.890625 38 64.6875 
C 38 65.484375 38 66 37.40625 66 
C 37.296875 66 37.09375 66 36.296875 65.59375 
C 32.796875 64.09375 28.703125 63 23.703125 63 
C 20.703125 63 16.203125 63.359375 11.296875 65.484375 
C 10.203125 66 10 66 9.90625 66 
C 9.40625 66 9.296875 65.890625 9.296875 63.90625 
L 9.296875 34.859375 
C 9.296875 33.015625 9.296875 32.5 10.296875 32.5 
C 10.796875 32.5 11 32.703125 11.5 33.421875 
C 14.703125 38.046875 19.09375 40 24.09375 40 
C 27.59375 40 35.09375 37.734375 35.09375 20.203125 
C 35.09375 16.984375 35.09375 11.1875 32.09375 6.59375 
C 29.59375 2.484375 25.703125 0.390625 21.40625 0.390625 
C 14.796875 0.390625 8.09375 4.984375 6.296875 12.6875 
C 6.703125 12.59375 7.5 12.390625 7.90625 12.390625 
C 9.203125 12.390625 11.703125 13.09375 11.703125 16.1875 
C 11.703125 18.890625 9.796875 20 7.90625 20 
C 5.59375 20 4.09375 18.59375 4.09375 15.796875 
C 4.09375 7.09375 11 -2 21.59375 -2 
C 31.90625 -2 41.703125 6.890625 41.703125 19.796875 
C 41.703125 32.09375 33.90625 41.59375 24.203125 41.59375 
C 19.09375 41.59375 14.796875 39.6875 11.40625 36 
z
" id="CMR17-53"/>
       </defs>
       <use transform="scale(0.996264)" xlink:href="#CMR17-48"/>
       <use transform="translate(45.690477 0)scale(0.996264)" xlink:href="#CMMI12-58"/>
       <use transform="translate(72.787654 0)scale(0.996264)" xlink:href="#CMR17-53"/>
      </g>
     </g>
    </g>
    <g id="xtick_2">
     <g id="line2d_4">
      <path clip-path="url(#p469b2ee7de)" d="M 158.574418 150.427836 
L 158.574418 7.732836 
" style="fill:none;stroke:#000000;stroke-dasharray:0.5,0.825;stroke-dashoffset:0;stroke-opacity:0.5;stroke-width:0.5;"/>
     </g>
     <g id="line2d_5">
      <g>
       <use style="stroke:#000000;stroke-width:0.5;" x="158.574418" xlink:href="#m211b1f2805" y="150.427836"/>
      </g>
     </g>
     <g id="line2d_6">
      <g>
       <use style="stroke:#000000;stroke-width:0.5;" x="158.574418" xlink:href="#m6d90828b5a" y="7.732836"/>
      </g>
     </g>
     <g id="text_2">
      <!-- $\mathdefault{1.0}$ -->
      <g transform="translate(148.602657 164.997424)scale(0.16 -0.16)">
       <defs>
        <path d="M 26.59375 63.796875 
C 26.59375 65.890625 26.5 66 25.09375 66 
C 21.203125 61.359375 15.296875 59.890625 9.703125 59.6875 
C 9.40625 59.6875 8.90625 59.6875 8.796875 59.5 
C 8.703125 59.296875 8.703125 59.09375 8.703125 57 
C 11.796875 57 17 57.59375 21 59.984375 
L 21 7.296875 
C 21 3.796875 20.796875 2.59375 12.203125 2.59375 
L 9.203125 2.59375 
L 9.203125 0 
C 14 0.09375 19 0.1875 23.796875 0.1875 
C 28.59375 0.1875 33.59375 0.09375 38.40625 0 
L 38.40625 2.59375 
L 35.40625 2.59375 
C 26.796875 2.59375 26.59375 3.6875 26.59375 7.296875 
z
" id="CMR17-49"/>
       </defs>
       <use transform="scale(0.996264)" xlink:href="#CMR17-49"/>
       <use transform="translate(45.690477 0)scale(0.996264)" xlink:href="#CMMI12-58"/>
       <use transform="translate(72.787654 0)scale(0.996264)" xlink:href="#CMR17-48"/>
      </g>
     </g>
    </g>
    <g id="xtick_3">
     <g id="line2d_7">
      <defs>
       <path d="M 0 0 
L 0 -1.5 
" id="m58a5a1e2e4" style="stroke:#000000;stroke-width:0.5;"/>
      </defs>
      <g>
       <use style="stroke:#000000;stroke-width:0.5;" x="36.156667" xlink:href="#m58a5a1e2e4" y="150.427836"/>
      </g>
     </g>
     <g id="line2d_8">
      <defs>
       <path d="M 0 0 
L 0 1.5 
" id="m5c9f018440" style="stroke:#000000;stroke-width:0.5;"/>
      </defs>
      <g>
       <use style="stroke:#000000;stroke-width:0.5;" x="36.156667" xlink:href="#m5c9f018440" y="7.732836"/>
      </g>
     </g>
    </g>
    <g id="xtick_4">
     <g id="line2d_9">
      <g>
       <use style="stroke:#000000;stroke-width:0.5;" x="51.458886" xlink:href="#m58a5a1e2e4" y="150.427836"/>
      </g>
     </g>
     <g id="line2d_10">
      <g>
       <use style="stroke:#000000;stroke-width:0.5;" x="51.458886" xlink:href="#m5c9f018440" y="7.732836"/>
      </g>
     </g>
    </g>
    <g id="xtick_5">
     <g id="line2d_11">
      <g>
       <use style="stroke:#000000;stroke-width:0.5;" x="66.761105" xlink:href="#m58a5a1e2e4" y="150.427836"/>
      </g>
     </g>
     <g id="line2d_12">
      <g>
       <use style="stroke:#000000;stroke-width:0.5;" x="66.761105" xlink:href="#m5c9f018440" y="7.732836"/>
      </g>
     </g>
    </g>
    <g id="xtick_6">
     <g id="line2d_13">
      <g>
       <use style="stroke:#000000;stroke-width:0.5;" x="97.365543" xlink:href="#m58a5a1e2e4" y="150.427836"/>
      </g>
     </g>
     <g id="line2d_14">
      <g>
       <use style="stroke:#000000;stroke-width:0.5;" x="97.365543" xlink:href="#m5c9f018440" y="7.732836"/>
      </g>
     </g>
    </g>
    <g id="xtick_7">
     <g id="line2d_15">
      <g>
       <use style="stroke:#000000;stroke-width:0.5;" x="112.667761" xlink:href="#m58a5a1e2e4" y="150.427836"/>
      </g>
     </g>
     <g id="line2d_16">
      <g>
       <use style="stroke:#000000;stroke-width:0.5;" x="112.667761" xlink:href="#m5c9f018440" y="7.732836"/>
      </g>
     </g>
    </g>
    <g id="xtick_8">
     <g id="line2d_17">
      <g>
       <use style="stroke:#000000;stroke-width:0.5;" x="127.96998" xlink:href="#m58a5a1e2e4" y="150.427836"/>
      </g>
     </g>
     <g id="line2d_18">
      <g>
       <use style="stroke:#000000;stroke-width:0.5;" x="127.96998" xlink:href="#m5c9f018440" y="7.732836"/>
      </g>
     </g>
    </g>
    <g id="xtick_9">
     <g id="line2d_19">
      <g>
       <use style="stroke:#000000;stroke-width:0.5;" x="143.272199" xlink:href="#m58a5a1e2e4" y="150.427836"/>
      </g>
     </g>
     <g id="line2d_20">
      <g>
       <use style="stroke:#000000;stroke-width:0.5;" x="143.272199" xlink:href="#m5c9f018440" y="7.732836"/>
      </g>
     </g>
    </g>
    <g id="xtick_10">
     <g id="line2d_21">
      <g>
       <use style="stroke:#000000;stroke-width:0.5;" x="173.876637" xlink:href="#m58a5a1e2e4" y="150.427836"/>
      </g>
     </g>
     <g id="line2d_22">
      <g>
       <use style="stroke:#000000;stroke-width:0.5;" x="173.876637" xlink:href="#m5c9f018440" y="7.732836"/>
      </g>
     </g>
    </g>
    <g id="xtick_11">
     <g id="line2d_23">
      <g>
       <use style="stroke:#000000;stroke-width:0.5;" x="189.178855" xlink:href="#m58a5a1e2e4" y="150.427836"/>
      </g>
     </g>
     <g id="line2d_24">
      <g>
       <use style="stroke:#000000;stroke-width:0.5;" x="189.178855" xlink:href="#m5c9f018440" y="7.732836"/>
      </g>
     </g>
    </g>
    <g id="xtick_12">
     <g id="line2d_25">
      <g>
       <use style="stroke:#000000;stroke-width:0.5;" x="204.481074" xlink:href="#m58a5a1e2e4" y="150.427836"/>
      </g>
     </g>
     <g id="line2d_26">
      <g>
       <use style="stroke:#000000;stroke-width:0.5;" x="204.481074" xlink:href="#m5c9f018440" y="7.732836"/>
      </g>
     </g>
    </g>
    <g id="xtick_13">
     <g id="line2d_27">
      <g>
       <use style="stroke:#000000;stroke-width:0.5;" x="219.783293" xlink:href="#m58a5a1e2e4" y="150.427836"/>
      </g>
     </g>
     <g id="line2d_28">
      <g>
       <use style="stroke:#000000;stroke-width:0.5;" x="219.783293" xlink:href="#m5c9f018440" y="7.732836"/>
      </g>
     </g>
    </g>
   </g>
   <g id="matplotlib.axis_2">
    <g id="ytick_1">
     <g id="line2d_29">
      <path clip-path="url(#p469b2ee7de)" d="M 33.073051 150.427836 
L 228.373051 150.427836 
" style="fill:none;stroke:#000000;stroke-dasharray:0.5,0.825;stroke-dashoffset:0;stroke-opacity:0.5;stroke-width:0.5;"/>
     </g>
     <g id="line2d_30">
      <defs>
       <path d="M 0 0 
L 3 0 
" id="m5b91f18b60" style="stroke:#000000;stroke-width:0.5;"/>
      </defs>
      <g>
       <use style="stroke:#000000;stroke-width:0.5;" x="33.073051" xlink:href="#m5b91f18b60" y="150.427836"/>
      </g>
     </g>
     <g id="line2d_31">
      <defs>
       <path d="M 0 0 
L -3 0 
" id="mb3cef17717" style="stroke:#000000;stroke-width:0.5;"/>
      </defs>
      <g>
       <use style="stroke:#000000;stroke-width:0.5;" x="228.373051" xlink:href="#mb3cef17717" y="150.427836"/>
      </g>
     </g>
     <g id="text_3">
      <!-- $\mathdefault{0}$ -->
      <g transform="translate(21.769064 155.96263)scale(0.16 -0.16)">
       <use transform="scale(0.996264)" xlink:href="#CMR17-48"/>
      </g>
     </g>
    </g>
    <g id="ytick_2">
     <g id="line2d_32">
      <path clip-path="url(#p469b2ee7de)" d="M 33.073051 79.781315 
L 228.373051 79.781315 
" style="fill:none;stroke:#000000;stroke-dasharray:0.5,0.825;stroke-dashoffset:0;stroke-opacity:0.5;stroke-width:0.5;"/>
     </g>
     <g id="line2d_33">
      <g>
       <use style="stroke:#000000;stroke-width:0.5;" x="33.073051" xlink:href="#m5b91f18b60" y="79.781315"/>
      </g>
     </g>
     <g id="line2d_34">
      <g>
       <use style="stroke:#000000;stroke-width:0.5;" x="228.373051" xlink:href="#mb3cef17717" y="79.781315"/>
      </g>
     </g>
     <g id="text_4">
      <!-- $\mathdefault{2}$ -->
      <g transform="translate(21.769064 85.316109)scale(0.16 -0.16)">
       <defs>
        <path d="M 41.703125 15.46875 
L 39.90625 15.46875 
C 38.90625 8.390625 38.09375 7.1875 37.703125 6.59375 
C 37.203125 5.796875 30 5.796875 28.59375 5.796875 
L 9.40625 5.796875 
C 13 9.6875 20 16.765625 28.5 24.9375 
C 34.59375 30.71875 41.703125 37.5 41.703125 47.390625 
C 41.703125 59.1875 32.296875 66 21.796875 66 
C 10.796875 66 4.09375 56.296875 4.09375 47.296875 
C 4.09375 43.390625 7 42.890625 8.203125 42.890625 
C 9.203125 42.890625 12.203125 43.484375 12.203125 46.984375 
C 12.203125 50.09375 9.59375 51 8.203125 51 
C 7.59375 51 7 50.890625 6.59375 50.6875 
C 8.5 59.1875 14.296875 63.390625 20.40625 63.390625 
C 29.09375 63.390625 34.796875 56.5 34.796875 47.390625 
C 34.796875 38.703125 29.703125 31.21875 24 24.734375 
L 4.09375 2.296875 
L 4.09375 0 
L 39.296875 0 
z
" id="CMR17-50"/>
       </defs>
       <use transform="scale(0.996264)" xlink:href="#CMR17-50"/>
      </g>
     </g>
    </g>
    <g id="ytick_3">
     <g id="line2d_35">
      <path clip-path="url(#p469b2ee7de)" d="M 33.073051 9.134794 
L 228.373051 9.134794 
" style="fill:none;stroke:#000000;stroke-dasharray:0.5,0.825;stroke-dashoffset:0;stroke-opacity:0.5;stroke-width:0.5;"/>
     </g>
     <g id="line2d_36">
      <g>
       <use style="stroke:#000000;stroke-width:0.5;" x="33.073051" xlink:href="#m5b91f18b60" y="9.134794"/>
      </g>
     </g>
     <g id="line2d_37">
      <g>
       <use style="stroke:#000000;stroke-width:0.5;" x="228.373051" xlink:href="#mb3cef17717" y="9.134794"/>
      </g>
     </g>
     <g id="text_5">
      <!-- $\mathdefault{4}$ -->
      <g transform="translate(21.769064 14.669588)scale(0.16 -0.16)">
       <defs>
        <path d="M 33.59375 64.796875 
C 33.59375 66.890625 33.5 67 31.703125 67 
L 2 19.59375 
L 2 17 
L 27.796875 17 
L 27.796875 7.1875 
C 27.796875 3.59375 27.59375 2.59375 20.59375 2.59375 
L 18.703125 2.59375 
L 18.703125 0 
C 21.90625 0.1875 27.296875 0.1875 30.703125 0.1875 
C 34.09375 0.1875 39.5 0.1875 42.703125 0 
L 42.703125 2.59375 
L 40.796875 2.59375 
C 33.796875 2.59375 33.59375 3.59375 33.59375 7.1875 
L 33.59375 17 
L 43.796875 17 
L 43.796875 19.59375 
L 33.59375 19.59375 
z
M 28.09375 58.171875 
L 28.09375 19.59375 
L 4 19.59375 
z
" id="CMR17-52"/>
       </defs>
       <use transform="scale(0.996264)" xlink:href="#CMR17-52"/>
      </g>
     </g>
    </g>
    <g id="ytick_4">
     <g id="line2d_38">
      <defs>
       <path d="M 0 0 
L 1.5 0 
" id="m3dc5921ec1" style="stroke:#000000;stroke-width:0.5;"/>
      </defs>
      <g>
       <use style="stroke:#000000;stroke-width:0.5;" x="33.073051" xlink:href="#m3dc5921ec1" y="132.766206"/>
      </g>
     </g>
     <g id="line2d_39">
      <defs>
       <path d="M 0 0 
L -1.5 0 
" id="mae8d8b8e5a" style="stroke:#000000;stroke-width:0.5;"/>
      </defs>
      <g>
       <use style="stroke:#000000;stroke-width:0.5;" x="228.373051" xlink:href="#mae8d8b8e5a" y="132.766206"/>
      </g>
     </g>
    </g>
    <g id="ytick_5">
     <g id="line2d_40">
      <g>
       <use style="stroke:#000000;stroke-width:0.5;" x="33.073051" xlink:href="#m3dc5921ec1" y="115.104575"/>
      </g>
     </g>
     <g id="line2d_41">
      <g>
       <use style="stroke:#000000;stroke-width:0.5;" x="228.373051" xlink:href="#mae8d8b8e5a" y="115.104575"/>
      </g>
     </g>
    </g>
    <g id="ytick_6">
     <g id="line2d_42">
      <g>
       <use style="stroke:#000000;stroke-width:0.5;" x="33.073051" xlink:href="#m3dc5921ec1" y="97.442945"/>
      </g>
     </g>
     <g id="line2d_43">
      <g>
       <use style="stroke:#000000;stroke-width:0.5;" x="228.373051" xlink:href="#mae8d8b8e5a" y="97.442945"/>
      </g>
     </g>
    </g>
    <g id="ytick_7">
     <g id="line2d_44">
      <g>
       <use style="stroke:#000000;stroke-width:0.5;" x="33.073051" xlink:href="#m3dc5921ec1" y="62.119685"/>
      </g>
     </g>
     <g id="line2d_45">
      <g>
       <use style="stroke:#000000;stroke-width:0.5;" x="228.373051" xlink:href="#mae8d8b8e5a" y="62.119685"/>
      </g>
     </g>
    </g>
    <g id="ytick_8">
     <g id="line2d_46">
      <g>
       <use style="stroke:#000000;stroke-width:0.5;" x="33.073051" xlink:href="#m3dc5921ec1" y="44.458055"/>
      </g>
     </g>
     <g id="line2d_47">
      <g>
       <use style="stroke:#000000;stroke-width:0.5;" x="228.373051" xlink:href="#mae8d8b8e5a" y="44.458055"/>
      </g>
     </g>
    </g>
    <g id="ytick_9">
     <g id="line2d_48">
      <g>
       <use style="stroke:#000000;stroke-width:0.5;" x="33.073051" xlink:href="#m3dc5921ec1" y="26.796424"/>
      </g>
     </g>
     <g id="line2d_49">
      <g>
       <use style="stroke:#000000;stroke-width:0.5;" x="228.373051" xlink:href="#mae8d8b8e5a" y="26.796424"/>
      </g>
     </g>
    </g>
    <g id="text_6">
     <!-- Density -->
     <g transform="translate(14.669588 105.027217)rotate(-90)scale(0.16 -0.16)">
      <defs>
       <path d="M 5.203125 68 
L 5.203125 65.390625 
C 12.09375 65.390625 13.203125 65.390625 13.203125 60.90625 
L 13.203125 7.078125 
C 13.203125 2.59375 12.09375 2.59375 5.203125 2.59375 
L 5.203125 0 
L 37 0 
C 53.09375 0 66 14.734375 66 33.4375 
C 66 52.25 53.296875 68 37 68 
z
M 23.796875 2.59375 
C 19.796875 2.59375 19.59375 3.09375 19.59375 6.46875 
L 19.59375 61.5 
C 19.59375 64.890625 19.796875 65.390625 23.796875 65.390625 
L 35 65.390625 
C 43.296875 65.390625 58.59375 60.515625 58.59375 33.4375 
C 58.59375 19.40625 54.5 13.734375 52.59375 11.046875 
C 50.203125 7.96875 44.5 2.59375 35 2.59375 
z
" id="CMR17-68"/>
       <path d="M 38.09375 23.484375 
C 38.5 23.890625 38.5 24.09375 38.5 25.09375 
C 38.5 35.171875 33.09375 44 21.703125 44 
C 11.09375 44 2.703125 33.984375 2.703125 21.78125 
C 2.703125 8.65625 12.203125 -1 22.796875 -1 
C 34 -1 38.40625 9.671875 38.40625 11.796875 
C 38.40625 12.5 37.796875 12.5 37.59375 12.5 
C 36.90625 12.5 36.796875 12.296875 36.40625 11.078125 
C 34.203125 4.21875 28.703125 0.796875 23.5 0.796875 
C 19.203125 0.796875 14.90625 3.21875 12.203125 7.65625 
C 9.09375 12.796875 9.09375 18.75 9.09375 23.484375 
z
M 9.203125 25 
C 9.90625 39.234375 17.59375 42.390625 21.59375 42.390625 
C 28.40625 42.390625 33 36.0625 33.09375 25 
z
" id="CMR17-101"/>
       <path d="M 41.5 30.53125 
C 41.5 35.65625 40.5 44 28.703125 44 
C 20.796875 44 16.703125 37.875 15.203125 33.84375 
L 15.09375 33.84375 
L 15.09375 44 
L 3.296875 42.890625 
L 3.296875 40.28125 
C 9.203125 40.28125 10.09375 39.6875 10.09375 34.859375 
L 10.09375 6.921875 
C 10.09375 3.09375 9.703125 2.59375 3.296875 2.59375 
L 3.296875 0 
C 5.703125 0.1875 10.09375 0.1875 12.703125 0.1875 
C 15.296875 0.1875 19.796875 0.1875 22.203125 0 
L 22.203125 2.59375 
C 15.796875 2.59375 15.40625 3 15.40625 6.921875 
L 15.40625 26.21875 
C 15.40625 35.453125 21 42.390625 28 42.390625 
C 35.40625 42.390625 36.203125 35.765625 36.203125 30.9375 
L 36.203125 6.921875 
C 36.203125 3.09375 35.796875 2.59375 29.40625 2.59375 
L 29.40625 0 
C 31.796875 0.1875 36.203125 0.1875 38.796875 0.1875 
C 41.40625 0.1875 45.90625 0.1875 48.296875 0 
L 48.296875 2.59375 
C 41.90625 2.59375 41.5 3 41.5 6.921875 
z
" id="CMR17-110"/>
       <path d="M 30.90625 42 
C 30.90625 43.796875 30.796875 43.890625 30.203125 43.890625 
C 29.796875 43.890625 29.703125 43.796875 28.5 42.296875 
C 28.203125 41.890625 27.296875 40.890625 27 40.5 
C 23.796875 43.890625 19.296875 44 17.59375 44 
C 6.5 44 2.5 38.1875 2.5 32.390625 
C 2.5 23.390625 12.703125 21.296875 15.59375 20.6875 
C 21.90625 19.390625 24.09375 19 26.203125 17.1875 
C 27.5 16 29.703125 13.796875 29.703125 10.1875 
C 29.703125 6 27.296875 0.59375 18.09375 0.59375 
C 9.40625 0.59375 6.296875 7.1875 4.5 16 
C 4.203125 17.390625 4.203125 17.5 3.40625 17.5 
C 2.59375 17.5 2.5 17.390625 2.5 15.390625 
L 2.5 1 
C 2.5 -0.8125 2.59375 -0.90625 3.203125 -0.90625 
C 3.703125 -0.90625 3.796875 -0.8125 4.296875 0 
C 4.90625 0.890625 6.40625 3.296875 7 4.296875 
C 9 1.59375 12.5 -1 18.09375 -1 
C 28 -1 33.296875 4.390625 33.296875 12.1875 
C 33.296875 17.296875 30.59375 20 29.296875 21.1875 
C 26.296875 24.296875 22.796875 25 18.59375 25.796875 
C 13.09375 27 6.09375 28.390625 6.09375 34.5 
C 6.09375 37.09375 7.5 42.59375 17.59375 42.59375 
C 28.296875 42.59375 28.90625 32.59375 29.09375 29.390625 
C 29.203125 28.890625 29.703125 28.796875 30 28.796875 
C 30.90625 28.796875 30.90625 29.09375 30.90625 30.796875 
z
" id="CMR17-115"/>
       <path d="M 15.5 61.890625 
C 15.5 64.09375 13.703125 66 11.40625 66 
C 9.203125 66 7.296875 64.1875 7.296875 61.890625 
C 7.296875 59.6875 9.09375 57.796875 11.40625 57.796875 
C 13.59375 57.796875 15.5 59.59375 15.5 61.890625 
z
M 3.796875 42.890625 
L 3.796875 40.296875 
C 9.40625 40.296875 10.203125 39.6875 10.203125 34.859375 
L 10.203125 6.921875 
C 10.203125 3.09375 9.796875 2.59375 3.40625 2.59375 
L 3.40625 0 
C 5.796875 0.1875 10.09375 0.1875 12.59375 0.1875 
C 15 0.1875 19.09375 0.1875 21.40625 0 
L 21.40625 2.59375 
C 15.5 2.59375 15.296875 3.203125 15.296875 6.8125 
L 15.296875 44 
z
" id="CMR17-105"/>
       <path d="M 15.09375 40.390625 
L 29.09375 40.390625 
L 29.09375 43 
L 15.09375 43 
L 15.09375 62 
L 13.296875 62 
C 13.09375 51.4375 9.59375 42.1875 1.09375 41.984375 
L 1.09375 40.390625 
L 9.796875 40.390625 
L 9.796875 12.15625 
C 9.796875 10.234375 9.796875 -1 21.40625 -1 
C 27.296875 -1 30.703125 4.8125 30.703125 12.25 
L 30.703125 17.984375 
L 28.90625 17.984375 
L 28.90625 12.34375 
C 28.90625 5.421875 26.203125 0.796875 22 0.796875 
C 19.09375 0.796875 15.09375 2.796875 15.09375 11.953125 
z
" id="CMR17-116"/>
       <path d="M 39 34.109375 
C 41.5 40.296875 46 40.390625 47.40625 40.390625 
L 47.40625 43 
C 45.5 42.890625 43 42.796875 41.09375 42.796875 
C 39 42.796875 35.703125 42.796875 33.703125 43 
L 33.703125 40.390625 
C 37.5 40.09375 37.59375 37.25 37.59375 36.4375 
C 37.59375 35.4375 37.40625 34.921875 36.90625 33.71875 
L 26 6.390625 
L 14.09375 35.9375 
C 13.59375 37.15625 13.59375 37.859375 13.59375 37.96875 
C 13.59375 40.1875 15.90625 40.390625 18.296875 40.390625 
L 18.296875 43 
C 15.90625 42.796875 11.59375 42.796875 9.09375 42.796875 
C 6.40625 42.796875 3.203125 42.796875 1 43 
L 1 40.390625 
C 6.40625 40.390625 7 39.890625 8.296875 36.640625 
L 23.203125 -0.484375 
C 18.703125 -12.421875 16.09375 -19.40625 9.796875 -19.40625 
C 8.703125 -19.40625 6.203125 -19.109375 4.40625 -17.28125 
C 6.703125 -17.078125 7.703125 -15.65625 7.703125 -13.9375 
C 7.703125 -12.21875 6.5 -10.703125 4.5 -10.703125 
C 2.296875 -10.703125 1.203125 -12.21875 1.203125 -14.046875 
C 1.203125 -18.09375 5.296875 -21 9.796875 -21 
C 15.59375 -21 19.203125 -15.359375 21.203125 -10.296875 
z
" id="CMR17-121"/>
      </defs>
      <use transform="scale(0.996264)" xlink:href="#CMR17-68"/>
      <use transform="translate(70.393556 0)scale(0.996264)" xlink:href="#CMR17-101"/>
      <use transform="translate(110.879216 0)scale(0.996264)" xlink:href="#CMR17-110"/>
      <use transform="translate(161.774586 0)scale(0.996264)" xlink:href="#CMR17-115"/>
      <use transform="translate(197.575924 0)scale(0.996264)" xlink:href="#CMR17-105"/>
      <use transform="translate(222.446982 0)scale(0.996264)" xlink:href="#CMR17-116"/>
      <use transform="translate(255.125296 0)scale(0.996264)" xlink:href="#CMR17-121"/>
     </g>
    </g>
   </g>
   <g id="line2d_50">
    <path clip-path="url(#p469b2ee7de)" d="M 89.113479 150.427836 
L 89.113479 7.732836 
" style="fill:none;stroke:#0c5da5;stroke-dasharray:19.2,4.8,3,4.8;stroke-dashoffset:0;stroke-width:3;"/>
   </g>
   <g id="patch_3">
    <path d="M 33.073051 150.427836 
L 33.073051 7.732836 
" style="fill:none;stroke:#000000;stroke-linecap:square;stroke-linejoin:miter;stroke-width:0.5;"/>
   </g>
   <g id="patch_4">
    <path d="M 228.373051 150.427836 
L 228.373051 7.732836 
" style="fill:none;stroke:#000000;stroke-linecap:square;stroke-linejoin:miter;stroke-width:0.5;"/>
   </g>
   <g id="patch_5">
    <path d="M 33.073051 150.427836 
L 228.373051 150.427836 
" style="fill:none;stroke:#000000;stroke-linecap:square;stroke-linejoin:miter;stroke-width:0.5;"/>
   </g>
   <g id="patch_6">
    <path d="M 33.073051 7.732836 
L 228.373051 7.732836 
" style="fill:none;stroke:#000000;stroke-linecap:square;stroke-linejoin:miter;stroke-width:0.5;"/>
   </g>
  </g>
 </g>
 <defs>
  <clipPath id="p469b2ee7de">
   <rect height="142.695" width="195.3" x="33.073051" y="7.732836"/>
  </clipPath>
 </defs>
</svg>
