<?xml version="1.0" encoding="utf-8" standalone="no"?>
<!DOCTYPE svg PUBLIC "-//W3C//DTD SVG 1.1//EN"
  "http://www.w3.org/Graphics/SVG/1.1/DTD/svg11.dtd">
<!-- Created with matplotlib (https://matplotlib.org/) -->
<svg height="167.564064pt" version="1.1" viewBox="0 0 251.916574 167.564064" width="251.916574pt" xmlns="http://www.w3.org/2000/svg" xmlns:xlink="http://www.w3.org/1999/xlink">
 <metadata>
  <rdf:RDF xmlns:cc="http://creativecommons.org/ns#" xmlns:dc="http://purl.org/dc/elements/1.1/" xmlns:rdf="http://www.w3.org/1999/02/22-rdf-syntax-ns#">
   <cc:Work>
    <dc:type rdf:resource="http://purl.org/dc/dcmitype/StillImage"/>
    <dc:date>2021-01-28T16:51:59.285914</dc:date>
    <dc:format>image/svg+xml</dc:format>
    <dc:creator>
     <cc:Agent>
      <dc:title>Matplotlib v3.3.0, https://matplotlib.org/</dc:title>
     </cc:Agent>
    </dc:creator>
   </cc:Work>
  </rdf:RDF>
 </metadata>
 <defs>
  <style type="text/css">*{stroke-linecap:butt;stroke-linejoin:round;}</style>
 </defs>
 <g id="figure_1">
  <g id="patch_1">
   <path d="M 0 167.564064 
L 251.916574 167.564064 
L 251.916574 0 
L 0 0 
z
" style="fill:none;"/>
  </g>
  <g id="axes_1">
   <g id="patch_2">
    <path d="M 53.016574 146.295 
L 248.316574 146.295 
L 248.316574 3.6 
L 53.016574 3.6 
z
" style="fill:#ffffff;"/>
   </g>
   <g id="PolyCollection_1">
    <defs>
     <path d="M 61.893847 -21.310781 
L 61.893847 -21.269064 
L 62.778825 -21.269064 
L 63.663804 -21.269064 
L 64.548783 -21.269064 
L 65.433762 -21.269064 
L 66.318741 -21.269064 
L 67.203719 -21.269064 
L 68.088698 -21.269064 
L 68.973677 -21.269064 
L 69.858656 -21.269064 
L 70.743635 -21.269064 
L 71.628614 -21.269064 
L 72.513592 -21.269064 
L 73.398571 -21.269064 
L 74.28355 -21.269064 
L 75.168529 -21.269064 
L 76.053508 -21.269064 
L 76.938486 -21.269064 
L 77.823465 -21.269064 
L 78.708444 -21.269064 
L 79.593423 -21.269064 
L 80.478402 -21.269064 
L 81.363381 -21.269064 
L 82.248359 -21.269064 
L 83.133338 -21.269064 
L 84.018317 -21.269064 
L 84.903296 -21.269064 
L 85.788275 -21.269064 
L 86.673254 -21.269064 
L 87.558232 -21.269064 
L 88.443211 -21.269064 
L 89.32819 -21.269064 
L 90.213169 -21.269064 
L 91.098148 -21.269064 
L 91.983126 -21.269064 
L 92.868105 -21.269064 
L 93.753084 -21.269064 
L 94.638063 -21.269064 
L 95.523042 -21.269064 
L 96.408021 -21.269064 
L 97.292999 -21.269064 
L 98.177978 -21.269064 
L 99.062957 -21.269064 
L 99.947936 -21.269064 
L 100.832915 -21.269064 
L 101.717893 -21.269064 
L 102.602872 -21.269064 
L 103.487851 -21.269064 
L 104.37283 -21.269064 
L 105.257809 -21.269064 
L 106.142788 -21.269064 
L 107.027766 -21.269064 
L 107.912745 -21.269064 
L 108.797724 -21.269064 
L 109.682703 -21.269064 
L 110.567682 -21.269064 
L 111.45266 -21.269064 
L 112.337639 -21.269064 
L 113.222618 -21.269064 
L 114.107597 -21.269064 
L 114.992576 -21.269064 
L 115.877555 -21.269064 
L 116.762533 -21.269064 
L 117.647512 -21.269064 
L 118.532491 -21.269064 
L 119.41747 -21.269064 
L 120.302449 -21.269064 
L 121.187427 -21.269064 
L 122.072406 -21.269064 
L 122.957385 -21.269064 
L 123.842364 -21.269064 
L 124.727343 -21.269064 
L 125.612322 -21.269064 
L 126.4973 -21.269064 
L 127.382279 -21.269064 
L 128.267258 -21.269064 
L 129.152237 -21.269064 
L 130.037216 -21.269064 
L 130.922195 -21.269064 
L 131.807173 -21.269064 
L 132.692152 -21.269064 
L 133.577131 -21.269064 
L 134.46211 -21.269064 
L 135.347089 -21.269064 
L 136.232067 -21.269064 
L 137.117046 -21.269064 
L 138.002025 -21.269064 
L 138.887004 -21.269064 
L 139.771983 -21.269064 
L 140.656962 -21.269064 
L 141.54194 -21.269064 
L 142.426919 -21.269064 
L 143.311898 -21.269064 
L 144.196877 -21.269064 
L 145.081856 -21.269064 
L 145.966834 -21.269064 
L 146.851813 -21.269064 
L 147.736792 -21.269064 
L 148.621771 -21.269064 
L 149.50675 -21.269064 
L 150.391729 -21.269064 
L 151.276707 -21.269064 
L 152.161686 -21.269064 
L 153.046665 -21.269064 
L 153.931644 -21.269064 
L 154.816623 -21.269064 
L 155.701601 -21.269064 
L 156.58658 -21.269064 
L 157.471559 -21.269064 
L 158.356538 -21.269064 
L 159.241517 -21.269064 
L 160.126496 -21.269064 
L 161.011474 -21.269064 
L 161.896453 -21.269064 
L 162.781432 -21.269064 
L 163.666411 -21.269064 
L 164.55139 -21.269064 
L 165.436368 -21.269064 
L 166.321347 -21.269064 
L 167.206326 -21.269064 
L 168.091305 -21.269064 
L 168.976284 -21.269064 
L 169.861263 -21.269064 
L 170.746241 -21.269064 
L 171.63122 -21.269064 
L 172.516199 -21.269064 
L 173.401178 -21.269064 
L 174.286157 -21.269064 
L 175.171135 -21.269064 
L 176.056114 -21.269064 
L 176.941093 -21.269064 
L 177.826072 -21.269064 
L 178.711051 -21.269064 
L 179.59603 -21.269064 
L 180.481008 -21.269064 
L 181.365987 -21.269064 
L 182.250966 -21.269064 
L 183.135945 -21.269064 
L 184.020924 -21.269064 
L 184.905903 -21.269064 
L 185.790881 -21.269064 
L 186.67586 -21.269064 
L 187.560839 -21.269064 
L 188.445818 -21.269064 
L 189.330797 -21.269064 
L 190.215775 -21.269064 
L 191.100754 -21.269064 
L 191.985733 -21.269064 
L 192.870712 -21.269064 
L 193.755691 -21.269064 
L 194.64067 -21.269064 
L 195.525648 -21.269064 
L 196.410627 -21.269064 
L 197.295606 -21.269064 
L 198.180585 -21.269064 
L 199.065564 -21.269064 
L 199.950542 -21.269064 
L 200.835521 -21.269064 
L 201.7205 -21.269064 
L 202.605479 -21.269064 
L 203.490458 -21.269064 
L 204.375437 -21.269064 
L 205.260415 -21.269064 
L 206.145394 -21.269064 
L 207.030373 -21.269064 
L 207.915352 -21.269064 
L 208.800331 -21.269064 
L 209.685309 -21.269064 
L 210.570288 -21.269064 
L 211.455267 -21.269064 
L 212.340246 -21.269064 
L 213.225225 -21.269064 
L 214.110204 -21.269064 
L 214.995182 -21.269064 
L 215.880161 -21.269064 
L 216.76514 -21.269064 
L 217.650119 -21.269064 
L 218.535098 -21.269064 
L 219.420076 -21.269064 
L 220.305055 -21.269064 
L 221.190034 -21.269064 
L 222.075013 -21.269064 
L 222.959992 -21.269064 
L 223.844971 -21.269064 
L 224.729949 -21.269064 
L 225.614928 -21.269064 
L 226.499907 -21.269064 
L 227.384886 -21.269064 
L 228.269865 -21.269064 
L 229.154843 -21.269064 
L 230.039822 -21.269064 
L 230.924801 -21.269064 
L 231.80978 -21.269064 
L 232.694759 -21.269064 
L 233.579738 -21.269064 
L 234.464716 -21.269064 
L 235.349695 -21.269064 
L 236.234674 -21.269064 
L 237.119653 -21.269064 
L 238.004632 -21.269064 
L 238.004632 -21.302548 
L 238.004632 -21.302548 
L 237.119653 -21.313126 
L 236.234674 -21.326547 
L 235.349695 -21.343412 
L 234.464716 -21.364399 
L 233.579738 -21.390259 
L 232.694759 -21.421811 
L 231.80978 -21.459924 
L 230.924801 -21.505502 
L 230.039822 -21.559453 
L 229.154843 -21.622658 
L 228.269865 -21.695937 
L 227.384886 -21.779999 
L 226.499907 -21.875398 
L 225.614928 -21.982485 
L 224.729949 -22.101361 
L 223.844971 -22.231835 
L 222.959992 -22.37339 
L 222.075013 -22.52516 
L 221.190034 -22.685925 
L 220.305055 -22.854126 
L 219.420076 -23.027895 
L 218.535098 -23.205119 
L 217.650119 -23.383519 
L 216.76514 -23.560758 
L 215.880161 -23.734569 
L 214.995182 -23.902895 
L 214.110204 -24.06405 
L 213.225225 -24.216877 
L 212.340246 -24.360905 
L 211.455267 -24.496493 
L 210.570288 -24.624952 
L 209.685309 -24.748638 
L 208.800331 -24.871006 
L 207.915352 -24.996614 
L 207.030373 -25.131078 
L 206.145394 -25.280972 
L 205.260415 -25.453668 
L 204.375437 -25.657124 
L 203.490458 -25.899618 
L 202.605479 -26.189439 
L 201.7205 -26.534543 
L 200.835521 -26.942194 
L 199.950542 -27.418585 
L 199.065564 -27.968487 
L 198.180585 -28.594909 
L 197.295606 -29.29882 
L 196.410627 -30.078926 
L 195.525648 -30.931534 
L 194.64067 -31.85051 
L 193.755691 -32.827346 
L 192.870712 -33.851337 
L 191.985733 -34.909877 
L 191.100754 -35.988857 
L 190.215775 -37.073166 
L 189.330797 -38.147268 
L 188.445818 -39.195842 
L 187.560839 -40.204437 
L 186.67586 -41.16014 
L 185.790881 -42.052191 
L 184.905903 -42.872538 
L 184.020924 -43.616287 
L 183.135945 -44.282019 
L 182.250966 -44.871961 
L 181.365987 -45.391996 
L 180.481008 -45.851495 
L 179.59603 -46.263 
L 178.711051 -46.641745 
L 177.826072 -47.005056 
L 176.941093 -47.371659 
L 176.056114 -47.760915 
L 175.171135 -48.192046 
L 174.286157 -48.683366 
L 173.401178 -49.251578 
L 172.516199 -49.911155 
L 171.63122 -50.673843 
L 170.746241 -51.548306 
L 169.861263 -52.539921 
L 168.976284 -53.650738 
L 168.091305 -54.879592 
L 167.206326 -56.222349 
L 166.321347 -57.67229 
L 165.436368 -59.220576 
L 164.55139 -60.856794 
L 163.666411 -62.569534 
L 162.781432 -64.346977 
L 161.896453 -66.177467 
L 161.011474 -68.05003 
L 160.126496 -69.954835 
L 159.241517 -71.88357 
L 158.356538 -73.829721 
L 157.471559 -75.788756 
L 156.58658 -77.7582 
L 155.701601 -79.737613 
L 154.816623 -81.728463 
L 153.931644 -83.733913 
L 153.046665 -85.758516 
L 152.161686 -87.807844 
L 151.276707 -89.888042 
L 150.391729 -92.005344 
L 149.50675 -94.165545 
L 148.621771 -96.373457 
L 147.736792 -98.632372 
L 146.851813 -100.943548 
L 145.966834 -103.305746 
L 145.081856 -105.71484 
L 144.196877 -108.163538 
L 143.311898 -110.641224 
L 142.426919 -113.13394 
L 141.54194 -115.624548 
L 140.656962 -118.09304 
L 139.771983 -120.517026 
L 138.887004 -122.872374 
L 138.002025 -125.133983 
L 137.117046 -127.276646 
L 136.232067 -129.275983 
L 135.347089 -131.109375 
L 134.46211 -132.756861 
L 133.577131 -134.201943 
L 132.692152 -135.432251 
L 131.807173 -136.44003 
L 130.922195 -137.222408 
L 130.037216 -137.781447 
L 129.152237 -138.123938 
L 128.267258 -138.260988 
L 127.382279 -138.207379 
L 126.4973 -137.980774 
L 125.612322 -137.600774 
L 124.727343 -137.087907 
L 123.842364 -136.462589 
L 122.957385 -135.74411 
L 122.072406 -134.949707 
L 121.187427 -134.093756 
L 120.302449 -133.187134 
L 119.41747 -132.236768 
L 118.532491 -131.245393 
L 117.647512 -130.211525 
L 116.762533 -129.129644 
L 115.877555 -127.990562 
L 114.992576 -126.781971 
L 114.107597 -125.489121 
L 113.222618 -124.09561 
L 112.337639 -122.584236 
L 111.45266 -120.937881 
L 110.567682 -119.140382 
L 109.682703 -117.177366 
L 108.797724 -115.037 
L 107.912745 -112.710649 
L 107.027766 -110.193399 
L 106.142788 -107.484443 
L 105.257809 -104.587321 
L 104.37283 -101.50999 
L 103.487851 -98.264745 
L 102.602872 -94.867985 
L 101.717893 -91.339842 
L 100.832915 -87.703682 
L 99.947936 -83.985502 
L 99.062957 -80.213255 
L 98.177978 -76.416112 
L 97.292999 -72.623706 
L 96.408021 -68.865377 
L 95.523042 -65.169456 
L 94.638063 -61.562598 
L 93.753084 -58.069205 
L 92.868105 -54.710945 
L 91.983126 -51.506379 
L 91.098148 -48.470715 
L 90.213169 -45.615679 
L 89.32819 -42.949504 
L 88.443211 -40.477025 
L 87.558232 -38.199869 
L 86.673254 -36.116728 
L 85.788275 -34.223679 
L 84.903296 -32.514561 
L 84.018317 -30.981357 
L 83.133338 -29.614594 
L 82.248359 -28.403722 
L 81.363381 -27.337474 
L 80.478402 -26.404197 
L 79.593423 -25.592135 
L 78.708444 -24.889674 
L 77.823465 -24.285544 
L 76.938486 -23.768977 
L 76.053508 -23.329821 
L 75.168529 -22.958625 
L 74.28355 -22.646684 
L 73.398571 -22.386064 
L 72.513592 -22.1696 
L 71.628614 -21.99088 
L 70.743635 -21.844213 
L 69.858656 -21.724588 
L 68.973677 -21.627628 
L 68.088698 -21.549538 
L 67.203719 -21.487054 
L 66.318741 -21.437387 
L 65.433762 -21.398174 
L 64.548783 -21.367428 
L 63.663804 -21.343489 
L 62.778825 -21.324983 
L 61.893847 -21.310781 
z
" id="m765e7987b9" style="stroke:#008000;"/>
    </defs>
    <g clip-path="url(#p2e1db3d883)">
     <use style="fill:#008000;fill-opacity:0.25;stroke:#008000;" x="0" xlink:href="#m765e7987b9" y="167.564064"/>
    </g>
   </g>
   <g id="PolyCollection_2">
    <defs>
     <path d="M 64.591078 -21.319573 
L 64.591078 -21.269064 
L 65.469713 -21.269064 
L 66.348347 -21.269064 
L 67.226981 -21.269064 
L 68.105616 -21.269064 
L 68.98425 -21.269064 
L 69.862884 -21.269064 
L 70.741518 -21.269064 
L 71.620153 -21.269064 
L 72.498787 -21.269064 
L 73.377421 -21.269064 
L 74.256056 -21.269064 
L 75.13469 -21.269064 
L 76.013324 -21.269064 
L 76.891958 -21.269064 
L 77.770593 -21.269064 
L 78.649227 -21.269064 
L 79.527861 -21.269064 
L 80.406496 -21.269064 
L 81.28513 -21.269064 
L 82.163764 -21.269064 
L 83.042398 -21.269064 
L 83.921033 -21.269064 
L 84.799667 -21.269064 
L 85.678301 -21.269064 
L 86.556936 -21.269064 
L 87.43557 -21.269064 
L 88.314204 -21.269064 
L 89.192838 -21.269064 
L 90.071473 -21.269064 
L 90.950107 -21.269064 
L 91.828741 -21.269064 
L 92.707376 -21.269064 
L 93.58601 -21.269064 
L 94.464644 -21.269064 
L 95.343278 -21.269064 
L 96.221913 -21.269064 
L 97.100547 -21.269064 
L 97.979181 -21.269064 
L 98.857816 -21.269064 
L 99.73645 -21.269064 
L 100.615084 -21.269064 
L 101.493718 -21.269064 
L 102.372353 -21.269064 
L 103.250987 -21.269064 
L 104.129621 -21.269064 
L 105.008256 -21.269064 
L 105.88689 -21.269064 
L 106.765524 -21.269064 
L 107.644158 -21.269064 
L 108.522793 -21.269064 
L 109.401427 -21.269064 
L 110.280061 -21.269064 
L 111.158696 -21.269064 
L 112.03733 -21.269064 
L 112.915964 -21.269064 
L 113.794598 -21.269064 
L 114.673233 -21.269064 
L 115.551867 -21.269064 
L 116.430501 -21.269064 
L 117.309136 -21.269064 
L 118.18777 -21.269064 
L 119.066404 -21.269064 
L 119.945038 -21.269064 
L 120.823673 -21.269064 
L 121.702307 -21.269064 
L 122.580941 -21.269064 
L 123.459576 -21.269064 
L 124.33821 -21.269064 
L 125.216844 -21.269064 
L 126.095478 -21.269064 
L 126.974113 -21.269064 
L 127.852747 -21.269064 
L 128.731381 -21.269064 
L 129.610016 -21.269064 
L 130.48865 -21.269064 
L 131.367284 -21.269064 
L 132.245918 -21.269064 
L 133.124553 -21.269064 
L 134.003187 -21.269064 
L 134.881821 -21.269064 
L 135.760456 -21.269064 
L 136.63909 -21.269064 
L 137.517724 -21.269064 
L 138.396358 -21.269064 
L 139.274993 -21.269064 
L 140.153627 -21.269064 
L 141.032261 -21.269064 
L 141.910896 -21.269064 
L 142.78953 -21.269064 
L 143.668164 -21.269064 
L 144.546798 -21.269064 
L 145.425433 -21.269064 
L 146.304067 -21.269064 
L 147.182701 -21.269064 
L 148.061336 -21.269064 
L 148.93997 -21.269064 
L 149.818604 -21.269064 
L 150.697238 -21.269064 
L 151.575873 -21.269064 
L 152.454507 -21.269064 
L 153.333141 -21.269064 
L 154.211776 -21.269064 
L 155.09041 -21.269064 
L 155.969044 -21.269064 
L 156.847678 -21.269064 
L 157.726313 -21.269064 
L 158.604947 -21.269064 
L 159.483581 -21.269064 
L 160.362215 -21.269064 
L 161.24085 -21.269064 
L 162.119484 -21.269064 
L 162.998118 -21.269064 
L 163.876753 -21.269064 
L 164.755387 -21.269064 
L 165.634021 -21.269064 
L 166.512655 -21.269064 
L 167.39129 -21.269064 
L 168.269924 -21.269064 
L 169.148558 -21.269064 
L 170.027193 -21.269064 
L 170.905827 -21.269064 
L 171.784461 -21.269064 
L 172.663095 -21.269064 
L 173.54173 -21.269064 
L 174.420364 -21.269064 
L 175.298998 -21.269064 
L 176.177633 -21.269064 
L 177.056267 -21.269064 
L 177.934901 -21.269064 
L 178.813535 -21.269064 
L 179.69217 -21.269064 
L 180.570804 -21.269064 
L 181.449438 -21.269064 
L 182.328073 -21.269064 
L 183.206707 -21.269064 
L 184.085341 -21.269064 
L 184.963975 -21.269064 
L 185.84261 -21.269064 
L 186.721244 -21.269064 
L 187.599878 -21.269064 
L 188.478513 -21.269064 
L 189.357147 -21.269064 
L 190.235781 -21.269064 
L 191.114415 -21.269064 
L 191.99305 -21.269064 
L 192.871684 -21.269064 
L 193.750318 -21.269064 
L 194.628953 -21.269064 
L 195.507587 -21.269064 
L 196.386221 -21.269064 
L 197.264855 -21.269064 
L 198.14349 -21.269064 
L 199.022124 -21.269064 
L 199.900758 -21.269064 
L 200.779393 -21.269064 
L 201.658027 -21.269064 
L 202.536661 -21.269064 
L 203.415295 -21.269064 
L 204.29393 -21.269064 
L 205.172564 -21.269064 
L 206.051198 -21.269064 
L 206.929833 -21.269064 
L 207.808467 -21.269064 
L 208.687101 -21.269064 
L 209.565735 -21.269064 
L 210.44437 -21.269064 
L 211.323004 -21.269064 
L 212.201638 -21.269064 
L 213.080273 -21.269064 
L 213.958907 -21.269064 
L 214.837541 -21.269064 
L 215.716175 -21.269064 
L 216.59481 -21.269064 
L 217.473444 -21.269064 
L 218.352078 -21.269064 
L 219.230713 -21.269064 
L 220.109347 -21.269064 
L 220.987981 -21.269064 
L 221.866615 -21.269064 
L 222.74525 -21.269064 
L 223.623884 -21.269064 
L 224.502518 -21.269064 
L 225.381153 -21.269064 
L 226.259787 -21.269064 
L 227.138421 -21.269064 
L 228.017055 -21.269064 
L 228.89569 -21.269064 
L 229.774324 -21.269064 
L 230.652958 -21.269064 
L 231.531593 -21.269064 
L 232.410227 -21.269064 
L 233.288861 -21.269064 
L 234.167495 -21.269064 
L 235.04613 -21.269064 
L 235.924764 -21.269064 
L 236.803398 -21.269064 
L 237.682033 -21.269064 
L 238.560667 -21.269064 
L 239.439301 -21.269064 
L 239.439301 -21.304522 
L 239.439301 -21.304522 
L 238.560667 -21.316371 
L 237.682033 -21.331584 
L 236.803398 -21.350907 
L 235.924764 -21.37519 
L 235.04613 -21.405381 
L 234.167495 -21.442511 
L 233.288861 -21.487677 
L 232.410227 -21.542015 
L 231.531593 -21.606663 
L 230.652958 -21.682715 
L 229.774324 -21.771171 
L 228.89569 -21.872872 
L 228.017055 -21.988444 
L 227.138421 -22.118233 
L 226.259787 -22.262243 
L 225.381153 -22.420091 
L 224.502518 -22.590967 
L 223.623884 -22.773616 
L 222.74525 -22.966342 
L 221.866615 -23.167036 
L 220.987981 -23.373229 
L 220.109347 -23.582177 
L 219.230713 -23.790962 
L 218.352078 -23.99662 
L 217.473444 -24.196278 
L 216.59481 -24.387296 
L 215.716175 -24.567409 
L 214.837541 -24.734849 
L 213.958907 -24.888459 
L 213.080273 -25.027757 
L 212.201638 -25.152985 
L 211.323004 -25.265108 
L 210.44437 -25.365777 
L 209.565735 -25.457258 
L 208.687101 -25.542331 
L 207.808467 -25.624167 
L 206.929833 -25.706194 
L 206.051198 -25.791961 
L 205.172564 -25.885017 
L 204.29393 -25.988797 
L 203.415295 -26.106549 
L 202.536661 -26.241276 
L 201.658027 -26.395717 
L 200.779393 -26.572355 
L 199.900758 -26.773443 
L 199.022124 -27.001051 
L 198.14349 -27.257121 
L 197.264855 -27.543512 
L 196.386221 -27.862041 
L 195.507587 -28.214512 
L 194.628953 -28.602713 
L 193.750318 -29.028399 
L 192.871684 -29.493262 
L 191.99305 -29.998874 
L 191.114415 -30.546632 
L 190.235781 -31.137708 
L 189.357147 -31.773004 
L 188.478513 -32.453128 
L 187.599878 -33.1784 
L 186.721244 -33.948891 
L 185.84261 -34.76448 
L 184.963975 -35.624959 
L 184.085341 -36.530142 
L 183.206707 -37.479993 
L 182.328073 -38.474757 
L 181.449438 -39.51507 
L 180.570804 -40.602043 
L 179.69217 -41.737305 
L 178.813535 -42.922991 
L 177.934901 -44.161674 
L 177.056267 -45.456226 
L 176.177633 -46.809625 
L 175.298998 -48.224701 
L 174.420364 -49.703847 
L 173.54173 -51.248696 
L 172.663095 -52.8598 
L 171.784461 -54.536332 
L 170.905827 -56.275824 
L 170.027193 -58.073993 
L 169.148558 -59.924639 
L 168.269924 -61.819677 
L 167.39129 -63.749274 
L 166.512655 -65.702126 
L 165.634021 -67.66585 
L 164.755387 -69.627484 
L 163.876753 -71.574073 
L 162.998118 -73.493295 
L 162.119484 -75.374108 
L 161.24085 -77.207351 
L 160.362215 -78.986275 
L 159.483581 -80.706946 
L 158.604947 -82.368493 
L 157.726313 -83.97318 
L 156.847678 -85.526276 
L 155.969044 -87.035739 
L 155.09041 -88.511722 
L 154.211776 -89.965942 
L 153.333141 -91.410949 
L 152.454507 -92.859346 
L 151.575873 -94.323031 
L 150.697238 -95.812504 
L 149.818604 -97.336302 
L 148.93997 -98.900597 
L 148.061336 -100.508993 
L 147.182701 -102.162528 
L 146.304067 -103.85989 
L 145.425433 -105.597805 
L 144.546798 -107.371586 
L 143.668164 -109.175773 
L 142.78953 -111.004826 
L 141.910896 -112.853795 
L 141.032261 -114.718923 
L 140.153627 -116.598114 
L 139.274993 -118.491233 
L 138.396358 -120.400186 
L 137.517724 -122.328785 
L 136.63909 -124.282362 
L 135.760456 -126.26717 
L 134.881821 -128.289575 
L 134.003187 -130.355091 
L 133.124553 -132.467299 
L 132.245918 -134.626721 
L 131.367284 -136.829708 
L 130.48865 -139.067421 
L 129.610016 -141.324979 
L 128.731381 -143.580838 
L 127.852747 -145.806469 
L 126.974113 -147.966379 
L 126.095478 -150.018524 
L 125.216844 -151.915111 
L 124.33821 -153.603799 
L 123.459576 -155.029259 
L 122.580941 -156.13505 
L 121.702307 -156.865721 
L 120.823673 -157.169064 
L 119.945038 -156.998394 
L 119.066404 -156.314733 
L 118.18777 -155.088803 
L 117.309136 -153.302682 
L 116.430501 -150.951041 
L 115.551867 -148.041877 
L 114.673233 -144.59669 
L 113.794598 -140.650067 
L 112.915964 -136.248701 
L 112.03733 -131.449883 
L 111.158696 -126.319533 
L 110.280061 -120.92988 
L 109.401427 -115.356915 
L 108.522793 -109.677739 
L 107.644158 -103.967961 
L 106.765524 -98.299259 
L 105.88689 -92.737237 
L 105.008256 -87.339658 
L 104.129621 -82.155145 
L 103.250987 -77.222363 
L 102.372353 -72.569705 
L 101.493718 -68.215462 
L 100.615084 -64.168408 
L 99.73645 -60.428758 
L 98.857816 -56.989383 
L 97.979181 -53.837213 
L 97.100547 -50.954718 
L 96.221913 -48.321382 
L 95.343278 -45.915087 
L 94.464644 -43.713353 
L 93.58601 -41.694377 
L 92.707376 -39.837841 
L 91.828741 -38.125496 
L 90.950107 -36.5415 
L 90.071473 -35.072561 
L 89.192838 -33.707883 
L 88.314204 -32.438982 
L 87.43557 -31.259383 
L 86.556936 -30.164263 
L 85.678301 -29.150056 
L 84.799667 -28.214066 
L 83.921033 -27.354107 
L 83.042398 -26.568191 
L 82.163764 -25.854281 
L 81.28513 -25.210097 
L 80.406496 -24.633006 
L 79.527861 -24.119956 
L 78.649227 -23.667474 
L 77.770593 -23.271703 
L 76.891958 -22.928472 
L 76.013324 -22.633386 
L 75.13469 -22.381927 
L 74.256056 -22.16956 
L 73.377421 -21.991827 
L 72.498787 -21.844433 
L 71.620153 -21.723318 
L 70.741518 -21.624714 
L 69.862884 -21.54518 
L 68.98425 -21.481621 
L 68.105616 -21.431302 
L 67.226981 -21.391837 
L 66.348347 -21.361173 
L 65.469713 -21.33757 
L 64.591078 -21.319573 
z
" id="mc82d2f25a9" style="stroke:#ffa500;"/>
    </defs>
    <g clip-path="url(#p2e1db3d883)">
     <use style="fill:#ffa500;fill-opacity:0.25;stroke:#ffa500;" x="0" xlink:href="#mc82d2f25a9" y="167.564064"/>
    </g>
   </g>
   <g id="matplotlib.axis_1">
    <g id="xtick_1">
     <g id="line2d_1">
      <path clip-path="url(#p2e1db3d883)" d="M 132.181869 146.295 
L 132.181869 3.6 
" style="fill:none;stroke:#000000;stroke-dasharray:0.5,0.825;stroke-dashoffset:0;stroke-opacity:0.5;stroke-width:0.5;"/>
     </g>
     <g id="line2d_2">
      <defs>
       <path d="M 0 0 
L 0 -3 
" id="ma46fb52ba4" style="stroke:#000000;stroke-width:0.5;"/>
      </defs>
      <g>
       <use style="stroke:#000000;stroke-width:0.5;" x="132.181869" xlink:href="#ma46fb52ba4" y="146.295"/>
      </g>
     </g>
     <g id="line2d_3">
      <defs>
       <path d="M 0 0 
L 0 3 
" id="mad2a8d2f1c" style="stroke:#000000;stroke-width:0.5;"/>
      </defs>
      <g>
       <use style="stroke:#000000;stroke-width:0.5;" x="132.181869" xlink:href="#mad2a8d2f1c" y="3.6"/>
      </g>
     </g>
     <g id="text_1">
      <!-- $\mathdefault{50}$ -->
      <g transform="translate(124.377882 160.864588)scale(0.16 -0.16)">
       <defs>
        <path d="M 11.40625 58.59375 
C 12.40625 58.1875 16.5 56.890625 20.703125 56.890625 
C 30 56.890625 35.09375 61.890625 38 64.6875 
C 38 65.484375 38 66 37.40625 66 
C 37.296875 66 37.09375 66 36.296875 65.59375 
C 32.796875 64.09375 28.703125 63 23.703125 63 
C 20.703125 63 16.203125 63.359375 11.296875 65.484375 
C 10.203125 66 10 66 9.90625 66 
C 9.40625 66 9.296875 65.890625 9.296875 63.90625 
L 9.296875 34.859375 
C 9.296875 33.015625 9.296875 32.5 10.296875 32.5 
C 10.796875 32.5 11 32.703125 11.5 33.421875 
C 14.703125 38.046875 19.09375 40 24.09375 40 
C 27.59375 40 35.09375 37.734375 35.09375 20.203125 
C 35.09375 16.984375 35.09375 11.1875 32.09375 6.59375 
C 29.59375 2.484375 25.703125 0.390625 21.40625 0.390625 
C 14.796875 0.390625 8.09375 4.984375 6.296875 12.6875 
C 6.703125 12.59375 7.5 12.390625 7.90625 12.390625 
C 9.203125 12.390625 11.703125 13.09375 11.703125 16.1875 
C 11.703125 18.890625 9.796875 20 7.90625 20 
C 5.59375 20 4.09375 18.59375 4.09375 15.796875 
C 4.09375 7.09375 11 -2 21.59375 -2 
C 31.90625 -2 41.703125 6.890625 41.703125 19.796875 
C 41.703125 32.09375 33.90625 41.59375 24.203125 41.59375 
C 19.09375 41.59375 14.796875 39.6875 11.40625 36 
z
" id="CMR17-53"/>
        <path d="M 42 31.84375 
C 42 37.96875 41.90625 48.421875 37.703125 56.453125 
C 34 63.484375 28.09375 66 22.90625 66 
C 18.09375 66 12 63.78125 8.203125 56.5625 
C 4.203125 49.015625 3.796875 39.671875 3.796875 31.84375 
C 3.796875 26.109375 3.90625 17.375 7 9.734375 
C 11.296875 -0.609375 19 -2 22.90625 -2 
C 27.5 -2 34.5 -0.109375 38.59375 9.4375 
C 41.59375 16.375 42 24.5 42 31.84375 
z
M 22.90625 -0.40625 
C 16.5 -0.40625 12.703125 5.125 11.296875 12.75 
C 10.203125 18.6875 10.203125 27.328125 10.203125 32.953125 
C 10.203125 40.6875 10.203125 47.109375 11.5 53.234375 
C 13.40625 61.78125 19 64.390625 22.90625 64.390625 
C 27 64.390625 32.296875 61.671875 34.203125 53.4375 
C 35.5 47.71875 35.59375 40.984375 35.59375 32.953125 
C 35.59375 26.421875 35.59375 18.375 34.40625 12.453125 
C 32.296875 1.5 26.40625 -0.40625 22.90625 -0.40625 
z
" id="CMR17-48"/>
       </defs>
       <use transform="scale(0.996264)" xlink:href="#CMR17-53"/>
       <use transform="translate(45.690477 0)scale(0.996264)" xlink:href="#CMR17-48"/>
      </g>
     </g>
    </g>
    <g id="xtick_2">
     <g id="line2d_4">
      <path clip-path="url(#p2e1db3d883)" d="M 226.204717 146.295 
L 226.204717 3.6 
" style="fill:none;stroke:#000000;stroke-dasharray:0.5,0.825;stroke-dashoffset:0;stroke-opacity:0.5;stroke-width:0.5;"/>
     </g>
     <g id="line2d_5">
      <g>
       <use style="stroke:#000000;stroke-width:0.5;" x="226.204717" xlink:href="#ma46fb52ba4" y="146.295"/>
      </g>
     </g>
     <g id="line2d_6">
      <g>
       <use style="stroke:#000000;stroke-width:0.5;" x="226.204717" xlink:href="#mad2a8d2f1c" y="3.6"/>
      </g>
     </g>
     <g id="text_2">
      <!-- $\mathdefault{100}$ -->
      <g transform="translate(214.498737 160.864588)scale(0.16 -0.16)">
       <defs>
        <path d="M 26.59375 63.796875 
C 26.59375 65.890625 26.5 66 25.09375 66 
C 21.203125 61.359375 15.296875 59.890625 9.703125 59.6875 
C 9.40625 59.6875 8.90625 59.6875 8.796875 59.5 
C 8.703125 59.296875 8.703125 59.09375 8.703125 57 
C 11.796875 57 17 57.59375 21 59.984375 
L 21 7.296875 
C 21 3.796875 20.796875 2.59375 12.203125 2.59375 
L 9.203125 2.59375 
L 9.203125 0 
C 14 0.09375 19 0.1875 23.796875 0.1875 
C 28.59375 0.1875 33.59375 0.09375 38.40625 0 
L 38.40625 2.59375 
L 35.40625 2.59375 
C 26.796875 2.59375 26.59375 3.6875 26.59375 7.296875 
z
" id="CMR17-49"/>
       </defs>
       <use transform="scale(0.996264)" xlink:href="#CMR17-49"/>
       <use transform="translate(45.690477 0)scale(0.996264)" xlink:href="#CMR17-48"/>
       <use transform="translate(91.380954 0)scale(0.996264)" xlink:href="#CMR17-48"/>
      </g>
     </g>
    </g>
    <g id="xtick_3">
     <g id="line2d_7">
      <defs>
       <path d="M 0 0 
L 0 -1.5 
" id="m98eaff496f" style="stroke:#000000;stroke-width:0.5;"/>
      </defs>
      <g>
       <use style="stroke:#000000;stroke-width:0.5;" x="56.96359" xlink:href="#m98eaff496f" y="146.295"/>
      </g>
     </g>
     <g id="line2d_8">
      <defs>
       <path d="M 0 0 
L 0 1.5 
" id="m304adf03a5" style="stroke:#000000;stroke-width:0.5;"/>
      </defs>
      <g>
       <use style="stroke:#000000;stroke-width:0.5;" x="56.96359" xlink:href="#m304adf03a5" y="3.6"/>
      </g>
     </g>
    </g>
    <g id="xtick_4">
     <g id="line2d_9">
      <g>
       <use style="stroke:#000000;stroke-width:0.5;" x="75.768159" xlink:href="#m98eaff496f" y="146.295"/>
      </g>
     </g>
     <g id="line2d_10">
      <g>
       <use style="stroke:#000000;stroke-width:0.5;" x="75.768159" xlink:href="#m304adf03a5" y="3.6"/>
      </g>
     </g>
    </g>
    <g id="xtick_5">
     <g id="line2d_11">
      <g>
       <use style="stroke:#000000;stroke-width:0.5;" x="94.572729" xlink:href="#m98eaff496f" y="146.295"/>
      </g>
     </g>
     <g id="line2d_12">
      <g>
       <use style="stroke:#000000;stroke-width:0.5;" x="94.572729" xlink:href="#m304adf03a5" y="3.6"/>
      </g>
     </g>
    </g>
    <g id="xtick_6">
     <g id="line2d_13">
      <g>
       <use style="stroke:#000000;stroke-width:0.5;" x="113.377299" xlink:href="#m98eaff496f" y="146.295"/>
      </g>
     </g>
     <g id="line2d_14">
      <g>
       <use style="stroke:#000000;stroke-width:0.5;" x="113.377299" xlink:href="#m304adf03a5" y="3.6"/>
      </g>
     </g>
    </g>
    <g id="xtick_7">
     <g id="line2d_15">
      <g>
       <use style="stroke:#000000;stroke-width:0.5;" x="150.986438" xlink:href="#m98eaff496f" y="146.295"/>
      </g>
     </g>
     <g id="line2d_16">
      <g>
       <use style="stroke:#000000;stroke-width:0.5;" x="150.986438" xlink:href="#m304adf03a5" y="3.6"/>
      </g>
     </g>
    </g>
    <g id="xtick_8">
     <g id="line2d_17">
      <g>
       <use style="stroke:#000000;stroke-width:0.5;" x="169.791008" xlink:href="#m98eaff496f" y="146.295"/>
      </g>
     </g>
     <g id="line2d_18">
      <g>
       <use style="stroke:#000000;stroke-width:0.5;" x="169.791008" xlink:href="#m304adf03a5" y="3.6"/>
      </g>
     </g>
    </g>
    <g id="xtick_9">
     <g id="line2d_19">
      <g>
       <use style="stroke:#000000;stroke-width:0.5;" x="188.595578" xlink:href="#m98eaff496f" y="146.295"/>
      </g>
     </g>
     <g id="line2d_20">
      <g>
       <use style="stroke:#000000;stroke-width:0.5;" x="188.595578" xlink:href="#m304adf03a5" y="3.6"/>
      </g>
     </g>
    </g>
    <g id="xtick_10">
     <g id="line2d_21">
      <g>
       <use style="stroke:#000000;stroke-width:0.5;" x="207.400148" xlink:href="#m98eaff496f" y="146.295"/>
      </g>
     </g>
     <g id="line2d_22">
      <g>
       <use style="stroke:#000000;stroke-width:0.5;" x="207.400148" xlink:href="#m304adf03a5" y="3.6"/>
      </g>
     </g>
    </g>
    <g id="xtick_11">
     <g id="line2d_23">
      <g>
       <use style="stroke:#000000;stroke-width:0.5;" x="245.009287" xlink:href="#m98eaff496f" y="146.295"/>
      </g>
     </g>
     <g id="line2d_24">
      <g>
       <use style="stroke:#000000;stroke-width:0.5;" x="245.009287" xlink:href="#m304adf03a5" y="3.6"/>
      </g>
     </g>
    </g>
   </g>
   <g id="matplotlib.axis_2">
    <g id="ytick_1">
     <g id="line2d_25">
      <path clip-path="url(#p2e1db3d883)" d="M 53.016574 146.295 
L 248.316574 146.295 
" style="fill:none;stroke:#000000;stroke-dasharray:0.5,0.825;stroke-dashoffset:0;stroke-opacity:0.5;stroke-width:0.5;"/>
     </g>
     <g id="line2d_26">
      <defs>
       <path d="M 0 0 
L 3 0 
" id="mb21356d19c" style="stroke:#000000;stroke-width:0.5;"/>
      </defs>
      <g>
       <use style="stroke:#000000;stroke-width:0.5;" x="53.016574" xlink:href="#mb21356d19c" y="146.295"/>
      </g>
     </g>
     <g id="line2d_27">
      <defs>
       <path d="M 0 0 
L -3 0 
" id="mf398a210cd" style="stroke:#000000;stroke-width:0.5;"/>
      </defs>
      <g>
       <use style="stroke:#000000;stroke-width:0.5;" x="248.316574" xlink:href="#mf398a210cd" y="146.295"/>
      </g>
     </g>
     <g id="text_3">
      <!-- $\mathdefault{0.00}$ -->
      <g transform="translate(21.769064 151.829794)scale(0.16 -0.16)">
       <defs>
        <path d="M 18.40625 4.796875 
C 18.40625 7.6875 16 9.6875 13.59375 9.6875 
C 10.703125 9.6875 8.703125 7.296875 8.703125 4.890625 
C 8.703125 2 11.09375 0 13.5 0 
C 16.40625 0 18.40625 2.390625 18.40625 4.796875 
z
" id="CMMI12-58"/>
       </defs>
       <use transform="scale(0.996264)" xlink:href="#CMR17-48"/>
       <use transform="translate(45.690477 0)scale(0.996264)" xlink:href="#CMMI12-58"/>
       <use transform="translate(72.787654 0)scale(0.996264)" xlink:href="#CMR17-48"/>
       <use transform="translate(118.478131 0)scale(0.996264)" xlink:href="#CMR17-48"/>
      </g>
     </g>
    </g>
    <g id="ytick_2">
     <g id="line2d_28">
      <path clip-path="url(#p2e1db3d883)" d="M 53.016574 108.041731 
L 248.316574 108.041731 
" style="fill:none;stroke:#000000;stroke-dasharray:0.5,0.825;stroke-dashoffset:0;stroke-opacity:0.5;stroke-width:0.5;"/>
     </g>
     <g id="line2d_29">
      <g>
       <use style="stroke:#000000;stroke-width:0.5;" x="53.016574" xlink:href="#mb21356d19c" y="108.041731"/>
      </g>
     </g>
     <g id="line2d_30">
      <g>
       <use style="stroke:#000000;stroke-width:0.5;" x="248.316574" xlink:href="#mf398a210cd" y="108.041731"/>
      </g>
     </g>
     <g id="text_4">
      <!-- $\mathdefault{0.01}$ -->
      <g transform="translate(21.769064 113.576525)scale(0.16 -0.16)">
       <use transform="scale(0.996264)" xlink:href="#CMR17-48"/>
       <use transform="translate(45.690477 0)scale(0.996264)" xlink:href="#CMMI12-58"/>
       <use transform="translate(72.787654 0)scale(0.996264)" xlink:href="#CMR17-48"/>
       <use transform="translate(118.478131 0)scale(0.996264)" xlink:href="#CMR17-49"/>
      </g>
     </g>
    </g>
    <g id="ytick_3">
     <g id="line2d_31">
      <path clip-path="url(#p2e1db3d883)" d="M 53.016574 69.788461 
L 248.316574 69.788461 
" style="fill:none;stroke:#000000;stroke-dasharray:0.5,0.825;stroke-dashoffset:0;stroke-opacity:0.5;stroke-width:0.5;"/>
     </g>
     <g id="line2d_32">
      <g>
       <use style="stroke:#000000;stroke-width:0.5;" x="53.016574" xlink:href="#mb21356d19c" y="69.788461"/>
      </g>
     </g>
     <g id="line2d_33">
      <g>
       <use style="stroke:#000000;stroke-width:0.5;" x="248.316574" xlink:href="#mf398a210cd" y="69.788461"/>
      </g>
     </g>
     <g id="text_5">
      <!-- $\mathdefault{0.02}$ -->
      <g transform="translate(21.769064 75.323255)scale(0.16 -0.16)">
       <defs>
        <path d="M 41.703125 15.46875 
L 39.90625 15.46875 
C 38.90625 8.390625 38.09375 7.1875 37.703125 6.59375 
C 37.203125 5.796875 30 5.796875 28.59375 5.796875 
L 9.40625 5.796875 
C 13 9.6875 20 16.765625 28.5 24.9375 
C 34.59375 30.71875 41.703125 37.5 41.703125 47.390625 
C 41.703125 59.1875 32.296875 66 21.796875 66 
C 10.796875 66 4.09375 56.296875 4.09375 47.296875 
C 4.09375 43.390625 7 42.890625 8.203125 42.890625 
C 9.203125 42.890625 12.203125 43.484375 12.203125 46.984375 
C 12.203125 50.09375 9.59375 51 8.203125 51 
C 7.59375 51 7 50.890625 6.59375 50.6875 
C 8.5 59.1875 14.296875 63.390625 20.40625 63.390625 
C 29.09375 63.390625 34.796875 56.5 34.796875 47.390625 
C 34.796875 38.703125 29.703125 31.21875 24 24.734375 
L 4.09375 2.296875 
L 4.09375 0 
L 39.296875 0 
z
" id="CMR17-50"/>
       </defs>
       <use transform="scale(0.996264)" xlink:href="#CMR17-48"/>
       <use transform="translate(45.690477 0)scale(0.996264)" xlink:href="#CMMI12-58"/>
       <use transform="translate(72.787654 0)scale(0.996264)" xlink:href="#CMR17-48"/>
       <use transform="translate(118.478131 0)scale(0.996264)" xlink:href="#CMR17-50"/>
      </g>
     </g>
    </g>
    <g id="ytick_4">
     <g id="line2d_34">
      <path clip-path="url(#p2e1db3d883)" d="M 53.016574 31.535192 
L 248.316574 31.535192 
" style="fill:none;stroke:#000000;stroke-dasharray:0.5,0.825;stroke-dashoffset:0;stroke-opacity:0.5;stroke-width:0.5;"/>
     </g>
     <g id="line2d_35">
      <g>
       <use style="stroke:#000000;stroke-width:0.5;" x="53.016574" xlink:href="#mb21356d19c" y="31.535192"/>
      </g>
     </g>
     <g id="line2d_36">
      <g>
       <use style="stroke:#000000;stroke-width:0.5;" x="248.316574" xlink:href="#mf398a210cd" y="31.535192"/>
      </g>
     </g>
     <g id="text_6">
      <!-- $\mathdefault{0.03}$ -->
      <g transform="translate(21.769064 37.069986)scale(0.16 -0.16)">
       <defs>
        <path d="M 22.09375 34 
C 31 34 34.90625 26.140625 34.90625 17.09375 
C 34.90625 5.03125 28.5 0.390625 22.703125 0.390625 
C 17.40625 0.390625 8.796875 3.015625 6.09375 10.796875 
C 6.59375 10.59375 7.09375 10.59375 7.59375 10.59375 
C 10 10.59375 11.796875 12.1875 11.796875 14.796875 
C 11.796875 17.6875 9.59375 19 7.59375 19 
C 5.90625 19 3.296875 18.1875 3.296875 14.484375 
C 3.296875 5.234375 12.296875 -2 22.90625 -2 
C 34 -2 42.5 6.75 42.5 16.984375 
C 42.5 26.84375 34.5 34 25 35.09375 
C 32.59375 36.671875 39.90625 43.375 39.90625 52.390625 
C 39.90625 60.25 32 66 23 66 
C 13.90625 66 5.90625 60.34375 5.90625 52.296875 
C 5.90625 48.796875 8.5 48.1875 9.796875 48.1875 
C 11.90625 48.1875 13.703125 49.484375 13.703125 52.09375 
C 13.703125 54.6875 11.90625 56 9.796875 56 
C 9.40625 56 8.90625 56 8.5 55.796875 
C 11.40625 62.484375 19.296875 63.6875 22.796875 63.6875 
C 26.296875 63.6875 32.90625 61.96875 32.90625 52.296875 
C 32.90625 49.484375 32.5 44.546875 29.09375 40.21875 
C 26.09375 36.390625 22.703125 36.1875 19.40625 35.890625 
C 18.90625 35.890625 16.59375 35.6875 16.203125 35.6875 
C 15.5 35.59375 15.09375 35.5 15.09375 34.796875 
C 15.09375 34.09375 15.203125 34 17.203125 34 
z
" id="CMR17-51"/>
       </defs>
       <use transform="scale(0.996264)" xlink:href="#CMR17-48"/>
       <use transform="translate(45.690477 0)scale(0.996264)" xlink:href="#CMMI12-58"/>
       <use transform="translate(72.787654 0)scale(0.996264)" xlink:href="#CMR17-48"/>
       <use transform="translate(118.478131 0)scale(0.996264)" xlink:href="#CMR17-51"/>
      </g>
     </g>
    </g>
    <g id="ytick_5">
     <g id="line2d_37">
      <defs>
       <path d="M 0 0 
L 1.5 0 
" id="m3c908ec2ba" style="stroke:#000000;stroke-width:0.5;"/>
      </defs>
      <g>
       <use style="stroke:#000000;stroke-width:0.5;" x="53.016574" xlink:href="#m3c908ec2ba" y="138.644346"/>
      </g>
     </g>
     <g id="line2d_38">
      <defs>
       <path d="M 0 0 
L -1.5 0 
" id="mb5410595d2" style="stroke:#000000;stroke-width:0.5;"/>
      </defs>
      <g>
       <use style="stroke:#000000;stroke-width:0.5;" x="248.316574" xlink:href="#mb5410595d2" y="138.644346"/>
      </g>
     </g>
    </g>
    <g id="ytick_6">
     <g id="line2d_39">
      <g>
       <use style="stroke:#000000;stroke-width:0.5;" x="53.016574" xlink:href="#m3c908ec2ba" y="130.993692"/>
      </g>
     </g>
     <g id="line2d_40">
      <g>
       <use style="stroke:#000000;stroke-width:0.5;" x="248.316574" xlink:href="#mb5410595d2" y="130.993692"/>
      </g>
     </g>
    </g>
    <g id="ytick_7">
     <g id="line2d_41">
      <g>
       <use style="stroke:#000000;stroke-width:0.5;" x="53.016574" xlink:href="#m3c908ec2ba" y="123.343038"/>
      </g>
     </g>
     <g id="line2d_42">
      <g>
       <use style="stroke:#000000;stroke-width:0.5;" x="248.316574" xlink:href="#mb5410595d2" y="123.343038"/>
      </g>
     </g>
    </g>
    <g id="ytick_8">
     <g id="line2d_43">
      <g>
       <use style="stroke:#000000;stroke-width:0.5;" x="53.016574" xlink:href="#m3c908ec2ba" y="115.692384"/>
      </g>
     </g>
     <g id="line2d_44">
      <g>
       <use style="stroke:#000000;stroke-width:0.5;" x="248.316574" xlink:href="#mb5410595d2" y="115.692384"/>
      </g>
     </g>
    </g>
    <g id="ytick_9">
     <g id="line2d_45">
      <g>
       <use style="stroke:#000000;stroke-width:0.5;" x="53.016574" xlink:href="#m3c908ec2ba" y="100.391077"/>
      </g>
     </g>
     <g id="line2d_46">
      <g>
       <use style="stroke:#000000;stroke-width:0.5;" x="248.316574" xlink:href="#mb5410595d2" y="100.391077"/>
      </g>
     </g>
    </g>
    <g id="ytick_10">
     <g id="line2d_47">
      <g>
       <use style="stroke:#000000;stroke-width:0.5;" x="53.016574" xlink:href="#m3c908ec2ba" y="92.740423"/>
      </g>
     </g>
     <g id="line2d_48">
      <g>
       <use style="stroke:#000000;stroke-width:0.5;" x="248.316574" xlink:href="#mb5410595d2" y="92.740423"/>
      </g>
     </g>
    </g>
    <g id="ytick_11">
     <g id="line2d_49">
      <g>
       <use style="stroke:#000000;stroke-width:0.5;" x="53.016574" xlink:href="#m3c908ec2ba" y="85.089769"/>
      </g>
     </g>
     <g id="line2d_50">
      <g>
       <use style="stroke:#000000;stroke-width:0.5;" x="248.316574" xlink:href="#mb5410595d2" y="85.089769"/>
      </g>
     </g>
    </g>
    <g id="ytick_12">
     <g id="line2d_51">
      <g>
       <use style="stroke:#000000;stroke-width:0.5;" x="53.016574" xlink:href="#m3c908ec2ba" y="77.439115"/>
      </g>
     </g>
     <g id="line2d_52">
      <g>
       <use style="stroke:#000000;stroke-width:0.5;" x="248.316574" xlink:href="#mb5410595d2" y="77.439115"/>
      </g>
     </g>
    </g>
    <g id="ytick_13">
     <g id="line2d_53">
      <g>
       <use style="stroke:#000000;stroke-width:0.5;" x="53.016574" xlink:href="#m3c908ec2ba" y="62.137807"/>
      </g>
     </g>
     <g id="line2d_54">
      <g>
       <use style="stroke:#000000;stroke-width:0.5;" x="248.316574" xlink:href="#mb5410595d2" y="62.137807"/>
      </g>
     </g>
    </g>
    <g id="ytick_14">
     <g id="line2d_55">
      <g>
       <use style="stroke:#000000;stroke-width:0.5;" x="53.016574" xlink:href="#m3c908ec2ba" y="54.487153"/>
      </g>
     </g>
     <g id="line2d_56">
      <g>
       <use style="stroke:#000000;stroke-width:0.5;" x="248.316574" xlink:href="#mb5410595d2" y="54.487153"/>
      </g>
     </g>
    </g>
    <g id="ytick_15">
     <g id="line2d_57">
      <g>
       <use style="stroke:#000000;stroke-width:0.5;" x="53.016574" xlink:href="#m3c908ec2ba" y="46.836499"/>
      </g>
     </g>
     <g id="line2d_58">
      <g>
       <use style="stroke:#000000;stroke-width:0.5;" x="248.316574" xlink:href="#mb5410595d2" y="46.836499"/>
      </g>
     </g>
    </g>
    <g id="ytick_16">
     <g id="line2d_59">
      <g>
       <use style="stroke:#000000;stroke-width:0.5;" x="53.016574" xlink:href="#m3c908ec2ba" y="39.185845"/>
      </g>
     </g>
     <g id="line2d_60">
      <g>
       <use style="stroke:#000000;stroke-width:0.5;" x="248.316574" xlink:href="#mb5410595d2" y="39.185845"/>
      </g>
     </g>
    </g>
    <g id="ytick_17">
     <g id="line2d_61">
      <g>
       <use style="stroke:#000000;stroke-width:0.5;" x="53.016574" xlink:href="#m3c908ec2ba" y="23.884538"/>
      </g>
     </g>
     <g id="line2d_62">
      <g>
       <use style="stroke:#000000;stroke-width:0.5;" x="248.316574" xlink:href="#mb5410595d2" y="23.884538"/>
      </g>
     </g>
    </g>
    <g id="ytick_18">
     <g id="line2d_63">
      <g>
       <use style="stroke:#000000;stroke-width:0.5;" x="53.016574" xlink:href="#m3c908ec2ba" y="16.233884"/>
      </g>
     </g>
     <g id="line2d_64">
      <g>
       <use style="stroke:#000000;stroke-width:0.5;" x="248.316574" xlink:href="#mb5410595d2" y="16.233884"/>
      </g>
     </g>
    </g>
    <g id="ytick_19">
     <g id="line2d_65">
      <g>
       <use style="stroke:#000000;stroke-width:0.5;" x="53.016574" xlink:href="#m3c908ec2ba" y="8.58323"/>
      </g>
     </g>
     <g id="line2d_66">
      <g>
       <use style="stroke:#000000;stroke-width:0.5;" x="248.316574" xlink:href="#mb5410595d2" y="8.58323"/>
      </g>
     </g>
    </g>
    <g id="text_7">
     <!-- Density -->
     <g transform="translate(14.669588 100.894381)rotate(-90)scale(0.16 -0.16)">
      <defs>
       <path d="M 5.203125 68 
L 5.203125 65.390625 
C 12.09375 65.390625 13.203125 65.390625 13.203125 60.90625 
L 13.203125 7.078125 
C 13.203125 2.59375 12.09375 2.59375 5.203125 2.59375 
L 5.203125 0 
L 37 0 
C 53.09375 0 66 14.734375 66 33.4375 
C 66 52.25 53.296875 68 37 68 
z
M 23.796875 2.59375 
C 19.796875 2.59375 19.59375 3.09375 19.59375 6.46875 
L 19.59375 61.5 
C 19.59375 64.890625 19.796875 65.390625 23.796875 65.390625 
L 35 65.390625 
C 43.296875 65.390625 58.59375 60.515625 58.59375 33.4375 
C 58.59375 19.40625 54.5 13.734375 52.59375 11.046875 
C 50.203125 7.96875 44.5 2.59375 35 2.59375 
z
" id="CMR17-68"/>
       <path d="M 38.09375 23.484375 
C 38.5 23.890625 38.5 24.09375 38.5 25.09375 
C 38.5 35.171875 33.09375 44 21.703125 44 
C 11.09375 44 2.703125 33.984375 2.703125 21.78125 
C 2.703125 8.65625 12.203125 -1 22.796875 -1 
C 34 -1 38.40625 9.671875 38.40625 11.796875 
C 38.40625 12.5 37.796875 12.5 37.59375 12.5 
C 36.90625 12.5 36.796875 12.296875 36.40625 11.078125 
C 34.203125 4.21875 28.703125 0.796875 23.5 0.796875 
C 19.203125 0.796875 14.90625 3.21875 12.203125 7.65625 
C 9.09375 12.796875 9.09375 18.75 9.09375 23.484375 
z
M 9.203125 25 
C 9.90625 39.234375 17.59375 42.390625 21.59375 42.390625 
C 28.40625 42.390625 33 36.0625 33.09375 25 
z
" id="CMR17-101"/>
       <path d="M 41.5 30.53125 
C 41.5 35.65625 40.5 44 28.703125 44 
C 20.796875 44 16.703125 37.875 15.203125 33.84375 
L 15.09375 33.84375 
L 15.09375 44 
L 3.296875 42.890625 
L 3.296875 40.28125 
C 9.203125 40.28125 10.09375 39.6875 10.09375 34.859375 
L 10.09375 6.921875 
C 10.09375 3.09375 9.703125 2.59375 3.296875 2.59375 
L 3.296875 0 
C 5.703125 0.1875 10.09375 0.1875 12.703125 0.1875 
C 15.296875 0.1875 19.796875 0.1875 22.203125 0 
L 22.203125 2.59375 
C 15.796875 2.59375 15.40625 3 15.40625 6.921875 
L 15.40625 26.21875 
C 15.40625 35.453125 21 42.390625 28 42.390625 
C 35.40625 42.390625 36.203125 35.765625 36.203125 30.9375 
L 36.203125 6.921875 
C 36.203125 3.09375 35.796875 2.59375 29.40625 2.59375 
L 29.40625 0 
C 31.796875 0.1875 36.203125 0.1875 38.796875 0.1875 
C 41.40625 0.1875 45.90625 0.1875 48.296875 0 
L 48.296875 2.59375 
C 41.90625 2.59375 41.5 3 41.5 6.921875 
z
" id="CMR17-110"/>
       <path d="M 30.90625 42 
C 30.90625 43.796875 30.796875 43.890625 30.203125 43.890625 
C 29.796875 43.890625 29.703125 43.796875 28.5 42.296875 
C 28.203125 41.890625 27.296875 40.890625 27 40.5 
C 23.796875 43.890625 19.296875 44 17.59375 44 
C 6.5 44 2.5 38.1875 2.5 32.390625 
C 2.5 23.390625 12.703125 21.296875 15.59375 20.6875 
C 21.90625 19.390625 24.09375 19 26.203125 17.1875 
C 27.5 16 29.703125 13.796875 29.703125 10.1875 
C 29.703125 6 27.296875 0.59375 18.09375 0.59375 
C 9.40625 0.59375 6.296875 7.1875 4.5 16 
C 4.203125 17.390625 4.203125 17.5 3.40625 17.5 
C 2.59375 17.5 2.5 17.390625 2.5 15.390625 
L 2.5 1 
C 2.5 -0.8125 2.59375 -0.90625 3.203125 -0.90625 
C 3.703125 -0.90625 3.796875 -0.8125 4.296875 0 
C 4.90625 0.890625 6.40625 3.296875 7 4.296875 
C 9 1.59375 12.5 -1 18.09375 -1 
C 28 -1 33.296875 4.390625 33.296875 12.1875 
C 33.296875 17.296875 30.59375 20 29.296875 21.1875 
C 26.296875 24.296875 22.796875 25 18.59375 25.796875 
C 13.09375 27 6.09375 28.390625 6.09375 34.5 
C 6.09375 37.09375 7.5 42.59375 17.59375 42.59375 
C 28.296875 42.59375 28.90625 32.59375 29.09375 29.390625 
C 29.203125 28.890625 29.703125 28.796875 30 28.796875 
C 30.90625 28.796875 30.90625 29.09375 30.90625 30.796875 
z
" id="CMR17-115"/>
       <path d="M 15.5 61.890625 
C 15.5 64.09375 13.703125 66 11.40625 66 
C 9.203125 66 7.296875 64.1875 7.296875 61.890625 
C 7.296875 59.6875 9.09375 57.796875 11.40625 57.796875 
C 13.59375 57.796875 15.5 59.59375 15.5 61.890625 
z
M 3.796875 42.890625 
L 3.796875 40.296875 
C 9.40625 40.296875 10.203125 39.6875 10.203125 34.859375 
L 10.203125 6.921875 
C 10.203125 3.09375 9.796875 2.59375 3.40625 2.59375 
L 3.40625 0 
C 5.796875 0.1875 10.09375 0.1875 12.59375 0.1875 
C 15 0.1875 19.09375 0.1875 21.40625 0 
L 21.40625 2.59375 
C 15.5 2.59375 15.296875 3.203125 15.296875 6.8125 
L 15.296875 44 
z
" id="CMR17-105"/>
       <path d="M 15.09375 40.390625 
L 29.09375 40.390625 
L 29.09375 43 
L 15.09375 43 
L 15.09375 62 
L 13.296875 62 
C 13.09375 51.4375 9.59375 42.1875 1.09375 41.984375 
L 1.09375 40.390625 
L 9.796875 40.390625 
L 9.796875 12.15625 
C 9.796875 10.234375 9.796875 -1 21.40625 -1 
C 27.296875 -1 30.703125 4.8125 30.703125 12.25 
L 30.703125 17.984375 
L 28.90625 17.984375 
L 28.90625 12.34375 
C 28.90625 5.421875 26.203125 0.796875 22 0.796875 
C 19.09375 0.796875 15.09375 2.796875 15.09375 11.953125 
z
" id="CMR17-116"/>
       <path d="M 39 34.109375 
C 41.5 40.296875 46 40.390625 47.40625 40.390625 
L 47.40625 43 
C 45.5 42.890625 43 42.796875 41.09375 42.796875 
C 39 42.796875 35.703125 42.796875 33.703125 43 
L 33.703125 40.390625 
C 37.5 40.09375 37.59375 37.25 37.59375 36.4375 
C 37.59375 35.4375 37.40625 34.921875 36.90625 33.71875 
L 26 6.390625 
L 14.09375 35.9375 
C 13.59375 37.15625 13.59375 37.859375 13.59375 37.96875 
C 13.59375 40.1875 15.90625 40.390625 18.296875 40.390625 
L 18.296875 43 
C 15.90625 42.796875 11.59375 42.796875 9.09375 42.796875 
C 6.40625 42.796875 3.203125 42.796875 1 43 
L 1 40.390625 
C 6.40625 40.390625 7 39.890625 8.296875 36.640625 
L 23.203125 -0.484375 
C 18.703125 -12.421875 16.09375 -19.40625 9.796875 -19.40625 
C 8.703125 -19.40625 6.203125 -19.109375 4.40625 -17.28125 
C 6.703125 -17.078125 7.703125 -15.65625 7.703125 -13.9375 
C 7.703125 -12.21875 6.5 -10.703125 4.5 -10.703125 
C 2.296875 -10.703125 1.203125 -12.21875 1.203125 -14.046875 
C 1.203125 -18.09375 5.296875 -21 9.796875 -21 
C 15.59375 -21 19.203125 -15.359375 21.203125 -10.296875 
z
" id="CMR17-121"/>
      </defs>
      <use transform="scale(0.996264)" xlink:href="#CMR17-68"/>
      <use transform="translate(70.393556 0)scale(0.996264)" xlink:href="#CMR17-101"/>
      <use transform="translate(110.879216 0)scale(0.996264)" xlink:href="#CMR17-110"/>
      <use transform="translate(161.774586 0)scale(0.996264)" xlink:href="#CMR17-115"/>
      <use transform="translate(197.575924 0)scale(0.996264)" xlink:href="#CMR17-105"/>
      <use transform="translate(222.446982 0)scale(0.996264)" xlink:href="#CMR17-116"/>
      <use transform="translate(255.125296 0)scale(0.996264)" xlink:href="#CMR17-121"/>
     </g>
    </g>
   </g>
   <g id="line2d_67">
    <path clip-path="url(#p2e1db3d883)" d="M 129.996724 146.295 
L 129.996724 3.6 
" style="fill:none;stroke:#0c5da5;stroke-dasharray:19.2,4.8,3,4.8;stroke-dashoffset:0;stroke-width:3;"/>
   </g>
   <g id="patch_3">
    <path d="M 53.016574 146.295 
L 53.016574 3.6 
" style="fill:none;stroke:#000000;stroke-linecap:square;stroke-linejoin:miter;stroke-width:0.5;"/>
   </g>
   <g id="patch_4">
    <path d="M 248.316574 146.295 
L 248.316574 3.6 
" style="fill:none;stroke:#000000;stroke-linecap:square;stroke-linejoin:miter;stroke-width:0.5;"/>
   </g>
   <g id="patch_5">
    <path d="M 53.016574 146.295 
L 248.316574 146.295 
" style="fill:none;stroke:#000000;stroke-linecap:square;stroke-linejoin:miter;stroke-width:0.5;"/>
   </g>
   <g id="patch_6">
    <path d="M 53.016574 3.6 
L 248.316574 3.6 
" style="fill:none;stroke:#000000;stroke-linecap:square;stroke-linejoin:miter;stroke-width:0.5;"/>
   </g>
  </g>
 </g>
 <defs>
  <clipPath id="p2e1db3d883">
   <rect height="142.695" width="195.3" x="53.016574" y="3.6"/>
  </clipPath>
 </defs>
</svg>
