<?xml version="1.0" encoding="utf-8" standalone="no"?>
<!DOCTYPE svg PUBLIC "-//W3C//DTD SVG 1.1//EN"
  "http://www.w3.org/Graphics/SVG/1.1/DTD/svg11.dtd">
<!-- Created with matplotlib (https://matplotlib.org/) -->
<svg height="167.564064pt" version="1.1" viewBox="0 0 244.112587 167.564064" width="244.112587pt" xmlns="http://www.w3.org/2000/svg" xmlns:xlink="http://www.w3.org/1999/xlink">
 <metadata>
  <rdf:RDF xmlns:cc="http://creativecommons.org/ns#" xmlns:dc="http://purl.org/dc/elements/1.1/" xmlns:rdf="http://www.w3.org/1999/02/22-rdf-syntax-ns#">
   <cc:Work>
    <dc:type rdf:resource="http://purl.org/dc/dcmitype/StillImage"/>
    <dc:date>2021-01-28T16:53:56.048503</dc:date>
    <dc:format>image/svg+xml</dc:format>
    <dc:creator>
     <cc:Agent>
      <dc:title>Matplotlib v3.3.0, https://matplotlib.org/</dc:title>
     </cc:Agent>
    </dc:creator>
   </cc:Work>
  </rdf:RDF>
 </metadata>
 <defs>
  <style type="text/css">*{stroke-linecap:butt;stroke-linejoin:round;}</style>
 </defs>
 <g id="figure_1">
  <g id="patch_1">
   <path d="M 0 167.564064 
L 244.112587 167.564064 
L 244.112587 0 
L 0 0 
z
" style="fill:none;"/>
  </g>
  <g id="axes_1">
   <g id="patch_2">
    <path d="M 45.212587 146.295 
L 240.512587 146.295 
L 240.512587 3.6 
L 45.212587 3.6 
z
" style="fill:#ffffff;"/>
   </g>
   <g id="PolyCollection_1">
    <defs>
     <path d="M 54.08986 -21.311543 
L 54.08986 -21.269064 
L 54.976244 -21.269064 
L 55.862629 -21.269064 
L 56.749014 -21.269064 
L 57.635399 -21.269064 
L 58.521784 -21.269064 
L 59.408168 -21.269064 
L 60.294553 -21.269064 
L 61.180938 -21.269064 
L 62.067323 -21.269064 
L 62.953708 -21.269064 
L 63.840092 -21.269064 
L 64.726477 -21.269064 
L 65.612862 -21.269064 
L 66.499247 -21.269064 
L 67.385632 -21.269064 
L 68.272016 -21.269064 
L 69.158401 -21.269064 
L 70.044786 -21.269064 
L 70.931171 -21.269064 
L 71.817555 -21.269064 
L 72.70394 -21.269064 
L 73.590325 -21.269064 
L 74.47671 -21.269064 
L 75.363095 -21.269064 
L 76.249479 -21.269064 
L 77.135864 -21.269064 
L 78.022249 -21.269064 
L 78.908634 -21.269064 
L 79.795019 -21.269064 
L 80.681403 -21.269064 
L 81.567788 -21.269064 
L 82.454173 -21.269064 
L 83.340558 -21.269064 
L 84.226943 -21.269064 
L 85.113327 -21.269064 
L 85.999712 -21.269064 
L 86.886097 -21.269064 
L 87.772482 -21.269064 
L 88.658867 -21.269064 
L 89.545251 -21.269064 
L 90.431636 -21.269064 
L 91.318021 -21.269064 
L 92.204406 -21.269064 
L 93.090791 -21.269064 
L 93.977175 -21.269064 
L 94.86356 -21.269064 
L 95.749945 -21.269064 
L 96.63633 -21.269064 
L 97.522715 -21.269064 
L 98.409099 -21.269064 
L 99.295484 -21.269064 
L 100.181869 -21.269064 
L 101.068254 -21.269064 
L 101.954639 -21.269064 
L 102.841023 -21.269064 
L 103.727408 -21.269064 
L 104.613793 -21.269064 
L 105.500178 -21.269064 
L 106.386563 -21.269064 
L 107.272947 -21.269064 
L 108.159332 -21.269064 
L 109.045717 -21.269064 
L 109.932102 -21.269064 
L 110.818487 -21.269064 
L 111.704871 -21.269064 
L 112.591256 -21.269064 
L 113.477641 -21.269064 
L 114.364026 -21.269064 
L 115.250411 -21.269064 
L 116.136795 -21.269064 
L 117.02318 -21.269064 
L 117.909565 -21.269064 
L 118.79595 -21.269064 
L 119.682334 -21.269064 
L 120.568719 -21.269064 
L 121.455104 -21.269064 
L 122.341489 -21.269064 
L 123.227874 -21.269064 
L 124.114258 -21.269064 
L 125.000643 -21.269064 
L 125.887028 -21.269064 
L 126.773413 -21.269064 
L 127.659798 -21.269064 
L 128.546182 -21.269064 
L 129.432567 -21.269064 
L 130.318952 -21.269064 
L 131.205337 -21.269064 
L 132.091722 -21.269064 
L 132.978106 -21.269064 
L 133.864491 -21.269064 
L 134.750876 -21.269064 
L 135.637261 -21.269064 
L 136.523646 -21.269064 
L 137.41003 -21.269064 
L 138.296415 -21.269064 
L 139.1828 -21.269064 
L 140.069185 -21.269064 
L 140.95557 -21.269064 
L 141.841954 -21.269064 
L 142.728339 -21.269064 
L 143.614724 -21.269064 
L 144.501109 -21.269064 
L 145.387494 -21.269064 
L 146.273878 -21.269064 
L 147.160263 -21.269064 
L 148.046648 -21.269064 
L 148.933033 -21.269064 
L 149.819418 -21.269064 
L 150.705802 -21.269064 
L 151.592187 -21.269064 
L 152.478572 -21.269064 
L 153.364957 -21.269064 
L 154.251342 -21.269064 
L 155.137726 -21.269064 
L 156.024111 -21.269064 
L 156.910496 -21.269064 
L 157.796881 -21.269064 
L 158.683266 -21.269064 
L 159.56965 -21.269064 
L 160.456035 -21.269064 
L 161.34242 -21.269064 
L 162.228805 -21.269064 
L 163.11519 -21.269064 
L 164.001574 -21.269064 
L 164.887959 -21.269064 
L 165.774344 -21.269064 
L 166.660729 -21.269064 
L 167.547113 -21.269064 
L 168.433498 -21.269064 
L 169.319883 -21.269064 
L 170.206268 -21.269064 
L 171.092653 -21.269064 
L 171.979037 -21.269064 
L 172.865422 -21.269064 
L 173.751807 -21.269064 
L 174.638192 -21.269064 
L 175.524577 -21.269064 
L 176.410961 -21.269064 
L 177.297346 -21.269064 
L 178.183731 -21.269064 
L 179.070116 -21.269064 
L 179.956501 -21.269064 
L 180.842885 -21.269064 
L 181.72927 -21.269064 
L 182.615655 -21.269064 
L 183.50204 -21.269064 
L 184.388425 -21.269064 
L 185.274809 -21.269064 
L 186.161194 -21.269064 
L 187.047579 -21.269064 
L 187.933964 -21.269064 
L 188.820349 -21.269064 
L 189.706733 -21.269064 
L 190.593118 -21.269064 
L 191.479503 -21.269064 
L 192.365888 -21.269064 
L 193.252273 -21.269064 
L 194.138657 -21.269064 
L 195.025042 -21.269064 
L 195.911427 -21.269064 
L 196.797812 -21.269064 
L 197.684197 -21.269064 
L 198.570581 -21.269064 
L 199.456966 -21.269064 
L 200.343351 -21.269064 
L 201.229736 -21.269064 
L 202.116121 -21.269064 
L 203.002505 -21.269064 
L 203.88889 -21.269064 
L 204.775275 -21.269064 
L 205.66166 -21.269064 
L 206.548045 -21.269064 
L 207.434429 -21.269064 
L 208.320814 -21.269064 
L 209.207199 -21.269064 
L 210.093584 -21.269064 
L 210.979969 -21.269064 
L 211.866353 -21.269064 
L 212.752738 -21.269064 
L 213.639123 -21.269064 
L 214.525508 -21.269064 
L 215.411892 -21.269064 
L 216.298277 -21.269064 
L 217.184662 -21.269064 
L 218.071047 -21.269064 
L 218.957432 -21.269064 
L 219.843816 -21.269064 
L 220.730201 -21.269064 
L 221.616586 -21.269064 
L 222.502971 -21.269064 
L 223.389356 -21.269064 
L 224.27574 -21.269064 
L 225.162125 -21.269064 
L 226.04851 -21.269064 
L 226.934895 -21.269064 
L 227.82128 -21.269064 
L 228.707664 -21.269064 
L 229.594049 -21.269064 
L 230.480434 -21.269064 
L 230.480434 -21.304928 
L 230.480434 -21.304928 
L 229.594049 -21.315883 
L 228.707664 -21.329739 
L 227.82128 -21.347123 
L 226.934895 -21.368766 
L 226.04851 -21.395497 
L 225.162125 -21.42826 
L 224.27574 -21.468104 
L 223.389356 -21.516191 
L 222.502971 -21.573789 
L 221.616586 -21.642262 
L 220.730201 -21.723066 
L 219.843816 -21.817728 
L 218.957432 -21.927834 
L 218.071047 -22.055009 
L 217.184662 -22.200893 
L 216.298277 -22.367123 
L 215.411892 -22.555308 
L 214.525508 -22.767007 
L 213.639123 -23.003715 
L 212.752738 -23.266842 
L 211.866353 -23.557701 
L 210.979969 -23.877502 
L 210.093584 -24.227346 
L 209.207199 -24.608223 
L 208.320814 -25.021018 
L 207.434429 -25.466515 
L 206.548045 -25.945406 
L 205.66166 -26.458298 
L 204.775275 -27.005723 
L 203.88889 -27.588144 
L 203.002505 -28.205967 
L 202.116121 -28.859542 
L 201.229736 -29.54917 
L 200.343351 -30.275109 
L 199.456966 -31.037585 
L 198.570581 -31.836794 
L 197.684197 -32.672924 
L 196.797812 -33.546172 
L 195.911427 -34.456766 
L 195.025042 -35.404998 
L 194.138657 -36.391264 
L 193.252273 -37.416093 
L 192.365888 -38.480198 
L 191.479503 -39.584506 
L 190.593118 -40.730192 
L 189.706733 -41.918699 
L 188.820349 -43.151742 
L 187.933964 -44.431303 
L 187.047579 -45.759593 
L 186.161194 -47.138999 
L 185.274809 -48.572011 
L 184.388425 -50.061125 
L 183.50204 -51.608727 
L 182.615655 -53.216967 
L 181.72927 -54.887625 
L 180.842885 -56.621972 
L 179.956501 -58.420642 
L 179.070116 -60.283511 
L 178.183731 -62.209595 
L 177.297346 -64.196976 
L 176.410961 -66.242752 
L 175.524577 -68.343015 
L 174.638192 -70.492868 
L 173.751807 -72.686466 
L 172.865422 -74.917088 
L 171.979037 -77.177239 
L 171.092653 -79.458763 
L 170.206268 -81.752981 
L 169.319883 -84.050832 
L 168.433498 -86.343016 
L 167.547113 -88.62014 
L 166.660729 -90.872847 
L 165.774344 -93.091936 
L 164.887959 -95.268463 
L 164.001574 -97.393822 
L 163.11519 -99.459806 
L 162.228805 -101.45865 
L 161.34242 -103.383053 
L 160.456035 -105.226191 
L 159.56965 -106.981719 
L 158.683266 -108.643777 
L 157.796881 -110.206993 
L 156.910496 -111.666501 
L 156.024111 -113.017981 
L 155.137726 -114.25771 
L 154.251342 -115.382647 
L 153.364957 -116.390536 
L 152.478572 -117.280033 
L 151.592187 -118.050847 
L 150.705802 -118.703894 
L 149.819418 -119.24144 
L 148.933033 -119.667235 
L 148.046648 -119.986617 
L 147.160263 -120.20657 
L 146.273878 -120.335726 
L 145.387494 -120.384301 
L 144.501109 -120.363952 
L 143.614724 -120.287557 
L 142.728339 -120.168914 
L 141.841954 -120.022364 
L 140.95557 -119.86235 
L 140.069185 -119.702931 
L 139.1828 -119.55727 
L 138.296415 -119.437109 
L 137.41003 -119.352275 
L 136.523646 -119.310229 
L 135.637261 -119.315686 
L 134.750876 -119.37033 
L 133.864491 -119.47264 
L 132.978106 -119.617842 
L 132.091722 -119.797985 
L 131.205337 -120.002154 
L 130.318952 -120.216789 
L 129.432567 -120.426125 
L 128.546182 -120.612707 
L 127.659798 -120.757963 
L 126.773413 -120.842824 
L 125.887028 -120.848333 
L 125.000643 -120.756248 
L 124.114258 -120.549586 
L 123.227874 -120.213112 
L 122.341489 -119.733738 
L 121.455104 -119.100836 
L 120.568719 -118.306446 
L 119.682334 -117.345399 
L 118.79595 -116.21534 
L 117.909565 -114.916667 
L 117.02318 -113.452411 
L 116.136795 -111.828044 
L 115.250411 -110.051253 
L 114.364026 -108.13167 
L 113.477641 -106.080596 
L 112.591256 -103.910698 
L 111.704871 -101.635709 
L 110.818487 -99.270131 
L 109.932102 -96.828942 
L 109.045717 -94.32731 
L 108.159332 -91.780325 
L 107.272947 -89.20274 
L 106.386563 -86.608741 
L 105.500178 -84.011726 
L 104.613793 -81.424119 
L 103.727408 -78.857215 
L 102.841023 -76.321052 
L 101.954639 -73.824326 
L 101.068254 -71.374352 
L 100.181869 -68.977054 
L 99.295484 -66.637006 
L 98.409099 -64.357515 
L 97.522715 -62.140729 
L 96.63633 -59.987785 
L 95.749945 -57.898975 
L 94.86356 -55.873924 
L 93.977175 -53.91178 
L 93.090791 -52.011391 
L 92.204406 -50.17148 
L 91.318021 -48.390791 
L 90.431636 -46.668219 
L 89.545251 -45.002904 
L 88.658867 -43.394298 
L 87.772482 -41.842194 
L 86.886097 -40.346733 
L 85.999712 -38.908378 
L 85.113327 -37.527865 
L 84.226943 -36.206135 
L 83.340558 -34.944253 
L 82.454173 -33.743325 
L 81.567788 -32.604401 
L 80.681403 -31.528393 
L 79.795019 -30.515994 
L 78.908634 -29.567604 
L 78.022249 -28.683282 
L 77.135864 -27.862698 
L 76.249479 -27.10511 
L 75.363095 -26.409355 
L 74.47671 -25.773856 
L 73.590325 -25.196643 
L 72.70394 -24.675379 
L 71.817555 -24.207414 
L 70.931171 -23.789822 
L 70.044786 -23.419468 
L 69.158401 -23.093062 
L 68.272016 -22.807216 
L 67.385632 -22.558506 
L 66.499247 -22.343526 
L 65.612862 -22.158934 
L 64.726477 -22.001501 
L 63.840092 -21.868145 
L 62.953708 -21.755961 
L 62.067323 -21.662243 
L 61.180938 -21.584502 
L 60.294553 -21.52047 
L 59.408168 -21.468107 
L 58.521784 -21.425595 
L 57.635399 -21.39133 
L 56.749014 -21.363914 
L 55.862629 -21.34214 
L 54.976244 -21.324975 
L 54.08986 -21.311543 
z
" id="mbd53fb900e" style="stroke:#008000;"/>
    </defs>
    <g clip-path="url(#pcfe2679b4d)">
     <use style="fill:#008000;fill-opacity:0.25;stroke:#008000;" x="0" xlink:href="#mbd53fb900e" y="167.564064"/>
    </g>
   </g>
   <g id="PolyCollection_2">
    <defs>
     <path d="M 64.938907 -21.309814 
L 64.938907 -21.269064 
L 65.776577 -21.269064 
L 66.614247 -21.269064 
L 67.451918 -21.269064 
L 68.289588 -21.269064 
L 69.127259 -21.269064 
L 69.964929 -21.269064 
L 70.802599 -21.269064 
L 71.64027 -21.269064 
L 72.47794 -21.269064 
L 73.315611 -21.269064 
L 74.153281 -21.269064 
L 74.990951 -21.269064 
L 75.828622 -21.269064 
L 76.666292 -21.269064 
L 77.503963 -21.269064 
L 78.341633 -21.269064 
L 79.179303 -21.269064 
L 80.016974 -21.269064 
L 80.854644 -21.269064 
L 81.692314 -21.269064 
L 82.529985 -21.269064 
L 83.367655 -21.269064 
L 84.205326 -21.269064 
L 85.042996 -21.269064 
L 85.880666 -21.269064 
L 86.718337 -21.269064 
L 87.556007 -21.269064 
L 88.393678 -21.269064 
L 89.231348 -21.269064 
L 90.069018 -21.269064 
L 90.906689 -21.269064 
L 91.744359 -21.269064 
L 92.58203 -21.269064 
L 93.4197 -21.269064 
L 94.25737 -21.269064 
L 95.095041 -21.269064 
L 95.932711 -21.269064 
L 96.770381 -21.269064 
L 97.608052 -21.269064 
L 98.445722 -21.269064 
L 99.283393 -21.269064 
L 100.121063 -21.269064 
L 100.958733 -21.269064 
L 101.796404 -21.269064 
L 102.634074 -21.269064 
L 103.471745 -21.269064 
L 104.309415 -21.269064 
L 105.147085 -21.269064 
L 105.984756 -21.269064 
L 106.822426 -21.269064 
L 107.660097 -21.269064 
L 108.497767 -21.269064 
L 109.335437 -21.269064 
L 110.173108 -21.269064 
L 111.010778 -21.269064 
L 111.848448 -21.269064 
L 112.686119 -21.269064 
L 113.523789 -21.269064 
L 114.36146 -21.269064 
L 115.19913 -21.269064 
L 116.0368 -21.269064 
L 116.874471 -21.269064 
L 117.712141 -21.269064 
L 118.549812 -21.269064 
L 119.387482 -21.269064 
L 120.225152 -21.269064 
L 121.062823 -21.269064 
L 121.900493 -21.269064 
L 122.738164 -21.269064 
L 123.575834 -21.269064 
L 124.413504 -21.269064 
L 125.251175 -21.269064 
L 126.088845 -21.269064 
L 126.926515 -21.269064 
L 127.764186 -21.269064 
L 128.601856 -21.269064 
L 129.439527 -21.269064 
L 130.277197 -21.269064 
L 131.114867 -21.269064 
L 131.952538 -21.269064 
L 132.790208 -21.269064 
L 133.627879 -21.269064 
L 134.465549 -21.269064 
L 135.303219 -21.269064 
L 136.14089 -21.269064 
L 136.97856 -21.269064 
L 137.816231 -21.269064 
L 138.653901 -21.269064 
L 139.491571 -21.269064 
L 140.329242 -21.269064 
L 141.166912 -21.269064 
L 142.004582 -21.269064 
L 142.842253 -21.269064 
L 143.679923 -21.269064 
L 144.517594 -21.269064 
L 145.355264 -21.269064 
L 146.192934 -21.269064 
L 147.030605 -21.269064 
L 147.868275 -21.269064 
L 148.705946 -21.269064 
L 149.543616 -21.269064 
L 150.381286 -21.269064 
L 151.218957 -21.269064 
L 152.056627 -21.269064 
L 152.894298 -21.269064 
L 153.731968 -21.269064 
L 154.569638 -21.269064 
L 155.407309 -21.269064 
L 156.244979 -21.269064 
L 157.082649 -21.269064 
L 157.92032 -21.269064 
L 158.75799 -21.269064 
L 159.595661 -21.269064 
L 160.433331 -21.269064 
L 161.271001 -21.269064 
L 162.108672 -21.269064 
L 162.946342 -21.269064 
L 163.784013 -21.269064 
L 164.621683 -21.269064 
L 165.459353 -21.269064 
L 166.297024 -21.269064 
L 167.134694 -21.269064 
L 167.972365 -21.269064 
L 168.810035 -21.269064 
L 169.647705 -21.269064 
L 170.485376 -21.269064 
L 171.323046 -21.269064 
L 172.160716 -21.269064 
L 172.998387 -21.269064 
L 173.836057 -21.269064 
L 174.673728 -21.269064 
L 175.511398 -21.269064 
L 176.349068 -21.269064 
L 177.186739 -21.269064 
L 178.024409 -21.269064 
L 178.86208 -21.269064 
L 179.69975 -21.269064 
L 180.53742 -21.269064 
L 181.375091 -21.269064 
L 182.212761 -21.269064 
L 183.050432 -21.269064 
L 183.888102 -21.269064 
L 184.725772 -21.269064 
L 185.563443 -21.269064 
L 186.401113 -21.269064 
L 187.238783 -21.269064 
L 188.076454 -21.269064 
L 188.914124 -21.269064 
L 189.751795 -21.269064 
L 190.589465 -21.269064 
L 191.427135 -21.269064 
L 192.264806 -21.269064 
L 193.102476 -21.269064 
L 193.940147 -21.269064 
L 194.777817 -21.269064 
L 195.615487 -21.269064 
L 196.453158 -21.269064 
L 197.290828 -21.269064 
L 198.128499 -21.269064 
L 198.966169 -21.269064 
L 199.803839 -21.269064 
L 200.64151 -21.269064 
L 201.47918 -21.269064 
L 202.31685 -21.269064 
L 203.154521 -21.269064 
L 203.992191 -21.269064 
L 204.829862 -21.269064 
L 205.667532 -21.269064 
L 206.505202 -21.269064 
L 207.342873 -21.269064 
L 208.180543 -21.269064 
L 209.018214 -21.269064 
L 209.855884 -21.269064 
L 210.693554 -21.269064 
L 211.531225 -21.269064 
L 212.368895 -21.269064 
L 213.206566 -21.269064 
L 214.044236 -21.269064 
L 214.881906 -21.269064 
L 215.719577 -21.269064 
L 216.557247 -21.269064 
L 217.394917 -21.269064 
L 218.232588 -21.269064 
L 219.070258 -21.269064 
L 219.907929 -21.269064 
L 220.745599 -21.269064 
L 221.583269 -21.269064 
L 222.42094 -21.269064 
L 223.25861 -21.269064 
L 224.096281 -21.269064 
L 224.933951 -21.269064 
L 225.771621 -21.269064 
L 226.609292 -21.269064 
L 227.446962 -21.269064 
L 228.284633 -21.269064 
L 229.122303 -21.269064 
L 229.959973 -21.269064 
L 230.797644 -21.269064 
L 231.635314 -21.269064 
L 231.635314 -21.314073 
L 231.635314 -21.314073 
L 230.797644 -21.328751 
L 229.959973 -21.347605 
L 229.122303 -21.371624 
L 228.284633 -21.401971 
L 227.446962 -21.439997 
L 226.609292 -21.487255 
L 225.771621 -21.54551 
L 224.933951 -21.616741 
L 224.096281 -21.703136 
L 223.25861 -21.807088 
L 222.42094 -21.931173 
L 221.583269 -22.078127 
L 220.745599 -22.250805 
L 219.907929 -22.452142 
L 219.070258 -22.685097 
L 218.232588 -22.95259 
L 217.394917 -23.257437 
L 216.557247 -23.602272 
L 215.719577 -23.989476 
L 214.881906 -24.421092 
L 214.044236 -24.898756 
L 213.206566 -25.42362 
L 212.368895 -25.996286 
L 211.531225 -26.61675 
L 210.693554 -27.284355 
L 209.855884 -27.997757 
L 209.018214 -28.754908 
L 208.180543 -29.553052 
L 207.342873 -30.38874 
L 206.505202 -31.25787 
L 205.667532 -32.155735 
L 204.829862 -33.077103 
L 203.992191 -34.01631 
L 203.154521 -34.967374 
L 202.31685 -35.924133 
L 201.47918 -36.880388 
L 200.64151 -37.83007 
L 199.803839 -38.767406 
L 198.966169 -39.687095 
L 198.128499 -40.584478 
L 197.290828 -41.455693 
L 196.453158 -42.297817 
L 195.615487 -43.108983 
L 194.777817 -43.888459 
L 193.940147 -44.636688 
L 193.102476 -45.355296 
L 192.264806 -46.047039 
L 191.427135 -46.715721 
L 190.589465 -47.366062 
L 189.751795 -48.003533 
L 188.914124 -48.634173 
L 188.076454 -49.26438 
L 187.238783 -49.90071 
L 186.401113 -50.54968 
L 185.563443 -51.217599 
L 184.725772 -51.910431 
L 183.888102 -52.633711 
L 183.050432 -53.3925 
L 182.212761 -54.191401 
L 181.375091 -55.034635 
L 180.53742 -55.926148 
L 179.69975 -56.869773 
L 178.86208 -57.869403 
L 178.024409 -58.929186 
L 177.186739 -60.053704 
L 176.349068 -61.248128 
L 175.511398 -62.518332 
L 174.673728 -63.870947 
L 173.836057 -65.313349 
L 172.998387 -66.85357 
L 172.160716 -68.50013 
L 171.323046 -70.261799 
L 170.485376 -72.147289 
L 169.647705 -74.1649 
L 168.810035 -76.322134 
L 167.972365 -78.625286 
L 167.134694 -81.079056 
L 166.297024 -83.686174 
L 165.459353 -86.447084 
L 164.621683 -89.359676 
L 163.784013 -92.419088 
L 162.946342 -95.617585 
L 162.108672 -98.944509 
L 161.271001 -102.386286 
L 160.433331 -105.926511 
L 159.595661 -109.546066 
L 158.75799 -113.223287 
L 157.92032 -116.934166 
L 157.082649 -120.652579 
L 156.244979 -124.350535 
L 155.407309 -127.998462 
L 154.569638 -131.565525 
L 153.731968 -135.019985 
L 152.894298 -138.329606 
L 152.056627 -141.462131 
L 151.218957 -144.385816 
L 150.381286 -147.070032 
L 149.543616 -149.485933 
L 148.705946 -151.607165 
L 147.868275 -153.410615 
L 147.030605 -154.877155 
L 146.192934 -155.992359 
L 145.355264 -156.747153 
L 144.517594 -157.138353 
L 143.679923 -157.169064 
L 142.842253 -156.848891 
L 142.004582 -156.193934 
L 141.166912 -155.226561 
L 140.329242 -153.974924 
L 139.491571 -152.472245 
L 138.653901 -150.755863 
L 137.816231 -148.866092 
L 136.97856 -146.844913 
L 136.14089 -144.734561 
L 135.303219 -142.576068 
L 134.465549 -140.40781 
L 133.627879 -138.264152 
L 132.790208 -136.174228 
L 131.952538 -134.160942 
L 131.114867 -132.240219 
L 130.277197 -130.420557 
L 129.439527 -128.702909 
L 128.601856 -127.080883 
L 127.764186 -125.541277 
L 126.926515 -124.064903 
L 126.088845 -122.627661 
L 125.251175 -121.201821 
L 124.413504 -119.757433 
L 123.575834 -118.263798 
L 122.738164 -116.690937 
L 121.900493 -115.010974 
L 121.062823 -113.199379 
L 120.225152 -111.236014 
L 119.387482 -109.10594 
L 118.549812 -106.79997 
L 117.712141 -104.314939 
L 116.874471 -101.65371 
L 116.0368 -98.82493 
L 115.19913 -95.842561 
L 114.36146 -92.72523 
L 113.523789 -89.495431 
L 112.686119 -86.17864 
L 111.848448 -82.802371 
L 111.010778 -79.395233 
L 110.173108 -75.986014 
L 109.335437 -72.602833 
L 108.497767 -69.272377 
L 107.660097 -66.019253 
L 106.822426 -62.865461 
L 105.984756 -59.829995 
L 105.147085 -56.928572 
L 104.309415 -54.17349 
L 103.471745 -51.573602 
L 102.634074 -49.134395 
L 101.796404 -46.858172 
L 100.958733 -44.744305 
L 100.121063 -42.789559 
L 99.283393 -40.988463 
L 98.445722 -39.333711 
L 97.608052 -37.816581 
L 96.770381 -36.427357 
L 95.932711 -35.155728 
L 95.095041 -33.991171 
L 94.25737 -32.923284 
L 93.4197 -31.942081 
L 92.58203 -31.038226 
L 91.744359 -30.203211 
L 90.906689 -29.429481 
L 90.069018 -28.71049 
L 89.231348 -28.040719 
L 88.393678 -27.415632 
L 87.556007 -26.831609 
L 86.718337 -26.285834 
L 85.880666 -25.776172 
L 85.042996 -25.301034 
L 84.205326 -24.859238 
L 83.367655 -24.449872 
L 82.529985 -24.072176 
L 81.692314 -23.725435 
L 80.854644 -23.408897 
L 80.016974 -23.121702 
L 79.179303 -22.862851 
L 78.341633 -22.631175 
L 77.503963 -22.425336 
L 76.666292 -22.243836 
L 75.828622 -22.085046 
L 74.990951 -21.947233 
L 74.153281 -21.828595 
L 73.315611 -21.727309 
L 72.47794 -21.641556 
L 71.64027 -21.569567 
L 70.802599 -21.509645 
L 69.964929 -21.460192 
L 69.127259 -21.41973 
L 68.289588 -21.386908 
L 67.451918 -21.360514 
L 66.614247 -21.339472 
L 65.776577 -21.322843 
L 64.938907 -21.309814 
z
" id="mdbb7b78bd0" style="stroke:#ffa500;"/>
    </defs>
    <g clip-path="url(#pcfe2679b4d)">
     <use style="fill:#ffa500;fill-opacity:0.25;stroke:#ffa500;" x="0" xlink:href="#mdbb7b78bd0" y="167.564064"/>
    </g>
   </g>
   <g id="matplotlib.axis_1">
    <g id="xtick_1">
     <g id="line2d_1">
      <path clip-path="url(#pcfe2679b4d)" d="M 85.701922 146.295 
L 85.701922 3.6 
" style="fill:none;stroke:#000000;stroke-dasharray:0.5,0.825;stroke-dashoffset:0;stroke-opacity:0.5;stroke-width:0.5;"/>
     </g>
     <g id="line2d_2">
      <defs>
       <path d="M 0 0 
L 0 -3 
" id="mc4f7d8bcdb" style="stroke:#000000;stroke-width:0.5;"/>
      </defs>
      <g>
       <use style="stroke:#000000;stroke-width:0.5;" x="85.701922" xlink:href="#mc4f7d8bcdb" y="146.295"/>
      </g>
     </g>
     <g id="line2d_3">
      <defs>
       <path d="M 0 0 
L 0 3 
" id="m60a0536e43" style="stroke:#000000;stroke-width:0.5;"/>
      </defs>
      <g>
       <use style="stroke:#000000;stroke-width:0.5;" x="85.701922" xlink:href="#m60a0536e43" y="3.6"/>
      </g>
     </g>
     <g id="text_1">
      <!-- $\mathdefault{0.1}$ -->
      <g transform="translate(75.730161 160.864588)scale(0.16 -0.16)">
       <defs>
        <path d="M 42 31.84375 
C 42 37.96875 41.90625 48.421875 37.703125 56.453125 
C 34 63.484375 28.09375 66 22.90625 66 
C 18.09375 66 12 63.78125 8.203125 56.5625 
C 4.203125 49.015625 3.796875 39.671875 3.796875 31.84375 
C 3.796875 26.109375 3.90625 17.375 7 9.734375 
C 11.296875 -0.609375 19 -2 22.90625 -2 
C 27.5 -2 34.5 -0.109375 38.59375 9.4375 
C 41.59375 16.375 42 24.5 42 31.84375 
z
M 22.90625 -0.40625 
C 16.5 -0.40625 12.703125 5.125 11.296875 12.75 
C 10.203125 18.6875 10.203125 27.328125 10.203125 32.953125 
C 10.203125 40.6875 10.203125 47.109375 11.5 53.234375 
C 13.40625 61.78125 19 64.390625 22.90625 64.390625 
C 27 64.390625 32.296875 61.671875 34.203125 53.4375 
C 35.5 47.71875 35.59375 40.984375 35.59375 32.953125 
C 35.59375 26.421875 35.59375 18.375 34.40625 12.453125 
C 32.296875 1.5 26.40625 -0.40625 22.90625 -0.40625 
z
" id="CMR17-48"/>
        <path d="M 18.40625 4.796875 
C 18.40625 7.6875 16 9.6875 13.59375 9.6875 
C 10.703125 9.6875 8.703125 7.296875 8.703125 4.890625 
C 8.703125 2 11.09375 0 13.5 0 
C 16.40625 0 18.40625 2.390625 18.40625 4.796875 
z
" id="CMMI12-58"/>
        <path d="M 26.59375 63.796875 
C 26.59375 65.890625 26.5 66 25.09375 66 
C 21.203125 61.359375 15.296875 59.890625 9.703125 59.6875 
C 9.40625 59.6875 8.90625 59.6875 8.796875 59.5 
C 8.703125 59.296875 8.703125 59.09375 8.703125 57 
C 11.796875 57 17 57.59375 21 59.984375 
L 21 7.296875 
C 21 3.796875 20.796875 2.59375 12.203125 2.59375 
L 9.203125 2.59375 
L 9.203125 0 
C 14 0.09375 19 0.1875 23.796875 0.1875 
C 28.59375 0.1875 33.59375 0.09375 38.40625 0 
L 38.40625 2.59375 
L 35.40625 2.59375 
C 26.796875 2.59375 26.59375 3.6875 26.59375 7.296875 
z
" id="CMR17-49"/>
       </defs>
       <use transform="scale(0.996264)" xlink:href="#CMR17-48"/>
       <use transform="translate(45.690477 0)scale(0.996264)" xlink:href="#CMMI12-58"/>
       <use transform="translate(72.787654 0)scale(0.996264)" xlink:href="#CMR17-49"/>
      </g>
     </g>
    </g>
    <g id="xtick_2">
     <g id="line2d_4">
      <path clip-path="url(#pcfe2679b4d)" d="M 139.136739 146.295 
L 139.136739 3.6 
" style="fill:none;stroke:#000000;stroke-dasharray:0.5,0.825;stroke-dashoffset:0;stroke-opacity:0.5;stroke-width:0.5;"/>
     </g>
     <g id="line2d_5">
      <g>
       <use style="stroke:#000000;stroke-width:0.5;" x="139.136739" xlink:href="#mc4f7d8bcdb" y="146.295"/>
      </g>
     </g>
     <g id="line2d_6">
      <g>
       <use style="stroke:#000000;stroke-width:0.5;" x="139.136739" xlink:href="#m60a0536e43" y="3.6"/>
      </g>
     </g>
     <g id="text_2">
      <!-- $\mathdefault{0.2}$ -->
      <g transform="translate(129.164978 160.864588)scale(0.16 -0.16)">
       <defs>
        <path d="M 41.703125 15.46875 
L 39.90625 15.46875 
C 38.90625 8.390625 38.09375 7.1875 37.703125 6.59375 
C 37.203125 5.796875 30 5.796875 28.59375 5.796875 
L 9.40625 5.796875 
C 13 9.6875 20 16.765625 28.5 24.9375 
C 34.59375 30.71875 41.703125 37.5 41.703125 47.390625 
C 41.703125 59.1875 32.296875 66 21.796875 66 
C 10.796875 66 4.09375 56.296875 4.09375 47.296875 
C 4.09375 43.390625 7 42.890625 8.203125 42.890625 
C 9.203125 42.890625 12.203125 43.484375 12.203125 46.984375 
C 12.203125 50.09375 9.59375 51 8.203125 51 
C 7.59375 51 7 50.890625 6.59375 50.6875 
C 8.5 59.1875 14.296875 63.390625 20.40625 63.390625 
C 29.09375 63.390625 34.796875 56.5 34.796875 47.390625 
C 34.796875 38.703125 29.703125 31.21875 24 24.734375 
L 4.09375 2.296875 
L 4.09375 0 
L 39.296875 0 
z
" id="CMR17-50"/>
       </defs>
       <use transform="scale(0.996264)" xlink:href="#CMR17-48"/>
       <use transform="translate(45.690477 0)scale(0.996264)" xlink:href="#CMMI12-58"/>
       <use transform="translate(72.787654 0)scale(0.996264)" xlink:href="#CMR17-50"/>
      </g>
     </g>
    </g>
    <g id="xtick_3">
     <g id="line2d_7">
      <path clip-path="url(#pcfe2679b4d)" d="M 192.571556 146.295 
L 192.571556 3.6 
" style="fill:none;stroke:#000000;stroke-dasharray:0.5,0.825;stroke-dashoffset:0;stroke-opacity:0.5;stroke-width:0.5;"/>
     </g>
     <g id="line2d_8">
      <g>
       <use style="stroke:#000000;stroke-width:0.5;" x="192.571556" xlink:href="#mc4f7d8bcdb" y="146.295"/>
      </g>
     </g>
     <g id="line2d_9">
      <g>
       <use style="stroke:#000000;stroke-width:0.5;" x="192.571556" xlink:href="#m60a0536e43" y="3.6"/>
      </g>
     </g>
     <g id="text_3">
      <!-- $\mathdefault{0.3}$ -->
      <g transform="translate(182.599795 160.864588)scale(0.16 -0.16)">
       <defs>
        <path d="M 22.09375 34 
C 31 34 34.90625 26.140625 34.90625 17.09375 
C 34.90625 5.03125 28.5 0.390625 22.703125 0.390625 
C 17.40625 0.390625 8.796875 3.015625 6.09375 10.796875 
C 6.59375 10.59375 7.09375 10.59375 7.59375 10.59375 
C 10 10.59375 11.796875 12.1875 11.796875 14.796875 
C 11.796875 17.6875 9.59375 19 7.59375 19 
C 5.90625 19 3.296875 18.1875 3.296875 14.484375 
C 3.296875 5.234375 12.296875 -2 22.90625 -2 
C 34 -2 42.5 6.75 42.5 16.984375 
C 42.5 26.84375 34.5 34 25 35.09375 
C 32.59375 36.671875 39.90625 43.375 39.90625 52.390625 
C 39.90625 60.25 32 66 23 66 
C 13.90625 66 5.90625 60.34375 5.90625 52.296875 
C 5.90625 48.796875 8.5 48.1875 9.796875 48.1875 
C 11.90625 48.1875 13.703125 49.484375 13.703125 52.09375 
C 13.703125 54.6875 11.90625 56 9.796875 56 
C 9.40625 56 8.90625 56 8.5 55.796875 
C 11.40625 62.484375 19.296875 63.6875 22.796875 63.6875 
C 26.296875 63.6875 32.90625 61.96875 32.90625 52.296875 
C 32.90625 49.484375 32.5 44.546875 29.09375 40.21875 
C 26.09375 36.390625 22.703125 36.1875 19.40625 35.890625 
C 18.90625 35.890625 16.59375 35.6875 16.203125 35.6875 
C 15.5 35.59375 15.09375 35.5 15.09375 34.796875 
C 15.09375 34.09375 15.203125 34 17.203125 34 
z
" id="CMR17-51"/>
       </defs>
       <use transform="scale(0.996264)" xlink:href="#CMR17-48"/>
       <use transform="translate(45.690477 0)scale(0.996264)" xlink:href="#CMMI12-58"/>
       <use transform="translate(72.787654 0)scale(0.996264)" xlink:href="#CMR17-51"/>
      </g>
     </g>
    </g>
    <g id="xtick_4">
     <g id="line2d_10">
      <defs>
       <path d="M 0 0 
L 0 -1.5 
" id="me17f6f7319" style="stroke:#000000;stroke-width:0.5;"/>
      </defs>
      <g>
       <use style="stroke:#000000;stroke-width:0.5;" x="53.641032" xlink:href="#me17f6f7319" y="146.295"/>
      </g>
     </g>
     <g id="line2d_11">
      <defs>
       <path d="M 0 0 
L 0 1.5 
" id="m2bc69c2de9" style="stroke:#000000;stroke-width:0.5;"/>
      </defs>
      <g>
       <use style="stroke:#000000;stroke-width:0.5;" x="53.641032" xlink:href="#m2bc69c2de9" y="3.6"/>
      </g>
     </g>
    </g>
    <g id="xtick_5">
     <g id="line2d_12">
      <g>
       <use style="stroke:#000000;stroke-width:0.5;" x="64.327995" xlink:href="#me17f6f7319" y="146.295"/>
      </g>
     </g>
     <g id="line2d_13">
      <g>
       <use style="stroke:#000000;stroke-width:0.5;" x="64.327995" xlink:href="#m2bc69c2de9" y="3.6"/>
      </g>
     </g>
    </g>
    <g id="xtick_6">
     <g id="line2d_14">
      <g>
       <use style="stroke:#000000;stroke-width:0.5;" x="75.014959" xlink:href="#me17f6f7319" y="146.295"/>
      </g>
     </g>
     <g id="line2d_15">
      <g>
       <use style="stroke:#000000;stroke-width:0.5;" x="75.014959" xlink:href="#m2bc69c2de9" y="3.6"/>
      </g>
     </g>
    </g>
    <g id="xtick_7">
     <g id="line2d_16">
      <g>
       <use style="stroke:#000000;stroke-width:0.5;" x="96.388885" xlink:href="#me17f6f7319" y="146.295"/>
      </g>
     </g>
     <g id="line2d_17">
      <g>
       <use style="stroke:#000000;stroke-width:0.5;" x="96.388885" xlink:href="#m2bc69c2de9" y="3.6"/>
      </g>
     </g>
    </g>
    <g id="xtick_8">
     <g id="line2d_18">
      <g>
       <use style="stroke:#000000;stroke-width:0.5;" x="107.075849" xlink:href="#me17f6f7319" y="146.295"/>
      </g>
     </g>
     <g id="line2d_19">
      <g>
       <use style="stroke:#000000;stroke-width:0.5;" x="107.075849" xlink:href="#m2bc69c2de9" y="3.6"/>
      </g>
     </g>
    </g>
    <g id="xtick_9">
     <g id="line2d_20">
      <g>
       <use style="stroke:#000000;stroke-width:0.5;" x="117.762812" xlink:href="#me17f6f7319" y="146.295"/>
      </g>
     </g>
     <g id="line2d_21">
      <g>
       <use style="stroke:#000000;stroke-width:0.5;" x="117.762812" xlink:href="#m2bc69c2de9" y="3.6"/>
      </g>
     </g>
    </g>
    <g id="xtick_10">
     <g id="line2d_22">
      <g>
       <use style="stroke:#000000;stroke-width:0.5;" x="128.449776" xlink:href="#me17f6f7319" y="146.295"/>
      </g>
     </g>
     <g id="line2d_23">
      <g>
       <use style="stroke:#000000;stroke-width:0.5;" x="128.449776" xlink:href="#m2bc69c2de9" y="3.6"/>
      </g>
     </g>
    </g>
    <g id="xtick_11">
     <g id="line2d_24">
      <g>
       <use style="stroke:#000000;stroke-width:0.5;" x="149.823702" xlink:href="#me17f6f7319" y="146.295"/>
      </g>
     </g>
     <g id="line2d_25">
      <g>
       <use style="stroke:#000000;stroke-width:0.5;" x="149.823702" xlink:href="#m2bc69c2de9" y="3.6"/>
      </g>
     </g>
    </g>
    <g id="xtick_12">
     <g id="line2d_26">
      <g>
       <use style="stroke:#000000;stroke-width:0.5;" x="160.510666" xlink:href="#me17f6f7319" y="146.295"/>
      </g>
     </g>
     <g id="line2d_27">
      <g>
       <use style="stroke:#000000;stroke-width:0.5;" x="160.510666" xlink:href="#m2bc69c2de9" y="3.6"/>
      </g>
     </g>
    </g>
    <g id="xtick_13">
     <g id="line2d_28">
      <g>
       <use style="stroke:#000000;stroke-width:0.5;" x="171.197629" xlink:href="#me17f6f7319" y="146.295"/>
      </g>
     </g>
     <g id="line2d_29">
      <g>
       <use style="stroke:#000000;stroke-width:0.5;" x="171.197629" xlink:href="#m2bc69c2de9" y="3.6"/>
      </g>
     </g>
    </g>
    <g id="xtick_14">
     <g id="line2d_30">
      <g>
       <use style="stroke:#000000;stroke-width:0.5;" x="181.884593" xlink:href="#me17f6f7319" y="146.295"/>
      </g>
     </g>
     <g id="line2d_31">
      <g>
       <use style="stroke:#000000;stroke-width:0.5;" x="181.884593" xlink:href="#m2bc69c2de9" y="3.6"/>
      </g>
     </g>
    </g>
    <g id="xtick_15">
     <g id="line2d_32">
      <g>
       <use style="stroke:#000000;stroke-width:0.5;" x="203.258519" xlink:href="#me17f6f7319" y="146.295"/>
      </g>
     </g>
     <g id="line2d_33">
      <g>
       <use style="stroke:#000000;stroke-width:0.5;" x="203.258519" xlink:href="#m2bc69c2de9" y="3.6"/>
      </g>
     </g>
    </g>
    <g id="xtick_16">
     <g id="line2d_34">
      <g>
       <use style="stroke:#000000;stroke-width:0.5;" x="213.945483" xlink:href="#me17f6f7319" y="146.295"/>
      </g>
     </g>
     <g id="line2d_35">
      <g>
       <use style="stroke:#000000;stroke-width:0.5;" x="213.945483" xlink:href="#m2bc69c2de9" y="3.6"/>
      </g>
     </g>
    </g>
    <g id="xtick_17">
     <g id="line2d_36">
      <g>
       <use style="stroke:#000000;stroke-width:0.5;" x="224.632446" xlink:href="#me17f6f7319" y="146.295"/>
      </g>
     </g>
     <g id="line2d_37">
      <g>
       <use style="stroke:#000000;stroke-width:0.5;" x="224.632446" xlink:href="#m2bc69c2de9" y="3.6"/>
      </g>
     </g>
    </g>
    <g id="xtick_18">
     <g id="line2d_38">
      <g>
       <use style="stroke:#000000;stroke-width:0.5;" x="235.31941" xlink:href="#me17f6f7319" y="146.295"/>
      </g>
     </g>
     <g id="line2d_39">
      <g>
       <use style="stroke:#000000;stroke-width:0.5;" x="235.31941" xlink:href="#m2bc69c2de9" y="3.6"/>
      </g>
     </g>
    </g>
   </g>
   <g id="matplotlib.axis_2">
    <g id="ytick_1">
     <g id="line2d_40">
      <path clip-path="url(#pcfe2679b4d)" d="M 45.212587 146.295 
L 240.512587 146.295 
" style="fill:none;stroke:#000000;stroke-dasharray:0.5,0.825;stroke-dashoffset:0;stroke-opacity:0.5;stroke-width:0.5;"/>
     </g>
     <g id="line2d_41">
      <defs>
       <path d="M 0 0 
L 3 0 
" id="mc7b3e2e26a" style="stroke:#000000;stroke-width:0.5;"/>
      </defs>
      <g>
       <use style="stroke:#000000;stroke-width:0.5;" x="45.212587" xlink:href="#mc7b3e2e26a" y="146.295"/>
      </g>
     </g>
     <g id="line2d_42">
      <defs>
       <path d="M 0 0 
L -3 0 
" id="mc28c01a7e2" style="stroke:#000000;stroke-width:0.5;"/>
      </defs>
      <g>
       <use style="stroke:#000000;stroke-width:0.5;" x="240.512587" xlink:href="#mc28c01a7e2" y="146.295"/>
      </g>
     </g>
     <g id="text_4">
      <!-- $\mathdefault{0.0}$ -->
      <g transform="translate(21.769064 151.829794)scale(0.16 -0.16)">
       <use transform="scale(0.996264)" xlink:href="#CMR17-48"/>
       <use transform="translate(45.690477 0)scale(0.996264)" xlink:href="#CMMI12-58"/>
       <use transform="translate(72.787654 0)scale(0.996264)" xlink:href="#CMR17-48"/>
      </g>
     </g>
    </g>
    <g id="ytick_2">
     <g id="line2d_43">
      <path clip-path="url(#pcfe2679b4d)" d="M 45.212587 110.399137 
L 240.512587 110.399137 
" style="fill:none;stroke:#000000;stroke-dasharray:0.5,0.825;stroke-dashoffset:0;stroke-opacity:0.5;stroke-width:0.5;"/>
     </g>
     <g id="line2d_44">
      <g>
       <use style="stroke:#000000;stroke-width:0.5;" x="45.212587" xlink:href="#mc7b3e2e26a" y="110.399137"/>
      </g>
     </g>
     <g id="line2d_45">
      <g>
       <use style="stroke:#000000;stroke-width:0.5;" x="240.512587" xlink:href="#mc28c01a7e2" y="110.399137"/>
      </g>
     </g>
     <g id="text_5">
      <!-- $\mathdefault{2.5}$ -->
      <g transform="translate(21.769064 115.933932)scale(0.16 -0.16)">
       <defs>
        <path d="M 11.40625 58.59375 
C 12.40625 58.1875 16.5 56.890625 20.703125 56.890625 
C 30 56.890625 35.09375 61.890625 38 64.6875 
C 38 65.484375 38 66 37.40625 66 
C 37.296875 66 37.09375 66 36.296875 65.59375 
C 32.796875 64.09375 28.703125 63 23.703125 63 
C 20.703125 63 16.203125 63.359375 11.296875 65.484375 
C 10.203125 66 10 66 9.90625 66 
C 9.40625 66 9.296875 65.890625 9.296875 63.90625 
L 9.296875 34.859375 
C 9.296875 33.015625 9.296875 32.5 10.296875 32.5 
C 10.796875 32.5 11 32.703125 11.5 33.421875 
C 14.703125 38.046875 19.09375 40 24.09375 40 
C 27.59375 40 35.09375 37.734375 35.09375 20.203125 
C 35.09375 16.984375 35.09375 11.1875 32.09375 6.59375 
C 29.59375 2.484375 25.703125 0.390625 21.40625 0.390625 
C 14.796875 0.390625 8.09375 4.984375 6.296875 12.6875 
C 6.703125 12.59375 7.5 12.390625 7.90625 12.390625 
C 9.203125 12.390625 11.703125 13.09375 11.703125 16.1875 
C 11.703125 18.890625 9.796875 20 7.90625 20 
C 5.59375 20 4.09375 18.59375 4.09375 15.796875 
C 4.09375 7.09375 11 -2 21.59375 -2 
C 31.90625 -2 41.703125 6.890625 41.703125 19.796875 
C 41.703125 32.09375 33.90625 41.59375 24.203125 41.59375 
C 19.09375 41.59375 14.796875 39.6875 11.40625 36 
z
" id="CMR17-53"/>
       </defs>
       <use transform="scale(0.996264)" xlink:href="#CMR17-50"/>
       <use transform="translate(45.690477 0)scale(0.996264)" xlink:href="#CMMI12-58"/>
       <use transform="translate(72.787654 0)scale(0.996264)" xlink:href="#CMR17-53"/>
      </g>
     </g>
    </g>
    <g id="ytick_3">
     <g id="line2d_46">
      <path clip-path="url(#pcfe2679b4d)" d="M 45.212587 74.503275 
L 240.512587 74.503275 
" style="fill:none;stroke:#000000;stroke-dasharray:0.5,0.825;stroke-dashoffset:0;stroke-opacity:0.5;stroke-width:0.5;"/>
     </g>
     <g id="line2d_47">
      <g>
       <use style="stroke:#000000;stroke-width:0.5;" x="45.212587" xlink:href="#mc7b3e2e26a" y="74.503275"/>
      </g>
     </g>
     <g id="line2d_48">
      <g>
       <use style="stroke:#000000;stroke-width:0.5;" x="240.512587" xlink:href="#mc28c01a7e2" y="74.503275"/>
      </g>
     </g>
     <g id="text_6">
      <!-- $\mathdefault{5.0}$ -->
      <g transform="translate(21.769064 80.038069)scale(0.16 -0.16)">
       <use transform="scale(0.996264)" xlink:href="#CMR17-53"/>
       <use transform="translate(45.690477 0)scale(0.996264)" xlink:href="#CMMI12-58"/>
       <use transform="translate(72.787654 0)scale(0.996264)" xlink:href="#CMR17-48"/>
      </g>
     </g>
    </g>
    <g id="ytick_4">
     <g id="line2d_49">
      <path clip-path="url(#pcfe2679b4d)" d="M 45.212587 38.607412 
L 240.512587 38.607412 
" style="fill:none;stroke:#000000;stroke-dasharray:0.5,0.825;stroke-dashoffset:0;stroke-opacity:0.5;stroke-width:0.5;"/>
     </g>
     <g id="line2d_50">
      <g>
       <use style="stroke:#000000;stroke-width:0.5;" x="45.212587" xlink:href="#mc7b3e2e26a" y="38.607412"/>
      </g>
     </g>
     <g id="line2d_51">
      <g>
       <use style="stroke:#000000;stroke-width:0.5;" x="240.512587" xlink:href="#mc28c01a7e2" y="38.607412"/>
      </g>
     </g>
     <g id="text_7">
      <!-- $\mathdefault{7.5}$ -->
      <g transform="translate(21.769064 44.142206)scale(0.16 -0.16)">
       <defs>
        <path d="M 45.09375 61.796875 
L 45.09375 64 
L 21.59375 64 
C 9.90625 64 9.703125 65.09375 9.296875 67 
L 7.5 67 
L 4.59375 48.5 
L 6.40625 48.5 
C 6.703125 50.40625 7.40625 55.5 8.59375 57.390625 
C 9.203125 58.1875 16.59375 58.1875 18.296875 58.1875 
L 40.296875 58.1875 
L 29.203125 41.71875 
C 21.796875 30.640625 16.703125 15.671875 16.703125 2.59375 
C 16.703125 1.390625 16.703125 -2 20.296875 -2 
C 23.90625 -2 23.90625 1.390625 23.90625 2.6875 
L 23.90625 7.28125 
C 23.90625 23.65625 26.703125 34.4375 31.296875 41.3125 
z
" id="CMR17-55"/>
       </defs>
       <use transform="scale(0.996264)" xlink:href="#CMR17-55"/>
       <use transform="translate(45.690477 0)scale(0.996264)" xlink:href="#CMMI12-58"/>
       <use transform="translate(72.787654 0)scale(0.996264)" xlink:href="#CMR17-53"/>
      </g>
     </g>
    </g>
    <g id="ytick_5">
     <g id="line2d_52">
      <defs>
       <path d="M 0 0 
L 1.5 0 
" id="mb94adfc1a7" style="stroke:#000000;stroke-width:0.5;"/>
      </defs>
      <g>
       <use style="stroke:#000000;stroke-width:0.5;" x="45.212587" xlink:href="#mb94adfc1a7" y="139.115827"/>
      </g>
     </g>
     <g id="line2d_53">
      <defs>
       <path d="M 0 0 
L -1.5 0 
" id="m9f56768eea" style="stroke:#000000;stroke-width:0.5;"/>
      </defs>
      <g>
       <use style="stroke:#000000;stroke-width:0.5;" x="240.512587" xlink:href="#m9f56768eea" y="139.115827"/>
      </g>
     </g>
    </g>
    <g id="ytick_6">
     <g id="line2d_54">
      <g>
       <use style="stroke:#000000;stroke-width:0.5;" x="45.212587" xlink:href="#mb94adfc1a7" y="131.936655"/>
      </g>
     </g>
     <g id="line2d_55">
      <g>
       <use style="stroke:#000000;stroke-width:0.5;" x="240.512587" xlink:href="#m9f56768eea" y="131.936655"/>
      </g>
     </g>
    </g>
    <g id="ytick_7">
     <g id="line2d_56">
      <g>
       <use style="stroke:#000000;stroke-width:0.5;" x="45.212587" xlink:href="#mb94adfc1a7" y="124.757482"/>
      </g>
     </g>
     <g id="line2d_57">
      <g>
       <use style="stroke:#000000;stroke-width:0.5;" x="240.512587" xlink:href="#m9f56768eea" y="124.757482"/>
      </g>
     </g>
    </g>
    <g id="ytick_8">
     <g id="line2d_58">
      <g>
       <use style="stroke:#000000;stroke-width:0.5;" x="45.212587" xlink:href="#mb94adfc1a7" y="117.57831"/>
      </g>
     </g>
     <g id="line2d_59">
      <g>
       <use style="stroke:#000000;stroke-width:0.5;" x="240.512587" xlink:href="#m9f56768eea" y="117.57831"/>
      </g>
     </g>
    </g>
    <g id="ytick_9">
     <g id="line2d_60">
      <g>
       <use style="stroke:#000000;stroke-width:0.5;" x="45.212587" xlink:href="#mb94adfc1a7" y="103.219965"/>
      </g>
     </g>
     <g id="line2d_61">
      <g>
       <use style="stroke:#000000;stroke-width:0.5;" x="240.512587" xlink:href="#m9f56768eea" y="103.219965"/>
      </g>
     </g>
    </g>
    <g id="ytick_10">
     <g id="line2d_62">
      <g>
       <use style="stroke:#000000;stroke-width:0.5;" x="45.212587" xlink:href="#mb94adfc1a7" y="96.040792"/>
      </g>
     </g>
     <g id="line2d_63">
      <g>
       <use style="stroke:#000000;stroke-width:0.5;" x="240.512587" xlink:href="#m9f56768eea" y="96.040792"/>
      </g>
     </g>
    </g>
    <g id="ytick_11">
     <g id="line2d_64">
      <g>
       <use style="stroke:#000000;stroke-width:0.5;" x="45.212587" xlink:href="#mb94adfc1a7" y="88.86162"/>
      </g>
     </g>
     <g id="line2d_65">
      <g>
       <use style="stroke:#000000;stroke-width:0.5;" x="240.512587" xlink:href="#m9f56768eea" y="88.86162"/>
      </g>
     </g>
    </g>
    <g id="ytick_12">
     <g id="line2d_66">
      <g>
       <use style="stroke:#000000;stroke-width:0.5;" x="45.212587" xlink:href="#mb94adfc1a7" y="81.682447"/>
      </g>
     </g>
     <g id="line2d_67">
      <g>
       <use style="stroke:#000000;stroke-width:0.5;" x="240.512587" xlink:href="#m9f56768eea" y="81.682447"/>
      </g>
     </g>
    </g>
    <g id="ytick_13">
     <g id="line2d_68">
      <g>
       <use style="stroke:#000000;stroke-width:0.5;" x="45.212587" xlink:href="#mb94adfc1a7" y="67.324102"/>
      </g>
     </g>
     <g id="line2d_69">
      <g>
       <use style="stroke:#000000;stroke-width:0.5;" x="240.512587" xlink:href="#m9f56768eea" y="67.324102"/>
      </g>
     </g>
    </g>
    <g id="ytick_14">
     <g id="line2d_70">
      <g>
       <use style="stroke:#000000;stroke-width:0.5;" x="45.212587" xlink:href="#mb94adfc1a7" y="60.14493"/>
      </g>
     </g>
     <g id="line2d_71">
      <g>
       <use style="stroke:#000000;stroke-width:0.5;" x="240.512587" xlink:href="#m9f56768eea" y="60.14493"/>
      </g>
     </g>
    </g>
    <g id="ytick_15">
     <g id="line2d_72">
      <g>
       <use style="stroke:#000000;stroke-width:0.5;" x="45.212587" xlink:href="#mb94adfc1a7" y="52.965757"/>
      </g>
     </g>
     <g id="line2d_73">
      <g>
       <use style="stroke:#000000;stroke-width:0.5;" x="240.512587" xlink:href="#m9f56768eea" y="52.965757"/>
      </g>
     </g>
    </g>
    <g id="ytick_16">
     <g id="line2d_74">
      <g>
       <use style="stroke:#000000;stroke-width:0.5;" x="45.212587" xlink:href="#mb94adfc1a7" y="45.786585"/>
      </g>
     </g>
     <g id="line2d_75">
      <g>
       <use style="stroke:#000000;stroke-width:0.5;" x="240.512587" xlink:href="#m9f56768eea" y="45.786585"/>
      </g>
     </g>
    </g>
    <g id="ytick_17">
     <g id="line2d_76">
      <g>
       <use style="stroke:#000000;stroke-width:0.5;" x="45.212587" xlink:href="#mb94adfc1a7" y="31.42824"/>
      </g>
     </g>
     <g id="line2d_77">
      <g>
       <use style="stroke:#000000;stroke-width:0.5;" x="240.512587" xlink:href="#m9f56768eea" y="31.42824"/>
      </g>
     </g>
    </g>
    <g id="ytick_18">
     <g id="line2d_78">
      <g>
       <use style="stroke:#000000;stroke-width:0.5;" x="45.212587" xlink:href="#mb94adfc1a7" y="24.249067"/>
      </g>
     </g>
     <g id="line2d_79">
      <g>
       <use style="stroke:#000000;stroke-width:0.5;" x="240.512587" xlink:href="#m9f56768eea" y="24.249067"/>
      </g>
     </g>
    </g>
    <g id="ytick_19">
     <g id="line2d_80">
      <g>
       <use style="stroke:#000000;stroke-width:0.5;" x="45.212587" xlink:href="#mb94adfc1a7" y="17.069895"/>
      </g>
     </g>
     <g id="line2d_81">
      <g>
       <use style="stroke:#000000;stroke-width:0.5;" x="240.512587" xlink:href="#m9f56768eea" y="17.069895"/>
      </g>
     </g>
    </g>
    <g id="ytick_20">
     <g id="line2d_82">
      <g>
       <use style="stroke:#000000;stroke-width:0.5;" x="45.212587" xlink:href="#mb94adfc1a7" y="9.890722"/>
      </g>
     </g>
     <g id="line2d_83">
      <g>
       <use style="stroke:#000000;stroke-width:0.5;" x="240.512587" xlink:href="#m9f56768eea" y="9.890722"/>
      </g>
     </g>
    </g>
    <g id="text_8">
     <!-- Density -->
     <g transform="translate(14.669588 100.894381)rotate(-90)scale(0.16 -0.16)">
      <defs>
       <path d="M 5.203125 68 
L 5.203125 65.390625 
C 12.09375 65.390625 13.203125 65.390625 13.203125 60.90625 
L 13.203125 7.078125 
C 13.203125 2.59375 12.09375 2.59375 5.203125 2.59375 
L 5.203125 0 
L 37 0 
C 53.09375 0 66 14.734375 66 33.4375 
C 66 52.25 53.296875 68 37 68 
z
M 23.796875 2.59375 
C 19.796875 2.59375 19.59375 3.09375 19.59375 6.46875 
L 19.59375 61.5 
C 19.59375 64.890625 19.796875 65.390625 23.796875 65.390625 
L 35 65.390625 
C 43.296875 65.390625 58.59375 60.515625 58.59375 33.4375 
C 58.59375 19.40625 54.5 13.734375 52.59375 11.046875 
C 50.203125 7.96875 44.5 2.59375 35 2.59375 
z
" id="CMR17-68"/>
       <path d="M 38.09375 23.484375 
C 38.5 23.890625 38.5 24.09375 38.5 25.09375 
C 38.5 35.171875 33.09375 44 21.703125 44 
C 11.09375 44 2.703125 33.984375 2.703125 21.78125 
C 2.703125 8.65625 12.203125 -1 22.796875 -1 
C 34 -1 38.40625 9.671875 38.40625 11.796875 
C 38.40625 12.5 37.796875 12.5 37.59375 12.5 
C 36.90625 12.5 36.796875 12.296875 36.40625 11.078125 
C 34.203125 4.21875 28.703125 0.796875 23.5 0.796875 
C 19.203125 0.796875 14.90625 3.21875 12.203125 7.65625 
C 9.09375 12.796875 9.09375 18.75 9.09375 23.484375 
z
M 9.203125 25 
C 9.90625 39.234375 17.59375 42.390625 21.59375 42.390625 
C 28.40625 42.390625 33 36.0625 33.09375 25 
z
" id="CMR17-101"/>
       <path d="M 41.5 30.53125 
C 41.5 35.65625 40.5 44 28.703125 44 
C 20.796875 44 16.703125 37.875 15.203125 33.84375 
L 15.09375 33.84375 
L 15.09375 44 
L 3.296875 42.890625 
L 3.296875 40.28125 
C 9.203125 40.28125 10.09375 39.6875 10.09375 34.859375 
L 10.09375 6.921875 
C 10.09375 3.09375 9.703125 2.59375 3.296875 2.59375 
L 3.296875 0 
C 5.703125 0.1875 10.09375 0.1875 12.703125 0.1875 
C 15.296875 0.1875 19.796875 0.1875 22.203125 0 
L 22.203125 2.59375 
C 15.796875 2.59375 15.40625 3 15.40625 6.921875 
L 15.40625 26.21875 
C 15.40625 35.453125 21 42.390625 28 42.390625 
C 35.40625 42.390625 36.203125 35.765625 36.203125 30.9375 
L 36.203125 6.921875 
C 36.203125 3.09375 35.796875 2.59375 29.40625 2.59375 
L 29.40625 0 
C 31.796875 0.1875 36.203125 0.1875 38.796875 0.1875 
C 41.40625 0.1875 45.90625 0.1875 48.296875 0 
L 48.296875 2.59375 
C 41.90625 2.59375 41.5 3 41.5 6.921875 
z
" id="CMR17-110"/>
       <path d="M 30.90625 42 
C 30.90625 43.796875 30.796875 43.890625 30.203125 43.890625 
C 29.796875 43.890625 29.703125 43.796875 28.5 42.296875 
C 28.203125 41.890625 27.296875 40.890625 27 40.5 
C 23.796875 43.890625 19.296875 44 17.59375 44 
C 6.5 44 2.5 38.1875 2.5 32.390625 
C 2.5 23.390625 12.703125 21.296875 15.59375 20.6875 
C 21.90625 19.390625 24.09375 19 26.203125 17.1875 
C 27.5 16 29.703125 13.796875 29.703125 10.1875 
C 29.703125 6 27.296875 0.59375 18.09375 0.59375 
C 9.40625 0.59375 6.296875 7.1875 4.5 16 
C 4.203125 17.390625 4.203125 17.5 3.40625 17.5 
C 2.59375 17.5 2.5 17.390625 2.5 15.390625 
L 2.5 1 
C 2.5 -0.8125 2.59375 -0.90625 3.203125 -0.90625 
C 3.703125 -0.90625 3.796875 -0.8125 4.296875 0 
C 4.90625 0.890625 6.40625 3.296875 7 4.296875 
C 9 1.59375 12.5 -1 18.09375 -1 
C 28 -1 33.296875 4.390625 33.296875 12.1875 
C 33.296875 17.296875 30.59375 20 29.296875 21.1875 
C 26.296875 24.296875 22.796875 25 18.59375 25.796875 
C 13.09375 27 6.09375 28.390625 6.09375 34.5 
C 6.09375 37.09375 7.5 42.59375 17.59375 42.59375 
C 28.296875 42.59375 28.90625 32.59375 29.09375 29.390625 
C 29.203125 28.890625 29.703125 28.796875 30 28.796875 
C 30.90625 28.796875 30.90625 29.09375 30.90625 30.796875 
z
" id="CMR17-115"/>
       <path d="M 15.5 61.890625 
C 15.5 64.09375 13.703125 66 11.40625 66 
C 9.203125 66 7.296875 64.1875 7.296875 61.890625 
C 7.296875 59.6875 9.09375 57.796875 11.40625 57.796875 
C 13.59375 57.796875 15.5 59.59375 15.5 61.890625 
z
M 3.796875 42.890625 
L 3.796875 40.296875 
C 9.40625 40.296875 10.203125 39.6875 10.203125 34.859375 
L 10.203125 6.921875 
C 10.203125 3.09375 9.796875 2.59375 3.40625 2.59375 
L 3.40625 0 
C 5.796875 0.1875 10.09375 0.1875 12.59375 0.1875 
C 15 0.1875 19.09375 0.1875 21.40625 0 
L 21.40625 2.59375 
C 15.5 2.59375 15.296875 3.203125 15.296875 6.8125 
L 15.296875 44 
z
" id="CMR17-105"/>
       <path d="M 15.09375 40.390625 
L 29.09375 40.390625 
L 29.09375 43 
L 15.09375 43 
L 15.09375 62 
L 13.296875 62 
C 13.09375 51.4375 9.59375 42.1875 1.09375 41.984375 
L 1.09375 40.390625 
L 9.796875 40.390625 
L 9.796875 12.15625 
C 9.796875 10.234375 9.796875 -1 21.40625 -1 
C 27.296875 -1 30.703125 4.8125 30.703125 12.25 
L 30.703125 17.984375 
L 28.90625 17.984375 
L 28.90625 12.34375 
C 28.90625 5.421875 26.203125 0.796875 22 0.796875 
C 19.09375 0.796875 15.09375 2.796875 15.09375 11.953125 
z
" id="CMR17-116"/>
       <path d="M 39 34.109375 
C 41.5 40.296875 46 40.390625 47.40625 40.390625 
L 47.40625 43 
C 45.5 42.890625 43 42.796875 41.09375 42.796875 
C 39 42.796875 35.703125 42.796875 33.703125 43 
L 33.703125 40.390625 
C 37.5 40.09375 37.59375 37.25 37.59375 36.4375 
C 37.59375 35.4375 37.40625 34.921875 36.90625 33.71875 
L 26 6.390625 
L 14.09375 35.9375 
C 13.59375 37.15625 13.59375 37.859375 13.59375 37.96875 
C 13.59375 40.1875 15.90625 40.390625 18.296875 40.390625 
L 18.296875 43 
C 15.90625 42.796875 11.59375 42.796875 9.09375 42.796875 
C 6.40625 42.796875 3.203125 42.796875 1 43 
L 1 40.390625 
C 6.40625 40.390625 7 39.890625 8.296875 36.640625 
L 23.203125 -0.484375 
C 18.703125 -12.421875 16.09375 -19.40625 9.796875 -19.40625 
C 8.703125 -19.40625 6.203125 -19.109375 4.40625 -17.28125 
C 6.703125 -17.078125 7.703125 -15.65625 7.703125 -13.9375 
C 7.703125 -12.21875 6.5 -10.703125 4.5 -10.703125 
C 2.296875 -10.703125 1.203125 -12.21875 1.203125 -14.046875 
C 1.203125 -18.09375 5.296875 -21 9.796875 -21 
C 15.59375 -21 19.203125 -15.359375 21.203125 -10.296875 
z
" id="CMR17-121"/>
      </defs>
      <use transform="scale(0.996264)" xlink:href="#CMR17-68"/>
      <use transform="translate(70.393556 0)scale(0.996264)" xlink:href="#CMR17-101"/>
      <use transform="translate(110.879216 0)scale(0.996264)" xlink:href="#CMR17-110"/>
      <use transform="translate(161.774586 0)scale(0.996264)" xlink:href="#CMR17-115"/>
      <use transform="translate(197.575924 0)scale(0.996264)" xlink:href="#CMR17-105"/>
      <use transform="translate(222.446982 0)scale(0.996264)" xlink:href="#CMR17-116"/>
      <use transform="translate(255.125296 0)scale(0.996264)" xlink:href="#CMR17-121"/>
     </g>
    </g>
   </g>
   <g id="line2d_84">
    <path clip-path="url(#pcfe2679b4d)" d="M 184.440251 146.295 
L 184.440251 3.6 
" style="fill:none;stroke:#0c5da5;stroke-dasharray:19.2,4.8,3,4.8;stroke-dashoffset:0;stroke-width:3;"/>
   </g>
   <g id="patch_3">
    <path d="M 45.212587 146.295 
L 45.212587 3.6 
" style="fill:none;stroke:#000000;stroke-linecap:square;stroke-linejoin:miter;stroke-width:0.5;"/>
   </g>
   <g id="patch_4">
    <path d="M 240.512587 146.295 
L 240.512587 3.6 
" style="fill:none;stroke:#000000;stroke-linecap:square;stroke-linejoin:miter;stroke-width:0.5;"/>
   </g>
   <g id="patch_5">
    <path d="M 45.212587 146.295 
L 240.512587 146.295 
" style="fill:none;stroke:#000000;stroke-linecap:square;stroke-linejoin:miter;stroke-width:0.5;"/>
   </g>
   <g id="patch_6">
    <path d="M 45.212587 3.6 
L 240.512587 3.6 
" style="fill:none;stroke:#000000;stroke-linecap:square;stroke-linejoin:miter;stroke-width:0.5;"/>
   </g>
  </g>
 </g>
 <defs>
  <clipPath id="pcfe2679b4d">
   <rect height="142.695" width="195.3" x="45.212587" y="3.6"/>
  </clipPath>
 </defs>
</svg>
