<?xml version="1.0" encoding="utf-8" standalone="no"?>
<!DOCTYPE svg PUBLIC "-//W3C//DTD SVG 1.1//EN"
  "http://www.w3.org/Graphics/SVG/1.1/DTD/svg11.dtd">
<!-- Created with matplotlib (https://matplotlib.org/) -->
<svg height="167.564064pt" version="1.1" viewBox="0 0 244.112587 167.564064" width="244.112587pt" xmlns="http://www.w3.org/2000/svg" xmlns:xlink="http://www.w3.org/1999/xlink">
 <metadata>
  <rdf:RDF xmlns:cc="http://creativecommons.org/ns#" xmlns:dc="http://purl.org/dc/elements/1.1/" xmlns:rdf="http://www.w3.org/1999/02/22-rdf-syntax-ns#">
   <cc:Work>
    <dc:type rdf:resource="http://purl.org/dc/dcmitype/StillImage"/>
    <dc:date>2021-01-28T16:51:30.488412</dc:date>
    <dc:format>image/svg+xml</dc:format>
    <dc:creator>
     <cc:Agent>
      <dc:title>Matplotlib v3.3.0, https://matplotlib.org/</dc:title>
     </cc:Agent>
    </dc:creator>
   </cc:Work>
  </rdf:RDF>
 </metadata>
 <defs>
  <style type="text/css">*{stroke-linecap:butt;stroke-linejoin:round;}</style>
 </defs>
 <g id="figure_1">
  <g id="patch_1">
   <path d="M 0 167.564064 
L 244.112587 167.564064 
L 244.112587 0 
L 0 0 
z
" style="fill:none;"/>
  </g>
  <g id="axes_1">
   <g id="patch_2">
    <path d="M 45.212587 146.295 
L 240.512587 146.295 
L 240.512587 3.6 
L 45.212587 3.6 
z
" style="fill:#ffffff;"/>
   </g>
   <g id="PolyCollection_1">
    <defs>
     <path d="M 57.891965 -21.315399 
L 57.891965 -21.269064 
L 58.627417 -21.269064 
L 59.362869 -21.269064 
L 60.098321 -21.269064 
L 60.833772 -21.269064 
L 61.569224 -21.269064 
L 62.304676 -21.269064 
L 63.040128 -21.269064 
L 63.77558 -21.269064 
L 64.511032 -21.269064 
L 65.246484 -21.269064 
L 65.981936 -21.269064 
L 66.717388 -21.269064 
L 67.45284 -21.269064 
L 68.188292 -21.269064 
L 68.923743 -21.269064 
L 69.659195 -21.269064 
L 70.394647 -21.269064 
L 71.130099 -21.269064 
L 71.865551 -21.269064 
L 72.601003 -21.269064 
L 73.336455 -21.269064 
L 74.071907 -21.269064 
L 74.807359 -21.269064 
L 75.542811 -21.269064 
L 76.278263 -21.269064 
L 77.013715 -21.269064 
L 77.749166 -21.269064 
L 78.484618 -21.269064 
L 79.22007 -21.269064 
L 79.955522 -21.269064 
L 80.690974 -21.269064 
L 81.426426 -21.269064 
L 82.161878 -21.269064 
L 82.89733 -21.269064 
L 83.632782 -21.269064 
L 84.368234 -21.269064 
L 85.103686 -21.269064 
L 85.839137 -21.269064 
L 86.574589 -21.269064 
L 87.310041 -21.269064 
L 88.045493 -21.269064 
L 88.780945 -21.269064 
L 89.516397 -21.269064 
L 90.251849 -21.269064 
L 90.987301 -21.269064 
L 91.722753 -21.269064 
L 92.458205 -21.269064 
L 93.193657 -21.269064 
L 93.929109 -21.269064 
L 94.66456 -21.269064 
L 95.400012 -21.269064 
L 96.135464 -21.269064 
L 96.870916 -21.269064 
L 97.606368 -21.269064 
L 98.34182 -21.269064 
L 99.077272 -21.269064 
L 99.812724 -21.269064 
L 100.548176 -21.269064 
L 101.283628 -21.269064 
L 102.01908 -21.269064 
L 102.754531 -21.269064 
L 103.489983 -21.269064 
L 104.225435 -21.269064 
L 104.960887 -21.269064 
L 105.696339 -21.269064 
L 106.431791 -21.269064 
L 107.167243 -21.269064 
L 107.902695 -21.269064 
L 108.638147 -21.269064 
L 109.373599 -21.269064 
L 110.109051 -21.269064 
L 110.844503 -21.269064 
L 111.579954 -21.269064 
L 112.315406 -21.269064 
L 113.050858 -21.269064 
L 113.78631 -21.269064 
L 114.521762 -21.269064 
L 115.257214 -21.269064 
L 115.992666 -21.269064 
L 116.728118 -21.269064 
L 117.46357 -21.269064 
L 118.199022 -21.269064 
L 118.934474 -21.269064 
L 119.669925 -21.269064 
L 120.405377 -21.269064 
L 121.140829 -21.269064 
L 121.876281 -21.269064 
L 122.611733 -21.269064 
L 123.347185 -21.269064 
L 124.082637 -21.269064 
L 124.818089 -21.269064 
L 125.553541 -21.269064 
L 126.288993 -21.269064 
L 127.024445 -21.269064 
L 127.759896 -21.269064 
L 128.495348 -21.269064 
L 129.2308 -21.269064 
L 129.966252 -21.269064 
L 130.701704 -21.269064 
L 131.437156 -21.269064 
L 132.172608 -21.269064 
L 132.90806 -21.269064 
L 133.643512 -21.269064 
L 134.378964 -21.269064 
L 135.114416 -21.269064 
L 135.849868 -21.269064 
L 136.585319 -21.269064 
L 137.320771 -21.269064 
L 138.056223 -21.269064 
L 138.791675 -21.269064 
L 139.527127 -21.269064 
L 140.262579 -21.269064 
L 140.998031 -21.269064 
L 141.733483 -21.269064 
L 142.468935 -21.269064 
L 143.204387 -21.269064 
L 143.939839 -21.269064 
L 144.67529 -21.269064 
L 145.410742 -21.269064 
L 146.146194 -21.269064 
L 146.881646 -21.269064 
L 147.617098 -21.269064 
L 148.35255 -21.269064 
L 149.088002 -21.269064 
L 149.823454 -21.269064 
L 150.558906 -21.269064 
L 151.294358 -21.269064 
L 152.02981 -21.269064 
L 152.765262 -21.269064 
L 153.500713 -21.269064 
L 154.236165 -21.269064 
L 154.971617 -21.269064 
L 155.707069 -21.269064 
L 156.442521 -21.269064 
L 157.177973 -21.269064 
L 157.913425 -21.269064 
L 158.648877 -21.269064 
L 159.384329 -21.269064 
L 160.119781 -21.269064 
L 160.855233 -21.269064 
L 161.590684 -21.269064 
L 162.326136 -21.269064 
L 163.061588 -21.269064 
L 163.79704 -21.269064 
L 164.532492 -21.269064 
L 165.267944 -21.269064 
L 166.003396 -21.269064 
L 166.738848 -21.269064 
L 167.4743 -21.269064 
L 168.209752 -21.269064 
L 168.945204 -21.269064 
L 169.680655 -21.269064 
L 170.416107 -21.269064 
L 171.151559 -21.269064 
L 171.887011 -21.269064 
L 172.622463 -21.269064 
L 173.357915 -21.269064 
L 174.093367 -21.269064 
L 174.828819 -21.269064 
L 175.564271 -21.269064 
L 176.299723 -21.269064 
L 177.035175 -21.269064 
L 177.770627 -21.269064 
L 178.506078 -21.269064 
L 179.24153 -21.269064 
L 179.976982 -21.269064 
L 180.712434 -21.269064 
L 181.447886 -21.269064 
L 182.183338 -21.269064 
L 182.91879 -21.269064 
L 183.654242 -21.269064 
L 184.389694 -21.269064 
L 185.125146 -21.269064 
L 185.860598 -21.269064 
L 186.596049 -21.269064 
L 187.331501 -21.269064 
L 188.066953 -21.269064 
L 188.802405 -21.269064 
L 189.537857 -21.269064 
L 190.273309 -21.269064 
L 191.008761 -21.269064 
L 191.744213 -21.269064 
L 192.479665 -21.269064 
L 193.215117 -21.269064 
L 193.950569 -21.269064 
L 194.686021 -21.269064 
L 195.421472 -21.269064 
L 196.156924 -21.269064 
L 196.892376 -21.269064 
L 197.627828 -21.269064 
L 198.36328 -21.269064 
L 199.098732 -21.269064 
L 199.834184 -21.269064 
L 200.569636 -21.269064 
L 201.305088 -21.269064 
L 202.04054 -21.269064 
L 202.775992 -21.269064 
L 203.511443 -21.269064 
L 204.246895 -21.269064 
L 204.246895 -21.315381 
L 204.246895 -21.315381 
L 203.511443 -21.329172 
L 202.775992 -21.346532 
L 202.04054 -21.368222 
L 201.305088 -21.395125 
L 200.569636 -21.428253 
L 199.834184 -21.468753 
L 199.098732 -21.517919 
L 198.36328 -21.577189 
L 197.627828 -21.648151 
L 196.892376 -21.732543 
L 196.156924 -21.832247 
L 195.421472 -21.949286 
L 194.686021 -22.085816 
L 193.950569 -22.244116 
L 193.215117 -22.426577 
L 192.479665 -22.635689 
L 191.744213 -22.874029 
L 191.008761 -23.144245 
L 190.273309 -23.449041 
L 189.537857 -23.791161 
L 188.802405 -24.17337 
L 188.066953 -24.59843 
L 187.331501 -25.069077 
L 186.596049 -25.587987 
L 185.860598 -26.157742 
L 185.125146 -26.780779 
L 184.389694 -27.45934 
L 183.654242 -28.195407 
L 182.91879 -28.990631 
L 182.183338 -29.846259 
L 181.447886 -30.763055 
L 180.712434 -31.741219 
L 179.976982 -32.780329 
L 179.24153 -33.879274 
L 178.506078 -35.036234 
L 177.770627 -36.248664 
L 177.035175 -37.513331 
L 176.299723 -38.826383 
L 175.564271 -40.183459 
L 174.828819 -41.579846 
L 174.093367 -43.010683 
L 173.357915 -44.47119 
L 172.622463 -45.956933 
L 171.887011 -47.464104 
L 171.151559 -48.9898 
L 170.416107 -50.53229 
L 169.680655 -52.091247 
L 168.945204 -53.667936 
L 168.209752 -55.265334 
L 167.4743 -56.888169 
L 166.738848 -58.542884 
L 166.003396 -60.237496 
L 165.267944 -61.981367 
L 164.532492 -63.784897 
L 163.79704 -65.65913 
L 163.061588 -67.615305 
L 162.326136 -69.664371 
L 161.590684 -71.816473 
L 160.855233 -74.08046 
L 160.119781 -76.463408 
L 159.384329 -78.97021 
L 158.648877 -81.603231 
L 157.913425 -84.362064 
L 157.177973 -87.243379 
L 156.442521 -90.240889 
L 155.707069 -93.345421 
L 154.971617 -96.545096 
L 154.236165 -99.825593 
L 153.500713 -103.170499 
L 152.765262 -106.561708 
L 152.02981 -109.97986 
L 151.294358 -113.404789 
L 150.558906 -116.815955 
L 149.823454 -120.192856 
L 149.088002 -123.515381 
L 148.35255 -126.764105 
L 147.617098 -129.920515 
L 146.881646 -132.96717 
L 146.146194 -135.887789 
L 145.410742 -138.667286 
L 144.67529 -141.291762 
L 143.939839 -143.748465 
L 143.204387 -146.025746 
L 142.468935 -148.113016 
L 141.733483 -150.000731 
L 140.998031 -151.68041 
L 140.262579 -153.144691 
L 139.527127 -154.387433 
L 138.791675 -155.403863 
L 138.056223 -156.190748 
L 137.320771 -156.746595 
L 136.585319 -157.071846 
L 135.849868 -157.169064 
L 135.114416 -157.043093 
L 134.378964 -156.701159 
L 133.643512 -156.152919 
L 132.90806 -155.410445 
L 132.172608 -154.488129 
L 131.437156 -153.402523 
L 130.701704 -152.172118 
L 129.966252 -150.817071 
L 129.2308 -149.35889 
L 128.495348 -147.820108 
L 127.759896 -146.22394 
L 127.024445 -144.593952 
L 126.288993 -142.953746 
L 125.553541 -141.326671 
L 124.818089 -139.735551 
L 124.082637 -138.202449 
L 123.347185 -136.748436 
L 122.611733 -135.393367 
L 121.876281 -134.155666 
L 121.140829 -133.052078 
L 120.405377 -132.097412 
L 119.669925 -131.304248 
L 118.934474 -130.682618 
L 118.199022 -130.239656 
L 117.46357 -129.979235 
L 116.728118 -129.901605 
L 115.992666 -130.003049 
L 115.257214 -130.27558 
L 114.521762 -130.706714 
L 113.78631 -131.279331 
L 113.050858 -131.97166 
L 112.315406 -132.757401 
L 111.579954 -133.606003 
L 110.844503 -134.483099 
L 110.109051 -135.351105 
L 109.373599 -136.169971 
L 108.638147 -136.898066 
L 107.902695 -137.493163 
L 107.167243 -137.91352 
L 106.431791 -138.118978 
L 105.696339 -138.072074 
L 104.960887 -137.739106 
L 104.225435 -137.091116 
L 103.489983 -136.104748 
L 102.754531 -134.762954 
L 102.01908 -133.055519 
L 101.283628 -130.979382 
L 100.548176 -128.53875 
L 99.812724 -125.744982 
L 99.077272 -122.616282 
L 98.34182 -119.177184 
L 97.606368 -115.457862 
L 96.870916 -111.493298 
L 96.135464 -107.322329 
L 95.400012 -102.986617 
L 94.66456 -98.529575 
L 93.929109 -93.995286 
L 93.193657 -89.427452 
L 92.458205 -84.868407 
L 91.722753 -80.358229 
L 90.987301 -75.933956 
L 90.251849 -71.628952 
L 89.516397 -67.472415 
L 88.780945 -63.489044 
L 88.045493 -59.698852 
L 87.310041 -56.117146 
L 86.574589 -52.754625 
L 85.839137 -49.617615 
L 85.103686 -46.708397 
L 84.368234 -44.025622 
L 83.632782 -41.564782 
L 82.89733 -39.318714 
L 82.161878 -37.278117 
L 81.426426 -35.432064 
L 80.690974 -33.768485 
L 79.955522 -32.27461 
L 79.22007 -30.937367 
L 78.484618 -29.743717 
L 77.749166 -28.680928 
L 77.013715 -27.736795 
L 76.278263 -26.89979 
L 75.542811 -26.159169 
L 74.807359 -25.505024 
L 74.071907 -24.928305 
L 73.336455 -24.420797 
L 72.601003 -23.975091 
L 71.865551 -23.584519 
L 71.130099 -23.2431 
L 70.394647 -22.945466 
L 69.659195 -22.6868 
L 68.923743 -22.462768 
L 68.188292 -22.269468 
L 67.45284 -22.103375 
L 66.717388 -21.961304 
L 65.981936 -21.840368 
L 65.246484 -21.737957 
L 64.511032 -21.651707 
L 63.77558 -21.579486 
L 63.040128 -21.519376 
L 62.304676 -21.469658 
L 61.569224 -21.4288 
L 60.833772 -21.395446 
L 60.098321 -21.368402 
L 59.362869 -21.346627 
L 58.627417 -21.329218 
L 57.891965 -21.315399 
z
" id="m0ad7e70cdd" style="stroke:#008000;"/>
    </defs>
    <g clip-path="url(#pae8567b13b)">
     <use style="fill:#008000;fill-opacity:0.25;stroke:#008000;" x="0" xlink:href="#m0ad7e70cdd" y="167.564064"/>
    </g>
   </g>
   <g id="PolyCollection_2">
    <defs>
     <path d="M 54.08986 -21.32001 
L 54.08986 -21.269064 
L 54.982048 -21.269064 
L 55.874236 -21.269064 
L 56.766424 -21.269064 
L 57.658612 -21.269064 
L 58.550801 -21.269064 
L 59.442989 -21.269064 
L 60.335177 -21.269064 
L 61.227365 -21.269064 
L 62.119553 -21.269064 
L 63.011742 -21.269064 
L 63.90393 -21.269064 
L 64.796118 -21.269064 
L 65.688306 -21.269064 
L 66.580495 -21.269064 
L 67.472683 -21.269064 
L 68.364871 -21.269064 
L 69.257059 -21.269064 
L 70.149247 -21.269064 
L 71.041436 -21.269064 
L 71.933624 -21.269064 
L 72.825812 -21.269064 
L 73.718 -21.269064 
L 74.610188 -21.269064 
L 75.502377 -21.269064 
L 76.394565 -21.269064 
L 77.286753 -21.269064 
L 78.178941 -21.269064 
L 79.07113 -21.269064 
L 79.963318 -21.269064 
L 80.855506 -21.269064 
L 81.747694 -21.269064 
L 82.639882 -21.269064 
L 83.532071 -21.269064 
L 84.424259 -21.269064 
L 85.316447 -21.269064 
L 86.208635 -21.269064 
L 87.100823 -21.269064 
L 87.993012 -21.269064 
L 88.8852 -21.269064 
L 89.777388 -21.269064 
L 90.669576 -21.269064 
L 91.561765 -21.269064 
L 92.453953 -21.269064 
L 93.346141 -21.269064 
L 94.238329 -21.269064 
L 95.130517 -21.269064 
L 96.022706 -21.269064 
L 96.914894 -21.269064 
L 97.807082 -21.269064 
L 98.69927 -21.269064 
L 99.591458 -21.269064 
L 100.483647 -21.269064 
L 101.375835 -21.269064 
L 102.268023 -21.269064 
L 103.160211 -21.269064 
L 104.0524 -21.269064 
L 104.944588 -21.269064 
L 105.836776 -21.269064 
L 106.728964 -21.269064 
L 107.621152 -21.269064 
L 108.513341 -21.269064 
L 109.405529 -21.269064 
L 110.297717 -21.269064 
L 111.189905 -21.269064 
L 112.082093 -21.269064 
L 112.974282 -21.269064 
L 113.86647 -21.269064 
L 114.758658 -21.269064 
L 115.650846 -21.269064 
L 116.543035 -21.269064 
L 117.435223 -21.269064 
L 118.327411 -21.269064 
L 119.219599 -21.269064 
L 120.111787 -21.269064 
L 121.003976 -21.269064 
L 121.896164 -21.269064 
L 122.788352 -21.269064 
L 123.68054 -21.269064 
L 124.572728 -21.269064 
L 125.464917 -21.269064 
L 126.357105 -21.269064 
L 127.249293 -21.269064 
L 128.141481 -21.269064 
L 129.03367 -21.269064 
L 129.925858 -21.269064 
L 130.818046 -21.269064 
L 131.710234 -21.269064 
L 132.602422 -21.269064 
L 133.494611 -21.269064 
L 134.386799 -21.269064 
L 135.278987 -21.269064 
L 136.171175 -21.269064 
L 137.063363 -21.269064 
L 137.955552 -21.269064 
L 138.84774 -21.269064 
L 139.739928 -21.269064 
L 140.632116 -21.269064 
L 141.524305 -21.269064 
L 142.416493 -21.269064 
L 143.308681 -21.269064 
L 144.200869 -21.269064 
L 145.093057 -21.269064 
L 145.985246 -21.269064 
L 146.877434 -21.269064 
L 147.769622 -21.269064 
L 148.66181 -21.269064 
L 149.553998 -21.269064 
L 150.446187 -21.269064 
L 151.338375 -21.269064 
L 152.230563 -21.269064 
L 153.122751 -21.269064 
L 154.01494 -21.269064 
L 154.907128 -21.269064 
L 155.799316 -21.269064 
L 156.691504 -21.269064 
L 157.583692 -21.269064 
L 158.475881 -21.269064 
L 159.368069 -21.269064 
L 160.260257 -21.269064 
L 161.152445 -21.269064 
L 162.044633 -21.269064 
L 162.936822 -21.269064 
L 163.82901 -21.269064 
L 164.721198 -21.269064 
L 165.613386 -21.269064 
L 166.505574 -21.269064 
L 167.397763 -21.269064 
L 168.289951 -21.269064 
L 169.182139 -21.269064 
L 170.074327 -21.269064 
L 170.966516 -21.269064 
L 171.858704 -21.269064 
L 172.750892 -21.269064 
L 173.64308 -21.269064 
L 174.535268 -21.269064 
L 175.427457 -21.269064 
L 176.319645 -21.269064 
L 177.211833 -21.269064 
L 178.104021 -21.269064 
L 178.996209 -21.269064 
L 179.888398 -21.269064 
L 180.780586 -21.269064 
L 181.672774 -21.269064 
L 182.564962 -21.269064 
L 183.457151 -21.269064 
L 184.349339 -21.269064 
L 185.241527 -21.269064 
L 186.133715 -21.269064 
L 187.025903 -21.269064 
L 187.918092 -21.269064 
L 188.81028 -21.269064 
L 189.702468 -21.269064 
L 190.594656 -21.269064 
L 191.486844 -21.269064 
L 192.379033 -21.269064 
L 193.271221 -21.269064 
L 194.163409 -21.269064 
L 195.055597 -21.269064 
L 195.947786 -21.269064 
L 196.839974 -21.269064 
L 197.732162 -21.269064 
L 198.62435 -21.269064 
L 199.516538 -21.269064 
L 200.408727 -21.269064 
L 201.300915 -21.269064 
L 202.193103 -21.269064 
L 203.085291 -21.269064 
L 203.977479 -21.269064 
L 204.869668 -21.269064 
L 205.761856 -21.269064 
L 206.654044 -21.269064 
L 207.546232 -21.269064 
L 208.438421 -21.269064 
L 209.330609 -21.269064 
L 210.222797 -21.269064 
L 211.114985 -21.269064 
L 212.007173 -21.269064 
L 212.899362 -21.269064 
L 213.79155 -21.269064 
L 214.683738 -21.269064 
L 215.575926 -21.269064 
L 216.468114 -21.269064 
L 217.360303 -21.269064 
L 218.252491 -21.269064 
L 219.144679 -21.269064 
L 220.036867 -21.269064 
L 220.929056 -21.269064 
L 221.821244 -21.269064 
L 222.713432 -21.269064 
L 223.60562 -21.269064 
L 224.497808 -21.269064 
L 225.389997 -21.269064 
L 226.282185 -21.269064 
L 227.174373 -21.269064 
L 228.066561 -21.269064 
L 228.958749 -21.269064 
L 229.850938 -21.269064 
L 230.743126 -21.269064 
L 231.635314 -21.269064 
L 231.635314 -21.307371 
L 231.635314 -21.307371 
L 230.743126 -21.319095 
L 229.850938 -21.333889 
L 228.958749 -21.35239 
L 228.066561 -21.375324 
L 227.174373 -21.403501 
L 226.282185 -21.437814 
L 225.389997 -21.479229 
L 224.497808 -21.52877 
L 223.60562 -21.587505 
L 222.713432 -21.656524 
L 221.821244 -21.736906 
L 220.929056 -21.829694 
L 220.036867 -21.935861 
L 219.144679 -22.056272 
L 218.252491 -22.191657 
L 217.360303 -22.342574 
L 216.468114 -22.509392 
L 215.575926 -22.692271 
L 214.683738 -22.891158 
L 213.79155 -23.105796 
L 212.899362 -23.335742 
L 212.007173 -23.580407 
L 211.114985 -23.839099 
L 210.222797 -24.111091 
L 209.330609 -24.395685 
L 208.438421 -24.692293 
L 207.546232 -25.000512 
L 206.654044 -25.3202 
L 205.761856 -25.651539 
L 204.869668 -25.995086 
L 203.977479 -26.351808 
L 203.085291 -26.723093 
L 202.193103 -27.110735 
L 201.300915 -27.516902 
L 200.408727 -27.944075 
L 199.516538 -28.394972 
L 198.62435 -28.872456 
L 197.732162 -29.379435 
L 196.839974 -29.918757 
L 195.947786 -30.493116 
L 195.055597 -31.104962 
L 194.163409 -31.756428 
L 193.271221 -32.449279 
L 192.379033 -33.184884 
L 191.486844 -33.964199 
L 190.594656 -34.787785 
L 189.702468 -35.655824 
L 188.81028 -36.568155 
L 187.918092 -37.524313 
L 187.025903 -38.523561 
L 186.133715 -39.564916 
L 185.241527 -40.64716 
L 184.349339 -41.768833 
L 183.457151 -42.928215 
L 182.564962 -44.123283 
L 181.672774 -45.351659 
L 180.780586 -46.61055 
L 179.888398 -47.896687 
L 178.996209 -49.20627 
L 178.104021 -50.534927 
L 177.211833 -51.877705 
L 176.319645 -53.229079 
L 175.427457 -54.583006 
L 174.535268 -55.933017 
L 173.64308 -57.27235 
L 172.750892 -58.594114 
L 171.858704 -59.891503 
L 170.966516 -61.158022 
L 170.074327 -62.387745 
L 169.182139 -63.57557 
L 168.289951 -64.717481 
L 167.397763 -65.81079 
L 166.505574 -66.854354 
L 165.613386 -67.848752 
L 164.721198 -68.796417 
L 163.82901 -69.701712 
L 162.936822 -70.570946 
L 162.044633 -71.412322 
L 161.152445 -72.235829 
L 160.260257 -73.053063 
L 159.368069 -73.876997 
L 158.475881 -74.721696 
L 157.583692 -75.601996 
L 156.691504 -76.533144 
L 155.799316 -77.530423 
L 154.907128 -78.608763 
L 154.01494 -79.782354 
L 153.122751 -81.064274 
L 152.230563 -82.466135 
L 151.338375 -83.997757 
L 150.446187 -85.666888 
L 149.553998 -87.478959 
L 148.66181 -89.436891 
L 147.769622 -91.540956 
L 146.877434 -93.788688 
L 145.985246 -96.174857 
L 145.093057 -98.691493 
L 144.200869 -101.327965 
L 143.308681 -104.071126 
L 142.416493 -106.905497 
L 141.524305 -109.813508 
L 140.632116 -112.775784 
L 139.739928 -115.771471 
L 138.84774 -118.778603 
L 137.955552 -121.774487 
L 137.063363 -124.736128 
L 136.171175 -127.64065 
L 135.278987 -130.465736 
L 134.386799 -133.190059 
L 133.494611 -135.793695 
L 132.602422 -138.258516 
L 131.710234 -140.568547 
L 130.818046 -142.710264 
L 129.925858 -144.672846 
L 129.03367 -146.448348 
L 128.141481 -148.031795 
L 127.249293 -149.421184 
L 126.357105 -150.617401 
L 125.464917 -151.624024 
L 124.572728 -152.447044 
L 123.68054 -153.094478 
L 122.788352 -153.575904 
L 121.896164 -153.901926 
L 121.003976 -154.083574 
L 120.111787 -154.13169 
L 119.219599 -154.056293 
L 118.327411 -153.865981 
L 117.435223 -153.567383 
L 116.543035 -153.1647 
L 115.650846 -152.659353 
L 114.758658 -152.049784 
L 113.86647 -151.331395 
L 112.974282 -150.496671 
L 112.082093 -149.535456 
L 111.189905 -148.435405 
L 110.297717 -147.182571 
L 109.405529 -145.762106 
L 108.513341 -144.159059 
L 107.621152 -142.359205 
L 106.728964 -140.349885 
L 105.836776 -138.120797 
L 104.944588 -135.664711 
L 104.0524 -132.978057 
L 103.160211 -130.061368 
L 102.268023 -126.919548 
L 101.375835 -123.561964 
L 100.483647 -120.002347 
L 99.591458 -116.258529 
L 98.69927 -112.352016 
L 97.807082 -108.307442 
L 96.914894 -104.151913 
L 96.022706 -99.914301 
L 95.130517 -95.624495 
L 94.238329 -91.312672 
L 93.346141 -87.00859 
L 92.453953 -82.740953 
L 91.561765 -78.536849 
L 90.669576 -74.421291 
L 89.777388 -70.416849 
L 88.8852 -66.543401 
L 87.993012 -62.817968 
L 87.100823 -59.254654 
L 86.208635 -55.86466 
L 85.316447 -52.656372 
L 84.424259 -49.635503 
L 83.532071 -46.805274 
L 82.639882 -44.166631 
L 81.747694 -41.718476 
L 80.855506 -39.457907 
L 79.963318 -37.380457 
L 79.07113 -35.480337 
L 78.178941 -33.750652 
L 77.286753 -32.183625 
L 76.394565 -30.770786 
L 75.502377 -29.50316 
L 74.610188 -28.371431 
L 73.718 -27.366093 
L 72.825812 -26.477588 
L 71.933624 -25.696419 
L 71.041436 -25.013262 
L 70.149247 -24.419052 
L 69.257059 -23.905065 
L 68.364871 -23.462978 
L 67.472683 -23.084923 
L 66.580495 -22.763525 
L 65.688306 -22.491932 
L 64.796118 -22.263829 
L 63.90393 -22.073443 
L 63.011742 -21.915545 
L 62.119553 -21.785435 
L 61.227365 -21.678926 
L 60.335177 -21.592315 
L 59.442989 -21.522362 
L 58.550801 -21.466249 
L 57.658612 -21.42155 
L 56.766424 -21.386193 
L 55.874236 -21.358424 
L 54.982048 -21.336772 
L 54.08986 -21.32001 
z
" id="md0689d86e4" style="stroke:#ffa500;"/>
    </defs>
    <g clip-path="url(#pae8567b13b)">
     <use style="fill:#ffa500;fill-opacity:0.25;stroke:#ffa500;" x="0" xlink:href="#md0689d86e4" y="167.564064"/>
    </g>
   </g>
   <g id="matplotlib.axis_1">
    <g id="xtick_1">
     <g id="line2d_1">
      <path clip-path="url(#pae8567b13b)" d="M 112.166755 146.295 
L 112.166755 3.6 
" style="fill:none;stroke:#000000;stroke-dasharray:0.5,0.825;stroke-dashoffset:0;stroke-opacity:0.5;stroke-width:0.5;"/>
     </g>
     <g id="line2d_2">
      <defs>
       <path d="M 0 0 
L 0 -3 
" id="mb6915c25ff" style="stroke:#000000;stroke-width:0.5;"/>
      </defs>
      <g>
       <use style="stroke:#000000;stroke-width:0.5;" x="112.166755" xlink:href="#mb6915c25ff" y="146.295"/>
      </g>
     </g>
     <g id="line2d_3">
      <defs>
       <path d="M 0 0 
L 0 3 
" id="mcd9b4823b1" style="stroke:#000000;stroke-width:0.5;"/>
      </defs>
      <g>
       <use style="stroke:#000000;stroke-width:0.5;" x="112.166755" xlink:href="#mcd9b4823b1" y="3.6"/>
      </g>
     </g>
     <g id="text_1">
      <!-- $\mathdefault{1}$ -->
      <g transform="translate(108.264762 160.864588)scale(0.16 -0.16)">
       <defs>
        <path d="M 26.59375 63.796875 
C 26.59375 65.890625 26.5 66 25.09375 66 
C 21.203125 61.359375 15.296875 59.890625 9.703125 59.6875 
C 9.40625 59.6875 8.90625 59.6875 8.796875 59.5 
C 8.703125 59.296875 8.703125 59.09375 8.703125 57 
C 11.796875 57 17 57.59375 21 59.984375 
L 21 7.296875 
C 21 3.796875 20.796875 2.59375 12.203125 2.59375 
L 9.203125 2.59375 
L 9.203125 0 
C 14 0.09375 19 0.1875 23.796875 0.1875 
C 28.59375 0.1875 33.59375 0.09375 38.40625 0 
L 38.40625 2.59375 
L 35.40625 2.59375 
C 26.796875 2.59375 26.59375 3.6875 26.59375 7.296875 
z
" id="CMR17-49"/>
       </defs>
       <use transform="scale(0.996264)" xlink:href="#CMR17-49"/>
      </g>
     </g>
    </g>
    <g id="xtick_2">
     <g id="line2d_4">
      <path clip-path="url(#pae8567b13b)" d="M 192.009764 146.295 
L 192.009764 3.6 
" style="fill:none;stroke:#000000;stroke-dasharray:0.5,0.825;stroke-dashoffset:0;stroke-opacity:0.5;stroke-width:0.5;"/>
     </g>
     <g id="line2d_5">
      <g>
       <use style="stroke:#000000;stroke-width:0.5;" x="192.009764" xlink:href="#mb6915c25ff" y="146.295"/>
      </g>
     </g>
     <g id="line2d_6">
      <g>
       <use style="stroke:#000000;stroke-width:0.5;" x="192.009764" xlink:href="#mcd9b4823b1" y="3.6"/>
      </g>
     </g>
     <g id="text_2">
      <!-- $\mathdefault{2}$ -->
      <g transform="translate(188.107771 160.864588)scale(0.16 -0.16)">
       <defs>
        <path d="M 41.703125 15.46875 
L 39.90625 15.46875 
C 38.90625 8.390625 38.09375 7.1875 37.703125 6.59375 
C 37.203125 5.796875 30 5.796875 28.59375 5.796875 
L 9.40625 5.796875 
C 13 9.6875 20 16.765625 28.5 24.9375 
C 34.59375 30.71875 41.703125 37.5 41.703125 47.390625 
C 41.703125 59.1875 32.296875 66 21.796875 66 
C 10.796875 66 4.09375 56.296875 4.09375 47.296875 
C 4.09375 43.390625 7 42.890625 8.203125 42.890625 
C 9.203125 42.890625 12.203125 43.484375 12.203125 46.984375 
C 12.203125 50.09375 9.59375 51 8.203125 51 
C 7.59375 51 7 50.890625 6.59375 50.6875 
C 8.5 59.1875 14.296875 63.390625 20.40625 63.390625 
C 29.09375 63.390625 34.796875 56.5 34.796875 47.390625 
C 34.796875 38.703125 29.703125 31.21875 24 24.734375 
L 4.09375 2.296875 
L 4.09375 0 
L 39.296875 0 
z
" id="CMR17-50"/>
       </defs>
       <use transform="scale(0.996264)" xlink:href="#CMR17-50"/>
      </g>
     </g>
    </g>
    <g id="xtick_3">
     <g id="line2d_7">
      <defs>
       <path d="M 0 0 
L 0 -1.5 
" id="m30c7f9a546" style="stroke:#000000;stroke-width:0.5;"/>
      </defs>
      <g>
       <use style="stroke:#000000;stroke-width:0.5;" x="48.292348" xlink:href="#m30c7f9a546" y="146.295"/>
      </g>
     </g>
     <g id="line2d_8">
      <defs>
       <path d="M 0 0 
L 0 1.5 
" id="m60a5259482" style="stroke:#000000;stroke-width:0.5;"/>
      </defs>
      <g>
       <use style="stroke:#000000;stroke-width:0.5;" x="48.292348" xlink:href="#m60a5259482" y="3.6"/>
      </g>
     </g>
    </g>
    <g id="xtick_4">
     <g id="line2d_9">
      <g>
       <use style="stroke:#000000;stroke-width:0.5;" x="64.26095" xlink:href="#m30c7f9a546" y="146.295"/>
      </g>
     </g>
     <g id="line2d_10">
      <g>
       <use style="stroke:#000000;stroke-width:0.5;" x="64.26095" xlink:href="#m60a5259482" y="3.6"/>
      </g>
     </g>
    </g>
    <g id="xtick_5">
     <g id="line2d_11">
      <g>
       <use style="stroke:#000000;stroke-width:0.5;" x="80.229552" xlink:href="#m30c7f9a546" y="146.295"/>
      </g>
     </g>
     <g id="line2d_12">
      <g>
       <use style="stroke:#000000;stroke-width:0.5;" x="80.229552" xlink:href="#m60a5259482" y="3.6"/>
      </g>
     </g>
    </g>
    <g id="xtick_6">
     <g id="line2d_13">
      <g>
       <use style="stroke:#000000;stroke-width:0.5;" x="96.198154" xlink:href="#m30c7f9a546" y="146.295"/>
      </g>
     </g>
     <g id="line2d_14">
      <g>
       <use style="stroke:#000000;stroke-width:0.5;" x="96.198154" xlink:href="#m60a5259482" y="3.6"/>
      </g>
     </g>
    </g>
    <g id="xtick_7">
     <g id="line2d_15">
      <g>
       <use style="stroke:#000000;stroke-width:0.5;" x="128.135357" xlink:href="#m30c7f9a546" y="146.295"/>
      </g>
     </g>
     <g id="line2d_16">
      <g>
       <use style="stroke:#000000;stroke-width:0.5;" x="128.135357" xlink:href="#m60a5259482" y="3.6"/>
      </g>
     </g>
    </g>
    <g id="xtick_8">
     <g id="line2d_17">
      <g>
       <use style="stroke:#000000;stroke-width:0.5;" x="144.103959" xlink:href="#m30c7f9a546" y="146.295"/>
      </g>
     </g>
     <g id="line2d_18">
      <g>
       <use style="stroke:#000000;stroke-width:0.5;" x="144.103959" xlink:href="#m60a5259482" y="3.6"/>
      </g>
     </g>
    </g>
    <g id="xtick_9">
     <g id="line2d_19">
      <g>
       <use style="stroke:#000000;stroke-width:0.5;" x="160.072561" xlink:href="#m30c7f9a546" y="146.295"/>
      </g>
     </g>
     <g id="line2d_20">
      <g>
       <use style="stroke:#000000;stroke-width:0.5;" x="160.072561" xlink:href="#m60a5259482" y="3.6"/>
      </g>
     </g>
    </g>
    <g id="xtick_10">
     <g id="line2d_21">
      <g>
       <use style="stroke:#000000;stroke-width:0.5;" x="176.041162" xlink:href="#m30c7f9a546" y="146.295"/>
      </g>
     </g>
     <g id="line2d_22">
      <g>
       <use style="stroke:#000000;stroke-width:0.5;" x="176.041162" xlink:href="#m60a5259482" y="3.6"/>
      </g>
     </g>
    </g>
    <g id="xtick_11">
     <g id="line2d_23">
      <g>
       <use style="stroke:#000000;stroke-width:0.5;" x="207.978366" xlink:href="#m30c7f9a546" y="146.295"/>
      </g>
     </g>
     <g id="line2d_24">
      <g>
       <use style="stroke:#000000;stroke-width:0.5;" x="207.978366" xlink:href="#m60a5259482" y="3.6"/>
      </g>
     </g>
    </g>
    <g id="xtick_12">
     <g id="line2d_25">
      <g>
       <use style="stroke:#000000;stroke-width:0.5;" x="223.946968" xlink:href="#m30c7f9a546" y="146.295"/>
      </g>
     </g>
     <g id="line2d_26">
      <g>
       <use style="stroke:#000000;stroke-width:0.5;" x="223.946968" xlink:href="#m60a5259482" y="3.6"/>
      </g>
     </g>
    </g>
    <g id="xtick_13">
     <g id="line2d_27">
      <g>
       <use style="stroke:#000000;stroke-width:0.5;" x="239.915569" xlink:href="#m30c7f9a546" y="146.295"/>
      </g>
     </g>
     <g id="line2d_28">
      <g>
       <use style="stroke:#000000;stroke-width:0.5;" x="239.915569" xlink:href="#m60a5259482" y="3.6"/>
      </g>
     </g>
    </g>
   </g>
   <g id="matplotlib.axis_2">
    <g id="ytick_1">
     <g id="line2d_29">
      <path clip-path="url(#pae8567b13b)" d="M 45.212587 146.295 
L 240.512587 146.295 
" style="fill:none;stroke:#000000;stroke-dasharray:0.5,0.825;stroke-dashoffset:0;stroke-opacity:0.5;stroke-width:0.5;"/>
     </g>
     <g id="line2d_30">
      <defs>
       <path d="M 0 0 
L 3 0 
" id="mba337b4f8d" style="stroke:#000000;stroke-width:0.5;"/>
      </defs>
      <g>
       <use style="stroke:#000000;stroke-width:0.5;" x="45.212587" xlink:href="#mba337b4f8d" y="146.295"/>
      </g>
     </g>
     <g id="line2d_31">
      <defs>
       <path d="M 0 0 
L -3 0 
" id="m69c9d7970e" style="stroke:#000000;stroke-width:0.5;"/>
      </defs>
      <g>
       <use style="stroke:#000000;stroke-width:0.5;" x="240.512587" xlink:href="#m69c9d7970e" y="146.295"/>
      </g>
     </g>
     <g id="text_3">
      <!-- $\mathdefault{0.0}$ -->
      <g transform="translate(21.769064 151.829794)scale(0.16 -0.16)">
       <defs>
        <path d="M 42 31.84375 
C 42 37.96875 41.90625 48.421875 37.703125 56.453125 
C 34 63.484375 28.09375 66 22.90625 66 
C 18.09375 66 12 63.78125 8.203125 56.5625 
C 4.203125 49.015625 3.796875 39.671875 3.796875 31.84375 
C 3.796875 26.109375 3.90625 17.375 7 9.734375 
C 11.296875 -0.609375 19 -2 22.90625 -2 
C 27.5 -2 34.5 -0.109375 38.59375 9.4375 
C 41.59375 16.375 42 24.5 42 31.84375 
z
M 22.90625 -0.40625 
C 16.5 -0.40625 12.703125 5.125 11.296875 12.75 
C 10.203125 18.6875 10.203125 27.328125 10.203125 32.953125 
C 10.203125 40.6875 10.203125 47.109375 11.5 53.234375 
C 13.40625 61.78125 19 64.390625 22.90625 64.390625 
C 27 64.390625 32.296875 61.671875 34.203125 53.4375 
C 35.5 47.71875 35.59375 40.984375 35.59375 32.953125 
C 35.59375 26.421875 35.59375 18.375 34.40625 12.453125 
C 32.296875 1.5 26.40625 -0.40625 22.90625 -0.40625 
z
" id="CMR17-48"/>
        <path d="M 18.40625 4.796875 
C 18.40625 7.6875 16 9.6875 13.59375 9.6875 
C 10.703125 9.6875 8.703125 7.296875 8.703125 4.890625 
C 8.703125 2 11.09375 0 13.5 0 
C 16.40625 0 18.40625 2.390625 18.40625 4.796875 
z
" id="CMMI12-58"/>
       </defs>
       <use transform="scale(0.996264)" xlink:href="#CMR17-48"/>
       <use transform="translate(45.690477 0)scale(0.996264)" xlink:href="#CMMI12-58"/>
       <use transform="translate(72.787654 0)scale(0.996264)" xlink:href="#CMR17-48"/>
      </g>
     </g>
    </g>
    <g id="ytick_2">
     <g id="line2d_32">
      <path clip-path="url(#pae8567b13b)" d="M 45.212587 92.988754 
L 240.512587 92.988754 
" style="fill:none;stroke:#000000;stroke-dasharray:0.5,0.825;stroke-dashoffset:0;stroke-opacity:0.5;stroke-width:0.5;"/>
     </g>
     <g id="line2d_33">
      <g>
       <use style="stroke:#000000;stroke-width:0.5;" x="45.212587" xlink:href="#mba337b4f8d" y="92.988754"/>
      </g>
     </g>
     <g id="line2d_34">
      <g>
       <use style="stroke:#000000;stroke-width:0.5;" x="240.512587" xlink:href="#m69c9d7970e" y="92.988754"/>
      </g>
     </g>
     <g id="text_4">
      <!-- $\mathdefault{0.5}$ -->
      <g transform="translate(21.769064 98.523548)scale(0.16 -0.16)">
       <defs>
        <path d="M 11.40625 58.59375 
C 12.40625 58.1875 16.5 56.890625 20.703125 56.890625 
C 30 56.890625 35.09375 61.890625 38 64.6875 
C 38 65.484375 38 66 37.40625 66 
C 37.296875 66 37.09375 66 36.296875 65.59375 
C 32.796875 64.09375 28.703125 63 23.703125 63 
C 20.703125 63 16.203125 63.359375 11.296875 65.484375 
C 10.203125 66 10 66 9.90625 66 
C 9.40625 66 9.296875 65.890625 9.296875 63.90625 
L 9.296875 34.859375 
C 9.296875 33.015625 9.296875 32.5 10.296875 32.5 
C 10.796875 32.5 11 32.703125 11.5 33.421875 
C 14.703125 38.046875 19.09375 40 24.09375 40 
C 27.59375 40 35.09375 37.734375 35.09375 20.203125 
C 35.09375 16.984375 35.09375 11.1875 32.09375 6.59375 
C 29.59375 2.484375 25.703125 0.390625 21.40625 0.390625 
C 14.796875 0.390625 8.09375 4.984375 6.296875 12.6875 
C 6.703125 12.59375 7.5 12.390625 7.90625 12.390625 
C 9.203125 12.390625 11.703125 13.09375 11.703125 16.1875 
C 11.703125 18.890625 9.796875 20 7.90625 20 
C 5.59375 20 4.09375 18.59375 4.09375 15.796875 
C 4.09375 7.09375 11 -2 21.59375 -2 
C 31.90625 -2 41.703125 6.890625 41.703125 19.796875 
C 41.703125 32.09375 33.90625 41.59375 24.203125 41.59375 
C 19.09375 41.59375 14.796875 39.6875 11.40625 36 
z
" id="CMR17-53"/>
       </defs>
       <use transform="scale(0.996264)" xlink:href="#CMR17-48"/>
       <use transform="translate(45.690477 0)scale(0.996264)" xlink:href="#CMMI12-58"/>
       <use transform="translate(72.787654 0)scale(0.996264)" xlink:href="#CMR17-53"/>
      </g>
     </g>
    </g>
    <g id="ytick_3">
     <g id="line2d_35">
      <path clip-path="url(#pae8567b13b)" d="M 45.212587 39.682507 
L 240.512587 39.682507 
" style="fill:none;stroke:#000000;stroke-dasharray:0.5,0.825;stroke-dashoffset:0;stroke-opacity:0.5;stroke-width:0.5;"/>
     </g>
     <g id="line2d_36">
      <g>
       <use style="stroke:#000000;stroke-width:0.5;" x="45.212587" xlink:href="#mba337b4f8d" y="39.682507"/>
      </g>
     </g>
     <g id="line2d_37">
      <g>
       <use style="stroke:#000000;stroke-width:0.5;" x="240.512587" xlink:href="#m69c9d7970e" y="39.682507"/>
      </g>
     </g>
     <g id="text_5">
      <!-- $\mathdefault{1.0}$ -->
      <g transform="translate(21.769064 45.217301)scale(0.16 -0.16)">
       <use transform="scale(0.996264)" xlink:href="#CMR17-49"/>
       <use transform="translate(45.690477 0)scale(0.996264)" xlink:href="#CMMI12-58"/>
       <use transform="translate(72.787654 0)scale(0.996264)" xlink:href="#CMR17-48"/>
      </g>
     </g>
    </g>
    <g id="ytick_4">
     <g id="line2d_38">
      <defs>
       <path d="M 0 0 
L 1.5 0 
" id="md63d7dff7d" style="stroke:#000000;stroke-width:0.5;"/>
      </defs>
      <g>
       <use style="stroke:#000000;stroke-width:0.5;" x="45.212587" xlink:href="#md63d7dff7d" y="135.633751"/>
      </g>
     </g>
     <g id="line2d_39">
      <defs>
       <path d="M 0 0 
L -1.5 0 
" id="ma8ef2148a4" style="stroke:#000000;stroke-width:0.5;"/>
      </defs>
      <g>
       <use style="stroke:#000000;stroke-width:0.5;" x="240.512587" xlink:href="#ma8ef2148a4" y="135.633751"/>
      </g>
     </g>
    </g>
    <g id="ytick_5">
     <g id="line2d_40">
      <g>
       <use style="stroke:#000000;stroke-width:0.5;" x="45.212587" xlink:href="#md63d7dff7d" y="124.972501"/>
      </g>
     </g>
     <g id="line2d_41">
      <g>
       <use style="stroke:#000000;stroke-width:0.5;" x="240.512587" xlink:href="#ma8ef2148a4" y="124.972501"/>
      </g>
     </g>
    </g>
    <g id="ytick_6">
     <g id="line2d_42">
      <g>
       <use style="stroke:#000000;stroke-width:0.5;" x="45.212587" xlink:href="#md63d7dff7d" y="114.311252"/>
      </g>
     </g>
     <g id="line2d_43">
      <g>
       <use style="stroke:#000000;stroke-width:0.5;" x="240.512587" xlink:href="#ma8ef2148a4" y="114.311252"/>
      </g>
     </g>
    </g>
    <g id="ytick_7">
     <g id="line2d_44">
      <g>
       <use style="stroke:#000000;stroke-width:0.5;" x="45.212587" xlink:href="#md63d7dff7d" y="103.650003"/>
      </g>
     </g>
     <g id="line2d_45">
      <g>
       <use style="stroke:#000000;stroke-width:0.5;" x="240.512587" xlink:href="#ma8ef2148a4" y="103.650003"/>
      </g>
     </g>
    </g>
    <g id="ytick_8">
     <g id="line2d_46">
      <g>
       <use style="stroke:#000000;stroke-width:0.5;" x="45.212587" xlink:href="#md63d7dff7d" y="82.327504"/>
      </g>
     </g>
     <g id="line2d_47">
      <g>
       <use style="stroke:#000000;stroke-width:0.5;" x="240.512587" xlink:href="#ma8ef2148a4" y="82.327504"/>
      </g>
     </g>
    </g>
    <g id="ytick_9">
     <g id="line2d_48">
      <g>
       <use style="stroke:#000000;stroke-width:0.5;" x="45.212587" xlink:href="#md63d7dff7d" y="71.666255"/>
      </g>
     </g>
     <g id="line2d_49">
      <g>
       <use style="stroke:#000000;stroke-width:0.5;" x="240.512587" xlink:href="#ma8ef2148a4" y="71.666255"/>
      </g>
     </g>
    </g>
    <g id="ytick_10">
     <g id="line2d_50">
      <g>
       <use style="stroke:#000000;stroke-width:0.5;" x="45.212587" xlink:href="#md63d7dff7d" y="61.005006"/>
      </g>
     </g>
     <g id="line2d_51">
      <g>
       <use style="stroke:#000000;stroke-width:0.5;" x="240.512587" xlink:href="#ma8ef2148a4" y="61.005006"/>
      </g>
     </g>
    </g>
    <g id="ytick_11">
     <g id="line2d_52">
      <g>
       <use style="stroke:#000000;stroke-width:0.5;" x="45.212587" xlink:href="#md63d7dff7d" y="50.343757"/>
      </g>
     </g>
     <g id="line2d_53">
      <g>
       <use style="stroke:#000000;stroke-width:0.5;" x="240.512587" xlink:href="#ma8ef2148a4" y="50.343757"/>
      </g>
     </g>
    </g>
    <g id="ytick_12">
     <g id="line2d_54">
      <g>
       <use style="stroke:#000000;stroke-width:0.5;" x="45.212587" xlink:href="#md63d7dff7d" y="29.021258"/>
      </g>
     </g>
     <g id="line2d_55">
      <g>
       <use style="stroke:#000000;stroke-width:0.5;" x="240.512587" xlink:href="#ma8ef2148a4" y="29.021258"/>
      </g>
     </g>
    </g>
    <g id="ytick_13">
     <g id="line2d_56">
      <g>
       <use style="stroke:#000000;stroke-width:0.5;" x="45.212587" xlink:href="#md63d7dff7d" y="18.360009"/>
      </g>
     </g>
     <g id="line2d_57">
      <g>
       <use style="stroke:#000000;stroke-width:0.5;" x="240.512587" xlink:href="#ma8ef2148a4" y="18.360009"/>
      </g>
     </g>
    </g>
    <g id="ytick_14">
     <g id="line2d_58">
      <g>
       <use style="stroke:#000000;stroke-width:0.5;" x="45.212587" xlink:href="#md63d7dff7d" y="7.69876"/>
      </g>
     </g>
     <g id="line2d_59">
      <g>
       <use style="stroke:#000000;stroke-width:0.5;" x="240.512587" xlink:href="#ma8ef2148a4" y="7.69876"/>
      </g>
     </g>
    </g>
    <g id="text_6">
     <!-- Density -->
     <g transform="translate(14.669588 100.894381)rotate(-90)scale(0.16 -0.16)">
      <defs>
       <path d="M 5.203125 68 
L 5.203125 65.390625 
C 12.09375 65.390625 13.203125 65.390625 13.203125 60.90625 
L 13.203125 7.078125 
C 13.203125 2.59375 12.09375 2.59375 5.203125 2.59375 
L 5.203125 0 
L 37 0 
C 53.09375 0 66 14.734375 66 33.4375 
C 66 52.25 53.296875 68 37 68 
z
M 23.796875 2.59375 
C 19.796875 2.59375 19.59375 3.09375 19.59375 6.46875 
L 19.59375 61.5 
C 19.59375 64.890625 19.796875 65.390625 23.796875 65.390625 
L 35 65.390625 
C 43.296875 65.390625 58.59375 60.515625 58.59375 33.4375 
C 58.59375 19.40625 54.5 13.734375 52.59375 11.046875 
C 50.203125 7.96875 44.5 2.59375 35 2.59375 
z
" id="CMR17-68"/>
       <path d="M 38.09375 23.484375 
C 38.5 23.890625 38.5 24.09375 38.5 25.09375 
C 38.5 35.171875 33.09375 44 21.703125 44 
C 11.09375 44 2.703125 33.984375 2.703125 21.78125 
C 2.703125 8.65625 12.203125 -1 22.796875 -1 
C 34 -1 38.40625 9.671875 38.40625 11.796875 
C 38.40625 12.5 37.796875 12.5 37.59375 12.5 
C 36.90625 12.5 36.796875 12.296875 36.40625 11.078125 
C 34.203125 4.21875 28.703125 0.796875 23.5 0.796875 
C 19.203125 0.796875 14.90625 3.21875 12.203125 7.65625 
C 9.09375 12.796875 9.09375 18.75 9.09375 23.484375 
z
M 9.203125 25 
C 9.90625 39.234375 17.59375 42.390625 21.59375 42.390625 
C 28.40625 42.390625 33 36.0625 33.09375 25 
z
" id="CMR17-101"/>
       <path d="M 41.5 30.53125 
C 41.5 35.65625 40.5 44 28.703125 44 
C 20.796875 44 16.703125 37.875 15.203125 33.84375 
L 15.09375 33.84375 
L 15.09375 44 
L 3.296875 42.890625 
L 3.296875 40.28125 
C 9.203125 40.28125 10.09375 39.6875 10.09375 34.859375 
L 10.09375 6.921875 
C 10.09375 3.09375 9.703125 2.59375 3.296875 2.59375 
L 3.296875 0 
C 5.703125 0.1875 10.09375 0.1875 12.703125 0.1875 
C 15.296875 0.1875 19.796875 0.1875 22.203125 0 
L 22.203125 2.59375 
C 15.796875 2.59375 15.40625 3 15.40625 6.921875 
L 15.40625 26.21875 
C 15.40625 35.453125 21 42.390625 28 42.390625 
C 35.40625 42.390625 36.203125 35.765625 36.203125 30.9375 
L 36.203125 6.921875 
C 36.203125 3.09375 35.796875 2.59375 29.40625 2.59375 
L 29.40625 0 
C 31.796875 0.1875 36.203125 0.1875 38.796875 0.1875 
C 41.40625 0.1875 45.90625 0.1875 48.296875 0 
L 48.296875 2.59375 
C 41.90625 2.59375 41.5 3 41.5 6.921875 
z
" id="CMR17-110"/>
       <path d="M 30.90625 42 
C 30.90625 43.796875 30.796875 43.890625 30.203125 43.890625 
C 29.796875 43.890625 29.703125 43.796875 28.5 42.296875 
C 28.203125 41.890625 27.296875 40.890625 27 40.5 
C 23.796875 43.890625 19.296875 44 17.59375 44 
C 6.5 44 2.5 38.1875 2.5 32.390625 
C 2.5 23.390625 12.703125 21.296875 15.59375 20.6875 
C 21.90625 19.390625 24.09375 19 26.203125 17.1875 
C 27.5 16 29.703125 13.796875 29.703125 10.1875 
C 29.703125 6 27.296875 0.59375 18.09375 0.59375 
C 9.40625 0.59375 6.296875 7.1875 4.5 16 
C 4.203125 17.390625 4.203125 17.5 3.40625 17.5 
C 2.59375 17.5 2.5 17.390625 2.5 15.390625 
L 2.5 1 
C 2.5 -0.8125 2.59375 -0.90625 3.203125 -0.90625 
C 3.703125 -0.90625 3.796875 -0.8125 4.296875 0 
C 4.90625 0.890625 6.40625 3.296875 7 4.296875 
C 9 1.59375 12.5 -1 18.09375 -1 
C 28 -1 33.296875 4.390625 33.296875 12.1875 
C 33.296875 17.296875 30.59375 20 29.296875 21.1875 
C 26.296875 24.296875 22.796875 25 18.59375 25.796875 
C 13.09375 27 6.09375 28.390625 6.09375 34.5 
C 6.09375 37.09375 7.5 42.59375 17.59375 42.59375 
C 28.296875 42.59375 28.90625 32.59375 29.09375 29.390625 
C 29.203125 28.890625 29.703125 28.796875 30 28.796875 
C 30.90625 28.796875 30.90625 29.09375 30.90625 30.796875 
z
" id="CMR17-115"/>
       <path d="M 15.5 61.890625 
C 15.5 64.09375 13.703125 66 11.40625 66 
C 9.203125 66 7.296875 64.1875 7.296875 61.890625 
C 7.296875 59.6875 9.09375 57.796875 11.40625 57.796875 
C 13.59375 57.796875 15.5 59.59375 15.5 61.890625 
z
M 3.796875 42.890625 
L 3.796875 40.296875 
C 9.40625 40.296875 10.203125 39.6875 10.203125 34.859375 
L 10.203125 6.921875 
C 10.203125 3.09375 9.796875 2.59375 3.40625 2.59375 
L 3.40625 0 
C 5.796875 0.1875 10.09375 0.1875 12.59375 0.1875 
C 15 0.1875 19.09375 0.1875 21.40625 0 
L 21.40625 2.59375 
C 15.5 2.59375 15.296875 3.203125 15.296875 6.8125 
L 15.296875 44 
z
" id="CMR17-105"/>
       <path d="M 15.09375 40.390625 
L 29.09375 40.390625 
L 29.09375 43 
L 15.09375 43 
L 15.09375 62 
L 13.296875 62 
C 13.09375 51.4375 9.59375 42.1875 1.09375 41.984375 
L 1.09375 40.390625 
L 9.796875 40.390625 
L 9.796875 12.15625 
C 9.796875 10.234375 9.796875 -1 21.40625 -1 
C 27.296875 -1 30.703125 4.8125 30.703125 12.25 
L 30.703125 17.984375 
L 28.90625 17.984375 
L 28.90625 12.34375 
C 28.90625 5.421875 26.203125 0.796875 22 0.796875 
C 19.09375 0.796875 15.09375 2.796875 15.09375 11.953125 
z
" id="CMR17-116"/>
       <path d="M 39 34.109375 
C 41.5 40.296875 46 40.390625 47.40625 40.390625 
L 47.40625 43 
C 45.5 42.890625 43 42.796875 41.09375 42.796875 
C 39 42.796875 35.703125 42.796875 33.703125 43 
L 33.703125 40.390625 
C 37.5 40.09375 37.59375 37.25 37.59375 36.4375 
C 37.59375 35.4375 37.40625 34.921875 36.90625 33.71875 
L 26 6.390625 
L 14.09375 35.9375 
C 13.59375 37.15625 13.59375 37.859375 13.59375 37.96875 
C 13.59375 40.1875 15.90625 40.390625 18.296875 40.390625 
L 18.296875 43 
C 15.90625 42.796875 11.59375 42.796875 9.09375 42.796875 
C 6.40625 42.796875 3.203125 42.796875 1 43 
L 1 40.390625 
C 6.40625 40.390625 7 39.890625 8.296875 36.640625 
L 23.203125 -0.484375 
C 18.703125 -12.421875 16.09375 -19.40625 9.796875 -19.40625 
C 8.703125 -19.40625 6.203125 -19.109375 4.40625 -17.28125 
C 6.703125 -17.078125 7.703125 -15.65625 7.703125 -13.9375 
C 7.703125 -12.21875 6.5 -10.703125 4.5 -10.703125 
C 2.296875 -10.703125 1.203125 -12.21875 1.203125 -14.046875 
C 1.203125 -18.09375 5.296875 -21 9.796875 -21 
C 15.59375 -21 19.203125 -15.359375 21.203125 -10.296875 
z
" id="CMR17-121"/>
      </defs>
      <use transform="scale(0.996264)" xlink:href="#CMR17-68"/>
      <use transform="translate(70.393556 0)scale(0.996264)" xlink:href="#CMR17-101"/>
      <use transform="translate(110.879216 0)scale(0.996264)" xlink:href="#CMR17-110"/>
      <use transform="translate(161.774586 0)scale(0.996264)" xlink:href="#CMR17-115"/>
      <use transform="translate(197.575924 0)scale(0.996264)" xlink:href="#CMR17-105"/>
      <use transform="translate(222.446982 0)scale(0.996264)" xlink:href="#CMR17-116"/>
      <use transform="translate(255.125296 0)scale(0.996264)" xlink:href="#CMR17-121"/>
     </g>
    </g>
   </g>
   <g id="line2d_60">
    <path clip-path="url(#pae8567b13b)" d="M 119.090889 146.295 
L 119.090889 3.6 
" style="fill:none;stroke:#0c5da5;stroke-dasharray:19.2,4.8,3,4.8;stroke-dashoffset:0;stroke-width:3;"/>
   </g>
   <g id="patch_3">
    <path d="M 45.212587 146.295 
L 45.212587 3.6 
" style="fill:none;stroke:#000000;stroke-linecap:square;stroke-linejoin:miter;stroke-width:0.5;"/>
   </g>
   <g id="patch_4">
    <path d="M 240.512587 146.295 
L 240.512587 3.6 
" style="fill:none;stroke:#000000;stroke-linecap:square;stroke-linejoin:miter;stroke-width:0.5;"/>
   </g>
   <g id="patch_5">
    <path d="M 45.212587 146.295 
L 240.512587 146.295 
" style="fill:none;stroke:#000000;stroke-linecap:square;stroke-linejoin:miter;stroke-width:0.5;"/>
   </g>
   <g id="patch_6">
    <path d="M 45.212587 3.6 
L 240.512587 3.6 
" style="fill:none;stroke:#000000;stroke-linecap:square;stroke-linejoin:miter;stroke-width:0.5;"/>
   </g>
  </g>
 </g>
 <defs>
  <clipPath id="pae8567b13b">
   <rect height="142.695" width="195.3" x="45.212587" y="3.6"/>
  </clipPath>
 </defs>
</svg>
