<?xml version="1.0" encoding="utf-8" standalone="no"?>
<!DOCTYPE svg PUBLIC "-//W3C//DTD SVG 1.1//EN"
  "http://www.w3.org/Graphics/SVG/1.1/DTD/svg11.dtd">
<!-- Created with matplotlib (https://matplotlib.org/) -->
<svg height="167.564064pt" version="1.1" viewBox="0 0 251.916574 167.564064" width="251.916574pt" xmlns="http://www.w3.org/2000/svg" xmlns:xlink="http://www.w3.org/1999/xlink">
 <metadata>
  <rdf:RDF xmlns:cc="http://creativecommons.org/ns#" xmlns:dc="http://purl.org/dc/elements/1.1/" xmlns:rdf="http://www.w3.org/1999/02/22-rdf-syntax-ns#">
   <cc:Work>
    <dc:type rdf:resource="http://purl.org/dc/dcmitype/StillImage"/>
    <dc:date>2021-01-28T16:52:33.529691</dc:date>
    <dc:format>image/svg+xml</dc:format>
    <dc:creator>
     <cc:Agent>
      <dc:title>Matplotlib v3.3.0, https://matplotlib.org/</dc:title>
     </cc:Agent>
    </dc:creator>
   </cc:Work>
  </rdf:RDF>
 </metadata>
 <defs>
  <style type="text/css">*{stroke-linecap:butt;stroke-linejoin:round;}</style>
 </defs>
 <g id="figure_1">
  <g id="patch_1">
   <path d="M 0 167.564064 
L 251.916574 167.564064 
L 251.916574 0 
L 0 0 
z
" style="fill:none;"/>
  </g>
  <g id="axes_1">
   <g id="patch_2">
    <path d="M 53.016574 146.295 
L 248.316574 146.295 
L 248.316574 3.6 
L 53.016574 3.6 
z
" style="fill:#ffffff;"/>
   </g>
   <g id="PolyCollection_1">
    <defs>
     <path d="M 61.893847 -21.402429 
L 61.893847 -21.269064 
L 62.786035 -21.269064 
L 63.678223 -21.269064 
L 64.570411 -21.269064 
L 65.462599 -21.269064 
L 66.354788 -21.269064 
L 67.246976 -21.269064 
L 68.139164 -21.269064 
L 69.031352 -21.269064 
L 69.92354 -21.269064 
L 70.815729 -21.269064 
L 71.707917 -21.269064 
L 72.600105 -21.269064 
L 73.492293 -21.269064 
L 74.384482 -21.269064 
L 75.27667 -21.269064 
L 76.168858 -21.269064 
L 77.061046 -21.269064 
L 77.953234 -21.269064 
L 78.845423 -21.269064 
L 79.737611 -21.269064 
L 80.629799 -21.269064 
L 81.521987 -21.269064 
L 82.414175 -21.269064 
L 83.306364 -21.269064 
L 84.198552 -21.269064 
L 85.09074 -21.269064 
L 85.982928 -21.269064 
L 86.875117 -21.269064 
L 87.767305 -21.269064 
L 88.659493 -21.269064 
L 89.551681 -21.269064 
L 90.443869 -21.269064 
L 91.336058 -21.269064 
L 92.228246 -21.269064 
L 93.120434 -21.269064 
L 94.012622 -21.269064 
L 94.90481 -21.269064 
L 95.796999 -21.269064 
L 96.689187 -21.269064 
L 97.581375 -21.269064 
L 98.473563 -21.269064 
L 99.365752 -21.269064 
L 100.25794 -21.269064 
L 101.150128 -21.269064 
L 102.042316 -21.269064 
L 102.934504 -21.269064 
L 103.826693 -21.269064 
L 104.718881 -21.269064 
L 105.611069 -21.269064 
L 106.503257 -21.269064 
L 107.395445 -21.269064 
L 108.287634 -21.269064 
L 109.179822 -21.269064 
L 110.07201 -21.269064 
L 110.964198 -21.269064 
L 111.856387 -21.269064 
L 112.748575 -21.269064 
L 113.640763 -21.269064 
L 114.532951 -21.269064 
L 115.425139 -21.269064 
L 116.317328 -21.269064 
L 117.209516 -21.269064 
L 118.101704 -21.269064 
L 118.993892 -21.269064 
L 119.88608 -21.269064 
L 120.778269 -21.269064 
L 121.670457 -21.269064 
L 122.562645 -21.269064 
L 123.454833 -21.269064 
L 124.347022 -21.269064 
L 125.23921 -21.269064 
L 126.131398 -21.269064 
L 127.023586 -21.269064 
L 127.915774 -21.269064 
L 128.807963 -21.269064 
L 129.700151 -21.269064 
L 130.592339 -21.269064 
L 131.484527 -21.269064 
L 132.376715 -21.269064 
L 133.268904 -21.269064 
L 134.161092 -21.269064 
L 135.05328 -21.269064 
L 135.945468 -21.269064 
L 136.837657 -21.269064 
L 137.729845 -21.269064 
L 138.622033 -21.269064 
L 139.514221 -21.269064 
L 140.406409 -21.269064 
L 141.298598 -21.269064 
L 142.190786 -21.269064 
L 143.082974 -21.269064 
L 143.975162 -21.269064 
L 144.86735 -21.269064 
L 145.759539 -21.269064 
L 146.651727 -21.269064 
L 147.543915 -21.269064 
L 148.436103 -21.269064 
L 149.328292 -21.269064 
L 150.22048 -21.269064 
L 151.112668 -21.269064 
L 152.004856 -21.269064 
L 152.897044 -21.269064 
L 153.789233 -21.269064 
L 154.681421 -21.269064 
L 155.573609 -21.269064 
L 156.465797 -21.269064 
L 157.357985 -21.269064 
L 158.250174 -21.269064 
L 159.142362 -21.269064 
L 160.03455 -21.269064 
L 160.926738 -21.269064 
L 161.818927 -21.269064 
L 162.711115 -21.269064 
L 163.603303 -21.269064 
L 164.495491 -21.269064 
L 165.387679 -21.269064 
L 166.279868 -21.269064 
L 167.172056 -21.269064 
L 168.064244 -21.269064 
L 168.956432 -21.269064 
L 169.84862 -21.269064 
L 170.740809 -21.269064 
L 171.632997 -21.269064 
L 172.525185 -21.269064 
L 173.417373 -21.269064 
L 174.309562 -21.269064 
L 175.20175 -21.269064 
L 176.093938 -21.269064 
L 176.986126 -21.269064 
L 177.878314 -21.269064 
L 178.770503 -21.269064 
L 179.662691 -21.269064 
L 180.554879 -21.269064 
L 181.447067 -21.269064 
L 182.339255 -21.269064 
L 183.231444 -21.269064 
L 184.123632 -21.269064 
L 185.01582 -21.269064 
L 185.908008 -21.269064 
L 186.800196 -21.269064 
L 187.692385 -21.269064 
L 188.584573 -21.269064 
L 189.476761 -21.269064 
L 190.368949 -21.269064 
L 191.261138 -21.269064 
L 192.153326 -21.269064 
L 193.045514 -21.269064 
L 193.937702 -21.269064 
L 194.82989 -21.269064 
L 195.722079 -21.269064 
L 196.614267 -21.269064 
L 197.506455 -21.269064 
L 198.398643 -21.269064 
L 199.290831 -21.269064 
L 200.18302 -21.269064 
L 201.075208 -21.269064 
L 201.967396 -21.269064 
L 202.859584 -21.269064 
L 203.751773 -21.269064 
L 204.643961 -21.269064 
L 205.536149 -21.269064 
L 206.428337 -21.269064 
L 207.320525 -21.269064 
L 208.212714 -21.269064 
L 209.104902 -21.269064 
L 209.99709 -21.269064 
L 210.889278 -21.269064 
L 211.781466 -21.269064 
L 212.673655 -21.269064 
L 213.565843 -21.269064 
L 214.458031 -21.269064 
L 215.350219 -21.269064 
L 216.242408 -21.269064 
L 217.134596 -21.269064 
L 218.026784 -21.269064 
L 218.918972 -21.269064 
L 219.81116 -21.269064 
L 220.703349 -21.269064 
L 221.595537 -21.269064 
L 222.487725 -21.269064 
L 223.379913 -21.269064 
L 224.272101 -21.269064 
L 225.16429 -21.269064 
L 226.056478 -21.269064 
L 226.948666 -21.269064 
L 227.840854 -21.269064 
L 228.733043 -21.269064 
L 229.625231 -21.269064 
L 230.517419 -21.269064 
L 231.409607 -21.269064 
L 232.301795 -21.269064 
L 233.193984 -21.269064 
L 234.086172 -21.269064 
L 234.97836 -21.269064 
L 235.870548 -21.269064 
L 236.762736 -21.269064 
L 237.654925 -21.269064 
L 238.547113 -21.269064 
L 239.439301 -21.269064 
L 239.439301 -21.304657 
L 239.439301 -21.304657 
L 238.547113 -21.316399 
L 237.654925 -21.331433 
L 236.762736 -21.350484 
L 235.870548 -21.374376 
L 234.97836 -21.404026 
L 234.086172 -21.440433 
L 233.193984 -21.484666 
L 232.301795 -21.537831 
L 231.409607 -21.601045 
L 230.517419 -21.675391 
L 229.625231 -21.761867 
L 228.733043 -21.861338 
L 227.840854 -21.974469 
L 226.948666 -22.101676 
L 226.056478 -22.24306 
L 225.16429 -22.398365 
L 224.272101 -22.566936 
L 223.379913 -22.7477 
L 222.487725 -22.939157 
L 221.595537 -23.139404 
L 220.703349 -23.346173 
L 219.81116 -23.556893 
L 218.918972 -23.76878 
L 218.026784 -23.978937 
L 217.134596 -24.184467 
L 216.242408 -24.382595 
L 215.350219 -24.570782 
L 214.458031 -24.74683 
L 213.565843 -24.908972 
L 212.673655 -25.055928 
L 211.781466 -25.186936 
L 210.889278 -25.301753 
L 209.99709 -25.400616 
L 209.104902 -25.484178 
L 208.212714 -25.553419 
L 207.320525 -25.609542 
L 206.428337 -25.653864 
L 205.536149 -25.68771 
L 204.643961 -25.712325 
L 203.751773 -25.728809 
L 202.859584 -25.738083 
L 201.967396 -25.740898 
L 201.075208 -25.737871 
L 200.18302 -25.729566 
L 199.290831 -25.716598 
L 198.398643 -25.699763 
L 197.506455 -25.680172 
L 196.614267 -25.659392 
L 195.722079 -25.639565 
L 194.82989 -25.62351 
L 193.937702 -25.614787 
L 193.045514 -25.617722 
L 192.153326 -25.637383 
L 191.261138 -25.679522 
L 190.368949 -25.75046 
L 189.476761 -25.856945 
L 188.584573 -26.005972 
L 187.692385 -26.204586 
L 186.800196 -26.459666 
L 185.908008 -26.777716 
L 185.01582 -27.164649 
L 184.123632 -27.625592 
L 183.231444 -28.164719 
L 182.339255 -28.785095 
L 181.447067 -29.488566 
L 180.554879 -30.275683 
L 179.662691 -31.145656 
L 178.770503 -32.096363 
L 177.878314 -33.124387 
L 176.986126 -34.225112 
L 176.093938 -35.392852 
L 175.20175 -36.621029 
L 174.309562 -37.902387 
L 173.417373 -39.229248 
L 172.525185 -40.593797 
L 171.632997 -41.988381 
L 170.740809 -43.405825 
L 169.84862 -44.839742 
L 168.956432 -46.284824 
L 168.064244 -47.737091 
L 167.172056 -49.194104 
L 166.279868 -50.655091 
L 165.387679 -52.12101 
L 164.495491 -53.594516 
L 163.603303 -55.079837 
L 162.711115 -56.582555 
L 161.818927 -58.109302 
L 160.926738 -59.667376 
L 160.03455 -61.264305 
L 159.142362 -62.907371 
L 158.250174 -64.603113 
L 157.357985 -66.356863 
L 156.465797 -68.172305 
L 155.573609 -70.051122 
L 154.681421 -71.992724 
L 153.789233 -73.994103 
L 152.897044 -76.04981 
L 152.004856 -78.152073 
L 151.112668 -80.291055 
L 150.22048 -82.45524 
L 149.328292 -84.631936 
L 148.436103 -86.807859 
L 147.543915 -88.969789 
L 146.651727 -91.105243 
L 145.759539 -93.203131 
L 144.86735 -95.254368 
L 143.975162 -97.25239 
L 143.082974 -99.193549 
L 142.190786 -101.077363 
L 141.298598 -102.906599 
L 140.406409 -104.687179 
L 139.514221 -106.42792 
L 138.622033 -108.140105 
L 137.729845 -109.83692 
L 136.837657 -111.532771 
L 135.945468 -113.24252 
L 135.05328 -114.980679 
L 134.161092 -116.760586 
L 133.268904 -118.593619 
L 132.376715 -120.488459 
L 131.484527 -122.450453 
L 130.592339 -124.481081 
L 129.700151 -126.577571 
L 128.807963 -128.732656 
L 127.915774 -130.934489 
L 127.023586 -133.166732 
L 126.131398 -135.408795 
L 125.23921 -137.636245 
L 124.347022 -139.821356 
L 123.454833 -141.933792 
L 122.562645 -143.941397 
L 121.670457 -145.81108 
L 120.778269 -147.509745 
L 119.88608 -149.005247 
L 118.993892 -150.267334 
L 118.101704 -151.268532 
L 117.209516 -151.984943 
L 116.317328 -152.39692 
L 115.425139 -152.48959 
L 114.532951 -152.253194 
L 113.640763 -151.683252 
L 112.748575 -150.780514 
L 111.856387 -149.550741 
L 110.964198 -148.004301 
L 110.07201 -146.155614 
L 109.179822 -144.022484 
L 108.287634 -141.625347 
L 107.395445 -138.986477 
L 106.503257 -136.129197 
L 105.611069 -133.077131 
L 104.718881 -129.853527 
L 103.826693 -126.480704 
L 102.934504 -122.979617 
L 102.042316 -119.369575 
L 101.150128 -115.668113 
L 100.25794 -111.890999 
L 99.365752 -108.052393 
L 98.473563 -104.165093 
L 97.581375 -100.24089 
L 96.689187 -96.290951 
L 95.796999 -92.326235 
L 94.90481 -88.357878 
L 94.012622 -84.397532 
L 93.120434 -80.45763 
L 92.228246 -76.551539 
L 91.336058 -72.693606 
L 90.443869 -68.899089 
L 89.551681 -65.183964 
L 88.659493 -61.564637 
L 87.767305 -58.057563 
L 86.875117 -54.678819 
L 85.982928 -51.443636 
L 85.09074 -48.365936 
L 84.198552 -45.457901 
L 83.306364 -42.72959 
L 82.414175 -40.188644 
L 81.521987 -37.840078 
L 80.629799 -35.686178 
L 79.737611 -33.726509 
L 78.845423 -31.958014 
L 77.953234 -30.375213 
L 77.061046 -28.970477 
L 76.168858 -27.734357 
L 75.27667 -26.655951 
L 74.384482 -25.723293 
L 73.492293 -24.923739 
L 72.600105 -24.24433 
L 71.707917 -23.672132 
L 70.815729 -23.194523 
L 69.92354 -22.799438 
L 69.031352 -22.475559 
L 68.139164 -22.212451 
L 67.246976 -22.000648 
L 66.354788 -21.831695 
L 65.462599 -21.698151 
L 64.570411 -21.593559 
L 63.678223 -21.512391 
L 62.786035 -21.449979 
L 61.893847 -21.402429 
z
" id="mb693f2f71e" style="stroke:#008000;"/>
    </defs>
    <g clip-path="url(#pd11d61efbc)">
     <use style="fill:#008000;fill-opacity:0.25;stroke:#008000;" x="0" xlink:href="#mb693f2f71e" y="167.564064"/>
    </g>
   </g>
   <g id="PolyCollection_2">
    <defs>
     <path d="M 69.16384 -21.397173 
L 69.16384 -21.269064 
L 70.01599 -21.269064 
L 70.868139 -21.269064 
L 71.720289 -21.269064 
L 72.572438 -21.269064 
L 73.424587 -21.269064 
L 74.276737 -21.269064 
L 75.128886 -21.269064 
L 75.981036 -21.269064 
L 76.833185 -21.269064 
L 77.685335 -21.269064 
L 78.537484 -21.269064 
L 79.389634 -21.269064 
L 80.241783 -21.269064 
L 81.093933 -21.269064 
L 81.946082 -21.269064 
L 82.798232 -21.269064 
L 83.650381 -21.269064 
L 84.50253 -21.269064 
L 85.35468 -21.269064 
L 86.206829 -21.269064 
L 87.058979 -21.269064 
L 87.911128 -21.269064 
L 88.763278 -21.269064 
L 89.615427 -21.269064 
L 90.467577 -21.269064 
L 91.319726 -21.269064 
L 92.171876 -21.269064 
L 93.024025 -21.269064 
L 93.876175 -21.269064 
L 94.728324 -21.269064 
L 95.580474 -21.269064 
L 96.432623 -21.269064 
L 97.284772 -21.269064 
L 98.136922 -21.269064 
L 98.989071 -21.269064 
L 99.841221 -21.269064 
L 100.69337 -21.269064 
L 101.54552 -21.269064 
L 102.397669 -21.269064 
L 103.249819 -21.269064 
L 104.101968 -21.269064 
L 104.954118 -21.269064 
L 105.806267 -21.269064 
L 106.658417 -21.269064 
L 107.510566 -21.269064 
L 108.362715 -21.269064 
L 109.214865 -21.269064 
L 110.067014 -21.269064 
L 110.919164 -21.269064 
L 111.771313 -21.269064 
L 112.623463 -21.269064 
L 113.475612 -21.269064 
L 114.327762 -21.269064 
L 115.179911 -21.269064 
L 116.032061 -21.269064 
L 116.88421 -21.269064 
L 117.73636 -21.269064 
L 118.588509 -21.269064 
L 119.440659 -21.269064 
L 120.292808 -21.269064 
L 121.144957 -21.269064 
L 121.997107 -21.269064 
L 122.849256 -21.269064 
L 123.701406 -21.269064 
L 124.553555 -21.269064 
L 125.405705 -21.269064 
L 126.257854 -21.269064 
L 127.110004 -21.269064 
L 127.962153 -21.269064 
L 128.814303 -21.269064 
L 129.666452 -21.269064 
L 130.518602 -21.269064 
L 131.370751 -21.269064 
L 132.2229 -21.269064 
L 133.07505 -21.269064 
L 133.927199 -21.269064 
L 134.779349 -21.269064 
L 135.631498 -21.269064 
L 136.483648 -21.269064 
L 137.335797 -21.269064 
L 138.187947 -21.269064 
L 139.040096 -21.269064 
L 139.892246 -21.269064 
L 140.744395 -21.269064 
L 141.596545 -21.269064 
L 142.448694 -21.269064 
L 143.300844 -21.269064 
L 144.152993 -21.269064 
L 145.005142 -21.269064 
L 145.857292 -21.269064 
L 146.709441 -21.269064 
L 147.561591 -21.269064 
L 148.41374 -21.269064 
L 149.26589 -21.269064 
L 150.118039 -21.269064 
L 150.970189 -21.269064 
L 151.822338 -21.269064 
L 152.674488 -21.269064 
L 153.526637 -21.269064 
L 154.378787 -21.269064 
L 155.230936 -21.269064 
L 156.083085 -21.269064 
L 156.935235 -21.269064 
L 157.787384 -21.269064 
L 158.639534 -21.269064 
L 159.491683 -21.269064 
L 160.343833 -21.269064 
L 161.195982 -21.269064 
L 162.048132 -21.269064 
L 162.900281 -21.269064 
L 163.752431 -21.269064 
L 164.60458 -21.269064 
L 165.45673 -21.269064 
L 166.308879 -21.269064 
L 167.161029 -21.269064 
L 168.013178 -21.269064 
L 168.865327 -21.269064 
L 169.717477 -21.269064 
L 170.569626 -21.269064 
L 171.421776 -21.269064 
L 172.273925 -21.269064 
L 173.126075 -21.269064 
L 173.978224 -21.269064 
L 174.830374 -21.269064 
L 175.682523 -21.269064 
L 176.534673 -21.269064 
L 177.386822 -21.269064 
L 178.238972 -21.269064 
L 179.091121 -21.269064 
L 179.94327 -21.269064 
L 180.79542 -21.269064 
L 181.647569 -21.269064 
L 182.499719 -21.269064 
L 183.351868 -21.269064 
L 184.204018 -21.269064 
L 185.056167 -21.269064 
L 185.908317 -21.269064 
L 186.760466 -21.269064 
L 187.612616 -21.269064 
L 188.464765 -21.269064 
L 189.316915 -21.269064 
L 190.169064 -21.269064 
L 191.021214 -21.269064 
L 191.873363 -21.269064 
L 192.725512 -21.269064 
L 193.577662 -21.269064 
L 194.429811 -21.269064 
L 195.281961 -21.269064 
L 196.13411 -21.269064 
L 196.98626 -21.269064 
L 197.838409 -21.269064 
L 198.690559 -21.269064 
L 199.542708 -21.269064 
L 200.394858 -21.269064 
L 201.247007 -21.269064 
L 202.099157 -21.269064 
L 202.951306 -21.269064 
L 203.803455 -21.269064 
L 204.655605 -21.269064 
L 205.507754 -21.269064 
L 206.359904 -21.269064 
L 207.212053 -21.269064 
L 208.064203 -21.269064 
L 208.916352 -21.269064 
L 209.768502 -21.269064 
L 210.620651 -21.269064 
L 211.472801 -21.269064 
L 212.32495 -21.269064 
L 213.1771 -21.269064 
L 214.029249 -21.269064 
L 214.881398 -21.269064 
L 215.733548 -21.269064 
L 216.585697 -21.269064 
L 217.437847 -21.269064 
L 218.289996 -21.269064 
L 219.142146 -21.269064 
L 219.994295 -21.269064 
L 220.846445 -21.269064 
L 221.698594 -21.269064 
L 222.550744 -21.269064 
L 223.402893 -21.269064 
L 224.255043 -21.269064 
L 225.107192 -21.269064 
L 225.959342 -21.269064 
L 226.811491 -21.269064 
L 227.66364 -21.269064 
L 228.51579 -21.269064 
L 229.367939 -21.269064 
L 230.220089 -21.269064 
L 231.072238 -21.269064 
L 231.924388 -21.269064 
L 232.776537 -21.269064 
L 233.628687 -21.269064 
L 234.480836 -21.269064 
L 235.332986 -21.269064 
L 236.185135 -21.269064 
L 237.037285 -21.269064 
L 237.889434 -21.269064 
L 238.741583 -21.269064 
L 238.741583 -21.308112 
L 238.741583 -21.308112 
L 237.889434 -21.321701 
L 237.037285 -21.339296 
L 236.185135 -21.361816 
L 235.332986 -21.390308 
L 234.480836 -21.425935 
L 233.628687 -21.469962 
L 232.776537 -21.523721 
L 231.924388 -21.588573 
L 231.072238 -21.665851 
L 230.220089 -21.756794 
L 229.367939 -21.862467 
L 228.51579 -21.98367 
L 227.66364 -22.120853 
L 226.811491 -22.274014 
L 225.959342 -22.442622 
L 225.107192 -22.625541 
L 224.255043 -22.820978 
L 223.402893 -23.026464 
L 222.550744 -23.238859 
L 221.698594 -23.454404 
L 220.846445 -23.668806 
L 219.994295 -23.877366 
L 219.142146 -24.075137 
L 218.289996 -24.257113 
L 217.437847 -24.41844 
L 216.585697 -24.554625 
L 215.733548 -24.661745 
L 214.881398 -24.736638 
L 214.029249 -24.777055 
L 213.1771 -24.781777 
L 212.32495 -24.750678 
L 211.472801 -24.684733 
L 210.620651 -24.585975 
L 209.768502 -24.457395 
L 208.916352 -24.302804 
L 208.064203 -24.126657 
L 207.212053 -23.933858 
L 206.359904 -23.729557 
L 205.507754 -23.51895 
L 204.655605 -23.307101 
L 203.803455 -23.098789 
L 202.951306 -22.89839 
L 202.099157 -22.709807 
L 201.247007 -22.536425 
L 200.394858 -22.381124 
L 199.542708 -22.246314 
L 198.690559 -22.134006 
L 197.838409 -22.045893 
L 196.98626 -21.983456 
L 196.13411 -21.948062 
L 195.281961 -21.941058 
L 194.429811 -21.963857 
L 193.577662 -22.017996 
L 192.725512 -22.105184 
L 191.873363 -22.227317 
L 191.021214 -22.38647 
L 190.169064 -22.584875 
L 189.316915 -22.824874 
L 188.464765 -23.108864 
L 187.612616 -23.439236 
L 186.760466 -23.818311 
L 185.908317 -24.248286 
L 185.056167 -24.731191 
L 184.204018 -25.268858 
L 183.351868 -25.862915 
L 182.499719 -26.514788 
L 181.647569 -27.225728 
L 180.79542 -27.996842 
L 179.94327 -28.829138 
L 179.091121 -29.723558 
L 178.238972 -30.681015 
L 177.386822 -31.702403 
L 176.534673 -32.788594 
L 175.682523 -33.940408 
L 174.830374 -35.158556 
L 173.978224 -36.443565 
L 173.126075 -37.795686 
L 172.273925 -39.214784 
L 171.421776 -40.700247 
L 170.569626 -42.250894 
L 169.717477 -43.864917 
L 168.865327 -45.539858 
L 168.013178 -47.272622 
L 167.161029 -49.059547 
L 166.308879 -50.896509 
L 165.45673 -52.779072 
L 164.60458 -54.702659 
L 163.752431 -56.662745 
L 162.900281 -58.655033 
L 162.048132 -60.675613 
L 161.195982 -62.721072 
L 160.343833 -64.78855 
L 159.491683 -66.875726 
L 158.639534 -68.980734 
L 157.787384 -71.102005 
L 156.935235 -73.238056 
L 156.083085 -75.387251 
L 155.230936 -77.547539 
L 154.378787 -79.716222 
L 153.526637 -81.889774 
L 152.674488 -84.063742 
L 151.822338 -86.232748 
L 150.970189 -88.390631 
L 150.118039 -90.530692 
L 149.26589 -92.646076 
L 148.41374 -94.730241 
L 147.561591 -96.777484 
L 146.709441 -98.78348 
L 145.857292 -100.745781 
L 145.005142 -102.664214 
L 144.152993 -104.541131 
L 143.300844 -106.381462 
L 142.448694 -108.192553 
L 141.596545 -109.983769 
L 140.744395 -111.765883 
L 139.892246 -113.550287 
L 139.040096 -115.348073 
L 138.187947 -117.169072 
L 137.335797 -119.020925 
L 136.483648 -120.908278 
L 135.631498 -122.832177 
L 134.779349 -124.789736 
L 133.927199 -126.774127 
L 133.07505 -128.774891 
L 132.2229 -130.778574 
L 131.370751 -132.76963 
L 130.518602 -134.731518 
L 129.666452 -136.647891 
L 128.814303 -138.503771 
L 127.962153 -140.286584 
L 127.110004 -141.98696 
L 126.257854 -143.599194 
L 125.405705 -145.121318 
L 124.553555 -146.554758 
L 123.701406 -147.903585 
L 122.849256 -149.173422 
L 121.997107 -150.370081 
L 121.144957 -151.498068 
L 120.292808 -152.559064 
L 119.440659 -153.55054 
L 118.588509 -154.46463 
L 117.73636 -155.287368 
L 116.88421 -155.998389 
L 116.032061 -156.571121 
L 115.179911 -156.973483 
L 114.327762 -157.169064 
L 113.475612 -157.118687 
L 112.623463 -156.78227 
L 111.771313 -156.120864 
L 110.919164 -155.098706 
L 110.067014 -153.685187 
L 109.214865 -151.856569 
L 108.362715 -149.597383 
L 107.510566 -146.901405 
L 106.658417 -143.772177 
L 105.806267 -140.223062 
L 104.954118 -136.276845 
L 104.101968 -131.964938 
L 103.249819 -127.32626 
L 102.397669 -122.405864 
L 101.54552 -117.253423 
L 100.69337 -111.921651 
L 99.841221 -106.464747 
L 98.989071 -100.936934 
L 98.136922 -95.391151 
L 97.284772 -89.877916 
L 96.432623 -84.444407 
L 95.580474 -79.133745 
L 94.728324 -73.984467 
L 93.876175 -69.030187 
L 93.024025 -64.299411 
L 92.171876 -59.815482 
L 91.319726 -55.596631 
L 90.467577 -51.656114 
L 89.615427 -48.002428 
L 88.763278 -44.639568 
L 87.911128 -41.567353 
L 87.058979 -38.781774 
L 86.206829 -36.275398 
L 85.35468 -34.037793 
L 84.50253 -32.055982 
L 83.650381 -30.314919 
L 82.798232 -28.797969 
L 81.946082 -27.487388 
L 81.093933 -26.364789 
L 80.241783 -25.411581 
L 79.389634 -24.609364 
L 78.537484 -23.940286 
L 77.685335 -23.387335 
L 76.833185 -22.934572 
L 75.981036 -22.567306 
L 75.128886 -22.272203 
L 74.276737 -22.037344 
L 73.424587 -21.852227 
L 72.572438 -21.70773 
L 71.720289 -21.596041 
L 70.868139 -21.510557 
L 70.01599 -21.445777 
L 69.16384 -21.397173 
z
" id="mb859d57306" style="stroke:#ffa500;"/>
    </defs>
    <g clip-path="url(#pd11d61efbc)">
     <use style="fill:#ffa500;fill-opacity:0.25;stroke:#ffa500;" x="0" xlink:href="#mb859d57306" y="167.564064"/>
    </g>
   </g>
   <g id="matplotlib.axis_1">
    <g id="xtick_1">
     <g id="line2d_1">
      <path clip-path="url(#pd11d61efbc)" d="M 130.603274 146.295 
L 130.603274 3.6 
" style="fill:none;stroke:#000000;stroke-dasharray:0.5,0.825;stroke-dashoffset:0;stroke-opacity:0.5;stroke-width:0.5;"/>
     </g>
     <g id="line2d_2">
      <defs>
       <path d="M 0 0 
L 0 -3 
" id="ma9fbc6ec2a" style="stroke:#000000;stroke-width:0.5;"/>
      </defs>
      <g>
       <use style="stroke:#000000;stroke-width:0.5;" x="130.603274" xlink:href="#ma9fbc6ec2a" y="146.295"/>
      </g>
     </g>
     <g id="line2d_3">
      <defs>
       <path d="M 0 0 
L 0 3 
" id="mca64202ed6" style="stroke:#000000;stroke-width:0.5;"/>
      </defs>
      <g>
       <use style="stroke:#000000;stroke-width:0.5;" x="130.603274" xlink:href="#mca64202ed6" y="3.6"/>
      </g>
     </g>
     <g id="text_1">
      <!-- $\mathdefault{20}$ -->
      <g transform="translate(122.799287 160.864588)scale(0.16 -0.16)">
       <defs>
        <path d="M 41.703125 15.46875 
L 39.90625 15.46875 
C 38.90625 8.390625 38.09375 7.1875 37.703125 6.59375 
C 37.203125 5.796875 30 5.796875 28.59375 5.796875 
L 9.40625 5.796875 
C 13 9.6875 20 16.765625 28.5 24.9375 
C 34.59375 30.71875 41.703125 37.5 41.703125 47.390625 
C 41.703125 59.1875 32.296875 66 21.796875 66 
C 10.796875 66 4.09375 56.296875 4.09375 47.296875 
C 4.09375 43.390625 7 42.890625 8.203125 42.890625 
C 9.203125 42.890625 12.203125 43.484375 12.203125 46.984375 
C 12.203125 50.09375 9.59375 51 8.203125 51 
C 7.59375 51 7 50.890625 6.59375 50.6875 
C 8.5 59.1875 14.296875 63.390625 20.40625 63.390625 
C 29.09375 63.390625 34.796875 56.5 34.796875 47.390625 
C 34.796875 38.703125 29.703125 31.21875 24 24.734375 
L 4.09375 2.296875 
L 4.09375 0 
L 39.296875 0 
z
" id="CMR17-50"/>
        <path d="M 42 31.84375 
C 42 37.96875 41.90625 48.421875 37.703125 56.453125 
C 34 63.484375 28.09375 66 22.90625 66 
C 18.09375 66 12 63.78125 8.203125 56.5625 
C 4.203125 49.015625 3.796875 39.671875 3.796875 31.84375 
C 3.796875 26.109375 3.90625 17.375 7 9.734375 
C 11.296875 -0.609375 19 -2 22.90625 -2 
C 27.5 -2 34.5 -0.109375 38.59375 9.4375 
C 41.59375 16.375 42 24.5 42 31.84375 
z
M 22.90625 -0.40625 
C 16.5 -0.40625 12.703125 5.125 11.296875 12.75 
C 10.203125 18.6875 10.203125 27.328125 10.203125 32.953125 
C 10.203125 40.6875 10.203125 47.109375 11.5 53.234375 
C 13.40625 61.78125 19 64.390625 22.90625 64.390625 
C 27 64.390625 32.296875 61.671875 34.203125 53.4375 
C 35.5 47.71875 35.59375 40.984375 35.59375 32.953125 
C 35.59375 26.421875 35.59375 18.375 34.40625 12.453125 
C 32.296875 1.5 26.40625 -0.40625 22.90625 -0.40625 
z
" id="CMR17-48"/>
       </defs>
       <use transform="scale(0.996264)" xlink:href="#CMR17-50"/>
       <use transform="translate(45.690477 0)scale(0.996264)" xlink:href="#CMR17-48"/>
      </g>
     </g>
    </g>
    <g id="xtick_2">
     <g id="line2d_4">
      <path clip-path="url(#pd11d61efbc)" d="M 209.468735 146.295 
L 209.468735 3.6 
" style="fill:none;stroke:#000000;stroke-dasharray:0.5,0.825;stroke-dashoffset:0;stroke-opacity:0.5;stroke-width:0.5;"/>
     </g>
     <g id="line2d_5">
      <g>
       <use style="stroke:#000000;stroke-width:0.5;" x="209.468735" xlink:href="#ma9fbc6ec2a" y="146.295"/>
      </g>
     </g>
     <g id="line2d_6">
      <g>
       <use style="stroke:#000000;stroke-width:0.5;" x="209.468735" xlink:href="#mca64202ed6" y="3.6"/>
      </g>
     </g>
     <g id="text_2">
      <!-- $\mathdefault{40}$ -->
      <g transform="translate(201.664748 160.864588)scale(0.16 -0.16)">
       <defs>
        <path d="M 33.59375 64.796875 
C 33.59375 66.890625 33.5 67 31.703125 67 
L 2 19.59375 
L 2 17 
L 27.796875 17 
L 27.796875 7.1875 
C 27.796875 3.59375 27.59375 2.59375 20.59375 2.59375 
L 18.703125 2.59375 
L 18.703125 0 
C 21.90625 0.1875 27.296875 0.1875 30.703125 0.1875 
C 34.09375 0.1875 39.5 0.1875 42.703125 0 
L 42.703125 2.59375 
L 40.796875 2.59375 
C 33.796875 2.59375 33.59375 3.59375 33.59375 7.1875 
L 33.59375 17 
L 43.796875 17 
L 43.796875 19.59375 
L 33.59375 19.59375 
z
M 28.09375 58.171875 
L 28.09375 19.59375 
L 4 19.59375 
z
" id="CMR17-52"/>
       </defs>
       <use transform="scale(0.996264)" xlink:href="#CMR17-52"/>
       <use transform="translate(45.690477 0)scale(0.996264)" xlink:href="#CMR17-48"/>
      </g>
     </g>
    </g>
    <g id="xtick_3">
     <g id="line2d_7">
      <defs>
       <path d="M 0 0 
L 0 -1.5 
" id="ma5f9e23796" style="stroke:#000000;stroke-width:0.5;"/>
      </defs>
      <g>
       <use style="stroke:#000000;stroke-width:0.5;" x="71.454179" xlink:href="#ma5f9e23796" y="146.295"/>
      </g>
     </g>
     <g id="line2d_8">
      <defs>
       <path d="M 0 0 
L 0 1.5 
" id="mada933c2a7" style="stroke:#000000;stroke-width:0.5;"/>
      </defs>
      <g>
       <use style="stroke:#000000;stroke-width:0.5;" x="71.454179" xlink:href="#mada933c2a7" y="3.6"/>
      </g>
     </g>
    </g>
    <g id="xtick_4">
     <g id="line2d_9">
      <g>
       <use style="stroke:#000000;stroke-width:0.5;" x="91.170544" xlink:href="#ma5f9e23796" y="146.295"/>
      </g>
     </g>
     <g id="line2d_10">
      <g>
       <use style="stroke:#000000;stroke-width:0.5;" x="91.170544" xlink:href="#mada933c2a7" y="3.6"/>
      </g>
     </g>
    </g>
    <g id="xtick_5">
     <g id="line2d_11">
      <g>
       <use style="stroke:#000000;stroke-width:0.5;" x="110.886909" xlink:href="#ma5f9e23796" y="146.295"/>
      </g>
     </g>
     <g id="line2d_12">
      <g>
       <use style="stroke:#000000;stroke-width:0.5;" x="110.886909" xlink:href="#mada933c2a7" y="3.6"/>
      </g>
     </g>
    </g>
    <g id="xtick_6">
     <g id="line2d_13">
      <g>
       <use style="stroke:#000000;stroke-width:0.5;" x="150.319639" xlink:href="#ma5f9e23796" y="146.295"/>
      </g>
     </g>
     <g id="line2d_14">
      <g>
       <use style="stroke:#000000;stroke-width:0.5;" x="150.319639" xlink:href="#mada933c2a7" y="3.6"/>
      </g>
     </g>
    </g>
    <g id="xtick_7">
     <g id="line2d_15">
      <g>
       <use style="stroke:#000000;stroke-width:0.5;" x="170.036004" xlink:href="#ma5f9e23796" y="146.295"/>
      </g>
     </g>
     <g id="line2d_16">
      <g>
       <use style="stroke:#000000;stroke-width:0.5;" x="170.036004" xlink:href="#mada933c2a7" y="3.6"/>
      </g>
     </g>
    </g>
    <g id="xtick_8">
     <g id="line2d_17">
      <g>
       <use style="stroke:#000000;stroke-width:0.5;" x="189.75237" xlink:href="#ma5f9e23796" y="146.295"/>
      </g>
     </g>
     <g id="line2d_18">
      <g>
       <use style="stroke:#000000;stroke-width:0.5;" x="189.75237" xlink:href="#mada933c2a7" y="3.6"/>
      </g>
     </g>
    </g>
    <g id="xtick_9">
     <g id="line2d_19">
      <g>
       <use style="stroke:#000000;stroke-width:0.5;" x="229.1851" xlink:href="#ma5f9e23796" y="146.295"/>
      </g>
     </g>
     <g id="line2d_20">
      <g>
       <use style="stroke:#000000;stroke-width:0.5;" x="229.1851" xlink:href="#mada933c2a7" y="3.6"/>
      </g>
     </g>
    </g>
   </g>
   <g id="matplotlib.axis_2">
    <g id="ytick_1">
     <g id="line2d_21">
      <path clip-path="url(#pd11d61efbc)" d="M 53.016574 146.295 
L 248.316574 146.295 
" style="fill:none;stroke:#000000;stroke-dasharray:0.5,0.825;stroke-dashoffset:0;stroke-opacity:0.5;stroke-width:0.5;"/>
     </g>
     <g id="line2d_22">
      <defs>
       <path d="M 0 0 
L 3 0 
" id="m672a43cb80" style="stroke:#000000;stroke-width:0.5;"/>
      </defs>
      <g>
       <use style="stroke:#000000;stroke-width:0.5;" x="53.016574" xlink:href="#m672a43cb80" y="146.295"/>
      </g>
     </g>
     <g id="line2d_23">
      <defs>
       <path d="M 0 0 
L -3 0 
" id="mfe4ced217b" style="stroke:#000000;stroke-width:0.5;"/>
      </defs>
      <g>
       <use style="stroke:#000000;stroke-width:0.5;" x="248.316574" xlink:href="#mfe4ced217b" y="146.295"/>
      </g>
     </g>
     <g id="text_3">
      <!-- $\mathdefault{0.00}$ -->
      <g transform="translate(21.769064 151.829794)scale(0.16 -0.16)">
       <defs>
        <path d="M 18.40625 4.796875 
C 18.40625 7.6875 16 9.6875 13.59375 9.6875 
C 10.703125 9.6875 8.703125 7.296875 8.703125 4.890625 
C 8.703125 2 11.09375 0 13.5 0 
C 16.40625 0 18.40625 2.390625 18.40625 4.796875 
z
" id="CMMI12-58"/>
       </defs>
       <use transform="scale(0.996264)" xlink:href="#CMR17-48"/>
       <use transform="translate(45.690477 0)scale(0.996264)" xlink:href="#CMMI12-58"/>
       <use transform="translate(72.787654 0)scale(0.996264)" xlink:href="#CMR17-48"/>
       <use transform="translate(118.478131 0)scale(0.996264)" xlink:href="#CMR17-48"/>
      </g>
     </g>
    </g>
    <g id="ytick_2">
     <g id="line2d_24">
      <path clip-path="url(#pd11d61efbc)" d="M 53.016574 108.686069 
L 248.316574 108.686069 
" style="fill:none;stroke:#000000;stroke-dasharray:0.5,0.825;stroke-dashoffset:0;stroke-opacity:0.5;stroke-width:0.5;"/>
     </g>
     <g id="line2d_25">
      <g>
       <use style="stroke:#000000;stroke-width:0.5;" x="53.016574" xlink:href="#m672a43cb80" y="108.686069"/>
      </g>
     </g>
     <g id="line2d_26">
      <g>
       <use style="stroke:#000000;stroke-width:0.5;" x="248.316574" xlink:href="#mfe4ced217b" y="108.686069"/>
      </g>
     </g>
     <g id="text_4">
      <!-- $\mathdefault{0.02}$ -->
      <g transform="translate(21.769064 114.220863)scale(0.16 -0.16)">
       <use transform="scale(0.996264)" xlink:href="#CMR17-48"/>
       <use transform="translate(45.690477 0)scale(0.996264)" xlink:href="#CMMI12-58"/>
       <use transform="translate(72.787654 0)scale(0.996264)" xlink:href="#CMR17-48"/>
       <use transform="translate(118.478131 0)scale(0.996264)" xlink:href="#CMR17-50"/>
      </g>
     </g>
    </g>
    <g id="ytick_3">
     <g id="line2d_27">
      <path clip-path="url(#pd11d61efbc)" d="M 53.016574 71.077138 
L 248.316574 71.077138 
" style="fill:none;stroke:#000000;stroke-dasharray:0.5,0.825;stroke-dashoffset:0;stroke-opacity:0.5;stroke-width:0.5;"/>
     </g>
     <g id="line2d_28">
      <g>
       <use style="stroke:#000000;stroke-width:0.5;" x="53.016574" xlink:href="#m672a43cb80" y="71.077138"/>
      </g>
     </g>
     <g id="line2d_29">
      <g>
       <use style="stroke:#000000;stroke-width:0.5;" x="248.316574" xlink:href="#mfe4ced217b" y="71.077138"/>
      </g>
     </g>
     <g id="text_5">
      <!-- $\mathdefault{0.04}$ -->
      <g transform="translate(21.769064 76.611932)scale(0.16 -0.16)">
       <use transform="scale(0.996264)" xlink:href="#CMR17-48"/>
       <use transform="translate(45.690477 0)scale(0.996264)" xlink:href="#CMMI12-58"/>
       <use transform="translate(72.787654 0)scale(0.996264)" xlink:href="#CMR17-48"/>
       <use transform="translate(118.478131 0)scale(0.996264)" xlink:href="#CMR17-52"/>
      </g>
     </g>
    </g>
    <g id="ytick_4">
     <g id="line2d_30">
      <path clip-path="url(#pd11d61efbc)" d="M 53.016574 33.468207 
L 248.316574 33.468207 
" style="fill:none;stroke:#000000;stroke-dasharray:0.5,0.825;stroke-dashoffset:0;stroke-opacity:0.5;stroke-width:0.5;"/>
     </g>
     <g id="line2d_31">
      <g>
       <use style="stroke:#000000;stroke-width:0.5;" x="53.016574" xlink:href="#m672a43cb80" y="33.468207"/>
      </g>
     </g>
     <g id="line2d_32">
      <g>
       <use style="stroke:#000000;stroke-width:0.5;" x="248.316574" xlink:href="#mfe4ced217b" y="33.468207"/>
      </g>
     </g>
     <g id="text_6">
      <!-- $\mathdefault{0.06}$ -->
      <g transform="translate(21.769064 39.003002)scale(0.16 -0.16)">
       <defs>
        <path d="M 10.59375 34.34375 
C 10.59375 58 21.796875 63.6875 28.296875 63.6875 
C 30.40625 63.6875 35.5 63.265625 37.5 59.09375 
C 35.90625 59.09375 32.90625 59.09375 32.90625 55.59375 
C 32.90625 52.890625 35.09375 52 36.5 52 
C 37.40625 52 40.09375 52.390625 40.09375 55.796875 
C 40.09375 62.296875 35.09375 66 28.203125 66 
C 16.296875 66 3.796875 53.296875 3.796875 31.421875 
C 3.796875 4.015625 15.09375 -2 23.09375 -2 
C 32.796875 -2 42 6.734375 42 20.234375 
C 42 32.828125 33.90625 42 23.703125 42 
C 17.59375 42 13.09375 37.96875 10.59375 30.921875 
z
M 23.09375 0.390625 
C 10.796875 0.390625 10.796875 18.9375 10.796875 22.65625 
C 10.796875 29.90625 14.203125 40.390625 23.5 40.390625 
C 25.203125 40.390625 30.09375 40.390625 33.40625 33.4375 
C 35.203125 29.515625 35.203125 25.375 35.203125 20.34375 
C 35.203125 14.90625 35.203125 10.875 33.09375 6.84375 
C 30.90625 2.703125 27.703125 0.390625 23.09375 0.390625 
z
" id="CMR17-54"/>
       </defs>
       <use transform="scale(0.996264)" xlink:href="#CMR17-48"/>
       <use transform="translate(45.690477 0)scale(0.996264)" xlink:href="#CMMI12-58"/>
       <use transform="translate(72.787654 0)scale(0.996264)" xlink:href="#CMR17-48"/>
       <use transform="translate(118.478131 0)scale(0.996264)" xlink:href="#CMR17-54"/>
      </g>
     </g>
    </g>
    <g id="ytick_5">
     <g id="line2d_33">
      <defs>
       <path d="M 0 0 
L 1.5 0 
" id="mee5bb8e924" style="stroke:#000000;stroke-width:0.5;"/>
      </defs>
      <g>
       <use style="stroke:#000000;stroke-width:0.5;" x="53.016574" xlink:href="#mee5bb8e924" y="136.892767"/>
      </g>
     </g>
     <g id="line2d_34">
      <defs>
       <path d="M 0 0 
L -1.5 0 
" id="m3364ea1e2a" style="stroke:#000000;stroke-width:0.5;"/>
      </defs>
      <g>
       <use style="stroke:#000000;stroke-width:0.5;" x="248.316574" xlink:href="#m3364ea1e2a" y="136.892767"/>
      </g>
     </g>
    </g>
    <g id="ytick_6">
     <g id="line2d_35">
      <g>
       <use style="stroke:#000000;stroke-width:0.5;" x="53.016574" xlink:href="#mee5bb8e924" y="127.490535"/>
      </g>
     </g>
     <g id="line2d_36">
      <g>
       <use style="stroke:#000000;stroke-width:0.5;" x="248.316574" xlink:href="#m3364ea1e2a" y="127.490535"/>
      </g>
     </g>
    </g>
    <g id="ytick_7">
     <g id="line2d_37">
      <g>
       <use style="stroke:#000000;stroke-width:0.5;" x="53.016574" xlink:href="#mee5bb8e924" y="118.088302"/>
      </g>
     </g>
     <g id="line2d_38">
      <g>
       <use style="stroke:#000000;stroke-width:0.5;" x="248.316574" xlink:href="#m3364ea1e2a" y="118.088302"/>
      </g>
     </g>
    </g>
    <g id="ytick_8">
     <g id="line2d_39">
      <g>
       <use style="stroke:#000000;stroke-width:0.5;" x="53.016574" xlink:href="#mee5bb8e924" y="99.283836"/>
      </g>
     </g>
     <g id="line2d_40">
      <g>
       <use style="stroke:#000000;stroke-width:0.5;" x="248.316574" xlink:href="#m3364ea1e2a" y="99.283836"/>
      </g>
     </g>
    </g>
    <g id="ytick_9">
     <g id="line2d_41">
      <g>
       <use style="stroke:#000000;stroke-width:0.5;" x="53.016574" xlink:href="#mee5bb8e924" y="89.881604"/>
      </g>
     </g>
     <g id="line2d_42">
      <g>
       <use style="stroke:#000000;stroke-width:0.5;" x="248.316574" xlink:href="#m3364ea1e2a" y="89.881604"/>
      </g>
     </g>
    </g>
    <g id="ytick_10">
     <g id="line2d_43">
      <g>
       <use style="stroke:#000000;stroke-width:0.5;" x="53.016574" xlink:href="#mee5bb8e924" y="80.479371"/>
      </g>
     </g>
     <g id="line2d_44">
      <g>
       <use style="stroke:#000000;stroke-width:0.5;" x="248.316574" xlink:href="#m3364ea1e2a" y="80.479371"/>
      </g>
     </g>
    </g>
    <g id="ytick_11">
     <g id="line2d_45">
      <g>
       <use style="stroke:#000000;stroke-width:0.5;" x="53.016574" xlink:href="#mee5bb8e924" y="61.674906"/>
      </g>
     </g>
     <g id="line2d_46">
      <g>
       <use style="stroke:#000000;stroke-width:0.5;" x="248.316574" xlink:href="#m3364ea1e2a" y="61.674906"/>
      </g>
     </g>
    </g>
    <g id="ytick_12">
     <g id="line2d_47">
      <g>
       <use style="stroke:#000000;stroke-width:0.5;" x="53.016574" xlink:href="#mee5bb8e924" y="52.272673"/>
      </g>
     </g>
     <g id="line2d_48">
      <g>
       <use style="stroke:#000000;stroke-width:0.5;" x="248.316574" xlink:href="#m3364ea1e2a" y="52.272673"/>
      </g>
     </g>
    </g>
    <g id="ytick_13">
     <g id="line2d_49">
      <g>
       <use style="stroke:#000000;stroke-width:0.5;" x="53.016574" xlink:href="#mee5bb8e924" y="42.87044"/>
      </g>
     </g>
     <g id="line2d_50">
      <g>
       <use style="stroke:#000000;stroke-width:0.5;" x="248.316574" xlink:href="#m3364ea1e2a" y="42.87044"/>
      </g>
     </g>
    </g>
    <g id="ytick_14">
     <g id="line2d_51">
      <g>
       <use style="stroke:#000000;stroke-width:0.5;" x="53.016574" xlink:href="#mee5bb8e924" y="24.065975"/>
      </g>
     </g>
     <g id="line2d_52">
      <g>
       <use style="stroke:#000000;stroke-width:0.5;" x="248.316574" xlink:href="#m3364ea1e2a" y="24.065975"/>
      </g>
     </g>
    </g>
    <g id="ytick_15">
     <g id="line2d_53">
      <g>
       <use style="stroke:#000000;stroke-width:0.5;" x="53.016574" xlink:href="#mee5bb8e924" y="14.663742"/>
      </g>
     </g>
     <g id="line2d_54">
      <g>
       <use style="stroke:#000000;stroke-width:0.5;" x="248.316574" xlink:href="#m3364ea1e2a" y="14.663742"/>
      </g>
     </g>
    </g>
    <g id="ytick_16">
     <g id="line2d_55">
      <g>
       <use style="stroke:#000000;stroke-width:0.5;" x="53.016574" xlink:href="#mee5bb8e924" y="5.261509"/>
      </g>
     </g>
     <g id="line2d_56">
      <g>
       <use style="stroke:#000000;stroke-width:0.5;" x="248.316574" xlink:href="#m3364ea1e2a" y="5.261509"/>
      </g>
     </g>
    </g>
    <g id="text_7">
     <!-- Density -->
     <g transform="translate(14.669588 100.894381)rotate(-90)scale(0.16 -0.16)">
      <defs>
       <path d="M 5.203125 68 
L 5.203125 65.390625 
C 12.09375 65.390625 13.203125 65.390625 13.203125 60.90625 
L 13.203125 7.078125 
C 13.203125 2.59375 12.09375 2.59375 5.203125 2.59375 
L 5.203125 0 
L 37 0 
C 53.09375 0 66 14.734375 66 33.4375 
C 66 52.25 53.296875 68 37 68 
z
M 23.796875 2.59375 
C 19.796875 2.59375 19.59375 3.09375 19.59375 6.46875 
L 19.59375 61.5 
C 19.59375 64.890625 19.796875 65.390625 23.796875 65.390625 
L 35 65.390625 
C 43.296875 65.390625 58.59375 60.515625 58.59375 33.4375 
C 58.59375 19.40625 54.5 13.734375 52.59375 11.046875 
C 50.203125 7.96875 44.5 2.59375 35 2.59375 
z
" id="CMR17-68"/>
       <path d="M 38.09375 23.484375 
C 38.5 23.890625 38.5 24.09375 38.5 25.09375 
C 38.5 35.171875 33.09375 44 21.703125 44 
C 11.09375 44 2.703125 33.984375 2.703125 21.78125 
C 2.703125 8.65625 12.203125 -1 22.796875 -1 
C 34 -1 38.40625 9.671875 38.40625 11.796875 
C 38.40625 12.5 37.796875 12.5 37.59375 12.5 
C 36.90625 12.5 36.796875 12.296875 36.40625 11.078125 
C 34.203125 4.21875 28.703125 0.796875 23.5 0.796875 
C 19.203125 0.796875 14.90625 3.21875 12.203125 7.65625 
C 9.09375 12.796875 9.09375 18.75 9.09375 23.484375 
z
M 9.203125 25 
C 9.90625 39.234375 17.59375 42.390625 21.59375 42.390625 
C 28.40625 42.390625 33 36.0625 33.09375 25 
z
" id="CMR17-101"/>
       <path d="M 41.5 30.53125 
C 41.5 35.65625 40.5 44 28.703125 44 
C 20.796875 44 16.703125 37.875 15.203125 33.84375 
L 15.09375 33.84375 
L 15.09375 44 
L 3.296875 42.890625 
L 3.296875 40.28125 
C 9.203125 40.28125 10.09375 39.6875 10.09375 34.859375 
L 10.09375 6.921875 
C 10.09375 3.09375 9.703125 2.59375 3.296875 2.59375 
L 3.296875 0 
C 5.703125 0.1875 10.09375 0.1875 12.703125 0.1875 
C 15.296875 0.1875 19.796875 0.1875 22.203125 0 
L 22.203125 2.59375 
C 15.796875 2.59375 15.40625 3 15.40625 6.921875 
L 15.40625 26.21875 
C 15.40625 35.453125 21 42.390625 28 42.390625 
C 35.40625 42.390625 36.203125 35.765625 36.203125 30.9375 
L 36.203125 6.921875 
C 36.203125 3.09375 35.796875 2.59375 29.40625 2.59375 
L 29.40625 0 
C 31.796875 0.1875 36.203125 0.1875 38.796875 0.1875 
C 41.40625 0.1875 45.90625 0.1875 48.296875 0 
L 48.296875 2.59375 
C 41.90625 2.59375 41.5 3 41.5 6.921875 
z
" id="CMR17-110"/>
       <path d="M 30.90625 42 
C 30.90625 43.796875 30.796875 43.890625 30.203125 43.890625 
C 29.796875 43.890625 29.703125 43.796875 28.5 42.296875 
C 28.203125 41.890625 27.296875 40.890625 27 40.5 
C 23.796875 43.890625 19.296875 44 17.59375 44 
C 6.5 44 2.5 38.1875 2.5 32.390625 
C 2.5 23.390625 12.703125 21.296875 15.59375 20.6875 
C 21.90625 19.390625 24.09375 19 26.203125 17.1875 
C 27.5 16 29.703125 13.796875 29.703125 10.1875 
C 29.703125 6 27.296875 0.59375 18.09375 0.59375 
C 9.40625 0.59375 6.296875 7.1875 4.5 16 
C 4.203125 17.390625 4.203125 17.5 3.40625 17.5 
C 2.59375 17.5 2.5 17.390625 2.5 15.390625 
L 2.5 1 
C 2.5 -0.8125 2.59375 -0.90625 3.203125 -0.90625 
C 3.703125 -0.90625 3.796875 -0.8125 4.296875 0 
C 4.90625 0.890625 6.40625 3.296875 7 4.296875 
C 9 1.59375 12.5 -1 18.09375 -1 
C 28 -1 33.296875 4.390625 33.296875 12.1875 
C 33.296875 17.296875 30.59375 20 29.296875 21.1875 
C 26.296875 24.296875 22.796875 25 18.59375 25.796875 
C 13.09375 27 6.09375 28.390625 6.09375 34.5 
C 6.09375 37.09375 7.5 42.59375 17.59375 42.59375 
C 28.296875 42.59375 28.90625 32.59375 29.09375 29.390625 
C 29.203125 28.890625 29.703125 28.796875 30 28.796875 
C 30.90625 28.796875 30.90625 29.09375 30.90625 30.796875 
z
" id="CMR17-115"/>
       <path d="M 15.5 61.890625 
C 15.5 64.09375 13.703125 66 11.40625 66 
C 9.203125 66 7.296875 64.1875 7.296875 61.890625 
C 7.296875 59.6875 9.09375 57.796875 11.40625 57.796875 
C 13.59375 57.796875 15.5 59.59375 15.5 61.890625 
z
M 3.796875 42.890625 
L 3.796875 40.296875 
C 9.40625 40.296875 10.203125 39.6875 10.203125 34.859375 
L 10.203125 6.921875 
C 10.203125 3.09375 9.796875 2.59375 3.40625 2.59375 
L 3.40625 0 
C 5.796875 0.1875 10.09375 0.1875 12.59375 0.1875 
C 15 0.1875 19.09375 0.1875 21.40625 0 
L 21.40625 2.59375 
C 15.5 2.59375 15.296875 3.203125 15.296875 6.8125 
L 15.296875 44 
z
" id="CMR17-105"/>
       <path d="M 15.09375 40.390625 
L 29.09375 40.390625 
L 29.09375 43 
L 15.09375 43 
L 15.09375 62 
L 13.296875 62 
C 13.09375 51.4375 9.59375 42.1875 1.09375 41.984375 
L 1.09375 40.390625 
L 9.796875 40.390625 
L 9.796875 12.15625 
C 9.796875 10.234375 9.796875 -1 21.40625 -1 
C 27.296875 -1 30.703125 4.8125 30.703125 12.25 
L 30.703125 17.984375 
L 28.90625 17.984375 
L 28.90625 12.34375 
C 28.90625 5.421875 26.203125 0.796875 22 0.796875 
C 19.09375 0.796875 15.09375 2.796875 15.09375 11.953125 
z
" id="CMR17-116"/>
       <path d="M 39 34.109375 
C 41.5 40.296875 46 40.390625 47.40625 40.390625 
L 47.40625 43 
C 45.5 42.890625 43 42.796875 41.09375 42.796875 
C 39 42.796875 35.703125 42.796875 33.703125 43 
L 33.703125 40.390625 
C 37.5 40.09375 37.59375 37.25 37.59375 36.4375 
C 37.59375 35.4375 37.40625 34.921875 36.90625 33.71875 
L 26 6.390625 
L 14.09375 35.9375 
C 13.59375 37.15625 13.59375 37.859375 13.59375 37.96875 
C 13.59375 40.1875 15.90625 40.390625 18.296875 40.390625 
L 18.296875 43 
C 15.90625 42.796875 11.59375 42.796875 9.09375 42.796875 
C 6.40625 42.796875 3.203125 42.796875 1 43 
L 1 40.390625 
C 6.40625 40.390625 7 39.890625 8.296875 36.640625 
L 23.203125 -0.484375 
C 18.703125 -12.421875 16.09375 -19.40625 9.796875 -19.40625 
C 8.703125 -19.40625 6.203125 -19.109375 4.40625 -17.28125 
C 6.703125 -17.078125 7.703125 -15.65625 7.703125 -13.9375 
C 7.703125 -12.21875 6.5 -10.703125 4.5 -10.703125 
C 2.296875 -10.703125 1.203125 -12.21875 1.203125 -14.046875 
C 1.203125 -18.09375 5.296875 -21 9.796875 -21 
C 15.59375 -21 19.203125 -15.359375 21.203125 -10.296875 
z
" id="CMR17-121"/>
      </defs>
      <use transform="scale(0.996264)" xlink:href="#CMR17-68"/>
      <use transform="translate(70.393556 0)scale(0.996264)" xlink:href="#CMR17-101"/>
      <use transform="translate(110.879216 0)scale(0.996264)" xlink:href="#CMR17-110"/>
      <use transform="translate(161.774586 0)scale(0.996264)" xlink:href="#CMR17-115"/>
      <use transform="translate(197.575924 0)scale(0.996264)" xlink:href="#CMR17-105"/>
      <use transform="translate(222.446982 0)scale(0.996264)" xlink:href="#CMR17-116"/>
      <use transform="translate(255.125296 0)scale(0.996264)" xlink:href="#CMR17-121"/>
     </g>
    </g>
   </g>
   <g id="line2d_57">
    <path clip-path="url(#pd11d61efbc)" d="M 104.385999 146.295 
L 104.385999 3.6 
" style="fill:none;stroke:#0c5da5;stroke-dasharray:19.2,4.8,3,4.8;stroke-dashoffset:0;stroke-width:3;"/>
   </g>
   <g id="patch_3">
    <path d="M 53.016574 146.295 
L 53.016574 3.6 
" style="fill:none;stroke:#000000;stroke-linecap:square;stroke-linejoin:miter;stroke-width:0.5;"/>
   </g>
   <g id="patch_4">
    <path d="M 248.316574 146.295 
L 248.316574 3.6 
" style="fill:none;stroke:#000000;stroke-linecap:square;stroke-linejoin:miter;stroke-width:0.5;"/>
   </g>
   <g id="patch_5">
    <path d="M 53.016574 146.295 
L 248.316574 146.295 
" style="fill:none;stroke:#000000;stroke-linecap:square;stroke-linejoin:miter;stroke-width:0.5;"/>
   </g>
   <g id="patch_6">
    <path d="M 53.016574 3.6 
L 248.316574 3.6 
" style="fill:none;stroke:#000000;stroke-linecap:square;stroke-linejoin:miter;stroke-width:0.5;"/>
   </g>
  </g>
 </g>
 <defs>
  <clipPath id="pd11d61efbc">
   <rect height="142.695" width="195.3" x="53.016574" y="3.6"/>
  </clipPath>
 </defs>
</svg>
