<?xml version="1.0" encoding="utf-8" standalone="no"?>
<!DOCTYPE svg PUBLIC "-//W3C//DTD SVG 1.1//EN"
  "http://www.w3.org/Graphics/SVG/1.1/DTD/svg11.dtd">
<!-- Created with matplotlib (https://matplotlib.org/) -->
<svg height="167.564064pt" version="1.1" viewBox="0 0 266.547285 167.564064" width="266.547285pt" xmlns="http://www.w3.org/2000/svg" xmlns:xlink="http://www.w3.org/1999/xlink">
 <metadata>
  <rdf:RDF xmlns:cc="http://creativecommons.org/ns#" xmlns:dc="http://purl.org/dc/elements/1.1/" xmlns:rdf="http://www.w3.org/1999/02/22-rdf-syntax-ns#">
   <cc:Work>
    <dc:type rdf:resource="http://purl.org/dc/dcmitype/StillImage"/>
    <dc:date>2021-01-28T16:52:17.974214</dc:date>
    <dc:format>image/svg+xml</dc:format>
    <dc:creator>
     <cc:Agent>
      <dc:title>Matplotlib v3.3.0, https://matplotlib.org/</dc:title>
     </cc:Agent>
    </dc:creator>
   </cc:Work>
  </rdf:RDF>
 </metadata>
 <defs>
  <style type="text/css">*{stroke-linecap:butt;stroke-linejoin:round;}</style>
 </defs>
 <g id="figure_1">
  <g id="patch_1">
   <path d="M 0 167.564064 
L 266.547285 167.564064 
L 266.547285 0 
L 0 0 
z
" style="fill:none;"/>
  </g>
  <g id="axes_1">
   <g id="patch_2">
    <path d="M 60.820561 146.295 
L 256.120561 146.295 
L 256.120561 3.6 
L 60.820561 3.6 
z
" style="fill:#ffffff;"/>
   </g>
   <g id="PolyCollection_1">
    <defs>
     <path d="M 79.317822 -21.530246 
L 79.317822 -21.269064 
L 80.146228 -21.269064 
L 80.974635 -21.269064 
L 81.803042 -21.269064 
L 82.631448 -21.269064 
L 83.459855 -21.269064 
L 84.288262 -21.269064 
L 85.116668 -21.269064 
L 85.945075 -21.269064 
L 86.773482 -21.269064 
L 87.601888 -21.269064 
L 88.430295 -21.269064 
L 89.258702 -21.269064 
L 90.087108 -21.269064 
L 90.915515 -21.269064 
L 91.743922 -21.269064 
L 92.572328 -21.269064 
L 93.400735 -21.269064 
L 94.229142 -21.269064 
L 95.057548 -21.269064 
L 95.885955 -21.269064 
L 96.714362 -21.269064 
L 97.542768 -21.269064 
L 98.371175 -21.269064 
L 99.199582 -21.269064 
L 100.027988 -21.269064 
L 100.856395 -21.269064 
L 101.684802 -21.269064 
L 102.513209 -21.269064 
L 103.341615 -21.269064 
L 104.170022 -21.269064 
L 104.998429 -21.269064 
L 105.826835 -21.269064 
L 106.655242 -21.269064 
L 107.483649 -21.269064 
L 108.312055 -21.269064 
L 109.140462 -21.269064 
L 109.968869 -21.269064 
L 110.797275 -21.269064 
L 111.625682 -21.269064 
L 112.454089 -21.269064 
L 113.282495 -21.269064 
L 114.110902 -21.269064 
L 114.939309 -21.269064 
L 115.767715 -21.269064 
L 116.596122 -21.269064 
L 117.424529 -21.269064 
L 118.252935 -21.269064 
L 119.081342 -21.269064 
L 119.909749 -21.269064 
L 120.738155 -21.269064 
L 121.566562 -21.269064 
L 122.394969 -21.269064 
L 123.223375 -21.269064 
L 124.051782 -21.269064 
L 124.880189 -21.269064 
L 125.708595 -21.269064 
L 126.537002 -21.269064 
L 127.365409 -21.269064 
L 128.193815 -21.269064 
L 129.022222 -21.269064 
L 129.850629 -21.269064 
L 130.679035 -21.269064 
L 131.507442 -21.269064 
L 132.335849 -21.269064 
L 133.164255 -21.269064 
L 133.992662 -21.269064 
L 134.821069 -21.269064 
L 135.649476 -21.269064 
L 136.477882 -21.269064 
L 137.306289 -21.269064 
L 138.134696 -21.269064 
L 138.963102 -21.269064 
L 139.791509 -21.269064 
L 140.619916 -21.269064 
L 141.448322 -21.269064 
L 142.276729 -21.269064 
L 143.105136 -21.269064 
L 143.933542 -21.269064 
L 144.761949 -21.269064 
L 145.590356 -21.269064 
L 146.418762 -21.269064 
L 147.247169 -21.269064 
L 148.075576 -21.269064 
L 148.903982 -21.269064 
L 149.732389 -21.269064 
L 150.560796 -21.269064 
L 151.389202 -21.269064 
L 152.217609 -21.269064 
L 153.046016 -21.269064 
L 153.874422 -21.269064 
L 154.702829 -21.269064 
L 155.531236 -21.269064 
L 156.359642 -21.269064 
L 157.188049 -21.269064 
L 158.016456 -21.269064 
L 158.844862 -21.269064 
L 159.673269 -21.269064 
L 160.501676 -21.269064 
L 161.330082 -21.269064 
L 162.158489 -21.269064 
L 162.986896 -21.269064 
L 163.815302 -21.269064 
L 164.643709 -21.269064 
L 165.472116 -21.269064 
L 166.300522 -21.269064 
L 167.128929 -21.269064 
L 167.957336 -21.269064 
L 168.785743 -21.269064 
L 169.614149 -21.269064 
L 170.442556 -21.269064 
L 171.270963 -21.269064 
L 172.099369 -21.269064 
L 172.927776 -21.269064 
L 173.756183 -21.269064 
L 174.584589 -21.269064 
L 175.412996 -21.269064 
L 176.241403 -21.269064 
L 177.069809 -21.269064 
L 177.898216 -21.269064 
L 178.726623 -21.269064 
L 179.555029 -21.269064 
L 180.383436 -21.269064 
L 181.211843 -21.269064 
L 182.040249 -21.269064 
L 182.868656 -21.269064 
L 183.697063 -21.269064 
L 184.525469 -21.269064 
L 185.353876 -21.269064 
L 186.182283 -21.269064 
L 187.010689 -21.269064 
L 187.839096 -21.269064 
L 188.667503 -21.269064 
L 189.495909 -21.269064 
L 190.324316 -21.269064 
L 191.152723 -21.269064 
L 191.981129 -21.269064 
L 192.809536 -21.269064 
L 193.637943 -21.269064 
L 194.466349 -21.269064 
L 195.294756 -21.269064 
L 196.123163 -21.269064 
L 196.951569 -21.269064 
L 197.779976 -21.269064 
L 198.608383 -21.269064 
L 199.436789 -21.269064 
L 200.265196 -21.269064 
L 201.093603 -21.269064 
L 201.92201 -21.269064 
L 202.750416 -21.269064 
L 203.578823 -21.269064 
L 204.40723 -21.269064 
L 205.235636 -21.269064 
L 206.064043 -21.269064 
L 206.89245 -21.269064 
L 207.720856 -21.269064 
L 208.549263 -21.269064 
L 209.37767 -21.269064 
L 210.206076 -21.269064 
L 211.034483 -21.269064 
L 211.86289 -21.269064 
L 212.691296 -21.269064 
L 213.519703 -21.269064 
L 214.34811 -21.269064 
L 215.176516 -21.269064 
L 216.004923 -21.269064 
L 216.83333 -21.269064 
L 217.661736 -21.269064 
L 218.490143 -21.269064 
L 219.31855 -21.269064 
L 220.146956 -21.269064 
L 220.975363 -21.269064 
L 221.80377 -21.269064 
L 222.632176 -21.269064 
L 223.460583 -21.269064 
L 224.28899 -21.269064 
L 225.117396 -21.269064 
L 225.945803 -21.269064 
L 226.77421 -21.269064 
L 227.602616 -21.269064 
L 228.431023 -21.269064 
L 229.25943 -21.269064 
L 230.087836 -21.269064 
L 230.916243 -21.269064 
L 231.74465 -21.269064 
L 232.573056 -21.269064 
L 233.401463 -21.269064 
L 234.22987 -21.269064 
L 235.058277 -21.269064 
L 235.886683 -21.269064 
L 236.71509 -21.269064 
L 237.543497 -21.269064 
L 238.371903 -21.269064 
L 239.20031 -21.269064 
L 240.028717 -21.269064 
L 240.857123 -21.269064 
L 241.68553 -21.269064 
L 242.513937 -21.269064 
L 243.342343 -21.269064 
L 244.17075 -21.269064 
L 244.17075 -21.307291 
L 244.17075 -21.307291 
L 243.342343 -21.319057 
L 242.513937 -21.333968 
L 241.68553 -21.352717 
L 240.857123 -21.376106 
L 240.028717 -21.40505 
L 239.20031 -21.44059 
L 238.371903 -21.483882 
L 237.543497 -21.536205 
L 236.71509 -21.598943 
L 235.886683 -21.67358 
L 235.058277 -21.761673 
L 234.22987 -21.864831 
L 233.401463 -21.984679 
L 232.573056 -22.122819 
L 231.74465 -22.280787 
L 230.916243 -22.459998 
L 230.087836 -22.661691 
L 229.25943 -22.886872 
L 228.431023 -23.136257 
L 227.602616 -23.410208 
L 226.77421 -23.708684 
L 225.945803 -24.031188 
L 225.117396 -24.376731 
L 224.28899 -24.743798 
L 223.460583 -25.130339 
L 222.632176 -25.533761 
L 221.80377 -25.950953 
L 220.975363 -26.378312 
L 220.146956 -26.811804 
L 219.31855 -27.247031 
L 218.490143 -27.679323 
L 217.661736 -28.103842 
L 216.83333 -28.515697 
L 216.004923 -28.910077 
L 215.176516 -29.28238 
L 214.34811 -29.628354 
L 213.519703 -29.944222 
L 212.691296 -30.226815 
L 211.86289 -30.473679 
L 211.034483 -30.683169 
L 210.206076 -30.854527 
L 209.37767 -30.987927 
L 208.549263 -31.084496 
L 207.720856 -31.146313 
L 206.89245 -31.176369 
L 206.064043 -31.178505 
L 205.235636 -31.157322 
L 204.40723 -31.118075 
L 203.578823 -31.066534 
L 202.750416 -31.008842 
L 201.92201 -30.951359 
L 201.093603 -30.900504 
L 200.265196 -30.862587 
L 199.436789 -30.843662 
L 198.608383 -30.84938 
L 197.779976 -30.884858 
L 196.951569 -30.954575 
L 196.123163 -31.062283 
L 195.294756 -31.210952 
L 194.466349 -31.402739 
L 193.637943 -31.639002 
L 192.809536 -31.920332 
L 191.981129 -32.246637 
L 191.152723 -32.617249 
L 190.324316 -33.031072 
L 189.495909 -33.486753 
L 188.667503 -33.982881 
L 187.839096 -34.518204 
L 187.010689 -35.091849 
L 186.182283 -35.703546 
L 185.353876 -36.353833 
L 184.525469 -37.044237 
L 183.697063 -37.77742 
L 182.868656 -38.557272 
L 182.040249 -39.388945 
L 181.211843 -40.278823 
L 180.383436 -41.23442 
L 179.555029 -42.264205 
L 178.726623 -43.377361 
L 177.898216 -44.583473 
L 177.069809 -45.892173 
L 176.241403 -47.312744 
L 175.412996 -48.853699 
L 174.584589 -50.522359 
L 173.756183 -52.324454 
L 172.927776 -54.263758 
L 172.099369 -56.341777 
L 171.270963 -58.557527 
L 170.442556 -60.907382 
L 169.614149 -63.385041 
L 168.785743 -65.981582 
L 167.957336 -68.685638 
L 167.128929 -71.483662 
L 166.300522 -74.36029 
L 165.472116 -77.298768 
L 164.643709 -80.281451 
L 163.815302 -83.290316 
L 162.986896 -86.30749 
L 162.158489 -89.31576 
L 161.330082 -92.299029 
L 160.501676 -95.242707 
L 159.673269 -98.134007 
L 158.844862 -100.96214 
L 158.016456 -103.718383 
L 157.188049 -106.396038 
L 156.359642 -108.990264 
L 155.531236 -111.497811 
L 154.702829 -113.91666 
L 153.874422 -116.245606 
L 153.046016 -118.483793 
L 152.217609 -120.630256 
L 151.389202 -122.683484 
L 150.560796 -124.641039 
L 149.732389 -126.499267 
L 148.903982 -128.253124 
L 148.075576 -129.896116 
L 147.247169 -131.420401 
L 146.418762 -132.817009 
L 145.590356 -134.076211 
L 144.761949 -135.188001 
L 143.933542 -136.142665 
L 143.105136 -136.931422 
L 142.276729 -137.547086 
L 141.448322 -137.984715 
L 140.619916 -138.242204 
L 139.791509 -138.320797 
L 138.963102 -138.225458 
L 138.134696 -137.965093 
L 137.306289 -137.552592 
L 136.477882 -137.004678 
L 135.649476 -136.341553 
L 134.821069 -135.586366 
L 133.992662 -134.764491 
L 133.164255 -133.902665 
L 132.335849 -133.028008 
L 131.507442 -132.166958 
L 130.679035 -131.344183 
L 129.850629 -130.581504 
L 129.022222 -129.89688 
L 128.193815 -129.303504 
L 127.365409 -128.809053 
L 126.537002 -128.415128 
L 125.708595 -128.116911 
L 124.880189 -127.90307 
L 124.051782 -127.755913 
L 123.223375 -127.651797 
L 122.394969 -127.56178 
L 121.566562 -127.4525 
L 120.738155 -127.287248 
L 119.909749 -127.027191 
L 119.081342 -126.632711 
L 118.252935 -126.064799 
L 117.424529 -125.286454 
L 116.596122 -124.26403 
L 115.767715 -122.968484 
L 114.939309 -121.376466 
L 114.110902 -119.471219 
L 113.282495 -117.243243 
L 112.454089 -114.690714 
L 111.625682 -111.819623 
L 110.797275 -108.643651 
L 109.968869 -105.183781 
L 109.140462 -101.467664 
L 108.312055 -97.528776 
L 107.483649 -93.405397 
L 106.655242 -89.139457 
L 105.826835 -84.775304 
L 104.998429 -80.358436 
L 104.170022 -75.934246 
L 103.341615 -71.546836 
L 102.513209 -67.237933 
L 101.684802 -63.045934 
L 100.856395 -59.005136 
L 100.027988 -55.145126 
L 99.199582 -51.490385 
L 98.371175 -48.060065 
L 97.542768 -44.867965 
L 96.714362 -41.922663 
L 95.885955 -39.227812 
L 95.057548 -36.782539 
L 94.229142 -34.581953 
L 93.400735 -32.617715 
L 92.572328 -30.878642 
L 91.743922 -29.351325 
L 90.915515 -28.02073 
L 90.087108 -26.870773 
L 89.258702 -25.884835 
L 88.430295 -25.046223 
L 87.601888 -24.338563 
L 86.773482 -23.746119 
L 85.945075 -23.254038 
L 85.116668 -22.848531 
L 84.288262 -22.516992 
L 83.459855 -22.248054 
L 82.631448 -22.031607 
L 81.803042 -21.85877 
L 80.974635 -21.721836 
L 80.146228 -21.614197 
L 79.317822 -21.530246 
z
" id="m90a54091b0" style="stroke:#008000;"/>
    </defs>
    <g clip-path="url(#pbc9f0409ff)">
     <use style="fill:#008000;fill-opacity:0.25;stroke:#008000;" x="0" xlink:href="#m90a54091b0" y="167.564064"/>
    </g>
   </g>
   <g id="PolyCollection_2">
    <defs>
     <path d="M 69.697834 -21.318549 
L 69.697834 -21.269064 
L 70.590022 -21.269064 
L 71.48221 -21.269064 
L 72.374398 -21.269064 
L 73.266586 -21.269064 
L 74.158775 -21.269064 
L 75.050963 -21.269064 
L 75.943151 -21.269064 
L 76.835339 -21.269064 
L 77.727527 -21.269064 
L 78.619716 -21.269064 
L 79.511904 -21.269064 
L 80.404092 -21.269064 
L 81.29628 -21.269064 
L 82.188469 -21.269064 
L 83.080657 -21.269064 
L 83.972845 -21.269064 
L 84.865033 -21.269064 
L 85.757221 -21.269064 
L 86.64941 -21.269064 
L 87.541598 -21.269064 
L 88.433786 -21.269064 
L 89.325974 -21.269064 
L 90.218162 -21.269064 
L 91.110351 -21.269064 
L 92.002539 -21.269064 
L 92.894727 -21.269064 
L 93.786915 -21.269064 
L 94.679104 -21.269064 
L 95.571292 -21.269064 
L 96.46348 -21.269064 
L 97.355668 -21.269064 
L 98.247856 -21.269064 
L 99.140045 -21.269064 
L 100.032233 -21.269064 
L 100.924421 -21.269064 
L 101.816609 -21.269064 
L 102.708797 -21.269064 
L 103.600986 -21.269064 
L 104.493174 -21.269064 
L 105.385362 -21.269064 
L 106.27755 -21.269064 
L 107.169739 -21.269064 
L 108.061927 -21.269064 
L 108.954115 -21.269064 
L 109.846303 -21.269064 
L 110.738491 -21.269064 
L 111.63068 -21.269064 
L 112.522868 -21.269064 
L 113.415056 -21.269064 
L 114.307244 -21.269064 
L 115.199432 -21.269064 
L 116.091621 -21.269064 
L 116.983809 -21.269064 
L 117.875997 -21.269064 
L 118.768185 -21.269064 
L 119.660374 -21.269064 
L 120.552562 -21.269064 
L 121.44475 -21.269064 
L 122.336938 -21.269064 
L 123.229126 -21.269064 
L 124.121315 -21.269064 
L 125.013503 -21.269064 
L 125.905691 -21.269064 
L 126.797879 -21.269064 
L 127.690067 -21.269064 
L 128.582256 -21.269064 
L 129.474444 -21.269064 
L 130.366632 -21.269064 
L 131.25882 -21.269064 
L 132.151009 -21.269064 
L 133.043197 -21.269064 
L 133.935385 -21.269064 
L 134.827573 -21.269064 
L 135.719761 -21.269064 
L 136.61195 -21.269064 
L 137.504138 -21.269064 
L 138.396326 -21.269064 
L 139.288514 -21.269064 
L 140.180702 -21.269064 
L 141.072891 -21.269064 
L 141.965079 -21.269064 
L 142.857267 -21.269064 
L 143.749455 -21.269064 
L 144.641644 -21.269064 
L 145.533832 -21.269064 
L 146.42602 -21.269064 
L 147.318208 -21.269064 
L 148.210396 -21.269064 
L 149.102585 -21.269064 
L 149.994773 -21.269064 
L 150.886961 -21.269064 
L 151.779149 -21.269064 
L 152.671337 -21.269064 
L 153.563526 -21.269064 
L 154.455714 -21.269064 
L 155.347902 -21.269064 
L 156.24009 -21.269064 
L 157.132279 -21.269064 
L 158.024467 -21.269064 
L 158.916655 -21.269064 
L 159.808843 -21.269064 
L 160.701031 -21.269064 
L 161.59322 -21.269064 
L 162.485408 -21.269064 
L 163.377596 -21.269064 
L 164.269784 -21.269064 
L 165.161972 -21.269064 
L 166.054161 -21.269064 
L 166.946349 -21.269064 
L 167.838537 -21.269064 
L 168.730725 -21.269064 
L 169.622914 -21.269064 
L 170.515102 -21.269064 
L 171.40729 -21.269064 
L 172.299478 -21.269064 
L 173.191666 -21.269064 
L 174.083855 -21.269064 
L 174.976043 -21.269064 
L 175.868231 -21.269064 
L 176.760419 -21.269064 
L 177.652607 -21.269064 
L 178.544796 -21.269064 
L 179.436984 -21.269064 
L 180.329172 -21.269064 
L 181.22136 -21.269064 
L 182.113549 -21.269064 
L 183.005737 -21.269064 
L 183.897925 -21.269064 
L 184.790113 -21.269064 
L 185.682301 -21.269064 
L 186.57449 -21.269064 
L 187.466678 -21.269064 
L 188.358866 -21.269064 
L 189.251054 -21.269064 
L 190.143242 -21.269064 
L 191.035431 -21.269064 
L 191.927619 -21.269064 
L 192.819807 -21.269064 
L 193.711995 -21.269064 
L 194.604183 -21.269064 
L 195.496372 -21.269064 
L 196.38856 -21.269064 
L 197.280748 -21.269064 
L 198.172936 -21.269064 
L 199.065125 -21.269064 
L 199.957313 -21.269064 
L 200.849501 -21.269064 
L 201.741689 -21.269064 
L 202.633877 -21.269064 
L 203.526066 -21.269064 
L 204.418254 -21.269064 
L 205.310442 -21.269064 
L 206.20263 -21.269064 
L 207.094818 -21.269064 
L 207.987007 -21.269064 
L 208.879195 -21.269064 
L 209.771383 -21.269064 
L 210.663571 -21.269064 
L 211.55576 -21.269064 
L 212.447948 -21.269064 
L 213.340136 -21.269064 
L 214.232324 -21.269064 
L 215.124512 -21.269064 
L 216.016701 -21.269064 
L 216.908889 -21.269064 
L 217.801077 -21.269064 
L 218.693265 -21.269064 
L 219.585453 -21.269064 
L 220.477642 -21.269064 
L 221.36983 -21.269064 
L 222.262018 -21.269064 
L 223.154206 -21.269064 
L 224.046395 -21.269064 
L 224.938583 -21.269064 
L 225.830771 -21.269064 
L 226.722959 -21.269064 
L 227.615147 -21.269064 
L 228.507336 -21.269064 
L 229.399524 -21.269064 
L 230.291712 -21.269064 
L 231.1839 -21.269064 
L 232.076088 -21.269064 
L 232.968277 -21.269064 
L 233.860465 -21.269064 
L 234.752653 -21.269064 
L 235.644841 -21.269064 
L 236.53703 -21.269064 
L 237.429218 -21.269064 
L 238.321406 -21.269064 
L 239.213594 -21.269064 
L 240.105782 -21.269064 
L 240.997971 -21.269064 
L 241.890159 -21.269064 
L 242.782347 -21.269064 
L 243.674535 -21.269064 
L 244.566723 -21.269064 
L 245.458912 -21.269064 
L 246.3511 -21.269064 
L 247.243288 -21.269064 
L 247.243288 -21.309302 
L 247.243288 -21.309302 
L 246.3511 -21.322506 
L 245.458912 -21.339448 
L 244.566723 -21.360986 
L 243.674535 -21.38811 
L 242.782347 -21.42195 
L 241.890159 -21.463773 
L 240.997971 -21.514971 
L 240.105782 -21.577049 
L 239.213594 -21.651596 
L 238.321406 -21.740246 
L 237.429218 -21.844635 
L 236.53703 -21.966338 
L 235.644841 -22.106802 
L 234.752653 -22.267266 
L 233.860465 -22.448677 
L 232.968277 -22.651603 
L 232.076088 -22.876145 
L 231.1839 -23.121857 
L 230.291712 -23.387675 
L 229.399524 -23.671865 
L 228.507336 -23.971991 
L 227.615147 -24.284912 
L 226.722959 -24.606808 
L 225.830771 -24.933244 
L 224.938583 -25.259264 
L 224.046395 -25.579526 
L 223.154206 -25.888465 
L 222.262018 -26.180483 
L 221.36983 -26.450165 
L 220.477642 -26.692503 
L 219.585453 -26.903131 
L 218.693265 -27.078542 
L 217.801077 -27.216302 
L 216.908889 -27.315228 
L 216.016701 -27.375535 
L 215.124512 -27.398938 
L 214.232324 -27.388707 
L 213.340136 -27.349665 
L 212.447948 -27.288138 
L 211.55576 -27.211844 
L 210.663571 -27.129738 
L 209.771383 -27.051805 
L 208.879195 -26.988813 
L 207.987007 -26.952036 
L 207.094818 -26.95295 
L 206.20263 -27.002912 
L 205.310442 -27.112831 
L 204.418254 -27.292847 
L 203.526066 -27.55201 
L 202.633877 -27.897994 
L 201.741689 -28.33682 
L 200.849501 -28.872636 
L 199.957313 -29.507523 
L 199.065125 -30.241362 
L 198.172936 -31.071751 
L 197.280748 -31.993985 
L 196.38856 -33.001095 
L 195.496372 -34.083953 
L 194.604183 -35.231445 
L 193.711995 -36.430697 
L 192.819807 -37.667363 
L 191.927619 -38.925969 
L 191.035431 -40.190293 
L 190.143242 -41.443786 
L 189.251054 -42.670021 
L 188.358866 -43.853147 
L 187.466678 -44.978358 
L 186.57449 -46.032346 
L 185.682301 -47.003733 
L 184.790113 -47.88347 
L 183.897925 -48.665194 
L 183.005737 -49.345514 
L 182.113549 -49.924244 
L 181.22136 -50.404539 
L 180.329172 -50.792951 
L 179.436984 -51.099385 
L 178.544796 -51.336945 
L 177.652607 -51.521691 
L 176.760419 -51.672279 
L 175.868231 -51.80951 
L 174.976043 -51.955798 
L 174.083855 -52.134561 
L 173.191666 -52.36956 
L 172.299478 -52.684218 
L 171.40729 -53.100927 
L 170.515102 -53.640378 
L 169.622914 -54.320951 
L 168.730725 -55.158166 
L 167.838537 -56.164246 
L 166.946349 -57.347785 
L 166.054161 -58.713555 
L 165.161972 -60.262441 
L 164.269784 -61.991521 
L 163.377596 -63.894272 
L 162.485408 -65.960902 
L 161.59322 -68.178784 
L 160.701031 -70.532966 
L 159.808843 -73.006751 
L 158.916655 -75.582304 
L 158.024467 -78.241259 
L 157.132279 -80.965323 
L 156.24009 -83.73682 
L 155.347902 -86.539188 
L 154.455714 -89.357385 
L 153.563526 -92.178216 
L 152.671337 -94.990551 
L 151.779149 -97.785445 
L 150.886961 -100.556163 
L 149.994773 -103.298098 
L 149.102585 -106.008611 
L 148.210396 -108.686785 
L 147.318208 -111.33312 
L 146.42602 -113.949174 
L 145.533832 -116.537166 
L 144.641644 -119.099561 
L 143.749455 -121.638639 
L 142.857267 -124.156079 
L 141.965079 -126.65255 
L 141.072891 -129.127346 
L 140.180702 -131.578044 
L 139.288514 -134.000227 
L 138.396326 -136.387255 
L 137.504138 -138.730112 
L 136.61195 -141.017309 
L 135.719761 -143.234882 
L 134.827573 -145.366457 
L 133.935385 -147.393406 
L 133.043197 -149.295078 
L 132.151009 -151.049123 
L 131.25882 -152.631879 
L 130.366632 -154.018839 
L 129.474444 -155.185174 
L 128.582256 -156.106302 
L 127.690067 -156.758494 
L 126.797879 -157.119479 
L 125.905691 -157.169064 
L 125.013503 -156.88971 
L 124.121315 -156.267063 
L 123.229126 -155.290431 
L 122.336938 -153.953158 
L 121.44475 -152.252912 
L 120.552562 -150.191863 
L 119.660374 -147.776741 
L 118.768185 -145.018781 
L 117.875997 -141.93356 
L 116.983809 -138.540719 
L 116.091621 -134.863607 
L 115.199432 -130.928835 
L 114.307244 -126.765777 
L 113.415056 -122.406025 
L 112.522868 -117.882817 
L 111.63068 -113.23046 
L 110.738491 -108.483758 
L 109.846303 -103.677461 
L 108.954115 -98.84574 
L 108.061927 -94.021712 
L 107.169739 -89.237001 
L 106.27755 -84.52136 
L 105.385362 -79.902339 
L 104.493174 -75.405018 
L 103.600986 -71.051792 
L 102.708797 -66.862215 
L 101.816609 -62.852903 
L 100.924421 -59.037488 
L 100.032233 -55.426629 
L 99.140045 -52.028067 
L 98.247856 -48.846733 
L 97.355668 -45.884891 
L 96.46348 -43.142319 
L 95.571292 -40.616521 
L 94.679104 -38.302957 
L 93.786915 -36.195298 
L 92.894727 -34.285683 
L 92.002539 -32.564984 
L 91.110351 -31.023064 
L 90.218162 -29.649033 
L 89.325974 -28.431485 
L 88.433786 -27.358719 
L 87.541598 -26.418947 
L 86.64941 -25.600471 
L 85.757221 -24.891838 
L 84.865033 -24.281981 
L 83.972845 -23.760323 
L 83.080657 -23.316866 
L 82.188469 -22.942254 
L 81.29628 -22.627822 
L 80.404092 -22.365616 
L 79.511904 -22.148407 
L 78.619716 -21.969681 
L 77.727527 -21.823625 
L 76.835339 -21.705096 
L 75.943151 -21.609582 
L 75.050963 -21.533167 
L 74.158775 -21.472474 
L 73.266586 -21.424624 
L 72.374398 -21.38718 
L 71.48221 -21.3581 
L 70.590022 -21.335688 
L 69.697834 -21.318549 
z
" id="m651467071e" style="stroke:#ffa500;"/>
    </defs>
    <g clip-path="url(#pbc9f0409ff)">
     <use style="fill:#ffa500;fill-opacity:0.25;stroke:#ffa500;" x="0" xlink:href="#m651467071e" y="167.564064"/>
    </g>
   </g>
   <g id="matplotlib.axis_1">
    <g id="xtick_1">
     <g id="line2d_1">
      <path clip-path="url(#pbc9f0409ff)" d="M 108.539232 146.295 
L 108.539232 3.6 
" style="fill:none;stroke:#000000;stroke-dasharray:0.5,0.825;stroke-dashoffset:0;stroke-opacity:0.5;stroke-width:0.5;"/>
     </g>
     <g id="line2d_2">
      <defs>
       <path d="M 0 0 
L 0 -3 
" id="m2b5a02bd38" style="stroke:#000000;stroke-width:0.5;"/>
      </defs>
      <g>
       <use style="stroke:#000000;stroke-width:0.5;" x="108.539232" xlink:href="#m2b5a02bd38" y="146.295"/>
      </g>
     </g>
     <g id="line2d_3">
      <defs>
       <path d="M 0 0 
L 0 3 
" id="m7de144dbf4" style="stroke:#000000;stroke-width:0.5;"/>
      </defs>
      <g>
       <use style="stroke:#000000;stroke-width:0.5;" x="108.539232" xlink:href="#m7de144dbf4" y="3.6"/>
      </g>
     </g>
     <g id="text_1">
      <!-- $\mathdefault{10}$ -->
      <g transform="translate(100.735245 160.864588)scale(0.16 -0.16)">
       <defs>
        <path d="M 26.59375 63.796875 
C 26.59375 65.890625 26.5 66 25.09375 66 
C 21.203125 61.359375 15.296875 59.890625 9.703125 59.6875 
C 9.40625 59.6875 8.90625 59.6875 8.796875 59.5 
C 8.703125 59.296875 8.703125 59.09375 8.703125 57 
C 11.796875 57 17 57.59375 21 59.984375 
L 21 7.296875 
C 21 3.796875 20.796875 2.59375 12.203125 2.59375 
L 9.203125 2.59375 
L 9.203125 0 
C 14 0.09375 19 0.1875 23.796875 0.1875 
C 28.59375 0.1875 33.59375 0.09375 38.40625 0 
L 38.40625 2.59375 
L 35.40625 2.59375 
C 26.796875 2.59375 26.59375 3.6875 26.59375 7.296875 
z
" id="CMR17-49"/>
        <path d="M 42 31.84375 
C 42 37.96875 41.90625 48.421875 37.703125 56.453125 
C 34 63.484375 28.09375 66 22.90625 66 
C 18.09375 66 12 63.78125 8.203125 56.5625 
C 4.203125 49.015625 3.796875 39.671875 3.796875 31.84375 
C 3.796875 26.109375 3.90625 17.375 7 9.734375 
C 11.296875 -0.609375 19 -2 22.90625 -2 
C 27.5 -2 34.5 -0.109375 38.59375 9.4375 
C 41.59375 16.375 42 24.5 42 31.84375 
z
M 22.90625 -0.40625 
C 16.5 -0.40625 12.703125 5.125 11.296875 12.75 
C 10.203125 18.6875 10.203125 27.328125 10.203125 32.953125 
C 10.203125 40.6875 10.203125 47.109375 11.5 53.234375 
C 13.40625 61.78125 19 64.390625 22.90625 64.390625 
C 27 64.390625 32.296875 61.671875 34.203125 53.4375 
C 35.5 47.71875 35.59375 40.984375 35.59375 32.953125 
C 35.59375 26.421875 35.59375 18.375 34.40625 12.453125 
C 32.296875 1.5 26.40625 -0.40625 22.90625 -0.40625 
z
" id="CMR17-48"/>
       </defs>
       <use transform="scale(0.996264)" xlink:href="#CMR17-49"/>
       <use transform="translate(45.690477 0)scale(0.996264)" xlink:href="#CMR17-48"/>
      </g>
     </g>
    </g>
    <g id="xtick_2">
     <g id="line2d_4">
      <path clip-path="url(#pbc9f0409ff)" d="M 157.407254 146.295 
L 157.407254 3.6 
" style="fill:none;stroke:#000000;stroke-dasharray:0.5,0.825;stroke-dashoffset:0;stroke-opacity:0.5;stroke-width:0.5;"/>
     </g>
     <g id="line2d_5">
      <g>
       <use style="stroke:#000000;stroke-width:0.5;" x="157.407254" xlink:href="#m2b5a02bd38" y="146.295"/>
      </g>
     </g>
     <g id="line2d_6">
      <g>
       <use style="stroke:#000000;stroke-width:0.5;" x="157.407254" xlink:href="#m7de144dbf4" y="3.6"/>
      </g>
     </g>
     <g id="text_2">
      <!-- $\mathdefault{20}$ -->
      <g transform="translate(149.603267 160.864588)scale(0.16 -0.16)">
       <defs>
        <path d="M 41.703125 15.46875 
L 39.90625 15.46875 
C 38.90625 8.390625 38.09375 7.1875 37.703125 6.59375 
C 37.203125 5.796875 30 5.796875 28.59375 5.796875 
L 9.40625 5.796875 
C 13 9.6875 20 16.765625 28.5 24.9375 
C 34.59375 30.71875 41.703125 37.5 41.703125 47.390625 
C 41.703125 59.1875 32.296875 66 21.796875 66 
C 10.796875 66 4.09375 56.296875 4.09375 47.296875 
C 4.09375 43.390625 7 42.890625 8.203125 42.890625 
C 9.203125 42.890625 12.203125 43.484375 12.203125 46.984375 
C 12.203125 50.09375 9.59375 51 8.203125 51 
C 7.59375 51 7 50.890625 6.59375 50.6875 
C 8.5 59.1875 14.296875 63.390625 20.40625 63.390625 
C 29.09375 63.390625 34.796875 56.5 34.796875 47.390625 
C 34.796875 38.703125 29.703125 31.21875 24 24.734375 
L 4.09375 2.296875 
L 4.09375 0 
L 39.296875 0 
z
" id="CMR17-50"/>
       </defs>
       <use transform="scale(0.996264)" xlink:href="#CMR17-50"/>
       <use transform="translate(45.690477 0)scale(0.996264)" xlink:href="#CMR17-48"/>
      </g>
     </g>
    </g>
    <g id="xtick_3">
     <g id="line2d_7">
      <path clip-path="url(#pbc9f0409ff)" d="M 206.275276 146.295 
L 206.275276 3.6 
" style="fill:none;stroke:#000000;stroke-dasharray:0.5,0.825;stroke-dashoffset:0;stroke-opacity:0.5;stroke-width:0.5;"/>
     </g>
     <g id="line2d_8">
      <g>
       <use style="stroke:#000000;stroke-width:0.5;" x="206.275276" xlink:href="#m2b5a02bd38" y="146.295"/>
      </g>
     </g>
     <g id="line2d_9">
      <g>
       <use style="stroke:#000000;stroke-width:0.5;" x="206.275276" xlink:href="#m7de144dbf4" y="3.6"/>
      </g>
     </g>
     <g id="text_3">
      <!-- $\mathdefault{30}$ -->
      <g transform="translate(198.471289 160.864588)scale(0.16 -0.16)">
       <defs>
        <path d="M 22.09375 34 
C 31 34 34.90625 26.140625 34.90625 17.09375 
C 34.90625 5.03125 28.5 0.390625 22.703125 0.390625 
C 17.40625 0.390625 8.796875 3.015625 6.09375 10.796875 
C 6.59375 10.59375 7.09375 10.59375 7.59375 10.59375 
C 10 10.59375 11.796875 12.1875 11.796875 14.796875 
C 11.796875 17.6875 9.59375 19 7.59375 19 
C 5.90625 19 3.296875 18.1875 3.296875 14.484375 
C 3.296875 5.234375 12.296875 -2 22.90625 -2 
C 34 -2 42.5 6.75 42.5 16.984375 
C 42.5 26.84375 34.5 34 25 35.09375 
C 32.59375 36.671875 39.90625 43.375 39.90625 52.390625 
C 39.90625 60.25 32 66 23 66 
C 13.90625 66 5.90625 60.34375 5.90625 52.296875 
C 5.90625 48.796875 8.5 48.1875 9.796875 48.1875 
C 11.90625 48.1875 13.703125 49.484375 13.703125 52.09375 
C 13.703125 54.6875 11.90625 56 9.796875 56 
C 9.40625 56 8.90625 56 8.5 55.796875 
C 11.40625 62.484375 19.296875 63.6875 22.796875 63.6875 
C 26.296875 63.6875 32.90625 61.96875 32.90625 52.296875 
C 32.90625 49.484375 32.5 44.546875 29.09375 40.21875 
C 26.09375 36.390625 22.703125 36.1875 19.40625 35.890625 
C 18.90625 35.890625 16.59375 35.6875 16.203125 35.6875 
C 15.5 35.59375 15.09375 35.5 15.09375 34.796875 
C 15.09375 34.09375 15.203125 34 17.203125 34 
z
" id="CMR17-51"/>
       </defs>
       <use transform="scale(0.996264)" xlink:href="#CMR17-51"/>
       <use transform="translate(45.690477 0)scale(0.996264)" xlink:href="#CMR17-48"/>
      </g>
     </g>
    </g>
    <g id="xtick_4">
     <g id="line2d_10">
      <path clip-path="url(#pbc9f0409ff)" d="M 255.143298 146.295 
L 255.143298 3.6 
" style="fill:none;stroke:#000000;stroke-dasharray:0.5,0.825;stroke-dashoffset:0;stroke-opacity:0.5;stroke-width:0.5;"/>
     </g>
     <g id="line2d_11">
      <g>
       <use style="stroke:#000000;stroke-width:0.5;" x="255.143298" xlink:href="#m2b5a02bd38" y="146.295"/>
      </g>
     </g>
     <g id="line2d_12">
      <g>
       <use style="stroke:#000000;stroke-width:0.5;" x="255.143298" xlink:href="#m7de144dbf4" y="3.6"/>
      </g>
     </g>
     <g id="text_4">
      <!-- $\mathdefault{40}$ -->
      <g transform="translate(247.339311 160.864588)scale(0.16 -0.16)">
       <defs>
        <path d="M 33.59375 64.796875 
C 33.59375 66.890625 33.5 67 31.703125 67 
L 2 19.59375 
L 2 17 
L 27.796875 17 
L 27.796875 7.1875 
C 27.796875 3.59375 27.59375 2.59375 20.59375 2.59375 
L 18.703125 2.59375 
L 18.703125 0 
C 21.90625 0.1875 27.296875 0.1875 30.703125 0.1875 
C 34.09375 0.1875 39.5 0.1875 42.703125 0 
L 42.703125 2.59375 
L 40.796875 2.59375 
C 33.796875 2.59375 33.59375 3.59375 33.59375 7.1875 
L 33.59375 17 
L 43.796875 17 
L 43.796875 19.59375 
L 33.59375 19.59375 
z
M 28.09375 58.171875 
L 28.09375 19.59375 
L 4 19.59375 
z
" id="CMR17-52"/>
       </defs>
       <use transform="scale(0.996264)" xlink:href="#CMR17-52"/>
       <use transform="translate(45.690477 0)scale(0.996264)" xlink:href="#CMR17-48"/>
      </g>
     </g>
    </g>
    <g id="xtick_5">
     <g id="line2d_13">
      <defs>
       <path d="M 0 0 
L 0 -1.5 
" id="mae9f34f171" style="stroke:#000000;stroke-width:0.5;"/>
      </defs>
      <g>
       <use style="stroke:#000000;stroke-width:0.5;" x="69.444815" xlink:href="#mae9f34f171" y="146.295"/>
      </g>
     </g>
     <g id="line2d_14">
      <defs>
       <path d="M 0 0 
L 0 1.5 
" id="me9f1bba060" style="stroke:#000000;stroke-width:0.5;"/>
      </defs>
      <g>
       <use style="stroke:#000000;stroke-width:0.5;" x="69.444815" xlink:href="#me9f1bba060" y="3.6"/>
      </g>
     </g>
    </g>
    <g id="xtick_6">
     <g id="line2d_15">
      <g>
       <use style="stroke:#000000;stroke-width:0.5;" x="79.218419" xlink:href="#mae9f34f171" y="146.295"/>
      </g>
     </g>
     <g id="line2d_16">
      <g>
       <use style="stroke:#000000;stroke-width:0.5;" x="79.218419" xlink:href="#me9f1bba060" y="3.6"/>
      </g>
     </g>
    </g>
    <g id="xtick_7">
     <g id="line2d_17">
      <g>
       <use style="stroke:#000000;stroke-width:0.5;" x="88.992024" xlink:href="#mae9f34f171" y="146.295"/>
      </g>
     </g>
     <g id="line2d_18">
      <g>
       <use style="stroke:#000000;stroke-width:0.5;" x="88.992024" xlink:href="#me9f1bba060" y="3.6"/>
      </g>
     </g>
    </g>
    <g id="xtick_8">
     <g id="line2d_19">
      <g>
       <use style="stroke:#000000;stroke-width:0.5;" x="98.765628" xlink:href="#mae9f34f171" y="146.295"/>
      </g>
     </g>
     <g id="line2d_20">
      <g>
       <use style="stroke:#000000;stroke-width:0.5;" x="98.765628" xlink:href="#me9f1bba060" y="3.6"/>
      </g>
     </g>
    </g>
    <g id="xtick_9">
     <g id="line2d_21">
      <g>
       <use style="stroke:#000000;stroke-width:0.5;" x="118.312837" xlink:href="#mae9f34f171" y="146.295"/>
      </g>
     </g>
     <g id="line2d_22">
      <g>
       <use style="stroke:#000000;stroke-width:0.5;" x="118.312837" xlink:href="#me9f1bba060" y="3.6"/>
      </g>
     </g>
    </g>
    <g id="xtick_10">
     <g id="line2d_23">
      <g>
       <use style="stroke:#000000;stroke-width:0.5;" x="128.086441" xlink:href="#mae9f34f171" y="146.295"/>
      </g>
     </g>
     <g id="line2d_24">
      <g>
       <use style="stroke:#000000;stroke-width:0.5;" x="128.086441" xlink:href="#me9f1bba060" y="3.6"/>
      </g>
     </g>
    </g>
    <g id="xtick_11">
     <g id="line2d_25">
      <g>
       <use style="stroke:#000000;stroke-width:0.5;" x="137.860045" xlink:href="#mae9f34f171" y="146.295"/>
      </g>
     </g>
     <g id="line2d_26">
      <g>
       <use style="stroke:#000000;stroke-width:0.5;" x="137.860045" xlink:href="#me9f1bba060" y="3.6"/>
      </g>
     </g>
    </g>
    <g id="xtick_12">
     <g id="line2d_27">
      <g>
       <use style="stroke:#000000;stroke-width:0.5;" x="147.63365" xlink:href="#mae9f34f171" y="146.295"/>
      </g>
     </g>
     <g id="line2d_28">
      <g>
       <use style="stroke:#000000;stroke-width:0.5;" x="147.63365" xlink:href="#me9f1bba060" y="3.6"/>
      </g>
     </g>
    </g>
    <g id="xtick_13">
     <g id="line2d_29">
      <g>
       <use style="stroke:#000000;stroke-width:0.5;" x="167.180858" xlink:href="#mae9f34f171" y="146.295"/>
      </g>
     </g>
     <g id="line2d_30">
      <g>
       <use style="stroke:#000000;stroke-width:0.5;" x="167.180858" xlink:href="#me9f1bba060" y="3.6"/>
      </g>
     </g>
    </g>
    <g id="xtick_14">
     <g id="line2d_31">
      <g>
       <use style="stroke:#000000;stroke-width:0.5;" x="176.954463" xlink:href="#mae9f34f171" y="146.295"/>
      </g>
     </g>
     <g id="line2d_32">
      <g>
       <use style="stroke:#000000;stroke-width:0.5;" x="176.954463" xlink:href="#me9f1bba060" y="3.6"/>
      </g>
     </g>
    </g>
    <g id="xtick_15">
     <g id="line2d_33">
      <g>
       <use style="stroke:#000000;stroke-width:0.5;" x="186.728067" xlink:href="#mae9f34f171" y="146.295"/>
      </g>
     </g>
     <g id="line2d_34">
      <g>
       <use style="stroke:#000000;stroke-width:0.5;" x="186.728067" xlink:href="#me9f1bba060" y="3.6"/>
      </g>
     </g>
    </g>
    <g id="xtick_16">
     <g id="line2d_35">
      <g>
       <use style="stroke:#000000;stroke-width:0.5;" x="196.501671" xlink:href="#mae9f34f171" y="146.295"/>
      </g>
     </g>
     <g id="line2d_36">
      <g>
       <use style="stroke:#000000;stroke-width:0.5;" x="196.501671" xlink:href="#me9f1bba060" y="3.6"/>
      </g>
     </g>
    </g>
    <g id="xtick_17">
     <g id="line2d_37">
      <g>
       <use style="stroke:#000000;stroke-width:0.5;" x="216.04888" xlink:href="#mae9f34f171" y="146.295"/>
      </g>
     </g>
     <g id="line2d_38">
      <g>
       <use style="stroke:#000000;stroke-width:0.5;" x="216.04888" xlink:href="#me9f1bba060" y="3.6"/>
      </g>
     </g>
    </g>
    <g id="xtick_18">
     <g id="line2d_39">
      <g>
       <use style="stroke:#000000;stroke-width:0.5;" x="225.822484" xlink:href="#mae9f34f171" y="146.295"/>
      </g>
     </g>
     <g id="line2d_40">
      <g>
       <use style="stroke:#000000;stroke-width:0.5;" x="225.822484" xlink:href="#me9f1bba060" y="3.6"/>
      </g>
     </g>
    </g>
    <g id="xtick_19">
     <g id="line2d_41">
      <g>
       <use style="stroke:#000000;stroke-width:0.5;" x="235.596089" xlink:href="#mae9f34f171" y="146.295"/>
      </g>
     </g>
     <g id="line2d_42">
      <g>
       <use style="stroke:#000000;stroke-width:0.5;" x="235.596089" xlink:href="#me9f1bba060" y="3.6"/>
      </g>
     </g>
    </g>
    <g id="xtick_20">
     <g id="line2d_43">
      <g>
       <use style="stroke:#000000;stroke-width:0.5;" x="245.369693" xlink:href="#mae9f34f171" y="146.295"/>
      </g>
     </g>
     <g id="line2d_44">
      <g>
       <use style="stroke:#000000;stroke-width:0.5;" x="245.369693" xlink:href="#me9f1bba060" y="3.6"/>
      </g>
     </g>
    </g>
   </g>
   <g id="matplotlib.axis_2">
    <g id="ytick_1">
     <g id="line2d_45">
      <path clip-path="url(#pbc9f0409ff)" d="M 60.820561 146.295 
L 256.120561 146.295 
" style="fill:none;stroke:#000000;stroke-dasharray:0.5,0.825;stroke-dashoffset:0;stroke-opacity:0.5;stroke-width:0.5;"/>
     </g>
     <g id="line2d_46">
      <defs>
       <path d="M 0 0 
L 3 0 
" id="m4f6ce010d4" style="stroke:#000000;stroke-width:0.5;"/>
      </defs>
      <g>
       <use style="stroke:#000000;stroke-width:0.5;" x="60.820561" xlink:href="#m4f6ce010d4" y="146.295"/>
      </g>
     </g>
     <g id="line2d_47">
      <defs>
       <path d="M 0 0 
L -3 0 
" id="m4c3924a66f" style="stroke:#000000;stroke-width:0.5;"/>
      </defs>
      <g>
       <use style="stroke:#000000;stroke-width:0.5;" x="256.120561" xlink:href="#m4c3924a66f" y="146.295"/>
      </g>
     </g>
     <g id="text_5">
      <!-- $\mathdefault{0.000}$ -->
      <g transform="translate(21.769064 151.829794)scale(0.16 -0.16)">
       <defs>
        <path d="M 18.40625 4.796875 
C 18.40625 7.6875 16 9.6875 13.59375 9.6875 
C 10.703125 9.6875 8.703125 7.296875 8.703125 4.890625 
C 8.703125 2 11.09375 0 13.5 0 
C 16.40625 0 18.40625 2.390625 18.40625 4.796875 
z
" id="CMMI12-58"/>
       </defs>
       <use transform="scale(0.996264)" xlink:href="#CMR17-48"/>
       <use transform="translate(45.690477 0)scale(0.996264)" xlink:href="#CMMI12-58"/>
       <use transform="translate(72.787654 0)scale(0.996264)" xlink:href="#CMR17-48"/>
       <use transform="translate(118.478131 0)scale(0.996264)" xlink:href="#CMR17-48"/>
       <use transform="translate(164.168608 0)scale(0.996264)" xlink:href="#CMR17-48"/>
      </g>
     </g>
    </g>
    <g id="ytick_2">
     <g id="line2d_48">
      <path clip-path="url(#pbc9f0409ff)" d="M 60.820561 108.643496 
L 256.120561 108.643496 
" style="fill:none;stroke:#000000;stroke-dasharray:0.5,0.825;stroke-dashoffset:0;stroke-opacity:0.5;stroke-width:0.5;"/>
     </g>
     <g id="line2d_49">
      <g>
       <use style="stroke:#000000;stroke-width:0.5;" x="60.820561" xlink:href="#m4f6ce010d4" y="108.643496"/>
      </g>
     </g>
     <g id="line2d_50">
      <g>
       <use style="stroke:#000000;stroke-width:0.5;" x="256.120561" xlink:href="#m4c3924a66f" y="108.643496"/>
      </g>
     </g>
     <g id="text_6">
      <!-- $\mathdefault{0.025}$ -->
      <g transform="translate(21.769064 114.17829)scale(0.16 -0.16)">
       <defs>
        <path d="M 11.40625 58.59375 
C 12.40625 58.1875 16.5 56.890625 20.703125 56.890625 
C 30 56.890625 35.09375 61.890625 38 64.6875 
C 38 65.484375 38 66 37.40625 66 
C 37.296875 66 37.09375 66 36.296875 65.59375 
C 32.796875 64.09375 28.703125 63 23.703125 63 
C 20.703125 63 16.203125 63.359375 11.296875 65.484375 
C 10.203125 66 10 66 9.90625 66 
C 9.40625 66 9.296875 65.890625 9.296875 63.90625 
L 9.296875 34.859375 
C 9.296875 33.015625 9.296875 32.5 10.296875 32.5 
C 10.796875 32.5 11 32.703125 11.5 33.421875 
C 14.703125 38.046875 19.09375 40 24.09375 40 
C 27.59375 40 35.09375 37.734375 35.09375 20.203125 
C 35.09375 16.984375 35.09375 11.1875 32.09375 6.59375 
C 29.59375 2.484375 25.703125 0.390625 21.40625 0.390625 
C 14.796875 0.390625 8.09375 4.984375 6.296875 12.6875 
C 6.703125 12.59375 7.5 12.390625 7.90625 12.390625 
C 9.203125 12.390625 11.703125 13.09375 11.703125 16.1875 
C 11.703125 18.890625 9.796875 20 7.90625 20 
C 5.59375 20 4.09375 18.59375 4.09375 15.796875 
C 4.09375 7.09375 11 -2 21.59375 -2 
C 31.90625 -2 41.703125 6.890625 41.703125 19.796875 
C 41.703125 32.09375 33.90625 41.59375 24.203125 41.59375 
C 19.09375 41.59375 14.796875 39.6875 11.40625 36 
z
" id="CMR17-53"/>
       </defs>
       <use transform="scale(0.996264)" xlink:href="#CMR17-48"/>
       <use transform="translate(45.690477 0)scale(0.996264)" xlink:href="#CMMI12-58"/>
       <use transform="translate(72.787654 0)scale(0.996264)" xlink:href="#CMR17-48"/>
       <use transform="translate(118.478131 0)scale(0.996264)" xlink:href="#CMR17-50"/>
       <use transform="translate(164.168608 0)scale(0.996264)" xlink:href="#CMR17-53"/>
      </g>
     </g>
    </g>
    <g id="ytick_3">
     <g id="line2d_51">
      <path clip-path="url(#pbc9f0409ff)" d="M 60.820561 70.991991 
L 256.120561 70.991991 
" style="fill:none;stroke:#000000;stroke-dasharray:0.5,0.825;stroke-dashoffset:0;stroke-opacity:0.5;stroke-width:0.5;"/>
     </g>
     <g id="line2d_52">
      <g>
       <use style="stroke:#000000;stroke-width:0.5;" x="60.820561" xlink:href="#m4f6ce010d4" y="70.991991"/>
      </g>
     </g>
     <g id="line2d_53">
      <g>
       <use style="stroke:#000000;stroke-width:0.5;" x="256.120561" xlink:href="#m4c3924a66f" y="70.991991"/>
      </g>
     </g>
     <g id="text_7">
      <!-- $\mathdefault{0.050}$ -->
      <g transform="translate(21.769064 76.526785)scale(0.16 -0.16)">
       <use transform="scale(0.996264)" xlink:href="#CMR17-48"/>
       <use transform="translate(45.690477 0)scale(0.996264)" xlink:href="#CMMI12-58"/>
       <use transform="translate(72.787654 0)scale(0.996264)" xlink:href="#CMR17-48"/>
       <use transform="translate(118.478131 0)scale(0.996264)" xlink:href="#CMR17-53"/>
       <use transform="translate(164.168608 0)scale(0.996264)" xlink:href="#CMR17-48"/>
      </g>
     </g>
    </g>
    <g id="ytick_4">
     <g id="line2d_54">
      <path clip-path="url(#pbc9f0409ff)" d="M 60.820561 33.340487 
L 256.120561 33.340487 
" style="fill:none;stroke:#000000;stroke-dasharray:0.5,0.825;stroke-dashoffset:0;stroke-opacity:0.5;stroke-width:0.5;"/>
     </g>
     <g id="line2d_55">
      <g>
       <use style="stroke:#000000;stroke-width:0.5;" x="60.820561" xlink:href="#m4f6ce010d4" y="33.340487"/>
      </g>
     </g>
     <g id="line2d_56">
      <g>
       <use style="stroke:#000000;stroke-width:0.5;" x="256.120561" xlink:href="#m4c3924a66f" y="33.340487"/>
      </g>
     </g>
     <g id="text_8">
      <!-- $\mathdefault{0.075}$ -->
      <g transform="translate(21.769064 38.875281)scale(0.16 -0.16)">
       <defs>
        <path d="M 45.09375 61.796875 
L 45.09375 64 
L 21.59375 64 
C 9.90625 64 9.703125 65.09375 9.296875 67 
L 7.5 67 
L 4.59375 48.5 
L 6.40625 48.5 
C 6.703125 50.40625 7.40625 55.5 8.59375 57.390625 
C 9.203125 58.1875 16.59375 58.1875 18.296875 58.1875 
L 40.296875 58.1875 
L 29.203125 41.71875 
C 21.796875 30.640625 16.703125 15.671875 16.703125 2.59375 
C 16.703125 1.390625 16.703125 -2 20.296875 -2 
C 23.90625 -2 23.90625 1.390625 23.90625 2.6875 
L 23.90625 7.28125 
C 23.90625 23.65625 26.703125 34.4375 31.296875 41.3125 
z
" id="CMR17-55"/>
       </defs>
       <use transform="scale(0.996264)" xlink:href="#CMR17-48"/>
       <use transform="translate(45.690477 0)scale(0.996264)" xlink:href="#CMMI12-58"/>
       <use transform="translate(72.787654 0)scale(0.996264)" xlink:href="#CMR17-48"/>
       <use transform="translate(118.478131 0)scale(0.996264)" xlink:href="#CMR17-55"/>
       <use transform="translate(164.168608 0)scale(0.996264)" xlink:href="#CMR17-53"/>
      </g>
     </g>
    </g>
    <g id="ytick_5">
     <g id="line2d_57">
      <defs>
       <path d="M 0 0 
L 1.5 0 
" id="mf404037c2c" style="stroke:#000000;stroke-width:0.5;"/>
      </defs>
      <g>
       <use style="stroke:#000000;stroke-width:0.5;" x="60.820561" xlink:href="#mf404037c2c" y="138.764699"/>
      </g>
     </g>
     <g id="line2d_58">
      <defs>
       <path d="M 0 0 
L -1.5 0 
" id="mc69ee086cc" style="stroke:#000000;stroke-width:0.5;"/>
      </defs>
      <g>
       <use style="stroke:#000000;stroke-width:0.5;" x="256.120561" xlink:href="#mc69ee086cc" y="138.764699"/>
      </g>
     </g>
    </g>
    <g id="ytick_6">
     <g id="line2d_59">
      <g>
       <use style="stroke:#000000;stroke-width:0.5;" x="60.820561" xlink:href="#mf404037c2c" y="131.234398"/>
      </g>
     </g>
     <g id="line2d_60">
      <g>
       <use style="stroke:#000000;stroke-width:0.5;" x="256.120561" xlink:href="#mc69ee086cc" y="131.234398"/>
      </g>
     </g>
    </g>
    <g id="ytick_7">
     <g id="line2d_61">
      <g>
       <use style="stroke:#000000;stroke-width:0.5;" x="60.820561" xlink:href="#mf404037c2c" y="123.704097"/>
      </g>
     </g>
     <g id="line2d_62">
      <g>
       <use style="stroke:#000000;stroke-width:0.5;" x="256.120561" xlink:href="#mc69ee086cc" y="123.704097"/>
      </g>
     </g>
    </g>
    <g id="ytick_8">
     <g id="line2d_63">
      <g>
       <use style="stroke:#000000;stroke-width:0.5;" x="60.820561" xlink:href="#mf404037c2c" y="116.173796"/>
      </g>
     </g>
     <g id="line2d_64">
      <g>
       <use style="stroke:#000000;stroke-width:0.5;" x="256.120561" xlink:href="#mc69ee086cc" y="116.173796"/>
      </g>
     </g>
    </g>
    <g id="ytick_9">
     <g id="line2d_65">
      <g>
       <use style="stroke:#000000;stroke-width:0.5;" x="60.820561" xlink:href="#mf404037c2c" y="101.113195"/>
      </g>
     </g>
     <g id="line2d_66">
      <g>
       <use style="stroke:#000000;stroke-width:0.5;" x="256.120561" xlink:href="#mc69ee086cc" y="101.113195"/>
      </g>
     </g>
    </g>
    <g id="ytick_10">
     <g id="line2d_67">
      <g>
       <use style="stroke:#000000;stroke-width:0.5;" x="60.820561" xlink:href="#mf404037c2c" y="93.582894"/>
      </g>
     </g>
     <g id="line2d_68">
      <g>
       <use style="stroke:#000000;stroke-width:0.5;" x="256.120561" xlink:href="#mc69ee086cc" y="93.582894"/>
      </g>
     </g>
    </g>
    <g id="ytick_11">
     <g id="line2d_69">
      <g>
       <use style="stroke:#000000;stroke-width:0.5;" x="60.820561" xlink:href="#mf404037c2c" y="86.052593"/>
      </g>
     </g>
     <g id="line2d_70">
      <g>
       <use style="stroke:#000000;stroke-width:0.5;" x="256.120561" xlink:href="#mc69ee086cc" y="86.052593"/>
      </g>
     </g>
    </g>
    <g id="ytick_12">
     <g id="line2d_71">
      <g>
       <use style="stroke:#000000;stroke-width:0.5;" x="60.820561" xlink:href="#mf404037c2c" y="78.522292"/>
      </g>
     </g>
     <g id="line2d_72">
      <g>
       <use style="stroke:#000000;stroke-width:0.5;" x="256.120561" xlink:href="#mc69ee086cc" y="78.522292"/>
      </g>
     </g>
    </g>
    <g id="ytick_13">
     <g id="line2d_73">
      <g>
       <use style="stroke:#000000;stroke-width:0.5;" x="60.820561" xlink:href="#mf404037c2c" y="63.46169"/>
      </g>
     </g>
     <g id="line2d_74">
      <g>
       <use style="stroke:#000000;stroke-width:0.5;" x="256.120561" xlink:href="#mc69ee086cc" y="63.46169"/>
      </g>
     </g>
    </g>
    <g id="ytick_14">
     <g id="line2d_75">
      <g>
       <use style="stroke:#000000;stroke-width:0.5;" x="60.820561" xlink:href="#mf404037c2c" y="55.931389"/>
      </g>
     </g>
     <g id="line2d_76">
      <g>
       <use style="stroke:#000000;stroke-width:0.5;" x="256.120561" xlink:href="#mc69ee086cc" y="55.931389"/>
      </g>
     </g>
    </g>
    <g id="ytick_15">
     <g id="line2d_77">
      <g>
       <use style="stroke:#000000;stroke-width:0.5;" x="60.820561" xlink:href="#mf404037c2c" y="48.401088"/>
      </g>
     </g>
     <g id="line2d_78">
      <g>
       <use style="stroke:#000000;stroke-width:0.5;" x="256.120561" xlink:href="#mc69ee086cc" y="48.401088"/>
      </g>
     </g>
    </g>
    <g id="ytick_16">
     <g id="line2d_79">
      <g>
       <use style="stroke:#000000;stroke-width:0.5;" x="60.820561" xlink:href="#mf404037c2c" y="40.870788"/>
      </g>
     </g>
     <g id="line2d_80">
      <g>
       <use style="stroke:#000000;stroke-width:0.5;" x="256.120561" xlink:href="#mc69ee086cc" y="40.870788"/>
      </g>
     </g>
    </g>
    <g id="ytick_17">
     <g id="line2d_81">
      <g>
       <use style="stroke:#000000;stroke-width:0.5;" x="60.820561" xlink:href="#mf404037c2c" y="25.810186"/>
      </g>
     </g>
     <g id="line2d_82">
      <g>
       <use style="stroke:#000000;stroke-width:0.5;" x="256.120561" xlink:href="#mc69ee086cc" y="25.810186"/>
      </g>
     </g>
    </g>
    <g id="ytick_18">
     <g id="line2d_83">
      <g>
       <use style="stroke:#000000;stroke-width:0.5;" x="60.820561" xlink:href="#mf404037c2c" y="18.279885"/>
      </g>
     </g>
     <g id="line2d_84">
      <g>
       <use style="stroke:#000000;stroke-width:0.5;" x="256.120561" xlink:href="#mc69ee086cc" y="18.279885"/>
      </g>
     </g>
    </g>
    <g id="ytick_19">
     <g id="line2d_85">
      <g>
       <use style="stroke:#000000;stroke-width:0.5;" x="60.820561" xlink:href="#mf404037c2c" y="10.749584"/>
      </g>
     </g>
     <g id="line2d_86">
      <g>
       <use style="stroke:#000000;stroke-width:0.5;" x="256.120561" xlink:href="#mc69ee086cc" y="10.749584"/>
      </g>
     </g>
    </g>
    <g id="text_9">
     <!-- Density -->
     <g transform="translate(14.669588 100.894381)rotate(-90)scale(0.16 -0.16)">
      <defs>
       <path d="M 5.203125 68 
L 5.203125 65.390625 
C 12.09375 65.390625 13.203125 65.390625 13.203125 60.90625 
L 13.203125 7.078125 
C 13.203125 2.59375 12.09375 2.59375 5.203125 2.59375 
L 5.203125 0 
L 37 0 
C 53.09375 0 66 14.734375 66 33.4375 
C 66 52.25 53.296875 68 37 68 
z
M 23.796875 2.59375 
C 19.796875 2.59375 19.59375 3.09375 19.59375 6.46875 
L 19.59375 61.5 
C 19.59375 64.890625 19.796875 65.390625 23.796875 65.390625 
L 35 65.390625 
C 43.296875 65.390625 58.59375 60.515625 58.59375 33.4375 
C 58.59375 19.40625 54.5 13.734375 52.59375 11.046875 
C 50.203125 7.96875 44.5 2.59375 35 2.59375 
z
" id="CMR17-68"/>
       <path d="M 38.09375 23.484375 
C 38.5 23.890625 38.5 24.09375 38.5 25.09375 
C 38.5 35.171875 33.09375 44 21.703125 44 
C 11.09375 44 2.703125 33.984375 2.703125 21.78125 
C 2.703125 8.65625 12.203125 -1 22.796875 -1 
C 34 -1 38.40625 9.671875 38.40625 11.796875 
C 38.40625 12.5 37.796875 12.5 37.59375 12.5 
C 36.90625 12.5 36.796875 12.296875 36.40625 11.078125 
C 34.203125 4.21875 28.703125 0.796875 23.5 0.796875 
C 19.203125 0.796875 14.90625 3.21875 12.203125 7.65625 
C 9.09375 12.796875 9.09375 18.75 9.09375 23.484375 
z
M 9.203125 25 
C 9.90625 39.234375 17.59375 42.390625 21.59375 42.390625 
C 28.40625 42.390625 33 36.0625 33.09375 25 
z
" id="CMR17-101"/>
       <path d="M 41.5 30.53125 
C 41.5 35.65625 40.5 44 28.703125 44 
C 20.796875 44 16.703125 37.875 15.203125 33.84375 
L 15.09375 33.84375 
L 15.09375 44 
L 3.296875 42.890625 
L 3.296875 40.28125 
C 9.203125 40.28125 10.09375 39.6875 10.09375 34.859375 
L 10.09375 6.921875 
C 10.09375 3.09375 9.703125 2.59375 3.296875 2.59375 
L 3.296875 0 
C 5.703125 0.1875 10.09375 0.1875 12.703125 0.1875 
C 15.296875 0.1875 19.796875 0.1875 22.203125 0 
L 22.203125 2.59375 
C 15.796875 2.59375 15.40625 3 15.40625 6.921875 
L 15.40625 26.21875 
C 15.40625 35.453125 21 42.390625 28 42.390625 
C 35.40625 42.390625 36.203125 35.765625 36.203125 30.9375 
L 36.203125 6.921875 
C 36.203125 3.09375 35.796875 2.59375 29.40625 2.59375 
L 29.40625 0 
C 31.796875 0.1875 36.203125 0.1875 38.796875 0.1875 
C 41.40625 0.1875 45.90625 0.1875 48.296875 0 
L 48.296875 2.59375 
C 41.90625 2.59375 41.5 3 41.5 6.921875 
z
" id="CMR17-110"/>
       <path d="M 30.90625 42 
C 30.90625 43.796875 30.796875 43.890625 30.203125 43.890625 
C 29.796875 43.890625 29.703125 43.796875 28.5 42.296875 
C 28.203125 41.890625 27.296875 40.890625 27 40.5 
C 23.796875 43.890625 19.296875 44 17.59375 44 
C 6.5 44 2.5 38.1875 2.5 32.390625 
C 2.5 23.390625 12.703125 21.296875 15.59375 20.6875 
C 21.90625 19.390625 24.09375 19 26.203125 17.1875 
C 27.5 16 29.703125 13.796875 29.703125 10.1875 
C 29.703125 6 27.296875 0.59375 18.09375 0.59375 
C 9.40625 0.59375 6.296875 7.1875 4.5 16 
C 4.203125 17.390625 4.203125 17.5 3.40625 17.5 
C 2.59375 17.5 2.5 17.390625 2.5 15.390625 
L 2.5 1 
C 2.5 -0.8125 2.59375 -0.90625 3.203125 -0.90625 
C 3.703125 -0.90625 3.796875 -0.8125 4.296875 0 
C 4.90625 0.890625 6.40625 3.296875 7 4.296875 
C 9 1.59375 12.5 -1 18.09375 -1 
C 28 -1 33.296875 4.390625 33.296875 12.1875 
C 33.296875 17.296875 30.59375 20 29.296875 21.1875 
C 26.296875 24.296875 22.796875 25 18.59375 25.796875 
C 13.09375 27 6.09375 28.390625 6.09375 34.5 
C 6.09375 37.09375 7.5 42.59375 17.59375 42.59375 
C 28.296875 42.59375 28.90625 32.59375 29.09375 29.390625 
C 29.203125 28.890625 29.703125 28.796875 30 28.796875 
C 30.90625 28.796875 30.90625 29.09375 30.90625 30.796875 
z
" id="CMR17-115"/>
       <path d="M 15.5 61.890625 
C 15.5 64.09375 13.703125 66 11.40625 66 
C 9.203125 66 7.296875 64.1875 7.296875 61.890625 
C 7.296875 59.6875 9.09375 57.796875 11.40625 57.796875 
C 13.59375 57.796875 15.5 59.59375 15.5 61.890625 
z
M 3.796875 42.890625 
L 3.796875 40.296875 
C 9.40625 40.296875 10.203125 39.6875 10.203125 34.859375 
L 10.203125 6.921875 
C 10.203125 3.09375 9.796875 2.59375 3.40625 2.59375 
L 3.40625 0 
C 5.796875 0.1875 10.09375 0.1875 12.59375 0.1875 
C 15 0.1875 19.09375 0.1875 21.40625 0 
L 21.40625 2.59375 
C 15.5 2.59375 15.296875 3.203125 15.296875 6.8125 
L 15.296875 44 
z
" id="CMR17-105"/>
       <path d="M 15.09375 40.390625 
L 29.09375 40.390625 
L 29.09375 43 
L 15.09375 43 
L 15.09375 62 
L 13.296875 62 
C 13.09375 51.4375 9.59375 42.1875 1.09375 41.984375 
L 1.09375 40.390625 
L 9.796875 40.390625 
L 9.796875 12.15625 
C 9.796875 10.234375 9.796875 -1 21.40625 -1 
C 27.296875 -1 30.703125 4.8125 30.703125 12.25 
L 30.703125 17.984375 
L 28.90625 17.984375 
L 28.90625 12.34375 
C 28.90625 5.421875 26.203125 0.796875 22 0.796875 
C 19.09375 0.796875 15.09375 2.796875 15.09375 11.953125 
z
" id="CMR17-116"/>
       <path d="M 39 34.109375 
C 41.5 40.296875 46 40.390625 47.40625 40.390625 
L 47.40625 43 
C 45.5 42.890625 43 42.796875 41.09375 42.796875 
C 39 42.796875 35.703125 42.796875 33.703125 43 
L 33.703125 40.390625 
C 37.5 40.09375 37.59375 37.25 37.59375 36.4375 
C 37.59375 35.4375 37.40625 34.921875 36.90625 33.71875 
L 26 6.390625 
L 14.09375 35.9375 
C 13.59375 37.15625 13.59375 37.859375 13.59375 37.96875 
C 13.59375 40.1875 15.90625 40.390625 18.296875 40.390625 
L 18.296875 43 
C 15.90625 42.796875 11.59375 42.796875 9.09375 42.796875 
C 6.40625 42.796875 3.203125 42.796875 1 43 
L 1 40.390625 
C 6.40625 40.390625 7 39.890625 8.296875 36.640625 
L 23.203125 -0.484375 
C 18.703125 -12.421875 16.09375 -19.40625 9.796875 -19.40625 
C 8.703125 -19.40625 6.203125 -19.109375 4.40625 -17.28125 
C 6.703125 -17.078125 7.703125 -15.65625 7.703125 -13.9375 
C 7.703125 -12.21875 6.5 -10.703125 4.5 -10.703125 
C 2.296875 -10.703125 1.203125 -12.21875 1.203125 -14.046875 
C 1.203125 -18.09375 5.296875 -21 9.796875 -21 
C 15.59375 -21 19.203125 -15.359375 21.203125 -10.296875 
z
" id="CMR17-121"/>
      </defs>
      <use transform="scale(0.996264)" xlink:href="#CMR17-68"/>
      <use transform="translate(70.393556 0)scale(0.996264)" xlink:href="#CMR17-101"/>
      <use transform="translate(110.879216 0)scale(0.996264)" xlink:href="#CMR17-110"/>
      <use transform="translate(161.774586 0)scale(0.996264)" xlink:href="#CMR17-115"/>
      <use transform="translate(197.575924 0)scale(0.996264)" xlink:href="#CMR17-105"/>
      <use transform="translate(222.446982 0)scale(0.996264)" xlink:href="#CMR17-116"/>
      <use transform="translate(255.125296 0)scale(0.996264)" xlink:href="#CMR17-121"/>
     </g>
    </g>
   </g>
   <g id="line2d_87">
    <path clip-path="url(#pbc9f0409ff)" d="M 122.029826 146.295 
L 122.029826 3.6 
" style="fill:none;stroke:#0c5da5;stroke-dasharray:19.2,4.8,3,4.8;stroke-dashoffset:0;stroke-width:3;"/>
   </g>
   <g id="patch_3">
    <path d="M 60.820561 146.295 
L 60.820561 3.6 
" style="fill:none;stroke:#000000;stroke-linecap:square;stroke-linejoin:miter;stroke-width:0.5;"/>
   </g>
   <g id="patch_4">
    <path d="M 256.120561 146.295 
L 256.120561 3.6 
" style="fill:none;stroke:#000000;stroke-linecap:square;stroke-linejoin:miter;stroke-width:0.5;"/>
   </g>
   <g id="patch_5">
    <path d="M 60.820561 146.295 
L 256.120561 146.295 
" style="fill:none;stroke:#000000;stroke-linecap:square;stroke-linejoin:miter;stroke-width:0.5;"/>
   </g>
   <g id="patch_6">
    <path d="M 60.820561 3.6 
L 256.120561 3.6 
" style="fill:none;stroke:#000000;stroke-linecap:square;stroke-linejoin:miter;stroke-width:0.5;"/>
   </g>
  </g>
 </g>
 <defs>
  <clipPath id="pbc9f0409ff">
   <rect height="142.695" width="195.3" x="60.820561" y="3.6"/>
  </clipPath>
 </defs>
</svg>
