<?xml version="1.0" encoding="utf-8" standalone="no"?>
<!DOCTYPE svg PUBLIC "-//W3C//DTD SVG 1.1//EN"
  "http://www.w3.org/Graphics/SVG/1.1/DTD/svg11.dtd">
<!-- Created with matplotlib (https://matplotlib.org/) -->
<svg height="167.564064pt" version="1.1" viewBox="0 0 244.112587 167.564064" width="244.112587pt" xmlns="http://www.w3.org/2000/svg" xmlns:xlink="http://www.w3.org/1999/xlink">
 <metadata>
  <rdf:RDF xmlns:cc="http://creativecommons.org/ns#" xmlns:dc="http://purl.org/dc/elements/1.1/" xmlns:rdf="http://www.w3.org/1999/02/22-rdf-syntax-ns#">
   <cc:Work>
    <dc:type rdf:resource="http://purl.org/dc/dcmitype/StillImage"/>
    <dc:date>2021-01-28T16:50:26.474020</dc:date>
    <dc:format>image/svg+xml</dc:format>
    <dc:creator>
     <cc:Agent>
      <dc:title>Matplotlib v3.3.0, https://matplotlib.org/</dc:title>
     </cc:Agent>
    </dc:creator>
   </cc:Work>
  </rdf:RDF>
 </metadata>
 <defs>
  <style type="text/css">*{stroke-linecap:butt;stroke-linejoin:round;}</style>
 </defs>
 <g id="figure_1">
  <g id="patch_1">
   <path d="M 0 167.564064 
L 244.112587 167.564064 
L 244.112587 0 
L 0 0 
z
" style="fill:none;"/>
  </g>
  <g id="axes_1">
   <g id="patch_2">
    <path d="M 45.212587 146.295 
L 240.512587 146.295 
L 240.512587 3.6 
L 45.212587 3.6 
z
" style="fill:#ffffff;"/>
   </g>
   <g id="PolyCollection_1">
    <defs>
     <path d="M 60.90346 -21.346457 
L 60.90346 -21.269064 
L 61.637884 -21.269064 
L 62.372309 -21.269064 
L 63.106733 -21.269064 
L 63.841158 -21.269064 
L 64.575582 -21.269064 
L 65.310006 -21.269064 
L 66.044431 -21.269064 
L 66.778855 -21.269064 
L 67.51328 -21.269064 
L 68.247704 -21.269064 
L 68.982129 -21.269064 
L 69.716553 -21.269064 
L 70.450978 -21.269064 
L 71.185402 -21.269064 
L 71.919826 -21.269064 
L 72.654251 -21.269064 
L 73.388675 -21.269064 
L 74.1231 -21.269064 
L 74.857524 -21.269064 
L 75.591949 -21.269064 
L 76.326373 -21.269064 
L 77.060797 -21.269064 
L 77.795222 -21.269064 
L 78.529646 -21.269064 
L 79.264071 -21.269064 
L 79.998495 -21.269064 
L 80.73292 -21.269064 
L 81.467344 -21.269064 
L 82.201769 -21.269064 
L 82.936193 -21.269064 
L 83.670617 -21.269064 
L 84.405042 -21.269064 
L 85.139466 -21.269064 
L 85.873891 -21.269064 
L 86.608315 -21.269064 
L 87.34274 -21.269064 
L 88.077164 -21.269064 
L 88.811588 -21.269064 
L 89.546013 -21.269064 
L 90.280437 -21.269064 
L 91.014862 -21.269064 
L 91.749286 -21.269064 
L 92.483711 -21.269064 
L 93.218135 -21.269064 
L 93.95256 -21.269064 
L 94.686984 -21.269064 
L 95.421408 -21.269064 
L 96.155833 -21.269064 
L 96.890257 -21.269064 
L 97.624682 -21.269064 
L 98.359106 -21.269064 
L 99.093531 -21.269064 
L 99.827955 -21.269064 
L 100.56238 -21.269064 
L 101.296804 -21.269064 
L 102.031228 -21.269064 
L 102.765653 -21.269064 
L 103.500077 -21.269064 
L 104.234502 -21.269064 
L 104.968926 -21.269064 
L 105.703351 -21.269064 
L 106.437775 -21.269064 
L 107.172199 -21.269064 
L 107.906624 -21.269064 
L 108.641048 -21.269064 
L 109.375473 -21.269064 
L 110.109897 -21.269064 
L 110.844322 -21.269064 
L 111.578746 -21.269064 
L 112.313171 -21.269064 
L 113.047595 -21.269064 
L 113.782019 -21.269064 
L 114.516444 -21.269064 
L 115.250868 -21.269064 
L 115.985293 -21.269064 
L 116.719717 -21.269064 
L 117.454142 -21.269064 
L 118.188566 -21.269064 
L 118.92299 -21.269064 
L 119.657415 -21.269064 
L 120.391839 -21.269064 
L 121.126264 -21.269064 
L 121.860688 -21.269064 
L 122.595113 -21.269064 
L 123.329537 -21.269064 
L 124.063962 -21.269064 
L 124.798386 -21.269064 
L 125.53281 -21.269064 
L 126.267235 -21.269064 
L 127.001659 -21.269064 
L 127.736084 -21.269064 
L 128.470508 -21.269064 
L 129.204933 -21.269064 
L 129.939357 -21.269064 
L 130.673782 -21.269064 
L 131.408206 -21.269064 
L 132.14263 -21.269064 
L 132.877055 -21.269064 
L 133.611479 -21.269064 
L 134.345904 -21.269064 
L 135.080328 -21.269064 
L 135.814753 -21.269064 
L 136.549177 -21.269064 
L 137.283601 -21.269064 
L 138.018026 -21.269064 
L 138.75245 -21.269064 
L 139.486875 -21.269064 
L 140.221299 -21.269064 
L 140.955724 -21.269064 
L 141.690148 -21.269064 
L 142.424573 -21.269064 
L 143.158997 -21.269064 
L 143.893421 -21.269064 
L 144.627846 -21.269064 
L 145.36227 -21.269064 
L 146.096695 -21.269064 
L 146.831119 -21.269064 
L 147.565544 -21.269064 
L 148.299968 -21.269064 
L 149.034392 -21.269064 
L 149.768817 -21.269064 
L 150.503241 -21.269064 
L 151.237666 -21.269064 
L 151.97209 -21.269064 
L 152.706515 -21.269064 
L 153.440939 -21.269064 
L 154.175364 -21.269064 
L 154.909788 -21.269064 
L 155.644212 -21.269064 
L 156.378637 -21.269064 
L 157.113061 -21.269064 
L 157.847486 -21.269064 
L 158.58191 -21.269064 
L 159.316335 -21.269064 
L 160.050759 -21.269064 
L 160.785184 -21.269064 
L 161.519608 -21.269064 
L 162.254032 -21.269064 
L 162.988457 -21.269064 
L 163.722881 -21.269064 
L 164.457306 -21.269064 
L 165.19173 -21.269064 
L 165.926155 -21.269064 
L 166.660579 -21.269064 
L 167.395003 -21.269064 
L 168.129428 -21.269064 
L 168.863852 -21.269064 
L 169.598277 -21.269064 
L 170.332701 -21.269064 
L 171.067126 -21.269064 
L 171.80155 -21.269064 
L 172.535975 -21.269064 
L 173.270399 -21.269064 
L 174.004823 -21.269064 
L 174.739248 -21.269064 
L 175.473672 -21.269064 
L 176.208097 -21.269064 
L 176.942521 -21.269064 
L 177.676946 -21.269064 
L 178.41137 -21.269064 
L 179.145794 -21.269064 
L 179.880219 -21.269064 
L 180.614643 -21.269064 
L 181.349068 -21.269064 
L 182.083492 -21.269064 
L 182.817917 -21.269064 
L 183.552341 -21.269064 
L 184.286766 -21.269064 
L 185.02119 -21.269064 
L 185.755614 -21.269064 
L 186.490039 -21.269064 
L 187.224463 -21.269064 
L 187.958888 -21.269064 
L 188.693312 -21.269064 
L 189.427737 -21.269064 
L 190.162161 -21.269064 
L 190.896586 -21.269064 
L 191.63101 -21.269064 
L 192.365434 -21.269064 
L 193.099859 -21.269064 
L 193.834283 -21.269064 
L 194.568708 -21.269064 
L 195.303132 -21.269064 
L 196.037557 -21.269064 
L 196.771981 -21.269064 
L 197.506405 -21.269064 
L 198.24083 -21.269064 
L 198.975254 -21.269064 
L 199.709679 -21.269064 
L 200.444103 -21.269064 
L 201.178528 -21.269064 
L 201.912952 -21.269064 
L 202.647377 -21.269064 
L 203.381801 -21.269064 
L 204.116225 -21.269064 
L 204.85065 -21.269064 
L 205.585074 -21.269064 
L 206.319499 -21.269064 
L 207.053923 -21.269064 
L 207.053923 -21.306594 
L 207.053923 -21.306594 
L 206.319499 -21.318284 
L 205.585074 -21.333089 
L 204.85065 -21.351672 
L 204.116225 -21.374785 
L 203.381801 -21.403273 
L 202.647377 -21.438069 
L 201.912952 -21.480182 
L 201.178528 -21.530688 
L 200.444103 -21.590709 
L 199.709679 -21.661388 
L 198.975254 -21.743859 
L 198.24083 -21.839213 
L 197.506405 -21.94846 
L 196.771981 -22.072491 
L 196.037557 -22.212035 
L 195.303132 -22.367625 
L 194.568708 -22.539565 
L 193.834283 -22.727903 
L 193.099859 -22.93242 
L 192.365434 -23.152628 
L 191.63101 -23.387777 
L 190.896586 -23.636886 
L 190.162161 -23.898779 
L 189.427737 -24.172144 
L 188.693312 -24.455593 
L 187.958888 -24.747738 
L 187.224463 -25.047268 
L 186.490039 -25.353029 
L 185.755614 -25.664094 
L 185.02119 -25.979829 
L 184.286766 -26.299943 
L 183.552341 -26.624523 
L 182.817917 -26.954048 
L 182.083492 -27.289386 
L 181.349068 -27.631768 
L 180.614643 -27.982747 
L 179.880219 -28.344141 
L 179.145794 -28.717964 
L 178.41137 -29.106357 
L 177.676946 -29.511509 
L 176.942521 -29.935586 
L 176.208097 -30.380669 
L 175.473672 -30.848702 
L 174.739248 -31.341448 
L 174.004823 -31.860466 
L 173.270399 -32.407095 
L 172.535975 -32.982452 
L 171.80155 -33.587436 
L 171.067126 -34.222739 
L 170.332701 -34.888849 
L 169.598277 -35.586062 
L 168.863852 -36.314474 
L 168.129428 -37.073975 
L 167.395003 -37.864231 
L 166.660579 -38.684654 
L 165.926155 -39.534373 
L 165.19173 -40.412201 
L 164.457306 -41.316615 
L 163.722881 -42.245737 
L 162.988457 -43.197347 
L 162.254032 -44.168911 
L 161.519608 -45.157646 
L 160.785184 -46.160615 
L 160.050759 -47.174855 
L 159.316335 -48.197536 
L 158.58191 -49.226138 
L 157.847486 -50.258643 
L 157.113061 -51.293728 
L 156.378637 -52.330936 
L 155.644212 -53.370824 
L 154.909788 -54.415052 
L 154.175364 -55.466425 
L 153.440939 -56.528852 
L 152.706515 -57.60724 
L 151.97209 -58.707304 
L 151.237666 -59.835311 
L 150.503241 -60.997768 
L 149.768817 -62.201069 
L 149.034392 -63.451129 
L 148.299968 -64.753027 
L 147.565544 -66.110687 
L 146.831119 -67.526631 
L 146.096695 -69.001807 
L 145.36227 -70.53554 
L 144.627846 -72.125587 
L 143.893421 -73.768324 
L 143.158997 -75.459036 
L 142.424573 -77.192318 
L 141.690148 -78.962535 
L 140.955724 -80.764336 
L 140.221299 -82.593163 
L 139.486875 -84.445728 
L 138.75245 -86.320416 
L 138.018026 -88.21757 
L 137.283601 -90.139641 
L 136.549177 -92.091168 
L 135.814753 -94.078584 
L 135.080328 -96.10985 
L 134.345904 -98.193927 
L 133.611479 -100.340122 
L 132.877055 -102.557324 
L 132.14263 -104.853211 
L 131.408206 -107.233444 
L 130.673782 -109.700932 
L 129.939357 -112.255201 
L 129.204933 -114.891922 
L 128.470508 -117.602647 
L 127.736084 -120.374755 
L 127.001659 -123.191639 
L 126.267235 -126.033128 
L 125.53281 -128.876109 
L 124.798386 -131.695323 
L 124.063962 -134.46429 
L 123.329537 -137.156296 
L 122.595113 -139.745379 
L 121.860688 -142.207257 
L 121.126264 -144.520131 
L 120.391839 -146.665315 
L 119.657415 -148.627654 
L 118.92299 -150.395705 
L 118.188566 -151.961676 
L 117.454142 -153.321144 
L 116.719717 -154.472563 
L 115.985293 -155.416621 
L 115.250868 -156.155502 
L 114.516444 -156.692095 
L 113.782019 -157.029243 
L 113.047595 -157.169064 
L 112.313171 -157.112424 
L 111.578746 -156.858573 
L 110.844322 -156.405003 
L 110.109897 -155.747517 
L 109.375473 -154.880499 
L 108.641048 -153.797386 
L 107.906624 -152.491277 
L 107.172199 -150.955647 
L 106.437775 -149.185109 
L 105.703351 -147.176159 
L 104.968926 -144.927857 
L 104.234502 -142.44239 
L 103.500077 -139.725478 
L 102.765653 -136.78659 
L 102.031228 -133.638963 
L 101.296804 -130.299422 
L 100.56238 -126.788011 
L 99.827955 -123.127464 
L 99.093531 -119.342556 
L 98.359106 -115.459367 
L 97.624682 -111.504513 
L 96.890257 -107.504388 
L 96.155833 -103.484455 
L 95.421408 -99.46863 
L 94.686984 -95.478784 
L 93.95256 -91.534383 
L 93.218135 -87.652269 
L 92.483711 -83.846593 
L 91.749286 -80.128877 
L 91.014862 -76.508198 
L 90.280437 -72.991457 
L 89.546013 -69.58372 
L 88.811588 -66.288586 
L 88.077164 -63.108564 
L 87.34274 -60.045431 
L 86.608315 -57.100538 
L 85.873891 -54.275067 
L 85.139466 -51.570209 
L 84.405042 -48.987266 
L 83.670617 -46.527685 
L 82.936193 -44.193021 
L 82.201769 -41.984842 
L 81.467344 -39.904601 
L 80.73292 -37.953473 
L 79.998495 -36.132193 
L 79.264071 -34.440894 
L 78.529646 -32.878967 
L 77.795222 -31.444956 
L 77.060797 -30.13649 
L 76.326373 -28.950254 
L 75.591949 -27.882013 
L 74.857524 -26.926663 
L 74.1231 -26.078333 
L 73.388675 -25.330504 
L 72.654251 -24.676153 
L 71.919826 -24.107913 
L 71.185402 -23.618225 
L 70.450978 -23.1995 
L 69.716553 -22.844255 
L 68.982129 -22.545249 
L 68.247704 -22.295579 
L 67.51328 -22.088775 
L 66.778855 -21.918856 
L 66.044431 -21.780372 
L 65.310006 -21.668424 
L 64.575582 -21.578663 
L 63.841158 -21.50728 
L 63.106733 -21.450976 
L 62.372309 -21.40693 
L 61.637884 -21.372755 
L 60.90346 -21.346457 
z
" id="m2e02b8198f" style="stroke:#008000;"/>
    </defs>
    <g clip-path="url(#p47ddafb65b)">
     <use style="fill:#008000;fill-opacity:0.25;stroke:#008000;" x="0" xlink:href="#m2e02b8198f" y="167.564064"/>
    </g>
   </g>
   <g id="PolyCollection_2">
    <defs>
     <path d="M 54.08986 -21.339303 
L 54.08986 -21.269064 
L 54.982048 -21.269064 
L 55.874236 -21.269064 
L 56.766424 -21.269064 
L 57.658612 -21.269064 
L 58.550801 -21.269064 
L 59.442989 -21.269064 
L 60.335177 -21.269064 
L 61.227365 -21.269064 
L 62.119553 -21.269064 
L 63.011742 -21.269064 
L 63.90393 -21.269064 
L 64.796118 -21.269064 
L 65.688306 -21.269064 
L 66.580495 -21.269064 
L 67.472683 -21.269064 
L 68.364871 -21.269064 
L 69.257059 -21.269064 
L 70.149247 -21.269064 
L 71.041436 -21.269064 
L 71.933624 -21.269064 
L 72.825812 -21.269064 
L 73.718 -21.269064 
L 74.610188 -21.269064 
L 75.502377 -21.269064 
L 76.394565 -21.269064 
L 77.286753 -21.269064 
L 78.178941 -21.269064 
L 79.07113 -21.269064 
L 79.963318 -21.269064 
L 80.855506 -21.269064 
L 81.747694 -21.269064 
L 82.639882 -21.269064 
L 83.532071 -21.269064 
L 84.424259 -21.269064 
L 85.316447 -21.269064 
L 86.208635 -21.269064 
L 87.100823 -21.269064 
L 87.993012 -21.269064 
L 88.8852 -21.269064 
L 89.777388 -21.269064 
L 90.669576 -21.269064 
L 91.561765 -21.269064 
L 92.453953 -21.269064 
L 93.346141 -21.269064 
L 94.238329 -21.269064 
L 95.130517 -21.269064 
L 96.022706 -21.269064 
L 96.914894 -21.269064 
L 97.807082 -21.269064 
L 98.69927 -21.269064 
L 99.591458 -21.269064 
L 100.483647 -21.269064 
L 101.375835 -21.269064 
L 102.268023 -21.269064 
L 103.160211 -21.269064 
L 104.0524 -21.269064 
L 104.944588 -21.269064 
L 105.836776 -21.269064 
L 106.728964 -21.269064 
L 107.621152 -21.269064 
L 108.513341 -21.269064 
L 109.405529 -21.269064 
L 110.297717 -21.269064 
L 111.189905 -21.269064 
L 112.082093 -21.269064 
L 112.974282 -21.269064 
L 113.86647 -21.269064 
L 114.758658 -21.269064 
L 115.650846 -21.269064 
L 116.543035 -21.269064 
L 117.435223 -21.269064 
L 118.327411 -21.269064 
L 119.219599 -21.269064 
L 120.111787 -21.269064 
L 121.003976 -21.269064 
L 121.896164 -21.269064 
L 122.788352 -21.269064 
L 123.68054 -21.269064 
L 124.572728 -21.269064 
L 125.464917 -21.269064 
L 126.357105 -21.269064 
L 127.249293 -21.269064 
L 128.141481 -21.269064 
L 129.03367 -21.269064 
L 129.925858 -21.269064 
L 130.818046 -21.269064 
L 131.710234 -21.269064 
L 132.602422 -21.269064 
L 133.494611 -21.269064 
L 134.386799 -21.269064 
L 135.278987 -21.269064 
L 136.171175 -21.269064 
L 137.063363 -21.269064 
L 137.955552 -21.269064 
L 138.84774 -21.269064 
L 139.739928 -21.269064 
L 140.632116 -21.269064 
L 141.524305 -21.269064 
L 142.416493 -21.269064 
L 143.308681 -21.269064 
L 144.200869 -21.269064 
L 145.093057 -21.269064 
L 145.985246 -21.269064 
L 146.877434 -21.269064 
L 147.769622 -21.269064 
L 148.66181 -21.269064 
L 149.553998 -21.269064 
L 150.446187 -21.269064 
L 151.338375 -21.269064 
L 152.230563 -21.269064 
L 153.122751 -21.269064 
L 154.01494 -21.269064 
L 154.907128 -21.269064 
L 155.799316 -21.269064 
L 156.691504 -21.269064 
L 157.583692 -21.269064 
L 158.475881 -21.269064 
L 159.368069 -21.269064 
L 160.260257 -21.269064 
L 161.152445 -21.269064 
L 162.044633 -21.269064 
L 162.936822 -21.269064 
L 163.82901 -21.269064 
L 164.721198 -21.269064 
L 165.613386 -21.269064 
L 166.505574 -21.269064 
L 167.397763 -21.269064 
L 168.289951 -21.269064 
L 169.182139 -21.269064 
L 170.074327 -21.269064 
L 170.966516 -21.269064 
L 171.858704 -21.269064 
L 172.750892 -21.269064 
L 173.64308 -21.269064 
L 174.535268 -21.269064 
L 175.427457 -21.269064 
L 176.319645 -21.269064 
L 177.211833 -21.269064 
L 178.104021 -21.269064 
L 178.996209 -21.269064 
L 179.888398 -21.269064 
L 180.780586 -21.269064 
L 181.672774 -21.269064 
L 182.564962 -21.269064 
L 183.457151 -21.269064 
L 184.349339 -21.269064 
L 185.241527 -21.269064 
L 186.133715 -21.269064 
L 187.025903 -21.269064 
L 187.918092 -21.269064 
L 188.81028 -21.269064 
L 189.702468 -21.269064 
L 190.594656 -21.269064 
L 191.486844 -21.269064 
L 192.379033 -21.269064 
L 193.271221 -21.269064 
L 194.163409 -21.269064 
L 195.055597 -21.269064 
L 195.947786 -21.269064 
L 196.839974 -21.269064 
L 197.732162 -21.269064 
L 198.62435 -21.269064 
L 199.516538 -21.269064 
L 200.408727 -21.269064 
L 201.300915 -21.269064 
L 202.193103 -21.269064 
L 203.085291 -21.269064 
L 203.977479 -21.269064 
L 204.869668 -21.269064 
L 205.761856 -21.269064 
L 206.654044 -21.269064 
L 207.546232 -21.269064 
L 208.438421 -21.269064 
L 209.330609 -21.269064 
L 210.222797 -21.269064 
L 211.114985 -21.269064 
L 212.007173 -21.269064 
L 212.899362 -21.269064 
L 213.79155 -21.269064 
L 214.683738 -21.269064 
L 215.575926 -21.269064 
L 216.468114 -21.269064 
L 217.360303 -21.269064 
L 218.252491 -21.269064 
L 219.144679 -21.269064 
L 220.036867 -21.269064 
L 220.929056 -21.269064 
L 221.821244 -21.269064 
L 222.713432 -21.269064 
L 223.60562 -21.269064 
L 224.497808 -21.269064 
L 225.389997 -21.269064 
L 226.282185 -21.269064 
L 227.174373 -21.269064 
L 228.066561 -21.269064 
L 228.958749 -21.269064 
L 229.850938 -21.269064 
L 230.743126 -21.269064 
L 231.635314 -21.269064 
L 231.635314 -21.30324 
L 231.635314 -21.30324 
L 230.743126 -21.315249 
L 229.850938 -21.330829 
L 228.958749 -21.350811 
L 228.066561 -21.376134 
L 227.174373 -21.40785 
L 226.282185 -21.447098 
L 225.389997 -21.49508 
L 224.497808 -21.553025 
L 223.60562 -21.622135 
L 222.713432 -21.703528 
L 221.821244 -21.798165 
L 220.929056 -21.90677 
L 220.036867 -22.029752 
L 219.144679 -22.167125 
L 218.252491 -22.318434 
L 217.360303 -22.482701 
L 216.468114 -22.658387 
L 215.575926 -22.843386 
L 214.683738 -23.035054 
L 213.79155 -23.230263 
L 212.899362 -23.425508 
L 212.007173 -23.617041 
L 211.114985 -23.801039 
L 210.222797 -23.973794 
L 209.330609 -24.131919 
L 208.438421 -24.272553 
L 207.546232 -24.393552 
L 206.654044 -24.493658 
L 205.761856 -24.57262 
L 204.869668 -24.631271 
L 203.977479 -24.671542 
L 203.085291 -24.696416 
L 202.193103 -24.709817 
L 201.300915 -24.716438 
L 200.408727 -24.721531 
L 199.516538 -24.730648 
L 198.62435 -24.749365 
L 197.732162 -24.783005 
L 196.839974 -24.836372 
L 195.947786 -24.913503 
L 195.055597 -25.017478 
L 194.163409 -25.150266 
L 193.271221 -25.31264 
L 192.379033 -25.504153 
L 191.486844 -25.723167 
L 190.594656 -25.966945 
L 189.702468 -26.231793 
L 188.81028 -26.513237 
L 187.918092 -26.806233 
L 187.025903 -27.10539 
L 186.133715 -27.405212 
L 185.241527 -27.700324 
L 184.349339 -27.98571 
L 183.457151 -28.256918 
L 182.564962 -28.510259 
L 181.672774 -28.742986 
L 180.780586 -28.953444 
L 179.888398 -29.141201 
L 178.996209 -29.307149 
L 178.104021 -29.453577 
L 177.211833 -29.584215 
L 176.319645 -29.704232 
L 175.427457 -29.820207 
L 174.535268 -29.940042 
L 173.64308 -30.072838 
L 172.750892 -30.228727 
L 171.858704 -30.418649 
L 170.966516 -30.6541 
L 170.074327 -30.946847 
L 169.182139 -31.308626 
L 168.289951 -31.750833 
L 167.397763 -32.284229 
L 166.505574 -32.918673 
L 165.613386 -33.662894 
L 164.721198 -34.524317 
L 163.82901 -35.508959 
L 162.936822 -36.621384 
L 162.044633 -37.864734 
L 161.152445 -39.240813 
L 160.260257 -40.75023 
L 159.368069 -42.392581 
L 158.475881 -44.166648 
L 157.583692 -46.07061 
L 156.691504 -48.102242 
L 155.799316 -50.259081 
L 154.907128 -52.538554 
L 154.01494 -54.938061 
L 153.122751 -57.454986 
L 152.230563 -60.086663 
L 151.338375 -62.830264 
L 150.446187 -65.682646 
L 149.553998 -68.640144 
L 148.66181 -71.698325 
L 147.769622 -74.851722 
L 146.877434 -78.093559 
L 145.985246 -81.41549 
L 145.093057 -84.807363 
L 144.200869 -88.257034 
L 143.308681 -91.750244 
L 142.416493 -95.270589 
L 141.524305 -98.799571 
L 140.632116 -102.316767 
L 139.739928 -105.800098 
L 138.84774 -109.226211 
L 137.955552 -112.570951 
L 137.063363 -115.809916 
L 136.171175 -118.91907 
L 135.278987 -121.87538 
L 134.386799 -124.657461 
L 133.494611 -127.246175 
L 132.602422 -129.625177 
L 131.710234 -131.781356 
L 130.818046 -133.705174 
L 129.925858 -135.39086 
L 129.03367 -136.836472 
L 128.141481 -138.043823 
L 127.249293 -139.018264 
L 126.357105 -139.768359 
L 125.464917 -140.305452 
L 124.572728 -140.643161 
L 123.68054 -140.796807 
L 122.788352 -140.782813 
L 121.896164 -140.618089 
L 121.003976 -140.319411 
L 120.111787 -139.902831 
L 119.219599 -139.383113 
L 118.327411 -138.773222 
L 117.435223 -138.083869 
L 116.543035 -137.32314 
L 115.650846 -136.496212 
L 114.758658 -135.605172 
L 113.86647 -134.648966 
L 112.974282 -133.623472 
L 112.082093 -132.521724 
L 111.189905 -131.334273 
L 110.297717 -130.049696 
L 109.405529 -128.655224 
L 108.513341 -127.137477 
L 107.621152 -125.483264 
L 106.728964 -123.680418 
L 105.836776 -121.718609 
L 104.944588 -119.590101 
L 104.0524 -117.290392 
L 103.160211 -114.818714 
L 102.268023 -112.178346 
L 101.375835 -109.376735 
L 100.483647 -106.42541 
L 99.591458 -103.339689 
L 98.69927 -100.13822 
L 97.807082 -96.842358 
L 96.914894 -93.475442 
L 96.022706 -90.061996 
L 95.130517 -86.626908 
L 94.238329 -83.194632 
L 93.346141 -79.788451 
L 92.453953 -76.429834 
L 91.561765 -73.137912 
L 90.669576 -69.929108 
L 89.777388 -66.816896 
L 88.8852 -63.811733 
L 87.993012 -60.921116 
L 87.100823 -58.149782 
L 86.208635 -55.500002 
L 85.316447 -52.971969 
L 84.424259 -50.564228 
L 83.532071 -48.274136 
L 82.639882 -46.098306 
L 81.747694 -44.033028 
L 80.855506 -42.074614 
L 79.963318 -40.219685 
L 79.07113 -38.465357 
L 78.178941 -36.809342 
L 77.286753 -35.24996 
L 76.394565 -33.786069 
L 75.502377 -32.416938 
L 74.610188 -31.142066 
L 73.718 -29.960984 
L 72.825812 -28.873054 
L 71.933624 -27.877272 
L 71.041436 -26.972119 
L 70.149247 -26.155441 
L 69.257059 -25.424386 
L 68.364871 -24.775391 
L 67.472683 -24.204214 
L 66.580495 -23.706017 
L 65.688306 -23.275472 
L 64.796118 -22.906902 
L 63.90393 -22.594421 
L 63.011742 -22.332087 
L 62.119553 -22.114038 
L 61.227365 -21.934619 
L 60.335177 -21.788482 
L 59.442989 -21.670671 
L 58.550801 -21.576673 
L 57.658612 -21.50245 
L 56.766424 -21.444451 
L 55.874236 -21.399602 
L 54.982048 -21.365286 
L 54.08986 -21.339303 
z
" id="m06235df570" style="stroke:#ffa500;"/>
    </defs>
    <g clip-path="url(#p47ddafb65b)">
     <use style="fill:#ffa500;fill-opacity:0.25;stroke:#ffa500;" x="0" xlink:href="#m06235df570" y="167.564064"/>
    </g>
   </g>
   <g id="matplotlib.axis_1">
    <g id="xtick_1">
     <g id="line2d_1">
      <path clip-path="url(#p47ddafb65b)" d="M 118.560466 146.295 
L 118.560466 3.6 
" style="fill:none;stroke:#000000;stroke-dasharray:0.5,0.825;stroke-dashoffset:0;stroke-opacity:0.5;stroke-width:0.5;"/>
     </g>
     <g id="line2d_2">
      <defs>
       <path d="M 0 0 
L 0 -3 
" id="m57442365e6" style="stroke:#000000;stroke-width:0.5;"/>
      </defs>
      <g>
       <use style="stroke:#000000;stroke-width:0.5;" x="118.560466" xlink:href="#m57442365e6" y="146.295"/>
      </g>
     </g>
     <g id="line2d_3">
      <defs>
       <path d="M 0 0 
L 0 3 
" id="m45534b2930" style="stroke:#000000;stroke-width:0.5;"/>
      </defs>
      <g>
       <use style="stroke:#000000;stroke-width:0.5;" x="118.560466" xlink:href="#m45534b2930" y="3.6"/>
      </g>
     </g>
     <g id="text_1">
      <!-- $\mathdefault{1}$ -->
      <g transform="translate(114.658473 160.864588)scale(0.16 -0.16)">
       <defs>
        <path d="M 26.59375 63.796875 
C 26.59375 65.890625 26.5 66 25.09375 66 
C 21.203125 61.359375 15.296875 59.890625 9.703125 59.6875 
C 9.40625 59.6875 8.90625 59.6875 8.796875 59.5 
C 8.703125 59.296875 8.703125 59.09375 8.703125 57 
C 11.796875 57 17 57.59375 21 59.984375 
L 21 7.296875 
C 21 3.796875 20.796875 2.59375 12.203125 2.59375 
L 9.203125 2.59375 
L 9.203125 0 
C 14 0.09375 19 0.1875 23.796875 0.1875 
C 28.59375 0.1875 33.59375 0.09375 38.40625 0 
L 38.40625 2.59375 
L 35.40625 2.59375 
C 26.796875 2.59375 26.59375 3.6875 26.59375 7.296875 
z
" id="CMR17-49"/>
       </defs>
       <use transform="scale(0.996264)" xlink:href="#CMR17-49"/>
      </g>
     </g>
    </g>
    <g id="xtick_2">
     <g id="line2d_4">
      <path clip-path="url(#p47ddafb65b)" d="M 194.320619 146.295 
L 194.320619 3.6 
" style="fill:none;stroke:#000000;stroke-dasharray:0.5,0.825;stroke-dashoffset:0;stroke-opacity:0.5;stroke-width:0.5;"/>
     </g>
     <g id="line2d_5">
      <g>
       <use style="stroke:#000000;stroke-width:0.5;" x="194.320619" xlink:href="#m57442365e6" y="146.295"/>
      </g>
     </g>
     <g id="line2d_6">
      <g>
       <use style="stroke:#000000;stroke-width:0.5;" x="194.320619" xlink:href="#m45534b2930" y="3.6"/>
      </g>
     </g>
     <g id="text_2">
      <!-- $\mathdefault{2}$ -->
      <g transform="translate(190.418626 160.864588)scale(0.16 -0.16)">
       <defs>
        <path d="M 41.703125 15.46875 
L 39.90625 15.46875 
C 38.90625 8.390625 38.09375 7.1875 37.703125 6.59375 
C 37.203125 5.796875 30 5.796875 28.59375 5.796875 
L 9.40625 5.796875 
C 13 9.6875 20 16.765625 28.5 24.9375 
C 34.59375 30.71875 41.703125 37.5 41.703125 47.390625 
C 41.703125 59.1875 32.296875 66 21.796875 66 
C 10.796875 66 4.09375 56.296875 4.09375 47.296875 
C 4.09375 43.390625 7 42.890625 8.203125 42.890625 
C 9.203125 42.890625 12.203125 43.484375 12.203125 46.984375 
C 12.203125 50.09375 9.59375 51 8.203125 51 
C 7.59375 51 7 50.890625 6.59375 50.6875 
C 8.5 59.1875 14.296875 63.390625 20.40625 63.390625 
C 29.09375 63.390625 34.796875 56.5 34.796875 47.390625 
C 34.796875 38.703125 29.703125 31.21875 24 24.734375 
L 4.09375 2.296875 
L 4.09375 0 
L 39.296875 0 
z
" id="CMR17-50"/>
       </defs>
       <use transform="scale(0.996264)" xlink:href="#CMR17-50"/>
      </g>
     </g>
    </g>
    <g id="xtick_3">
     <g id="line2d_7">
      <defs>
       <path d="M 0 0 
L 0 -1.5 
" id="m33729aa5f4" style="stroke:#000000;stroke-width:0.5;"/>
      </defs>
      <g>
       <use style="stroke:#000000;stroke-width:0.5;" x="57.952344" xlink:href="#m33729aa5f4" y="146.295"/>
      </g>
     </g>
     <g id="line2d_8">
      <defs>
       <path d="M 0 0 
L 0 1.5 
" id="ma281e4722c" style="stroke:#000000;stroke-width:0.5;"/>
      </defs>
      <g>
       <use style="stroke:#000000;stroke-width:0.5;" x="57.952344" xlink:href="#ma281e4722c" y="3.6"/>
      </g>
     </g>
    </g>
    <g id="xtick_4">
     <g id="line2d_9">
      <g>
       <use style="stroke:#000000;stroke-width:0.5;" x="73.104375" xlink:href="#m33729aa5f4" y="146.295"/>
      </g>
     </g>
     <g id="line2d_10">
      <g>
       <use style="stroke:#000000;stroke-width:0.5;" x="73.104375" xlink:href="#ma281e4722c" y="3.6"/>
      </g>
     </g>
    </g>
    <g id="xtick_5">
     <g id="line2d_11">
      <g>
       <use style="stroke:#000000;stroke-width:0.5;" x="88.256405" xlink:href="#m33729aa5f4" y="146.295"/>
      </g>
     </g>
     <g id="line2d_12">
      <g>
       <use style="stroke:#000000;stroke-width:0.5;" x="88.256405" xlink:href="#ma281e4722c" y="3.6"/>
      </g>
     </g>
    </g>
    <g id="xtick_6">
     <g id="line2d_13">
      <g>
       <use style="stroke:#000000;stroke-width:0.5;" x="103.408436" xlink:href="#m33729aa5f4" y="146.295"/>
      </g>
     </g>
     <g id="line2d_14">
      <g>
       <use style="stroke:#000000;stroke-width:0.5;" x="103.408436" xlink:href="#ma281e4722c" y="3.6"/>
      </g>
     </g>
    </g>
    <g id="xtick_7">
     <g id="line2d_15">
      <g>
       <use style="stroke:#000000;stroke-width:0.5;" x="133.712497" xlink:href="#m33729aa5f4" y="146.295"/>
      </g>
     </g>
     <g id="line2d_16">
      <g>
       <use style="stroke:#000000;stroke-width:0.5;" x="133.712497" xlink:href="#ma281e4722c" y="3.6"/>
      </g>
     </g>
    </g>
    <g id="xtick_8">
     <g id="line2d_17">
      <g>
       <use style="stroke:#000000;stroke-width:0.5;" x="148.864527" xlink:href="#m33729aa5f4" y="146.295"/>
      </g>
     </g>
     <g id="line2d_18">
      <g>
       <use style="stroke:#000000;stroke-width:0.5;" x="148.864527" xlink:href="#ma281e4722c" y="3.6"/>
      </g>
     </g>
    </g>
    <g id="xtick_9">
     <g id="line2d_19">
      <g>
       <use style="stroke:#000000;stroke-width:0.5;" x="164.016558" xlink:href="#m33729aa5f4" y="146.295"/>
      </g>
     </g>
     <g id="line2d_20">
      <g>
       <use style="stroke:#000000;stroke-width:0.5;" x="164.016558" xlink:href="#ma281e4722c" y="3.6"/>
      </g>
     </g>
    </g>
    <g id="xtick_10">
     <g id="line2d_21">
      <g>
       <use style="stroke:#000000;stroke-width:0.5;" x="179.168588" xlink:href="#m33729aa5f4" y="146.295"/>
      </g>
     </g>
     <g id="line2d_22">
      <g>
       <use style="stroke:#000000;stroke-width:0.5;" x="179.168588" xlink:href="#ma281e4722c" y="3.6"/>
      </g>
     </g>
    </g>
    <g id="xtick_11">
     <g id="line2d_23">
      <g>
       <use style="stroke:#000000;stroke-width:0.5;" x="209.47265" xlink:href="#m33729aa5f4" y="146.295"/>
      </g>
     </g>
     <g id="line2d_24">
      <g>
       <use style="stroke:#000000;stroke-width:0.5;" x="209.47265" xlink:href="#ma281e4722c" y="3.6"/>
      </g>
     </g>
    </g>
    <g id="xtick_12">
     <g id="line2d_25">
      <g>
       <use style="stroke:#000000;stroke-width:0.5;" x="224.62468" xlink:href="#m33729aa5f4" y="146.295"/>
      </g>
     </g>
     <g id="line2d_26">
      <g>
       <use style="stroke:#000000;stroke-width:0.5;" x="224.62468" xlink:href="#ma281e4722c" y="3.6"/>
      </g>
     </g>
    </g>
    <g id="xtick_13">
     <g id="line2d_27">
      <g>
       <use style="stroke:#000000;stroke-width:0.5;" x="239.776711" xlink:href="#m33729aa5f4" y="146.295"/>
      </g>
     </g>
     <g id="line2d_28">
      <g>
       <use style="stroke:#000000;stroke-width:0.5;" x="239.776711" xlink:href="#ma281e4722c" y="3.6"/>
      </g>
     </g>
    </g>
   </g>
   <g id="matplotlib.axis_2">
    <g id="ytick_1">
     <g id="line2d_29">
      <path clip-path="url(#p47ddafb65b)" d="M 45.212587 146.295 
L 240.512587 146.295 
" style="fill:none;stroke:#000000;stroke-dasharray:0.5,0.825;stroke-dashoffset:0;stroke-opacity:0.5;stroke-width:0.5;"/>
     </g>
     <g id="line2d_30">
      <defs>
       <path d="M 0 0 
L 3 0 
" id="m208fda5d2d" style="stroke:#000000;stroke-width:0.5;"/>
      </defs>
      <g>
       <use style="stroke:#000000;stroke-width:0.5;" x="45.212587" xlink:href="#m208fda5d2d" y="146.295"/>
      </g>
     </g>
     <g id="line2d_31">
      <defs>
       <path d="M 0 0 
L -3 0 
" id="m9a29fbf1f6" style="stroke:#000000;stroke-width:0.5;"/>
      </defs>
      <g>
       <use style="stroke:#000000;stroke-width:0.5;" x="240.512587" xlink:href="#m9a29fbf1f6" y="146.295"/>
      </g>
     </g>
     <g id="text_3">
      <!-- $\mathdefault{0.0}$ -->
      <g transform="translate(21.769064 151.829794)scale(0.16 -0.16)">
       <defs>
        <path d="M 42 31.84375 
C 42 37.96875 41.90625 48.421875 37.703125 56.453125 
C 34 63.484375 28.09375 66 22.90625 66 
C 18.09375 66 12 63.78125 8.203125 56.5625 
C 4.203125 49.015625 3.796875 39.671875 3.796875 31.84375 
C 3.796875 26.109375 3.90625 17.375 7 9.734375 
C 11.296875 -0.609375 19 -2 22.90625 -2 
C 27.5 -2 34.5 -0.109375 38.59375 9.4375 
C 41.59375 16.375 42 24.5 42 31.84375 
z
M 22.90625 -0.40625 
C 16.5 -0.40625 12.703125 5.125 11.296875 12.75 
C 10.203125 18.6875 10.203125 27.328125 10.203125 32.953125 
C 10.203125 40.6875 10.203125 47.109375 11.5 53.234375 
C 13.40625 61.78125 19 64.390625 22.90625 64.390625 
C 27 64.390625 32.296875 61.671875 34.203125 53.4375 
C 35.5 47.71875 35.59375 40.984375 35.59375 32.953125 
C 35.59375 26.421875 35.59375 18.375 34.40625 12.453125 
C 32.296875 1.5 26.40625 -0.40625 22.90625 -0.40625 
z
" id="CMR17-48"/>
        <path d="M 18.40625 4.796875 
C 18.40625 7.6875 16 9.6875 13.59375 9.6875 
C 10.703125 9.6875 8.703125 7.296875 8.703125 4.890625 
C 8.703125 2 11.09375 0 13.5 0 
C 16.40625 0 18.40625 2.390625 18.40625 4.796875 
z
" id="CMMI12-58"/>
       </defs>
       <use transform="scale(0.996264)" xlink:href="#CMR17-48"/>
       <use transform="translate(45.690477 0)scale(0.996264)" xlink:href="#CMMI12-58"/>
       <use transform="translate(72.787654 0)scale(0.996264)" xlink:href="#CMR17-48"/>
      </g>
     </g>
    </g>
    <g id="ytick_2">
     <g id="line2d_32">
      <path clip-path="url(#p47ddafb65b)" d="M 45.212587 101.827116 
L 240.512587 101.827116 
" style="fill:none;stroke:#000000;stroke-dasharray:0.5,0.825;stroke-dashoffset:0;stroke-opacity:0.5;stroke-width:0.5;"/>
     </g>
     <g id="line2d_33">
      <g>
       <use style="stroke:#000000;stroke-width:0.5;" x="45.212587" xlink:href="#m208fda5d2d" y="101.827116"/>
      </g>
     </g>
     <g id="line2d_34">
      <g>
       <use style="stroke:#000000;stroke-width:0.5;" x="240.512587" xlink:href="#m9a29fbf1f6" y="101.827116"/>
      </g>
     </g>
     <g id="text_4">
      <!-- $\mathdefault{0.5}$ -->
      <g transform="translate(21.769064 107.36191)scale(0.16 -0.16)">
       <defs>
        <path d="M 11.40625 58.59375 
C 12.40625 58.1875 16.5 56.890625 20.703125 56.890625 
C 30 56.890625 35.09375 61.890625 38 64.6875 
C 38 65.484375 38 66 37.40625 66 
C 37.296875 66 37.09375 66 36.296875 65.59375 
C 32.796875 64.09375 28.703125 63 23.703125 63 
C 20.703125 63 16.203125 63.359375 11.296875 65.484375 
C 10.203125 66 10 66 9.90625 66 
C 9.40625 66 9.296875 65.890625 9.296875 63.90625 
L 9.296875 34.859375 
C 9.296875 33.015625 9.296875 32.5 10.296875 32.5 
C 10.796875 32.5 11 32.703125 11.5 33.421875 
C 14.703125 38.046875 19.09375 40 24.09375 40 
C 27.59375 40 35.09375 37.734375 35.09375 20.203125 
C 35.09375 16.984375 35.09375 11.1875 32.09375 6.59375 
C 29.59375 2.484375 25.703125 0.390625 21.40625 0.390625 
C 14.796875 0.390625 8.09375 4.984375 6.296875 12.6875 
C 6.703125 12.59375 7.5 12.390625 7.90625 12.390625 
C 9.203125 12.390625 11.703125 13.09375 11.703125 16.1875 
C 11.703125 18.890625 9.796875 20 7.90625 20 
C 5.59375 20 4.09375 18.59375 4.09375 15.796875 
C 4.09375 7.09375 11 -2 21.59375 -2 
C 31.90625 -2 41.703125 6.890625 41.703125 19.796875 
C 41.703125 32.09375 33.90625 41.59375 24.203125 41.59375 
C 19.09375 41.59375 14.796875 39.6875 11.40625 36 
z
" id="CMR17-53"/>
       </defs>
       <use transform="scale(0.996264)" xlink:href="#CMR17-48"/>
       <use transform="translate(45.690477 0)scale(0.996264)" xlink:href="#CMMI12-58"/>
       <use transform="translate(72.787654 0)scale(0.996264)" xlink:href="#CMR17-53"/>
      </g>
     </g>
    </g>
    <g id="ytick_3">
     <g id="line2d_35">
      <path clip-path="url(#p47ddafb65b)" d="M 45.212587 57.359233 
L 240.512587 57.359233 
" style="fill:none;stroke:#000000;stroke-dasharray:0.5,0.825;stroke-dashoffset:0;stroke-opacity:0.5;stroke-width:0.5;"/>
     </g>
     <g id="line2d_36">
      <g>
       <use style="stroke:#000000;stroke-width:0.5;" x="45.212587" xlink:href="#m208fda5d2d" y="57.359233"/>
      </g>
     </g>
     <g id="line2d_37">
      <g>
       <use style="stroke:#000000;stroke-width:0.5;" x="240.512587" xlink:href="#m9a29fbf1f6" y="57.359233"/>
      </g>
     </g>
     <g id="text_5">
      <!-- $\mathdefault{1.0}$ -->
      <g transform="translate(21.769064 62.894027)scale(0.16 -0.16)">
       <use transform="scale(0.996264)" xlink:href="#CMR17-49"/>
       <use transform="translate(45.690477 0)scale(0.996264)" xlink:href="#CMMI12-58"/>
       <use transform="translate(72.787654 0)scale(0.996264)" xlink:href="#CMR17-48"/>
      </g>
     </g>
    </g>
    <g id="ytick_4">
     <g id="line2d_38">
      <path clip-path="url(#p47ddafb65b)" d="M 45.212587 12.891349 
L 240.512587 12.891349 
" style="fill:none;stroke:#000000;stroke-dasharray:0.5,0.825;stroke-dashoffset:0;stroke-opacity:0.5;stroke-width:0.5;"/>
     </g>
     <g id="line2d_39">
      <g>
       <use style="stroke:#000000;stroke-width:0.5;" x="45.212587" xlink:href="#m208fda5d2d" y="12.891349"/>
      </g>
     </g>
     <g id="line2d_40">
      <g>
       <use style="stroke:#000000;stroke-width:0.5;" x="240.512587" xlink:href="#m9a29fbf1f6" y="12.891349"/>
      </g>
     </g>
     <g id="text_6">
      <!-- $\mathdefault{1.5}$ -->
      <g transform="translate(21.769064 18.426143)scale(0.16 -0.16)">
       <use transform="scale(0.996264)" xlink:href="#CMR17-49"/>
       <use transform="translate(45.690477 0)scale(0.996264)" xlink:href="#CMMI12-58"/>
       <use transform="translate(72.787654 0)scale(0.996264)" xlink:href="#CMR17-53"/>
      </g>
     </g>
    </g>
    <g id="ytick_5">
     <g id="line2d_41">
      <defs>
       <path d="M 0 0 
L 1.5 0 
" id="mc318cf676d" style="stroke:#000000;stroke-width:0.5;"/>
      </defs>
      <g>
       <use style="stroke:#000000;stroke-width:0.5;" x="45.212587" xlink:href="#mc318cf676d" y="137.401423"/>
      </g>
     </g>
     <g id="line2d_42">
      <defs>
       <path d="M 0 0 
L -1.5 0 
" id="mb0d253ecd0" style="stroke:#000000;stroke-width:0.5;"/>
      </defs>
      <g>
       <use style="stroke:#000000;stroke-width:0.5;" x="240.512587" xlink:href="#mb0d253ecd0" y="137.401423"/>
      </g>
     </g>
    </g>
    <g id="ytick_6">
     <g id="line2d_43">
      <g>
       <use style="stroke:#000000;stroke-width:0.5;" x="45.212587" xlink:href="#mc318cf676d" y="128.507847"/>
      </g>
     </g>
     <g id="line2d_44">
      <g>
       <use style="stroke:#000000;stroke-width:0.5;" x="240.512587" xlink:href="#mb0d253ecd0" y="128.507847"/>
      </g>
     </g>
    </g>
    <g id="ytick_7">
     <g id="line2d_45">
      <g>
       <use style="stroke:#000000;stroke-width:0.5;" x="45.212587" xlink:href="#mc318cf676d" y="119.61427"/>
      </g>
     </g>
     <g id="line2d_46">
      <g>
       <use style="stroke:#000000;stroke-width:0.5;" x="240.512587" xlink:href="#mb0d253ecd0" y="119.61427"/>
      </g>
     </g>
    </g>
    <g id="ytick_8">
     <g id="line2d_47">
      <g>
       <use style="stroke:#000000;stroke-width:0.5;" x="45.212587" xlink:href="#mc318cf676d" y="110.720693"/>
      </g>
     </g>
     <g id="line2d_48">
      <g>
       <use style="stroke:#000000;stroke-width:0.5;" x="240.512587" xlink:href="#mb0d253ecd0" y="110.720693"/>
      </g>
     </g>
    </g>
    <g id="ytick_9">
     <g id="line2d_49">
      <g>
       <use style="stroke:#000000;stroke-width:0.5;" x="45.212587" xlink:href="#mc318cf676d" y="92.93354"/>
      </g>
     </g>
     <g id="line2d_50">
      <g>
       <use style="stroke:#000000;stroke-width:0.5;" x="240.512587" xlink:href="#mb0d253ecd0" y="92.93354"/>
      </g>
     </g>
    </g>
    <g id="ytick_10">
     <g id="line2d_51">
      <g>
       <use style="stroke:#000000;stroke-width:0.5;" x="45.212587" xlink:href="#mc318cf676d" y="84.039963"/>
      </g>
     </g>
     <g id="line2d_52">
      <g>
       <use style="stroke:#000000;stroke-width:0.5;" x="240.512587" xlink:href="#mb0d253ecd0" y="84.039963"/>
      </g>
     </g>
    </g>
    <g id="ytick_11">
     <g id="line2d_53">
      <g>
       <use style="stroke:#000000;stroke-width:0.5;" x="45.212587" xlink:href="#mc318cf676d" y="75.146386"/>
      </g>
     </g>
     <g id="line2d_54">
      <g>
       <use style="stroke:#000000;stroke-width:0.5;" x="240.512587" xlink:href="#mb0d253ecd0" y="75.146386"/>
      </g>
     </g>
    </g>
    <g id="ytick_12">
     <g id="line2d_55">
      <g>
       <use style="stroke:#000000;stroke-width:0.5;" x="45.212587" xlink:href="#mc318cf676d" y="66.252809"/>
      </g>
     </g>
     <g id="line2d_56">
      <g>
       <use style="stroke:#000000;stroke-width:0.5;" x="240.512587" xlink:href="#mb0d253ecd0" y="66.252809"/>
      </g>
     </g>
    </g>
    <g id="ytick_13">
     <g id="line2d_57">
      <g>
       <use style="stroke:#000000;stroke-width:0.5;" x="45.212587" xlink:href="#mc318cf676d" y="48.465656"/>
      </g>
     </g>
     <g id="line2d_58">
      <g>
       <use style="stroke:#000000;stroke-width:0.5;" x="240.512587" xlink:href="#mb0d253ecd0" y="48.465656"/>
      </g>
     </g>
    </g>
    <g id="ytick_14">
     <g id="line2d_59">
      <g>
       <use style="stroke:#000000;stroke-width:0.5;" x="45.212587" xlink:href="#mc318cf676d" y="39.572079"/>
      </g>
     </g>
     <g id="line2d_60">
      <g>
       <use style="stroke:#000000;stroke-width:0.5;" x="240.512587" xlink:href="#mb0d253ecd0" y="39.572079"/>
      </g>
     </g>
    </g>
    <g id="ytick_15">
     <g id="line2d_61">
      <g>
       <use style="stroke:#000000;stroke-width:0.5;" x="45.212587" xlink:href="#mc318cf676d" y="30.678503"/>
      </g>
     </g>
     <g id="line2d_62">
      <g>
       <use style="stroke:#000000;stroke-width:0.5;" x="240.512587" xlink:href="#mb0d253ecd0" y="30.678503"/>
      </g>
     </g>
    </g>
    <g id="ytick_16">
     <g id="line2d_63">
      <g>
       <use style="stroke:#000000;stroke-width:0.5;" x="45.212587" xlink:href="#mc318cf676d" y="21.784926"/>
      </g>
     </g>
     <g id="line2d_64">
      <g>
       <use style="stroke:#000000;stroke-width:0.5;" x="240.512587" xlink:href="#mb0d253ecd0" y="21.784926"/>
      </g>
     </g>
    </g>
    <g id="ytick_17">
     <g id="line2d_65">
      <g>
       <use style="stroke:#000000;stroke-width:0.5;" x="45.212587" xlink:href="#mc318cf676d" y="3.997772"/>
      </g>
     </g>
     <g id="line2d_66">
      <g>
       <use style="stroke:#000000;stroke-width:0.5;" x="240.512587" xlink:href="#mb0d253ecd0" y="3.997772"/>
      </g>
     </g>
    </g>
    <g id="text_7">
     <!-- Density -->
     <g transform="translate(14.669588 100.894381)rotate(-90)scale(0.16 -0.16)">
      <defs>
       <path d="M 5.203125 68 
L 5.203125 65.390625 
C 12.09375 65.390625 13.203125 65.390625 13.203125 60.90625 
L 13.203125 7.078125 
C 13.203125 2.59375 12.09375 2.59375 5.203125 2.59375 
L 5.203125 0 
L 37 0 
C 53.09375 0 66 14.734375 66 33.4375 
C 66 52.25 53.296875 68 37 68 
z
M 23.796875 2.59375 
C 19.796875 2.59375 19.59375 3.09375 19.59375 6.46875 
L 19.59375 61.5 
C 19.59375 64.890625 19.796875 65.390625 23.796875 65.390625 
L 35 65.390625 
C 43.296875 65.390625 58.59375 60.515625 58.59375 33.4375 
C 58.59375 19.40625 54.5 13.734375 52.59375 11.046875 
C 50.203125 7.96875 44.5 2.59375 35 2.59375 
z
" id="CMR17-68"/>
       <path d="M 38.09375 23.484375 
C 38.5 23.890625 38.5 24.09375 38.5 25.09375 
C 38.5 35.171875 33.09375 44 21.703125 44 
C 11.09375 44 2.703125 33.984375 2.703125 21.78125 
C 2.703125 8.65625 12.203125 -1 22.796875 -1 
C 34 -1 38.40625 9.671875 38.40625 11.796875 
C 38.40625 12.5 37.796875 12.5 37.59375 12.5 
C 36.90625 12.5 36.796875 12.296875 36.40625 11.078125 
C 34.203125 4.21875 28.703125 0.796875 23.5 0.796875 
C 19.203125 0.796875 14.90625 3.21875 12.203125 7.65625 
C 9.09375 12.796875 9.09375 18.75 9.09375 23.484375 
z
M 9.203125 25 
C 9.90625 39.234375 17.59375 42.390625 21.59375 42.390625 
C 28.40625 42.390625 33 36.0625 33.09375 25 
z
" id="CMR17-101"/>
       <path d="M 41.5 30.53125 
C 41.5 35.65625 40.5 44 28.703125 44 
C 20.796875 44 16.703125 37.875 15.203125 33.84375 
L 15.09375 33.84375 
L 15.09375 44 
L 3.296875 42.890625 
L 3.296875 40.28125 
C 9.203125 40.28125 10.09375 39.6875 10.09375 34.859375 
L 10.09375 6.921875 
C 10.09375 3.09375 9.703125 2.59375 3.296875 2.59375 
L 3.296875 0 
C 5.703125 0.1875 10.09375 0.1875 12.703125 0.1875 
C 15.296875 0.1875 19.796875 0.1875 22.203125 0 
L 22.203125 2.59375 
C 15.796875 2.59375 15.40625 3 15.40625 6.921875 
L 15.40625 26.21875 
C 15.40625 35.453125 21 42.390625 28 42.390625 
C 35.40625 42.390625 36.203125 35.765625 36.203125 30.9375 
L 36.203125 6.921875 
C 36.203125 3.09375 35.796875 2.59375 29.40625 2.59375 
L 29.40625 0 
C 31.796875 0.1875 36.203125 0.1875 38.796875 0.1875 
C 41.40625 0.1875 45.90625 0.1875 48.296875 0 
L 48.296875 2.59375 
C 41.90625 2.59375 41.5 3 41.5 6.921875 
z
" id="CMR17-110"/>
       <path d="M 30.90625 42 
C 30.90625 43.796875 30.796875 43.890625 30.203125 43.890625 
C 29.796875 43.890625 29.703125 43.796875 28.5 42.296875 
C 28.203125 41.890625 27.296875 40.890625 27 40.5 
C 23.796875 43.890625 19.296875 44 17.59375 44 
C 6.5 44 2.5 38.1875 2.5 32.390625 
C 2.5 23.390625 12.703125 21.296875 15.59375 20.6875 
C 21.90625 19.390625 24.09375 19 26.203125 17.1875 
C 27.5 16 29.703125 13.796875 29.703125 10.1875 
C 29.703125 6 27.296875 0.59375 18.09375 0.59375 
C 9.40625 0.59375 6.296875 7.1875 4.5 16 
C 4.203125 17.390625 4.203125 17.5 3.40625 17.5 
C 2.59375 17.5 2.5 17.390625 2.5 15.390625 
L 2.5 1 
C 2.5 -0.8125 2.59375 -0.90625 3.203125 -0.90625 
C 3.703125 -0.90625 3.796875 -0.8125 4.296875 0 
C 4.90625 0.890625 6.40625 3.296875 7 4.296875 
C 9 1.59375 12.5 -1 18.09375 -1 
C 28 -1 33.296875 4.390625 33.296875 12.1875 
C 33.296875 17.296875 30.59375 20 29.296875 21.1875 
C 26.296875 24.296875 22.796875 25 18.59375 25.796875 
C 13.09375 27 6.09375 28.390625 6.09375 34.5 
C 6.09375 37.09375 7.5 42.59375 17.59375 42.59375 
C 28.296875 42.59375 28.90625 32.59375 29.09375 29.390625 
C 29.203125 28.890625 29.703125 28.796875 30 28.796875 
C 30.90625 28.796875 30.90625 29.09375 30.90625 30.796875 
z
" id="CMR17-115"/>
       <path d="M 15.5 61.890625 
C 15.5 64.09375 13.703125 66 11.40625 66 
C 9.203125 66 7.296875 64.1875 7.296875 61.890625 
C 7.296875 59.6875 9.09375 57.796875 11.40625 57.796875 
C 13.59375 57.796875 15.5 59.59375 15.5 61.890625 
z
M 3.796875 42.890625 
L 3.796875 40.296875 
C 9.40625 40.296875 10.203125 39.6875 10.203125 34.859375 
L 10.203125 6.921875 
C 10.203125 3.09375 9.796875 2.59375 3.40625 2.59375 
L 3.40625 0 
C 5.796875 0.1875 10.09375 0.1875 12.59375 0.1875 
C 15 0.1875 19.09375 0.1875 21.40625 0 
L 21.40625 2.59375 
C 15.5 2.59375 15.296875 3.203125 15.296875 6.8125 
L 15.296875 44 
z
" id="CMR17-105"/>
       <path d="M 15.09375 40.390625 
L 29.09375 40.390625 
L 29.09375 43 
L 15.09375 43 
L 15.09375 62 
L 13.296875 62 
C 13.09375 51.4375 9.59375 42.1875 1.09375 41.984375 
L 1.09375 40.390625 
L 9.796875 40.390625 
L 9.796875 12.15625 
C 9.796875 10.234375 9.796875 -1 21.40625 -1 
C 27.296875 -1 30.703125 4.8125 30.703125 12.25 
L 30.703125 17.984375 
L 28.90625 17.984375 
L 28.90625 12.34375 
C 28.90625 5.421875 26.203125 0.796875 22 0.796875 
C 19.09375 0.796875 15.09375 2.796875 15.09375 11.953125 
z
" id="CMR17-116"/>
       <path d="M 39 34.109375 
C 41.5 40.296875 46 40.390625 47.40625 40.390625 
L 47.40625 43 
C 45.5 42.890625 43 42.796875 41.09375 42.796875 
C 39 42.796875 35.703125 42.796875 33.703125 43 
L 33.703125 40.390625 
C 37.5 40.09375 37.59375 37.25 37.59375 36.4375 
C 37.59375 35.4375 37.40625 34.921875 36.90625 33.71875 
L 26 6.390625 
L 14.09375 35.9375 
C 13.59375 37.15625 13.59375 37.859375 13.59375 37.96875 
C 13.59375 40.1875 15.90625 40.390625 18.296875 40.390625 
L 18.296875 43 
C 15.90625 42.796875 11.59375 42.796875 9.09375 42.796875 
C 6.40625 42.796875 3.203125 42.796875 1 43 
L 1 40.390625 
C 6.40625 40.390625 7 39.890625 8.296875 36.640625 
L 23.203125 -0.484375 
C 18.703125 -12.421875 16.09375 -19.40625 9.796875 -19.40625 
C 8.703125 -19.40625 6.203125 -19.109375 4.40625 -17.28125 
C 6.703125 -17.078125 7.703125 -15.65625 7.703125 -13.9375 
C 7.703125 -12.21875 6.5 -10.703125 4.5 -10.703125 
C 2.296875 -10.703125 1.203125 -12.21875 1.203125 -14.046875 
C 1.203125 -18.09375 5.296875 -21 9.796875 -21 
C 15.59375 -21 19.203125 -15.359375 21.203125 -10.296875 
z
" id="CMR17-121"/>
      </defs>
      <use transform="scale(0.996264)" xlink:href="#CMR17-68"/>
      <use transform="translate(70.393556 0)scale(0.996264)" xlink:href="#CMR17-101"/>
      <use transform="translate(110.879216 0)scale(0.996264)" xlink:href="#CMR17-110"/>
      <use transform="translate(161.774586 0)scale(0.996264)" xlink:href="#CMR17-115"/>
      <use transform="translate(197.575924 0)scale(0.996264)" xlink:href="#CMR17-105"/>
      <use transform="translate(222.446982 0)scale(0.996264)" xlink:href="#CMR17-116"/>
      <use transform="translate(255.125296 0)scale(0.996264)" xlink:href="#CMR17-121"/>
     </g>
    </g>
   </g>
   <g id="line2d_67">
    <path clip-path="url(#p47ddafb65b)" d="M 113.134957 146.295 
L 113.134957 3.6 
" style="fill:none;stroke:#0c5da5;stroke-dasharray:19.2,4.8,3,4.8;stroke-dashoffset:0;stroke-width:3;"/>
   </g>
   <g id="patch_3">
    <path d="M 45.212587 146.295 
L 45.212587 3.6 
" style="fill:none;stroke:#000000;stroke-linecap:square;stroke-linejoin:miter;stroke-width:0.5;"/>
   </g>
   <g id="patch_4">
    <path d="M 240.512587 146.295 
L 240.512587 3.6 
" style="fill:none;stroke:#000000;stroke-linecap:square;stroke-linejoin:miter;stroke-width:0.5;"/>
   </g>
   <g id="patch_5">
    <path d="M 45.212587 146.295 
L 240.512587 146.295 
" style="fill:none;stroke:#000000;stroke-linecap:square;stroke-linejoin:miter;stroke-width:0.5;"/>
   </g>
   <g id="patch_6">
    <path d="M 45.212587 3.6 
L 240.512587 3.6 
" style="fill:none;stroke:#000000;stroke-linecap:square;stroke-linejoin:miter;stroke-width:0.5;"/>
   </g>
  </g>
 </g>
 <defs>
  <clipPath id="p47ddafb65b">
   <rect height="142.695" width="195.3" x="45.212587" y="3.6"/>
  </clipPath>
 </defs>
</svg>
