<?xml version="1.0" encoding="utf-8" standalone="no"?>
<!DOCTYPE svg PUBLIC "-//W3C//DTD SVG 1.1//EN"
  "http://www.w3.org/Graphics/SVG/1.1/DTD/svg11.dtd">
<!-- Created with matplotlib (https://matplotlib.org/) -->
<svg height="171.752947pt" version="1.1" viewBox="0 0 231.973051 171.752947" width="231.973051pt" xmlns="http://www.w3.org/2000/svg" xmlns:xlink="http://www.w3.org/1999/xlink">
 <metadata>
  <rdf:RDF xmlns:cc="http://creativecommons.org/ns#" xmlns:dc="http://purl.org/dc/elements/1.1/" xmlns:rdf="http://www.w3.org/1999/02/22-rdf-syntax-ns#">
   <cc:Work>
    <dc:type rdf:resource="http://purl.org/dc/dcmitype/StillImage"/>
    <dc:date>2021-01-28T16:53:36.129435</dc:date>
    <dc:format>image/svg+xml</dc:format>
    <dc:creator>
     <cc:Agent>
      <dc:title>Matplotlib v3.3.0, https://matplotlib.org/</dc:title>
     </cc:Agent>
    </dc:creator>
   </cc:Work>
  </rdf:RDF>
 </metadata>
 <defs>
  <style type="text/css">*{stroke-linecap:butt;stroke-linejoin:round;}</style>
 </defs>
 <g id="figure_1">
  <g id="patch_1">
   <path d="M 0 171.752947 
L 231.973051 171.752947 
L 231.973051 0 
L 0 0 
z
" style="fill:none;"/>
  </g>
  <g id="axes_1">
   <g id="patch_2">
    <path d="M 33.073051 150.483882 
L 228.373051 150.483882 
L 228.373051 7.788882 
L 33.073051 7.788882 
z
" style="fill:#ffffff;"/>
   </g>
   <g id="PolyCollection_1">
    <defs>
     <path d="M 49.198301 -21.338183 
L 49.198301 -21.269064 
L 50.044208 -21.269064 
L 50.890116 -21.269064 
L 51.736024 -21.269064 
L 52.581931 -21.269064 
L 53.427839 -21.269064 
L 54.273747 -21.269064 
L 55.119654 -21.269064 
L 55.965562 -21.269064 
L 56.81147 -21.269064 
L 57.657377 -21.269064 
L 58.503285 -21.269064 
L 59.349192 -21.269064 
L 60.1951 -21.269064 
L 61.041008 -21.269064 
L 61.886915 -21.269064 
L 62.732823 -21.269064 
L 63.578731 -21.269064 
L 64.424638 -21.269064 
L 65.270546 -21.269064 
L 66.116454 -21.269064 
L 66.962361 -21.269064 
L 67.808269 -21.269064 
L 68.654177 -21.269064 
L 69.500084 -21.269064 
L 70.345992 -21.269064 
L 71.191899 -21.269064 
L 72.037807 -21.269064 
L 72.883715 -21.269064 
L 73.729622 -21.269064 
L 74.57553 -21.269064 
L 75.421438 -21.269064 
L 76.267345 -21.269064 
L 77.113253 -21.269064 
L 77.959161 -21.269064 
L 78.805068 -21.269064 
L 79.650976 -21.269064 
L 80.496883 -21.269064 
L 81.342791 -21.269064 
L 82.188699 -21.269064 
L 83.034606 -21.269064 
L 83.880514 -21.269064 
L 84.726422 -21.269064 
L 85.572329 -21.269064 
L 86.418237 -21.269064 
L 87.264145 -21.269064 
L 88.110052 -21.269064 
L 88.95596 -21.269064 
L 89.801868 -21.269064 
L 90.647775 -21.269064 
L 91.493683 -21.269064 
L 92.33959 -21.269064 
L 93.185498 -21.269064 
L 94.031406 -21.269064 
L 94.877313 -21.269064 
L 95.723221 -21.269064 
L 96.569129 -21.269064 
L 97.415036 -21.269064 
L 98.260944 -21.269064 
L 99.106852 -21.269064 
L 99.952759 -21.269064 
L 100.798667 -21.269064 
L 101.644574 -21.269064 
L 102.490482 -21.269064 
L 103.33639 -21.269064 
L 104.182297 -21.269064 
L 105.028205 -21.269064 
L 105.874113 -21.269064 
L 106.72002 -21.269064 
L 107.565928 -21.269064 
L 108.411836 -21.269064 
L 109.257743 -21.269064 
L 110.103651 -21.269064 
L 110.949559 -21.269064 
L 111.795466 -21.269064 
L 112.641374 -21.269064 
L 113.487281 -21.269064 
L 114.333189 -21.269064 
L 115.179097 -21.269064 
L 116.025004 -21.269064 
L 116.870912 -21.269064 
L 117.71682 -21.269064 
L 118.562727 -21.269064 
L 119.408635 -21.269064 
L 120.254543 -21.269064 
L 121.10045 -21.269064 
L 121.946358 -21.269064 
L 122.792266 -21.269064 
L 123.638173 -21.269064 
L 124.484081 -21.269064 
L 125.329988 -21.269064 
L 126.175896 -21.269064 
L 127.021804 -21.269064 
L 127.867711 -21.269064 
L 128.713619 -21.269064 
L 129.559527 -21.269064 
L 130.405434 -21.269064 
L 131.251342 -21.269064 
L 132.09725 -21.269064 
L 132.943157 -21.269064 
L 133.789065 -21.269064 
L 134.634972 -21.269064 
L 135.48088 -21.269064 
L 136.326788 -21.269064 
L 137.172695 -21.269064 
L 138.018603 -21.269064 
L 138.864511 -21.269064 
L 139.710418 -21.269064 
L 140.556326 -21.269064 
L 141.402234 -21.269064 
L 142.248141 -21.269064 
L 143.094049 -21.269064 
L 143.939957 -21.269064 
L 144.785864 -21.269064 
L 145.631772 -21.269064 
L 146.477679 -21.269064 
L 147.323587 -21.269064 
L 148.169495 -21.269064 
L 149.015402 -21.269064 
L 149.86131 -21.269064 
L 150.707218 -21.269064 
L 151.553125 -21.269064 
L 152.399033 -21.269064 
L 153.244941 -21.269064 
L 154.090848 -21.269064 
L 154.936756 -21.269064 
L 155.782663 -21.269064 
L 156.628571 -21.269064 
L 157.474479 -21.269064 
L 158.320386 -21.269064 
L 159.166294 -21.269064 
L 160.012202 -21.269064 
L 160.858109 -21.269064 
L 161.704017 -21.269064 
L 162.549925 -21.269064 
L 163.395832 -21.269064 
L 164.24174 -21.269064 
L 165.087648 -21.269064 
L 165.933555 -21.269064 
L 166.779463 -21.269064 
L 167.62537 -21.269064 
L 168.471278 -21.269064 
L 169.317186 -21.269064 
L 170.163093 -21.269064 
L 171.009001 -21.269064 
L 171.854909 -21.269064 
L 172.700816 -21.269064 
L 173.546724 -21.269064 
L 174.392632 -21.269064 
L 175.238539 -21.269064 
L 176.084447 -21.269064 
L 176.930354 -21.269064 
L 177.776262 -21.269064 
L 178.62217 -21.269064 
L 179.468077 -21.269064 
L 180.313985 -21.269064 
L 181.159893 -21.269064 
L 182.0058 -21.269064 
L 182.851708 -21.269064 
L 183.697616 -21.269064 
L 184.543523 -21.269064 
L 185.389431 -21.269064 
L 186.235339 -21.269064 
L 187.081246 -21.269064 
L 187.927154 -21.269064 
L 188.773061 -21.269064 
L 189.618969 -21.269064 
L 190.464877 -21.269064 
L 191.310784 -21.269064 
L 192.156692 -21.269064 
L 193.0026 -21.269064 
L 193.848507 -21.269064 
L 194.694415 -21.269064 
L 195.540323 -21.269064 
L 196.38623 -21.269064 
L 197.232138 -21.269064 
L 198.078045 -21.269064 
L 198.923953 -21.269064 
L 199.769861 -21.269064 
L 200.615768 -21.269064 
L 201.461676 -21.269064 
L 202.307584 -21.269064 
L 203.153491 -21.269064 
L 203.999399 -21.269064 
L 204.845307 -21.269064 
L 205.691214 -21.269064 
L 206.537122 -21.269064 
L 207.38303 -21.269064 
L 208.228937 -21.269064 
L 209.074845 -21.269064 
L 209.920752 -21.269064 
L 210.76666 -21.269064 
L 211.612568 -21.269064 
L 212.458475 -21.269064 
L 213.304383 -21.269064 
L 214.150291 -21.269064 
L 214.996198 -21.269064 
L 215.842106 -21.269064 
L 216.688014 -21.269064 
L 217.533921 -21.269064 
L 217.533921 -21.342219 
L 217.533921 -21.342219 
L 216.688014 -21.364097 
L 215.842106 -21.391668 
L 214.996198 -21.426154 
L 214.150291 -21.468965 
L 213.304383 -21.521713 
L 212.458475 -21.586218 
L 211.612568 -21.664509 
L 210.76666 -21.758821 
L 209.920752 -21.871583 
L 209.074845 -22.005393 
L 208.228937 -22.162994 
L 207.38303 -22.347228 
L 206.537122 -22.560987 
L 205.691214 -22.80715 
L 204.845307 -23.088515 
L 203.999399 -23.407717 
L 203.153491 -23.767144 
L 202.307584 -24.168849 
L 201.461676 -24.614459 
L 200.615768 -25.105088 
L 199.769861 -25.641256 
L 198.923953 -26.222814 
L 198.078045 -26.848886 
L 197.232138 -27.517827 
L 196.38623 -28.227191 
L 195.540323 -28.973736 
L 194.694415 -29.753434 
L 193.848507 -30.561519 
L 193.0026 -31.392546 
L 192.156692 -32.240485 
L 191.310784 -33.098826 
L 190.464877 -33.960709 
L 189.618969 -34.819071 
L 188.773061 -35.666804 
L 187.927154 -36.496928 
L 187.081246 -37.302773 
L 186.235339 -38.078156 
L 185.389431 -38.817575 
L 184.543523 -39.516389 
L 183.697616 -40.170995 
L 182.851708 -40.779001 
L 182.0058 -41.339383 
L 181.159893 -41.852621 
L 180.313985 -42.320826 
L 179.468077 -42.747831 
L 178.62217 -43.139259 
L 177.776262 -43.502555 
L 176.930354 -43.846984 
L 176.084447 -44.183581 
L 175.238539 -44.525065 
L 174.392632 -44.885696 
L 173.546724 -45.281089 
L 172.700816 -45.727982 
L 171.854909 -46.243948 
L 171.009001 -46.847072 
L 170.163093 -47.555587 
L 169.317186 -48.387474 
L 168.471278 -49.360044 
L 167.62537 -50.489508 
L 166.779463 -51.790541 
L 165.933555 -53.275863 
L 165.087648 -54.955839 
L 164.24174 -56.838124 
L 163.395832 -58.927351 
L 162.549925 -61.224885 
L 161.704017 -63.72865 
L 160.858109 -66.433028 
L 160.012202 -69.328852 
L 159.166294 -72.403484 
L 158.320386 -75.640971 
L 157.474479 -79.022294 
L 156.628571 -82.525689 
L 155.782663 -86.127031 
L 154.936756 -89.800274 
L 154.090848 -93.517933 
L 153.244941 -97.251584 
L 152.399033 -100.972386 
L 151.553125 -104.651581 
L 150.707218 -108.260993 
L 149.86131 -111.773481 
L 149.015402 -115.163364 
L 148.169495 -118.40679 
L 147.323587 -121.482057 
L 146.477679 -124.369886 
L 145.631772 -127.053631 
L 144.785864 -129.519457 
L 143.939957 -131.756456 
L 143.094049 -133.75674 
L 142.248141 -135.51549 
L 141.402234 -137.030984 
L 140.556326 -138.304592 
L 139.710418 -139.340753 
L 138.864511 -140.146926 
L 138.018603 -140.733513 
L 137.172695 -141.113758 
L 136.326788 -141.303608 
L 135.48088 -141.321531 
L 134.634972 -141.188296 
L 133.789065 -140.926699 
L 132.943157 -140.561236 
L 132.09725 -140.117723 
L 131.251342 -139.622865 
L 130.405434 -139.103776 
L 129.559527 -138.587465 
L 128.713619 -138.100289 
L 127.867711 -137.667401 
L 127.021804 -137.31219 
L 126.175896 -137.055756 
L 125.329988 -136.916415 
L 124.484081 -136.909262 
L 123.638173 -137.045814 
L 122.792266 -137.333734 
L 121.946358 -137.776652 
L 121.10045 -138.374099 
L 120.254543 -139.12154 
L 119.408635 -140.010514 
L 118.562727 -141.02887 
L 117.71682 -142.161097 
L 116.870912 -143.388714 
L 116.025004 -144.690726 
L 115.179097 -146.044112 
L 114.333189 -147.424329 
L 113.487281 -148.805815 
L 112.641374 -150.16247 
L 111.795466 -151.468103 
L 110.949559 -152.696834 
L 110.103651 -153.823437 
L 109.257743 -154.823628 
L 108.411836 -155.674294 
L 107.565928 -156.353667 
L 106.72002 -156.841457 
L 105.874113 -157.118946 
L 105.028205 -157.169064 
L 104.182297 -156.976453 
L 103.33639 -156.527533 
L 102.490482 -155.810585 
L 101.644574 -154.81585 
L 100.798667 -153.535659 
L 99.952759 -151.964584 
L 99.106852 -150.099608 
L 98.260944 -147.940316 
L 97.415036 -145.489078 
L 96.569129 -142.751225 
L 95.723221 -139.73519 
L 94.877313 -136.452613 
L 94.031406 -132.918374 
L 93.185498 -129.150553 
L 92.33959 -125.170316 
L 91.493683 -121.001693 
L 90.647775 -116.67128 
L 89.801868 -112.207847 
L 88.95596 -107.64187 
L 88.110052 -103.004998 
L 87.264145 -98.329482 
L 86.418237 -93.64757 
L 85.572329 -88.990909 
L 84.726422 -84.389961 
L 83.880514 -79.873466 
L 83.034606 -75.467962 
L 82.188699 -71.197381 
L 81.342791 -67.082735 
L 80.496883 -63.141894 
L 79.650976 -59.389462 
L 78.805068 -55.83674 
L 77.959161 -52.491786 
L 77.113253 -49.359549 
L 76.267345 -46.442062 
L 75.421438 -43.738696 
L 74.57553 -41.246448 
L 73.729622 -38.96025 
L 72.883715 -36.873293 
L 72.037807 -34.977346 
L 71.191899 -33.263064 
L 70.345992 -31.720279 
L 69.500084 -30.338267 
L 68.654177 -29.105979 
L 67.808269 -28.012257 
L 66.962361 -27.046001 
L 66.116454 -26.196324 
L 65.270546 -25.452667 
L 64.424638 -24.804894 
L 63.578731 -24.243367 
L 62.732823 -23.758993 
L 61.886915 -23.343265 
L 61.041008 -22.988279 
L 60.1951 -22.686742 
L 59.349192 -22.431974 
L 58.503285 -22.217896 
L 57.657377 -22.039011 
L 56.81147 -21.890385 
L 55.965562 -21.767617 
L 55.119654 -21.666809 
L 54.273747 -21.584531 
L 53.427839 -21.51779 
L 52.581931 -21.46399 
L 51.736024 -21.420897 
L 50.890116 -21.3866 
L 50.044208 -21.359483 
L 49.198301 -21.338183 
z
" id="md47ad23c6b" style="stroke:#008000;"/>
    </defs>
    <g clip-path="url(#p749dc0165b)">
     <use style="fill:#008000;fill-opacity:0.25;stroke:#008000;" x="0" xlink:href="#md47ad23c6b" y="171.752947"/>
    </g>
   </g>
   <g id="PolyCollection_2">
    <defs>
     <path d="M 41.950324 -21.319645 
L 41.950324 -21.269064 
L 42.842512 -21.269064 
L 43.734701 -21.269064 
L 44.626889 -21.269064 
L 45.519077 -21.269064 
L 46.411265 -21.269064 
L 47.303454 -21.269064 
L 48.195642 -21.269064 
L 49.08783 -21.269064 
L 49.980018 -21.269064 
L 50.872206 -21.269064 
L 51.764395 -21.269064 
L 52.656583 -21.269064 
L 53.548771 -21.269064 
L 54.440959 -21.269064 
L 55.333147 -21.269064 
L 56.225336 -21.269064 
L 57.117524 -21.269064 
L 58.009712 -21.269064 
L 58.9019 -21.269064 
L 59.794088 -21.269064 
L 60.686277 -21.269064 
L 61.578465 -21.269064 
L 62.470653 -21.269064 
L 63.362841 -21.269064 
L 64.25503 -21.269064 
L 65.147218 -21.269064 
L 66.039406 -21.269064 
L 66.931594 -21.269064 
L 67.823782 -21.269064 
L 68.715971 -21.269064 
L 69.608159 -21.269064 
L 70.500347 -21.269064 
L 71.392535 -21.269064 
L 72.284723 -21.269064 
L 73.176912 -21.269064 
L 74.0691 -21.269064 
L 74.961288 -21.269064 
L 75.853476 -21.269064 
L 76.745665 -21.269064 
L 77.637853 -21.269064 
L 78.530041 -21.269064 
L 79.422229 -21.269064 
L 80.314417 -21.269064 
L 81.206606 -21.269064 
L 82.098794 -21.269064 
L 82.990982 -21.269064 
L 83.88317 -21.269064 
L 84.775358 -21.269064 
L 85.667547 -21.269064 
L 86.559735 -21.269064 
L 87.451923 -21.269064 
L 88.344111 -21.269064 
L 89.2363 -21.269064 
L 90.128488 -21.269064 
L 91.020676 -21.269064 
L 91.912864 -21.269064 
L 92.805052 -21.269064 
L 93.697241 -21.269064 
L 94.589429 -21.269064 
L 95.481617 -21.269064 
L 96.373805 -21.269064 
L 97.265993 -21.269064 
L 98.158182 -21.269064 
L 99.05037 -21.269064 
L 99.942558 -21.269064 
L 100.834746 -21.269064 
L 101.726935 -21.269064 
L 102.619123 -21.269064 
L 103.511311 -21.269064 
L 104.403499 -21.269064 
L 105.295687 -21.269064 
L 106.187876 -21.269064 
L 107.080064 -21.269064 
L 107.972252 -21.269064 
L 108.86444 -21.269064 
L 109.756628 -21.269064 
L 110.648817 -21.269064 
L 111.541005 -21.269064 
L 112.433193 -21.269064 
L 113.325381 -21.269064 
L 114.21757 -21.269064 
L 115.109758 -21.269064 
L 116.001946 -21.269064 
L 116.894134 -21.269064 
L 117.786322 -21.269064 
L 118.678511 -21.269064 
L 119.570699 -21.269064 
L 120.462887 -21.269064 
L 121.355075 -21.269064 
L 122.247263 -21.269064 
L 123.139452 -21.269064 
L 124.03164 -21.269064 
L 124.923828 -21.269064 
L 125.816016 -21.269064 
L 126.708205 -21.269064 
L 127.600393 -21.269064 
L 128.492581 -21.269064 
L 129.384769 -21.269064 
L 130.276957 -21.269064 
L 131.169146 -21.269064 
L 132.061334 -21.269064 
L 132.953522 -21.269064 
L 133.84571 -21.269064 
L 134.737898 -21.269064 
L 135.630087 -21.269064 
L 136.522275 -21.269064 
L 137.414463 -21.269064 
L 138.306651 -21.269064 
L 139.19884 -21.269064 
L 140.091028 -21.269064 
L 140.983216 -21.269064 
L 141.875404 -21.269064 
L 142.767592 -21.269064 
L 143.659781 -21.269064 
L 144.551969 -21.269064 
L 145.444157 -21.269064 
L 146.336345 -21.269064 
L 147.228533 -21.269064 
L 148.120722 -21.269064 
L 149.01291 -21.269064 
L 149.905098 -21.269064 
L 150.797286 -21.269064 
L 151.689475 -21.269064 
L 152.581663 -21.269064 
L 153.473851 -21.269064 
L 154.366039 -21.269064 
L 155.258227 -21.269064 
L 156.150416 -21.269064 
L 157.042604 -21.269064 
L 157.934792 -21.269064 
L 158.82698 -21.269064 
L 159.719168 -21.269064 
L 160.611357 -21.269064 
L 161.503545 -21.269064 
L 162.395733 -21.269064 
L 163.287921 -21.269064 
L 164.18011 -21.269064 
L 165.072298 -21.269064 
L 165.964486 -21.269064 
L 166.856674 -21.269064 
L 167.748862 -21.269064 
L 168.641051 -21.269064 
L 169.533239 -21.269064 
L 170.425427 -21.269064 
L 171.317615 -21.269064 
L 172.209803 -21.269064 
L 173.101992 -21.269064 
L 173.99418 -21.269064 
L 174.886368 -21.269064 
L 175.778556 -21.269064 
L 176.670745 -21.269064 
L 177.562933 -21.269064 
L 178.455121 -21.269064 
L 179.347309 -21.269064 
L 180.239497 -21.269064 
L 181.131686 -21.269064 
L 182.023874 -21.269064 
L 182.916062 -21.269064 
L 183.80825 -21.269064 
L 184.700438 -21.269064 
L 185.592627 -21.269064 
L 186.484815 -21.269064 
L 187.377003 -21.269064 
L 188.269191 -21.269064 
L 189.161379 -21.269064 
L 190.053568 -21.269064 
L 190.945756 -21.269064 
L 191.837944 -21.269064 
L 192.730132 -21.269064 
L 193.622321 -21.269064 
L 194.514509 -21.269064 
L 195.406697 -21.269064 
L 196.298885 -21.269064 
L 197.191073 -21.269064 
L 198.083262 -21.269064 
L 198.97545 -21.269064 
L 199.867638 -21.269064 
L 200.759826 -21.269064 
L 201.652014 -21.269064 
L 202.544203 -21.269064 
L 203.436391 -21.269064 
L 204.328579 -21.269064 
L 205.220767 -21.269064 
L 206.112956 -21.269064 
L 207.005144 -21.269064 
L 207.897332 -21.269064 
L 208.78952 -21.269064 
L 209.681708 -21.269064 
L 210.573897 -21.269064 
L 211.466085 -21.269064 
L 212.358273 -21.269064 
L 213.250461 -21.269064 
L 214.142649 -21.269064 
L 215.034838 -21.269064 
L 215.927026 -21.269064 
L 216.819214 -21.269064 
L 217.711402 -21.269064 
L 218.603591 -21.269064 
L 219.495779 -21.269064 
L 219.495779 -21.358874 
L 219.495779 -21.358874 
L 218.603591 -21.387078 
L 217.711402 -21.42303 
L 216.819214 -21.4685 
L 215.927026 -21.52556 
L 215.034838 -21.596604 
L 214.142649 -21.684365 
L 213.250461 -21.791927 
L 212.358273 -21.922721 
L 211.466085 -22.080511 
L 210.573897 -22.269364 
L 209.681708 -22.493606 
L 208.78952 -22.75775 
L 207.897332 -23.066416 
L 207.005144 -23.424221 
L 206.112956 -23.835652 
L 205.220767 -24.304926 
L 204.328579 -24.835828 
L 203.436391 -25.431544 
L 202.544203 -26.094491 
L 201.652014 -26.826144 
L 200.759826 -27.62688 
L 199.867638 -28.495832 
L 198.97545 -29.430784 
L 198.083262 -30.428082 
L 197.191073 -31.482611 
L 196.298885 -32.587799 
L 195.406697 -33.735693 
L 194.514509 -34.917084 
L 193.622321 -36.121696 
L 192.730132 -37.338421 
L 191.837944 -38.555622 
L 190.945756 -39.761472 
L 190.053568 -40.944327 
L 189.161379 -42.093136 
L 188.269191 -43.197849 
L 187.377003 -44.249839 
L 186.484815 -45.242291 
L 185.592627 -46.170574 
L 184.700438 -47.032558 
L 183.80825 -47.828871 
L 182.916062 -48.563092 
L 182.023874 -49.24185 
L 181.131686 -49.874839 
L 180.239497 -50.474737 
L 179.347309 -51.057027 
L 178.455121 -51.639711 
L 177.562933 -52.242943 
L 176.670745 -52.888564 
L 175.778556 -53.599567 
L 174.886368 -54.399496 
L 173.99418 -55.311795 
L 173.101992 -56.359135 
L 172.209803 -57.562731 
L 171.317615 -58.941674 
L 170.425427 -60.512302 
L 169.533239 -62.287632 
L 168.641051 -64.27688 
L 167.748862 -66.485075 
L 166.856674 -68.912808 
L 165.964486 -71.556098 
L 165.072298 -74.406414 
L 164.18011 -77.45083 
L 163.287921 -80.672328 
L 162.395733 -84.050228 
L 161.503545 -87.560736 
L 160.611357 -91.177585 
L 159.719168 -94.872747 
L 158.82698 -98.617188 
L 157.934792 -102.381629 
L 157.042604 -106.137286 
L 156.150416 -109.856562 
L 155.258227 -113.513657 
L 154.366039 -117.085078 
L 153.473851 -120.550024 
L 152.581663 -123.890649 
L 151.689475 -127.092178 
L 150.797286 -130.142904 
L 149.905098 -133.03405 
L 149.01291 -135.759538 
L 148.120722 -138.315665 
L 147.228533 -140.700727 
L 146.336345 -142.914608 
L 145.444157 -144.958373 
L 144.551969 -146.83388 
L 143.659781 -148.54344 
L 142.767592 -150.089553 
L 141.875404 -151.474711 
L 140.983216 -152.701299 
L 140.091028 -153.771578 
L 139.19884 -154.687754 
L 138.306651 -155.4521 
L 137.414463 -156.067145 
L 136.522275 -156.535877 
L 135.630087 -156.861948 
L 134.737898 -157.049868 
L 133.84571 -157.105139 
L 132.953522 -157.034338 
L 132.061334 -156.845111 
L 131.169146 -156.546085 
L 130.276957 -156.146695 
L 129.384769 -155.656914 
L 128.492581 -155.086931 
L 127.600393 -154.446763 
L 126.708205 -153.745844 
L 125.816016 -152.992608 
L 124.923828 -152.194102 
L 124.03164 -151.355644 
L 123.139452 -150.480556 
L 122.247263 -149.569998 
L 121.355075 -148.622899 
L 120.462887 -147.636011 
L 119.570699 -146.604072 
L 118.678511 -145.520074 
L 117.786322 -144.375628 
L 116.894134 -143.161395 
L 116.001946 -141.867573 
L 115.109758 -140.484401 
L 114.21757 -139.002667 
L 113.325381 -137.414187 
L 112.433193 -135.712229 
L 111.541005 -133.89188 
L 110.648817 -131.950321 
L 109.756628 -129.887018 
L 108.86444 -127.703818 
L 107.972252 -125.404946 
L 107.080064 -122.996929 
L 106.187876 -120.488428 
L 105.295687 -117.890011 
L 104.403499 -115.213871 
L 103.511311 -112.473505 
L 102.619123 -109.683363 
L 101.726935 -106.858487 
L 100.834746 -104.014147 
L 99.942558 -101.16548 
L 99.05037 -98.32715 
L 98.158182 -95.513032 
L 97.265993 -92.735921 
L 96.373805 -90.007285 
L 95.481617 -87.337051 
L 94.589429 -84.733443 
L 93.697241 -82.202864 
L 92.805052 -79.749839 
L 91.912864 -77.376999 
L 91.020676 -75.085136 
L 90.128488 -72.873306 
L 89.2363 -70.738979 
L 88.344111 -68.67825 
L 87.451923 -66.686084 
L 86.559735 -64.756591 
L 85.667547 -62.883332 
L 84.775358 -61.05963 
L 83.88317 -59.278879 
L 82.990982 -57.534842 
L 82.098794 -55.821916 
L 81.206606 -54.135362 
L 80.314417 -52.47149 
L 79.422229 -50.827784 
L 78.530041 -49.202974 
L 77.637853 -47.597044 
L 76.745665 -46.011192 
L 75.853476 -44.447728 
L 74.961288 -42.909933 
L 74.0691 -41.401882 
L 73.176912 -39.928241 
L 72.284723 -38.494052 
L 71.392535 -37.104507 
L 70.500347 -35.764737 
L 69.608159 -34.479616 
L 68.715971 -33.253579 
L 67.823782 -32.090478 
L 66.931594 -30.993466 
L 66.039406 -29.964916 
L 65.147218 -29.006372 
L 64.25503 -28.118538 
L 63.362841 -27.301287 
L 62.470653 -26.553709 
L 61.578465 -25.874167 
L 60.686277 -25.260381 
L 59.794088 -24.709518 
L 58.9019 -24.21829 
L 58.009712 -23.783055 
L 57.117524 -23.399919 
L 56.225336 -23.064832 
L 55.333147 -22.773676 
L 54.440959 -22.522346 
L 53.548771 -22.30682 
L 52.656583 -22.123218 
L 51.764395 -21.96785 
L 50.872206 -21.837253 
L 49.980018 -21.728213 
L 49.08783 -21.637789 
L 48.195642 -21.563311 
L 47.303454 -21.502386 
L 46.411265 -21.452891 
L 45.519077 -21.41296 
L 44.626889 -21.380969 
L 43.734701 -21.355518 
L 42.842512 -21.335414 
L 41.950324 -21.319645 
z
" id="m11a01d2426" style="stroke:#ffa500;"/>
    </defs>
    <g clip-path="url(#p749dc0165b)">
     <use style="fill:#ffa500;fill-opacity:0.25;stroke:#ffa500;" x="0" xlink:href="#m11a01d2426" y="171.752947"/>
    </g>
   </g>
   <g id="matplotlib.axis_1">
    <g id="xtick_1">
     <g id="line2d_1">
      <path clip-path="url(#p749dc0165b)" d="M 107.651765 150.483882 
L 107.651765 7.788882 
" style="fill:none;stroke:#000000;stroke-dasharray:0.5,0.825;stroke-dashoffset:0;stroke-opacity:0.5;stroke-width:0.5;"/>
     </g>
     <g id="line2d_2">
      <defs>
       <path d="M 0 0 
L 0 -3 
" id="m28df54b1cb" style="stroke:#000000;stroke-width:0.5;"/>
      </defs>
      <g>
       <use style="stroke:#000000;stroke-width:0.5;" x="107.651765" xlink:href="#m28df54b1cb" y="150.483882"/>
      </g>
     </g>
     <g id="line2d_3">
      <defs>
       <path d="M 0 0 
L 0 3 
" id="m1dbe5563fa" style="stroke:#000000;stroke-width:0.5;"/>
      </defs>
      <g>
       <use style="stroke:#000000;stroke-width:0.5;" x="107.651765" xlink:href="#m1dbe5563fa" y="7.788882"/>
      </g>
     </g>
     <g id="text_1">
      <!-- $\mathdefault{0.2}$ -->
      <g transform="translate(97.680004 165.053471)scale(0.16 -0.16)">
       <defs>
        <path d="M 42 31.84375 
C 42 37.96875 41.90625 48.421875 37.703125 56.453125 
C 34 63.484375 28.09375 66 22.90625 66 
C 18.09375 66 12 63.78125 8.203125 56.5625 
C 4.203125 49.015625 3.796875 39.671875 3.796875 31.84375 
C 3.796875 26.109375 3.90625 17.375 7 9.734375 
C 11.296875 -0.609375 19 -2 22.90625 -2 
C 27.5 -2 34.5 -0.109375 38.59375 9.4375 
C 41.59375 16.375 42 24.5 42 31.84375 
z
M 22.90625 -0.40625 
C 16.5 -0.40625 12.703125 5.125 11.296875 12.75 
C 10.203125 18.6875 10.203125 27.328125 10.203125 32.953125 
C 10.203125 40.6875 10.203125 47.109375 11.5 53.234375 
C 13.40625 61.78125 19 64.390625 22.90625 64.390625 
C 27 64.390625 32.296875 61.671875 34.203125 53.4375 
C 35.5 47.71875 35.59375 40.984375 35.59375 32.953125 
C 35.59375 26.421875 35.59375 18.375 34.40625 12.453125 
C 32.296875 1.5 26.40625 -0.40625 22.90625 -0.40625 
z
" id="CMR17-48"/>
        <path d="M 18.40625 4.796875 
C 18.40625 7.6875 16 9.6875 13.59375 9.6875 
C 10.703125 9.6875 8.703125 7.296875 8.703125 4.890625 
C 8.703125 2 11.09375 0 13.5 0 
C 16.40625 0 18.40625 2.390625 18.40625 4.796875 
z
" id="CMMI12-58"/>
        <path d="M 41.703125 15.46875 
L 39.90625 15.46875 
C 38.90625 8.390625 38.09375 7.1875 37.703125 6.59375 
C 37.203125 5.796875 30 5.796875 28.59375 5.796875 
L 9.40625 5.796875 
C 13 9.6875 20 16.765625 28.5 24.9375 
C 34.59375 30.71875 41.703125 37.5 41.703125 47.390625 
C 41.703125 59.1875 32.296875 66 21.796875 66 
C 10.796875 66 4.09375 56.296875 4.09375 47.296875 
C 4.09375 43.390625 7 42.890625 8.203125 42.890625 
C 9.203125 42.890625 12.203125 43.484375 12.203125 46.984375 
C 12.203125 50.09375 9.59375 51 8.203125 51 
C 7.59375 51 7 50.890625 6.59375 50.6875 
C 8.5 59.1875 14.296875 63.390625 20.40625 63.390625 
C 29.09375 63.390625 34.796875 56.5 34.796875 47.390625 
C 34.796875 38.703125 29.703125 31.21875 24 24.734375 
L 4.09375 2.296875 
L 4.09375 0 
L 39.296875 0 
z
" id="CMR17-50"/>
       </defs>
       <use transform="scale(0.996264)" xlink:href="#CMR17-48"/>
       <use transform="translate(45.690477 0)scale(0.996264)" xlink:href="#CMMI12-58"/>
       <use transform="translate(72.787654 0)scale(0.996264)" xlink:href="#CMR17-50"/>
      </g>
     </g>
    </g>
    <g id="xtick_2">
     <g id="line2d_4">
      <path clip-path="url(#p749dc0165b)" d="M 189.454692 150.483882 
L 189.454692 7.788882 
" style="fill:none;stroke:#000000;stroke-dasharray:0.5,0.825;stroke-dashoffset:0;stroke-opacity:0.5;stroke-width:0.5;"/>
     </g>
     <g id="line2d_5">
      <g>
       <use style="stroke:#000000;stroke-width:0.5;" x="189.454692" xlink:href="#m28df54b1cb" y="150.483882"/>
      </g>
     </g>
     <g id="line2d_6">
      <g>
       <use style="stroke:#000000;stroke-width:0.5;" x="189.454692" xlink:href="#m1dbe5563fa" y="7.788882"/>
      </g>
     </g>
     <g id="text_2">
      <!-- $\mathdefault{0.4}$ -->
      <g transform="translate(179.482931 165.053471)scale(0.16 -0.16)">
       <defs>
        <path d="M 33.59375 64.796875 
C 33.59375 66.890625 33.5 67 31.703125 67 
L 2 19.59375 
L 2 17 
L 27.796875 17 
L 27.796875 7.1875 
C 27.796875 3.59375 27.59375 2.59375 20.59375 2.59375 
L 18.703125 2.59375 
L 18.703125 0 
C 21.90625 0.1875 27.296875 0.1875 30.703125 0.1875 
C 34.09375 0.1875 39.5 0.1875 42.703125 0 
L 42.703125 2.59375 
L 40.796875 2.59375 
C 33.796875 2.59375 33.59375 3.59375 33.59375 7.1875 
L 33.59375 17 
L 43.796875 17 
L 43.796875 19.59375 
L 33.59375 19.59375 
z
M 28.09375 58.171875 
L 28.09375 19.59375 
L 4 19.59375 
z
" id="CMR17-52"/>
       </defs>
       <use transform="scale(0.996264)" xlink:href="#CMR17-48"/>
       <use transform="translate(45.690477 0)scale(0.996264)" xlink:href="#CMMI12-58"/>
       <use transform="translate(72.787654 0)scale(0.996264)" xlink:href="#CMR17-52"/>
      </g>
     </g>
    </g>
    <g id="xtick_3">
     <g id="line2d_7">
      <defs>
       <path d="M 0 0 
L 0 -1.5 
" id="m49c0133775" style="stroke:#000000;stroke-width:0.5;"/>
      </defs>
      <g>
       <use style="stroke:#000000;stroke-width:0.5;" x="46.29957" xlink:href="#m49c0133775" y="150.483882"/>
      </g>
     </g>
     <g id="line2d_8">
      <defs>
       <path d="M 0 0 
L 0 1.5 
" id="m0bce83b99f" style="stroke:#000000;stroke-width:0.5;"/>
      </defs>
      <g>
       <use style="stroke:#000000;stroke-width:0.5;" x="46.29957" xlink:href="#m0bce83b99f" y="7.788882"/>
      </g>
     </g>
    </g>
    <g id="xtick_4">
     <g id="line2d_9">
      <g>
       <use style="stroke:#000000;stroke-width:0.5;" x="66.750302" xlink:href="#m49c0133775" y="150.483882"/>
      </g>
     </g>
     <g id="line2d_10">
      <g>
       <use style="stroke:#000000;stroke-width:0.5;" x="66.750302" xlink:href="#m0bce83b99f" y="7.788882"/>
      </g>
     </g>
    </g>
    <g id="xtick_5">
     <g id="line2d_11">
      <g>
       <use style="stroke:#000000;stroke-width:0.5;" x="87.201033" xlink:href="#m49c0133775" y="150.483882"/>
      </g>
     </g>
     <g id="line2d_12">
      <g>
       <use style="stroke:#000000;stroke-width:0.5;" x="87.201033" xlink:href="#m0bce83b99f" y="7.788882"/>
      </g>
     </g>
    </g>
    <g id="xtick_6">
     <g id="line2d_13">
      <g>
       <use style="stroke:#000000;stroke-width:0.5;" x="128.102497" xlink:href="#m49c0133775" y="150.483882"/>
      </g>
     </g>
     <g id="line2d_14">
      <g>
       <use style="stroke:#000000;stroke-width:0.5;" x="128.102497" xlink:href="#m0bce83b99f" y="7.788882"/>
      </g>
     </g>
    </g>
    <g id="xtick_7">
     <g id="line2d_15">
      <g>
       <use style="stroke:#000000;stroke-width:0.5;" x="148.553229" xlink:href="#m49c0133775" y="150.483882"/>
      </g>
     </g>
     <g id="line2d_16">
      <g>
       <use style="stroke:#000000;stroke-width:0.5;" x="148.553229" xlink:href="#m0bce83b99f" y="7.788882"/>
      </g>
     </g>
    </g>
    <g id="xtick_8">
     <g id="line2d_17">
      <g>
       <use style="stroke:#000000;stroke-width:0.5;" x="169.003961" xlink:href="#m49c0133775" y="150.483882"/>
      </g>
     </g>
     <g id="line2d_18">
      <g>
       <use style="stroke:#000000;stroke-width:0.5;" x="169.003961" xlink:href="#m0bce83b99f" y="7.788882"/>
      </g>
     </g>
    </g>
    <g id="xtick_9">
     <g id="line2d_19">
      <g>
       <use style="stroke:#000000;stroke-width:0.5;" x="209.905424" xlink:href="#m49c0133775" y="150.483882"/>
      </g>
     </g>
     <g id="line2d_20">
      <g>
       <use style="stroke:#000000;stroke-width:0.5;" x="209.905424" xlink:href="#m0bce83b99f" y="7.788882"/>
      </g>
     </g>
    </g>
   </g>
   <g id="matplotlib.axis_2">
    <g id="ytick_1">
     <g id="line2d_21">
      <path clip-path="url(#p749dc0165b)" d="M 33.073051 150.483882 
L 228.373051 150.483882 
" style="fill:none;stroke:#000000;stroke-dasharray:0.5,0.825;stroke-dashoffset:0;stroke-opacity:0.5;stroke-width:0.5;"/>
     </g>
     <g id="line2d_22">
      <defs>
       <path d="M 0 0 
L 3 0 
" id="m260952b220" style="stroke:#000000;stroke-width:0.5;"/>
      </defs>
      <g>
       <use style="stroke:#000000;stroke-width:0.5;" x="33.073051" xlink:href="#m260952b220" y="150.483882"/>
      </g>
     </g>
     <g id="line2d_23">
      <defs>
       <path d="M 0 0 
L -3 0 
" id="m5623321287" style="stroke:#000000;stroke-width:0.5;"/>
      </defs>
      <g>
       <use style="stroke:#000000;stroke-width:0.5;" x="228.373051" xlink:href="#m5623321287" y="150.483882"/>
      </g>
     </g>
     <g id="text_3">
      <!-- $\mathdefault{0}$ -->
      <g transform="translate(21.769064 156.018677)scale(0.16 -0.16)">
       <use transform="scale(0.996264)" xlink:href="#CMR17-48"/>
      </g>
     </g>
    </g>
    <g id="ytick_2">
     <g id="line2d_24">
      <path clip-path="url(#p749dc0165b)" d="M 33.073051 103.36752 
L 228.373051 103.36752 
" style="fill:none;stroke:#000000;stroke-dasharray:0.5,0.825;stroke-dashoffset:0;stroke-opacity:0.5;stroke-width:0.5;"/>
     </g>
     <g id="line2d_25">
      <g>
       <use style="stroke:#000000;stroke-width:0.5;" x="33.073051" xlink:href="#m260952b220" y="103.36752"/>
      </g>
     </g>
     <g id="line2d_26">
      <g>
       <use style="stroke:#000000;stroke-width:0.5;" x="228.373051" xlink:href="#m5623321287" y="103.36752"/>
      </g>
     </g>
     <g id="text_4">
      <!-- $\mathdefault{2}$ -->
      <g transform="translate(21.769064 108.902314)scale(0.16 -0.16)">
       <use transform="scale(0.996264)" xlink:href="#CMR17-50"/>
      </g>
     </g>
    </g>
    <g id="ytick_3">
     <g id="line2d_27">
      <path clip-path="url(#p749dc0165b)" d="M 33.073051 56.251157 
L 228.373051 56.251157 
" style="fill:none;stroke:#000000;stroke-dasharray:0.5,0.825;stroke-dashoffset:0;stroke-opacity:0.5;stroke-width:0.5;"/>
     </g>
     <g id="line2d_28">
      <g>
       <use style="stroke:#000000;stroke-width:0.5;" x="33.073051" xlink:href="#m260952b220" y="56.251157"/>
      </g>
     </g>
     <g id="line2d_29">
      <g>
       <use style="stroke:#000000;stroke-width:0.5;" x="228.373051" xlink:href="#m5623321287" y="56.251157"/>
      </g>
     </g>
     <g id="text_5">
      <!-- $\mathdefault{4}$ -->
      <g transform="translate(21.769064 61.785951)scale(0.16 -0.16)">
       <use transform="scale(0.996264)" xlink:href="#CMR17-52"/>
      </g>
     </g>
    </g>
    <g id="ytick_4">
     <g id="line2d_30">
      <path clip-path="url(#p749dc0165b)" d="M 33.073051 9.134794 
L 228.373051 9.134794 
" style="fill:none;stroke:#000000;stroke-dasharray:0.5,0.825;stroke-dashoffset:0;stroke-opacity:0.5;stroke-width:0.5;"/>
     </g>
     <g id="line2d_31">
      <g>
       <use style="stroke:#000000;stroke-width:0.5;" x="33.073051" xlink:href="#m260952b220" y="9.134794"/>
      </g>
     </g>
     <g id="line2d_32">
      <g>
       <use style="stroke:#000000;stroke-width:0.5;" x="228.373051" xlink:href="#m5623321287" y="9.134794"/>
      </g>
     </g>
     <g id="text_6">
      <!-- $\mathdefault{6}$ -->
      <g transform="translate(21.769064 14.669588)scale(0.16 -0.16)">
       <defs>
        <path d="M 10.59375 34.34375 
C 10.59375 58 21.796875 63.6875 28.296875 63.6875 
C 30.40625 63.6875 35.5 63.265625 37.5 59.09375 
C 35.90625 59.09375 32.90625 59.09375 32.90625 55.59375 
C 32.90625 52.890625 35.09375 52 36.5 52 
C 37.40625 52 40.09375 52.390625 40.09375 55.796875 
C 40.09375 62.296875 35.09375 66 28.203125 66 
C 16.296875 66 3.796875 53.296875 3.796875 31.421875 
C 3.796875 4.015625 15.09375 -2 23.09375 -2 
C 32.796875 -2 42 6.734375 42 20.234375 
C 42 32.828125 33.90625 42 23.703125 42 
C 17.59375 42 13.09375 37.96875 10.59375 30.921875 
z
M 23.09375 0.390625 
C 10.796875 0.390625 10.796875 18.9375 10.796875 22.65625 
C 10.796875 29.90625 14.203125 40.390625 23.5 40.390625 
C 25.203125 40.390625 30.09375 40.390625 33.40625 33.4375 
C 35.203125 29.515625 35.203125 25.375 35.203125 20.34375 
C 35.203125 14.90625 35.203125 10.875 33.09375 6.84375 
C 30.90625 2.703125 27.703125 0.390625 23.09375 0.390625 
z
" id="CMR17-54"/>
       </defs>
       <use transform="scale(0.996264)" xlink:href="#CMR17-54"/>
      </g>
     </g>
    </g>
    <g id="ytick_5">
     <g id="line2d_33">
      <defs>
       <path d="M 0 0 
L 1.5 0 
" id="m6fb3e13946" style="stroke:#000000;stroke-width:0.5;"/>
      </defs>
      <g>
       <use style="stroke:#000000;stroke-width:0.5;" x="33.073051" xlink:href="#m6fb3e13946" y="138.704792"/>
      </g>
     </g>
     <g id="line2d_34">
      <defs>
       <path d="M 0 0 
L -1.5 0 
" id="mf47a017af7" style="stroke:#000000;stroke-width:0.5;"/>
      </defs>
      <g>
       <use style="stroke:#000000;stroke-width:0.5;" x="228.373051" xlink:href="#mf47a017af7" y="138.704792"/>
      </g>
     </g>
    </g>
    <g id="ytick_6">
     <g id="line2d_35">
      <g>
       <use style="stroke:#000000;stroke-width:0.5;" x="33.073051" xlink:href="#m6fb3e13946" y="126.925701"/>
      </g>
     </g>
     <g id="line2d_36">
      <g>
       <use style="stroke:#000000;stroke-width:0.5;" x="228.373051" xlink:href="#mf47a017af7" y="126.925701"/>
      </g>
     </g>
    </g>
    <g id="ytick_7">
     <g id="line2d_37">
      <g>
       <use style="stroke:#000000;stroke-width:0.5;" x="33.073051" xlink:href="#m6fb3e13946" y="115.14661"/>
      </g>
     </g>
     <g id="line2d_38">
      <g>
       <use style="stroke:#000000;stroke-width:0.5;" x="228.373051" xlink:href="#mf47a017af7" y="115.14661"/>
      </g>
     </g>
    </g>
    <g id="ytick_8">
     <g id="line2d_39">
      <g>
       <use style="stroke:#000000;stroke-width:0.5;" x="33.073051" xlink:href="#m6fb3e13946" y="91.588429"/>
      </g>
     </g>
     <g id="line2d_40">
      <g>
       <use style="stroke:#000000;stroke-width:0.5;" x="228.373051" xlink:href="#mf47a017af7" y="91.588429"/>
      </g>
     </g>
    </g>
    <g id="ytick_9">
     <g id="line2d_41">
      <g>
       <use style="stroke:#000000;stroke-width:0.5;" x="33.073051" xlink:href="#m6fb3e13946" y="79.809338"/>
      </g>
     </g>
     <g id="line2d_42">
      <g>
       <use style="stroke:#000000;stroke-width:0.5;" x="228.373051" xlink:href="#mf47a017af7" y="79.809338"/>
      </g>
     </g>
    </g>
    <g id="ytick_10">
     <g id="line2d_43">
      <g>
       <use style="stroke:#000000;stroke-width:0.5;" x="33.073051" xlink:href="#m6fb3e13946" y="68.030248"/>
      </g>
     </g>
     <g id="line2d_44">
      <g>
       <use style="stroke:#000000;stroke-width:0.5;" x="228.373051" xlink:href="#mf47a017af7" y="68.030248"/>
      </g>
     </g>
    </g>
    <g id="ytick_11">
     <g id="line2d_45">
      <g>
       <use style="stroke:#000000;stroke-width:0.5;" x="33.073051" xlink:href="#m6fb3e13946" y="44.472066"/>
      </g>
     </g>
     <g id="line2d_46">
      <g>
       <use style="stroke:#000000;stroke-width:0.5;" x="228.373051" xlink:href="#mf47a017af7" y="44.472066"/>
      </g>
     </g>
    </g>
    <g id="ytick_12">
     <g id="line2d_47">
      <g>
       <use style="stroke:#000000;stroke-width:0.5;" x="33.073051" xlink:href="#m6fb3e13946" y="32.692976"/>
      </g>
     </g>
     <g id="line2d_48">
      <g>
       <use style="stroke:#000000;stroke-width:0.5;" x="228.373051" xlink:href="#mf47a017af7" y="32.692976"/>
      </g>
     </g>
    </g>
    <g id="ytick_13">
     <g id="line2d_49">
      <g>
       <use style="stroke:#000000;stroke-width:0.5;" x="33.073051" xlink:href="#m6fb3e13946" y="20.913885"/>
      </g>
     </g>
     <g id="line2d_50">
      <g>
       <use style="stroke:#000000;stroke-width:0.5;" x="228.373051" xlink:href="#mf47a017af7" y="20.913885"/>
      </g>
     </g>
    </g>
    <g id="text_7">
     <!-- Density -->
     <g transform="translate(14.669588 105.083263)rotate(-90)scale(0.16 -0.16)">
      <defs>
       <path d="M 5.203125 68 
L 5.203125 65.390625 
C 12.09375 65.390625 13.203125 65.390625 13.203125 60.90625 
L 13.203125 7.078125 
C 13.203125 2.59375 12.09375 2.59375 5.203125 2.59375 
L 5.203125 0 
L 37 0 
C 53.09375 0 66 14.734375 66 33.4375 
C 66 52.25 53.296875 68 37 68 
z
M 23.796875 2.59375 
C 19.796875 2.59375 19.59375 3.09375 19.59375 6.46875 
L 19.59375 61.5 
C 19.59375 64.890625 19.796875 65.390625 23.796875 65.390625 
L 35 65.390625 
C 43.296875 65.390625 58.59375 60.515625 58.59375 33.4375 
C 58.59375 19.40625 54.5 13.734375 52.59375 11.046875 
C 50.203125 7.96875 44.5 2.59375 35 2.59375 
z
" id="CMR17-68"/>
       <path d="M 38.09375 23.484375 
C 38.5 23.890625 38.5 24.09375 38.5 25.09375 
C 38.5 35.171875 33.09375 44 21.703125 44 
C 11.09375 44 2.703125 33.984375 2.703125 21.78125 
C 2.703125 8.65625 12.203125 -1 22.796875 -1 
C 34 -1 38.40625 9.671875 38.40625 11.796875 
C 38.40625 12.5 37.796875 12.5 37.59375 12.5 
C 36.90625 12.5 36.796875 12.296875 36.40625 11.078125 
C 34.203125 4.21875 28.703125 0.796875 23.5 0.796875 
C 19.203125 0.796875 14.90625 3.21875 12.203125 7.65625 
C 9.09375 12.796875 9.09375 18.75 9.09375 23.484375 
z
M 9.203125 25 
C 9.90625 39.234375 17.59375 42.390625 21.59375 42.390625 
C 28.40625 42.390625 33 36.0625 33.09375 25 
z
" id="CMR17-101"/>
       <path d="M 41.5 30.53125 
C 41.5 35.65625 40.5 44 28.703125 44 
C 20.796875 44 16.703125 37.875 15.203125 33.84375 
L 15.09375 33.84375 
L 15.09375 44 
L 3.296875 42.890625 
L 3.296875 40.28125 
C 9.203125 40.28125 10.09375 39.6875 10.09375 34.859375 
L 10.09375 6.921875 
C 10.09375 3.09375 9.703125 2.59375 3.296875 2.59375 
L 3.296875 0 
C 5.703125 0.1875 10.09375 0.1875 12.703125 0.1875 
C 15.296875 0.1875 19.796875 0.1875 22.203125 0 
L 22.203125 2.59375 
C 15.796875 2.59375 15.40625 3 15.40625 6.921875 
L 15.40625 26.21875 
C 15.40625 35.453125 21 42.390625 28 42.390625 
C 35.40625 42.390625 36.203125 35.765625 36.203125 30.9375 
L 36.203125 6.921875 
C 36.203125 3.09375 35.796875 2.59375 29.40625 2.59375 
L 29.40625 0 
C 31.796875 0.1875 36.203125 0.1875 38.796875 0.1875 
C 41.40625 0.1875 45.90625 0.1875 48.296875 0 
L 48.296875 2.59375 
C 41.90625 2.59375 41.5 3 41.5 6.921875 
z
" id="CMR17-110"/>
       <path d="M 30.90625 42 
C 30.90625 43.796875 30.796875 43.890625 30.203125 43.890625 
C 29.796875 43.890625 29.703125 43.796875 28.5 42.296875 
C 28.203125 41.890625 27.296875 40.890625 27 40.5 
C 23.796875 43.890625 19.296875 44 17.59375 44 
C 6.5 44 2.5 38.1875 2.5 32.390625 
C 2.5 23.390625 12.703125 21.296875 15.59375 20.6875 
C 21.90625 19.390625 24.09375 19 26.203125 17.1875 
C 27.5 16 29.703125 13.796875 29.703125 10.1875 
C 29.703125 6 27.296875 0.59375 18.09375 0.59375 
C 9.40625 0.59375 6.296875 7.1875 4.5 16 
C 4.203125 17.390625 4.203125 17.5 3.40625 17.5 
C 2.59375 17.5 2.5 17.390625 2.5 15.390625 
L 2.5 1 
C 2.5 -0.8125 2.59375 -0.90625 3.203125 -0.90625 
C 3.703125 -0.90625 3.796875 -0.8125 4.296875 0 
C 4.90625 0.890625 6.40625 3.296875 7 4.296875 
C 9 1.59375 12.5 -1 18.09375 -1 
C 28 -1 33.296875 4.390625 33.296875 12.1875 
C 33.296875 17.296875 30.59375 20 29.296875 21.1875 
C 26.296875 24.296875 22.796875 25 18.59375 25.796875 
C 13.09375 27 6.09375 28.390625 6.09375 34.5 
C 6.09375 37.09375 7.5 42.59375 17.59375 42.59375 
C 28.296875 42.59375 28.90625 32.59375 29.09375 29.390625 
C 29.203125 28.890625 29.703125 28.796875 30 28.796875 
C 30.90625 28.796875 30.90625 29.09375 30.90625 30.796875 
z
" id="CMR17-115"/>
       <path d="M 15.5 61.890625 
C 15.5 64.09375 13.703125 66 11.40625 66 
C 9.203125 66 7.296875 64.1875 7.296875 61.890625 
C 7.296875 59.6875 9.09375 57.796875 11.40625 57.796875 
C 13.59375 57.796875 15.5 59.59375 15.5 61.890625 
z
M 3.796875 42.890625 
L 3.796875 40.296875 
C 9.40625 40.296875 10.203125 39.6875 10.203125 34.859375 
L 10.203125 6.921875 
C 10.203125 3.09375 9.796875 2.59375 3.40625 2.59375 
L 3.40625 0 
C 5.796875 0.1875 10.09375 0.1875 12.59375 0.1875 
C 15 0.1875 19.09375 0.1875 21.40625 0 
L 21.40625 2.59375 
C 15.5 2.59375 15.296875 3.203125 15.296875 6.8125 
L 15.296875 44 
z
" id="CMR17-105"/>
       <path d="M 15.09375 40.390625 
L 29.09375 40.390625 
L 29.09375 43 
L 15.09375 43 
L 15.09375 62 
L 13.296875 62 
C 13.09375 51.4375 9.59375 42.1875 1.09375 41.984375 
L 1.09375 40.390625 
L 9.796875 40.390625 
L 9.796875 12.15625 
C 9.796875 10.234375 9.796875 -1 21.40625 -1 
C 27.296875 -1 30.703125 4.8125 30.703125 12.25 
L 30.703125 17.984375 
L 28.90625 17.984375 
L 28.90625 12.34375 
C 28.90625 5.421875 26.203125 0.796875 22 0.796875 
C 19.09375 0.796875 15.09375 2.796875 15.09375 11.953125 
z
" id="CMR17-116"/>
       <path d="M 39 34.109375 
C 41.5 40.296875 46 40.390625 47.40625 40.390625 
L 47.40625 43 
C 45.5 42.890625 43 42.796875 41.09375 42.796875 
C 39 42.796875 35.703125 42.796875 33.703125 43 
L 33.703125 40.390625 
C 37.5 40.09375 37.59375 37.25 37.59375 36.4375 
C 37.59375 35.4375 37.40625 34.921875 36.90625 33.71875 
L 26 6.390625 
L 14.09375 35.9375 
C 13.59375 37.15625 13.59375 37.859375 13.59375 37.96875 
C 13.59375 40.1875 15.90625 40.390625 18.296875 40.390625 
L 18.296875 43 
C 15.90625 42.796875 11.59375 42.796875 9.09375 42.796875 
C 6.40625 42.796875 3.203125 42.796875 1 43 
L 1 40.390625 
C 6.40625 40.390625 7 39.890625 8.296875 36.640625 
L 23.203125 -0.484375 
C 18.703125 -12.421875 16.09375 -19.40625 9.796875 -19.40625 
C 8.703125 -19.40625 6.203125 -19.109375 4.40625 -17.28125 
C 6.703125 -17.078125 7.703125 -15.65625 7.703125 -13.9375 
C 7.703125 -12.21875 6.5 -10.703125 4.5 -10.703125 
C 2.296875 -10.703125 1.203125 -12.21875 1.203125 -14.046875 
C 1.203125 -18.09375 5.296875 -21 9.796875 -21 
C 15.59375 -21 19.203125 -15.359375 21.203125 -10.296875 
z
" id="CMR17-121"/>
      </defs>
      <use transform="scale(0.996264)" xlink:href="#CMR17-68"/>
      <use transform="translate(70.393556 0)scale(0.996264)" xlink:href="#CMR17-101"/>
      <use transform="translate(110.879216 0)scale(0.996264)" xlink:href="#CMR17-110"/>
      <use transform="translate(161.774586 0)scale(0.996264)" xlink:href="#CMR17-115"/>
      <use transform="translate(197.575924 0)scale(0.996264)" xlink:href="#CMR17-105"/>
      <use transform="translate(222.446982 0)scale(0.996264)" xlink:href="#CMR17-116"/>
      <use transform="translate(255.125296 0)scale(0.996264)" xlink:href="#CMR17-121"/>
     </g>
    </g>
   </g>
   <g id="line2d_51">
    <path clip-path="url(#p749dc0165b)" d="M 135.46601 150.483882 
L 135.46601 7.788882 
" style="fill:none;stroke:#0c5da5;stroke-dasharray:19.2,4.8,3,4.8;stroke-dashoffset:0;stroke-width:3;"/>
   </g>
   <g id="patch_3">
    <path d="M 33.073051 150.483882 
L 33.073051 7.788882 
" style="fill:none;stroke:#000000;stroke-linecap:square;stroke-linejoin:miter;stroke-width:0.5;"/>
   </g>
   <g id="patch_4">
    <path d="M 228.373051 150.483882 
L 228.373051 7.788882 
" style="fill:none;stroke:#000000;stroke-linecap:square;stroke-linejoin:miter;stroke-width:0.5;"/>
   </g>
   <g id="patch_5">
    <path d="M 33.073051 150.483882 
L 228.373051 150.483882 
" style="fill:none;stroke:#000000;stroke-linecap:square;stroke-linejoin:miter;stroke-width:0.5;"/>
   </g>
   <g id="patch_6">
    <path d="M 33.073051 7.788882 
L 228.373051 7.788882 
" style="fill:none;stroke:#000000;stroke-linecap:square;stroke-linejoin:miter;stroke-width:0.5;"/>
   </g>
  </g>
 </g>
 <defs>
  <clipPath id="p749dc0165b">
   <rect height="142.695" width="195.3" x="33.073051" y="7.788882"/>
  </clipPath>
 </defs>
</svg>
