<?xml version="1.0" encoding="utf-8" standalone="no"?>
<!DOCTYPE svg PUBLIC "-//W3C//DTD SVG 1.1//EN"
  "http://www.w3.org/Graphics/SVG/1.1/DTD/svg11.dtd">
<!-- Created with matplotlib (https://matplotlib.org/) -->
<svg height="504pt" version="1.1" viewBox="0 0 1152 504" width="1152pt" xmlns="http://www.w3.org/2000/svg" xmlns:xlink="http://www.w3.org/1999/xlink">
 <metadata>
  <rdf:RDF xmlns:cc="http://creativecommons.org/ns#" xmlns:dc="http://purl.org/dc/elements/1.1/" xmlns:rdf="http://www.w3.org/1999/02/22-rdf-syntax-ns#">
   <cc:Work>
    <dc:type rdf:resource="http://purl.org/dc/dcmitype/StillImage"/>
    <dc:date>2020-12-26T18:59:21.988742</dc:date>
    <dc:format>image/svg+xml</dc:format>
    <dc:creator>
     <cc:Agent>
      <dc:title>Matplotlib v3.3.0, https://matplotlib.org/</dc:title>
     </cc:Agent>
    </dc:creator>
   </cc:Work>
  </rdf:RDF>
 </metadata>
 <defs>
  <style type="text/css">*{stroke-linecap:butt;stroke-linejoin:round;}</style>
 </defs>
 <g id="figure_1">
  <g id="patch_1">
   <path d="M 0 504 
L 1152 504 
L 1152 0 
L 0 0 
z
" style="fill:none;"/>
  </g>
  <g id="axes_1">
   <g id="patch_2">
    <path d="M 144 441 
L 852.082759 441 
L 852.082759 60.48 
L 144 60.48 
z
" style="fill:#ffffff;"/>
   </g>
   <g id="line2d_1">
    <path clip-path="url(#pa70c5ebe15)" d="M 144 318.808702 
L 852.082759 318.808702 
" style="fill:none;stroke:#808080;stroke-dasharray:5.18,2.24;stroke-dashoffset:0;stroke-width:1.4;"/>
   </g>
   <g id="line2d_2">
    <path clip-path="url(#pa70c5ebe15)" d="M 144 239.107165 
L 852.082759 239.107165 
" style="fill:none;stroke:#808080;stroke-dasharray:5.18,2.24;stroke-dashoffset:0;stroke-width:1.4;"/>
   </g>
   <g id="line2d_3">
    <path clip-path="url(#pa70c5ebe15)" d="M 144 380.828331 
L 852.082759 380.828331 
" style="fill:none;stroke:#808080;stroke-dasharray:5.18,2.24;stroke-dashoffset:0;stroke-width:1.4;"/>
   </g>
   <g id="matplotlib.axis_1">
    <g id="xtick_1">
     <g id="line2d_4">
      <defs>
       <path d="M 0 0 
L 0 6 
" id="m5858aaa7f8" style="stroke:#262626;stroke-width:0.8;"/>
      </defs>
      <g>
       <use style="fill:#262626;stroke:#262626;stroke-width:0.8;" x="214.808276" xlink:href="#m5858aaa7f8" y="441"/>
      </g>
     </g>
     <g id="text_1">
      <!-- 10 -->
      <g style="fill:#262626;" transform="translate(206.803093 464.401174)scale(0.1728 -0.1728)">
       <defs>
        <path d="M 32.59375 19.1875 
L 32.59375 44.59375 
C 32.59375 55.296875 33.203125 59.15625 33.40625 60.515625 
C 33.40625 61 33.09375 61 32.703125 61 
C 26.203125 58.96875 18.59375 55.203125 10.796875 52.890625 
L 11.40625 50 
C 15.90625 50.5 20.796875 51.59375 22.796875 51.59375 
C 24.59375 51.59375 24.59375 47.59375 24.59375 44 
L 24.59375 19.1875 
C 24.59375 11.390625 24.5 6 23.796875 0.296875 
L 23.90625 0 
C 23.90625 0 26.703125 0.296875 28.5 0.296875 
C 30.5 0.296875 33.296875 0 33.296875 0 
L 33.5 0.296875 
C 32.796875 6.296875 32.59375 11.296875 32.59375 19.1875 
z
" id="Linux_Biolinum_T-49"/>
        <path d="M 23.296875 57.09375 
C 25 57.09375 26.59375 56.5 27.703125 55.5 
C 30.796875 52.890625 33.5 45.09375 33.5 31.6875 
C 33.5 22.5 33.203125 17.296875 31.796875 12.1875 
C 29.59375 3.890625 24.703125 2.890625 22.90625 2.890625 
C 13.59375 2.890625 12.5 20 12.5 28.6875 
C 12.5 53.390625 18.703125 57.09375 23.296875 57.09375 
z
M 22.796875 -1 
C 30.5 -1 42.09375 7.5 42.09375 30.890625 
C 42.09375 46.5 36.40625 54.203125 32.796875 57.484375 
C 30.09375 59.984375 26.90625 61 23.296875 61 
C 13.296875 61 3.90625 48.59375 3.90625 28.890625 
C 3.90625 12.6875 10.40625 -1 22.796875 -1 
z
" id="Linux_Biolinum_T-48"/>
       </defs>
       <use transform="scale(0.996264)" xlink:href="#Linux_Biolinum_T-49"/>
       <use transform="translate(46.326292 0)scale(0.996264)" xlink:href="#Linux_Biolinum_T-48"/>
      </g>
     </g>
    </g>
    <g id="xtick_2">
     <g id="line2d_5">
      <g>
       <use style="fill:#262626;stroke:#262626;stroke-width:0.8;" x="356.424828" xlink:href="#m5858aaa7f8" y="441"/>
      </g>
     </g>
     <g id="text_2">
      <!-- 15 -->
      <g style="fill:#262626;" transform="translate(348.419645 464.401174)scale(0.1728 -0.1728)">
       <defs>
        <path d="M 20.203125 -1 
C 32.09375 -1 40.59375 7.796875 40.59375 19.59375 
C 40.59375 29.296875 34.09375 38 22.90625 38 
C 18.796875 38 14.203125 37.296875 12 36.5 
L 14.09375 54.1875 
C 17.796875 53.6875 22.09375 53.296875 26.796875 53.296875 
C 29.796875 53.296875 33.203125 53.390625 37.296875 53.890625 
L 38.90625 60.6875 
L 38.203125 61 
C 32.5 60.296875 27.09375 60 21.796875 60 
C 18.09375 60 13.796875 60.296875 10.40625 60.59375 
L 7.203125 31.15625 
L 7.90625 30.890625 
C 11.90625 32.5 15.640625 34 20.296875 34 
C 26.796875 34 31.796875 28.796875 31.796875 17.890625 
C 31.796875 8.6875 27.203125 3 20.40625 3 
C 12.90625 3 11.59375 7 8.296875 13 
L 6.90625 12.890625 
L 4.703125 4.890625 
L 5.09375 4.59375 
C 7.59375 2.390625 12.59375 -1 20.203125 -1 
z
" id="Linux_Biolinum_T-53"/>
       </defs>
       <use transform="scale(0.996264)" xlink:href="#Linux_Biolinum_T-49"/>
       <use transform="translate(46.326292 0)scale(0.996264)" xlink:href="#Linux_Biolinum_T-53"/>
      </g>
     </g>
    </g>
    <g id="xtick_3">
     <g id="line2d_6">
      <g>
       <use style="fill:#262626;stroke:#262626;stroke-width:0.8;" x="498.041379" xlink:href="#m5858aaa7f8" y="441"/>
      </g>
     </g>
     <g id="text_3">
      <!-- 20 -->
      <g style="fill:#262626;" transform="translate(490.036197 464.401174)scale(0.1728 -0.1728)">
       <defs>
        <path d="M 22.203125 55.296875 
C 27.4375 55.296875 32.78125 50.546875 32.78125 43.578125 
C 32.78125 39.390625 31.578125 34.0625 28.984375 30.15625 
C 21.796875 19.421875 10.359375 9.375 5.4375 4.6875 
C 5.3125 4.3125 5.265625 3.890625 5.265625 3.4375 
C 5.265625 1.9375 5.765625 0.359375 6.28125 -0.515625 
C 13.65625 -0.3125 17.90625 0 25.203125 0 
C 32.40625 0 35.4375 -0.203125 42.578125 -0.515625 
C 42.421875 0.53125 42.265625 1.71875 42.265625 2.796875 
C 42.265625 4.40625 42.375 5.96875 42.765625 7.5 
C 37.125 7 34.0625 6.6875 24.453125 6.6875 
C 20.953125 6.6875 19.046875 6.6875 16.296875 6.5 
C 16.21875 6.65625 16.1875 6.796875 16.1875 7 
C 16.1875 7.9375 17.203125 9 17.9375 9.703125 
C 22.796875 14.40625 27.5 18.921875 34.125 27.84375 
C 37.796875 32.84375 41.375 39.28125 41.375 44.953125 
C 41.375 54.359375 35 61 23.84375 61 
C 14.734375 61 8.90625 55.890625 6.625 52.921875 
L 8.78125 46.09375 
L 10.09375 45.984375 
C 11.484375 48.953125 11.953125 51.015625 14.5 53.015625 
C 16.5 54.59375 19.40625 55.296875 22.203125 55.296875 
z
" id="Linux_Biolinum_T-50"/>
       </defs>
       <use transform="scale(0.996264)" xlink:href="#Linux_Biolinum_T-50"/>
       <use transform="translate(46.326292 0)scale(0.996264)" xlink:href="#Linux_Biolinum_T-48"/>
      </g>
     </g>
    </g>
    <g id="xtick_4">
     <g id="line2d_7">
      <g>
       <use style="fill:#262626;stroke:#262626;stroke-width:0.8;" x="639.657931" xlink:href="#m5858aaa7f8" y="441"/>
      </g>
     </g>
     <g id="text_4">
      <!-- 25 -->
      <g style="fill:#262626;" transform="translate(631.652748 464.401174)scale(0.1728 -0.1728)">
       <use transform="scale(0.996264)" xlink:href="#Linux_Biolinum_T-50"/>
       <use transform="translate(46.326292 0)scale(0.996264)" xlink:href="#Linux_Biolinum_T-53"/>
      </g>
     </g>
    </g>
    <g id="xtick_5">
     <g id="line2d_8">
      <g>
       <use style="fill:#262626;stroke:#262626;stroke-width:0.8;" x="781.274483" xlink:href="#m5858aaa7f8" y="441"/>
      </g>
     </g>
     <g id="text_5">
      <!-- 30 -->
      <g style="fill:#262626;" transform="translate(773.2693 464.401174)scale(0.1728 -0.1728)">
       <defs>
        <path d="M 20.90625 2.890625 
C 13 2.890625 11.90625 5.890625 9.203125 11.6875 
L 7.703125 11.59375 
L 5.5 4.09375 
L 5.796875 3.796875 
C 8.40625 1.59375 12.703125 -1 20.703125 -1 
C 29.203125 -1 42.59375 4.796875 42.59375 18 
C 42.59375 25.890625 36.5 31.5 28.796875 32.1875 
L 28.796875 32.6875 
C 34 33.890625 40.59375 39.6875 40.59375 47.984375 
C 40.59375 55.1875 34.40625 61 24.5 61 
C 16.796875 61 11.203125 57.59375 8.703125 55.390625 
L 8.40625 55.09375 
L 10.5 48.6875 
L 12 48.59375 
C 14.40625 54.1875 17.59375 57.09375 23.59375 57.09375 
C 27.5 57.09375 31.90625 52.984375 31.90625 46.484375 
C 31.90625 42.09375 30.40625 38.890625 28.09375 36.6875 
C 26.09375 34.796875 23.203125 33.890625 19.796875 33.890625 
C 18.59375 33.890625 17.5 34 16.09375 34.1875 
L 16.09375 29.796875 
C 17.296875 30 19.40625 30 20.296875 30 
C 23.5 30 27.296875 29.09375 30.09375 26.796875 
C 32.703125 24.59375 34 21.09375 34 17.1875 
C 34 5.09375 24.5 2.890625 20.90625 2.890625 
z
" id="Linux_Biolinum_T-51"/>
       </defs>
       <use transform="scale(0.996264)" xlink:href="#Linux_Biolinum_T-51"/>
       <use transform="translate(46.326292 0)scale(0.996264)" xlink:href="#Linux_Biolinum_T-48"/>
      </g>
     </g>
    </g>
    <g id="text_6">
     <!-- Number of points for sampling -->
     <g style="fill:#262626;" transform="translate(390.58793 484.005089)scale(0.17 -0.17)">
      <defs>
       <path d="M 10.796875 64.703125 
C 11.703125 45.71875 11.40625 16.171875 9.796875 0.296875 
L 10 0 
C 11.203125 0.1875 12.296875 0.296875 13.5 0.296875 
C 14.703125 0.296875 15.796875 0.1875 17 0 
L 17.203125 0.296875 
C 16.40625 5.984375 16.203125 12.78125 16.203125 20.265625 
L 16.203125 44.125 
C 16.203125 50.21875 16.40625 50.515625 20.09375 45.71875 
L 55 1.6875 
C 56.09375 0.1875 57.703125 -0.703125 59.296875 -0.703125 
C 60.703125 -0.703125 61.09375 0.484375 61.203125 2.390625 
C 61.703125 25.15625 61.59375 42.53125 63.203125 64.703125 
L 63 65 
C 61.796875 64.796875 60.703125 64.703125 59.5 64.703125 
C 58.296875 64.703125 57.203125 64.796875 56 65 
L 55.796875 64.703125 
C 56.59375 59 56.796875 52.234375 56.796875 44.734375 
L 56.796875 18.0625 
C 56.65625 12.640625 55.21875 14.953125 50.90625 20.5625 
L 16.59375 64.890625 
C 16.59375 64.890625 15.65625 64.703125 15.203125 64.703125 
C 11.796875 64.703125 11 65 11 65 
z
" id="Linux_Biolinum_T-78"/>
       <path d="M 36.5 9.375 
L 36.90625 9.09375 
L 37.40625 0.28125 
C 37.40625 0.09375 37.515625 0 37.796875 0 
C 39.125 0.171875 40.296875 0.28125 41.765625 0.28125 
C 43 0.28125 44.90625 0.1875 46.203125 0 
L 46.40625 0.28125 
C 45.59375 4.546875 44.703125 11.859375 44.703125 19.265625 
L 44.703125 24.90625 
C 44.703125 32.3125 44.796875 37.453125 45.59375 42.6875 
L 45.40625 43 
C 44.203125 42.796875 41.90625 42.6875 40.703125 42.6875 
C 39.5 42.6875 37.203125 42.796875 36 43 
L 35.796875 42.6875 
C 36.578125 37.046875 36.703125 32.40625 36.703125 24.90625 
L 36.703125 15.21875 
C 33.65625 9.921875 27.90625 4.59375 23 4.59375 
C 19.5625 4.59375 16.296875 5.6875 16.296875 14.9375 
L 16.296875 24.78125 
C 16.296875 32.25 16.40625 37.421875 17.203125 42.703125 
L 17 43 
C 15.796875 42.796875 13.5 42.703125 12.296875 42.703125 
C 11.09375 42.703125 8.796875 42.796875 7.59375 43 
L 7.40625 42.703125 
C 8.203125 37.03125 8.296875 32.34375 8.296875 24.78125 
L 8.296875 12.84375 
C 8.296875 5.984375 11.5 -1 21.40625 -1 
C 27.59375 -1 33.203125 4.09375 36.5 9.171875 
z
" id="Linux_Biolinum_T-117"/>
       <path d="M 16.203125 35.3125 
L 16.203125 42.59375 
C 16.203125 43.375 16.078125 43.59375 15.59375 43.59375 
C 13.359375 43.15625 9.78125 43.078125 7.5 43.296875 
L 7.296875 42.984375 
C 8 38.671875 8.203125 31.125 8.203125 23.671875 
L 8.203125 18.203125 
C 8.203125 10.734375 8.09375 5.65625 7.296875 0.296875 
L 7.5 0 
C 8.703125 0.1875 11 0.296875 12.203125 0.296875 
C 13.40625 0.296875 15.703125 0.1875 16.90625 0 
L 17.09375 0.296875 
C 16.296875 5.953125 16.203125 10.640625 16.203125 18.203125 
L 16.203125 30.234375 
C 20.90625 35 26.5 37.984375 30 37.984375 
C 33.796875 37.984375 36.59375 35.796875 36.59375 29.140625 
L 36.59375 18.203125 
C 36.59375 10.734375 36.5 5.65625 35.703125 0.296875 
L 35.90625 0 
C 37.09375 0.1875 39.40625 0.296875 40.59375 0.296875 
C 41.796875 0.296875 44.09375 0.1875 45.296875 0 
L 45.5 0.296875 
C 44.703125 5.953125 44.59375 10.640625 44.59375 18.203125 
L 44.59375 28.25 
C 44.59375 29.640625 44.59375 30.828125 44.5 32.015625 
C 49.296875 37.296875 53.296875 37.984375 57.203125 37.984375 
C 62.59375 37.984375 65.203125 35.796875 65.203125 29.140625 
L 65.203125 18.203125 
C 65.203125 10.734375 65.09375 5.65625 64.296875 0.296875 
L 64.5 0 
C 65.703125 0.1875 68 0.296875 69.203125 0.296875 
C 70.40625 0.296875 72.703125 0.1875 73.90625 0 
L 74.09375 0.296875 
C 73.296875 5.953125 73.203125 10.640625 73.203125 18.203125 
L 73.203125 28.140625 
C 73.203125 37 71.59375 44 60.796875 44 
C 55.40625 44 49.59375 42.09375 43.90625 36.09375 
C 43 40.890625 38.90625 44 33.296875 44 
C 27.09375 44 21.203125 39.984375 16.5 35 
z
" id="Linux_Biolinum_T-109"/>
       <path d="M 16.203125 8.109375 
L 16.203125 34.078125 
C 20.09375 38.078125 22.59375 39.984375 26.703125 39.984375 
C 32.796875 39.984375 38.203125 34.953125 38.203125 22.4375 
C 38.203125 10.015625 34.5 3 25 3 
C 21.90625 3 18.203125 5.59375 16.203125 8.109375 
z
M 16.203125 50.109375 
C 16.203125 57.546875 16.3125 62.84375 16.796875 68.984375 
C 16.796875 69.6875 16.515625 70 15.90625 70 
C 13.40625 68.984375 11.265625 68.28125 7.203125 67.984375 
L 7 67.6875 
C 7.78125 63.390625 8.203125 55.9375 8.203125 48.3125 
L 8.203125 7.296875 
C 8.203125 3.390625 8.125 1.96875 7.703125 -0.203125 
C 8.296875 -0.8125 9.453125 -1 10.5 -1 
C 11.59375 0.1875 12.765625 1.890625 13.796875 3.890625 
C 16.703125 1.390625 21.296875 -1 25.59375 -1 
C 35.796875 -1 47.09375 6.203125 47.09375 23.25 
C 47.09375 35.484375 38.40625 44 28.703125 44 
C 23.90625 44 19.59375 42.6875 16.203125 38.984375 
z
" id="Linux_Biolinum_T-98"/>
       <path d="M 12.5 27 
C 14.203125 37.71875 20.765625 39.984375 23.90625 39.984375 
C 27.859375 39.984375 32.296875 36.171875 32.296875 28.4375 
C 32.296875 27.515625 31.90625 27 30.90625 27 
z
M 39.203125 10.296875 
C 35.703125 6.5625 31 4.890625 25.5 4.890625 
C 22.078125 4.890625 17.359375 6.171875 14.59375 10.5 
C 12.84375 13.25 12.203125 17.265625 12.203125 23 
L 39.40625 23 
C 40.5 23 41.203125 23.59375 41.203125 24.6875 
C 41.203125 33.28125 37.09375 44 23.90625 44 
C 13.59375 44 3.40625 35.5625 3.40625 20.625 
C 3.40625 15.046875 4.5625 9.53125 7.90625 5.578125 
C 11.34375 1.453125 17.0625 -1 23.796875 -1 
C 31 -1 37.40625 2.6875 41.203125 7.84375 
z
" id="Linux_Biolinum_T-101"/>
       <path d="M 16.703125 33.515625 
L 16.703125 42.59375 
C 16.703125 43.375 16.578125 43.59375 16.09375 43.59375 
C 13.859375 43.15625 10.28125 43.078125 8 43.296875 
L 7.796875 42.984375 
C 8.5 38.671875 8.703125 31.125 8.703125 23.65625 
L 8.703125 18.1875 
C 8.703125 10.734375 8.578125 5.640625 7.796875 0.296875 
L 8 0 
C 9.203125 0.1875 11.5 0.296875 12.703125 0.296875 
C 13.90625 0.296875 16.203125 0.1875 17.40625 0 
L 17.59375 0.296875 
C 16.859375 5.953125 16.703125 10.640625 16.703125 18.1875 
L 16.703125 23.359375 
C 16.703125 27.546875 17.953125 29.921875 20.09375 33.203125 
C 21.5625 35.421875 23.796875 36.6875 25.703125 36.6875 
C 27.703125 36.6875 29.59375 36.5 30.90625 35.296875 
L 31.703125 35.5 
L 33.703125 42.890625 
L 33.296875 43.296875 
C 31.59375 43.796875 31.5 44 29.703125 44 
C 24.296875 44 21.40625 40.890625 17 33.3125 
z
" id="Linux_Biolinum_T-114"/>
       <path d="M 3.796875 20.53125 
C 3.796875 8.5 11.703125 -1 25 -1 
C 38.203125 -1 46.203125 8.3125 46.203125 21.4375 
C 46.203125 35.078125 38.90625 44 25.40625 44 
C 12.296875 44 3.796875 34.78125 3.796875 20.53125 
z
M 24.703125 39.984375 
C 35.296875 39.984375 37.40625 31.765625 37.40625 19.640625 
C 37.40625 10.109375 32.59375 3 25.90625 3 
C 15.296875 3 12.59375 14.515625 12.59375 22.25 
C 12.59375 30.96875 15.296875 39.984375 24.703125 39.984375 
z
" id="Linux_Biolinum_T-111"/>
       <path d="M 9.90625 43 
C 7.71875 43 5.421875 43.015625 4.09375 43.1875 
C 3.421875 41.578125 2.875 40.59375 1.90625 39.09375 
L 2.40625 38.390625 
C 4.203125 38.515625 7.5 38.59375 9.796875 38.59375 
L 9.90625 38.59375 
L 9.90625 20.09375 
C 9.90625 12.625 9.765625 5.625 8.90625 0.296875 
L 9.09375 0 
C 10.296875 0.1875 12.703125 0.296875 13.90625 0.296875 
C 15.09375 0.296875 17.5 0.1875 18.703125 0 
L 18.90625 0.296875 
C 18.0625 5.96875 17.90625 12.625 17.90625 20.09375 
L 17.90625 38.59375 
L 21.296875 38.59375 
C 23.703125 38.59375 27.1875 38.515625 28.5 38.390625 
C 28.796875 39.984375 29.09375 41.015625 29.703125 42.484375 
L 29.203125 43.1875 
C 27.515625 43.109375 24.5 43 22.203125 43 
L 17.90625 43 
L 17.90625 43.875 
C 17.90625 47.421875 17.40625 52.53125 17.40625 54.296875 
C 17.40625 59.71875 20.984375 63.890625 26.703125 63.890625 
C 29.28125 63.890625 31.40625 62.21875 32.5 60 
L 33.59375 60.109375 
C 34.296875 63.109375 35.375 66.578125 36.40625 68.6875 
L 36.296875 68.984375 
C 35.5 69.484375 33.703125 70 31.796875 70 
C 25.5 70 19.1875 67.078125 15.40625 62.109375 
C 11.59375 57.140625 9.90625 52.53125 9.90625 46.828125 
z
" id="Linux_Biolinum_T-102"/>
       <path d="M 16.203125 29.46875 
C 18.40625 34.78125 24.296875 39.390625 28.203125 39.390625 
C 35 39.390625 38.5 33.171875 38.5 21.84375 
C 38.5 13.625 36.203125 3 25.5 3 
C 23.90625 3 19.703125 3.390625 16.203125 7.5 
z
M 16.203125 35.28125 
L 16.203125 42.59375 
C 16.203125 43.375 16.078125 43.59375 15.59375 43.59375 
C 13.359375 43.15625 9.78125 43.078125 7.5 43.296875 
L 7.296875 42.984375 
C 8 38.671875 8.203125 31.078125 8.203125 23.546875 
L 8.203125 -3.25 
C 8.203125 -10.859375 8.015625 -18.203125 7.296875 -23.703125 
L 7.5 -24 
C 8.703125 -23.796875 11 -23.703125 12.203125 -23.703125 
C 13.40625 -23.703125 15.703125 -23.796875 16.90625 -24 
L 17.09375 -23.703125 
C 16.375 -17.875 16.203125 -10.9375 16.203125 -3.25 
L 16.203125 1.1875 
C 18.796875 -0.203125 22.5 -1 26.09375 -1 
C 39.296875 -1 47.296875 9.015625 47.296875 23.15625 
C 47.296875 33.78125 41.09375 44 29.90625 44 
C 26 44 21 41.984375 16.40625 34.984375 
z
" id="Linux_Biolinum_T-112"/>
       <path d="M 8 59.890625 
C 8 57.1875 10.40625 54.796875 13.09375 54.796875 
C 15.796875 54.796875 18.203125 57.1875 18.203125 59.890625 
C 18.203125 62.59375 15.796875 65 13.09375 65 
C 10.40625 65 8 62.59375 8 59.890625 
z
M 9 23.46875 
L 9 18.046875 
C 9 10.640625 8.8125 5.609375 8.09375 0.28125 
L 8.296875 0 
C 9.5 0.1875 11.796875 0.28125 13 0.28125 
C 14.203125 0.28125 16.5 0.1875 17.703125 0 
L 17.90625 0.28125 
C 17.1875 5.890625 17 10.546875 17 18.046875 
L 17 25.046875 
C 17 32.4375 17.265625 35.984375 17.90625 42 
C 17.90625 42.890625 17.78125 43 17 43 
C 14.71875 42.765625 10.421875 42.71875 8.296875 42.890625 
L 8.09375 42.59375 
C 8.71875 38.375 9 30.859375 9 23.46875 
z
" id="Linux_Biolinum_T-105"/>
       <path d="M 46 18.203125 
C 46 21.375 46.203125 25.0625 46.203125 28.25 
C 46.203125 38.59375 42.796875 44 33.796875 44 
C 30 44 22.90625 42.484375 16.5 35 
L 16.296875 35.3125 
L 16.296875 42.59375 
C 16.28125 43.375 16.1875 43.59375 15.703125 43.59375 
C 13.453125 43.15625 9.875 43.078125 7.59375 43.296875 
L 7.40625 42.984375 
C 8.09375 38.671875 8.296875 31.125 8.296875 23.671875 
L 8.296875 18.203125 
C 8.296875 10.734375 8.203125 5.65625 7.40625 0.296875 
L 7.59375 0 
C 8.796875 0.1875 11.09375 0.296875 12.296875 0.296875 
C 13.5 0.296875 15.796875 0.1875 17 0 
L 17.203125 0.296875 
C 16.40625 5.953125 16.296875 10.640625 16.296875 18.203125 
L 16.296875 29.828125 
C 21.40625 35.796875 27.203125 37.984375 30.796875 37.984375 
C 35.90625 37.984375 38 36 38 27.9375 
L 38 18.203125 
C 38 10.734375 37.8125 5.640625 37.09375 0.296875 
L 37.296875 0 
C 38.5 0.1875 40.796875 0.296875 42 0.296875 
C 43.203125 0.296875 45.5 0.1875 46.703125 0 
L 46.90625 0.296875 
C 46.125 5.953125 46 10.640625 46 18.203125 
z
" id="Linux_Biolinum_T-110"/>
       <path d="M 9.5 43 
C 7.453125 43 5.34375 43.03125 4.09375 43.1875 
C 3.421875 41.546875 2.875 40.59375 1.90625 39.09375 
L 2.40625 38.390625 
C 4.125 38.515625 7.21875 38.578125 9.5 38.59375 
L 9.5 24.78125 
C 9.5 18.734375 9.203125 11.484375 9.203125 8.453125 
C 9.203125 1.953125 13.40625 -1 18 -1 
C 22.203125 -1 25.40625 -0.046875 29.59375 2.53125 
L 28.375 5 
C 25.296875 3.9375 23 3.828125 20.5 4.234375 
C 18.125 4.609375 17.203125 7.03125 17.203125 12.484375 
C 17.203125 15.515625 17.5 19.84375 17.5 25.890625 
L 17.5 38.59375 
L 21.296875 38.59375 
C 23.703125 38.59375 27.1875 38.515625 28.5 38.390625 
C 28.796875 39.984375 29.09375 41.015625 29.703125 42.484375 
L 29.203125 43.1875 
C 27.40625 43.109375 24.5 43 22.203125 43 
L 17.5 43 
C 17.5 50.46875 17.5625 51.796875 18 57.59375 
C 18 58.3125 17.71875 58.59375 17.09375 58.59375 
C 14.59375 57.59375 13.359375 56.53125 10.09375 56.09375 
L 9.90625 55.796875 
C 9.703125 52.3125 9.5 48.796875 9.5 43 
z
" id="Linux_Biolinum_T-116"/>
       <path d="M 5 10.109375 
L 3.296875 1.6875 
C 9 -0.3125 14.59375 -1 18.40625 -1 
C 32.203125 -1 35.40625 7.203125 35.40625 12.71875 
C 35.40625 20.9375 28.90625 24.15625 21.796875 25.859375 
C 18.015625 26.75 12.5 28.65625 12.5 33.671875 
C 12.5 37.78125 15.796875 39.984375 20.09375 39.984375 
C 25.296875 39.984375 28.5 35.875 30.796875 33.171875 
L 32.203125 33.265625 
L 34.203125 40.6875 
L 34 40.984375 
C 31.09375 42.484375 25.59375 44 20.5 44 
C 13.09375 44 5.40625 40.09375 5.40625 31.765625 
C 5.40625 23.75 11.375 21.09375 17.40625 19.4375 
C 23.203125 17.828125 27.5 16.234375 27.5 11.3125 
C 27.5 6 23.59375 3 18.296875 3 
C 13.5 3 9.296875 6.296875 6.5 10.21875 
z
" id="Linux_Biolinum_T-115"/>
       <path d="M 31 22.546875 
L 30.59375 10.609375 
C 30.59375 9.3125 30 8.609375 29.203125 8 
C 26.40625 5.890625 23 4.09375 20 4.09375 
C 15.5 4.09375 12.59375 7.09375 12.59375 10.203125 
C 12.59375 14.71875 14.703125 18.125 22.5 20.234375 
z
M 31 4.796875 
C 32.15625 0.890625 35.140625 -1 38.796875 -1 
C 41.3125 -1 44.40625 -0.40625 46.765625 2.09375 
L 46.015625 4.578125 
C 44.921875 4.1875 44.078125 4.046875 43.3125 4.046875 
C 42.3125 4.046875 41 4.234375 40.375 4.796875 
C 39.359375 5.71875 38.71875 8.15625 38.71875 12.609375 
C 38.71875 15.53125 39 26.65625 39 27.765625 
C 39 41.296875 30.09375 44 22.5 44 
C 14.90625 44 10.296875 40.296875 7.796875 38.1875 
L 7.5 37.78125 
L 9.203125 31.0625 
L 10.5 30.96875 
C 13.296875 35.484375 16.703125 39.484375 21.5 39.484375 
C 25.09375 39.484375 31.09375 38.984375 31.09375 27.65625 
C 31.09375 26.953125 30.703125 26.5625 30.40625 26.453125 
L 21.09375 24.34375 
C 10.90625 22.046875 4.5 16.625 4.5 9.8125 
C 4.5 2.390625 9.59375 -1 17 -1 
C 22.5 -1 25.296875 0.296875 30.59375 4.796875 
z
" id="Linux_Biolinum_T-97"/>
       <path d="M 9 20.265625 
C 9 12.828125 8.859375 5.640625 8.09375 0.296875 
L 8.296875 0 
C 9.5 0.1875 11.796875 0.296875 13 0.296875 
C 14.203125 0.296875 16.5 0.1875 17.703125 0 
L 17.90625 0.296875 
C 17.125 5.984375 17 12.75 17 20.265625 
L 17 50.21875 
C 17 57.703125 17.421875 62.6875 17.90625 68.984375 
C 17.90625 69.6875 17.625 70 17 70 
C 14.5 68.984375 12.359375 68.296875 8.296875 68 
L 8.09375 67.6875 
C 8.875 63.421875 9 56.015625 9 48.421875 
z
" id="Linux_Biolinum_T-108"/>
       <path d="M 10.09375 -10.40625 
C 10.09375 -7 13.09375 -3.171875 16.59375 -1.203125 
C 19.5625 -1.3125 24.125 -1 25.5 -1 
C 30.296875 -1 33.359375 -1.109375 36.09375 -2.75 
C 39 -4.5 40 -7.484375 40 -10.15625 
C 40 -16.421875 31.796875 -19.703125 23.203125 -19.703125 
C 16.703125 -19.703125 10.09375 -17.453125 10.09375 -10.453125 
z
M 39 28.75 
C 39 35.546875 36.296875 38.71875 33.953125 40.234375 
C 36.953125 40 40.28125 39.625 44.40625 39.203125 
L 44.703125 39.5 
C 44.5 40.390625 44.40625 41.1875 44.40625 42.09375 
C 44.40625 42.984375 44.5 43.796875 44.703125 44.6875 
L 44.40625 45 
C 39.625 44.59375 36.078125 43.53125 28.625 43.125 
C 26.84375 43.6875 24.640625 44 22.5 44 
C 14.59375 44 5.5 38.71875 5.5 28.9375 
C 5.5 21.546875 9.796875 18.1875 12.59375 16.59375 
C 9.703125 14.59375 6.203125 11.640625 6.203125 8.15625 
C 6.203125 4 8.59375 0.390625 13.984375 -0.53125 
C 11.203125 -1.703125 8.078125 -3.671875 5.5 -5.734375 
C 4.234375 -7.6875 3.203125 -10.578125 3.203125 -12.515625 
C 3.203125 -20.59375 11.796875 -24 22.40625 -24 
C 38 -24 47.296875 -17.421875 47.296875 -7.78125 
C 47.296875 -3.265625 45.90625 -0.109375 43.09375 2.296875 
C 39.34375 5.5 32.5 5.59375 29 5.59375 
C 27.296875 5.59375 23.296875 5.390625 21 5.09375 
C 19.59375 5.09375 18.59375 5 18.09375 5 
C 15.296875 5 12.296875 5.390625 12.296875 9.75 
C 12.296875 11.765625 12.796875 13.484375 15 15.390625 
C 16.296875 14.6875 19.375 13.984375 22.40625 13.984375 
C 32.796875 13.984375 39 20.96875 39 28.75 
z
M 31.203125 28.640625 
C 31.203125 22.65625 28.703125 18 22.703125 18 
C 15.5 18 13.296875 22.625 13.296875 29.4375 
C 13.296875 35.953125 16.296875 40.1875 22.09375 40.1875 
C 28.59375 40.1875 31.203125 35.65625 31.203125 28.640625 
z
" id="Linux_Biolinum_T-103"/>
      </defs>
      <use transform="scale(0.996264)" xlink:href="#Linux_Biolinum_T-78"/>
      <use transform="translate(71.531789 0)scale(0.996264)" xlink:href="#Linux_Biolinum_T-117"/>
      <use transform="translate(125.031133 0)scale(0.996264)" xlink:href="#Linux_Biolinum_T-109"/>
      <use transform="translate(205.429651 0)scale(0.996264)" xlink:href="#Linux_Biolinum_T-98"/>
      <use transform="translate(256.6376 0)scale(0.996264)" xlink:href="#Linux_Biolinum_T-101"/>
      <use transform="translate(301.768363 0)scale(0.996264)" xlink:href="#Linux_Biolinum_T-114"/>
      <use transform="translate(362.04229 0)scale(0.996264)" xlink:href="#Linux_Biolinum_T-111"/>
      <use transform="translate(411.85549 0)scale(0.996264)" xlink:href="#Linux_Biolinum_T-102"/>
      <use transform="translate(468.044789 0)scale(0.996264)" xlink:href="#Linux_Biolinum_T-112"/>
      <use transform="translate(520.846751 0)scale(0.996264)" xlink:href="#Linux_Biolinum_T-111"/>
      <use transform="translate(570.659952 0)scale(0.996264)" xlink:href="#Linux_Biolinum_T-105"/>
      <use transform="translate(596.562831 0)scale(0.996264)" xlink:href="#Linux_Biolinum_T-110"/>
      <use transform="translate(650.26141 0)scale(0.996264)" xlink:href="#Linux_Biolinum_T-116"/>
      <use transform="translate(684.134401 0)scale(0.996264)" xlink:href="#Linux_Biolinum_T-115"/>
      <use transform="translate(748.493047 0)scale(0.996264)" xlink:href="#Linux_Biolinum_T-102"/>
      <use transform="translate(779.775746 0)scale(0.996264)" xlink:href="#Linux_Biolinum_T-111"/>
      <use transform="translate(829.588947 0)scale(0.996264)" xlink:href="#Linux_Biolinum_T-114"/>
      <use transform="translate(889.862874 0)scale(0.996264)" xlink:href="#Linux_Biolinum_T-115"/>
      <use transform="translate(929.31492 0)scale(0.996264)" xlink:href="#Linux_Biolinum_T-97"/>
      <use transform="translate(977.235209 0)scale(0.996264)" xlink:href="#Linux_Biolinum_T-109"/>
      <use transform="translate(1057.633727 0)scale(0.996264)" xlink:href="#Linux_Biolinum_T-112"/>
      <use transform="translate(1109.738307 0)scale(0.996264)" xlink:href="#Linux_Biolinum_T-108"/>
      <use transform="translate(1134.844142 0)scale(0.996264)" xlink:href="#Linux_Biolinum_T-105"/>
      <use transform="translate(1160.747022 0)scale(0.996264)" xlink:href="#Linux_Biolinum_T-110"/>
      <use transform="translate(1214.4456 0)scale(0.996264)" xlink:href="#Linux_Biolinum_T-103"/>
     </g>
    </g>
   </g>
   <g id="matplotlib.axis_2">
    <g id="ytick_1">
     <g id="line2d_9">
      <defs>
       <path d="M 0 0 
L -6 0 
" id="m460a7181b0" style="stroke:#262626;stroke-width:0.8;"/>
      </defs>
      <g>
       <use style="fill:#262626;stroke:#262626;stroke-width:0.8;" x="144" xlink:href="#m460a7181b0" y="418.119876"/>
      </g>
     </g>
     <g id="text_7">
      <!-- $\mathdefault{260}$ -->
      <g style="fill:#262626;" transform="translate(108.714088 424.020463)scale(0.1728 -0.1728)">
       <defs>
        <path d="M 41.703125 15.46875 
L 39.90625 15.46875 
C 38.90625 8.390625 38.09375 7.1875 37.703125 6.59375 
C 37.203125 5.796875 30 5.796875 28.59375 5.796875 
L 9.40625 5.796875 
C 13 9.6875 20 16.765625 28.5 24.9375 
C 34.59375 30.71875 41.703125 37.5 41.703125 47.390625 
C 41.703125 59.1875 32.296875 66 21.796875 66 
C 10.796875 66 4.09375 56.296875 4.09375 47.296875 
C 4.09375 43.390625 7 42.890625 8.203125 42.890625 
C 9.203125 42.890625 12.203125 43.484375 12.203125 46.984375 
C 12.203125 50.09375 9.59375 51 8.203125 51 
C 7.59375 51 7 50.890625 6.59375 50.6875 
C 8.5 59.1875 14.296875 63.390625 20.40625 63.390625 
C 29.09375 63.390625 34.796875 56.5 34.796875 47.390625 
C 34.796875 38.703125 29.703125 31.21875 24 24.734375 
L 4.09375 2.296875 
L 4.09375 0 
L 39.296875 0 
z
" id="CMR17-50"/>
        <path d="M 10.59375 34.34375 
C 10.59375 58 21.796875 63.6875 28.296875 63.6875 
C 30.40625 63.6875 35.5 63.265625 37.5 59.09375 
C 35.90625 59.09375 32.90625 59.09375 32.90625 55.59375 
C 32.90625 52.890625 35.09375 52 36.5 52 
C 37.40625 52 40.09375 52.390625 40.09375 55.796875 
C 40.09375 62.296875 35.09375 66 28.203125 66 
C 16.296875 66 3.796875 53.296875 3.796875 31.421875 
C 3.796875 4.015625 15.09375 -2 23.09375 -2 
C 32.796875 -2 42 6.734375 42 20.234375 
C 42 32.828125 33.90625 42 23.703125 42 
C 17.59375 42 13.09375 37.96875 10.59375 30.921875 
z
M 23.09375 0.390625 
C 10.796875 0.390625 10.796875 18.9375 10.796875 22.65625 
C 10.796875 29.90625 14.203125 40.390625 23.5 40.390625 
C 25.203125 40.390625 30.09375 40.390625 33.40625 33.4375 
C 35.203125 29.515625 35.203125 25.375 35.203125 20.34375 
C 35.203125 14.90625 35.203125 10.875 33.09375 6.84375 
C 30.90625 2.703125 27.703125 0.390625 23.09375 0.390625 
z
" id="CMR17-54"/>
        <path d="M 42 31.84375 
C 42 37.96875 41.90625 48.421875 37.703125 56.453125 
C 34 63.484375 28.09375 66 22.90625 66 
C 18.09375 66 12 63.78125 8.203125 56.5625 
C 4.203125 49.015625 3.796875 39.671875 3.796875 31.84375 
C 3.796875 26.109375 3.90625 17.375 7 9.734375 
C 11.296875 -0.609375 19 -2 22.90625 -2 
C 27.5 -2 34.5 -0.109375 38.59375 9.4375 
C 41.59375 16.375 42 24.5 42 31.84375 
z
M 22.90625 -0.40625 
C 16.5 -0.40625 12.703125 5.125 11.296875 12.75 
C 10.203125 18.6875 10.203125 27.328125 10.203125 32.953125 
C 10.203125 40.6875 10.203125 47.109375 11.5 53.234375 
C 13.40625 61.78125 19 64.390625 22.90625 64.390625 
C 27 64.390625 32.296875 61.671875 34.203125 53.4375 
C 35.5 47.71875 35.59375 40.984375 35.59375 32.953125 
C 35.59375 26.421875 35.59375 18.375 34.40625 12.453125 
C 32.296875 1.5 26.40625 -0.40625 22.90625 -0.40625 
z
" id="CMR17-48"/>
       </defs>
       <use transform="scale(0.996264)" xlink:href="#CMR17-50"/>
       <use transform="translate(45.690477 0)scale(0.996264)" xlink:href="#CMR17-54"/>
       <use transform="translate(91.380954 0)scale(0.996264)" xlink:href="#CMR17-48"/>
      </g>
     </g>
    </g>
    <g id="ytick_2">
     <g id="line2d_10">
      <g>
       <use style="fill:#262626;stroke:#262626;stroke-width:0.8;" x="144" xlink:href="#m460a7181b0" y="364.941202"/>
      </g>
     </g>
     <g id="text_8">
      <!-- $\mathdefault{280}$ -->
      <g style="fill:#262626;" transform="translate(108.714088 370.841789)scale(0.1728 -0.1728)">
       <defs>
        <path d="M 27.203125 35.765625 
C 33.5 38.96875 39.90625 43.796875 39.90625 51.53125 
C 39.90625 60.6875 31.09375 66 23 66 
C 13.90625 66 5.90625 59.375 5.90625 50.234375 
C 5.90625 47.71875 6.5 43.390625 10.40625 39.578125 
C 11.40625 38.578125 15.59375 35.5625 18.296875 33.65625 
C 13.796875 31.34375 3.296875 25.8125 3.296875 14.765625 
C 3.296875 4.40625 13.09375 -2 22.796875 -2 
C 33.5 -2 42.5 5.71875 42.5 15.96875 
C 42.5 25.109375 36.40625 29.328125 32.40625 32.046875 
z
M 14.09375 44.609375 
C 13.296875 45.109375 9.296875 48.21875 9.296875 52.9375 
C 9.296875 59.078125 15.59375 63.6875 22.796875 63.6875 
C 30.703125 63.6875 36.5 58.0625 36.5 51.53125 
C 36.5 42.1875 26.09375 36.859375 25.59375 36.859375 
C 25.5 36.859375 25.40625 36.859375 24.59375 37.46875 
z
M 32.5 24 
C 34 22.90625 38.796875 19.578125 38.796875 13.453125 
C 38.796875 6.015625 31.40625 0.390625 23 0.390625 
C 13.90625 0.390625 7 6.921875 7 14.859375 
C 7 22.796875 13.09375 29.4375 20 32.546875 
z
" id="CMR17-56"/>
       </defs>
       <use transform="scale(0.996264)" xlink:href="#CMR17-50"/>
       <use transform="translate(45.690477 0)scale(0.996264)" xlink:href="#CMR17-56"/>
       <use transform="translate(91.380954 0)scale(0.996264)" xlink:href="#CMR17-48"/>
      </g>
     </g>
    </g>
    <g id="ytick_3">
     <g id="line2d_11">
      <g>
       <use style="fill:#262626;stroke:#262626;stroke-width:0.8;" x="144" xlink:href="#m460a7181b0" y="311.762528"/>
      </g>
     </g>
     <g id="text_9">
      <!-- $\mathdefault{300}$ -->
      <g style="fill:#262626;" transform="translate(108.714088 317.663115)scale(0.1728 -0.1728)">
       <defs>
        <path d="M 22.09375 34 
C 31 34 34.90625 26.140625 34.90625 17.09375 
C 34.90625 5.03125 28.5 0.390625 22.703125 0.390625 
C 17.40625 0.390625 8.796875 3.015625 6.09375 10.796875 
C 6.59375 10.59375 7.09375 10.59375 7.59375 10.59375 
C 10 10.59375 11.796875 12.1875 11.796875 14.796875 
C 11.796875 17.6875 9.59375 19 7.59375 19 
C 5.90625 19 3.296875 18.1875 3.296875 14.484375 
C 3.296875 5.234375 12.296875 -2 22.90625 -2 
C 34 -2 42.5 6.75 42.5 16.984375 
C 42.5 26.84375 34.5 34 25 35.09375 
C 32.59375 36.671875 39.90625 43.375 39.90625 52.390625 
C 39.90625 60.25 32 66 23 66 
C 13.90625 66 5.90625 60.34375 5.90625 52.296875 
C 5.90625 48.796875 8.5 48.1875 9.796875 48.1875 
C 11.90625 48.1875 13.703125 49.484375 13.703125 52.09375 
C 13.703125 54.6875 11.90625 56 9.796875 56 
C 9.40625 56 8.90625 56 8.5 55.796875 
C 11.40625 62.484375 19.296875 63.6875 22.796875 63.6875 
C 26.296875 63.6875 32.90625 61.96875 32.90625 52.296875 
C 32.90625 49.484375 32.5 44.546875 29.09375 40.21875 
C 26.09375 36.390625 22.703125 36.1875 19.40625 35.890625 
C 18.90625 35.890625 16.59375 35.6875 16.203125 35.6875 
C 15.5 35.59375 15.09375 35.5 15.09375 34.796875 
C 15.09375 34.09375 15.203125 34 17.203125 34 
z
" id="CMR17-51"/>
       </defs>
       <use transform="scale(0.996264)" xlink:href="#CMR17-51"/>
       <use transform="translate(45.690477 0)scale(0.996264)" xlink:href="#CMR17-48"/>
       <use transform="translate(91.380954 0)scale(0.996264)" xlink:href="#CMR17-48"/>
      </g>
     </g>
    </g>
    <g id="ytick_4">
     <g id="line2d_12">
      <g>
       <use style="fill:#262626;stroke:#262626;stroke-width:0.8;" x="144" xlink:href="#m460a7181b0" y="258.583854"/>
      </g>
     </g>
     <g id="text_10">
      <!-- $\mathdefault{320}$ -->
      <g style="fill:#262626;" transform="translate(108.714088 264.484441)scale(0.1728 -0.1728)">
       <use transform="scale(0.996264)" xlink:href="#CMR17-51"/>
       <use transform="translate(45.690477 0)scale(0.996264)" xlink:href="#CMR17-50"/>
       <use transform="translate(91.380954 0)scale(0.996264)" xlink:href="#CMR17-48"/>
      </g>
     </g>
    </g>
    <g id="ytick_5">
     <g id="line2d_13">
      <g>
       <use style="fill:#262626;stroke:#262626;stroke-width:0.8;" x="144" xlink:href="#m460a7181b0" y="205.405181"/>
      </g>
     </g>
     <g id="text_11">
      <!-- $\mathdefault{340}$ -->
      <g style="fill:#262626;" transform="translate(108.714088 211.305768)scale(0.1728 -0.1728)">
       <defs>
        <path d="M 33.59375 64.796875 
C 33.59375 66.890625 33.5 67 31.703125 67 
L 2 19.59375 
L 2 17 
L 27.796875 17 
L 27.796875 7.1875 
C 27.796875 3.59375 27.59375 2.59375 20.59375 2.59375 
L 18.703125 2.59375 
L 18.703125 0 
C 21.90625 0.1875 27.296875 0.1875 30.703125 0.1875 
C 34.09375 0.1875 39.5 0.1875 42.703125 0 
L 42.703125 2.59375 
L 40.796875 2.59375 
C 33.796875 2.59375 33.59375 3.59375 33.59375 7.1875 
L 33.59375 17 
L 43.796875 17 
L 43.796875 19.59375 
L 33.59375 19.59375 
z
M 28.09375 58.171875 
L 28.09375 19.59375 
L 4 19.59375 
z
" id="CMR17-52"/>
       </defs>
       <use transform="scale(0.996264)" xlink:href="#CMR17-51"/>
       <use transform="translate(45.690477 0)scale(0.996264)" xlink:href="#CMR17-52"/>
       <use transform="translate(91.380954 0)scale(0.996264)" xlink:href="#CMR17-48"/>
      </g>
     </g>
    </g>
    <g id="ytick_6">
     <g id="line2d_14">
      <g>
       <use style="fill:#262626;stroke:#262626;stroke-width:0.8;" x="144" xlink:href="#m460a7181b0" y="152.226507"/>
      </g>
     </g>
     <g id="text_12">
      <!-- $\mathdefault{360}$ -->
      <g style="fill:#262626;" transform="translate(108.714088 158.127094)scale(0.1728 -0.1728)">
       <use transform="scale(0.996264)" xlink:href="#CMR17-51"/>
       <use transform="translate(45.690477 0)scale(0.996264)" xlink:href="#CMR17-54"/>
       <use transform="translate(91.380954 0)scale(0.996264)" xlink:href="#CMR17-48"/>
      </g>
     </g>
    </g>
    <g id="ytick_7">
     <g id="line2d_15">
      <g>
       <use style="fill:#262626;stroke:#262626;stroke-width:0.8;" x="144" xlink:href="#m460a7181b0" y="99.047833"/>
      </g>
     </g>
     <g id="text_13">
      <!-- $\mathdefault{380}$ -->
      <g style="fill:#262626;" transform="translate(108.714088 104.94842)scale(0.1728 -0.1728)">
       <use transform="scale(0.996264)" xlink:href="#CMR17-51"/>
       <use transform="translate(45.690477 0)scale(0.996264)" xlink:href="#CMR17-56"/>
       <use transform="translate(91.380954 0)scale(0.996264)" xlink:href="#CMR17-48"/>
      </g>
     </g>
    </g>
    <g id="text_14">
     <!-- Penetration resistance 80 cm, kPa -->
     <g style="fill:#262626;" transform="translate(100.784837 367.957295)rotate(-90)scale(0.17 -0.17)">
      <defs>
       <path d="M 19 57.234375 
C 19 60.171875 20.796875 61.6875 28 61.6875 
C 34.90625 61.6875 42.203125 59.765625 42.203125 47.703125 
C 42.203125 36.046875 36.59375 32.296875 26.90625 32.296875 
C 24.40625 32.296875 20.296875 32.59375 19 33.3125 
z
M 10.40625 45.0625 
L 10.40625 20.359375 
C 10.40625 12.84375 10.203125 5.71875 9.40625 0.296875 
L 9.59375 0 
C 10.796875 0.1875 13.5 0.296875 14.703125 0.296875 
C 15.90625 0.296875 18.59375 0.1875 19.796875 0 
L 20 0.296875 
C 19.203125 6.015625 19 12.84375 19 20.359375 
L 19 29 
C 21.203125 28.296875 23.90625 28 27.40625 28 
C 45.59375 28 51.90625 39.59375 51.90625 48.203125 
C 51.90625 55.71875 47.203125 66 28.703125 66 
C 26.09375 66 17.703125 65.296875 14.703125 65.296875 
C 13.5 65.296875 10.796875 65.390625 9.59375 65.59375 
L 9.40625 65.296875 
C 10.203125 59.5625 10.40625 52.671875 10.40625 45.0625 
z
" id="Linux_Biolinum_T-80"/>
       <path d="M 25 39.984375 
C 28.859375 39.984375 32.359375 37.140625 35 32.578125 
L 36.296875 32.671875 
L 38.59375 40.890625 
L 38.40625 41.1875 
C 35.296875 42.796875 30.09375 44 25.09375 44 
C 14.703125 44 3.796875 35.484375 3.796875 21.84375 
C 3.796875 7.90625 11.703125 -1 23.90625 -1 
C 29.90625 -1 34.59375 1 38.59375 6.09375 
L 36.703125 8.203125 
L 36.296875 8.203125 
C 32.5 4.796875 29.3125 4 25.59375 4 
C 18.296875 4 12.59375 10.609375 12.59375 22.34375 
C 12.59375 33.375 18.40625 39.984375 25 39.984375 
z
" id="Linux_Biolinum_T-99"/>
       <path d="M 23.5 57.6875 
C 30 57.6875 32.40625 53.28125 32.40625 48.578125 
C 32.40625 43.15625 27.09375 38.359375 24.296875 36.34375 
L 21.203125 38.15625 
C 14.90625 42.265625 14.203125 45.96875 14.203125 49.078125 
C 14.203125 53.78125 17.5 57.6875 23.5 57.6875 
z
M 39.796875 48.46875 
C 39.796875 55.6875 34 61 24.09375 61 
C 13.90625 61 6.703125 54.984375 6.703125 47.265625 
C 6.703125 41.65625 9.796875 36.65625 15.5 33.34375 
L 17.5 32.25 
C 15 30.34375 13 28.734375 10.5 26.53125 
C 6.40625 22.921875 3.90625 18.421875 3.90625 14.515625 
C 3.90625 4.296875 12 -1 22.59375 -1 
C 35.703125 -1 42.796875 8.5 42.796875 16.109375 
C 42.796875 21.921875 39.59375 26.328125 34.09375 29.9375 
L 28 33.953125 
C 32.5 36.953125 39.796875 42.0625 39.796875 48.46875 
z
M 22.796875 2.296875 
C 18.203125 2.296875 11.703125 5.5 11.703125 14.515625 
C 11.703125 17.515625 12.5 24.234375 21.09375 29.9375 
L 25.703125 27.03125 
C 31.90625 23.125 34.5 18.71875 34.5 14.015625 
C 34.5 4.296875 27.40625 2.296875 22.796875 2.296875 
z
" id="Linux_Biolinum_T-56"/>
       <path d="M 4.796875 4.6875 
C 5.6875 1.359375 7.078125 0.6875 10.203125 0 
C 11.453125 0 13.09375 -0.140625 13.09375 -2.609375 
C 13.09375 -5.90625 10.203125 -8.703125 5.296875 -12.015625 
C 5.296875 -13.015625 5.921875 -13.515625 6.59375 -14.109375 
C 12 -10.921875 17 -8.203125 17 0 
C 17 6.46875 14.21875 9.171875 10.59375 10.5 
L 10.203125 10.5 
C 7.1875 9.265625 5.71875 7.734375 4.796875 5.09375 
z
" id="Linux_Biolinum_T-44"/>
       <path d="M 9 20 
C 9 12.671875 8.859375 5.578125 8.09375 0.28125 
L 8.296875 0 
C 9.5 0.1875 11.796875 0.28125 13 0.28125 
C 14.203125 0.28125 16.5 0.1875 17.703125 0 
L 17.90625 0.28125 
C 17.125 5.90625 17 12.59375 17 20 
L 17 21 
C 17.8125 20.96875 20.234375 20.671875 21.09375 19.90625 
C 27.59375 13.203125 30 9.65625 36.796875 0 
C 38.3125 0.171875 41.703125 0.28125 43.40625 0.28125 
C 45.078125 0.28125 48.5 0.171875 49.40625 0 
L 49.59375 0.28125 
C 42.15625 8.03125 36.84375 12.390625 27.296875 23.796875 
C 31.234375 27.859375 41 37.25 47.5 42.6875 
L 47.296875 43 
C 45.40625 42.6875 39.90625 42.6875 37.203125 42.6875 
C 32.875 36.515625 25.359375 28.5 21.40625 25.484375 
C 20.125 24.5 18.296875 24.109375 17 24.015625 
L 17 49.890625 
C 17 57.5 17.421875 62.5625 17.90625 68.984375 
C 17.90625 69.6875 17.625 70 17 70 
C 14.5 68.984375 12.359375 68.265625 8.296875 67.96875 
L 8.09375 67.65625 
C 8.875 63.328125 9 55.78125 9 48.0625 
z
" id="Linux_Biolinum_T-107"/>
      </defs>
      <use transform="scale(0.996264)" xlink:href="#Linux_Biolinum_T-80"/>
      <use transform="translate(55.691152 0)scale(0.996264)" xlink:href="#Linux_Biolinum_T-101"/>
      <use transform="translate(100.821915 0)scale(0.996264)" xlink:href="#Linux_Biolinum_T-110"/>
      <use transform="translate(154.520493 0)scale(0.996264)" xlink:href="#Linux_Biolinum_T-101"/>
      <use transform="translate(199.651256 0)scale(0.996264)" xlink:href="#Linux_Biolinum_T-116"/>
      <use transform="translate(233.524247 0)scale(0.996264)" xlink:href="#Linux_Biolinum_T-114"/>
      <use transform="translate(268.891574 0)scale(0.996264)" xlink:href="#Linux_Biolinum_T-97"/>
      <use transform="translate(316.811864 0)scale(0.996264)" xlink:href="#Linux_Biolinum_T-116"/>
      <use transform="translate(350.684855 0)scale(0.996264)" xlink:href="#Linux_Biolinum_T-105"/>
      <use transform="translate(376.587735 0)scale(0.996264)" xlink:href="#Linux_Biolinum_T-111"/>
      <use transform="translate(426.400935 0)scale(0.996264)" xlink:href="#Linux_Biolinum_T-110"/>
      <use transform="translate(505.006114 0)scale(0.996264)" xlink:href="#Linux_Biolinum_T-114"/>
      <use transform="translate(539.576381 0)scale(0.996264)" xlink:href="#Linux_Biolinum_T-101"/>
      <use transform="translate(584.707144 0)scale(0.996264)" xlink:href="#Linux_Biolinum_T-115"/>
      <use transform="translate(624.159189 0)scale(0.996264)" xlink:href="#Linux_Biolinum_T-105"/>
      <use transform="translate(650.062069 0)scale(0.996264)" xlink:href="#Linux_Biolinum_T-115"/>
      <use transform="translate(689.514115 0)scale(0.996264)" xlink:href="#Linux_Biolinum_T-116"/>
      <use transform="translate(723.387106 0)scale(0.996264)" xlink:href="#Linux_Biolinum_T-97"/>
      <use transform="translate(771.307396 0)scale(0.996264)" xlink:href="#Linux_Biolinum_T-110"/>
      <use transform="translate(825.005974 0)scale(0.996264)" xlink:href="#Linux_Biolinum_T-99"/>
      <use transform="translate(867.745679 0)scale(0.996264)" xlink:href="#Linux_Biolinum_T-101"/>
      <use transform="translate(937.783042 0)scale(0.996264)" xlink:href="#Linux_Biolinum_T-56"/>
      <use transform="translate(984.109334 0)scale(0.996264)" xlink:href="#Linux_Biolinum_T-48"/>
      <use transform="translate(1055.342226 0)scale(0.996264)" xlink:href="#Linux_Biolinum_T-99"/>
      <use transform="translate(1098.08193 0)scale(0.996264)" xlink:href="#Linux_Biolinum_T-109"/>
      <use transform="translate(1178.480448 0)scale(0.996264)" xlink:href="#Linux_Biolinum_T-44"/>
      <use transform="translate(1225.304872 0)scale(0.996264)" xlink:href="#Linux_Biolinum_T-107"/>
      <use transform="translate(1275.41697 0)scale(0.996264)" xlink:href="#Linux_Biolinum_T-80"/>
      <use transform="translate(1331.108122 0)scale(0.996264)" xlink:href="#Linux_Biolinum_T-97"/>
     </g>
    </g>
   </g>
   <g id="patch_3">
    <path clip-path="url(#pa70c5ebe15)" d="M 158.539299 342.047783 
L 195.548425 342.047783 
L 195.548425 250.793179 
L 158.539299 250.793179 
L 158.539299 342.047783 
z
" style="fill:#d3c4f6;stroke:#6f6f6f;stroke-linejoin:miter;stroke-width:1.4;"/>
   </g>
   <g id="patch_4">
    <path clip-path="url(#pa70c5ebe15)" d="M 196.303713 337.421238 
L 233.312839 337.421238 
L 233.312839 207.565564 
L 196.303713 207.565564 
L 196.303713 337.421238 
z
" style="fill:#98daa7;stroke:#6f6f6f;stroke-linejoin:miter;stroke-width:1.4;"/>
   </g>
   <g id="patch_5">
    <path clip-path="url(#pa70c5ebe15)" d="M 234.068127 390.965515 
L 271.077252 390.965515 
L 271.077252 271.579393 
L 234.068127 271.579393 
L 234.068127 390.965515 
z
" style="fill:#f2aba8;stroke:#6f6f6f;stroke-linejoin:miter;stroke-width:1.4;"/>
   </g>
   <g id="patch_6">
    <path clip-path="url(#pa70c5ebe15)" d="M 300.155851 343.669732 
L 337.164977 343.669732 
L 337.164977 299.637791 
L 300.155851 299.637791 
L 300.155851 343.669732 
z
" style="fill:#d3c4f6;stroke:#6f6f6f;stroke-linejoin:miter;stroke-width:1.4;"/>
   </g>
   <g id="patch_7">
    <path clip-path="url(#pa70c5ebe15)" d="M 337.920265 411.339595 
L 374.92939 411.339595 
L 374.92939 294.412986 
L 337.920265 294.412986 
L 337.920265 411.339595 
z
" style="fill:#98daa7;stroke:#6f6f6f;stroke-linejoin:miter;stroke-width:1.4;"/>
   </g>
   <g id="patch_8">
    <path clip-path="url(#pa70c5ebe15)" d="M 375.684679 325.92135 
L 412.693804 325.92135 
L 412.693804 207.000541 
L 375.684679 207.000541 
L 375.684679 325.92135 
z
" style="fill:#f2aba8;stroke:#6f6f6f;stroke-linejoin:miter;stroke-width:1.4;"/>
   </g>
   <g id="patch_9">
    <path clip-path="url(#pa70c5ebe15)" d="M 441.772403 348.821416 
L 478.781528 348.821416 
L 478.781528 270.575645 
L 441.772403 270.575645 
L 441.772403 348.821416 
z
" style="fill:#d3c4f6;stroke:#6f6f6f;stroke-linejoin:miter;stroke-width:1.4;"/>
   </g>
   <g id="patch_10">
    <path clip-path="url(#pa70c5ebe15)" d="M 479.536817 372.85153 
L 516.545942 372.85153 
L 516.545942 272.011469 
L 479.536817 272.011469 
L 479.536817 372.85153 
z
" style="fill:#98daa7;stroke:#6f6f6f;stroke-linejoin:miter;stroke-width:1.4;"/>
   </g>
   <g id="patch_11">
    <path clip-path="url(#pa70c5ebe15)" d="M 517.30123 385.282045 
L 554.310356 385.282045 
L 554.310356 229.734424 
L 517.30123 229.734424 
L 517.30123 385.282045 
z
" style="fill:#f2aba8;stroke:#6f6f6f;stroke-linejoin:miter;stroke-width:1.4;"/>
   </g>
   <g id="patch_12">
    <path clip-path="url(#pa70c5ebe15)" d="M 583.388954 364.276468 
L 620.39808 364.276468 
L 620.39808 240.901945 
L 583.388954 240.901945 
L 583.388954 364.276468 
z
" style="fill:#d3c4f6;stroke:#6f6f6f;stroke-linejoin:miter;stroke-width:1.4;"/>
   </g>
   <g id="patch_13">
    <path clip-path="url(#pa70c5ebe15)" d="M 621.153368 394.721259 
L 658.162494 394.721259 
L 658.162494 282.248364 
L 621.153368 282.248364 
L 621.153368 394.721259 
z
" style="fill:#98daa7;stroke:#6f6f6f;stroke-linejoin:miter;stroke-width:1.4;"/>
   </g>
   <g id="patch_14">
    <path clip-path="url(#pa70c5ebe15)" d="M 658.917782 343.669732 
L 695.926908 343.669732 
L 695.926908 270.017269 
L 658.917782 270.017269 
L 658.917782 343.669732 
z
" style="fill:#f2aba8;stroke:#6f6f6f;stroke-linejoin:miter;stroke-width:1.4;"/>
   </g>
   <g id="patch_15">
    <path clip-path="url(#pa70c5ebe15)" d="M 725.005506 359.124784 
L 762.014632 359.124784 
L 762.014632 238.209775 
L 725.005506 238.209775 
L 725.005506 359.124784 
z
" style="fill:#d3c4f6;stroke:#6f6f6f;stroke-linejoin:miter;stroke-width:1.4;"/>
   </g>
   <g id="patch_16">
    <path clip-path="url(#pa70c5ebe15)" d="M 762.76992 345.663933 
L 799.779046 345.663933 
L 799.779046 209.692711 
L 762.76992 209.692711 
L 762.76992 345.663933 
z
" style="fill:#98daa7;stroke:#6f6f6f;stroke-linejoin:miter;stroke-width:1.4;"/>
   </g>
   <g id="patch_17">
    <path clip-path="url(#pa70c5ebe15)" d="M 800.534334 382.058087 
L 837.543459 382.058087 
L 837.543459 255.492844 
L 800.534334 255.492844 
L 800.534334 382.058087 
z
" style="fill:#f2aba8;stroke:#6f6f6f;stroke-linejoin:miter;stroke-width:1.4;"/>
   </g>
   <g id="patch_18">
    <path clip-path="url(#pa70c5ebe15)" d="M 214.808276 1109.442634 
L 214.808276 1109.442634 
L 214.808276 1109.442634 
L 214.808276 1109.442634 
z
" style="fill:#d3c4f6;stroke:#6f6f6f;stroke-linejoin:miter;stroke-width:0.7;"/>
   </g>
   <g id="patch_19">
    <path clip-path="url(#pa70c5ebe15)" d="M 214.808276 1109.442634 
L 214.808276 1109.442634 
L 214.808276 1109.442634 
L 214.808276 1109.442634 
z
" style="fill:#98daa7;stroke:#6f6f6f;stroke-linejoin:miter;stroke-width:0.7;"/>
   </g>
   <g id="patch_20">
    <path clip-path="url(#pa70c5ebe15)" d="M 214.808276 1109.442634 
L 214.808276 1109.442634 
L 214.808276 1109.442634 
L 214.808276 1109.442634 
z
" style="fill:#f2aba8;stroke:#6f6f6f;stroke-linejoin:miter;stroke-width:0.7;"/>
   </g>
   <g id="line2d_16">
    <path clip-path="url(#pa70c5ebe15)" d="M 177.043862 342.047783 
L 177.043862 417.853982 
" style="fill:none;stroke:#6f6f6f;stroke-linecap:round;stroke-width:1.4;"/>
   </g>
   <g id="line2d_17">
    <path clip-path="url(#pa70c5ebe15)" d="M 177.043862 250.793179 
L 177.043862 215.509129 
" style="fill:none;stroke:#6f6f6f;stroke-linecap:round;stroke-width:1.4;"/>
   </g>
   <g id="line2d_18">
    <path clip-path="url(#pa70c5ebe15)" d="M 167.791581 417.853982 
L 186.296143 417.853982 
" style="fill:none;stroke:#6f6f6f;stroke-linecap:round;stroke-width:1.4;"/>
   </g>
   <g id="line2d_19">
    <path clip-path="url(#pa70c5ebe15)" d="M 167.791581 215.509129 
L 186.296143 215.509129 
" style="fill:none;stroke:#6f6f6f;stroke-linecap:round;stroke-width:1.4;"/>
   </g>
   <g id="line2d_20">
    <defs>
     <path d="M -0 3.535534 
L 2.12132 0 
L -0 -3.535534 
L -2.12132 -0 
z
" id="m6a33f2d4ee" style="stroke:#6f6f6f;stroke-linejoin:miter;"/>
    </defs>
    <g clip-path="url(#pa70c5ebe15)">
     <use style="fill:#6f6f6f;stroke:#6f6f6f;stroke-linejoin:miter;" x="177.043862" xlink:href="#m6a33f2d4ee" y="84.556645"/>
    </g>
   </g>
   <g id="line2d_21">
    <path clip-path="url(#pa70c5ebe15)" d="M 214.808276 337.421238 
L 214.808276 396.582513 
" style="fill:none;stroke:#6f6f6f;stroke-linecap:round;stroke-width:1.4;"/>
   </g>
   <g id="line2d_22">
    <path clip-path="url(#pa70c5ebe15)" d="M 214.808276 207.565564 
L 214.808276 84.556645 
" style="fill:none;stroke:#6f6f6f;stroke-linecap:round;stroke-width:1.4;"/>
   </g>
   <g id="line2d_23">
    <path clip-path="url(#pa70c5ebe15)" d="M 205.555994 396.582513 
L 224.060557 396.582513 
" style="fill:none;stroke:#6f6f6f;stroke-linecap:round;stroke-width:1.4;"/>
   </g>
   <g id="line2d_24">
    <path clip-path="url(#pa70c5ebe15)" d="M 205.555994 84.556645 
L 224.060557 84.556645 
" style="fill:none;stroke:#6f6f6f;stroke-linecap:round;stroke-width:1.4;"/>
   </g>
   <g id="line2d_25"/>
   <g id="line2d_26">
    <path clip-path="url(#pa70c5ebe15)" d="M 252.57269 390.965515 
L 252.57269 417.322196 
" style="fill:none;stroke:#6f6f6f;stroke-linecap:round;stroke-width:1.4;"/>
   </g>
   <g id="line2d_27">
    <path clip-path="url(#pa70c5ebe15)" d="M 252.57269 271.579393 
L 252.57269 237.312385 
" style="fill:none;stroke:#6f6f6f;stroke-linecap:round;stroke-width:1.4;"/>
   </g>
   <g id="line2d_28">
    <path clip-path="url(#pa70c5ebe15)" d="M 243.320408 417.322196 
L 261.824971 417.322196 
" style="fill:none;stroke:#6f6f6f;stroke-linecap:round;stroke-width:1.4;"/>
   </g>
   <g id="line2d_29">
    <path clip-path="url(#pa70c5ebe15)" d="M 243.320408 237.312385 
L 261.824971 237.312385 
" style="fill:none;stroke:#6f6f6f;stroke-linecap:round;stroke-width:1.4;"/>
   </g>
   <g id="line2d_30"/>
   <g id="line2d_31">
    <path clip-path="url(#pa70c5ebe15)" d="M 318.660414 343.669732 
L 318.660414 343.669732 
" style="fill:none;stroke:#6f6f6f;stroke-linecap:round;stroke-width:1.4;"/>
   </g>
   <g id="line2d_32">
    <path clip-path="url(#pa70c5ebe15)" d="M 318.660414 299.637791 
L 318.660414 240.901945 
" style="fill:none;stroke:#6f6f6f;stroke-linecap:round;stroke-width:1.4;"/>
   </g>
   <g id="line2d_33">
    <path clip-path="url(#pa70c5ebe15)" d="M 309.408132 343.669732 
L 327.912695 343.669732 
" style="fill:none;stroke:#6f6f6f;stroke-linecap:round;stroke-width:1.4;"/>
   </g>
   <g id="line2d_34">
    <path clip-path="url(#pa70c5ebe15)" d="M 309.408132 240.901945 
L 327.912695 240.901945 
" style="fill:none;stroke:#6f6f6f;stroke-linecap:round;stroke-width:1.4;"/>
   </g>
   <g id="line2d_35">
    <g clip-path="url(#pa70c5ebe15)">
     <use style="fill:#6f6f6f;stroke:#6f6f6f;stroke-linejoin:miter;" x="318.660414" xlink:href="#m6a33f2d4ee" y="417.853982"/>
     <use style="fill:#6f6f6f;stroke:#6f6f6f;stroke-linejoin:miter;" x="318.660414" xlink:href="#m6a33f2d4ee" y="411.339595"/>
     <use style="fill:#6f6f6f;stroke:#6f6f6f;stroke-linejoin:miter;" x="318.660414" xlink:href="#m6a33f2d4ee" y="411.339595"/>
     <use style="fill:#6f6f6f;stroke:#6f6f6f;stroke-linejoin:miter;" x="318.660414" xlink:href="#m6a33f2d4ee" y="84.556645"/>
     <use style="fill:#6f6f6f;stroke:#6f6f6f;stroke-linejoin:miter;" x="318.660414" xlink:href="#m6a33f2d4ee" y="215.509129"/>
    </g>
   </g>
   <g id="line2d_36">
    <path clip-path="url(#pa70c5ebe15)" d="M 356.424828 411.339595 
L 356.424828 417.853982 
" style="fill:none;stroke:#6f6f6f;stroke-linecap:round;stroke-width:1.4;"/>
   </g>
   <g id="line2d_37">
    <path clip-path="url(#pa70c5ebe15)" d="M 356.424828 294.412986 
L 356.424828 207.000541 
" style="fill:none;stroke:#6f6f6f;stroke-linecap:round;stroke-width:1.4;"/>
   </g>
   <g id="line2d_38">
    <path clip-path="url(#pa70c5ebe15)" d="M 347.172546 417.853982 
L 365.677109 417.853982 
" style="fill:none;stroke:#6f6f6f;stroke-linecap:round;stroke-width:1.4;"/>
   </g>
   <g id="line2d_39">
    <path clip-path="url(#pa70c5ebe15)" d="M 347.172546 207.000541 
L 365.677109 207.000541 
" style="fill:none;stroke:#6f6f6f;stroke-linecap:round;stroke-width:1.4;"/>
   </g>
   <g id="line2d_40"/>
   <g id="line2d_41">
    <path clip-path="url(#pa70c5ebe15)" d="M 394.189241 325.92135 
L 394.189241 411.339595 
" style="fill:none;stroke:#6f6f6f;stroke-linecap:round;stroke-width:1.4;"/>
   </g>
   <g id="line2d_42">
    <path clip-path="url(#pa70c5ebe15)" d="M 394.189241 207.000541 
L 394.189241 84.556645 
" style="fill:none;stroke:#6f6f6f;stroke-linecap:round;stroke-width:1.4;"/>
   </g>
   <g id="line2d_43">
    <path clip-path="url(#pa70c5ebe15)" d="M 384.93696 411.339595 
L 403.441523 411.339595 
" style="fill:none;stroke:#6f6f6f;stroke-linecap:round;stroke-width:1.4;"/>
   </g>
   <g id="line2d_44">
    <path clip-path="url(#pa70c5ebe15)" d="M 384.93696 84.556645 
L 403.441523 84.556645 
" style="fill:none;stroke:#6f6f6f;stroke-linecap:round;stroke-width:1.4;"/>
   </g>
   <g id="line2d_45"/>
   <g id="line2d_46">
    <path clip-path="url(#pa70c5ebe15)" d="M 460.276966 348.821416 
L 460.276966 417.853982 
" style="fill:none;stroke:#6f6f6f;stroke-linecap:round;stroke-width:1.4;"/>
   </g>
   <g id="line2d_47">
    <path clip-path="url(#pa70c5ebe15)" d="M 460.276966 270.575645 
L 460.276966 215.509129 
" style="fill:none;stroke:#6f6f6f;stroke-linecap:round;stroke-width:1.4;"/>
   </g>
   <g id="line2d_48">
    <path clip-path="url(#pa70c5ebe15)" d="M 451.024684 417.853982 
L 469.529247 417.853982 
" style="fill:none;stroke:#6f6f6f;stroke-linecap:round;stroke-width:1.4;"/>
   </g>
   <g id="line2d_49">
    <path clip-path="url(#pa70c5ebe15)" d="M 451.024684 215.509129 
L 469.529247 215.509129 
" style="fill:none;stroke:#6f6f6f;stroke-linecap:round;stroke-width:1.4;"/>
   </g>
   <g id="line2d_50">
    <g clip-path="url(#pa70c5ebe15)">
     <use style="fill:#6f6f6f;stroke:#6f6f6f;stroke-linejoin:miter;" x="460.276966" xlink:href="#m6a33f2d4ee" y="84.556645"/>
     <use style="fill:#6f6f6f;stroke:#6f6f6f;stroke-linejoin:miter;" x="460.276966" xlink:href="#m6a33f2d4ee" y="127.23253"/>
    </g>
   </g>
   <g id="line2d_51">
    <path clip-path="url(#pa70c5ebe15)" d="M 498.041379 372.85153 
L 498.041379 417.853982 
" style="fill:none;stroke:#6f6f6f;stroke-linecap:round;stroke-width:1.4;"/>
   </g>
   <g id="line2d_52">
    <path clip-path="url(#pa70c5ebe15)" d="M 498.041379 272.011469 
L 498.041379 127.23253 
" style="fill:none;stroke:#6f6f6f;stroke-linecap:round;stroke-width:1.4;"/>
   </g>
   <g id="line2d_53">
    <path clip-path="url(#pa70c5ebe15)" d="M 488.789098 417.853982 
L 507.293661 417.853982 
" style="fill:none;stroke:#6f6f6f;stroke-linecap:round;stroke-width:1.4;"/>
   </g>
   <g id="line2d_54">
    <path clip-path="url(#pa70c5ebe15)" d="M 488.789098 127.23253 
L 507.293661 127.23253 
" style="fill:none;stroke:#6f6f6f;stroke-linecap:round;stroke-width:1.4;"/>
   </g>
   <g id="line2d_55">
    <g clip-path="url(#pa70c5ebe15)">
     <use style="fill:#6f6f6f;stroke:#6f6f6f;stroke-linejoin:miter;" x="498.041379" xlink:href="#m6a33f2d4ee" y="84.556645"/>
    </g>
   </g>
   <g id="line2d_56">
    <path clip-path="url(#pa70c5ebe15)" d="M 535.805793 385.282045 
L 535.805793 417.853982 
" style="fill:none;stroke:#6f6f6f;stroke-linecap:round;stroke-width:1.4;"/>
   </g>
   <g id="line2d_57">
    <path clip-path="url(#pa70c5ebe15)" d="M 535.805793 229.734424 
L 535.805793 127.23253 
" style="fill:none;stroke:#6f6f6f;stroke-linecap:round;stroke-width:1.4;"/>
   </g>
   <g id="line2d_58">
    <path clip-path="url(#pa70c5ebe15)" d="M 526.553512 417.853982 
L 545.058074 417.853982 
" style="fill:none;stroke:#6f6f6f;stroke-linecap:round;stroke-width:1.4;"/>
   </g>
   <g id="line2d_59">
    <path clip-path="url(#pa70c5ebe15)" d="M 526.553512 127.23253 
L 545.058074 127.23253 
" style="fill:none;stroke:#6f6f6f;stroke-linecap:round;stroke-width:1.4;"/>
   </g>
   <g id="line2d_60"/>
   <g id="line2d_61">
    <path clip-path="url(#pa70c5ebe15)" d="M 601.893517 364.276468 
L 601.893517 417.853982 
" style="fill:none;stroke:#6f6f6f;stroke-linecap:round;stroke-width:1.4;"/>
   </g>
   <g id="line2d_62">
    <path clip-path="url(#pa70c5ebe15)" d="M 601.893517 240.901945 
L 601.893517 84.556645 
" style="fill:none;stroke:#6f6f6f;stroke-linecap:round;stroke-width:1.4;"/>
   </g>
   <g id="line2d_63">
    <path clip-path="url(#pa70c5ebe15)" d="M 592.641236 417.853982 
L 611.145799 417.853982 
" style="fill:none;stroke:#6f6f6f;stroke-linecap:round;stroke-width:1.4;"/>
   </g>
   <g id="line2d_64">
    <path clip-path="url(#pa70c5ebe15)" d="M 592.641236 84.556645 
L 611.145799 84.556645 
" style="fill:none;stroke:#6f6f6f;stroke-linecap:round;stroke-width:1.4;"/>
   </g>
   <g id="line2d_65"/>
   <g id="line2d_66">
    <path clip-path="url(#pa70c5ebe15)" d="M 639.657931 394.721259 
L 639.657931 423.703636 
" style="fill:none;stroke:#6f6f6f;stroke-linecap:round;stroke-width:1.4;"/>
   </g>
   <g id="line2d_67">
    <path clip-path="url(#pa70c5ebe15)" d="M 639.657931 282.248364 
L 639.657931 194.503553 
" style="fill:none;stroke:#6f6f6f;stroke-linecap:round;stroke-width:1.4;"/>
   </g>
   <g id="line2d_68">
    <path clip-path="url(#pa70c5ebe15)" d="M 630.40565 423.703636 
L 648.910212 423.703636 
" style="fill:none;stroke:#6f6f6f;stroke-linecap:round;stroke-width:1.4;"/>
   </g>
   <g id="line2d_69">
    <path clip-path="url(#pa70c5ebe15)" d="M 630.40565 194.503553 
L 648.910212 194.503553 
" style="fill:none;stroke:#6f6f6f;stroke-linecap:round;stroke-width:1.4;"/>
   </g>
   <g id="line2d_70"/>
   <g id="line2d_71">
    <path clip-path="url(#pa70c5ebe15)" d="M 677.422345 343.669732 
L 677.422345 417.322196 
" style="fill:none;stroke:#6f6f6f;stroke-linecap:round;stroke-width:1.4;"/>
   </g>
   <g id="line2d_72">
    <path clip-path="url(#pa70c5ebe15)" d="M 677.422345 270.017269 
L 677.422345 188.520952 
" style="fill:none;stroke:#6f6f6f;stroke-linecap:round;stroke-width:1.4;"/>
   </g>
   <g id="line2d_73">
    <path clip-path="url(#pa70c5ebe15)" d="M 668.170063 417.322196 
L 686.674626 417.322196 
" style="fill:none;stroke:#6f6f6f;stroke-linecap:round;stroke-width:1.4;"/>
   </g>
   <g id="line2d_74">
    <path clip-path="url(#pa70c5ebe15)" d="M 668.170063 188.520952 
L 686.674626 188.520952 
" style="fill:none;stroke:#6f6f6f;stroke-linecap:round;stroke-width:1.4;"/>
   </g>
   <g id="line2d_75"/>
   <g id="line2d_76">
    <path clip-path="url(#pa70c5ebe15)" d="M 743.510069 359.124784 
L 743.510069 417.853982 
" style="fill:none;stroke:#6f6f6f;stroke-linecap:round;stroke-width:1.4;"/>
   </g>
   <g id="line2d_77">
    <path clip-path="url(#pa70c5ebe15)" d="M 743.510069 238.209775 
L 743.510069 84.556645 
" style="fill:none;stroke:#6f6f6f;stroke-linecap:round;stroke-width:1.4;"/>
   </g>
   <g id="line2d_78">
    <path clip-path="url(#pa70c5ebe15)" d="M 734.257788 417.853982 
L 752.76235 417.853982 
" style="fill:none;stroke:#6f6f6f;stroke-linecap:round;stroke-width:1.4;"/>
   </g>
   <g id="line2d_79">
    <path clip-path="url(#pa70c5ebe15)" d="M 734.257788 84.556645 
L 752.76235 84.556645 
" style="fill:none;stroke:#6f6f6f;stroke-linecap:round;stroke-width:1.4;"/>
   </g>
   <g id="line2d_80"/>
   <g id="line2d_81">
    <path clip-path="url(#pa70c5ebe15)" d="M 781.274483 345.663933 
L 781.274483 417.853982 
" style="fill:none;stroke:#6f6f6f;stroke-linecap:round;stroke-width:1.4;"/>
   </g>
   <g id="line2d_82">
    <path clip-path="url(#pa70c5ebe15)" d="M 781.274483 209.692711 
L 781.274483 77.776364 
" style="fill:none;stroke:#6f6f6f;stroke-linecap:round;stroke-width:1.4;"/>
   </g>
   <g id="line2d_83">
    <path clip-path="url(#pa70c5ebe15)" d="M 772.022201 417.853982 
L 790.526764 417.853982 
" style="fill:none;stroke:#6f6f6f;stroke-linecap:round;stroke-width:1.4;"/>
   </g>
   <g id="line2d_84">
    <path clip-path="url(#pa70c5ebe15)" d="M 772.022201 77.776364 
L 790.526764 77.776364 
" style="fill:none;stroke:#6f6f6f;stroke-linecap:round;stroke-width:1.4;"/>
   </g>
   <g id="line2d_85"/>
   <g id="line2d_86">
    <path clip-path="url(#pa70c5ebe15)" d="M 819.038897 382.058087 
L 819.038897 417.322196 
" style="fill:none;stroke:#6f6f6f;stroke-linecap:round;stroke-width:1.4;"/>
   </g>
   <g id="line2d_87">
    <path clip-path="url(#pa70c5ebe15)" d="M 819.038897 255.492844 
L 819.038897 188.520952 
" style="fill:none;stroke:#6f6f6f;stroke-linecap:round;stroke-width:1.4;"/>
   </g>
   <g id="line2d_88">
    <path clip-path="url(#pa70c5ebe15)" d="M 809.786615 417.322196 
L 828.291178 417.322196 
" style="fill:none;stroke:#6f6f6f;stroke-linecap:round;stroke-width:1.4;"/>
   </g>
   <g id="line2d_89">
    <path clip-path="url(#pa70c5ebe15)" d="M 809.786615 188.520952 
L 828.291178 188.520952 
" style="fill:none;stroke:#6f6f6f;stroke-linecap:round;stroke-width:1.4;"/>
   </g>
   <g id="line2d_90"/>
   <g id="line2d_91">
    <path clip-path="url(#pa70c5ebe15)" d="M 158.539299 318.808702 
L 195.548425 318.808702 
" style="fill:none;stroke:#6f6f6f;stroke-linecap:round;stroke-width:1.4;"/>
   </g>
   <g id="line2d_92">
    <path clip-path="url(#pa70c5ebe15)" d="M 196.303713 302.030831 
L 233.312839 302.030831 
" style="fill:none;stroke:#6f6f6f;stroke-linecap:round;stroke-width:1.4;"/>
   </g>
   <g id="line2d_93">
    <path clip-path="url(#pa70c5ebe15)" d="M 234.068127 361.617535 
L 271.077252 361.617535 
" style="fill:none;stroke:#6f6f6f;stroke-linecap:round;stroke-width:1.4;"/>
   </g>
   <g id="line2d_94">
    <path clip-path="url(#pa70c5ebe15)" d="M 300.155851 329.976224 
L 337.164977 329.976224 
" style="fill:none;stroke:#6f6f6f;stroke-linecap:round;stroke-width:1.4;"/>
   </g>
   <g id="line2d_95">
    <path clip-path="url(#pa70c5ebe15)" d="M 337.920265 368.397816 
L 374.92939 368.397816 
" style="fill:none;stroke:#6f6f6f;stroke-linecap:round;stroke-width:1.4;"/>
   </g>
   <g id="line2d_96">
    <path clip-path="url(#pa70c5ebe15)" d="M 375.684679 237.312385 
L 412.693804 237.312385 
" style="fill:none;stroke:#6f6f6f;stroke-linecap:round;stroke-width:1.4;"/>
   </g>
   <g id="line2d_97">
    <path clip-path="url(#pa70c5ebe15)" d="M 441.772403 324.392463 
L 478.781528 324.392463 
" style="fill:none;stroke:#6f6f6f;stroke-linecap:round;stroke-width:1.4;"/>
   </g>
   <g id="line2d_98">
    <path clip-path="url(#pa70c5ebe15)" d="M 479.536817 340.425833 
L 516.545942 340.425833 
" style="fill:none;stroke:#6f6f6f;stroke-linecap:round;stroke-width:1.4;"/>
   </g>
   <g id="line2d_99">
    <path clip-path="url(#pa70c5ebe15)" d="M 517.30123 326.785503 
L 554.310356 326.785503 
" style="fill:none;stroke:#6f6f6f;stroke-linecap:round;stroke-width:1.4;"/>
   </g>
   <g id="line2d_100">
    <path clip-path="url(#pa70c5ebe15)" d="M 583.388954 318.808702 
L 620.39808 318.808702 
" style="fill:none;stroke:#6f6f6f;stroke-linecap:round;stroke-width:1.4;"/>
   </g>
   <g id="line2d_101">
    <path clip-path="url(#pa70c5ebe15)" d="M 621.153368 364.276468 
L 658.162494 364.276468 
" style="fill:none;stroke:#6f6f6f;stroke-linecap:round;stroke-width:1.4;"/>
   </g>
   <g id="line2d_102">
    <path clip-path="url(#pa70c5ebe15)" d="M 658.917782 323.594783 
L 695.926908 323.594783 
" style="fill:none;stroke:#6f6f6f;stroke-linecap:round;stroke-width:1.4;"/>
   </g>
   <g id="line2d_103">
    <path clip-path="url(#pa70c5ebe15)" d="M 725.005506 318.808702 
L 762.014632 318.808702 
" style="fill:none;stroke:#6f6f6f;stroke-linecap:round;stroke-width:1.4;"/>
   </g>
   <g id="line2d_104">
    <path clip-path="url(#pa70c5ebe15)" d="M 762.76992 285.665094 
L 799.779046 285.665094 
" style="fill:none;stroke:#6f6f6f;stroke-linecap:round;stroke-width:1.4;"/>
   </g>
   <g id="line2d_105">
    <path clip-path="url(#pa70c5ebe15)" d="M 800.534334 343.669732 
L 837.543459 343.669732 
" style="fill:none;stroke:#6f6f6f;stroke-linecap:round;stroke-width:1.4;"/>
   </g>
   <g id="patch_21">
    <path d="M 144 441 
L 144 60.48 
" style="fill:none;stroke:#262626;stroke-linecap:square;stroke-linejoin:miter;stroke-width:1.25;"/>
   </g>
   <g id="patch_22">
    <path d="M 852.082759 441 
L 852.082759 60.48 
" style="fill:none;stroke:#262626;stroke-linecap:square;stroke-linejoin:miter;stroke-width:1.25;"/>
   </g>
   <g id="patch_23">
    <path d="M 144 441 
L 852.082759 441 
" style="fill:none;stroke:#262626;stroke-linecap:square;stroke-linejoin:miter;stroke-width:1.25;"/>
   </g>
   <g id="patch_24">
    <path d="M 144 60.48 
L 852.082759 60.48 
" style="fill:none;stroke:#262626;stroke-linecap:square;stroke-linejoin:miter;stroke-width:1.25;"/>
   </g>
   <g id="text_15">
    <!-- Sampling -->
    <g style="fill:#262626;" transform="translate(465.294718 54.48)scale(0.17 -0.17)">
     <defs>
      <path d="M 24.203125 3.390625 
C 18.59375 3.390625 11.40625 8.3125 8.296875 14.234375 
L 7.296875 14.125 
C 6.90625 10.515625 5.796875 6.796875 5 3.796875 
L 5.203125 3.5 
C 5.203125 3.5 11.703125 -1 23.40625 -1 
C 35.703125 -1 45.203125 6.5 45.203125 18.140625 
C 45.203125 29.78125 35.40625 35.1875 27.296875 38.21875 
C 22.203125 40.125 15.09375 43.03125 15.09375 51.359375 
C 15.09375 54.96875 17.09375 58.984375 19.703125 60.390625 
C 21.40625 61.296875 23.5 61.59375 25.796875 61.59375 
C 31.296875 61.59375 36.703125 57.28125 39.40625 51.0625 
L 40.40625 51.15625 
C 40.796875 54.765625 41.796875 58.171875 42.703125 61.1875 
L 42.5 61.484375 
C 42.5 61.484375 38.296875 66 26.59375 66 
C 23.90625 66 20.90625 65.484375 18 64.296875 
C 12.09375 61.796875 7 55.96875 7 48.640625 
C 7 38.109375 15.90625 33.1875 24.203125 29.6875 
C 30.703125 26.96875 35.90625 23.65625 35.90625 15.125 
C 35.90625 7.609375 30.09375 3.390625 24.203125 3.390625 
z
" id="Linux_Biolinum_T-83"/>
     </defs>
     <use transform="scale(0.996264)" xlink:href="#Linux_Biolinum_T-83"/>
     <use transform="translate(50.410904 0)scale(0.996264)" xlink:href="#Linux_Biolinum_T-97"/>
     <use transform="translate(98.331194 0)scale(0.996264)" xlink:href="#Linux_Biolinum_T-109"/>
     <use transform="translate(178.729712 0)scale(0.996264)" xlink:href="#Linux_Biolinum_T-112"/>
     <use transform="translate(230.834292 0)scale(0.996264)" xlink:href="#Linux_Biolinum_T-108"/>
     <use transform="translate(255.940127 0)scale(0.996264)" xlink:href="#Linux_Biolinum_T-105"/>
     <use transform="translate(281.843006 0)scale(0.996264)" xlink:href="#Linux_Biolinum_T-110"/>
     <use transform="translate(335.541585 0)scale(0.996264)" xlink:href="#Linux_Biolinum_T-103"/>
    </g>
   </g>
   <g id="legend_1">
    <g id="patch_25">
     <path d="M 154.08 433.8 
L 257.15738 433.8 
Q 260.03738 433.8 260.03738 430.92 
L 260.03738 369.853324 
Q 260.03738 366.973324 257.15738 366.973324 
L 154.08 366.973324 
Q 151.2 366.973324 151.2 369.853324 
L 151.2 430.92 
Q 151.2 433.8 154.08 433.8 
z
" style="fill:#ffffff;opacity:0.8;stroke:#cccccc;stroke-linejoin:miter;stroke-width:0.24;"/>
    </g>
    <g id="patch_26">
     <path d="M 156.96 383.040574 
L 185.76 383.040574 
L 185.76 372.960574 
L 156.96 372.960574 
z
" style="fill:#d3c4f6;stroke:#6f6f6f;stroke-linejoin:miter;stroke-width:0.7;"/>
    </g>
    <g id="text_16">
     <!-- MAXVOL -->
     <g style="fill:#262626;" transform="translate(197.28 383.040574)scale(0.144 -0.144)">
      <defs>
       <path d="M 19.296875 66.5 
C 15.796875 46.296875 10.296875 18.6875 6.40625 0 
C 7.5 0.296875 8.5 0.296875 9.703125 0.296875 
C 10.796875 0.296875 11.59375 0.296875 12.703125 0 
C 14.203125 10.5 17.625 32.796875 20.078125 47.921875 
L 20.515625 47.921875 
C 28.078125 32 35.09375 15.796875 41.5 0.296875 
L 43.40625 0.296875 
C 50.59375 16.71875 57.703125 31.890625 65.59375 47.59375 
L 65.953125 47.578125 
C 68.078125 31.8125 70.015625 16.578125 71.5 0 
C 73 0.296875 74.90625 0.296875 76.40625 0.296875 
C 77.90625 0.296875 80.5 0.296875 82 0 
C 78.40625 21.390625 75.40625 42.1875 72.59375 66.5 
L 70.09375 66.5 
L 45.84375 16.890625 
L 45 16.90625 
C 37.125 33.296875 29.984375 49.3125 22.59375 66.5 
z
" id="Linux_Biolinum_T-77"/>
       <path d="M 40.71875 27.453125 
C 37.421875 27.296875 33.28125 27.1875 30.296875 27.1875 
C 27.40625 27.1875 22.0625 27.375 19.859375 27.5 
L 30.40625 52.265625 
L 30.59375 52.265625 
C 34.703125 42.75 38.046875 34.46875 40.71875 27.453125 
z
M 17.90625 22.71875 
C 20.40625 22.890625 27.359375 23 30.796875 23 
C 34.59375 23 40.09375 22.890625 42.515625 22.71875 
C 47.421875 9.84375 49.6875 2.171875 50.296875 0 
C 52 0.28125 53.59375 0.28125 55.296875 0.28125 
C 57 0.28125 59.59375 0.28125 61.296875 0 
C 56.296875 9.921875 43.09375 43.921875 33.90625 66 
L 31.09375 66 
C 21.5 43.625 11.703125 21.71875 1.59375 0 
C 2.796875 0.28125 4 0.28125 5.09375 0.28125 
C 6.203125 0.28125 8.40625 0.28125 9.59375 0 
C 11.234375 6.015625 14.3125 14.125 17.90625 22.71875 
z
" id="Linux_Biolinum_T-65"/>
       <path d="M 56.40625 0 
C 48.296875 11.421875 41.8125 21.453125 33.15625 34.78125 
C 42.296875 48.1875 50.484375 58.921875 54.796875 65 
C 53.703125 64.703125 51.703125 64.703125 50.59375 64.703125 
C 49.5 64.703125 47.5 64.703125 46.40625 65 
C 40.984375 54.984375 38.5625 51.390625 30.203125 39.3125 
C 23.65625 49.34375 16.984375 59.03125 14.09375 65 
C 12.296875 64.703125 10.09375 64.703125 8.40625 64.703125 
C 6.703125 64.703125 4.5 64.703125 2.796875 65 
L 24.40625 32.34375 
L 2.296875 0 
C 3.40625 0.296875 5.40625 0.296875 6.5 0.296875 
C 7.703125 0.296875 9.59375 0.296875 10.703125 0 
C 16.015625 9.78125 21.8125 19.1875 27.4375 27.734375 
C 33.84375 18.078125 39.578125 10.015625 44.796875 0 
C 46.59375 0.296875 48.796875 0.296875 50.59375 0.296875 
C 52.40625 0.296875 54.59375 0.296875 56.40625 0 
z
" id="Linux_Biolinum_T-88"/>
       <path d="M 32.40625 13.25 
L 32.203125 13.25 
C 19.078125 43.734375 14.078125 61.53125 13.09375 65 
C 11.4375 64.8125 9.140625 64.703125 7.59375 64.703125 
C 6 64.703125 3.28125 64.8125 1.59375 65 
C 6.59375 54.859375 19.796875 20.953125 29 -1 
L 31.796875 -1 
C 41.40625 21.265625 51.203125 42.828125 61.296875 65 
C 60.09375 64.796875 58.203125 64.703125 57.296875 64.703125 
C 56.203125 64.703125 53.9375 64.796875 52.796875 65 
C 49.359375 52.09375 39.578125 29.90625 32.40625 13.25 
z
" id="Linux_Biolinum_T-86"/>
       <path d="M 35.5 61.59375 
C 49.59375 61.59375 58.59375 51.953125 58.59375 31.09375 
C 58.59375 13.125 50.296875 3.390625 38.90625 3.390625 
C 26.90625 3.390625 15.5 13.53125 15.5 32.796875 
C 15.5 53.859375 25.90625 61.59375 35.5 61.59375 
z
M 68.90625 33 
C 68.90625 52.859375 54.796875 66 36.796875 66 
C 18.90625 66 5.203125 50.75 5.203125 31.09375 
C 5.203125 11.3125 19.703125 -1 36.90625 -1 
C 56 -1 68.90625 12.921875 68.90625 33 
z
" id="Linux_Biolinum_T-79"/>
       <path d="M 19.09375 44.625 
C 19.09375 52.15625 19.296875 59.375 20.09375 64.6875 
L 20 65 
C 18.796875 64.796875 16 64.6875 14.796875 64.6875 
C 13.59375 64.6875 10.90625 64.796875 9.703125 65 
L 9.5 64.6875 
C 10.296875 58.96875 10.5 52.15625 10.5 44.625 
L 10.5 20.046875 
C 10.5 12.515625 10.296875 5.390625 9.5 0 
L 9.59375 -0.3125 
C 9.59375 -0.3125 11.40625 0 14.796875 0 
L 42.09375 0 
C 44.203125 0 46.5 -0.109375 48.09375 -0.3125 
L 48.296875 0 
C 48.203125 1.390625 48.09375 3.390625 48.09375 4.390625 
C 48.09375 5.390625 48.203125 7.09375 48.296875 7.90625 
L 48.09375 8.296875 
C 48.09375 8.296875 33.296875 6.09375 19.90625 6.09375 
C 19.203125 8.5 19.09375 18.328125 19.09375 20.046875 
z
" id="Linux_Biolinum_T-76"/>
      </defs>
      <use transform="scale(0.996264)" xlink:href="#Linux_Biolinum_T-77"/>
      <use transform="translate(88.268952 0)scale(0.996264)" xlink:href="#Linux_Biolinum_T-65"/>
      <use transform="translate(150.933922 0)scale(0.996264)" xlink:href="#Linux_Biolinum_T-88"/>
      <use transform="translate(211.207925 0)scale(0.996264)" xlink:href="#Linux_Biolinum_T-86"/>
      <use transform="translate(270.684792 0)scale(0.996264)" xlink:href="#Linux_Biolinum_T-79"/>
      <use transform="translate(344.507961 0)scale(0.996264)" xlink:href="#Linux_Biolinum_T-76"/>
     </g>
    </g>
    <g id="patch_27">
     <path d="M 156.96 403.876133 
L 185.76 403.876133 
L 185.76 393.796133 
L 156.96 393.796133 
z
" style="fill:#98daa7;stroke:#6f6f6f;stroke-linejoin:miter;stroke-width:0.7;"/>
    </g>
    <g id="text_17">
     <!-- cLHS -->
     <g style="fill:#262626;" transform="translate(197.28 403.876133)scale(0.144 -0.144)">
      <defs>
       <path d="M 53.59375 44.90625 
L 53.59375 37 
L 19 37 
L 19 44.90625 
C 19 52.328125 19.203125 59.453125 20 64.6875 
L 19.90625 65 
C 18.703125 64.796875 15.90625 64.6875 14.703125 64.6875 
C 13.5 64.6875 10.796875 64.796875 9.59375 65 
L 9.40625 64.6875 
C 10.203125 59.0625 10.40625 52.328125 10.40625 44.90625 
L 10.40625 20.421875 
C 10.40625 12.875 10.203125 5.734375 9.40625 0.296875 
L 9.5 0 
C 10.703125 0.1875 13.5 0.296875 14.703125 0.296875 
C 15.90625 0.296875 18.59375 0.1875 19.796875 0 
L 20 0.296875 
C 19.203125 6.03125 19 12.875 19 20.421875 
L 19 32.59375 
L 53.59375 32.59375 
L 53.59375 20.421875 
C 53.59375 12.875 53.40625 5.734375 52.59375 0.296875 
L 52.703125 0 
C 53.90625 0.1875 56.703125 0.296875 57.90625 0.296875 
C 59.09375 0.296875 61.796875 0.1875 63 0 
L 63.203125 0.296875 
C 62.40625 6.03125 62.203125 12.875 62.203125 20.421875 
L 62.203125 44.90625 
C 62.203125 52.328125 62.40625 59.453125 63.203125 64.6875 
L 63.09375 65 
C 61.90625 64.796875 59.09375 64.6875 57.90625 64.6875 
C 56.703125 64.6875 54 64.796875 52.796875 65 
L 52.59375 64.6875 
C 53.40625 59.0625 53.59375 52.328125 53.59375 44.90625 
z
" id="Linux_Biolinum_T-72"/>
      </defs>
      <use transform="scale(0.996264)" xlink:href="#Linux_Biolinum_T-99"/>
      <use transform="translate(42.739705 0)scale(0.996264)" xlink:href="#Linux_Biolinum_T-76"/>
      <use transform="translate(94.047332 0)scale(0.996264)" xlink:href="#Linux_Biolinum_T-72"/>
      <use transform="translate(166.376074 0)scale(0.996264)" xlink:href="#Linux_Biolinum_T-83"/>
     </g>
    </g>
    <g id="patch_28">
     <path d="M 156.96 424.711691 
L 185.76 424.711691 
L 185.76 414.631691 
L 156.96 414.631691 
z
" style="fill:#f2aba8;stroke:#6f6f6f;stroke-linejoin:miter;stroke-width:0.7;"/>
    </g>
    <g id="text_18">
     <!-- Random -->
     <g style="fill:#262626;" transform="translate(197.28 424.711691)scale(0.144 -0.144)">
      <defs>
       <path d="M 19 29 
C 22.5 29 25.578125 29.09375 28.28125 29.296875 
C 31.078125 26 33.234375 22.0625 35.796875 17.953125 
C 39.40625 12.140625 44.203125 3.40625 45.296875 0 
C 47.203125 0.296875 49.40625 0.296875 51.296875 0.296875 
C 53.296875 0.296875 55.296875 0.296875 57.296875 0 
L 57.5 0.296875 
C 52.5 5.96875 42.484375 21.84375 36.140625 30.296875 
C 38.8125 30.8125 40.796875 31.46875 42.203125 32.1875 
C 47.59375 34.921875 52.203125 40.1875 52.203125 48.515625 
C 52.203125 53.578125 50.5 57.734375 46.90625 61.1875 
C 42.09375 65.6875 34.5 66 28.203125 66 
C 25.703125 66 17.703125 65.296875 14.703125 65.296875 
C 13.5 65.296875 10.796875 65.390625 9.59375 65.59375 
L 9.40625 65.296875 
C 10.203125 59.5625 10.40625 52.671875 10.40625 45.0625 
L 10.40625 20.359375 
C 10.40625 12.84375 10.203125 5.71875 9.40625 0.296875 
L 9.59375 0 
C 10.796875 0.1875 13.5 0.296875 14.703125 0.296875 
C 15.90625 0.296875 18.59375 0.1875 19.796875 0 
L 20 0.296875 
C 19.203125 6.015625 19 12.84375 19 20.359375 
z
M 28.296875 61.6875 
C 34.40625 61.6875 42.59375 59.359375 42.59375 48.40625 
C 42.59375 36.03125 34.5 33 24.796875 33 
L 19 33 
L 19 57.234375 
C 19 61.1875 19.296875 61.6875 28.296875 61.6875 
z
" id="Linux_Biolinum_T-82"/>
       <path d="M 36.09375 11.3125 
C 32.453125 6.65625 27.859375 4.1875 23.796875 4.1875 
C 18.40625 4.1875 13.796875 9.609375 13.796875 22.140625 
C 13.796875 37.1875 21.765625 39.984375 26.59375 39.984375 
C 31.296875 39.984375 33.703125 37.984375 36.09375 34.171875 
z
M 36.09375 5.796875 
L 36.296875 5.796875 
L 36.796875 0 
C 36.796875 0.09375 37.09375 0 37.703125 0 
C 39.015625 0.171875 39.703125 0.296875 41.15625 0.296875 
C 42.40625 0.296875 44.296875 0.1875 45.59375 0 
L 45.796875 0.296875 
C 45 4.5625 44.09375 11.9375 44.09375 19.390625 
L 44.09375 50.109375 
C 44.09375 57.546875 44.5 62.78125 45 68.984375 
C 45 69.6875 44.71875 70 44.09375 70 
C 41.59375 68.984375 39.453125 68.28125 35.40625 67.984375 
L 35.203125 67.6875 
C 35.984375 63.390625 36.09375 55.9375 36.09375 48.3125 
L 36.09375 41.796875 
C 33.796875 43.09375 29.703125 44 27.703125 44 
C 14.6875 44 5.09375 35.015625 5.09375 21.484375 
C 5.09375 9 12.40625 -1 23.203125 -1 
C 28 -1 32.5 1.15625 36.09375 5.796875 
z
" id="Linux_Biolinum_T-100"/>
      </defs>
      <use transform="scale(0.996264)" xlink:href="#Linux_Biolinum_T-82"/>
      <use transform="translate(59.775871 0)scale(0.996264)" xlink:href="#Linux_Biolinum_T-97"/>
      <use transform="translate(107.696161 0)scale(0.996264)" xlink:href="#Linux_Biolinum_T-110"/>
      <use transform="translate(161.394739 0)scale(0.996264)" xlink:href="#Linux_Biolinum_T-100"/>
      <use transform="translate(214.196701 0)scale(0.996264)" xlink:href="#Linux_Biolinum_T-111"/>
      <use transform="translate(264.009902 0)scale(0.996264)" xlink:href="#Linux_Biolinum_T-109"/>
     </g>
    </g>
   </g>
  </g>
  <g id="axes_2">
   <g id="patch_29">
    <path d="M 882.868966 441 
L 1036.8 441 
L 1036.8 60.48 
L 882.868966 60.48 
z
" style="fill:#ffffff;"/>
   </g>
   <g id="matplotlib.axis_3">
    <g id="xtick_6">
     <g id="line2d_106">
      <g>
       <use style="fill:#262626;stroke:#262626;stroke-width:0.8;" x="959.834483" xlink:href="#m5858aaa7f8" y="441"/>
      </g>
     </g>
    </g>
    <g id="text_19">
     <!-- 51 -->
     <g style="fill:#262626;" transform="translate(951.8293 468.401174)scale(0.1728 -0.1728)">
      <use transform="scale(0.996264)" xlink:href="#Linux_Biolinum_T-53"/>
      <use transform="translate(46.326292 0)scale(0.996264)" xlink:href="#Linux_Biolinum_T-49"/>
     </g>
    </g>
   </g>
   <g id="matplotlib.axis_4">
    <g id="ytick_8">
     <g id="line2d_107">
      <g>
       <use style="fill:#262626;stroke:#262626;stroke-width:0.8;" x="882.868966" xlink:href="#m460a7181b0" y="423.400048"/>
      </g>
     </g>
    </g>
    <g id="ytick_9">
     <g id="line2d_108">
      <g>
       <use style="fill:#262626;stroke:#262626;stroke-width:0.8;" x="882.868966" xlink:href="#m460a7181b0" y="376.694145"/>
      </g>
     </g>
    </g>
    <g id="ytick_10">
     <g id="line2d_109">
      <g>
       <use style="fill:#262626;stroke:#262626;stroke-width:0.8;" x="882.868966" xlink:href="#m460a7181b0" y="329.988241"/>
      </g>
     </g>
    </g>
    <g id="ytick_11">
     <g id="line2d_110">
      <g>
       <use style="fill:#262626;stroke:#262626;stroke-width:0.8;" x="882.868966" xlink:href="#m460a7181b0" y="283.282338"/>
      </g>
     </g>
    </g>
    <g id="ytick_12">
     <g id="line2d_111">
      <g>
       <use style="fill:#262626;stroke:#262626;stroke-width:0.8;" x="882.868966" xlink:href="#m460a7181b0" y="236.576435"/>
      </g>
     </g>
    </g>
    <g id="ytick_13">
     <g id="line2d_112">
      <g>
       <use style="fill:#262626;stroke:#262626;stroke-width:0.8;" x="882.868966" xlink:href="#m460a7181b0" y="189.870532"/>
      </g>
     </g>
    </g>
    <g id="ytick_14">
     <g id="line2d_113">
      <g>
       <use style="fill:#262626;stroke:#262626;stroke-width:0.8;" x="882.868966" xlink:href="#m460a7181b0" y="143.164628"/>
      </g>
     </g>
    </g>
    <g id="ytick_15">
     <g id="line2d_114">
      <g>
       <use style="fill:#262626;stroke:#262626;stroke-width:0.8;" x="882.868966" xlink:href="#m460a7181b0" y="96.458725"/>
      </g>
     </g>
    </g>
   </g>
   <g id="patch_30">
    <path clip-path="url(#p127b365b6e)" d="M 940.593103 343.94163 
L 979.075862 343.94163 
L 979.075862 219.470398 
L 940.593103 219.470398 
L 940.593103 343.94163 
z
" style="fill:#abc9ea;stroke:#7a7a7a;stroke-linejoin:miter;stroke-width:1.4;"/>
   </g>
   <g id="line2d_115">
    <path clip-path="url(#p127b365b6e)" d="M 959.834483 343.94163 
L 959.834483 423.703636 
" style="fill:none;stroke:#7a7a7a;stroke-linecap:round;stroke-width:1.4;"/>
   </g>
   <g id="line2d_116">
    <path clip-path="url(#p127b365b6e)" d="M 959.834483 219.470398 
L 959.834483 77.776364 
" style="fill:none;stroke:#7a7a7a;stroke-linecap:round;stroke-width:1.4;"/>
   </g>
   <g id="line2d_117">
    <path clip-path="url(#p127b365b6e)" d="M 950.213793 423.703636 
L 969.455172 423.703636 
" style="fill:none;stroke:#7a7a7a;stroke-linecap:round;stroke-width:1.4;"/>
   </g>
   <g id="line2d_118">
    <path clip-path="url(#p127b365b6e)" d="M 950.213793 77.776364 
L 969.455172 77.776364 
" style="fill:none;stroke:#7a7a7a;stroke-linecap:round;stroke-width:1.4;"/>
   </g>
   <g id="line2d_119"/>
   <g id="line2d_120">
    <path clip-path="url(#p127b365b6e)" d="M 940.593103 289.47087 
L 979.075862 289.47087 
" style="fill:none;stroke:#7a7a7a;stroke-linecap:round;stroke-width:1.4;"/>
   </g>
   <g id="patch_31">
    <path d="M 882.868966 441 
L 882.868966 60.48 
" style="fill:none;stroke:#262626;stroke-linecap:square;stroke-linejoin:miter;stroke-width:1.25;"/>
   </g>
   <g id="patch_32">
    <path d="M 1036.8 441 
L 1036.8 60.48 
" style="fill:none;stroke:#262626;stroke-linecap:square;stroke-linejoin:miter;stroke-width:1.25;"/>
   </g>
   <g id="patch_33">
    <path d="M 882.868966 441 
L 1036.8 441 
" style="fill:none;stroke:#262626;stroke-linecap:square;stroke-linejoin:miter;stroke-width:1.25;"/>
   </g>
   <g id="patch_34">
    <path d="M 882.868966 60.48 
L 1036.8 60.48 
" style="fill:none;stroke:#262626;stroke-linecap:square;stroke-linejoin:miter;stroke-width:1.25;"/>
   </g>
   <g id="text_20">
    <!-- Original Data -->
    <g style="fill:#262626;" transform="translate(911.997423 54.48)scale(0.17 -0.17)">
     <defs>
      <path d="M 19 8.390625 
L 19 56.59375 
C 19 60.09375 22.5 60.59375 27.40625 60.59375 
C 49 60.59375 55.5 44 55.5 28.59375 
C 55.5 8.390625 44 4.390625 29.90625 4.390625 
C 20.09375 4.390625 19 5.1875 19 8.390625 
z
M 14.703125 64.6875 
C 11.296875 64.6875 9.59375 65 9.59375 65 
L 9.40625 64.6875 
C 10.203125 59 10.40625 52.203125 10.40625 44.6875 
L 10.40625 20.1875 
C 10.40625 12.6875 10.203125 5.59375 9.40625 0.1875 
L 9.5 -0.109375 
C 9.5 -0.109375 11.203125 0.1875 14.703125 0.1875 
C 21.796875 0.1875 22.703125 0 33 0 
C 47.09375 0 65.796875 6.390625 65.796875 31 
C 65.796875 49.59375 50.40625 65 31.203125 65 
C 24.796875 65 21.09375 64.6875 14.703125 64.6875 
z
" id="Linux_Biolinum_T-68"/>
     </defs>
     <use transform="scale(0.996264)" xlink:href="#Linux_Biolinum_T-79"/>
     <use transform="translate(73.823169 0)scale(0.996264)" xlink:href="#Linux_Biolinum_T-114"/>
     <use transform="translate(109.190496 0)scale(0.996264)" xlink:href="#Linux_Biolinum_T-105"/>
     <use transform="translate(135.093375 0)scale(0.996264)" xlink:href="#Linux_Biolinum_T-103"/>
     <use transform="translate(184.806898 0)scale(0.996264)" xlink:href="#Linux_Biolinum_T-105"/>
     <use transform="translate(210.709777 0)scale(0.996264)" xlink:href="#Linux_Biolinum_T-110"/>
     <use transform="translate(264.408356 0)scale(0.996264)" xlink:href="#Linux_Biolinum_T-97"/>
     <use transform="translate(312.328646 0)scale(0.996264)" xlink:href="#Linux_Biolinum_T-108"/>
     <use transform="translate(362.341081 0)scale(0.996264)" xlink:href="#Linux_Biolinum_T-68"/>
     <use transform="translate(433.075825 0)scale(0.996264)" xlink:href="#Linux_Biolinum_T-97"/>
     <use transform="translate(480.996115 0)scale(0.996264)" xlink:href="#Linux_Biolinum_T-116"/>
     <use transform="translate(514.869107 0)scale(0.996264)" xlink:href="#Linux_Biolinum_T-97"/>
    </g>
   </g>
  </g>
 </g>
 <defs>
  <clipPath id="pa70c5ebe15">
   <rect height="380.52" width="708.082759" x="144" y="60.48"/>
  </clipPath>
  <clipPath id="p127b365b6e">
   <rect height="380.52" width="153.931034" x="882.868966" y="60.48"/>
  </clipPath>
 </defs>
</svg>
