<?xml version="1.0" encoding="utf-8" standalone="no"?>
<!DOCTYPE svg PUBLIC "-//W3C//DTD SVG 1.1//EN"
  "http://www.w3.org/Graphics/SVG/1.1/DTD/svg11.dtd">
<!-- Created with matplotlib (https://matplotlib.org/) -->
<svg height="252pt" version="1.1" viewBox="0 0 360 252" width="360pt" xmlns="http://www.w3.org/2000/svg" xmlns:xlink="http://www.w3.org/1999/xlink">
 <metadata>
  <rdf:RDF xmlns:cc="http://creativecommons.org/ns#" xmlns:dc="http://purl.org/dc/elements/1.1/" xmlns:rdf="http://www.w3.org/1999/02/22-rdf-syntax-ns#">
   <cc:Work>
    <dc:type rdf:resource="http://purl.org/dc/dcmitype/StillImage"/>
    <dc:date>2021-01-21T18:03:12.505894</dc:date>
    <dc:format>image/svg+xml</dc:format>
    <dc:creator>
     <cc:Agent>
      <dc:title>Matplotlib v3.3.0, https://matplotlib.org/</dc:title>
     </cc:Agent>
    </dc:creator>
   </cc:Work>
  </rdf:RDF>
 </metadata>
 <defs>
  <style type="text/css">*{stroke-linecap:butt;stroke-linejoin:round;}</style>
 </defs>
 <g id="figure_1">
  <g id="patch_1">
   <path d="M 0 252 
L 360 252 
L 360 0 
L 0 0 
z
" style="fill:#ffffff;"/>
  </g>
  <g id="axes_1">
   <g id="patch_2">
    <path d="M 45 220.5 
L 324 220.5 
L 324 30.24 
L 45 30.24 
z
" style="fill:#ffffff;"/>
   </g>
   <g id="matplotlib.axis_1">
    <g id="xtick_1">
     <g id="line2d_1">
      <defs>
       <path d="M 0 0 
L 0 6 
" id="m822a413d51" style="stroke:#262626;stroke-width:1.25;"/>
      </defs>
      <g>
       <use style="fill:#262626;stroke:#262626;stroke-width:1.25;" x="67.248783" xlink:href="#m822a413d51" y="220.5"/>
      </g>
     </g>
     <g id="text_1">
      <!-- 10 -->
      <g style="fill:#262626;" transform="translate(61.131751 237.873594)scale(0.11 -0.11)">
       <defs>
        <path d="M 37.25 0 
L 28.46875 0 
L 28.46875 56 
Q 25.296875 52.984375 20.140625 49.953125 
Q 14.984375 46.921875 10.890625 45.40625 
L 10.890625 53.90625 
Q 18.265625 57.375 23.78125 62.296875 
Q 29.296875 67.234375 31.59375 71.875 
L 37.25 71.875 
z
" id="ArialMT-49"/>
        <path d="M 4.15625 35.296875 
Q 4.15625 48 6.765625 55.734375 
Q 9.375 63.484375 14.515625 67.671875 
Q 19.671875 71.875 27.484375 71.875 
Q 33.25 71.875 37.59375 69.546875 
Q 41.9375 67.234375 44.765625 62.859375 
Q 47.609375 58.5 49.21875 52.21875 
Q 50.828125 45.953125 50.828125 35.296875 
Q 50.828125 22.703125 48.234375 14.96875 
Q 45.65625 7.234375 40.5 3 
Q 35.359375 -1.21875 27.484375 -1.21875 
Q 17.140625 -1.21875 11.234375 6.203125 
Q 4.15625 15.140625 4.15625 35.296875 
z
M 13.1875 35.296875 
Q 13.1875 17.671875 17.3125 11.828125 
Q 21.4375 6 27.484375 6 
Q 33.546875 6 37.671875 11.859375 
Q 41.796875 17.71875 41.796875 35.296875 
Q 41.796875 52.984375 37.671875 58.78125 
Q 33.546875 64.59375 27.390625 64.59375 
Q 21.34375 64.59375 17.71875 59.46875 
Q 13.1875 52.9375 13.1875 35.296875 
z
" id="ArialMT-48"/>
       </defs>
       <use xlink:href="#ArialMT-49"/>
       <use x="55.615234" xlink:href="#ArialMT-48"/>
      </g>
     </g>
    </g>
    <g id="xtick_2">
     <g id="line2d_2">
      <g>
       <use style="fill:#262626;stroke:#262626;stroke-width:1.25;" x="116.660917" xlink:href="#m822a413d51" y="220.5"/>
      </g>
     </g>
     <g id="text_2">
      <!-- 20 -->
      <g style="fill:#262626;" transform="translate(110.543886 237.873594)scale(0.11 -0.11)">
       <defs>
        <path d="M 50.34375 8.453125 
L 50.34375 0 
L 3.03125 0 
Q 2.9375 3.171875 4.046875 6.109375 
Q 5.859375 10.9375 9.828125 15.625 
Q 13.8125 20.3125 21.34375 26.46875 
Q 33.015625 36.03125 37.109375 41.625 
Q 41.21875 47.21875 41.21875 52.203125 
Q 41.21875 57.421875 37.46875 61 
Q 33.734375 64.59375 27.734375 64.59375 
Q 21.390625 64.59375 17.578125 60.78125 
Q 13.765625 56.984375 13.71875 50.25 
L 4.6875 51.171875 
Q 5.609375 61.28125 11.65625 66.578125 
Q 17.71875 71.875 27.9375 71.875 
Q 38.234375 71.875 44.234375 66.15625 
Q 50.25 60.453125 50.25 52 
Q 50.25 47.703125 48.484375 43.546875 
Q 46.734375 39.40625 42.65625 34.8125 
Q 38.578125 30.21875 29.109375 22.21875 
Q 21.1875 15.578125 18.9375 13.203125 
Q 16.703125 10.84375 15.234375 8.453125 
z
" id="ArialMT-50"/>
       </defs>
       <use xlink:href="#ArialMT-50"/>
       <use x="55.615234" xlink:href="#ArialMT-48"/>
      </g>
     </g>
    </g>
    <g id="xtick_3">
     <g id="line2d_3">
      <g>
       <use style="fill:#262626;stroke:#262626;stroke-width:1.25;" x="166.073052" xlink:href="#m822a413d51" y="220.5"/>
      </g>
     </g>
     <g id="text_3">
      <!-- 30 -->
      <g style="fill:#262626;" transform="translate(159.956021 237.873594)scale(0.11 -0.11)">
       <defs>
        <path d="M 4.203125 18.890625 
L 12.984375 20.0625 
Q 14.5 12.59375 18.140625 9.296875 
Q 21.78125 6 27 6 
Q 33.203125 6 37.46875 10.296875 
Q 41.75 14.59375 41.75 20.953125 
Q 41.75 27 37.796875 30.921875 
Q 33.84375 34.859375 27.734375 34.859375 
Q 25.25 34.859375 21.53125 33.890625 
L 22.515625 41.609375 
Q 23.390625 41.5 23.921875 41.5 
Q 29.546875 41.5 34.03125 44.421875 
Q 38.53125 47.359375 38.53125 53.46875 
Q 38.53125 58.296875 35.25 61.46875 
Q 31.984375 64.65625 26.8125 64.65625 
Q 21.6875 64.65625 18.265625 61.421875 
Q 14.84375 58.203125 13.875 51.765625 
L 5.078125 53.328125 
Q 6.6875 62.15625 12.390625 67.015625 
Q 18.109375 71.875 26.609375 71.875 
Q 32.46875 71.875 37.390625 69.359375 
Q 42.328125 66.84375 44.9375 62.5 
Q 47.5625 58.15625 47.5625 53.265625 
Q 47.5625 48.640625 45.0625 44.828125 
Q 42.578125 41.015625 37.703125 38.765625 
Q 44.046875 37.3125 47.5625 32.6875 
Q 51.078125 28.078125 51.078125 21.140625 
Q 51.078125 11.765625 44.234375 5.25 
Q 37.40625 -1.265625 26.953125 -1.265625 
Q 17.53125 -1.265625 11.296875 4.34375 
Q 5.078125 9.96875 4.203125 18.890625 
z
" id="ArialMT-51"/>
       </defs>
       <use xlink:href="#ArialMT-51"/>
       <use x="55.615234" xlink:href="#ArialMT-48"/>
      </g>
     </g>
    </g>
    <g id="xtick_4">
     <g id="line2d_4">
      <g>
       <use style="fill:#262626;stroke:#262626;stroke-width:1.25;" x="215.485187" xlink:href="#m822a413d51" y="220.5"/>
      </g>
     </g>
     <g id="text_4">
      <!-- 40 -->
      <g style="fill:#262626;" transform="translate(209.368156 237.873594)scale(0.11 -0.11)">
       <defs>
        <path d="M 32.328125 0 
L 32.328125 17.140625 
L 1.265625 17.140625 
L 1.265625 25.203125 
L 33.9375 71.578125 
L 41.109375 71.578125 
L 41.109375 25.203125 
L 50.78125 25.203125 
L 50.78125 17.140625 
L 41.109375 17.140625 
L 41.109375 0 
z
M 32.328125 25.203125 
L 32.328125 57.46875 
L 9.90625 25.203125 
z
" id="ArialMT-52"/>
       </defs>
       <use xlink:href="#ArialMT-52"/>
       <use x="55.615234" xlink:href="#ArialMT-48"/>
      </g>
     </g>
    </g>
    <g id="xtick_5">
     <g id="line2d_5">
      <g>
       <use style="fill:#262626;stroke:#262626;stroke-width:1.25;" x="264.897322" xlink:href="#m822a413d51" y="220.5"/>
      </g>
     </g>
     <g id="text_5">
      <!-- 50 -->
      <g style="fill:#262626;" transform="translate(258.780291 237.873594)scale(0.11 -0.11)">
       <defs>
        <path d="M 4.15625 18.75 
L 13.375 19.53125 
Q 14.40625 12.796875 18.140625 9.390625 
Q 21.875 6 27.15625 6 
Q 33.5 6 37.890625 10.78125 
Q 42.28125 15.578125 42.28125 23.484375 
Q 42.28125 31 38.0625 35.34375 
Q 33.84375 39.703125 27 39.703125 
Q 22.75 39.703125 19.328125 37.765625 
Q 15.921875 35.84375 13.96875 32.765625 
L 5.71875 33.84375 
L 12.640625 70.609375 
L 48.25 70.609375 
L 48.25 62.203125 
L 19.671875 62.203125 
L 15.828125 42.96875 
Q 22.265625 47.46875 29.34375 47.46875 
Q 38.71875 47.46875 45.15625 40.96875 
Q 51.609375 34.46875 51.609375 24.265625 
Q 51.609375 14.546875 45.953125 7.46875 
Q 39.0625 -1.21875 27.15625 -1.21875 
Q 17.390625 -1.21875 11.203125 4.25 
Q 5.03125 9.71875 4.15625 18.75 
z
" id="ArialMT-53"/>
       </defs>
       <use xlink:href="#ArialMT-53"/>
       <use x="55.615234" xlink:href="#ArialMT-48"/>
      </g>
     </g>
    </g>
    <g id="xtick_6">
     <g id="line2d_6">
      <g>
       <use style="fill:#262626;stroke:#262626;stroke-width:1.25;" x="314.309457" xlink:href="#m822a413d51" y="220.5"/>
      </g>
     </g>
     <g id="text_6">
      <!-- 60 -->
      <g style="fill:#262626;" transform="translate(308.192426 237.873594)scale(0.11 -0.11)">
       <defs>
        <path d="M 49.75 54.046875 
L 41.015625 53.375 
Q 39.84375 58.546875 37.703125 60.890625 
Q 34.125 64.65625 28.90625 64.65625 
Q 24.703125 64.65625 21.53125 62.3125 
Q 17.390625 59.28125 14.984375 53.46875 
Q 12.59375 47.65625 12.5 36.921875 
Q 15.671875 41.75 20.265625 44.09375 
Q 24.859375 46.4375 29.890625 46.4375 
Q 38.671875 46.4375 44.84375 39.96875 
Q 51.03125 33.5 51.03125 23.25 
Q 51.03125 16.5 48.125 10.71875 
Q 45.21875 4.9375 40.140625 1.859375 
Q 35.0625 -1.21875 28.609375 -1.21875 
Q 17.625 -1.21875 10.6875 6.859375 
Q 3.765625 14.9375 3.765625 33.5 
Q 3.765625 54.25 11.421875 63.671875 
Q 18.109375 71.875 29.4375 71.875 
Q 37.890625 71.875 43.28125 67.140625 
Q 48.6875 62.40625 49.75 54.046875 
z
M 13.875 23.1875 
Q 13.875 18.65625 15.796875 14.5 
Q 17.71875 10.359375 21.1875 8.171875 
Q 24.65625 6 28.46875 6 
Q 34.03125 6 38.03125 10.484375 
Q 42.046875 14.984375 42.046875 22.703125 
Q 42.046875 30.125 38.078125 34.390625 
Q 34.125 38.671875 28.125 38.671875 
Q 22.171875 38.671875 18.015625 34.390625 
Q 13.875 30.125 13.875 23.1875 
z
" id="ArialMT-54"/>
       </defs>
       <use xlink:href="#ArialMT-54"/>
       <use x="55.615234" xlink:href="#ArialMT-48"/>
      </g>
     </g>
    </g>
    <g id="text_7">
     <!-- Wasserstein distance -->
     <g style="fill:#262626;" transform="translate(127.704375 252.649219)scale(0.12 -0.12)">
      <defs>
       <path d="M 20.21875 0 
L 1.21875 71.578125 
L 10.9375 71.578125 
L 21.828125 24.65625 
Q 23.578125 17.28125 24.859375 10.015625 
Q 27.59375 21.484375 28.078125 23.25 
L 41.703125 71.578125 
L 53.125 71.578125 
L 63.375 35.359375 
Q 67.234375 21.875 68.953125 10.015625 
Q 70.3125 16.796875 72.515625 25.59375 
L 83.734375 71.578125 
L 93.265625 71.578125 
L 73.640625 0 
L 64.5 0 
L 49.421875 54.546875 
Q 47.515625 61.375 47.171875 62.9375 
Q 46.046875 58.015625 45.0625 54.546875 
L 29.890625 0 
z
" id="ArialMT-87"/>
       <path d="M 40.4375 6.390625 
Q 35.546875 2.25 31.03125 0.53125 
Q 26.515625 -1.171875 21.34375 -1.171875 
Q 12.796875 -1.171875 8.203125 3 
Q 3.609375 7.171875 3.609375 13.671875 
Q 3.609375 17.484375 5.34375 20.625 
Q 7.078125 23.78125 9.890625 25.6875 
Q 12.703125 27.59375 16.21875 28.5625 
Q 18.796875 29.25 24.03125 29.890625 
Q 34.671875 31.15625 39.703125 32.90625 
Q 39.75 34.71875 39.75 35.203125 
Q 39.75 40.578125 37.25 42.78125 
Q 33.890625 45.75 27.25 45.75 
Q 21.046875 45.75 18.09375 43.578125 
Q 15.140625 41.40625 13.71875 35.890625 
L 5.125 37.0625 
Q 6.296875 42.578125 8.984375 45.96875 
Q 11.671875 49.359375 16.75 51.1875 
Q 21.828125 53.03125 28.515625 53.03125 
Q 35.15625 53.03125 39.296875 51.46875 
Q 43.453125 49.90625 45.40625 47.53125 
Q 47.359375 45.171875 48.140625 41.546875 
Q 48.578125 39.3125 48.578125 33.453125 
L 48.578125 21.734375 
Q 48.578125 9.46875 49.140625 6.21875 
Q 49.703125 2.984375 51.375 0 
L 42.1875 0 
Q 40.828125 2.734375 40.4375 6.390625 
z
M 39.703125 26.03125 
Q 34.90625 24.078125 25.34375 22.703125 
Q 19.921875 21.921875 17.671875 20.9375 
Q 15.4375 19.96875 14.203125 18.09375 
Q 12.984375 16.21875 12.984375 13.921875 
Q 12.984375 10.40625 15.640625 8.0625 
Q 18.3125 5.71875 23.4375 5.71875 
Q 28.515625 5.71875 32.46875 7.9375 
Q 36.421875 10.15625 38.28125 14.015625 
Q 39.703125 17 39.703125 22.796875 
z
" id="ArialMT-97"/>
       <path d="M 3.078125 15.484375 
L 11.765625 16.84375 
Q 12.5 11.625 15.84375 8.84375 
Q 19.1875 6.0625 25.203125 6.0625 
Q 31.25 6.0625 34.171875 8.515625 
Q 37.109375 10.984375 37.109375 14.3125 
Q 37.109375 17.28125 34.515625 19 
Q 32.71875 20.171875 25.53125 21.96875 
Q 15.875 24.421875 12.140625 26.203125 
Q 8.40625 27.984375 6.46875 31.125 
Q 4.546875 34.28125 4.546875 38.09375 
Q 4.546875 41.546875 6.125 44.5 
Q 7.71875 47.46875 10.453125 49.421875 
Q 12.5 50.921875 16.03125 51.96875 
Q 19.578125 53.03125 23.640625 53.03125 
Q 29.734375 53.03125 34.34375 51.265625 
Q 38.96875 49.515625 41.15625 46.5 
Q 43.359375 43.5 44.1875 38.484375 
L 35.59375 37.3125 
Q 35.015625 41.3125 32.203125 43.546875 
Q 29.390625 45.796875 24.265625 45.796875 
Q 18.21875 45.796875 15.625 43.796875 
Q 13.03125 41.796875 13.03125 39.109375 
Q 13.03125 37.40625 14.109375 36.03125 
Q 15.1875 34.625 17.484375 33.6875 
Q 18.796875 33.203125 25.25 31.453125 
Q 34.578125 28.953125 38.25 27.359375 
Q 41.9375 25.78125 44.03125 22.75 
Q 46.140625 19.734375 46.140625 15.234375 
Q 46.140625 10.84375 43.578125 6.953125 
Q 41.015625 3.078125 36.171875 0.953125 
Q 31.34375 -1.171875 25.25 -1.171875 
Q 15.140625 -1.171875 9.84375 3.03125 
Q 4.546875 7.234375 3.078125 15.484375 
z
" id="ArialMT-115"/>
       <path d="M 42.09375 16.703125 
L 51.171875 15.578125 
Q 49.03125 7.625 43.21875 3.21875 
Q 37.40625 -1.171875 28.375 -1.171875 
Q 17 -1.171875 10.328125 5.828125 
Q 3.65625 12.84375 3.65625 25.484375 
Q 3.65625 38.578125 10.390625 45.796875 
Q 17.140625 53.03125 27.875 53.03125 
Q 38.28125 53.03125 44.875 45.953125 
Q 51.46875 38.875 51.46875 26.03125 
Q 51.46875 25.25 51.421875 23.6875 
L 12.75 23.6875 
Q 13.234375 15.140625 17.578125 10.59375 
Q 21.921875 6.0625 28.421875 6.0625 
Q 33.25 6.0625 36.671875 8.59375 
Q 40.09375 11.140625 42.09375 16.703125 
z
M 13.234375 30.90625 
L 42.1875 30.90625 
Q 41.609375 37.453125 38.875 40.71875 
Q 34.671875 45.796875 27.984375 45.796875 
Q 21.921875 45.796875 17.796875 41.75 
Q 13.671875 37.703125 13.234375 30.90625 
z
" id="ArialMT-101"/>
       <path d="M 6.5 0 
L 6.5 51.859375 
L 14.40625 51.859375 
L 14.40625 44 
Q 17.4375 49.515625 20 51.265625 
Q 22.5625 53.03125 25.640625 53.03125 
Q 30.078125 53.03125 34.671875 50.203125 
L 31.640625 42.046875 
Q 28.421875 43.953125 25.203125 43.953125 
Q 22.3125 43.953125 20.015625 42.21875 
Q 17.71875 40.484375 16.75 37.40625 
Q 15.28125 32.71875 15.28125 27.15625 
L 15.28125 0 
z
" id="ArialMT-114"/>
       <path d="M 25.78125 7.859375 
L 27.046875 0.09375 
Q 23.34375 -0.6875 20.40625 -0.6875 
Q 15.625 -0.6875 12.984375 0.828125 
Q 10.359375 2.34375 9.28125 4.8125 
Q 8.203125 7.28125 8.203125 15.1875 
L 8.203125 45.015625 
L 1.765625 45.015625 
L 1.765625 51.859375 
L 8.203125 51.859375 
L 8.203125 64.703125 
L 16.9375 69.96875 
L 16.9375 51.859375 
L 25.78125 51.859375 
L 25.78125 45.015625 
L 16.9375 45.015625 
L 16.9375 14.703125 
Q 16.9375 10.9375 17.40625 9.859375 
Q 17.875 8.796875 18.921875 8.15625 
Q 19.96875 7.515625 21.921875 7.515625 
Q 23.390625 7.515625 25.78125 7.859375 
z
" id="ArialMT-116"/>
       <path d="M 6.640625 61.46875 
L 6.640625 71.578125 
L 15.4375 71.578125 
L 15.4375 61.46875 
z
M 6.640625 0 
L 6.640625 51.859375 
L 15.4375 51.859375 
L 15.4375 0 
z
" id="ArialMT-105"/>
       <path d="M 6.59375 0 
L 6.59375 51.859375 
L 14.5 51.859375 
L 14.5 44.484375 
Q 20.21875 53.03125 31 53.03125 
Q 35.6875 53.03125 39.625 51.34375 
Q 43.5625 49.65625 45.515625 46.921875 
Q 47.46875 44.1875 48.25 40.4375 
Q 48.734375 37.984375 48.734375 31.890625 
L 48.734375 0 
L 39.9375 0 
L 39.9375 31.546875 
Q 39.9375 36.921875 38.90625 39.578125 
Q 37.890625 42.234375 35.28125 43.8125 
Q 32.671875 45.40625 29.15625 45.40625 
Q 23.53125 45.40625 19.453125 41.84375 
Q 15.375 38.28125 15.375 28.328125 
L 15.375 0 
z
" id="ArialMT-110"/>
       <path id="ArialMT-32"/>
       <path d="M 40.234375 0 
L 40.234375 6.546875 
Q 35.296875 -1.171875 25.734375 -1.171875 
Q 19.53125 -1.171875 14.328125 2.25 
Q 9.125 5.671875 6.265625 11.796875 
Q 3.421875 17.921875 3.421875 25.875 
Q 3.421875 33.640625 6 39.96875 
Q 8.59375 46.296875 13.765625 49.65625 
Q 18.953125 53.03125 25.34375 53.03125 
Q 30.03125 53.03125 33.6875 51.046875 
Q 37.359375 49.078125 39.65625 45.90625 
L 39.65625 71.578125 
L 48.390625 71.578125 
L 48.390625 0 
z
M 12.453125 25.875 
Q 12.453125 15.921875 16.640625 10.984375 
Q 20.84375 6.0625 26.5625 6.0625 
Q 32.328125 6.0625 36.34375 10.765625 
Q 40.375 15.484375 40.375 25.140625 
Q 40.375 35.796875 36.265625 40.765625 
Q 32.171875 45.75 26.171875 45.75 
Q 20.3125 45.75 16.375 40.96875 
Q 12.453125 36.1875 12.453125 25.875 
z
" id="ArialMT-100"/>
       <path d="M 40.4375 19 
L 49.078125 17.875 
Q 47.65625 8.9375 41.8125 3.875 
Q 35.984375 -1.171875 27.484375 -1.171875 
Q 16.84375 -1.171875 10.375 5.78125 
Q 3.90625 12.75 3.90625 25.734375 
Q 3.90625 34.125 6.6875 40.421875 
Q 9.46875 46.734375 15.15625 49.875 
Q 20.84375 53.03125 27.546875 53.03125 
Q 35.984375 53.03125 41.359375 48.75 
Q 46.734375 44.484375 48.25 36.625 
L 39.703125 35.296875 
Q 38.484375 40.53125 35.375 43.15625 
Q 32.28125 45.796875 27.875 45.796875 
Q 21.234375 45.796875 17.078125 41.03125 
Q 12.9375 36.28125 12.9375 25.984375 
Q 12.9375 15.53125 16.9375 10.796875 
Q 20.953125 6.0625 27.390625 6.0625 
Q 32.5625 6.0625 36.03125 9.234375 
Q 39.5 12.40625 40.4375 19 
z
" id="ArialMT-99"/>
      </defs>
      <use xlink:href="#ArialMT-87"/>
      <use x="90.634766" xlink:href="#ArialMT-97"/>
      <use x="146.25" xlink:href="#ArialMT-115"/>
      <use x="196.25" xlink:href="#ArialMT-115"/>
      <use x="246.25" xlink:href="#ArialMT-101"/>
      <use x="301.865234" xlink:href="#ArialMT-114"/>
      <use x="335.166016" xlink:href="#ArialMT-115"/>
      <use x="385.166016" xlink:href="#ArialMT-116"/>
      <use x="412.949219" xlink:href="#ArialMT-101"/>
      <use x="468.564453" xlink:href="#ArialMT-105"/>
      <use x="490.78125" xlink:href="#ArialMT-110"/>
      <use x="546.396484" xlink:href="#ArialMT-32"/>
      <use x="574.179688" xlink:href="#ArialMT-100"/>
      <use x="629.794922" xlink:href="#ArialMT-105"/>
      <use x="652.011719" xlink:href="#ArialMT-115"/>
      <use x="702.011719" xlink:href="#ArialMT-116"/>
      <use x="729.794922" xlink:href="#ArialMT-97"/>
      <use x="785.410156" xlink:href="#ArialMT-110"/>
      <use x="841.025391" xlink:href="#ArialMT-99"/>
      <use x="891.025391" xlink:href="#ArialMT-101"/>
     </g>
    </g>
   </g>
   <g id="matplotlib.axis_2">
    <g id="ytick_1">
     <g id="line2d_7">
      <defs>
       <path d="M 0 0 
L -6 0 
" id="m52f8d7c5f9" style="stroke:#262626;stroke-width:1.25;"/>
      </defs>
      <g>
       <use style="fill:#262626;stroke:#262626;stroke-width:1.25;" x="45" xlink:href="#m52f8d7c5f9" y="220.5"/>
      </g>
     </g>
     <g id="text_8">
      <!-- 0 -->
      <g style="fill:#262626;" transform="translate(29.382969 224.436797)scale(0.11 -0.11)">
       <use xlink:href="#ArialMT-48"/>
      </g>
     </g>
    </g>
    <g id="ytick_2">
     <g id="line2d_8">
      <g>
       <use style="fill:#262626;stroke:#262626;stroke-width:1.25;" x="45" xlink:href="#m52f8d7c5f9" y="193.25188"/>
      </g>
     </g>
     <g id="text_9">
      <!-- 20 -->
      <g style="fill:#262626;" transform="translate(23.265937 197.188677)scale(0.11 -0.11)">
       <use xlink:href="#ArialMT-50"/>
       <use x="55.615234" xlink:href="#ArialMT-48"/>
      </g>
     </g>
    </g>
    <g id="ytick_3">
     <g id="line2d_9">
      <g>
       <use style="fill:#262626;stroke:#262626;stroke-width:1.25;" x="45" xlink:href="#m52f8d7c5f9" y="166.003759"/>
      </g>
     </g>
     <g id="text_10">
      <!-- 40 -->
      <g style="fill:#262626;" transform="translate(23.265937 169.940556)scale(0.11 -0.11)">
       <use xlink:href="#ArialMT-52"/>
       <use x="55.615234" xlink:href="#ArialMT-48"/>
      </g>
     </g>
    </g>
    <g id="ytick_4">
     <g id="line2d_10">
      <g>
       <use style="fill:#262626;stroke:#262626;stroke-width:1.25;" x="45" xlink:href="#m52f8d7c5f9" y="138.755639"/>
      </g>
     </g>
     <g id="text_11">
      <!-- 60 -->
      <g style="fill:#262626;" transform="translate(23.265937 142.692436)scale(0.11 -0.11)">
       <use xlink:href="#ArialMT-54"/>
       <use x="55.615234" xlink:href="#ArialMT-48"/>
      </g>
     </g>
    </g>
    <g id="ytick_5">
     <g id="line2d_11">
      <g>
       <use style="fill:#262626;stroke:#262626;stroke-width:1.25;" x="45" xlink:href="#m52f8d7c5f9" y="111.507519"/>
      </g>
     </g>
     <g id="text_12">
      <!-- 80 -->
      <g style="fill:#262626;" transform="translate(23.265937 115.444316)scale(0.11 -0.11)">
       <defs>
        <path d="M 17.671875 38.8125 
Q 12.203125 40.828125 9.5625 44.53125 
Q 6.9375 48.25 6.9375 53.421875 
Q 6.9375 61.234375 12.546875 66.546875 
Q 18.171875 71.875 27.484375 71.875 
Q 36.859375 71.875 42.578125 66.421875 
Q 48.296875 60.984375 48.296875 53.171875 
Q 48.296875 48.1875 45.671875 44.5 
Q 43.0625 40.828125 37.75 38.8125 
Q 44.34375 36.671875 47.78125 31.875 
Q 51.21875 27.09375 51.21875 20.453125 
Q 51.21875 11.28125 44.71875 5.03125 
Q 38.234375 -1.21875 27.640625 -1.21875 
Q 17.046875 -1.21875 10.546875 5.046875 
Q 4.046875 11.328125 4.046875 20.703125 
Q 4.046875 27.6875 7.59375 32.390625 
Q 11.140625 37.109375 17.671875 38.8125 
z
M 15.921875 53.71875 
Q 15.921875 48.640625 19.1875 45.40625 
Q 22.46875 42.1875 27.6875 42.1875 
Q 32.765625 42.1875 36.015625 45.375 
Q 39.265625 48.578125 39.265625 53.21875 
Q 39.265625 58.0625 35.90625 61.359375 
Q 32.5625 64.65625 27.59375 64.65625 
Q 22.5625 64.65625 19.234375 61.421875 
Q 15.921875 58.203125 15.921875 53.71875 
z
M 13.09375 20.65625 
Q 13.09375 16.890625 14.875 13.375 
Q 16.65625 9.859375 20.171875 7.921875 
Q 23.6875 6 27.734375 6 
Q 34.03125 6 38.125 10.046875 
Q 42.234375 14.109375 42.234375 20.359375 
Q 42.234375 26.703125 38.015625 30.859375 
Q 33.796875 35.015625 27.4375 35.015625 
Q 21.234375 35.015625 17.15625 30.90625 
Q 13.09375 26.8125 13.09375 20.65625 
z
" id="ArialMT-56"/>
       </defs>
       <use xlink:href="#ArialMT-56"/>
       <use x="55.615234" xlink:href="#ArialMT-48"/>
      </g>
     </g>
    </g>
    <g id="ytick_6">
     <g id="line2d_12">
      <g>
       <use style="fill:#262626;stroke:#262626;stroke-width:1.25;" x="45" xlink:href="#m52f8d7c5f9" y="84.259398"/>
      </g>
     </g>
     <g id="text_13">
      <!-- 100 -->
      <g style="fill:#262626;" transform="translate(17.148906 88.196195)scale(0.11 -0.11)">
       <use xlink:href="#ArialMT-49"/>
       <use x="55.615234" xlink:href="#ArialMT-48"/>
       <use x="111.230469" xlink:href="#ArialMT-48"/>
      </g>
     </g>
    </g>
    <g id="ytick_7">
     <g id="line2d_13">
      <g>
       <use style="fill:#262626;stroke:#262626;stroke-width:1.25;" x="45" xlink:href="#m52f8d7c5f9" y="57.011278"/>
      </g>
     </g>
     <g id="text_14">
      <!-- 120 -->
      <g style="fill:#262626;" transform="translate(17.148906 60.948075)scale(0.11 -0.11)">
       <use xlink:href="#ArialMT-49"/>
       <use x="55.615234" xlink:href="#ArialMT-50"/>
       <use x="111.230469" xlink:href="#ArialMT-48"/>
      </g>
     </g>
    </g>
    <g id="text_15">
     <!-- Count -->
     <g style="fill:#262626;" transform="translate(10.763906 141.379687)rotate(-90)scale(0.12 -0.12)">
      <defs>
       <path d="M 58.796875 25.09375 
L 68.265625 22.703125 
Q 65.28125 11.03125 57.546875 4.90625 
Q 49.8125 -1.21875 38.625 -1.21875 
Q 27.046875 -1.21875 19.796875 3.484375 
Q 12.546875 8.203125 8.765625 17.140625 
Q 4.984375 26.078125 4.984375 36.328125 
Q 4.984375 47.515625 9.25 55.828125 
Q 13.53125 64.15625 21.40625 68.46875 
Q 29.296875 72.796875 38.765625 72.796875 
Q 49.515625 72.796875 56.828125 67.328125 
Q 64.15625 61.859375 67.046875 51.953125 
L 57.71875 49.75 
Q 55.21875 57.5625 50.484375 61.125 
Q 45.75 64.703125 38.578125 64.703125 
Q 30.328125 64.703125 24.78125 60.734375 
Q 19.234375 56.78125 16.984375 50.109375 
Q 14.75 43.453125 14.75 36.375 
Q 14.75 27.25 17.40625 20.4375 
Q 20.0625 13.625 25.671875 10.25 
Q 31.296875 6.890625 37.84375 6.890625 
Q 45.796875 6.890625 51.3125 11.46875 
Q 56.84375 16.0625 58.796875 25.09375 
z
" id="ArialMT-67"/>
       <path d="M 3.328125 25.921875 
Q 3.328125 40.328125 11.328125 47.265625 
Q 18.015625 53.03125 27.640625 53.03125 
Q 38.328125 53.03125 45.109375 46.015625 
Q 51.90625 39.015625 51.90625 26.65625 
Q 51.90625 16.65625 48.90625 10.90625 
Q 45.90625 5.171875 40.15625 2 
Q 34.421875 -1.171875 27.640625 -1.171875 
Q 16.75 -1.171875 10.03125 5.8125 
Q 3.328125 12.796875 3.328125 25.921875 
z
M 12.359375 25.921875 
Q 12.359375 15.96875 16.703125 11.015625 
Q 21.046875 6.0625 27.640625 6.0625 
Q 34.1875 6.0625 38.53125 11.03125 
Q 42.875 16.015625 42.875 26.21875 
Q 42.875 35.84375 38.5 40.796875 
Q 34.125 45.75 27.640625 45.75 
Q 21.046875 45.75 16.703125 40.8125 
Q 12.359375 35.890625 12.359375 25.921875 
z
" id="ArialMT-111"/>
       <path d="M 40.578125 0 
L 40.578125 7.625 
Q 34.515625 -1.171875 24.125 -1.171875 
Q 19.53125 -1.171875 15.546875 0.578125 
Q 11.578125 2.34375 9.640625 5 
Q 7.71875 7.671875 6.9375 11.53125 
Q 6.390625 14.109375 6.390625 19.734375 
L 6.390625 51.859375 
L 15.1875 51.859375 
L 15.1875 23.09375 
Q 15.1875 16.21875 15.71875 13.8125 
Q 16.546875 10.359375 19.234375 8.375 
Q 21.921875 6.390625 25.875 6.390625 
Q 29.828125 6.390625 33.296875 8.421875 
Q 36.765625 10.453125 38.203125 13.9375 
Q 39.65625 17.4375 39.65625 24.078125 
L 39.65625 51.859375 
L 48.4375 51.859375 
L 48.4375 0 
z
" id="ArialMT-117"/>
      </defs>
      <use xlink:href="#ArialMT-67"/>
      <use x="72.216797" xlink:href="#ArialMT-111"/>
      <use x="127.832031" xlink:href="#ArialMT-117"/>
      <use x="183.447266" xlink:href="#ArialMT-110"/>
      <use x="239.0625" xlink:href="#ArialMT-116"/>
     </g>
    </g>
   </g>
   <g id="patch_3">
    <path clip-path="url(#pd28f73787c)" d="M 57.681818 220.5 
L 66.74026 220.5 
L 66.74026 197.339098 
L 57.681818 197.339098 
z
" style="fill:#ff0000;fill-opacity:0.5;stroke:#ffffff;stroke-linejoin:miter;stroke-width:0.905844;"/>
   </g>
   <g id="patch_4">
    <path clip-path="url(#pd28f73787c)" d="M 66.74026 220.5 
L 75.798701 220.5 
L 75.798701 164.641353 
L 66.74026 164.641353 
z
" style="fill:#ff0000;fill-opacity:0.5;stroke:#ffffff;stroke-linejoin:miter;stroke-width:0.905844;"/>
   </g>
   <g id="patch_5">
    <path clip-path="url(#pd28f73787c)" d="M 75.798701 220.5 
L 84.857143 220.5 
L 84.857143 110.145113 
L 75.798701 110.145113 
z
" style="fill:#ff0000;fill-opacity:0.5;stroke:#ffffff;stroke-linejoin:miter;stroke-width:0.905844;"/>
   </g>
   <g id="patch_6">
    <path clip-path="url(#pd28f73787c)" d="M 84.857143 220.5 
L 93.915584 220.5 
L 93.915584 50.199248 
L 84.857143 50.199248 
z
" style="fill:#ff0000;fill-opacity:0.5;stroke:#ffffff;stroke-linejoin:miter;stroke-width:0.905844;"/>
   </g>
   <g id="patch_7">
    <path clip-path="url(#pd28f73787c)" d="M 93.915584 220.5 
L 102.974026 220.5 
L 102.974026 39.3 
L 93.915584 39.3 
z
" style="fill:#ff0000;fill-opacity:0.5;stroke:#ffffff;stroke-linejoin:miter;stroke-width:0.905844;"/>
   </g>
   <g id="patch_8">
    <path clip-path="url(#pd28f73787c)" d="M 102.974026 220.5 
L 112.032468 220.5 
L 112.032468 69.272932 
L 102.974026 69.272932 
z
" style="fill:#ff0000;fill-opacity:0.5;stroke:#ffffff;stroke-linejoin:miter;stroke-width:0.905844;"/>
   </g>
   <g id="patch_9">
    <path clip-path="url(#pd28f73787c)" d="M 112.032468 220.5 
L 121.090909 220.5 
L 121.090909 92.433835 
L 112.032468 92.433835 
z
" style="fill:#ff0000;fill-opacity:0.5;stroke:#ffffff;stroke-linejoin:miter;stroke-width:0.905844;"/>
   </g>
   <g id="patch_10">
    <path clip-path="url(#pd28f73787c)" d="M 121.090909 220.5 
L 130.149351 220.5 
L 130.149351 97.883459 
L 121.090909 97.883459 
z
" style="fill:#ff0000;fill-opacity:0.5;stroke:#ffffff;stroke-linejoin:miter;stroke-width:0.905844;"/>
   </g>
   <g id="patch_11">
    <path clip-path="url(#pd28f73787c)" d="M 130.149351 220.5 
L 139.207792 220.5 
L 139.207792 134.668421 
L 130.149351 134.668421 
z
" style="fill:#ff0000;fill-opacity:0.5;stroke:#ffffff;stroke-linejoin:miter;stroke-width:0.905844;"/>
   </g>
   <g id="patch_12">
    <path clip-path="url(#pd28f73787c)" d="M 139.207792 220.5 
L 148.266234 220.5 
L 148.266234 126.493985 
L 139.207792 126.493985 
z
" style="fill:#ff0000;fill-opacity:0.5;stroke:#ffffff;stroke-linejoin:miter;stroke-width:0.905844;"/>
   </g>
   <g id="patch_13">
    <path clip-path="url(#pd28f73787c)" d="M 148.266234 220.5 
L 157.324675 220.5 
L 157.324675 163.278947 
L 148.266234 163.278947 
z
" style="fill:#ff0000;fill-opacity:0.5;stroke:#ffffff;stroke-linejoin:miter;stroke-width:0.905844;"/>
   </g>
   <g id="patch_14">
    <path clip-path="url(#pd28f73787c)" d="M 157.324675 220.5 
L 166.383117 220.5 
L 166.383117 172.815789 
L 157.324675 172.815789 
z
" style="fill:#ff0000;fill-opacity:0.5;stroke:#ffffff;stroke-linejoin:miter;stroke-width:0.905844;"/>
   </g>
   <g id="patch_15">
    <path clip-path="url(#pd28f73787c)" d="M 166.383117 220.5 
L 175.441558 220.5 
L 175.441558 190.527068 
L 166.383117 190.527068 
z
" style="fill:#ff0000;fill-opacity:0.5;stroke:#ffffff;stroke-linejoin:miter;stroke-width:0.905844;"/>
   </g>
   <g id="patch_16">
    <path clip-path="url(#pd28f73787c)" d="M 175.441558 220.5 
L 184.5 220.5 
L 184.5 190.527068 
L 175.441558 190.527068 
z
" style="fill:#ff0000;fill-opacity:0.5;stroke:#ffffff;stroke-linejoin:miter;stroke-width:0.905844;"/>
   </g>
   <g id="patch_17">
    <path clip-path="url(#pd28f73787c)" d="M 184.5 220.5 
L 193.558442 220.5 
L 193.558442 204.151128 
L 184.5 204.151128 
z
" style="fill:#ff0000;fill-opacity:0.5;stroke:#ffffff;stroke-linejoin:miter;stroke-width:0.905844;"/>
   </g>
   <g id="patch_18">
    <path clip-path="url(#pd28f73787c)" d="M 193.558442 220.5 
L 202.616883 220.5 
L 202.616883 206.87594 
L 193.558442 206.87594 
z
" style="fill:#ff0000;fill-opacity:0.5;stroke:#ffffff;stroke-linejoin:miter;stroke-width:0.905844;"/>
   </g>
   <g id="patch_19">
    <path clip-path="url(#pd28f73787c)" d="M 202.616883 220.5 
L 211.675325 220.5 
L 211.675325 208.238346 
L 202.616883 208.238346 
z
" style="fill:#ff0000;fill-opacity:0.5;stroke:#ffffff;stroke-linejoin:miter;stroke-width:0.905844;"/>
   </g>
   <g id="patch_20">
    <path clip-path="url(#pd28f73787c)" d="M 211.675325 220.5 
L 220.733766 220.5 
L 220.733766 210.963158 
L 211.675325 210.963158 
z
" style="fill:#ff0000;fill-opacity:0.5;stroke:#ffffff;stroke-linejoin:miter;stroke-width:0.905844;"/>
   </g>
   <g id="patch_21">
    <path clip-path="url(#pd28f73787c)" d="M 220.733766 220.5 
L 229.792208 220.5 
L 229.792208 213.68797 
L 220.733766 213.68797 
z
" style="fill:#ff0000;fill-opacity:0.5;stroke:#ffffff;stroke-linejoin:miter;stroke-width:0.905844;"/>
   </g>
   <g id="patch_22">
    <path clip-path="url(#pd28f73787c)" d="M 229.792208 220.5 
L 238.850649 220.5 
L 238.850649 213.68797 
L 229.792208 213.68797 
z
" style="fill:#ff0000;fill-opacity:0.5;stroke:#ffffff;stroke-linejoin:miter;stroke-width:0.905844;"/>
   </g>
   <g id="patch_23">
    <path clip-path="url(#pd28f73787c)" d="M 238.850649 220.5 
L 247.909091 220.5 
L 247.909091 219.137594 
L 238.850649 219.137594 
z
" style="fill:#ff0000;fill-opacity:0.5;stroke:#ffffff;stroke-linejoin:miter;stroke-width:0.905844;"/>
   </g>
   <g id="patch_24">
    <path clip-path="url(#pd28f73787c)" d="M 247.909091 220.5 
L 256.967532 220.5 
L 256.967532 215.050376 
L 247.909091 215.050376 
z
" style="fill:#ff0000;fill-opacity:0.5;stroke:#ffffff;stroke-linejoin:miter;stroke-width:0.905844;"/>
   </g>
   <g id="patch_25">
    <path clip-path="url(#pd28f73787c)" d="M 256.967532 220.5 
L 266.025974 220.5 
L 266.025974 219.137594 
L 256.967532 219.137594 
z
" style="fill:#ff0000;fill-opacity:0.5;stroke:#ffffff;stroke-linejoin:miter;stroke-width:0.905844;"/>
   </g>
   <g id="patch_26">
    <path clip-path="url(#pd28f73787c)" d="M 266.025974 220.5 
L 275.084416 220.5 
L 275.084416 220.5 
L 266.025974 220.5 
z
" style="fill:#ff0000;fill-opacity:0.5;stroke:#ffffff;stroke-linejoin:miter;stroke-width:0.905844;"/>
   </g>
   <g id="patch_27">
    <path clip-path="url(#pd28f73787c)" d="M 275.084416 220.5 
L 284.142857 220.5 
L 284.142857 220.5 
L 275.084416 220.5 
z
" style="fill:#ff0000;fill-opacity:0.5;stroke:#ffffff;stroke-linejoin:miter;stroke-width:0.905844;"/>
   </g>
   <g id="patch_28">
    <path clip-path="url(#pd28f73787c)" d="M 284.142857 220.5 
L 293.201299 220.5 
L 293.201299 220.5 
L 284.142857 220.5 
z
" style="fill:#ff0000;fill-opacity:0.5;stroke:#ffffff;stroke-linejoin:miter;stroke-width:0.905844;"/>
   </g>
   <g id="patch_29">
    <path clip-path="url(#pd28f73787c)" d="M 293.201299 220.5 
L 302.25974 220.5 
L 302.25974 220.5 
L 293.201299 220.5 
z
" style="fill:#ff0000;fill-opacity:0.5;stroke:#ffffff;stroke-linejoin:miter;stroke-width:0.905844;"/>
   </g>
   <g id="patch_30">
    <path clip-path="url(#pd28f73787c)" d="M 302.25974 220.5 
L 311.318182 220.5 
L 311.318182 219.137594 
L 302.25974 219.137594 
z
" style="fill:#ff0000;fill-opacity:0.5;stroke:#ffffff;stroke-linejoin:miter;stroke-width:0.905844;"/>
   </g>
   <g id="patch_31">
    <path clip-path="url(#pd28f73787c)" d="M 59.736007 220.5 
L 66.823074 220.5 
L 66.823074 208.238346 
L 59.736007 208.238346 
z
" style="fill:#a1c9f4;fill-opacity:0.5;stroke:#ffffff;stroke-linejoin:miter;stroke-width:0.708707;"/>
   </g>
   <g id="patch_32">
    <path clip-path="url(#pd28f73787c)" d="M 66.823074 220.5 
L 73.910142 220.5 
L 73.910142 182.352632 
L 66.823074 182.352632 
z
" style="fill:#a1c9f4;fill-opacity:0.5;stroke:#ffffff;stroke-linejoin:miter;stroke-width:0.708707;"/>
   </g>
   <g id="patch_33">
    <path clip-path="url(#pd28f73787c)" d="M 73.910142 220.5 
L 80.99721 220.5 
L 80.99721 131.943609 
L 73.910142 131.943609 
z
" style="fill:#a1c9f4;fill-opacity:0.5;stroke:#ffffff;stroke-linejoin:miter;stroke-width:0.708707;"/>
   </g>
   <g id="patch_34">
    <path clip-path="url(#pd28f73787c)" d="M 80.99721 220.5 
L 88.084277 220.5 
L 88.084277 97.883459 
L 80.99721 97.883459 
z
" style="fill:#a1c9f4;fill-opacity:0.5;stroke:#ffffff;stroke-linejoin:miter;stroke-width:0.708707;"/>
   </g>
   <g id="patch_35">
    <path clip-path="url(#pd28f73787c)" d="M 88.084277 220.5 
L 95.171345 220.5 
L 95.171345 54.286466 
L 88.084277 54.286466 
z
" style="fill:#a1c9f4;fill-opacity:0.5;stroke:#ffffff;stroke-linejoin:miter;stroke-width:0.708707;"/>
   </g>
   <g id="patch_36">
    <path clip-path="url(#pd28f73787c)" d="M 95.171345 220.5 
L 102.258413 220.5 
L 102.258413 74.722556 
L 95.171345 74.722556 
z
" style="fill:#a1c9f4;fill-opacity:0.5;stroke:#ffffff;stroke-linejoin:miter;stroke-width:0.708707;"/>
   </g>
   <g id="patch_37">
    <path clip-path="url(#pd28f73787c)" d="M 102.258413 220.5 
L 109.345481 220.5 
L 109.345481 70.635338 
L 102.258413 70.635338 
z
" style="fill:#a1c9f4;fill-opacity:0.5;stroke:#ffffff;stroke-linejoin:miter;stroke-width:0.708707;"/>
   </g>
   <g id="patch_38">
    <path clip-path="url(#pd28f73787c)" d="M 109.345481 220.5 
L 116.432548 220.5 
L 116.432548 80.17218 
L 109.345481 80.17218 
z
" style="fill:#a1c9f4;fill-opacity:0.5;stroke:#ffffff;stroke-linejoin:miter;stroke-width:0.708707;"/>
   </g>
   <g id="patch_39">
    <path clip-path="url(#pd28f73787c)" d="M 116.432548 220.5 
L 123.519616 220.5 
L 123.519616 136.030827 
L 116.432548 136.030827 
z
" style="fill:#a1c9f4;fill-opacity:0.5;stroke:#ffffff;stroke-linejoin:miter;stroke-width:0.708707;"/>
   </g>
   <g id="patch_40">
    <path clip-path="url(#pd28f73787c)" d="M 123.519616 220.5 
L 130.606684 220.5 
L 130.606684 119.681955 
L 123.519616 119.681955 
z
" style="fill:#a1c9f4;fill-opacity:0.5;stroke:#ffffff;stroke-linejoin:miter;stroke-width:0.708707;"/>
   </g>
   <g id="patch_41">
    <path clip-path="url(#pd28f73787c)" d="M 130.606684 220.5 
L 137.693752 220.5 
L 137.693752 130.581203 
L 130.606684 130.581203 
z
" style="fill:#a1c9f4;fill-opacity:0.5;stroke:#ffffff;stroke-linejoin:miter;stroke-width:0.708707;"/>
   </g>
   <g id="patch_42">
    <path clip-path="url(#pd28f73787c)" d="M 137.693752 220.5 
L 144.780819 220.5 
L 144.780819 170.090977 
L 137.693752 170.090977 
z
" style="fill:#a1c9f4;fill-opacity:0.5;stroke:#ffffff;stroke-linejoin:miter;stroke-width:0.708707;"/>
   </g>
   <g id="patch_43">
    <path clip-path="url(#pd28f73787c)" d="M 144.780819 220.5 
L 151.867887 220.5 
L 151.867887 172.815789 
L 144.780819 172.815789 
z
" style="fill:#a1c9f4;fill-opacity:0.5;stroke:#ffffff;stroke-linejoin:miter;stroke-width:0.708707;"/>
   </g>
   <g id="patch_44">
    <path clip-path="url(#pd28f73787c)" d="M 151.867887 220.5 
L 158.954955 220.5 
L 158.954955 168.728571 
L 151.867887 168.728571 
z
" style="fill:#a1c9f4;fill-opacity:0.5;stroke:#ffffff;stroke-linejoin:miter;stroke-width:0.708707;"/>
   </g>
   <g id="patch_45">
    <path clip-path="url(#pd28f73787c)" d="M 158.954955 220.5 
L 166.042022 220.5 
L 166.042022 189.164662 
L 158.954955 189.164662 
z
" style="fill:#a1c9f4;fill-opacity:0.5;stroke:#ffffff;stroke-linejoin:miter;stroke-width:0.708707;"/>
   </g>
   <g id="patch_46">
    <path clip-path="url(#pd28f73787c)" d="M 166.042022 220.5 
L 173.12909 220.5 
L 173.12909 204.151128 
L 166.042022 204.151128 
z
" style="fill:#a1c9f4;fill-opacity:0.5;stroke:#ffffff;stroke-linejoin:miter;stroke-width:0.708707;"/>
   </g>
   <g id="patch_47">
    <path clip-path="url(#pd28f73787c)" d="M 173.12909 220.5 
L 180.216158 220.5 
L 180.216158 210.963158 
L 173.12909 210.963158 
z
" style="fill:#a1c9f4;fill-opacity:0.5;stroke:#ffffff;stroke-linejoin:miter;stroke-width:0.708707;"/>
   </g>
   <g id="patch_48">
    <path clip-path="url(#pd28f73787c)" d="M 180.216158 220.5 
L 187.303226 220.5 
L 187.303226 213.68797 
L 180.216158 213.68797 
z
" style="fill:#a1c9f4;fill-opacity:0.5;stroke:#ffffff;stroke-linejoin:miter;stroke-width:0.708707;"/>
   </g>
   <g id="patch_49">
    <path clip-path="url(#pd28f73787c)" d="M 187.303226 220.5 
L 194.390293 220.5 
L 194.390293 219.137594 
L 187.303226 219.137594 
z
" style="fill:#a1c9f4;fill-opacity:0.5;stroke:#ffffff;stroke-linejoin:miter;stroke-width:0.708707;"/>
   </g>
   <g id="patch_50">
    <path clip-path="url(#pd28f73787c)" d="M 194.390293 220.5 
L 201.477361 220.5 
L 201.477361 220.5 
L 194.390293 220.5 
z
" style="fill:#a1c9f4;fill-opacity:0.5;stroke:#ffffff;stroke-linejoin:miter;stroke-width:0.708707;"/>
   </g>
   <g id="patch_51">
    <path clip-path="url(#pd28f73787c)" d="M 201.477361 220.5 
L 208.564429 220.5 
L 208.564429 215.050376 
L 201.477361 215.050376 
z
" style="fill:#a1c9f4;fill-opacity:0.5;stroke:#ffffff;stroke-linejoin:miter;stroke-width:0.708707;"/>
   </g>
   <g id="patch_52">
    <path clip-path="url(#pd28f73787c)" d="M 208.564429 220.5 
L 215.651497 220.5 
L 215.651497 219.137594 
L 208.564429 219.137594 
z
" style="fill:#a1c9f4;fill-opacity:0.5;stroke:#ffffff;stroke-linejoin:miter;stroke-width:0.708707;"/>
   </g>
   <g id="patch_53">
    <path clip-path="url(#pd28f73787c)" d="M 215.651497 220.5 
L 222.738564 220.5 
L 222.738564 220.5 
L 215.651497 220.5 
z
" style="fill:#a1c9f4;fill-opacity:0.5;stroke:#ffffff;stroke-linejoin:miter;stroke-width:0.708707;"/>
   </g>
   <g id="patch_54">
    <path clip-path="url(#pd28f73787c)" d="M 222.738564 220.5 
L 229.825632 220.5 
L 229.825632 220.5 
L 222.738564 220.5 
z
" style="fill:#a1c9f4;fill-opacity:0.5;stroke:#ffffff;stroke-linejoin:miter;stroke-width:0.708707;"/>
   </g>
   <g id="patch_55">
    <path clip-path="url(#pd28f73787c)" d="M 229.825632 220.5 
L 236.9127 220.5 
L 236.9127 220.5 
L 229.825632 220.5 
z
" style="fill:#a1c9f4;fill-opacity:0.5;stroke:#ffffff;stroke-linejoin:miter;stroke-width:0.708707;"/>
   </g>
   <g id="patch_56">
    <path clip-path="url(#pd28f73787c)" d="M 236.9127 220.5 
L 243.999768 220.5 
L 243.999768 219.137594 
L 236.9127 219.137594 
z
" style="fill:#a1c9f4;fill-opacity:0.5;stroke:#ffffff;stroke-linejoin:miter;stroke-width:0.708707;"/>
   </g>
   <g id="line2d_14">
    <path clip-path="url(#pd28f73787c)" d="M 57.681818 204.512528 
L 58.956373 201.576336 
L 60.230927 198.303466 
L 61.505482 194.686812 
L 64.054591 186.410514 
L 66.6037 176.760577 
L 69.15281 165.815546 
L 71.701919 153.733083 
L 75.525582 134.055858 
L 81.898355 100.591739 
L 84.447465 88.525504 
L 86.996574 78.038329 
L 88.271128 73.527106 
L 89.545683 69.55831 
L 90.820238 66.156799 
L 92.094792 63.334039 
L 93.369347 61.088527 
L 94.643901 59.407116 
L 95.918456 58.267085 
L 97.193011 57.638679 
L 98.467565 57.487785 
L 99.74212 57.778402 
L 101.016674 58.47457 
L 102.291229 59.541576 
L 103.565783 60.946339 
L 104.840338 62.657064 
L 106.114893 64.642342 
L 108.664002 69.306128 
L 111.213111 74.65552 
L 120.134993 94.356137 
L 122.684102 99.373765 
L 126.507766 106.316349 
L 136.704203 124.249025 
L 140.527867 131.54477 
L 144.35153 139.338756 
L 155.822522 163.511878 
L 158.371631 168.351182 
L 160.92074 172.837649 
L 163.469849 176.932102 
L 166.018958 180.592175 
L 168.568068 183.779482 
L 171.117177 186.486103 
L 173.666286 188.763792 
L 176.215395 190.732816 
L 185.137277 197.300884 
L 190.235496 201.241103 
L 192.784605 202.989719 
L 195.333714 204.499091 
L 197.882823 205.786211 
L 201.706487 207.444185 
L 206.804705 209.397519 
L 210.628369 210.60707 
L 213.177478 211.211476 
L 217.001142 211.807383 
L 227.197579 213.023292 
L 231.021243 213.841293 
L 239.943125 215.995187 
L 243.766788 216.587757 
L 248.865007 217.026369 
L 253.963225 217.473993 
L 257.786889 218.024892 
L 269.25788 219.913562 
L 273.081544 220.23607 
L 278.179762 220.429229 
L 287.101645 220.482413 
L 297.298081 220.338452 
L 311.318182 219.950436 
L 311.318182 219.950436 
" style="fill:none;stroke:#ff0000;stroke-linecap:round;stroke-width:1.5;"/>
   </g>
   <g id="line2d_15">
    <path clip-path="url(#pd28f73787c)" d="M 59.736007 210.691341 
L 61.587904 207.071806 
L 63.439801 202.619045 
L 65.291698 197.239715 
L 67.143595 190.839419 
L 68.995492 183.341652 
L 70.847389 174.720807 
L 72.699286 165.040873 
L 75.477132 148.966419 
L 81.032823 115.573716 
L 82.88472 105.479629 
L 84.736617 96.395713 
L 86.588514 88.498085 
L 88.440412 81.897655 
L 90.292309 76.645203 
L 91.218257 74.521909 
L 92.144206 72.722917 
L 93.070154 71.233793 
L 93.996103 70.035659 
L 94.922051 69.106194 
L 95.848 68.421088 
L 96.773948 67.95585 
L 97.699897 67.687788 
L 98.625846 67.59796 
L 99.551794 67.672882 
L 100.477743 67.905817 
L 101.403691 68.29748 
L 102.32964 68.856054 
L 103.255588 69.596469 
L 104.181537 70.538942 
L 105.107485 71.706826 
L 106.033434 73.123898 
L 106.959382 74.811271 
L 107.885331 76.784155 
L 109.737228 81.599848 
L 111.589125 87.472657 
L 114.366971 97.530933 
L 117.144817 107.560197 
L 118.996714 113.411959 
L 120.848611 118.279976 
L 122.700508 122.185114 
L 124.552405 125.375235 
L 129.182148 132.658623 
L 131.034045 136.083932 
L 132.885942 139.970689 
L 135.663787 146.426133 
L 139.367582 155.003396 
L 141.219479 158.749205 
L 143.071376 161.948329 
L 144.923273 164.604022 
L 146.77517 166.825623 
L 150.478964 170.685801 
L 153.25681 173.737187 
L 155.108707 176.032383 
L 157.886553 179.90802 
L 160.664398 184.242351 
L 164.368192 190.580067 
L 170.849832 201.942811 
L 172.701729 204.771028 
L 174.553626 207.24775 
L 176.405524 209.348053 
L 178.257421 211.095426 
L 180.109318 212.546613 
L 181.961215 213.769193 
L 184.73906 215.29272 
L 187.516906 216.510875 
L 189.368803 217.140391 
L 191.2207 217.598809 
L 193.072597 217.872804 
L 194.924494 217.970439 
L 197.70234 217.870702 
L 202.332083 217.604194 
L 205.109929 217.72432 
L 207.887774 218.130512 
L 218.073208 220.052544 
L 221.777002 220.339998 
L 226.406745 220.451784 
L 232.888385 220.353852 
L 243.999768 219.923573 
L 243.999768 219.923573 
" style="fill:none;stroke:#a1c9f4;stroke-linecap:round;stroke-width:1.5;"/>
   </g>
   <g id="line2d_16">
    <path clip-path="url(#pd28f73787c)" d="M 160.103873 220.5 
L 160.103873 30.24 
" style="fill:none;stroke:#008000;stroke-linecap:round;stroke-width:5;"/>
   </g>
   <g id="patch_57">
    <path d="M 45 220.5 
L 45 30.24 
" style="fill:none;stroke:#262626;stroke-linecap:square;stroke-linejoin:miter;stroke-width:1.25;"/>
   </g>
   <g id="patch_58">
    <path d="M 324 220.5 
L 324 30.24 
" style="fill:none;stroke:#262626;stroke-linecap:square;stroke-linejoin:miter;stroke-width:1.25;"/>
   </g>
   <g id="patch_59">
    <path d="M 45 220.5 
L 324 220.5 
" style="fill:none;stroke:#262626;stroke-linecap:square;stroke-linejoin:miter;stroke-width:1.25;"/>
   </g>
   <g id="patch_60">
    <path d="M 45 30.24 
L 324 30.24 
" style="fill:none;stroke:#262626;stroke-linecap:square;stroke-linejoin:miter;stroke-width:1.25;"/>
   </g>
   <g id="text_16">
    <!-- 10pen_resist_30 -->
    <g style="fill:#262626;" transform="translate(140.136562 24.24)scale(0.12 -0.12)">
     <defs>
      <path d="M 6.59375 -19.875 
L 6.59375 51.859375 
L 14.59375 51.859375 
L 14.59375 45.125 
Q 17.4375 49.078125 21 51.046875 
Q 24.5625 53.03125 29.640625 53.03125 
Q 36.28125 53.03125 41.359375 49.609375 
Q 46.4375 46.1875 49.015625 39.953125 
Q 51.609375 33.734375 51.609375 26.3125 
Q 51.609375 18.359375 48.75 11.984375 
Q 45.90625 5.609375 40.453125 2.21875 
Q 35.015625 -1.171875 29 -1.171875 
Q 24.609375 -1.171875 21.109375 0.6875 
Q 17.625 2.546875 15.375 5.375 
L 15.375 -19.875 
z
M 14.546875 25.640625 
Q 14.546875 15.625 18.59375 10.84375 
Q 22.65625 6.0625 28.421875 6.0625 
Q 34.28125 6.0625 38.453125 11.015625 
Q 42.625 15.96875 42.625 26.375 
Q 42.625 36.28125 38.546875 41.203125 
Q 34.46875 46.140625 28.8125 46.140625 
Q 23.1875 46.140625 18.859375 40.890625 
Q 14.546875 35.640625 14.546875 25.640625 
z
" id="ArialMT-112"/>
      <path d="M -1.515625 -19.875 
L -1.515625 -13.53125 
L 56.734375 -13.53125 
L 56.734375 -19.875 
z
" id="ArialMT-95"/>
     </defs>
     <use xlink:href="#ArialMT-49"/>
     <use x="55.615234" xlink:href="#ArialMT-48"/>
     <use x="111.230469" xlink:href="#ArialMT-112"/>
     <use x="166.845703" xlink:href="#ArialMT-101"/>
     <use x="222.460938" xlink:href="#ArialMT-110"/>
     <use x="278.076172" xlink:href="#ArialMT-95"/>
     <use x="333.691406" xlink:href="#ArialMT-114"/>
     <use x="366.992188" xlink:href="#ArialMT-101"/>
     <use x="422.607422" xlink:href="#ArialMT-115"/>
     <use x="472.607422" xlink:href="#ArialMT-105"/>
     <use x="494.824219" xlink:href="#ArialMT-115"/>
     <use x="544.824219" xlink:href="#ArialMT-116"/>
     <use x="572.607422" xlink:href="#ArialMT-95"/>
     <use x="628.222656" xlink:href="#ArialMT-51"/>
     <use x="683.837891" xlink:href="#ArialMT-48"/>
    </g>
   </g>
   <g id="legend_1">
    <g id="patch_61">
     <path d="M 195.74 85.719531 
L 316.3 85.719531 
Q 318.5 85.719531 318.5 83.519531 
L 318.5 37.94 
Q 318.5 35.74 316.3 35.74 
L 195.74 35.74 
Q 193.54 35.74 193.54 37.94 
L 193.54 83.519531 
Q 193.54 85.719531 195.74 85.719531 
z
" style="fill:#ffffff;opacity:0.8;stroke:#cccccc;stroke-linejoin:miter;"/>
    </g>
    <g id="line2d_17">
     <path d="M 197.94 44.163594 
L 219.94 44.163594 
" style="fill:none;stroke:#008000;stroke-linecap:round;stroke-width:5;"/>
    </g>
    <g id="line2d_18"/>
    <g id="text_17">
     <!-- True Wasserstein -->
     <g style="fill:#262626;" transform="translate(228.74 48.013594)scale(0.11 -0.11)">
      <defs>
       <path d="M 25.921875 0 
L 25.921875 63.140625 
L 2.34375 63.140625 
L 2.34375 71.578125 
L 59.078125 71.578125 
L 59.078125 63.140625 
L 35.40625 63.140625 
L 35.40625 0 
z
" id="ArialMT-84"/>
      </defs>
      <use xlink:href="#ArialMT-84"/>
      <use x="57.333984" xlink:href="#ArialMT-114"/>
      <use x="90.634766" xlink:href="#ArialMT-117"/>
      <use x="146.25" xlink:href="#ArialMT-101"/>
      <use x="201.865234" xlink:href="#ArialMT-32"/>
      <use x="229.648438" xlink:href="#ArialMT-87"/>
      <use x="320.283203" xlink:href="#ArialMT-97"/>
      <use x="375.898438" xlink:href="#ArialMT-115"/>
      <use x="425.898438" xlink:href="#ArialMT-115"/>
      <use x="475.898438" xlink:href="#ArialMT-101"/>
      <use x="531.513672" xlink:href="#ArialMT-114"/>
      <use x="564.814453" xlink:href="#ArialMT-115"/>
      <use x="614.814453" xlink:href="#ArialMT-116"/>
      <use x="642.597656" xlink:href="#ArialMT-101"/>
      <use x="698.212891" xlink:href="#ArialMT-105"/>
      <use x="720.429688" xlink:href="#ArialMT-110"/>
     </g>
    </g>
    <g id="patch_62">
     <path d="M 197.94 63.573438 
L 219.94 63.573438 
L 219.94 55.873438 
L 197.94 55.873438 
z
" style="fill:#ff0000;fill-opacity:0.5;stroke:#ffffff;stroke-linejoin:miter;stroke-width:0.905844;"/>
    </g>
    <g id="text_18">
     <!-- cLHS -->
     <g style="fill:#262626;" transform="translate(228.74 63.573438)scale(0.11 -0.11)">
      <defs>
       <path d="M 7.328125 0 
L 7.328125 71.578125 
L 16.796875 71.578125 
L 16.796875 8.453125 
L 52.046875 8.453125 
L 52.046875 0 
z
" id="ArialMT-76"/>
       <path d="M 8.015625 0 
L 8.015625 71.578125 
L 17.484375 71.578125 
L 17.484375 42.1875 
L 54.6875 42.1875 
L 54.6875 71.578125 
L 64.15625 71.578125 
L 64.15625 0 
L 54.6875 0 
L 54.6875 33.734375 
L 17.484375 33.734375 
L 17.484375 0 
z
" id="ArialMT-72"/>
       <path d="M 4.5 23 
L 13.421875 23.78125 
Q 14.0625 18.40625 16.375 14.96875 
Q 18.703125 11.53125 23.578125 9.40625 
Q 28.46875 7.28125 34.578125 7.28125 
Q 39.984375 7.28125 44.140625 8.890625 
Q 48.296875 10.5 50.3125 13.296875 
Q 52.34375 16.109375 52.34375 19.4375 
Q 52.34375 22.796875 50.390625 25.3125 
Q 48.4375 27.828125 43.953125 29.546875 
Q 41.0625 30.671875 31.203125 33.03125 
Q 21.34375 35.40625 17.390625 37.5 
Q 12.25 40.1875 9.734375 44.15625 
Q 7.234375 48.140625 7.234375 53.078125 
Q 7.234375 58.5 10.296875 63.203125 
Q 13.375 67.921875 19.28125 70.359375 
Q 25.203125 72.796875 32.421875 72.796875 
Q 40.375 72.796875 46.453125 70.234375 
Q 52.546875 67.671875 55.8125 62.6875 
Q 59.078125 57.71875 59.328125 51.421875 
L 50.25 50.734375 
Q 49.515625 57.515625 45.28125 60.984375 
Q 41.0625 64.453125 32.8125 64.453125 
Q 24.21875 64.453125 20.28125 61.296875 
Q 16.359375 58.15625 16.359375 53.71875 
Q 16.359375 49.859375 19.140625 47.359375 
Q 21.875 44.875 33.421875 42.265625 
Q 44.96875 39.65625 49.265625 37.703125 
Q 55.515625 34.8125 58.484375 30.390625 
Q 61.46875 25.984375 61.46875 20.21875 
Q 61.46875 14.5 58.203125 9.4375 
Q 54.9375 4.390625 48.796875 1.578125 
Q 42.671875 -1.21875 35.015625 -1.21875 
Q 25.296875 -1.21875 18.71875 1.609375 
Q 12.15625 4.4375 8.421875 10.125 
Q 4.6875 15.828125 4.5 23 
z
" id="ArialMT-83"/>
      </defs>
      <use xlink:href="#ArialMT-99"/>
      <use x="50" xlink:href="#ArialMT-76"/>
      <use x="105.615234" xlink:href="#ArialMT-72"/>
      <use x="177.832031" xlink:href="#ArialMT-83"/>
     </g>
    </g>
    <g id="patch_63">
     <path d="M 197.94 79.133281 
L 219.94 79.133281 
L 219.94 71.433281 
L 197.94 71.433281 
z
" style="fill:#a1c9f4;fill-opacity:0.5;stroke:#ffffff;stroke-linejoin:miter;stroke-width:0.708707;"/>
    </g>
    <g id="text_19">
     <!-- maxvol -->
     <g style="fill:#262626;" transform="translate(228.74 79.133281)scale(0.11 -0.11)">
      <defs>
       <path d="M 6.59375 0 
L 6.59375 51.859375 
L 14.453125 51.859375 
L 14.453125 44.578125 
Q 16.890625 48.390625 20.9375 50.703125 
Q 25 53.03125 30.171875 53.03125 
Q 35.9375 53.03125 39.625 50.640625 
Q 43.3125 48.25 44.828125 43.953125 
Q 50.984375 53.03125 60.84375 53.03125 
Q 68.5625 53.03125 72.703125 48.75 
Q 76.859375 44.484375 76.859375 35.59375 
L 76.859375 0 
L 68.109375 0 
L 68.109375 32.671875 
Q 68.109375 37.9375 67.25 40.25 
Q 66.40625 42.578125 64.15625 43.984375 
Q 61.921875 45.40625 58.890625 45.40625 
Q 53.421875 45.40625 49.796875 41.765625 
Q 46.1875 38.140625 46.1875 30.125 
L 46.1875 0 
L 37.40625 0 
L 37.40625 33.6875 
Q 37.40625 39.546875 35.25 42.46875 
Q 33.109375 45.40625 28.21875 45.40625 
Q 24.515625 45.40625 21.359375 43.453125 
Q 18.21875 41.5 16.796875 37.734375 
Q 15.375 33.984375 15.375 26.90625 
L 15.375 0 
z
" id="ArialMT-109"/>
       <path d="M 0.734375 0 
L 19.671875 26.953125 
L 2.15625 51.859375 
L 13.140625 51.859375 
L 21.09375 39.703125 
Q 23.34375 36.234375 24.703125 33.890625 
Q 26.859375 37.109375 28.65625 39.59375 
L 37.40625 51.859375 
L 47.90625 51.859375 
L 29.984375 27.4375 
L 49.265625 0 
L 38.484375 0 
L 27.828125 16.109375 
L 25 20.453125 
L 11.375 0 
z
" id="ArialMT-120"/>
       <path d="M 21 0 
L 1.265625 51.859375 
L 10.546875 51.859375 
L 21.6875 20.796875 
Q 23.484375 15.765625 25 10.359375 
Q 26.171875 14.453125 28.265625 20.21875 
L 39.796875 51.859375 
L 48.828125 51.859375 
L 29.203125 0 
z
" id="ArialMT-118"/>
       <path d="M 6.390625 0 
L 6.390625 71.578125 
L 15.1875 71.578125 
L 15.1875 0 
z
" id="ArialMT-108"/>
      </defs>
      <use xlink:href="#ArialMT-109"/>
      <use x="83.300781" xlink:href="#ArialMT-97"/>
      <use x="138.916016" xlink:href="#ArialMT-120"/>
      <use x="188.916016" xlink:href="#ArialMT-118"/>
      <use x="238.916016" xlink:href="#ArialMT-111"/>
      <use x="294.53125" xlink:href="#ArialMT-108"/>
     </g>
    </g>
   </g>
  </g>
 </g>
 <defs>
  <clipPath id="pd28f73787c">
   <rect height="190.26" width="279" x="45" y="30.24"/>
  </clipPath>
 </defs>
</svg>
