<?xml version="1.0" encoding="utf-8" standalone="no"?>
<!DOCTYPE svg PUBLIC "-//W3C//DTD SVG 1.1//EN"
  "http://www.w3.org/Graphics/SVG/1.1/DTD/svg11.dtd">
<!-- Created with matplotlib (https://matplotlib.org/) -->
<svg height="252pt" version="1.1" viewBox="0 0 360 252" width="360pt" xmlns="http://www.w3.org/2000/svg" xmlns:xlink="http://www.w3.org/1999/xlink">
 <metadata>
  <rdf:RDF xmlns:cc="http://creativecommons.org/ns#" xmlns:dc="http://purl.org/dc/elements/1.1/" xmlns:rdf="http://www.w3.org/1999/02/22-rdf-syntax-ns#">
   <cc:Work>
    <dc:type rdf:resource="http://purl.org/dc/dcmitype/StillImage"/>
    <dc:date>2021-01-21T18:03:17.010515</dc:date>
    <dc:format>image/svg+xml</dc:format>
    <dc:creator>
     <cc:Agent>
      <dc:title>Matplotlib v3.3.0, https://matplotlib.org/</dc:title>
     </cc:Agent>
    </dc:creator>
   </cc:Work>
  </rdf:RDF>
 </metadata>
 <defs>
  <style type="text/css">*{stroke-linecap:butt;stroke-linejoin:round;}</style>
 </defs>
 <g id="figure_1">
  <g id="patch_1">
   <path d="M 0 252 
L 360 252 
L 360 0 
L 0 0 
z
" style="fill:#ffffff;"/>
  </g>
  <g id="axes_1">
   <g id="patch_2">
    <path d="M 45 220.5 
L 324 220.5 
L 324 30.24 
L 45 30.24 
z
" style="fill:#ffffff;"/>
   </g>
   <g id="matplotlib.axis_1">
    <g id="xtick_1">
     <g id="line2d_1">
      <defs>
       <path d="M 0 0 
L 0 6 
" id="ma7770b47c1" style="stroke:#262626;stroke-width:1.25;"/>
      </defs>
      <g>
       <use style="fill:#262626;stroke:#262626;stroke-width:1.25;" x="83.235494" xlink:href="#ma7770b47c1" y="220.5"/>
      </g>
     </g>
     <g id="text_1">
      <!-- 10 -->
      <g style="fill:#262626;" transform="translate(77.118462 237.873594)scale(0.11 -0.11)">
       <defs>
        <path d="M 37.25 0 
L 28.46875 0 
L 28.46875 56 
Q 25.296875 52.984375 20.140625 49.953125 
Q 14.984375 46.921875 10.890625 45.40625 
L 10.890625 53.90625 
Q 18.265625 57.375 23.78125 62.296875 
Q 29.296875 67.234375 31.59375 71.875 
L 37.25 71.875 
z
" id="ArialMT-49"/>
        <path d="M 4.15625 35.296875 
Q 4.15625 48 6.765625 55.734375 
Q 9.375 63.484375 14.515625 67.671875 
Q 19.671875 71.875 27.484375 71.875 
Q 33.25 71.875 37.59375 69.546875 
Q 41.9375 67.234375 44.765625 62.859375 
Q 47.609375 58.5 49.21875 52.21875 
Q 50.828125 45.953125 50.828125 35.296875 
Q 50.828125 22.703125 48.234375 14.96875 
Q 45.65625 7.234375 40.5 3 
Q 35.359375 -1.21875 27.484375 -1.21875 
Q 17.140625 -1.21875 11.234375 6.203125 
Q 4.15625 15.140625 4.15625 35.296875 
z
M 13.1875 35.296875 
Q 13.1875 17.671875 17.3125 11.828125 
Q 21.4375 6 27.484375 6 
Q 33.546875 6 37.671875 11.859375 
Q 41.796875 17.71875 41.796875 35.296875 
Q 41.796875 52.984375 37.671875 58.78125 
Q 33.546875 64.59375 27.390625 64.59375 
Q 21.34375 64.59375 17.71875 59.46875 
Q 13.1875 52.9375 13.1875 35.296875 
z
" id="ArialMT-48"/>
       </defs>
       <use xlink:href="#ArialMT-49"/>
       <use x="55.615234" xlink:href="#ArialMT-48"/>
      </g>
     </g>
    </g>
    <g id="xtick_2">
     <g id="line2d_2">
      <g>
       <use style="fill:#262626;stroke:#262626;stroke-width:1.25;" x="146.205232" xlink:href="#ma7770b47c1" y="220.5"/>
      </g>
     </g>
     <g id="text_2">
      <!-- 20 -->
      <g style="fill:#262626;" transform="translate(140.0882 237.873594)scale(0.11 -0.11)">
       <defs>
        <path d="M 50.34375 8.453125 
L 50.34375 0 
L 3.03125 0 
Q 2.9375 3.171875 4.046875 6.109375 
Q 5.859375 10.9375 9.828125 15.625 
Q 13.8125 20.3125 21.34375 26.46875 
Q 33.015625 36.03125 37.109375 41.625 
Q 41.21875 47.21875 41.21875 52.203125 
Q 41.21875 57.421875 37.46875 61 
Q 33.734375 64.59375 27.734375 64.59375 
Q 21.390625 64.59375 17.578125 60.78125 
Q 13.765625 56.984375 13.71875 50.25 
L 4.6875 51.171875 
Q 5.609375 61.28125 11.65625 66.578125 
Q 17.71875 71.875 27.9375 71.875 
Q 38.234375 71.875 44.234375 66.15625 
Q 50.25 60.453125 50.25 52 
Q 50.25 47.703125 48.484375 43.546875 
Q 46.734375 39.40625 42.65625 34.8125 
Q 38.578125 30.21875 29.109375 22.21875 
Q 21.1875 15.578125 18.9375 13.203125 
Q 16.703125 10.84375 15.234375 8.453125 
z
" id="ArialMT-50"/>
       </defs>
       <use xlink:href="#ArialMT-50"/>
       <use x="55.615234" xlink:href="#ArialMT-48"/>
      </g>
     </g>
    </g>
    <g id="xtick_3">
     <g id="line2d_3">
      <g>
       <use style="fill:#262626;stroke:#262626;stroke-width:1.25;" x="209.17497" xlink:href="#ma7770b47c1" y="220.5"/>
      </g>
     </g>
     <g id="text_3">
      <!-- 30 -->
      <g style="fill:#262626;" transform="translate(203.057938 237.873594)scale(0.11 -0.11)">
       <defs>
        <path d="M 4.203125 18.890625 
L 12.984375 20.0625 
Q 14.5 12.59375 18.140625 9.296875 
Q 21.78125 6 27 6 
Q 33.203125 6 37.46875 10.296875 
Q 41.75 14.59375 41.75 20.953125 
Q 41.75 27 37.796875 30.921875 
Q 33.84375 34.859375 27.734375 34.859375 
Q 25.25 34.859375 21.53125 33.890625 
L 22.515625 41.609375 
Q 23.390625 41.5 23.921875 41.5 
Q 29.546875 41.5 34.03125 44.421875 
Q 38.53125 47.359375 38.53125 53.46875 
Q 38.53125 58.296875 35.25 61.46875 
Q 31.984375 64.65625 26.8125 64.65625 
Q 21.6875 64.65625 18.265625 61.421875 
Q 14.84375 58.203125 13.875 51.765625 
L 5.078125 53.328125 
Q 6.6875 62.15625 12.390625 67.015625 
Q 18.109375 71.875 26.609375 71.875 
Q 32.46875 71.875 37.390625 69.359375 
Q 42.328125 66.84375 44.9375 62.5 
Q 47.5625 58.15625 47.5625 53.265625 
Q 47.5625 48.640625 45.0625 44.828125 
Q 42.578125 41.015625 37.703125 38.765625 
Q 44.046875 37.3125 47.5625 32.6875 
Q 51.078125 28.078125 51.078125 21.140625 
Q 51.078125 11.765625 44.234375 5.25 
Q 37.40625 -1.265625 26.953125 -1.265625 
Q 17.53125 -1.265625 11.296875 4.34375 
Q 5.078125 9.96875 4.203125 18.890625 
z
" id="ArialMT-51"/>
       </defs>
       <use xlink:href="#ArialMT-51"/>
       <use x="55.615234" xlink:href="#ArialMT-48"/>
      </g>
     </g>
    </g>
    <g id="xtick_4">
     <g id="line2d_4">
      <g>
       <use style="fill:#262626;stroke:#262626;stroke-width:1.25;" x="272.144708" xlink:href="#ma7770b47c1" y="220.5"/>
      </g>
     </g>
     <g id="text_4">
      <!-- 40 -->
      <g style="fill:#262626;" transform="translate(266.027677 237.873594)scale(0.11 -0.11)">
       <defs>
        <path d="M 32.328125 0 
L 32.328125 17.140625 
L 1.265625 17.140625 
L 1.265625 25.203125 
L 33.9375 71.578125 
L 41.109375 71.578125 
L 41.109375 25.203125 
L 50.78125 25.203125 
L 50.78125 17.140625 
L 41.109375 17.140625 
L 41.109375 0 
z
M 32.328125 25.203125 
L 32.328125 57.46875 
L 9.90625 25.203125 
z
" id="ArialMT-52"/>
       </defs>
       <use xlink:href="#ArialMT-52"/>
       <use x="55.615234" xlink:href="#ArialMT-48"/>
      </g>
     </g>
    </g>
    <g id="text_5">
     <!-- Wasserstein distance -->
     <g style="fill:#262626;" transform="translate(127.704375 252.649219)scale(0.12 -0.12)">
      <defs>
       <path d="M 20.21875 0 
L 1.21875 71.578125 
L 10.9375 71.578125 
L 21.828125 24.65625 
Q 23.578125 17.28125 24.859375 10.015625 
Q 27.59375 21.484375 28.078125 23.25 
L 41.703125 71.578125 
L 53.125 71.578125 
L 63.375 35.359375 
Q 67.234375 21.875 68.953125 10.015625 
Q 70.3125 16.796875 72.515625 25.59375 
L 83.734375 71.578125 
L 93.265625 71.578125 
L 73.640625 0 
L 64.5 0 
L 49.421875 54.546875 
Q 47.515625 61.375 47.171875 62.9375 
Q 46.046875 58.015625 45.0625 54.546875 
L 29.890625 0 
z
" id="ArialMT-87"/>
       <path d="M 40.4375 6.390625 
Q 35.546875 2.25 31.03125 0.53125 
Q 26.515625 -1.171875 21.34375 -1.171875 
Q 12.796875 -1.171875 8.203125 3 
Q 3.609375 7.171875 3.609375 13.671875 
Q 3.609375 17.484375 5.34375 20.625 
Q 7.078125 23.78125 9.890625 25.6875 
Q 12.703125 27.59375 16.21875 28.5625 
Q 18.796875 29.25 24.03125 29.890625 
Q 34.671875 31.15625 39.703125 32.90625 
Q 39.75 34.71875 39.75 35.203125 
Q 39.75 40.578125 37.25 42.78125 
Q 33.890625 45.75 27.25 45.75 
Q 21.046875 45.75 18.09375 43.578125 
Q 15.140625 41.40625 13.71875 35.890625 
L 5.125 37.0625 
Q 6.296875 42.578125 8.984375 45.96875 
Q 11.671875 49.359375 16.75 51.1875 
Q 21.828125 53.03125 28.515625 53.03125 
Q 35.15625 53.03125 39.296875 51.46875 
Q 43.453125 49.90625 45.40625 47.53125 
Q 47.359375 45.171875 48.140625 41.546875 
Q 48.578125 39.3125 48.578125 33.453125 
L 48.578125 21.734375 
Q 48.578125 9.46875 49.140625 6.21875 
Q 49.703125 2.984375 51.375 0 
L 42.1875 0 
Q 40.828125 2.734375 40.4375 6.390625 
z
M 39.703125 26.03125 
Q 34.90625 24.078125 25.34375 22.703125 
Q 19.921875 21.921875 17.671875 20.9375 
Q 15.4375 19.96875 14.203125 18.09375 
Q 12.984375 16.21875 12.984375 13.921875 
Q 12.984375 10.40625 15.640625 8.0625 
Q 18.3125 5.71875 23.4375 5.71875 
Q 28.515625 5.71875 32.46875 7.9375 
Q 36.421875 10.15625 38.28125 14.015625 
Q 39.703125 17 39.703125 22.796875 
z
" id="ArialMT-97"/>
       <path d="M 3.078125 15.484375 
L 11.765625 16.84375 
Q 12.5 11.625 15.84375 8.84375 
Q 19.1875 6.0625 25.203125 6.0625 
Q 31.25 6.0625 34.171875 8.515625 
Q 37.109375 10.984375 37.109375 14.3125 
Q 37.109375 17.28125 34.515625 19 
Q 32.71875 20.171875 25.53125 21.96875 
Q 15.875 24.421875 12.140625 26.203125 
Q 8.40625 27.984375 6.46875 31.125 
Q 4.546875 34.28125 4.546875 38.09375 
Q 4.546875 41.546875 6.125 44.5 
Q 7.71875 47.46875 10.453125 49.421875 
Q 12.5 50.921875 16.03125 51.96875 
Q 19.578125 53.03125 23.640625 53.03125 
Q 29.734375 53.03125 34.34375 51.265625 
Q 38.96875 49.515625 41.15625 46.5 
Q 43.359375 43.5 44.1875 38.484375 
L 35.59375 37.3125 
Q 35.015625 41.3125 32.203125 43.546875 
Q 29.390625 45.796875 24.265625 45.796875 
Q 18.21875 45.796875 15.625 43.796875 
Q 13.03125 41.796875 13.03125 39.109375 
Q 13.03125 37.40625 14.109375 36.03125 
Q 15.1875 34.625 17.484375 33.6875 
Q 18.796875 33.203125 25.25 31.453125 
Q 34.578125 28.953125 38.25 27.359375 
Q 41.9375 25.78125 44.03125 22.75 
Q 46.140625 19.734375 46.140625 15.234375 
Q 46.140625 10.84375 43.578125 6.953125 
Q 41.015625 3.078125 36.171875 0.953125 
Q 31.34375 -1.171875 25.25 -1.171875 
Q 15.140625 -1.171875 9.84375 3.03125 
Q 4.546875 7.234375 3.078125 15.484375 
z
" id="ArialMT-115"/>
       <path d="M 42.09375 16.703125 
L 51.171875 15.578125 
Q 49.03125 7.625 43.21875 3.21875 
Q 37.40625 -1.171875 28.375 -1.171875 
Q 17 -1.171875 10.328125 5.828125 
Q 3.65625 12.84375 3.65625 25.484375 
Q 3.65625 38.578125 10.390625 45.796875 
Q 17.140625 53.03125 27.875 53.03125 
Q 38.28125 53.03125 44.875 45.953125 
Q 51.46875 38.875 51.46875 26.03125 
Q 51.46875 25.25 51.421875 23.6875 
L 12.75 23.6875 
Q 13.234375 15.140625 17.578125 10.59375 
Q 21.921875 6.0625 28.421875 6.0625 
Q 33.25 6.0625 36.671875 8.59375 
Q 40.09375 11.140625 42.09375 16.703125 
z
M 13.234375 30.90625 
L 42.1875 30.90625 
Q 41.609375 37.453125 38.875 40.71875 
Q 34.671875 45.796875 27.984375 45.796875 
Q 21.921875 45.796875 17.796875 41.75 
Q 13.671875 37.703125 13.234375 30.90625 
z
" id="ArialMT-101"/>
       <path d="M 6.5 0 
L 6.5 51.859375 
L 14.40625 51.859375 
L 14.40625 44 
Q 17.4375 49.515625 20 51.265625 
Q 22.5625 53.03125 25.640625 53.03125 
Q 30.078125 53.03125 34.671875 50.203125 
L 31.640625 42.046875 
Q 28.421875 43.953125 25.203125 43.953125 
Q 22.3125 43.953125 20.015625 42.21875 
Q 17.71875 40.484375 16.75 37.40625 
Q 15.28125 32.71875 15.28125 27.15625 
L 15.28125 0 
z
" id="ArialMT-114"/>
       <path d="M 25.78125 7.859375 
L 27.046875 0.09375 
Q 23.34375 -0.6875 20.40625 -0.6875 
Q 15.625 -0.6875 12.984375 0.828125 
Q 10.359375 2.34375 9.28125 4.8125 
Q 8.203125 7.28125 8.203125 15.1875 
L 8.203125 45.015625 
L 1.765625 45.015625 
L 1.765625 51.859375 
L 8.203125 51.859375 
L 8.203125 64.703125 
L 16.9375 69.96875 
L 16.9375 51.859375 
L 25.78125 51.859375 
L 25.78125 45.015625 
L 16.9375 45.015625 
L 16.9375 14.703125 
Q 16.9375 10.9375 17.40625 9.859375 
Q 17.875 8.796875 18.921875 8.15625 
Q 19.96875 7.515625 21.921875 7.515625 
Q 23.390625 7.515625 25.78125 7.859375 
z
" id="ArialMT-116"/>
       <path d="M 6.640625 61.46875 
L 6.640625 71.578125 
L 15.4375 71.578125 
L 15.4375 61.46875 
z
M 6.640625 0 
L 6.640625 51.859375 
L 15.4375 51.859375 
L 15.4375 0 
z
" id="ArialMT-105"/>
       <path d="M 6.59375 0 
L 6.59375 51.859375 
L 14.5 51.859375 
L 14.5 44.484375 
Q 20.21875 53.03125 31 53.03125 
Q 35.6875 53.03125 39.625 51.34375 
Q 43.5625 49.65625 45.515625 46.921875 
Q 47.46875 44.1875 48.25 40.4375 
Q 48.734375 37.984375 48.734375 31.890625 
L 48.734375 0 
L 39.9375 0 
L 39.9375 31.546875 
Q 39.9375 36.921875 38.90625 39.578125 
Q 37.890625 42.234375 35.28125 43.8125 
Q 32.671875 45.40625 29.15625 45.40625 
Q 23.53125 45.40625 19.453125 41.84375 
Q 15.375 38.28125 15.375 28.328125 
L 15.375 0 
z
" id="ArialMT-110"/>
       <path id="ArialMT-32"/>
       <path d="M 40.234375 0 
L 40.234375 6.546875 
Q 35.296875 -1.171875 25.734375 -1.171875 
Q 19.53125 -1.171875 14.328125 2.25 
Q 9.125 5.671875 6.265625 11.796875 
Q 3.421875 17.921875 3.421875 25.875 
Q 3.421875 33.640625 6 39.96875 
Q 8.59375 46.296875 13.765625 49.65625 
Q 18.953125 53.03125 25.34375 53.03125 
Q 30.03125 53.03125 33.6875 51.046875 
Q 37.359375 49.078125 39.65625 45.90625 
L 39.65625 71.578125 
L 48.390625 71.578125 
L 48.390625 0 
z
M 12.453125 25.875 
Q 12.453125 15.921875 16.640625 10.984375 
Q 20.84375 6.0625 26.5625 6.0625 
Q 32.328125 6.0625 36.34375 10.765625 
Q 40.375 15.484375 40.375 25.140625 
Q 40.375 35.796875 36.265625 40.765625 
Q 32.171875 45.75 26.171875 45.75 
Q 20.3125 45.75 16.375 40.96875 
Q 12.453125 36.1875 12.453125 25.875 
z
" id="ArialMT-100"/>
       <path d="M 40.4375 19 
L 49.078125 17.875 
Q 47.65625 8.9375 41.8125 3.875 
Q 35.984375 -1.171875 27.484375 -1.171875 
Q 16.84375 -1.171875 10.375 5.78125 
Q 3.90625 12.75 3.90625 25.734375 
Q 3.90625 34.125 6.6875 40.421875 
Q 9.46875 46.734375 15.15625 49.875 
Q 20.84375 53.03125 27.546875 53.03125 
Q 35.984375 53.03125 41.359375 48.75 
Q 46.734375 44.484375 48.25 36.625 
L 39.703125 35.296875 
Q 38.484375 40.53125 35.375 43.15625 
Q 32.28125 45.796875 27.875 45.796875 
Q 21.234375 45.796875 17.078125 41.03125 
Q 12.9375 36.28125 12.9375 25.984375 
Q 12.9375 15.53125 16.9375 10.796875 
Q 20.953125 6.0625 27.390625 6.0625 
Q 32.5625 6.0625 36.03125 9.234375 
Q 39.5 12.40625 40.4375 19 
z
" id="ArialMT-99"/>
      </defs>
      <use xlink:href="#ArialMT-87"/>
      <use x="90.634766" xlink:href="#ArialMT-97"/>
      <use x="146.25" xlink:href="#ArialMT-115"/>
      <use x="196.25" xlink:href="#ArialMT-115"/>
      <use x="246.25" xlink:href="#ArialMT-101"/>
      <use x="301.865234" xlink:href="#ArialMT-114"/>
      <use x="335.166016" xlink:href="#ArialMT-115"/>
      <use x="385.166016" xlink:href="#ArialMT-116"/>
      <use x="412.949219" xlink:href="#ArialMT-101"/>
      <use x="468.564453" xlink:href="#ArialMT-105"/>
      <use x="490.78125" xlink:href="#ArialMT-110"/>
      <use x="546.396484" xlink:href="#ArialMT-32"/>
      <use x="574.179688" xlink:href="#ArialMT-100"/>
      <use x="629.794922" xlink:href="#ArialMT-105"/>
      <use x="652.011719" xlink:href="#ArialMT-115"/>
      <use x="702.011719" xlink:href="#ArialMT-116"/>
      <use x="729.794922" xlink:href="#ArialMT-97"/>
      <use x="785.410156" xlink:href="#ArialMT-110"/>
      <use x="841.025391" xlink:href="#ArialMT-99"/>
      <use x="891.025391" xlink:href="#ArialMT-101"/>
     </g>
    </g>
   </g>
   <g id="matplotlib.axis_2">
    <g id="ytick_1">
     <g id="line2d_5">
      <defs>
       <path d="M 0 0 
L -6 0 
" id="m2c3d9419d3" style="stroke:#262626;stroke-width:1.25;"/>
      </defs>
      <g>
       <use style="fill:#262626;stroke:#262626;stroke-width:1.25;" x="45" xlink:href="#m2c3d9419d3" y="220.5"/>
      </g>
     </g>
     <g id="text_6">
      <!-- 0 -->
      <g style="fill:#262626;" transform="translate(29.382969 224.436797)scale(0.11 -0.11)">
       <use xlink:href="#ArialMT-48"/>
      </g>
     </g>
    </g>
    <g id="ytick_2">
     <g id="line2d_6">
      <g>
       <use style="fill:#262626;stroke:#262626;stroke-width:1.25;" x="45" xlink:href="#m2c3d9419d3" y="191.738095"/>
      </g>
     </g>
     <g id="text_7">
      <!-- 20 -->
      <g style="fill:#262626;" transform="translate(23.265937 195.674892)scale(0.11 -0.11)">
       <use xlink:href="#ArialMT-50"/>
       <use x="55.615234" xlink:href="#ArialMT-48"/>
      </g>
     </g>
    </g>
    <g id="ytick_3">
     <g id="line2d_7">
      <g>
       <use style="fill:#262626;stroke:#262626;stroke-width:1.25;" x="45" xlink:href="#m2c3d9419d3" y="162.97619"/>
      </g>
     </g>
     <g id="text_8">
      <!-- 40 -->
      <g style="fill:#262626;" transform="translate(23.265937 166.912987)scale(0.11 -0.11)">
       <use xlink:href="#ArialMT-52"/>
       <use x="55.615234" xlink:href="#ArialMT-48"/>
      </g>
     </g>
    </g>
    <g id="ytick_4">
     <g id="line2d_8">
      <g>
       <use style="fill:#262626;stroke:#262626;stroke-width:1.25;" x="45" xlink:href="#m2c3d9419d3" y="134.214286"/>
      </g>
     </g>
     <g id="text_9">
      <!-- 60 -->
      <g style="fill:#262626;" transform="translate(23.265937 138.151083)scale(0.11 -0.11)">
       <defs>
        <path d="M 49.75 54.046875 
L 41.015625 53.375 
Q 39.84375 58.546875 37.703125 60.890625 
Q 34.125 64.65625 28.90625 64.65625 
Q 24.703125 64.65625 21.53125 62.3125 
Q 17.390625 59.28125 14.984375 53.46875 
Q 12.59375 47.65625 12.5 36.921875 
Q 15.671875 41.75 20.265625 44.09375 
Q 24.859375 46.4375 29.890625 46.4375 
Q 38.671875 46.4375 44.84375 39.96875 
Q 51.03125 33.5 51.03125 23.25 
Q 51.03125 16.5 48.125 10.71875 
Q 45.21875 4.9375 40.140625 1.859375 
Q 35.0625 -1.21875 28.609375 -1.21875 
Q 17.625 -1.21875 10.6875 6.859375 
Q 3.765625 14.9375 3.765625 33.5 
Q 3.765625 54.25 11.421875 63.671875 
Q 18.109375 71.875 29.4375 71.875 
Q 37.890625 71.875 43.28125 67.140625 
Q 48.6875 62.40625 49.75 54.046875 
z
M 13.875 23.1875 
Q 13.875 18.65625 15.796875 14.5 
Q 17.71875 10.359375 21.1875 8.171875 
Q 24.65625 6 28.46875 6 
Q 34.03125 6 38.03125 10.484375 
Q 42.046875 14.984375 42.046875 22.703125 
Q 42.046875 30.125 38.078125 34.390625 
Q 34.125 38.671875 28.125 38.671875 
Q 22.171875 38.671875 18.015625 34.390625 
Q 13.875 30.125 13.875 23.1875 
z
" id="ArialMT-54"/>
       </defs>
       <use xlink:href="#ArialMT-54"/>
       <use x="55.615234" xlink:href="#ArialMT-48"/>
      </g>
     </g>
    </g>
    <g id="ytick_5">
     <g id="line2d_9">
      <g>
       <use style="fill:#262626;stroke:#262626;stroke-width:1.25;" x="45" xlink:href="#m2c3d9419d3" y="105.452381"/>
      </g>
     </g>
     <g id="text_10">
      <!-- 80 -->
      <g style="fill:#262626;" transform="translate(23.265937 109.389178)scale(0.11 -0.11)">
       <defs>
        <path d="M 17.671875 38.8125 
Q 12.203125 40.828125 9.5625 44.53125 
Q 6.9375 48.25 6.9375 53.421875 
Q 6.9375 61.234375 12.546875 66.546875 
Q 18.171875 71.875 27.484375 71.875 
Q 36.859375 71.875 42.578125 66.421875 
Q 48.296875 60.984375 48.296875 53.171875 
Q 48.296875 48.1875 45.671875 44.5 
Q 43.0625 40.828125 37.75 38.8125 
Q 44.34375 36.671875 47.78125 31.875 
Q 51.21875 27.09375 51.21875 20.453125 
Q 51.21875 11.28125 44.71875 5.03125 
Q 38.234375 -1.21875 27.640625 -1.21875 
Q 17.046875 -1.21875 10.546875 5.046875 
Q 4.046875 11.328125 4.046875 20.703125 
Q 4.046875 27.6875 7.59375 32.390625 
Q 11.140625 37.109375 17.671875 38.8125 
z
M 15.921875 53.71875 
Q 15.921875 48.640625 19.1875 45.40625 
Q 22.46875 42.1875 27.6875 42.1875 
Q 32.765625 42.1875 36.015625 45.375 
Q 39.265625 48.578125 39.265625 53.21875 
Q 39.265625 58.0625 35.90625 61.359375 
Q 32.5625 64.65625 27.59375 64.65625 
Q 22.5625 64.65625 19.234375 61.421875 
Q 15.921875 58.203125 15.921875 53.71875 
z
M 13.09375 20.65625 
Q 13.09375 16.890625 14.875 13.375 
Q 16.65625 9.859375 20.171875 7.921875 
Q 23.6875 6 27.734375 6 
Q 34.03125 6 38.125 10.046875 
Q 42.234375 14.109375 42.234375 20.359375 
Q 42.234375 26.703125 38.015625 30.859375 
Q 33.796875 35.015625 27.4375 35.015625 
Q 21.234375 35.015625 17.15625 30.90625 
Q 13.09375 26.8125 13.09375 20.65625 
z
" id="ArialMT-56"/>
       </defs>
       <use xlink:href="#ArialMT-56"/>
       <use x="55.615234" xlink:href="#ArialMT-48"/>
      </g>
     </g>
    </g>
    <g id="ytick_6">
     <g id="line2d_10">
      <g>
       <use style="fill:#262626;stroke:#262626;stroke-width:1.25;" x="45" xlink:href="#m2c3d9419d3" y="76.690476"/>
      </g>
     </g>
     <g id="text_11">
      <!-- 100 -->
      <g style="fill:#262626;" transform="translate(17.148906 80.627273)scale(0.11 -0.11)">
       <use xlink:href="#ArialMT-49"/>
       <use x="55.615234" xlink:href="#ArialMT-48"/>
       <use x="111.230469" xlink:href="#ArialMT-48"/>
      </g>
     </g>
    </g>
    <g id="ytick_7">
     <g id="line2d_11">
      <g>
       <use style="fill:#262626;stroke:#262626;stroke-width:1.25;" x="45" xlink:href="#m2c3d9419d3" y="47.928571"/>
      </g>
     </g>
     <g id="text_12">
      <!-- 120 -->
      <g style="fill:#262626;" transform="translate(17.148906 51.865368)scale(0.11 -0.11)">
       <use xlink:href="#ArialMT-49"/>
       <use x="55.615234" xlink:href="#ArialMT-50"/>
       <use x="111.230469" xlink:href="#ArialMT-48"/>
      </g>
     </g>
    </g>
    <g id="text_13">
     <!-- Count -->
     <g style="fill:#262626;" transform="translate(10.763906 141.379687)rotate(-90)scale(0.12 -0.12)">
      <defs>
       <path d="M 58.796875 25.09375 
L 68.265625 22.703125 
Q 65.28125 11.03125 57.546875 4.90625 
Q 49.8125 -1.21875 38.625 -1.21875 
Q 27.046875 -1.21875 19.796875 3.484375 
Q 12.546875 8.203125 8.765625 17.140625 
Q 4.984375 26.078125 4.984375 36.328125 
Q 4.984375 47.515625 9.25 55.828125 
Q 13.53125 64.15625 21.40625 68.46875 
Q 29.296875 72.796875 38.765625 72.796875 
Q 49.515625 72.796875 56.828125 67.328125 
Q 64.15625 61.859375 67.046875 51.953125 
L 57.71875 49.75 
Q 55.21875 57.5625 50.484375 61.125 
Q 45.75 64.703125 38.578125 64.703125 
Q 30.328125 64.703125 24.78125 60.734375 
Q 19.234375 56.78125 16.984375 50.109375 
Q 14.75 43.453125 14.75 36.375 
Q 14.75 27.25 17.40625 20.4375 
Q 20.0625 13.625 25.671875 10.25 
Q 31.296875 6.890625 37.84375 6.890625 
Q 45.796875 6.890625 51.3125 11.46875 
Q 56.84375 16.0625 58.796875 25.09375 
z
" id="ArialMT-67"/>
       <path d="M 3.328125 25.921875 
Q 3.328125 40.328125 11.328125 47.265625 
Q 18.015625 53.03125 27.640625 53.03125 
Q 38.328125 53.03125 45.109375 46.015625 
Q 51.90625 39.015625 51.90625 26.65625 
Q 51.90625 16.65625 48.90625 10.90625 
Q 45.90625 5.171875 40.15625 2 
Q 34.421875 -1.171875 27.640625 -1.171875 
Q 16.75 -1.171875 10.03125 5.8125 
Q 3.328125 12.796875 3.328125 25.921875 
z
M 12.359375 25.921875 
Q 12.359375 15.96875 16.703125 11.015625 
Q 21.046875 6.0625 27.640625 6.0625 
Q 34.1875 6.0625 38.53125 11.03125 
Q 42.875 16.015625 42.875 26.21875 
Q 42.875 35.84375 38.5 40.796875 
Q 34.125 45.75 27.640625 45.75 
Q 21.046875 45.75 16.703125 40.8125 
Q 12.359375 35.890625 12.359375 25.921875 
z
" id="ArialMT-111"/>
       <path d="M 40.578125 0 
L 40.578125 7.625 
Q 34.515625 -1.171875 24.125 -1.171875 
Q 19.53125 -1.171875 15.546875 0.578125 
Q 11.578125 2.34375 9.640625 5 
Q 7.71875 7.671875 6.9375 11.53125 
Q 6.390625 14.109375 6.390625 19.734375 
L 6.390625 51.859375 
L 15.1875 51.859375 
L 15.1875 23.09375 
Q 15.1875 16.21875 15.71875 13.8125 
Q 16.546875 10.359375 19.234375 8.375 
Q 21.921875 6.390625 25.875 6.390625 
Q 29.828125 6.390625 33.296875 8.421875 
Q 36.765625 10.453125 38.203125 13.9375 
Q 39.65625 17.4375 39.65625 24.078125 
L 39.65625 51.859375 
L 48.4375 51.859375 
L 48.4375 0 
z
" id="ArialMT-117"/>
      </defs>
      <use xlink:href="#ArialMT-67"/>
      <use x="72.216797" xlink:href="#ArialMT-111"/>
      <use x="127.832031" xlink:href="#ArialMT-117"/>
      <use x="183.447266" xlink:href="#ArialMT-110"/>
      <use x="239.0625" xlink:href="#ArialMT-116"/>
     </g>
    </g>
   </g>
   <g id="patch_3">
    <path clip-path="url(#pc7805b28ae)" d="M 57.681818 220.5 
L 65.367769 220.5 
L 65.367769 198.928571 
L 57.681818 198.928571 
z
" style="fill:#ff0000;fill-opacity:0.5;stroke:#ffffff;stroke-linejoin:miter;stroke-width:0.768595;"/>
   </g>
   <g id="patch_4">
    <path clip-path="url(#pc7805b28ae)" d="M 65.367769 220.5 
L 73.053719 220.5 
L 73.053719 154.347619 
L 65.367769 154.347619 
z
" style="fill:#ff0000;fill-opacity:0.5;stroke:#ffffff;stroke-linejoin:miter;stroke-width:0.768595;"/>
   </g>
   <g id="patch_5">
    <path clip-path="url(#pc7805b28ae)" d="M 73.053719 220.5 
L 80.739669 220.5 
L 80.739669 115.519048 
L 73.053719 115.519048 
z
" style="fill:#ff0000;fill-opacity:0.5;stroke:#ffffff;stroke-linejoin:miter;stroke-width:0.768595;"/>
   </g>
   <g id="patch_6">
    <path clip-path="url(#pc7805b28ae)" d="M 80.739669 220.5 
L 88.42562 220.5 
L 88.42562 75.252381 
L 80.739669 75.252381 
z
" style="fill:#ff0000;fill-opacity:0.5;stroke:#ffffff;stroke-linejoin:miter;stroke-width:0.768595;"/>
   </g>
   <g id="patch_7">
    <path clip-path="url(#pc7805b28ae)" d="M 88.42562 220.5 
L 96.11157 220.5 
L 96.11157 57.995238 
L 88.42562 57.995238 
z
" style="fill:#ff0000;fill-opacity:0.5;stroke:#ffffff;stroke-linejoin:miter;stroke-width:0.768595;"/>
   </g>
   <g id="patch_8">
    <path clip-path="url(#pc7805b28ae)" d="M 96.11157 220.5 
L 103.797521 220.5 
L 103.797521 65.185714 
L 96.11157 65.185714 
z
" style="fill:#ff0000;fill-opacity:0.5;stroke:#ffffff;stroke-linejoin:miter;stroke-width:0.768595;"/>
   </g>
   <g id="patch_9">
    <path clip-path="url(#pc7805b28ae)" d="M 103.797521 220.5 
L 111.483471 220.5 
L 111.483471 50.804762 
L 103.797521 50.804762 
z
" style="fill:#ff0000;fill-opacity:0.5;stroke:#ffffff;stroke-linejoin:miter;stroke-width:0.768595;"/>
   </g>
   <g id="patch_10">
    <path clip-path="url(#pc7805b28ae)" d="M 111.483471 220.5 
L 119.169421 220.5 
L 119.169421 105.452381 
L 111.483471 105.452381 
z
" style="fill:#ff0000;fill-opacity:0.5;stroke:#ffffff;stroke-linejoin:miter;stroke-width:0.768595;"/>
   </g>
   <g id="patch_11">
    <path clip-path="url(#pc7805b28ae)" d="M 119.169421 220.5 
L 126.855372 220.5 
L 126.855372 125.585714 
L 119.169421 125.585714 
z
" style="fill:#ff0000;fill-opacity:0.5;stroke:#ffffff;stroke-linejoin:miter;stroke-width:0.768595;"/>
   </g>
   <g id="patch_12">
    <path clip-path="url(#pc7805b28ae)" d="M 126.855372 220.5 
L 134.541322 220.5 
L 134.541322 114.080952 
L 126.855372 114.080952 
z
" style="fill:#ff0000;fill-opacity:0.5;stroke:#ffffff;stroke-linejoin:miter;stroke-width:0.768595;"/>
   </g>
   <g id="patch_13">
    <path clip-path="url(#pc7805b28ae)" d="M 134.541322 220.5 
L 142.227273 220.5 
L 142.227273 158.661905 
L 134.541322 158.661905 
z
" style="fill:#ff0000;fill-opacity:0.5;stroke:#ffffff;stroke-linejoin:miter;stroke-width:0.768595;"/>
   </g>
   <g id="patch_14">
    <path clip-path="url(#pc7805b28ae)" d="M 142.227273 220.5 
L 149.913223 220.5 
L 149.913223 168.728571 
L 142.227273 168.728571 
z
" style="fill:#ff0000;fill-opacity:0.5;stroke:#ffffff;stroke-linejoin:miter;stroke-width:0.768595;"/>
   </g>
   <g id="patch_15">
    <path clip-path="url(#pc7805b28ae)" d="M 149.913223 220.5 
L 157.599174 220.5 
L 157.599174 184.547619 
L 149.913223 184.547619 
z
" style="fill:#ff0000;fill-opacity:0.5;stroke:#ffffff;stroke-linejoin:miter;stroke-width:0.768595;"/>
   </g>
   <g id="patch_16">
    <path clip-path="url(#pc7805b28ae)" d="M 157.599174 220.5 
L 165.285124 220.5 
L 165.285124 178.795238 
L 157.599174 178.795238 
z
" style="fill:#ff0000;fill-opacity:0.5;stroke:#ffffff;stroke-linejoin:miter;stroke-width:0.768595;"/>
   </g>
   <g id="patch_17">
    <path clip-path="url(#pc7805b28ae)" d="M 165.285124 220.5 
L 172.971074 220.5 
L 172.971074 203.242857 
L 165.285124 203.242857 
z
" style="fill:#ff0000;fill-opacity:0.5;stroke:#ffffff;stroke-linejoin:miter;stroke-width:0.768595;"/>
   </g>
   <g id="patch_18">
    <path clip-path="url(#pc7805b28ae)" d="M 172.971074 220.5 
L 180.657025 220.5 
L 180.657025 193.17619 
L 172.971074 193.17619 
z
" style="fill:#ff0000;fill-opacity:0.5;stroke:#ffffff;stroke-linejoin:miter;stroke-width:0.768595;"/>
   </g>
   <g id="patch_19">
    <path clip-path="url(#pc7805b28ae)" d="M 180.657025 220.5 
L 188.342975 220.5 
L 188.342975 203.242857 
L 180.657025 203.242857 
z
" style="fill:#ff0000;fill-opacity:0.5;stroke:#ffffff;stroke-linejoin:miter;stroke-width:0.768595;"/>
   </g>
   <g id="patch_20">
    <path clip-path="url(#pc7805b28ae)" d="M 188.342975 220.5 
L 196.028926 220.5 
L 196.028926 200.366667 
L 188.342975 200.366667 
z
" style="fill:#ff0000;fill-opacity:0.5;stroke:#ffffff;stroke-linejoin:miter;stroke-width:0.768595;"/>
   </g>
   <g id="patch_21">
    <path clip-path="url(#pc7805b28ae)" d="M 196.028926 220.5 
L 203.714876 220.5 
L 203.714876 214.747619 
L 196.028926 214.747619 
z
" style="fill:#ff0000;fill-opacity:0.5;stroke:#ffffff;stroke-linejoin:miter;stroke-width:0.768595;"/>
   </g>
   <g id="patch_22">
    <path clip-path="url(#pc7805b28ae)" d="M 203.714876 220.5 
L 211.400826 220.5 
L 211.400826 219.061905 
L 203.714876 219.061905 
z
" style="fill:#ff0000;fill-opacity:0.5;stroke:#ffffff;stroke-linejoin:miter;stroke-width:0.768595;"/>
   </g>
   <g id="patch_23">
    <path clip-path="url(#pc7805b28ae)" d="M 211.400826 220.5 
L 219.086777 220.5 
L 219.086777 219.061905 
L 211.400826 219.061905 
z
" style="fill:#ff0000;fill-opacity:0.5;stroke:#ffffff;stroke-linejoin:miter;stroke-width:0.768595;"/>
   </g>
   <g id="patch_24">
    <path clip-path="url(#pc7805b28ae)" d="M 219.086777 220.5 
L 226.772727 220.5 
L 226.772727 220.5 
L 219.086777 220.5 
z
" style="fill:#ff0000;fill-opacity:0.5;stroke:#ffffff;stroke-linejoin:miter;stroke-width:0.768595;"/>
   </g>
   <g id="patch_25">
    <path clip-path="url(#pc7805b28ae)" d="M 226.772727 220.5 
L 234.458678 220.5 
L 234.458678 213.309524 
L 226.772727 213.309524 
z
" style="fill:#ff0000;fill-opacity:0.5;stroke:#ffffff;stroke-linejoin:miter;stroke-width:0.768595;"/>
   </g>
   <g id="patch_26">
    <path clip-path="url(#pc7805b28ae)" d="M 234.458678 220.5 
L 242.144628 220.5 
L 242.144628 220.5 
L 234.458678 220.5 
z
" style="fill:#ff0000;fill-opacity:0.5;stroke:#ffffff;stroke-linejoin:miter;stroke-width:0.768595;"/>
   </g>
   <g id="patch_27">
    <path clip-path="url(#pc7805b28ae)" d="M 242.144628 220.5 
L 249.830579 220.5 
L 249.830579 220.5 
L 242.144628 220.5 
z
" style="fill:#ff0000;fill-opacity:0.5;stroke:#ffffff;stroke-linejoin:miter;stroke-width:0.768595;"/>
   </g>
   <g id="patch_28">
    <path clip-path="url(#pc7805b28ae)" d="M 249.830579 220.5 
L 257.516529 220.5 
L 257.516529 216.185714 
L 249.830579 216.185714 
z
" style="fill:#ff0000;fill-opacity:0.5;stroke:#ffffff;stroke-linejoin:miter;stroke-width:0.768595;"/>
   </g>
   <g id="patch_29">
    <path clip-path="url(#pc7805b28ae)" d="M 257.516529 220.5 
L 265.202479 220.5 
L 265.202479 220.5 
L 257.516529 220.5 
z
" style="fill:#ff0000;fill-opacity:0.5;stroke:#ffffff;stroke-linejoin:miter;stroke-width:0.768595;"/>
   </g>
   <g id="patch_30">
    <path clip-path="url(#pc7805b28ae)" d="M 265.202479 220.5 
L 272.88843 220.5 
L 272.88843 220.5 
L 265.202479 220.5 
z
" style="fill:#ff0000;fill-opacity:0.5;stroke:#ffffff;stroke-linejoin:miter;stroke-width:0.768595;"/>
   </g>
   <g id="patch_31">
    <path clip-path="url(#pc7805b28ae)" d="M 272.88843 220.5 
L 280.57438 220.5 
L 280.57438 219.061905 
L 272.88843 219.061905 
z
" style="fill:#ff0000;fill-opacity:0.5;stroke:#ffffff;stroke-linejoin:miter;stroke-width:0.768595;"/>
   </g>
   <g id="patch_32">
    <path clip-path="url(#pc7805b28ae)" d="M 280.57438 220.5 
L 288.260331 220.5 
L 288.260331 220.5 
L 280.57438 220.5 
z
" style="fill:#ff0000;fill-opacity:0.5;stroke:#ffffff;stroke-linejoin:miter;stroke-width:0.768595;"/>
   </g>
   <g id="patch_33">
    <path clip-path="url(#pc7805b28ae)" d="M 288.260331 220.5 
L 295.946281 220.5 
L 295.946281 220.5 
L 288.260331 220.5 
z
" style="fill:#ff0000;fill-opacity:0.5;stroke:#ffffff;stroke-linejoin:miter;stroke-width:0.768595;"/>
   </g>
   <g id="patch_34">
    <path clip-path="url(#pc7805b28ae)" d="M 295.946281 220.5 
L 303.632231 220.5 
L 303.632231 220.5 
L 295.946281 220.5 
z
" style="fill:#ff0000;fill-opacity:0.5;stroke:#ffffff;stroke-linejoin:miter;stroke-width:0.768595;"/>
   </g>
   <g id="patch_35">
    <path clip-path="url(#pc7805b28ae)" d="M 303.632231 220.5 
L 311.318182 220.5 
L 311.318182 219.061905 
L 303.632231 219.061905 
z
" style="fill:#ff0000;fill-opacity:0.5;stroke:#ffffff;stroke-linejoin:miter;stroke-width:0.768595;"/>
   </g>
   <g id="patch_36">
    <path clip-path="url(#pc7805b28ae)" d="M 60.528729 220.5 
L 68.214727 220.5 
L 68.214727 201.804762 
L 60.528729 201.804762 
z
" style="fill:#a1c9f4;fill-opacity:0.5;stroke:#ffffff;stroke-linejoin:miter;stroke-width:0.7686;"/>
   </g>
   <g id="patch_37">
    <path clip-path="url(#pc7805b28ae)" d="M 68.214727 220.5 
L 75.900724 220.5 
L 75.900724 171.604762 
L 68.214727 171.604762 
z
" style="fill:#a1c9f4;fill-opacity:0.5;stroke:#ffffff;stroke-linejoin:miter;stroke-width:0.7686;"/>
   </g>
   <g id="patch_38">
    <path clip-path="url(#pc7805b28ae)" d="M 75.900724 220.5 
L 83.586722 220.5 
L 83.586722 106.890476 
L 75.900724 106.890476 
z
" style="fill:#a1c9f4;fill-opacity:0.5;stroke:#ffffff;stroke-linejoin:miter;stroke-width:0.7686;"/>
   </g>
   <g id="patch_39">
    <path clip-path="url(#pc7805b28ae)" d="M 83.586722 220.5 
L 91.272719 220.5 
L 91.272719 60.871429 
L 83.586722 60.871429 
z
" style="fill:#a1c9f4;fill-opacity:0.5;stroke:#ffffff;stroke-linejoin:miter;stroke-width:0.7686;"/>
   </g>
   <g id="patch_40">
    <path clip-path="url(#pc7805b28ae)" d="M 91.272719 220.5 
L 98.958717 220.5 
L 98.958717 82.442857 
L 91.272719 82.442857 
z
" style="fill:#a1c9f4;fill-opacity:0.5;stroke:#ffffff;stroke-linejoin:miter;stroke-width:0.7686;"/>
   </g>
   <g id="patch_41">
    <path clip-path="url(#pc7805b28ae)" d="M 98.958717 220.5 
L 106.644714 220.5 
L 106.644714 60.871429 
L 98.958717 60.871429 
z
" style="fill:#a1c9f4;fill-opacity:0.5;stroke:#ffffff;stroke-linejoin:miter;stroke-width:0.7686;"/>
   </g>
   <g id="patch_42">
    <path clip-path="url(#pc7805b28ae)" d="M 106.644714 220.5 
L 114.330712 220.5 
L 114.330712 39.3 
L 106.644714 39.3 
z
" style="fill:#a1c9f4;fill-opacity:0.5;stroke:#ffffff;stroke-linejoin:miter;stroke-width:0.7686;"/>
   </g>
   <g id="patch_43">
    <path clip-path="url(#pc7805b28ae)" d="M 114.330712 220.5 
L 122.016709 220.5 
L 122.016709 75.252381 
L 114.330712 75.252381 
z
" style="fill:#a1c9f4;fill-opacity:0.5;stroke:#ffffff;stroke-linejoin:miter;stroke-width:0.7686;"/>
   </g>
   <g id="patch_44">
    <path clip-path="url(#pc7805b28ae)" d="M 122.016709 220.5 
L 129.702706 220.5 
L 129.702706 125.585714 
L 122.016709 125.585714 
z
" style="fill:#a1c9f4;fill-opacity:0.5;stroke:#ffffff;stroke-linejoin:miter;stroke-width:0.7686;"/>
   </g>
   <g id="patch_45">
    <path clip-path="url(#pc7805b28ae)" d="M 129.702706 220.5 
L 137.388704 220.5 
L 137.388704 132.77619 
L 129.702706 132.77619 
z
" style="fill:#a1c9f4;fill-opacity:0.5;stroke:#ffffff;stroke-linejoin:miter;stroke-width:0.7686;"/>
   </g>
   <g id="patch_46">
    <path clip-path="url(#pc7805b28ae)" d="M 137.388704 220.5 
L 145.074701 220.5 
L 145.074701 152.909524 
L 137.388704 152.909524 
z
" style="fill:#a1c9f4;fill-opacity:0.5;stroke:#ffffff;stroke-linejoin:miter;stroke-width:0.7686;"/>
   </g>
   <g id="patch_47">
    <path clip-path="url(#pc7805b28ae)" d="M 145.074701 220.5 
L 152.760699 220.5 
L 152.760699 158.661905 
L 145.074701 158.661905 
z
" style="fill:#a1c9f4;fill-opacity:0.5;stroke:#ffffff;stroke-linejoin:miter;stroke-width:0.7686;"/>
   </g>
   <g id="patch_48">
    <path clip-path="url(#pc7805b28ae)" d="M 152.760699 220.5 
L 160.446696 220.5 
L 160.446696 178.795238 
L 152.760699 178.795238 
z
" style="fill:#a1c9f4;fill-opacity:0.5;stroke:#ffffff;stroke-linejoin:miter;stroke-width:0.7686;"/>
   </g>
   <g id="patch_49">
    <path clip-path="url(#pc7805b28ae)" d="M 160.446696 220.5 
L 168.132694 220.5 
L 168.132694 185.985714 
L 160.446696 185.985714 
z
" style="fill:#a1c9f4;fill-opacity:0.5;stroke:#ffffff;stroke-linejoin:miter;stroke-width:0.7686;"/>
   </g>
   <g id="patch_50">
    <path clip-path="url(#pc7805b28ae)" d="M 168.132694 220.5 
L 175.818691 220.5 
L 175.818691 191.738095 
L 168.132694 191.738095 
z
" style="fill:#a1c9f4;fill-opacity:0.5;stroke:#ffffff;stroke-linejoin:miter;stroke-width:0.7686;"/>
   </g>
   <g id="patch_51">
    <path clip-path="url(#pc7805b28ae)" d="M 175.818691 220.5 
L 183.504689 220.5 
L 183.504689 194.614286 
L 175.818691 194.614286 
z
" style="fill:#a1c9f4;fill-opacity:0.5;stroke:#ffffff;stroke-linejoin:miter;stroke-width:0.7686;"/>
   </g>
   <g id="patch_52">
    <path clip-path="url(#pc7805b28ae)" d="M 183.504689 220.5 
L 191.190686 220.5 
L 191.190686 211.871429 
L 183.504689 211.871429 
z
" style="fill:#a1c9f4;fill-opacity:0.5;stroke:#ffffff;stroke-linejoin:miter;stroke-width:0.7686;"/>
   </g>
   <g id="patch_53">
    <path clip-path="url(#pc7805b28ae)" d="M 191.190686 220.5 
L 198.876684 220.5 
L 198.876684 211.871429 
L 191.190686 211.871429 
z
" style="fill:#a1c9f4;fill-opacity:0.5;stroke:#ffffff;stroke-linejoin:miter;stroke-width:0.7686;"/>
   </g>
   <g id="patch_54">
    <path clip-path="url(#pc7805b28ae)" d="M 198.876684 220.5 
L 206.562681 220.5 
L 206.562681 211.871429 
L 198.876684 211.871429 
z
" style="fill:#a1c9f4;fill-opacity:0.5;stroke:#ffffff;stroke-linejoin:miter;stroke-width:0.7686;"/>
   </g>
   <g id="patch_55">
    <path clip-path="url(#pc7805b28ae)" d="M 206.562681 220.5 
L 214.248678 220.5 
L 214.248678 220.5 
L 206.562681 220.5 
z
" style="fill:#a1c9f4;fill-opacity:0.5;stroke:#ffffff;stroke-linejoin:miter;stroke-width:0.7686;"/>
   </g>
   <g id="patch_56">
    <path clip-path="url(#pc7805b28ae)" d="M 214.248678 220.5 
L 221.934676 220.5 
L 221.934676 216.185714 
L 214.248678 216.185714 
z
" style="fill:#a1c9f4;fill-opacity:0.5;stroke:#ffffff;stroke-linejoin:miter;stroke-width:0.7686;"/>
   </g>
   <g id="line2d_12">
    <path clip-path="url(#pc7805b28ae)" d="M 57.681818 201.765073 
L 58.956373 197.987482 
L 60.230927 193.79787 
L 62.780037 184.278313 
L 65.329146 173.475525 
L 67.878255 161.730259 
L 72.976473 136.757804 
L 78.074692 111.864438 
L 80.623801 100.294058 
L 83.17291 89.833528 
L 85.722019 80.847796 
L 86.996574 76.991721 
L 88.271128 73.584785 
L 89.545683 70.632027 
L 90.820238 68.129141 
L 92.094792 66.065025 
L 93.369347 64.425186 
L 94.643901 63.195511 
L 95.918456 62.365768 
L 97.193011 61.932207 
L 98.467565 61.898706 
L 99.74212 62.276099 
L 101.016674 63.079608 
L 102.291229 64.324643 
L 103.565783 66.021514 
L 104.840338 68.169872 
L 106.114893 70.753782 
L 107.389447 73.738319 
L 109.938556 80.670099 
L 116.311329 99.523651 
L 118.860439 105.978197 
L 121.409548 111.458082 
L 125.233212 118.607027 
L 127.782321 123.473333 
L 130.33143 128.962112 
L 132.880539 135.218572 
L 136.704203 145.599725 
L 140.527867 155.964792 
L 143.076976 162.226776 
L 145.626085 167.697712 
L 148.175194 172.294788 
L 150.724303 176.046428 
L 153.273413 179.074984 
L 155.822522 181.578068 
L 159.646185 184.849693 
L 168.568068 192.202049 
L 171.117177 194.017325 
L 173.666286 195.559682 
L 176.215395 196.849468 
L 180.039059 198.495697 
L 183.862723 200.125874 
L 186.411832 201.386225 
L 188.960941 202.895201 
L 191.51005 204.706875 
L 194.059159 206.809055 
L 202.981042 214.610974 
L 205.530151 216.279463 
L 208.07926 217.503745 
L 210.628369 218.283831 
L 213.177478 218.669553 
L 215.726587 218.738497 
L 218.275697 218.581106 
L 227.197579 217.686416 
L 229.746688 217.700503 
L 232.295797 217.900393 
L 242.492234 219.11164 
L 246.315898 219.124185 
L 255.23778 218.895318 
L 259.061444 219.093187 
L 267.983326 219.709439 
L 288.376199 220.359052 
L 294.748972 220.402272 
L 302.3963 220.200309 
L 311.318182 219.96642 
L 311.318182 219.96642 
" style="fill:none;stroke:#ff0000;stroke-linecap:round;stroke-width:1.5;"/>
   </g>
   <g id="line2d_13">
    <path clip-path="url(#pc7805b28ae)" d="M 60.528729 206.442653 
L 62.1509 202.50437 
L 63.77307 197.819331 
L 65.39524 192.308185 
L 67.017411 185.907928 
L 68.639581 178.591924 
L 70.261751 170.39078 
L 72.695007 156.677524 
L 80.805858 108.784799 
L 82.428029 100.949234 
L 84.050199 94.17203 
L 85.672369 88.49404 
L 87.29454 83.861599 
L 88.91671 80.138899 
L 90.53888 77.131689 
L 92.161051 74.619124 
L 94.594306 71.322388 
L 102.705158 60.802008 
L 104.327328 59.203881 
L 105.138413 58.60163 
L 105.949498 58.165222 
L 106.760583 57.919857 
L 107.571669 57.88915 
L 108.382754 58.094351 
L 109.193839 58.553618 
L 110.004924 59.281363 
L 110.816009 60.287699 
L 111.627094 61.578019 
L 112.43818 63.1527 
L 114.06035 67.130917 
L 115.68252 72.123625 
L 117.30469 77.958536 
L 119.737946 87.777077 
L 124.604457 107.982875 
L 127.037712 116.870342 
L 128.659883 122.060029 
L 130.282053 126.642474 
L 131.904223 130.662883 
L 133.526394 134.20303 
L 135.959649 138.838088 
L 139.20399 144.331535 
L 143.259416 151.220761 
L 145.692671 155.779648 
L 149.748097 164.022962 
L 152.992437 170.394592 
L 154.614608 173.202294 
L 156.236778 175.663558 
L 157.858948 177.766848 
L 159.481119 179.546923 
L 161.914374 181.764391 
L 165.9698 184.938677 
L 169.214141 187.61033 
L 171.647396 189.917567 
L 174.080652 192.568188 
L 176.513907 195.555199 
L 183.813673 204.876451 
L 185.435844 206.542083 
L 187.058014 207.935206 
L 188.680184 209.047535 
L 190.302355 209.901558 
L 191.924525 210.54494 
L 194.35778 211.257177 
L 199.224291 212.584337 
L 201.657547 213.486146 
L 205.712973 215.303382 
L 208.957313 216.671126 
L 211.390569 217.435532 
L 213.823824 217.930779 
L 217.068165 218.288954 
L 221.934676 218.714869 
L 221.934676 218.714869 
" style="fill:none;stroke:#a1c9f4;stroke-linecap:round;stroke-width:1.5;"/>
   </g>
   <g id="line2d_14">
    <path clip-path="url(#pc7805b28ae)" d="M 139.460864 220.5 
L 139.460864 30.24 
" style="fill:none;stroke:#008000;stroke-linecap:round;stroke-width:5;"/>
   </g>
   <g id="patch_57">
    <path d="M 45 220.5 
L 45 30.24 
" style="fill:none;stroke:#262626;stroke-linecap:square;stroke-linejoin:miter;stroke-width:1.25;"/>
   </g>
   <g id="patch_58">
    <path d="M 324 220.5 
L 324 30.24 
" style="fill:none;stroke:#262626;stroke-linecap:square;stroke-linejoin:miter;stroke-width:1.25;"/>
   </g>
   <g id="patch_59">
    <path d="M 45 220.5 
L 324 220.5 
" style="fill:none;stroke:#262626;stroke-linecap:square;stroke-linejoin:miter;stroke-width:1.25;"/>
   </g>
   <g id="patch_60">
    <path d="M 45 30.24 
L 324 30.24 
" style="fill:none;stroke:#262626;stroke-linecap:square;stroke-linejoin:miter;stroke-width:1.25;"/>
   </g>
   <g id="text_14">
    <!-- 20pen_resist_30 -->
    <g style="fill:#262626;" transform="translate(140.136562 24.24)scale(0.12 -0.12)">
     <defs>
      <path d="M 6.59375 -19.875 
L 6.59375 51.859375 
L 14.59375 51.859375 
L 14.59375 45.125 
Q 17.4375 49.078125 21 51.046875 
Q 24.5625 53.03125 29.640625 53.03125 
Q 36.28125 53.03125 41.359375 49.609375 
Q 46.4375 46.1875 49.015625 39.953125 
Q 51.609375 33.734375 51.609375 26.3125 
Q 51.609375 18.359375 48.75 11.984375 
Q 45.90625 5.609375 40.453125 2.21875 
Q 35.015625 -1.171875 29 -1.171875 
Q 24.609375 -1.171875 21.109375 0.6875 
Q 17.625 2.546875 15.375 5.375 
L 15.375 -19.875 
z
M 14.546875 25.640625 
Q 14.546875 15.625 18.59375 10.84375 
Q 22.65625 6.0625 28.421875 6.0625 
Q 34.28125 6.0625 38.453125 11.015625 
Q 42.625 15.96875 42.625 26.375 
Q 42.625 36.28125 38.546875 41.203125 
Q 34.46875 46.140625 28.8125 46.140625 
Q 23.1875 46.140625 18.859375 40.890625 
Q 14.546875 35.640625 14.546875 25.640625 
z
" id="ArialMT-112"/>
      <path d="M -1.515625 -19.875 
L -1.515625 -13.53125 
L 56.734375 -13.53125 
L 56.734375 -19.875 
z
" id="ArialMT-95"/>
     </defs>
     <use xlink:href="#ArialMT-50"/>
     <use x="55.615234" xlink:href="#ArialMT-48"/>
     <use x="111.230469" xlink:href="#ArialMT-112"/>
     <use x="166.845703" xlink:href="#ArialMT-101"/>
     <use x="222.460938" xlink:href="#ArialMT-110"/>
     <use x="278.076172" xlink:href="#ArialMT-95"/>
     <use x="333.691406" xlink:href="#ArialMT-114"/>
     <use x="366.992188" xlink:href="#ArialMT-101"/>
     <use x="422.607422" xlink:href="#ArialMT-115"/>
     <use x="472.607422" xlink:href="#ArialMT-105"/>
     <use x="494.824219" xlink:href="#ArialMT-115"/>
     <use x="544.824219" xlink:href="#ArialMT-116"/>
     <use x="572.607422" xlink:href="#ArialMT-95"/>
     <use x="628.222656" xlink:href="#ArialMT-51"/>
     <use x="683.837891" xlink:href="#ArialMT-48"/>
    </g>
   </g>
   <g id="legend_1">
    <g id="patch_61">
     <path d="M 195.74 85.719531 
L 316.3 85.719531 
Q 318.5 85.719531 318.5 83.519531 
L 318.5 37.94 
Q 318.5 35.74 316.3 35.74 
L 195.74 35.74 
Q 193.54 35.74 193.54 37.94 
L 193.54 83.519531 
Q 193.54 85.719531 195.74 85.719531 
z
" style="fill:#ffffff;opacity:0.8;stroke:#cccccc;stroke-linejoin:miter;"/>
    </g>
    <g id="line2d_15">
     <path d="M 197.94 44.163594 
L 219.94 44.163594 
" style="fill:none;stroke:#008000;stroke-linecap:round;stroke-width:5;"/>
    </g>
    <g id="line2d_16"/>
    <g id="text_15">
     <!-- True Wasserstein -->
     <g style="fill:#262626;" transform="translate(228.74 48.013594)scale(0.11 -0.11)">
      <defs>
       <path d="M 25.921875 0 
L 25.921875 63.140625 
L 2.34375 63.140625 
L 2.34375 71.578125 
L 59.078125 71.578125 
L 59.078125 63.140625 
L 35.40625 63.140625 
L 35.40625 0 
z
" id="ArialMT-84"/>
      </defs>
      <use xlink:href="#ArialMT-84"/>
      <use x="57.333984" xlink:href="#ArialMT-114"/>
      <use x="90.634766" xlink:href="#ArialMT-117"/>
      <use x="146.25" xlink:href="#ArialMT-101"/>
      <use x="201.865234" xlink:href="#ArialMT-32"/>
      <use x="229.648438" xlink:href="#ArialMT-87"/>
      <use x="320.283203" xlink:href="#ArialMT-97"/>
      <use x="375.898438" xlink:href="#ArialMT-115"/>
      <use x="425.898438" xlink:href="#ArialMT-115"/>
      <use x="475.898438" xlink:href="#ArialMT-101"/>
      <use x="531.513672" xlink:href="#ArialMT-114"/>
      <use x="564.814453" xlink:href="#ArialMT-115"/>
      <use x="614.814453" xlink:href="#ArialMT-116"/>
      <use x="642.597656" xlink:href="#ArialMT-101"/>
      <use x="698.212891" xlink:href="#ArialMT-105"/>
      <use x="720.429688" xlink:href="#ArialMT-110"/>
     </g>
    </g>
    <g id="patch_62">
     <path d="M 197.94 63.573438 
L 219.94 63.573438 
L 219.94 55.873438 
L 197.94 55.873438 
z
" style="fill:#ff0000;fill-opacity:0.5;stroke:#ffffff;stroke-linejoin:miter;stroke-width:0.768595;"/>
    </g>
    <g id="text_16">
     <!-- cLHS -->
     <g style="fill:#262626;" transform="translate(228.74 63.573438)scale(0.11 -0.11)">
      <defs>
       <path d="M 7.328125 0 
L 7.328125 71.578125 
L 16.796875 71.578125 
L 16.796875 8.453125 
L 52.046875 8.453125 
L 52.046875 0 
z
" id="ArialMT-76"/>
       <path d="M 8.015625 0 
L 8.015625 71.578125 
L 17.484375 71.578125 
L 17.484375 42.1875 
L 54.6875 42.1875 
L 54.6875 71.578125 
L 64.15625 71.578125 
L 64.15625 0 
L 54.6875 0 
L 54.6875 33.734375 
L 17.484375 33.734375 
L 17.484375 0 
z
" id="ArialMT-72"/>
       <path d="M 4.5 23 
L 13.421875 23.78125 
Q 14.0625 18.40625 16.375 14.96875 
Q 18.703125 11.53125 23.578125 9.40625 
Q 28.46875 7.28125 34.578125 7.28125 
Q 39.984375 7.28125 44.140625 8.890625 
Q 48.296875 10.5 50.3125 13.296875 
Q 52.34375 16.109375 52.34375 19.4375 
Q 52.34375 22.796875 50.390625 25.3125 
Q 48.4375 27.828125 43.953125 29.546875 
Q 41.0625 30.671875 31.203125 33.03125 
Q 21.34375 35.40625 17.390625 37.5 
Q 12.25 40.1875 9.734375 44.15625 
Q 7.234375 48.140625 7.234375 53.078125 
Q 7.234375 58.5 10.296875 63.203125 
Q 13.375 67.921875 19.28125 70.359375 
Q 25.203125 72.796875 32.421875 72.796875 
Q 40.375 72.796875 46.453125 70.234375 
Q 52.546875 67.671875 55.8125 62.6875 
Q 59.078125 57.71875 59.328125 51.421875 
L 50.25 50.734375 
Q 49.515625 57.515625 45.28125 60.984375 
Q 41.0625 64.453125 32.8125 64.453125 
Q 24.21875 64.453125 20.28125 61.296875 
Q 16.359375 58.15625 16.359375 53.71875 
Q 16.359375 49.859375 19.140625 47.359375 
Q 21.875 44.875 33.421875 42.265625 
Q 44.96875 39.65625 49.265625 37.703125 
Q 55.515625 34.8125 58.484375 30.390625 
Q 61.46875 25.984375 61.46875 20.21875 
Q 61.46875 14.5 58.203125 9.4375 
Q 54.9375 4.390625 48.796875 1.578125 
Q 42.671875 -1.21875 35.015625 -1.21875 
Q 25.296875 -1.21875 18.71875 1.609375 
Q 12.15625 4.4375 8.421875 10.125 
Q 4.6875 15.828125 4.5 23 
z
" id="ArialMT-83"/>
      </defs>
      <use xlink:href="#ArialMT-99"/>
      <use x="50" xlink:href="#ArialMT-76"/>
      <use x="105.615234" xlink:href="#ArialMT-72"/>
      <use x="177.832031" xlink:href="#ArialMT-83"/>
     </g>
    </g>
    <g id="patch_63">
     <path d="M 197.94 79.133281 
L 219.94 79.133281 
L 219.94 71.433281 
L 197.94 71.433281 
z
" style="fill:#a1c9f4;fill-opacity:0.5;stroke:#ffffff;stroke-linejoin:miter;stroke-width:0.7686;"/>
    </g>
    <g id="text_17">
     <!-- maxvol -->
     <g style="fill:#262626;" transform="translate(228.74 79.133281)scale(0.11 -0.11)">
      <defs>
       <path d="M 6.59375 0 
L 6.59375 51.859375 
L 14.453125 51.859375 
L 14.453125 44.578125 
Q 16.890625 48.390625 20.9375 50.703125 
Q 25 53.03125 30.171875 53.03125 
Q 35.9375 53.03125 39.625 50.640625 
Q 43.3125 48.25 44.828125 43.953125 
Q 50.984375 53.03125 60.84375 53.03125 
Q 68.5625 53.03125 72.703125 48.75 
Q 76.859375 44.484375 76.859375 35.59375 
L 76.859375 0 
L 68.109375 0 
L 68.109375 32.671875 
Q 68.109375 37.9375 67.25 40.25 
Q 66.40625 42.578125 64.15625 43.984375 
Q 61.921875 45.40625 58.890625 45.40625 
Q 53.421875 45.40625 49.796875 41.765625 
Q 46.1875 38.140625 46.1875 30.125 
L 46.1875 0 
L 37.40625 0 
L 37.40625 33.6875 
Q 37.40625 39.546875 35.25 42.46875 
Q 33.109375 45.40625 28.21875 45.40625 
Q 24.515625 45.40625 21.359375 43.453125 
Q 18.21875 41.5 16.796875 37.734375 
Q 15.375 33.984375 15.375 26.90625 
L 15.375 0 
z
" id="ArialMT-109"/>
       <path d="M 0.734375 0 
L 19.671875 26.953125 
L 2.15625 51.859375 
L 13.140625 51.859375 
L 21.09375 39.703125 
Q 23.34375 36.234375 24.703125 33.890625 
Q 26.859375 37.109375 28.65625 39.59375 
L 37.40625 51.859375 
L 47.90625 51.859375 
L 29.984375 27.4375 
L 49.265625 0 
L 38.484375 0 
L 27.828125 16.109375 
L 25 20.453125 
L 11.375 0 
z
" id="ArialMT-120"/>
       <path d="M 21 0 
L 1.265625 51.859375 
L 10.546875 51.859375 
L 21.6875 20.796875 
Q 23.484375 15.765625 25 10.359375 
Q 26.171875 14.453125 28.265625 20.21875 
L 39.796875 51.859375 
L 48.828125 51.859375 
L 29.203125 0 
z
" id="ArialMT-118"/>
       <path d="M 6.390625 0 
L 6.390625 71.578125 
L 15.1875 71.578125 
L 15.1875 0 
z
" id="ArialMT-108"/>
      </defs>
      <use xlink:href="#ArialMT-109"/>
      <use x="83.300781" xlink:href="#ArialMT-97"/>
      <use x="138.916016" xlink:href="#ArialMT-120"/>
      <use x="188.916016" xlink:href="#ArialMT-118"/>
      <use x="238.916016" xlink:href="#ArialMT-111"/>
      <use x="294.53125" xlink:href="#ArialMT-108"/>
     </g>
    </g>
   </g>
  </g>
 </g>
 <defs>
  <clipPath id="pc7805b28ae">
   <rect height="190.26" width="279" x="45" y="30.24"/>
  </clipPath>
 </defs>
</svg>
