<?xml version="1.0" encoding="utf-8" standalone="no"?>
<!DOCTYPE svg PUBLIC "-//W3C//DTD SVG 1.1//EN"
  "http://www.w3.org/Graphics/SVG/1.1/DTD/svg11.dtd">
<!-- Created with matplotlib (https://matplotlib.org/) -->
<svg height="252pt" version="1.1" viewBox="0 0 360 252" width="360pt" xmlns="http://www.w3.org/2000/svg" xmlns:xlink="http://www.w3.org/1999/xlink">
 <metadata>
  <rdf:RDF xmlns:cc="http://creativecommons.org/ns#" xmlns:dc="http://purl.org/dc/elements/1.1/" xmlns:rdf="http://www.w3.org/1999/02/22-rdf-syntax-ns#">
   <cc:Work>
    <dc:type rdf:resource="http://purl.org/dc/dcmitype/StillImage"/>
    <dc:date>2021-01-21T18:03:21.788668</dc:date>
    <dc:format>image/svg+xml</dc:format>
    <dc:creator>
     <cc:Agent>
      <dc:title>Matplotlib v3.3.0, https://matplotlib.org/</dc:title>
     </cc:Agent>
    </dc:creator>
   </cc:Work>
  </rdf:RDF>
 </metadata>
 <defs>
  <style type="text/css">*{stroke-linecap:butt;stroke-linejoin:round;}</style>
 </defs>
 <g id="figure_1">
  <g id="patch_1">
   <path d="M 0 252 
L 360 252 
L 360 0 
L 0 0 
z
" style="fill:#ffffff;"/>
  </g>
  <g id="axes_1">
   <g id="patch_2">
    <path d="M 45 220.5 
L 324 220.5 
L 324 30.24 
L 45 30.24 
z
" style="fill:#ffffff;"/>
   </g>
   <g id="matplotlib.axis_1">
    <g id="xtick_1">
     <g id="line2d_1">
      <defs>
       <path d="M 0 0 
L 0 6 
" id="m8599e1eee3" style="stroke:#262626;stroke-width:1.25;"/>
      </defs>
      <g>
       <use style="fill:#262626;stroke:#262626;stroke-width:1.25;" x="56.116618" xlink:href="#m8599e1eee3" y="220.5"/>
      </g>
     </g>
     <g id="text_1">
      <!-- 5 -->
      <g style="fill:#262626;" transform="translate(53.058102 237.873594)scale(0.11 -0.11)">
       <defs>
        <path d="M 4.15625 18.75 
L 13.375 19.53125 
Q 14.40625 12.796875 18.140625 9.390625 
Q 21.875 6 27.15625 6 
Q 33.5 6 37.890625 10.78125 
Q 42.28125 15.578125 42.28125 23.484375 
Q 42.28125 31 38.0625 35.34375 
Q 33.84375 39.703125 27 39.703125 
Q 22.75 39.703125 19.328125 37.765625 
Q 15.921875 35.84375 13.96875 32.765625 
L 5.71875 33.84375 
L 12.640625 70.609375 
L 48.25 70.609375 
L 48.25 62.203125 
L 19.671875 62.203125 
L 15.828125 42.96875 
Q 22.265625 47.46875 29.34375 47.46875 
Q 38.71875 47.46875 45.15625 40.96875 
Q 51.609375 34.46875 51.609375 24.265625 
Q 51.609375 14.546875 45.953125 7.46875 
Q 39.0625 -1.21875 27.15625 -1.21875 
Q 17.390625 -1.21875 11.203125 4.25 
Q 5.03125 9.71875 4.15625 18.75 
z
" id="ArialMT-53"/>
       </defs>
       <use xlink:href="#ArialMT-53"/>
      </g>
     </g>
    </g>
    <g id="xtick_2">
     <g id="line2d_2">
      <g>
       <use style="fill:#262626;stroke:#262626;stroke-width:1.25;" x="105.820994" xlink:href="#m8599e1eee3" y="220.5"/>
      </g>
     </g>
     <g id="text_2">
      <!-- 10 -->
      <g style="fill:#262626;" transform="translate(99.703963 237.873594)scale(0.11 -0.11)">
       <defs>
        <path d="M 37.25 0 
L 28.46875 0 
L 28.46875 56 
Q 25.296875 52.984375 20.140625 49.953125 
Q 14.984375 46.921875 10.890625 45.40625 
L 10.890625 53.90625 
Q 18.265625 57.375 23.78125 62.296875 
Q 29.296875 67.234375 31.59375 71.875 
L 37.25 71.875 
z
" id="ArialMT-49"/>
        <path d="M 4.15625 35.296875 
Q 4.15625 48 6.765625 55.734375 
Q 9.375 63.484375 14.515625 67.671875 
Q 19.671875 71.875 27.484375 71.875 
Q 33.25 71.875 37.59375 69.546875 
Q 41.9375 67.234375 44.765625 62.859375 
Q 47.609375 58.5 49.21875 52.21875 
Q 50.828125 45.953125 50.828125 35.296875 
Q 50.828125 22.703125 48.234375 14.96875 
Q 45.65625 7.234375 40.5 3 
Q 35.359375 -1.21875 27.484375 -1.21875 
Q 17.140625 -1.21875 11.234375 6.203125 
Q 4.15625 15.140625 4.15625 35.296875 
z
M 13.1875 35.296875 
Q 13.1875 17.671875 17.3125 11.828125 
Q 21.4375 6 27.484375 6 
Q 33.546875 6 37.671875 11.859375 
Q 41.796875 17.71875 41.796875 35.296875 
Q 41.796875 52.984375 37.671875 58.78125 
Q 33.546875 64.59375 27.390625 64.59375 
Q 21.34375 64.59375 17.71875 59.46875 
Q 13.1875 52.9375 13.1875 35.296875 
z
" id="ArialMT-48"/>
       </defs>
       <use xlink:href="#ArialMT-49"/>
       <use x="55.615234" xlink:href="#ArialMT-48"/>
      </g>
     </g>
    </g>
    <g id="xtick_3">
     <g id="line2d_3">
      <g>
       <use style="fill:#262626;stroke:#262626;stroke-width:1.25;" x="155.52537" xlink:href="#m8599e1eee3" y="220.5"/>
      </g>
     </g>
     <g id="text_3">
      <!-- 15 -->
      <g style="fill:#262626;" transform="translate(149.408339 237.873594)scale(0.11 -0.11)">
       <use xlink:href="#ArialMT-49"/>
       <use x="55.615234" xlink:href="#ArialMT-53"/>
      </g>
     </g>
    </g>
    <g id="xtick_4">
     <g id="line2d_4">
      <g>
       <use style="fill:#262626;stroke:#262626;stroke-width:1.25;" x="205.229746" xlink:href="#m8599e1eee3" y="220.5"/>
      </g>
     </g>
     <g id="text_4">
      <!-- 20 -->
      <g style="fill:#262626;" transform="translate(199.112715 237.873594)scale(0.11 -0.11)">
       <defs>
        <path d="M 50.34375 8.453125 
L 50.34375 0 
L 3.03125 0 
Q 2.9375 3.171875 4.046875 6.109375 
Q 5.859375 10.9375 9.828125 15.625 
Q 13.8125 20.3125 21.34375 26.46875 
Q 33.015625 36.03125 37.109375 41.625 
Q 41.21875 47.21875 41.21875 52.203125 
Q 41.21875 57.421875 37.46875 61 
Q 33.734375 64.59375 27.734375 64.59375 
Q 21.390625 64.59375 17.578125 60.78125 
Q 13.765625 56.984375 13.71875 50.25 
L 4.6875 51.171875 
Q 5.609375 61.28125 11.65625 66.578125 
Q 17.71875 71.875 27.9375 71.875 
Q 38.234375 71.875 44.234375 66.15625 
Q 50.25 60.453125 50.25 52 
Q 50.25 47.703125 48.484375 43.546875 
Q 46.734375 39.40625 42.65625 34.8125 
Q 38.578125 30.21875 29.109375 22.21875 
Q 21.1875 15.578125 18.9375 13.203125 
Q 16.703125 10.84375 15.234375 8.453125 
z
" id="ArialMT-50"/>
       </defs>
       <use xlink:href="#ArialMT-50"/>
       <use x="55.615234" xlink:href="#ArialMT-48"/>
      </g>
     </g>
    </g>
    <g id="xtick_5">
     <g id="line2d_5">
      <g>
       <use style="fill:#262626;stroke:#262626;stroke-width:1.25;" x="254.934122" xlink:href="#m8599e1eee3" y="220.5"/>
      </g>
     </g>
     <g id="text_5">
      <!-- 25 -->
      <g style="fill:#262626;" transform="translate(248.817091 237.873594)scale(0.11 -0.11)">
       <use xlink:href="#ArialMT-50"/>
       <use x="55.615234" xlink:href="#ArialMT-53"/>
      </g>
     </g>
    </g>
    <g id="xtick_6">
     <g id="line2d_6">
      <g>
       <use style="fill:#262626;stroke:#262626;stroke-width:1.25;" x="304.638498" xlink:href="#m8599e1eee3" y="220.5"/>
      </g>
     </g>
     <g id="text_6">
      <!-- 30 -->
      <g style="fill:#262626;" transform="translate(298.521467 237.873594)scale(0.11 -0.11)">
       <defs>
        <path d="M 4.203125 18.890625 
L 12.984375 20.0625 
Q 14.5 12.59375 18.140625 9.296875 
Q 21.78125 6 27 6 
Q 33.203125 6 37.46875 10.296875 
Q 41.75 14.59375 41.75 20.953125 
Q 41.75 27 37.796875 30.921875 
Q 33.84375 34.859375 27.734375 34.859375 
Q 25.25 34.859375 21.53125 33.890625 
L 22.515625 41.609375 
Q 23.390625 41.5 23.921875 41.5 
Q 29.546875 41.5 34.03125 44.421875 
Q 38.53125 47.359375 38.53125 53.46875 
Q 38.53125 58.296875 35.25 61.46875 
Q 31.984375 64.65625 26.8125 64.65625 
Q 21.6875 64.65625 18.265625 61.421875 
Q 14.84375 58.203125 13.875 51.765625 
L 5.078125 53.328125 
Q 6.6875 62.15625 12.390625 67.015625 
Q 18.109375 71.875 26.609375 71.875 
Q 32.46875 71.875 37.390625 69.359375 
Q 42.328125 66.84375 44.9375 62.5 
Q 47.5625 58.15625 47.5625 53.265625 
Q 47.5625 48.640625 45.0625 44.828125 
Q 42.578125 41.015625 37.703125 38.765625 
Q 44.046875 37.3125 47.5625 32.6875 
Q 51.078125 28.078125 51.078125 21.140625 
Q 51.078125 11.765625 44.234375 5.25 
Q 37.40625 -1.265625 26.953125 -1.265625 
Q 17.53125 -1.265625 11.296875 4.34375 
Q 5.078125 9.96875 4.203125 18.890625 
z
" id="ArialMT-51"/>
       </defs>
       <use xlink:href="#ArialMT-51"/>
       <use x="55.615234" xlink:href="#ArialMT-48"/>
      </g>
     </g>
    </g>
    <g id="text_7">
     <!-- Wasserstein distance -->
     <g style="fill:#262626;" transform="translate(127.704375 252.649219)scale(0.12 -0.12)">
      <defs>
       <path d="M 20.21875 0 
L 1.21875 71.578125 
L 10.9375 71.578125 
L 21.828125 24.65625 
Q 23.578125 17.28125 24.859375 10.015625 
Q 27.59375 21.484375 28.078125 23.25 
L 41.703125 71.578125 
L 53.125 71.578125 
L 63.375 35.359375 
Q 67.234375 21.875 68.953125 10.015625 
Q 70.3125 16.796875 72.515625 25.59375 
L 83.734375 71.578125 
L 93.265625 71.578125 
L 73.640625 0 
L 64.5 0 
L 49.421875 54.546875 
Q 47.515625 61.375 47.171875 62.9375 
Q 46.046875 58.015625 45.0625 54.546875 
L 29.890625 0 
z
" id="ArialMT-87"/>
       <path d="M 40.4375 6.390625 
Q 35.546875 2.25 31.03125 0.53125 
Q 26.515625 -1.171875 21.34375 -1.171875 
Q 12.796875 -1.171875 8.203125 3 
Q 3.609375 7.171875 3.609375 13.671875 
Q 3.609375 17.484375 5.34375 20.625 
Q 7.078125 23.78125 9.890625 25.6875 
Q 12.703125 27.59375 16.21875 28.5625 
Q 18.796875 29.25 24.03125 29.890625 
Q 34.671875 31.15625 39.703125 32.90625 
Q 39.75 34.71875 39.75 35.203125 
Q 39.75 40.578125 37.25 42.78125 
Q 33.890625 45.75 27.25 45.75 
Q 21.046875 45.75 18.09375 43.578125 
Q 15.140625 41.40625 13.71875 35.890625 
L 5.125 37.0625 
Q 6.296875 42.578125 8.984375 45.96875 
Q 11.671875 49.359375 16.75 51.1875 
Q 21.828125 53.03125 28.515625 53.03125 
Q 35.15625 53.03125 39.296875 51.46875 
Q 43.453125 49.90625 45.40625 47.53125 
Q 47.359375 45.171875 48.140625 41.546875 
Q 48.578125 39.3125 48.578125 33.453125 
L 48.578125 21.734375 
Q 48.578125 9.46875 49.140625 6.21875 
Q 49.703125 2.984375 51.375 0 
L 42.1875 0 
Q 40.828125 2.734375 40.4375 6.390625 
z
M 39.703125 26.03125 
Q 34.90625 24.078125 25.34375 22.703125 
Q 19.921875 21.921875 17.671875 20.9375 
Q 15.4375 19.96875 14.203125 18.09375 
Q 12.984375 16.21875 12.984375 13.921875 
Q 12.984375 10.40625 15.640625 8.0625 
Q 18.3125 5.71875 23.4375 5.71875 
Q 28.515625 5.71875 32.46875 7.9375 
Q 36.421875 10.15625 38.28125 14.015625 
Q 39.703125 17 39.703125 22.796875 
z
" id="ArialMT-97"/>
       <path d="M 3.078125 15.484375 
L 11.765625 16.84375 
Q 12.5 11.625 15.84375 8.84375 
Q 19.1875 6.0625 25.203125 6.0625 
Q 31.25 6.0625 34.171875 8.515625 
Q 37.109375 10.984375 37.109375 14.3125 
Q 37.109375 17.28125 34.515625 19 
Q 32.71875 20.171875 25.53125 21.96875 
Q 15.875 24.421875 12.140625 26.203125 
Q 8.40625 27.984375 6.46875 31.125 
Q 4.546875 34.28125 4.546875 38.09375 
Q 4.546875 41.546875 6.125 44.5 
Q 7.71875 47.46875 10.453125 49.421875 
Q 12.5 50.921875 16.03125 51.96875 
Q 19.578125 53.03125 23.640625 53.03125 
Q 29.734375 53.03125 34.34375 51.265625 
Q 38.96875 49.515625 41.15625 46.5 
Q 43.359375 43.5 44.1875 38.484375 
L 35.59375 37.3125 
Q 35.015625 41.3125 32.203125 43.546875 
Q 29.390625 45.796875 24.265625 45.796875 
Q 18.21875 45.796875 15.625 43.796875 
Q 13.03125 41.796875 13.03125 39.109375 
Q 13.03125 37.40625 14.109375 36.03125 
Q 15.1875 34.625 17.484375 33.6875 
Q 18.796875 33.203125 25.25 31.453125 
Q 34.578125 28.953125 38.25 27.359375 
Q 41.9375 25.78125 44.03125 22.75 
Q 46.140625 19.734375 46.140625 15.234375 
Q 46.140625 10.84375 43.578125 6.953125 
Q 41.015625 3.078125 36.171875 0.953125 
Q 31.34375 -1.171875 25.25 -1.171875 
Q 15.140625 -1.171875 9.84375 3.03125 
Q 4.546875 7.234375 3.078125 15.484375 
z
" id="ArialMT-115"/>
       <path d="M 42.09375 16.703125 
L 51.171875 15.578125 
Q 49.03125 7.625 43.21875 3.21875 
Q 37.40625 -1.171875 28.375 -1.171875 
Q 17 -1.171875 10.328125 5.828125 
Q 3.65625 12.84375 3.65625 25.484375 
Q 3.65625 38.578125 10.390625 45.796875 
Q 17.140625 53.03125 27.875 53.03125 
Q 38.28125 53.03125 44.875 45.953125 
Q 51.46875 38.875 51.46875 26.03125 
Q 51.46875 25.25 51.421875 23.6875 
L 12.75 23.6875 
Q 13.234375 15.140625 17.578125 10.59375 
Q 21.921875 6.0625 28.421875 6.0625 
Q 33.25 6.0625 36.671875 8.59375 
Q 40.09375 11.140625 42.09375 16.703125 
z
M 13.234375 30.90625 
L 42.1875 30.90625 
Q 41.609375 37.453125 38.875 40.71875 
Q 34.671875 45.796875 27.984375 45.796875 
Q 21.921875 45.796875 17.796875 41.75 
Q 13.671875 37.703125 13.234375 30.90625 
z
" id="ArialMT-101"/>
       <path d="M 6.5 0 
L 6.5 51.859375 
L 14.40625 51.859375 
L 14.40625 44 
Q 17.4375 49.515625 20 51.265625 
Q 22.5625 53.03125 25.640625 53.03125 
Q 30.078125 53.03125 34.671875 50.203125 
L 31.640625 42.046875 
Q 28.421875 43.953125 25.203125 43.953125 
Q 22.3125 43.953125 20.015625 42.21875 
Q 17.71875 40.484375 16.75 37.40625 
Q 15.28125 32.71875 15.28125 27.15625 
L 15.28125 0 
z
" id="ArialMT-114"/>
       <path d="M 25.78125 7.859375 
L 27.046875 0.09375 
Q 23.34375 -0.6875 20.40625 -0.6875 
Q 15.625 -0.6875 12.984375 0.828125 
Q 10.359375 2.34375 9.28125 4.8125 
Q 8.203125 7.28125 8.203125 15.1875 
L 8.203125 45.015625 
L 1.765625 45.015625 
L 1.765625 51.859375 
L 8.203125 51.859375 
L 8.203125 64.703125 
L 16.9375 69.96875 
L 16.9375 51.859375 
L 25.78125 51.859375 
L 25.78125 45.015625 
L 16.9375 45.015625 
L 16.9375 14.703125 
Q 16.9375 10.9375 17.40625 9.859375 
Q 17.875 8.796875 18.921875 8.15625 
Q 19.96875 7.515625 21.921875 7.515625 
Q 23.390625 7.515625 25.78125 7.859375 
z
" id="ArialMT-116"/>
       <path d="M 6.640625 61.46875 
L 6.640625 71.578125 
L 15.4375 71.578125 
L 15.4375 61.46875 
z
M 6.640625 0 
L 6.640625 51.859375 
L 15.4375 51.859375 
L 15.4375 0 
z
" id="ArialMT-105"/>
       <path d="M 6.59375 0 
L 6.59375 51.859375 
L 14.5 51.859375 
L 14.5 44.484375 
Q 20.21875 53.03125 31 53.03125 
Q 35.6875 53.03125 39.625 51.34375 
Q 43.5625 49.65625 45.515625 46.921875 
Q 47.46875 44.1875 48.25 40.4375 
Q 48.734375 37.984375 48.734375 31.890625 
L 48.734375 0 
L 39.9375 0 
L 39.9375 31.546875 
Q 39.9375 36.921875 38.90625 39.578125 
Q 37.890625 42.234375 35.28125 43.8125 
Q 32.671875 45.40625 29.15625 45.40625 
Q 23.53125 45.40625 19.453125 41.84375 
Q 15.375 38.28125 15.375 28.328125 
L 15.375 0 
z
" id="ArialMT-110"/>
       <path id="ArialMT-32"/>
       <path d="M 40.234375 0 
L 40.234375 6.546875 
Q 35.296875 -1.171875 25.734375 -1.171875 
Q 19.53125 -1.171875 14.328125 2.25 
Q 9.125 5.671875 6.265625 11.796875 
Q 3.421875 17.921875 3.421875 25.875 
Q 3.421875 33.640625 6 39.96875 
Q 8.59375 46.296875 13.765625 49.65625 
Q 18.953125 53.03125 25.34375 53.03125 
Q 30.03125 53.03125 33.6875 51.046875 
Q 37.359375 49.078125 39.65625 45.90625 
L 39.65625 71.578125 
L 48.390625 71.578125 
L 48.390625 0 
z
M 12.453125 25.875 
Q 12.453125 15.921875 16.640625 10.984375 
Q 20.84375 6.0625 26.5625 6.0625 
Q 32.328125 6.0625 36.34375 10.765625 
Q 40.375 15.484375 40.375 25.140625 
Q 40.375 35.796875 36.265625 40.765625 
Q 32.171875 45.75 26.171875 45.75 
Q 20.3125 45.75 16.375 40.96875 
Q 12.453125 36.1875 12.453125 25.875 
z
" id="ArialMT-100"/>
       <path d="M 40.4375 19 
L 49.078125 17.875 
Q 47.65625 8.9375 41.8125 3.875 
Q 35.984375 -1.171875 27.484375 -1.171875 
Q 16.84375 -1.171875 10.375 5.78125 
Q 3.90625 12.75 3.90625 25.734375 
Q 3.90625 34.125 6.6875 40.421875 
Q 9.46875 46.734375 15.15625 49.875 
Q 20.84375 53.03125 27.546875 53.03125 
Q 35.984375 53.03125 41.359375 48.75 
Q 46.734375 44.484375 48.25 36.625 
L 39.703125 35.296875 
Q 38.484375 40.53125 35.375 43.15625 
Q 32.28125 45.796875 27.875 45.796875 
Q 21.234375 45.796875 17.078125 41.03125 
Q 12.9375 36.28125 12.9375 25.984375 
Q 12.9375 15.53125 16.9375 10.796875 
Q 20.953125 6.0625 27.390625 6.0625 
Q 32.5625 6.0625 36.03125 9.234375 
Q 39.5 12.40625 40.4375 19 
z
" id="ArialMT-99"/>
      </defs>
      <use xlink:href="#ArialMT-87"/>
      <use x="90.634766" xlink:href="#ArialMT-97"/>
      <use x="146.25" xlink:href="#ArialMT-115"/>
      <use x="196.25" xlink:href="#ArialMT-115"/>
      <use x="246.25" xlink:href="#ArialMT-101"/>
      <use x="301.865234" xlink:href="#ArialMT-114"/>
      <use x="335.166016" xlink:href="#ArialMT-115"/>
      <use x="385.166016" xlink:href="#ArialMT-116"/>
      <use x="412.949219" xlink:href="#ArialMT-101"/>
      <use x="468.564453" xlink:href="#ArialMT-105"/>
      <use x="490.78125" xlink:href="#ArialMT-110"/>
      <use x="546.396484" xlink:href="#ArialMT-32"/>
      <use x="574.179688" xlink:href="#ArialMT-100"/>
      <use x="629.794922" xlink:href="#ArialMT-105"/>
      <use x="652.011719" xlink:href="#ArialMT-115"/>
      <use x="702.011719" xlink:href="#ArialMT-116"/>
      <use x="729.794922" xlink:href="#ArialMT-97"/>
      <use x="785.410156" xlink:href="#ArialMT-110"/>
      <use x="841.025391" xlink:href="#ArialMT-99"/>
      <use x="891.025391" xlink:href="#ArialMT-101"/>
     </g>
    </g>
   </g>
   <g id="matplotlib.axis_2">
    <g id="ytick_1">
     <g id="line2d_7">
      <defs>
       <path d="M 0 0 
L -6 0 
" id="m058d20ec3d" style="stroke:#262626;stroke-width:1.25;"/>
      </defs>
      <g>
       <use style="fill:#262626;stroke:#262626;stroke-width:1.25;" x="45" xlink:href="#m058d20ec3d" y="220.5"/>
      </g>
     </g>
     <g id="text_8">
      <!-- 0 -->
      <g style="fill:#262626;" transform="translate(29.382969 224.436797)scale(0.11 -0.11)">
       <use xlink:href="#ArialMT-48"/>
      </g>
     </g>
    </g>
    <g id="ytick_2">
     <g id="line2d_8">
      <g>
       <use style="fill:#262626;stroke:#262626;stroke-width:1.25;" x="45" xlink:href="#m058d20ec3d" y="189.525641"/>
      </g>
     </g>
     <g id="text_9">
      <!-- 20 -->
      <g style="fill:#262626;" transform="translate(23.265937 193.462438)scale(0.11 -0.11)">
       <use xlink:href="#ArialMT-50"/>
       <use x="55.615234" xlink:href="#ArialMT-48"/>
      </g>
     </g>
    </g>
    <g id="ytick_3">
     <g id="line2d_9">
      <g>
       <use style="fill:#262626;stroke:#262626;stroke-width:1.25;" x="45" xlink:href="#m058d20ec3d" y="158.551282"/>
      </g>
     </g>
     <g id="text_10">
      <!-- 40 -->
      <g style="fill:#262626;" transform="translate(23.265937 162.488079)scale(0.11 -0.11)">
       <defs>
        <path d="M 32.328125 0 
L 32.328125 17.140625 
L 1.265625 17.140625 
L 1.265625 25.203125 
L 33.9375 71.578125 
L 41.109375 71.578125 
L 41.109375 25.203125 
L 50.78125 25.203125 
L 50.78125 17.140625 
L 41.109375 17.140625 
L 41.109375 0 
z
M 32.328125 25.203125 
L 32.328125 57.46875 
L 9.90625 25.203125 
z
" id="ArialMT-52"/>
       </defs>
       <use xlink:href="#ArialMT-52"/>
       <use x="55.615234" xlink:href="#ArialMT-48"/>
      </g>
     </g>
    </g>
    <g id="ytick_4">
     <g id="line2d_10">
      <g>
       <use style="fill:#262626;stroke:#262626;stroke-width:1.25;" x="45" xlink:href="#m058d20ec3d" y="127.576923"/>
      </g>
     </g>
     <g id="text_11">
      <!-- 60 -->
      <g style="fill:#262626;" transform="translate(23.265937 131.51372)scale(0.11 -0.11)">
       <defs>
        <path d="M 49.75 54.046875 
L 41.015625 53.375 
Q 39.84375 58.546875 37.703125 60.890625 
Q 34.125 64.65625 28.90625 64.65625 
Q 24.703125 64.65625 21.53125 62.3125 
Q 17.390625 59.28125 14.984375 53.46875 
Q 12.59375 47.65625 12.5 36.921875 
Q 15.671875 41.75 20.265625 44.09375 
Q 24.859375 46.4375 29.890625 46.4375 
Q 38.671875 46.4375 44.84375 39.96875 
Q 51.03125 33.5 51.03125 23.25 
Q 51.03125 16.5 48.125 10.71875 
Q 45.21875 4.9375 40.140625 1.859375 
Q 35.0625 -1.21875 28.609375 -1.21875 
Q 17.625 -1.21875 10.6875 6.859375 
Q 3.765625 14.9375 3.765625 33.5 
Q 3.765625 54.25 11.421875 63.671875 
Q 18.109375 71.875 29.4375 71.875 
Q 37.890625 71.875 43.28125 67.140625 
Q 48.6875 62.40625 49.75 54.046875 
z
M 13.875 23.1875 
Q 13.875 18.65625 15.796875 14.5 
Q 17.71875 10.359375 21.1875 8.171875 
Q 24.65625 6 28.46875 6 
Q 34.03125 6 38.03125 10.484375 
Q 42.046875 14.984375 42.046875 22.703125 
Q 42.046875 30.125 38.078125 34.390625 
Q 34.125 38.671875 28.125 38.671875 
Q 22.171875 38.671875 18.015625 34.390625 
Q 13.875 30.125 13.875 23.1875 
z
" id="ArialMT-54"/>
       </defs>
       <use xlink:href="#ArialMT-54"/>
       <use x="55.615234" xlink:href="#ArialMT-48"/>
      </g>
     </g>
    </g>
    <g id="ytick_5">
     <g id="line2d_11">
      <g>
       <use style="fill:#262626;stroke:#262626;stroke-width:1.25;" x="45" xlink:href="#m058d20ec3d" y="96.602564"/>
      </g>
     </g>
     <g id="text_12">
      <!-- 80 -->
      <g style="fill:#262626;" transform="translate(23.265937 100.539361)scale(0.11 -0.11)">
       <defs>
        <path d="M 17.671875 38.8125 
Q 12.203125 40.828125 9.5625 44.53125 
Q 6.9375 48.25 6.9375 53.421875 
Q 6.9375 61.234375 12.546875 66.546875 
Q 18.171875 71.875 27.484375 71.875 
Q 36.859375 71.875 42.578125 66.421875 
Q 48.296875 60.984375 48.296875 53.171875 
Q 48.296875 48.1875 45.671875 44.5 
Q 43.0625 40.828125 37.75 38.8125 
Q 44.34375 36.671875 47.78125 31.875 
Q 51.21875 27.09375 51.21875 20.453125 
Q 51.21875 11.28125 44.71875 5.03125 
Q 38.234375 -1.21875 27.640625 -1.21875 
Q 17.046875 -1.21875 10.546875 5.046875 
Q 4.046875 11.328125 4.046875 20.703125 
Q 4.046875 27.6875 7.59375 32.390625 
Q 11.140625 37.109375 17.671875 38.8125 
z
M 15.921875 53.71875 
Q 15.921875 48.640625 19.1875 45.40625 
Q 22.46875 42.1875 27.6875 42.1875 
Q 32.765625 42.1875 36.015625 45.375 
Q 39.265625 48.578125 39.265625 53.21875 
Q 39.265625 58.0625 35.90625 61.359375 
Q 32.5625 64.65625 27.59375 64.65625 
Q 22.5625 64.65625 19.234375 61.421875 
Q 15.921875 58.203125 15.921875 53.71875 
z
M 13.09375 20.65625 
Q 13.09375 16.890625 14.875 13.375 
Q 16.65625 9.859375 20.171875 7.921875 
Q 23.6875 6 27.734375 6 
Q 34.03125 6 38.125 10.046875 
Q 42.234375 14.109375 42.234375 20.359375 
Q 42.234375 26.703125 38.015625 30.859375 
Q 33.796875 35.015625 27.4375 35.015625 
Q 21.234375 35.015625 17.15625 30.90625 
Q 13.09375 26.8125 13.09375 20.65625 
z
" id="ArialMT-56"/>
       </defs>
       <use xlink:href="#ArialMT-56"/>
       <use x="55.615234" xlink:href="#ArialMT-48"/>
      </g>
     </g>
    </g>
    <g id="ytick_6">
     <g id="line2d_12">
      <g>
       <use style="fill:#262626;stroke:#262626;stroke-width:1.25;" x="45" xlink:href="#m058d20ec3d" y="65.628205"/>
      </g>
     </g>
     <g id="text_13">
      <!-- 100 -->
      <g style="fill:#262626;" transform="translate(17.148906 69.565002)scale(0.11 -0.11)">
       <use xlink:href="#ArialMT-49"/>
       <use x="55.615234" xlink:href="#ArialMT-48"/>
       <use x="111.230469" xlink:href="#ArialMT-48"/>
      </g>
     </g>
    </g>
    <g id="ytick_7">
     <g id="line2d_13">
      <g>
       <use style="fill:#262626;stroke:#262626;stroke-width:1.25;" x="45" xlink:href="#m058d20ec3d" y="34.653846"/>
      </g>
     </g>
     <g id="text_14">
      <!-- 120 -->
      <g style="fill:#262626;" transform="translate(17.148906 38.590643)scale(0.11 -0.11)">
       <use xlink:href="#ArialMT-49"/>
       <use x="55.615234" xlink:href="#ArialMT-50"/>
       <use x="111.230469" xlink:href="#ArialMT-48"/>
      </g>
     </g>
    </g>
    <g id="text_15">
     <!-- Count -->
     <g style="fill:#262626;" transform="translate(10.763906 141.379687)rotate(-90)scale(0.12 -0.12)">
      <defs>
       <path d="M 58.796875 25.09375 
L 68.265625 22.703125 
Q 65.28125 11.03125 57.546875 4.90625 
Q 49.8125 -1.21875 38.625 -1.21875 
Q 27.046875 -1.21875 19.796875 3.484375 
Q 12.546875 8.203125 8.765625 17.140625 
Q 4.984375 26.078125 4.984375 36.328125 
Q 4.984375 47.515625 9.25 55.828125 
Q 13.53125 64.15625 21.40625 68.46875 
Q 29.296875 72.796875 38.765625 72.796875 
Q 49.515625 72.796875 56.828125 67.328125 
Q 64.15625 61.859375 67.046875 51.953125 
L 57.71875 49.75 
Q 55.21875 57.5625 50.484375 61.125 
Q 45.75 64.703125 38.578125 64.703125 
Q 30.328125 64.703125 24.78125 60.734375 
Q 19.234375 56.78125 16.984375 50.109375 
Q 14.75 43.453125 14.75 36.375 
Q 14.75 27.25 17.40625 20.4375 
Q 20.0625 13.625 25.671875 10.25 
Q 31.296875 6.890625 37.84375 6.890625 
Q 45.796875 6.890625 51.3125 11.46875 
Q 56.84375 16.0625 58.796875 25.09375 
z
" id="ArialMT-67"/>
       <path d="M 3.328125 25.921875 
Q 3.328125 40.328125 11.328125 47.265625 
Q 18.015625 53.03125 27.640625 53.03125 
Q 38.328125 53.03125 45.109375 46.015625 
Q 51.90625 39.015625 51.90625 26.65625 
Q 51.90625 16.65625 48.90625 10.90625 
Q 45.90625 5.171875 40.15625 2 
Q 34.421875 -1.171875 27.640625 -1.171875 
Q 16.75 -1.171875 10.03125 5.8125 
Q 3.328125 12.796875 3.328125 25.921875 
z
M 12.359375 25.921875 
Q 12.359375 15.96875 16.703125 11.015625 
Q 21.046875 6.0625 27.640625 6.0625 
Q 34.1875 6.0625 38.53125 11.03125 
Q 42.875 16.015625 42.875 26.21875 
Q 42.875 35.84375 38.5 40.796875 
Q 34.125 45.75 27.640625 45.75 
Q 21.046875 45.75 16.703125 40.8125 
Q 12.359375 35.890625 12.359375 25.921875 
z
" id="ArialMT-111"/>
       <path d="M 40.578125 0 
L 40.578125 7.625 
Q 34.515625 -1.171875 24.125 -1.171875 
Q 19.53125 -1.171875 15.546875 0.578125 
Q 11.578125 2.34375 9.640625 5 
Q 7.71875 7.671875 6.9375 11.53125 
Q 6.390625 14.109375 6.390625 19.734375 
L 6.390625 51.859375 
L 15.1875 51.859375 
L 15.1875 23.09375 
Q 15.1875 16.21875 15.71875 13.8125 
Q 16.546875 10.359375 19.234375 8.375 
Q 21.921875 6.390625 25.875 6.390625 
Q 29.828125 6.390625 33.296875 8.421875 
Q 36.765625 10.453125 38.203125 13.9375 
Q 39.65625 17.4375 39.65625 24.078125 
L 39.65625 51.859375 
L 48.4375 51.859375 
L 48.4375 0 
z
" id="ArialMT-117"/>
      </defs>
      <use xlink:href="#ArialMT-67"/>
      <use x="72.216797" xlink:href="#ArialMT-111"/>
      <use x="127.832031" xlink:href="#ArialMT-117"/>
      <use x="183.447266" xlink:href="#ArialMT-110"/>
      <use x="239.0625" xlink:href="#ArialMT-116"/>
     </g>
    </g>
   </g>
   <g id="patch_3">
    <path clip-path="url(#p6b0c90a72a)" d="M 57.681818 220.5 
L 67.781833 220.5 
L 67.781833 177.135897 
L 57.681818 177.135897 
z
" style="fill:#ff0000;fill-opacity:0.5;stroke:#ffffff;stroke-linejoin:miter;"/>
   </g>
   <g id="patch_4">
    <path clip-path="url(#p6b0c90a72a)" d="M 67.781833 220.5 
L 77.881848 220.5 
L 77.881848 146.161538 
L 67.781833 146.161538 
z
" style="fill:#ff0000;fill-opacity:0.5;stroke:#ffffff;stroke-linejoin:miter;"/>
   </g>
   <g id="patch_5">
    <path clip-path="url(#p6b0c90a72a)" d="M 77.881848 220.5 
L 87.981863 220.5 
L 87.981863 87.310256 
L 77.881848 87.310256 
z
" style="fill:#ff0000;fill-opacity:0.5;stroke:#ffffff;stroke-linejoin:miter;"/>
   </g>
   <g id="patch_6">
    <path clip-path="url(#p6b0c90a72a)" d="M 87.981863 220.5 
L 98.081878 220.5 
L 98.081878 50.141026 
L 87.981863 50.141026 
z
" style="fill:#ff0000;fill-opacity:0.5;stroke:#ffffff;stroke-linejoin:miter;"/>
   </g>
   <g id="patch_7">
    <path clip-path="url(#p6b0c90a72a)" d="M 98.081878 220.5 
L 108.181893 220.5 
L 108.181893 50.141026 
L 98.081878 50.141026 
z
" style="fill:#ff0000;fill-opacity:0.5;stroke:#ffffff;stroke-linejoin:miter;"/>
   </g>
   <g id="patch_8">
    <path clip-path="url(#p6b0c90a72a)" d="M 108.181893 220.5 
L 118.281908 220.5 
L 118.281908 39.3 
L 108.181893 39.3 
z
" style="fill:#ff0000;fill-opacity:0.5;stroke:#ffffff;stroke-linejoin:miter;"/>
   </g>
   <g id="patch_9">
    <path clip-path="url(#p6b0c90a72a)" d="M 118.281908 220.5 
L 128.381923 220.5 
L 128.381923 59.433333 
L 118.281908 59.433333 
z
" style="fill:#ff0000;fill-opacity:0.5;stroke:#ffffff;stroke-linejoin:miter;"/>
   </g>
   <g id="patch_10">
    <path clip-path="url(#p6b0c90a72a)" d="M 128.381923 220.5 
L 138.481938 220.5 
L 138.481938 104.346154 
L 128.381923 104.346154 
z
" style="fill:#ff0000;fill-opacity:0.5;stroke:#ffffff;stroke-linejoin:miter;"/>
   </g>
   <g id="patch_11">
    <path clip-path="url(#p6b0c90a72a)" d="M 138.481938 220.5 
L 148.581953 220.5 
L 148.581953 104.346154 
L 138.481938 104.346154 
z
" style="fill:#ff0000;fill-opacity:0.5;stroke:#ffffff;stroke-linejoin:miter;"/>
   </g>
   <g id="patch_12">
    <path clip-path="url(#p6b0c90a72a)" d="M 148.581953 220.5 
L 158.681968 220.5 
L 158.681968 124.479487 
L 148.581953 124.479487 
z
" style="fill:#ff0000;fill-opacity:0.5;stroke:#ffffff;stroke-linejoin:miter;"/>
   </g>
   <g id="patch_13">
    <path clip-path="url(#p6b0c90a72a)" d="M 158.681968 220.5 
L 168.781983 220.5 
L 168.781983 155.453846 
L 158.681968 155.453846 
z
" style="fill:#ff0000;fill-opacity:0.5;stroke:#ffffff;stroke-linejoin:miter;"/>
   </g>
   <g id="patch_14">
    <path clip-path="url(#p6b0c90a72a)" d="M 168.781983 220.5 
L 178.881998 220.5 
L 178.881998 174.038462 
L 168.781983 174.038462 
z
" style="fill:#ff0000;fill-opacity:0.5;stroke:#ffffff;stroke-linejoin:miter;"/>
   </g>
   <g id="patch_15">
    <path clip-path="url(#p6b0c90a72a)" d="M 178.881998 220.5 
L 188.982013 220.5 
L 188.982013 169.392308 
L 178.881998 169.392308 
z
" style="fill:#ff0000;fill-opacity:0.5;stroke:#ffffff;stroke-linejoin:miter;"/>
   </g>
   <g id="patch_16">
    <path clip-path="url(#p6b0c90a72a)" d="M 188.982013 220.5 
L 199.082028 220.5 
L 199.082028 184.879487 
L 188.982013 184.879487 
z
" style="fill:#ff0000;fill-opacity:0.5;stroke:#ffffff;stroke-linejoin:miter;"/>
   </g>
   <g id="patch_17">
    <path clip-path="url(#p6b0c90a72a)" d="M 199.082028 220.5 
L 209.182043 220.5 
L 209.182043 191.074359 
L 199.082028 191.074359 
z
" style="fill:#ff0000;fill-opacity:0.5;stroke:#ffffff;stroke-linejoin:miter;"/>
   </g>
   <g id="patch_18">
    <path clip-path="url(#p6b0c90a72a)" d="M 209.182043 220.5 
L 219.282058 220.5 
L 219.282058 203.464103 
L 209.182043 203.464103 
z
" style="fill:#ff0000;fill-opacity:0.5;stroke:#ffffff;stroke-linejoin:miter;"/>
   </g>
   <g id="patch_19">
    <path clip-path="url(#p6b0c90a72a)" d="M 219.282058 220.5 
L 229.382073 220.5 
L 229.382073 206.561538 
L 219.282058 206.561538 
z
" style="fill:#ff0000;fill-opacity:0.5;stroke:#ffffff;stroke-linejoin:miter;"/>
   </g>
   <g id="patch_20">
    <path clip-path="url(#p6b0c90a72a)" d="M 229.382073 220.5 
L 239.482088 220.5 
L 239.482088 209.658974 
L 229.382073 209.658974 
z
" style="fill:#ff0000;fill-opacity:0.5;stroke:#ffffff;stroke-linejoin:miter;"/>
   </g>
   <g id="patch_21">
    <path clip-path="url(#p6b0c90a72a)" d="M 239.482088 220.5 
L 249.582103 220.5 
L 249.582103 212.75641 
L 239.482088 212.75641 
z
" style="fill:#ff0000;fill-opacity:0.5;stroke:#ffffff;stroke-linejoin:miter;"/>
   </g>
   <g id="patch_22">
    <path clip-path="url(#p6b0c90a72a)" d="M 249.582103 220.5 
L 259.682118 220.5 
L 259.682118 217.402564 
L 249.582103 217.402564 
z
" style="fill:#ff0000;fill-opacity:0.5;stroke:#ffffff;stroke-linejoin:miter;"/>
   </g>
   <g id="patch_23">
    <path clip-path="url(#p6b0c90a72a)" d="M 259.682118 220.5 
L 269.782133 220.5 
L 269.782133 217.402564 
L 259.682118 217.402564 
z
" style="fill:#ff0000;fill-opacity:0.5;stroke:#ffffff;stroke-linejoin:miter;"/>
   </g>
   <g id="patch_24">
    <path clip-path="url(#p6b0c90a72a)" d="M 269.782133 220.5 
L 279.882148 220.5 
L 279.882148 220.5 
L 269.782133 220.5 
z
" style="fill:#ff0000;fill-opacity:0.5;stroke:#ffffff;stroke-linejoin:miter;"/>
   </g>
   <g id="patch_25">
    <path clip-path="url(#p6b0c90a72a)" d="M 279.882148 220.5 
L 289.982163 220.5 
L 289.982163 220.5 
L 279.882148 220.5 
z
" style="fill:#ff0000;fill-opacity:0.5;stroke:#ffffff;stroke-linejoin:miter;"/>
   </g>
   <g id="patch_26">
    <path clip-path="url(#p6b0c90a72a)" d="M 289.982163 220.5 
L 300.082178 220.5 
L 300.082178 220.5 
L 289.982163 220.5 
z
" style="fill:#ff0000;fill-opacity:0.5;stroke:#ffffff;stroke-linejoin:miter;"/>
   </g>
   <g id="patch_27">
    <path clip-path="url(#p6b0c90a72a)" d="M 300.082178 220.5 
L 310.182193 220.5 
L 310.182193 217.402564 
L 300.082178 217.402564 
z
" style="fill:#ff0000;fill-opacity:0.5;stroke:#ffffff;stroke-linejoin:miter;"/>
   </g>
   <g id="patch_28">
    <path clip-path="url(#p6b0c90a72a)" d="M 111.703458 220.5 
L 120.776855 220.5 
L 120.776855 218.951282 
L 111.703458 218.951282 
z
" style="fill:#a1c9f4;fill-opacity:0.5;stroke:#ffffff;stroke-linejoin:miter;stroke-width:0.90734;"/>
   </g>
   <g id="patch_29">
    <path clip-path="url(#p6b0c90a72a)" d="M 120.776855 220.5 
L 129.850251 220.5 
L 129.850251 217.402564 
L 120.776855 217.402564 
z
" style="fill:#a1c9f4;fill-opacity:0.5;stroke:#ffffff;stroke-linejoin:miter;stroke-width:0.90734;"/>
   </g>
   <g id="patch_30">
    <path clip-path="url(#p6b0c90a72a)" d="M 129.850251 220.5 
L 138.923648 220.5 
L 138.923648 203.464103 
L 129.850251 203.464103 
z
" style="fill:#a1c9f4;fill-opacity:0.5;stroke:#ffffff;stroke-linejoin:miter;stroke-width:0.90734;"/>
   </g>
   <g id="patch_31">
    <path clip-path="url(#p6b0c90a72a)" d="M 138.923648 220.5 
L 147.997044 220.5 
L 147.997044 201.915385 
L 138.923648 201.915385 
z
" style="fill:#a1c9f4;fill-opacity:0.5;stroke:#ffffff;stroke-linejoin:miter;stroke-width:0.90734;"/>
   </g>
   <g id="patch_32">
    <path clip-path="url(#p6b0c90a72a)" d="M 147.997044 220.5 
L 157.070441 220.5 
L 157.070441 187.976923 
L 147.997044 187.976923 
z
" style="fill:#a1c9f4;fill-opacity:0.5;stroke:#ffffff;stroke-linejoin:miter;stroke-width:0.90734;"/>
   </g>
   <g id="patch_33">
    <path clip-path="url(#p6b0c90a72a)" d="M 157.070441 220.5 
L 166.143837 220.5 
L 166.143837 158.551282 
L 157.070441 158.551282 
z
" style="fill:#a1c9f4;fill-opacity:0.5;stroke:#ffffff;stroke-linejoin:miter;stroke-width:0.90734;"/>
   </g>
   <g id="patch_34">
    <path clip-path="url(#p6b0c90a72a)" d="M 166.143837 220.5 
L 175.217234 220.5 
L 175.217234 144.612821 
L 166.143837 144.612821 
z
" style="fill:#a1c9f4;fill-opacity:0.5;stroke:#ffffff;stroke-linejoin:miter;stroke-width:0.90734;"/>
   </g>
   <g id="patch_35">
    <path clip-path="url(#p6b0c90a72a)" d="M 175.217234 220.5 
L 184.29063 220.5 
L 184.29063 118.284615 
L 175.217234 118.284615 
z
" style="fill:#a1c9f4;fill-opacity:0.5;stroke:#ffffff;stroke-linejoin:miter;stroke-width:0.90734;"/>
   </g>
   <g id="patch_36">
    <path clip-path="url(#p6b0c90a72a)" d="M 184.29063 220.5 
L 193.364027 220.5 
L 193.364027 87.310256 
L 184.29063 87.310256 
z
" style="fill:#a1c9f4;fill-opacity:0.5;stroke:#ffffff;stroke-linejoin:miter;stroke-width:0.90734;"/>
   </g>
   <g id="patch_37">
    <path clip-path="url(#p6b0c90a72a)" d="M 193.364027 220.5 
L 202.437423 220.5 
L 202.437423 91.95641 
L 193.364027 91.95641 
z
" style="fill:#a1c9f4;fill-opacity:0.5;stroke:#ffffff;stroke-linejoin:miter;stroke-width:0.90734;"/>
   </g>
   <g id="patch_38">
    <path clip-path="url(#p6b0c90a72a)" d="M 202.437423 220.5 
L 211.51082 220.5 
L 211.51082 57.884615 
L 202.437423 57.884615 
z
" style="fill:#a1c9f4;fill-opacity:0.5;stroke:#ffffff;stroke-linejoin:miter;stroke-width:0.90734;"/>
   </g>
   <g id="patch_39">
    <path clip-path="url(#p6b0c90a72a)" d="M 211.51082 220.5 
L 220.584216 220.5 
L 220.584216 39.3 
L 211.51082 39.3 
z
" style="fill:#a1c9f4;fill-opacity:0.5;stroke:#ffffff;stroke-linejoin:miter;stroke-width:0.90734;"/>
   </g>
   <g id="patch_40">
    <path clip-path="url(#p6b0c90a72a)" d="M 220.584216 220.5 
L 229.657613 220.5 
L 229.657613 73.371795 
L 220.584216 73.371795 
z
" style="fill:#a1c9f4;fill-opacity:0.5;stroke:#ffffff;stroke-linejoin:miter;stroke-width:0.90734;"/>
   </g>
   <g id="patch_41">
    <path clip-path="url(#p6b0c90a72a)" d="M 229.657613 220.5 
L 238.73101 220.5 
L 238.73101 68.725641 
L 229.657613 68.725641 
z
" style="fill:#a1c9f4;fill-opacity:0.5;stroke:#ffffff;stroke-linejoin:miter;stroke-width:0.90734;"/>
   </g>
   <g id="patch_42">
    <path clip-path="url(#p6b0c90a72a)" d="M 238.73101 220.5 
L 247.804406 220.5 
L 247.804406 119.833333 
L 238.73101 119.833333 
z
" style="fill:#a1c9f4;fill-opacity:0.5;stroke:#ffffff;stroke-linejoin:miter;stroke-width:0.90734;"/>
   </g>
   <g id="patch_43">
    <path clip-path="url(#p6b0c90a72a)" d="M 247.804406 220.5 
L 256.877803 220.5 
L 256.877803 132.223077 
L 247.804406 132.223077 
z
" style="fill:#a1c9f4;fill-opacity:0.5;stroke:#ffffff;stroke-linejoin:miter;stroke-width:0.90734;"/>
   </g>
   <g id="patch_44">
    <path clip-path="url(#p6b0c90a72a)" d="M 256.877803 220.5 
L 265.951199 220.5 
L 265.951199 164.746154 
L 256.877803 164.746154 
z
" style="fill:#a1c9f4;fill-opacity:0.5;stroke:#ffffff;stroke-linejoin:miter;stroke-width:0.90734;"/>
   </g>
   <g id="patch_45">
    <path clip-path="url(#p6b0c90a72a)" d="M 265.951199 220.5 
L 275.024596 220.5 
L 275.024596 181.782051 
L 265.951199 181.782051 
z
" style="fill:#a1c9f4;fill-opacity:0.5;stroke:#ffffff;stroke-linejoin:miter;stroke-width:0.90734;"/>
   </g>
   <g id="patch_46">
    <path clip-path="url(#p6b0c90a72a)" d="M 275.024596 220.5 
L 284.097992 220.5 
L 284.097992 201.915385 
L 275.024596 201.915385 
z
" style="fill:#a1c9f4;fill-opacity:0.5;stroke:#ffffff;stroke-linejoin:miter;stroke-width:0.90734;"/>
   </g>
   <g id="patch_47">
    <path clip-path="url(#p6b0c90a72a)" d="M 284.097992 220.5 
L 293.171389 220.5 
L 293.171389 205.012821 
L 284.097992 205.012821 
z
" style="fill:#a1c9f4;fill-opacity:0.5;stroke:#ffffff;stroke-linejoin:miter;stroke-width:0.90734;"/>
   </g>
   <g id="patch_48">
    <path clip-path="url(#p6b0c90a72a)" d="M 293.171389 220.5 
L 302.244785 220.5 
L 302.244785 209.658974 
L 293.171389 209.658974 
z
" style="fill:#a1c9f4;fill-opacity:0.5;stroke:#ffffff;stroke-linejoin:miter;stroke-width:0.90734;"/>
   </g>
   <g id="patch_49">
    <path clip-path="url(#p6b0c90a72a)" d="M 302.244785 220.5 
L 311.318182 220.5 
L 311.318182 217.402564 
L 302.244785 217.402564 
z
" style="fill:#a1c9f4;fill-opacity:0.5;stroke:#ffffff;stroke-linejoin:miter;stroke-width:0.90734;"/>
   </g>
   <g id="line2d_14">
    <path clip-path="url(#p6b0c90a72a)" d="M 57.681818 193.448714 
L 60.21951 185.436199 
L 62.757203 176.484688 
L 66.563741 161.76978 
L 72.907971 135.635923 
L 77.983356 114.879608 
L 81.789894 100.117494 
L 84.327586 90.893671 
L 86.865279 82.316612 
L 89.402971 74.521403 
L 91.940663 67.637731 
L 94.478355 61.775664 
L 95.747201 59.252813 
L 97.016047 57.009873 
L 98.284894 55.048832 
L 99.55374 53.368686 
L 100.822586 51.965783 
L 102.091432 50.834376 
L 103.360278 49.96735 
L 104.629124 49.35703 
L 105.89797 48.995975 
L 107.166816 48.877669 
L 108.435662 48.996994 
L 109.704509 49.350442 
L 110.973355 49.936005 
L 112.242201 50.752756 
L 113.511047 51.800168 
L 114.779893 53.07724 
L 116.048739 54.581539 
L 117.317585 56.308273 
L 119.855277 60.393557 
L 122.39297 65.223889 
L 124.930662 70.630821 
L 128.7372 79.359405 
L 133.812585 91.075341 
L 137.619123 99.333271 
L 141.425661 107.026238 
L 146.501046 116.697976 
L 155.382968 133.483405 
L 164.264891 150.523781 
L 166.802583 154.986565 
L 169.340275 159.050054 
L 171.877968 162.645379 
L 174.41566 165.770014 
L 176.953352 168.487806 
L 179.491044 170.909566 
L 184.566429 175.353989 
L 192.179505 182.069367 
L 199.792582 188.762386 
L 204.867966 192.960677 
L 209.943351 196.915427 
L 213.749889 199.677653 
L 217.556427 202.207661 
L 221.362966 204.470549 
L 225.169504 206.461886 
L 228.976042 208.198618 
L 232.782581 209.705982 
L 236.589119 211.014431 
L 241.664503 212.526031 
L 253.084118 215.57858 
L 259.428349 217.137133 
L 264.503733 218.180452 
L 269.579118 219.017709 
L 274.654502 219.653613 
L 279.729887 220.073191 
L 284.805271 220.264731 
L 289.880655 220.23442 
L 296.224886 219.922838 
L 306.375655 219.30348 
L 310.182193 219.279126 
L 310.182193 219.279126 
" style="fill:none;stroke:#ff0000;stroke-linecap:round;stroke-width:1.5;"/>
   </g>
   <g id="line2d_15">
    <path clip-path="url(#p6b0c90a72a)" d="M 111.703458 219.094167 
L 114.712725 218.415222 
L 116.718903 217.77275 
L 118.725081 216.945659 
L 120.73126 215.925466 
L 123.740527 214.074766 
L 127.752883 211.252597 
L 136.780685 204.647007 
L 138.786863 202.944577 
L 140.793041 201.012823 
L 142.799219 198.797212 
L 144.805397 196.264995 
L 146.811575 193.40444 
L 148.817753 190.221002 
L 151.827021 184.885285 
L 154.836288 178.977602 
L 158.848644 170.445925 
L 162.861 161.362988 
L 166.873357 151.707696 
L 170.885713 141.39956 
L 177.907336 122.455208 
L 182.922782 109.220597 
L 185.932049 101.8014 
L 188.941316 95.066883 
L 190.947494 91.053009 
L 192.953672 87.420193 
L 195.962939 82.510152 
L 201.981474 73.026918 
L 208.000008 63.274656 
L 210.006186 60.594574 
L 211.009275 59.481962 
L 212.012364 58.55162 
L 213.015453 57.821577 
L 214.018543 57.305173 
L 215.021632 57.010818 
L 216.024721 56.942036 
L 217.02781 57.09778 
L 218.030899 57.472962 
L 219.033988 58.059162 
L 220.037077 58.845457 
L 221.040166 59.819312 
L 223.046344 62.276837 
L 225.052522 65.33144 
L 227.0587 68.903732 
L 229.064879 72.942571 
L 231.071057 77.418249 
L 233.077235 82.304772 
L 236.086502 90.30163 
L 241.101947 104.62053 
L 245.114304 115.909194 
L 249.12666 126.517816 
L 257.151372 147.304407 
L 268.185352 176.795419 
L 270.19153 181.468094 
L 272.197708 185.694212 
L 274.203886 189.417745 
L 276.210065 192.618625 
L 278.216243 195.317651 
L 280.222421 197.574197 
L 282.228599 199.476137 
L 285.237866 201.884379 
L 290.253311 205.431903 
L 303.293469 214.473454 
L 306.302736 216.126724 
L 309.312004 217.452932 
L 311.318182 218.155237 
L 311.318182 218.155237 
" style="fill:none;stroke:#a1c9f4;stroke-linecap:round;stroke-width:1.5;"/>
   </g>
   <g id="line2d_16">
    <path clip-path="url(#p6b0c90a72a)" d="M 140.963742 220.5 
L 140.963742 30.24 
" style="fill:none;stroke:#008000;stroke-linecap:round;stroke-width:5;"/>
   </g>
   <g id="patch_50">
    <path d="M 45 220.5 
L 45 30.24 
" style="fill:none;stroke:#262626;stroke-linecap:square;stroke-linejoin:miter;stroke-width:1.25;"/>
   </g>
   <g id="patch_51">
    <path d="M 324 220.5 
L 324 30.24 
" style="fill:none;stroke:#262626;stroke-linecap:square;stroke-linejoin:miter;stroke-width:1.25;"/>
   </g>
   <g id="patch_52">
    <path d="M 45 220.5 
L 324 220.5 
" style="fill:none;stroke:#262626;stroke-linecap:square;stroke-linejoin:miter;stroke-width:1.25;"/>
   </g>
   <g id="patch_53">
    <path d="M 45 30.24 
L 324 30.24 
" style="fill:none;stroke:#262626;stroke-linecap:square;stroke-linejoin:miter;stroke-width:1.25;"/>
   </g>
   <g id="text_16">
    <!-- 30pen_resist_30 -->
    <g style="fill:#262626;" transform="translate(140.136562 24.24)scale(0.12 -0.12)">
     <defs>
      <path d="M 6.59375 -19.875 
L 6.59375 51.859375 
L 14.59375 51.859375 
L 14.59375 45.125 
Q 17.4375 49.078125 21 51.046875 
Q 24.5625 53.03125 29.640625 53.03125 
Q 36.28125 53.03125 41.359375 49.609375 
Q 46.4375 46.1875 49.015625 39.953125 
Q 51.609375 33.734375 51.609375 26.3125 
Q 51.609375 18.359375 48.75 11.984375 
Q 45.90625 5.609375 40.453125 2.21875 
Q 35.015625 -1.171875 29 -1.171875 
Q 24.609375 -1.171875 21.109375 0.6875 
Q 17.625 2.546875 15.375 5.375 
L 15.375 -19.875 
z
M 14.546875 25.640625 
Q 14.546875 15.625 18.59375 10.84375 
Q 22.65625 6.0625 28.421875 6.0625 
Q 34.28125 6.0625 38.453125 11.015625 
Q 42.625 15.96875 42.625 26.375 
Q 42.625 36.28125 38.546875 41.203125 
Q 34.46875 46.140625 28.8125 46.140625 
Q 23.1875 46.140625 18.859375 40.890625 
Q 14.546875 35.640625 14.546875 25.640625 
z
" id="ArialMT-112"/>
      <path d="M -1.515625 -19.875 
L -1.515625 -13.53125 
L 56.734375 -13.53125 
L 56.734375 -19.875 
z
" id="ArialMT-95"/>
     </defs>
     <use xlink:href="#ArialMT-51"/>
     <use x="55.615234" xlink:href="#ArialMT-48"/>
     <use x="111.230469" xlink:href="#ArialMT-112"/>
     <use x="166.845703" xlink:href="#ArialMT-101"/>
     <use x="222.460938" xlink:href="#ArialMT-110"/>
     <use x="278.076172" xlink:href="#ArialMT-95"/>
     <use x="333.691406" xlink:href="#ArialMT-114"/>
     <use x="366.992188" xlink:href="#ArialMT-101"/>
     <use x="422.607422" xlink:href="#ArialMT-115"/>
     <use x="472.607422" xlink:href="#ArialMT-105"/>
     <use x="494.824219" xlink:href="#ArialMT-115"/>
     <use x="544.824219" xlink:href="#ArialMT-116"/>
     <use x="572.607422" xlink:href="#ArialMT-95"/>
     <use x="628.222656" xlink:href="#ArialMT-51"/>
     <use x="683.837891" xlink:href="#ArialMT-48"/>
    </g>
   </g>
   <g id="legend_1">
    <g id="patch_54">
     <path d="M 195.74 150.359766 
L 316.3 150.359766 
Q 318.5 150.359766 318.5 148.159766 
L 318.5 102.580234 
Q 318.5 100.380234 316.3 100.380234 
L 195.74 100.380234 
Q 193.54 100.380234 193.54 102.580234 
L 193.54 148.159766 
Q 193.54 150.359766 195.74 150.359766 
z
" style="fill:#ffffff;opacity:0.8;stroke:#cccccc;stroke-linejoin:miter;"/>
    </g>
    <g id="line2d_17">
     <path d="M 197.94 108.803828 
L 219.94 108.803828 
" style="fill:none;stroke:#008000;stroke-linecap:round;stroke-width:5;"/>
    </g>
    <g id="line2d_18"/>
    <g id="text_17">
     <!-- True Wasserstein -->
     <g style="fill:#262626;" transform="translate(228.74 112.653828)scale(0.11 -0.11)">
      <defs>
       <path d="M 25.921875 0 
L 25.921875 63.140625 
L 2.34375 63.140625 
L 2.34375 71.578125 
L 59.078125 71.578125 
L 59.078125 63.140625 
L 35.40625 63.140625 
L 35.40625 0 
z
" id="ArialMT-84"/>
      </defs>
      <use xlink:href="#ArialMT-84"/>
      <use x="57.333984" xlink:href="#ArialMT-114"/>
      <use x="90.634766" xlink:href="#ArialMT-117"/>
      <use x="146.25" xlink:href="#ArialMT-101"/>
      <use x="201.865234" xlink:href="#ArialMT-32"/>
      <use x="229.648438" xlink:href="#ArialMT-87"/>
      <use x="320.283203" xlink:href="#ArialMT-97"/>
      <use x="375.898438" xlink:href="#ArialMT-115"/>
      <use x="425.898438" xlink:href="#ArialMT-115"/>
      <use x="475.898438" xlink:href="#ArialMT-101"/>
      <use x="531.513672" xlink:href="#ArialMT-114"/>
      <use x="564.814453" xlink:href="#ArialMT-115"/>
      <use x="614.814453" xlink:href="#ArialMT-116"/>
      <use x="642.597656" xlink:href="#ArialMT-101"/>
      <use x="698.212891" xlink:href="#ArialMT-105"/>
      <use x="720.429688" xlink:href="#ArialMT-110"/>
     </g>
    </g>
    <g id="patch_55">
     <path d="M 197.94 128.213672 
L 219.94 128.213672 
L 219.94 120.513672 
L 197.94 120.513672 
z
" style="fill:#ff0000;fill-opacity:0.5;stroke:#ffffff;stroke-linejoin:miter;"/>
    </g>
    <g id="text_18">
     <!-- cLHS -->
     <g style="fill:#262626;" transform="translate(228.74 128.213672)scale(0.11 -0.11)">
      <defs>
       <path d="M 7.328125 0 
L 7.328125 71.578125 
L 16.796875 71.578125 
L 16.796875 8.453125 
L 52.046875 8.453125 
L 52.046875 0 
z
" id="ArialMT-76"/>
       <path d="M 8.015625 0 
L 8.015625 71.578125 
L 17.484375 71.578125 
L 17.484375 42.1875 
L 54.6875 42.1875 
L 54.6875 71.578125 
L 64.15625 71.578125 
L 64.15625 0 
L 54.6875 0 
L 54.6875 33.734375 
L 17.484375 33.734375 
L 17.484375 0 
z
" id="ArialMT-72"/>
       <path d="M 4.5 23 
L 13.421875 23.78125 
Q 14.0625 18.40625 16.375 14.96875 
Q 18.703125 11.53125 23.578125 9.40625 
Q 28.46875 7.28125 34.578125 7.28125 
Q 39.984375 7.28125 44.140625 8.890625 
Q 48.296875 10.5 50.3125 13.296875 
Q 52.34375 16.109375 52.34375 19.4375 
Q 52.34375 22.796875 50.390625 25.3125 
Q 48.4375 27.828125 43.953125 29.546875 
Q 41.0625 30.671875 31.203125 33.03125 
Q 21.34375 35.40625 17.390625 37.5 
Q 12.25 40.1875 9.734375 44.15625 
Q 7.234375 48.140625 7.234375 53.078125 
Q 7.234375 58.5 10.296875 63.203125 
Q 13.375 67.921875 19.28125 70.359375 
Q 25.203125 72.796875 32.421875 72.796875 
Q 40.375 72.796875 46.453125 70.234375 
Q 52.546875 67.671875 55.8125 62.6875 
Q 59.078125 57.71875 59.328125 51.421875 
L 50.25 50.734375 
Q 49.515625 57.515625 45.28125 60.984375 
Q 41.0625 64.453125 32.8125 64.453125 
Q 24.21875 64.453125 20.28125 61.296875 
Q 16.359375 58.15625 16.359375 53.71875 
Q 16.359375 49.859375 19.140625 47.359375 
Q 21.875 44.875 33.421875 42.265625 
Q 44.96875 39.65625 49.265625 37.703125 
Q 55.515625 34.8125 58.484375 30.390625 
Q 61.46875 25.984375 61.46875 20.21875 
Q 61.46875 14.5 58.203125 9.4375 
Q 54.9375 4.390625 48.796875 1.578125 
Q 42.671875 -1.21875 35.015625 -1.21875 
Q 25.296875 -1.21875 18.71875 1.609375 
Q 12.15625 4.4375 8.421875 10.125 
Q 4.6875 15.828125 4.5 23 
z
" id="ArialMT-83"/>
      </defs>
      <use xlink:href="#ArialMT-99"/>
      <use x="50" xlink:href="#ArialMT-76"/>
      <use x="105.615234" xlink:href="#ArialMT-72"/>
      <use x="177.832031" xlink:href="#ArialMT-83"/>
     </g>
    </g>
    <g id="patch_56">
     <path d="M 197.94 143.773516 
L 219.94 143.773516 
L 219.94 136.073516 
L 197.94 136.073516 
z
" style="fill:#a1c9f4;fill-opacity:0.5;stroke:#ffffff;stroke-linejoin:miter;stroke-width:0.90734;"/>
    </g>
    <g id="text_19">
     <!-- maxvol -->
     <g style="fill:#262626;" transform="translate(228.74 143.773516)scale(0.11 -0.11)">
      <defs>
       <path d="M 6.59375 0 
L 6.59375 51.859375 
L 14.453125 51.859375 
L 14.453125 44.578125 
Q 16.890625 48.390625 20.9375 50.703125 
Q 25 53.03125 30.171875 53.03125 
Q 35.9375 53.03125 39.625 50.640625 
Q 43.3125 48.25 44.828125 43.953125 
Q 50.984375 53.03125 60.84375 53.03125 
Q 68.5625 53.03125 72.703125 48.75 
Q 76.859375 44.484375 76.859375 35.59375 
L 76.859375 0 
L 68.109375 0 
L 68.109375 32.671875 
Q 68.109375 37.9375 67.25 40.25 
Q 66.40625 42.578125 64.15625 43.984375 
Q 61.921875 45.40625 58.890625 45.40625 
Q 53.421875 45.40625 49.796875 41.765625 
Q 46.1875 38.140625 46.1875 30.125 
L 46.1875 0 
L 37.40625 0 
L 37.40625 33.6875 
Q 37.40625 39.546875 35.25 42.46875 
Q 33.109375 45.40625 28.21875 45.40625 
Q 24.515625 45.40625 21.359375 43.453125 
Q 18.21875 41.5 16.796875 37.734375 
Q 15.375 33.984375 15.375 26.90625 
L 15.375 0 
z
" id="ArialMT-109"/>
       <path d="M 0.734375 0 
L 19.671875 26.953125 
L 2.15625 51.859375 
L 13.140625 51.859375 
L 21.09375 39.703125 
Q 23.34375 36.234375 24.703125 33.890625 
Q 26.859375 37.109375 28.65625 39.59375 
L 37.40625 51.859375 
L 47.90625 51.859375 
L 29.984375 27.4375 
L 49.265625 0 
L 38.484375 0 
L 27.828125 16.109375 
L 25 20.453125 
L 11.375 0 
z
" id="ArialMT-120"/>
       <path d="M 21 0 
L 1.265625 51.859375 
L 10.546875 51.859375 
L 21.6875 20.796875 
Q 23.484375 15.765625 25 10.359375 
Q 26.171875 14.453125 28.265625 20.21875 
L 39.796875 51.859375 
L 48.828125 51.859375 
L 29.203125 0 
z
" id="ArialMT-118"/>
       <path d="M 6.390625 0 
L 6.390625 71.578125 
L 15.1875 71.578125 
L 15.1875 0 
z
" id="ArialMT-108"/>
      </defs>
      <use xlink:href="#ArialMT-109"/>
      <use x="83.300781" xlink:href="#ArialMT-97"/>
      <use x="138.916016" xlink:href="#ArialMT-120"/>
      <use x="188.916016" xlink:href="#ArialMT-118"/>
      <use x="238.916016" xlink:href="#ArialMT-111"/>
      <use x="294.53125" xlink:href="#ArialMT-108"/>
     </g>
    </g>
   </g>
  </g>
 </g>
 <defs>
  <clipPath id="p6b0c90a72a">
   <rect height="190.26" width="279" x="45" y="30.24"/>
  </clipPath>
 </defs>
</svg>
